<svg xmlns="http://www.w3.org/2000/svg" width="493.874" height="339.666" viewBox="0 0 493.874 339.666">
  <g id="Grupo_134162" data-name="Grupo 134162" transform="translate(-206.468 -2708.209)">
    <path id="Trazado_191718" data-name="Trazado 191718" d="M206.55,2726.851H510.393a.082.082,0,0,1,.082.082v185.993a.083.083,0,0,1-.082.082H206.55a.083.083,0,0,1-.082-.082V2726.933a.082.082,0,0,1,.082-.082" transform="translate(0 9.089)" fill="#0f2771" fill-rule="evenodd"/>
    <path id="Trazado_191719" data-name="Trazado 191719" d="M291,2844.171h88.568a1.817,1.817,0,0,0,1.812-1.812h0a1.817,1.817,0,0,0-1.812-1.812H291a1.817,1.817,0,0,0-1.812,1.812h0a1.817,1.817,0,0,0,1.812,1.812" transform="translate(40.332 64.521)" fill="rgba(77,208,225,0.43)" fill-rule="evenodd"/>
    <path id="Trazado_191720" data-name="Trazado 191720" d="M357.135,2844.171h21.742a1.817,1.817,0,0,0,1.812-1.812h0a1.817,1.817,0,0,0-1.812-1.812H357.135a1.817,1.817,0,0,0-1.812,1.812h0a1.817,1.817,0,0,0,1.812,1.812" transform="translate(72.573 64.521)" fill="#fff" fill-rule="evenodd"/>
    <path id="Trazado_191721" data-name="Trazado 191721" d="M284.556,2838.869H306.3a1.817,1.817,0,0,0,1.812-1.812h0a1.817,1.817,0,0,0-1.812-1.812H284.556a1.817,1.817,0,0,0-1.812,1.812h0a1.817,1.817,0,0,0,1.812,1.812" transform="translate(37.188 61.936)" fill="#fff" fill-rule="evenodd"/>
    <path id="Trazado_191722" data-name="Trazado 191722" d="M291,2833.568h32.614a1.817,1.817,0,0,0,1.81-1.812h0a1.817,1.817,0,0,0-1.81-1.812H291a1.817,1.817,0,0,0-1.812,1.812h0a1.817,1.817,0,0,0,1.812,1.812" transform="translate(40.332 59.351)" fill="#fff" fill-rule="evenodd"/>
    <path id="Trazado_191723" data-name="Trazado 191723" d="M291.076,2828.265h26.752a1.816,1.816,0,0,0,1.81-1.811h0a1.817,1.817,0,0,0-1.81-1.812H291.076a1.817,1.817,0,0,0-1.812,1.812h0a1.817,1.817,0,0,0,1.812,1.811" transform="translate(40.367 56.766)" fill="#fff" fill-rule="evenodd"/>
    <path id="Trazado_191724" data-name="Trazado 191724" d="M291.076,2822.964h81.212a1.817,1.817,0,0,0,1.812-1.812h0a1.817,1.817,0,0,0-1.812-1.812H291.076a1.817,1.817,0,0,0-1.812,1.812h0a1.817,1.817,0,0,0,1.812,1.812" transform="translate(40.367 54.181)" fill="#fff" fill-rule="evenodd"/>
    <path id="Trazado_191725" data-name="Trazado 191725" d="M319.735,2833.568h21.317a1.816,1.816,0,0,0,1.81-1.812h0a1.816,1.816,0,0,0-1.81-1.812H319.735a1.817,1.817,0,0,0-1.812,1.812h0a1.817,1.817,0,0,0,1.812,1.812" transform="translate(54.339 59.351)" fill="#fff" fill-rule="evenodd"/>
    <path id="Trazado_191726" data-name="Trazado 191726" d="M314.326,2828.265h63.36a1.817,1.817,0,0,0,1.812-1.811h0a1.817,1.817,0,0,0-1.812-1.812h-63.36a1.817,1.817,0,0,0-1.812,1.812h0a1.817,1.817,0,0,0,1.812,1.811" transform="translate(51.702 56.766)" fill="rgba(77,208,225,0.43)" fill-rule="evenodd"/>
    <path id="Trazado_191727" data-name="Trazado 191727" d="M363.333,2828.265h17a1.817,1.817,0,0,0,1.812-1.811h0a1.817,1.817,0,0,0-1.812-1.812h-17a1.817,1.817,0,0,0-1.812,1.812h0a1.817,1.817,0,0,0,1.812,1.811" transform="translate(75.595 56.766)" fill="#6cd6ff" fill-rule="evenodd"/>
    <path id="Trazado_191728" data-name="Trazado 191728" d="M380.743,2828.265h17a1.817,1.817,0,0,0,1.812-1.811h0a1.817,1.817,0,0,0-1.812-1.812h-17a1.817,1.817,0,0,0-1.812,1.812h0a1.817,1.817,0,0,0,1.812,1.811" transform="translate(84.083 56.766)" fill="#ffca05" fill-rule="evenodd"/>
    <path id="Trazado_191729" data-name="Trazado 191729" d="M291,2771.025h32.614a1.817,1.817,0,0,0,1.81-1.812h0a1.817,1.817,0,0,0-1.81-1.812H291a1.817,1.817,0,0,0-1.812,1.812h0a1.817,1.817,0,0,0,1.812,1.812" transform="translate(40.332 28.859)" fill="#fff" fill-rule="evenodd"/>
    <path id="Trazado_191730" data-name="Trazado 191730" d="M291.076,2765.722h26.752a1.816,1.816,0,0,0,1.81-1.812h0a1.816,1.816,0,0,0-1.81-1.812H291.076a1.817,1.817,0,0,0-1.812,1.812h0a1.816,1.816,0,0,0,1.812,1.812" transform="translate(40.367 26.274)" fill="#fff" fill-rule="evenodd"/>
    <path id="Trazado_191731" data-name="Trazado 191731" d="M291.076,2760.421h81.212a1.817,1.817,0,0,0,1.812-1.812h0a1.817,1.817,0,0,0-1.812-1.812H291.076a1.817,1.817,0,0,0-1.812,1.812h0a1.817,1.817,0,0,0,1.812,1.812" transform="translate(40.367 23.689)" fill="#6cd6ff" fill-rule="evenodd"/>
    <path id="Trazado_191732" data-name="Trazado 191732" d="M319.735,2771.025h21.317a1.816,1.816,0,0,0,1.81-1.812h0a1.816,1.816,0,0,0-1.81-1.812H319.735a1.817,1.817,0,0,0-1.812,1.812h0a1.817,1.817,0,0,0,1.812,1.812" transform="translate(54.339 28.859)" fill="#fff" fill-rule="evenodd"/>
    <path id="Trazado_191733" data-name="Trazado 191733" d="M314.326,2765.722h63.36a1.816,1.816,0,0,0,1.812-1.812h0a1.817,1.817,0,0,0-1.812-1.812h-63.36a1.817,1.817,0,0,0-1.812,1.812h0a1.816,1.816,0,0,0,1.812,1.812" transform="translate(51.702 26.274)" fill="#feca2e" fill-rule="evenodd"/>
    <path id="Trazado_191734" data-name="Trazado 191734" d="M363.333,2765.722h17a1.816,1.816,0,0,0,1.812-1.812h0a1.817,1.817,0,0,0-1.812-1.812h-17a1.817,1.817,0,0,0-1.812,1.812h0a1.816,1.816,0,0,0,1.812,1.812" transform="translate(75.595 26.274)" fill="#ffca05" fill-rule="evenodd"/>
    <path id="Trazado_191735" data-name="Trazado 191735" d="M380.743,2765.722h17a1.816,1.816,0,0,0,1.812-1.812h0a1.817,1.817,0,0,0-1.812-1.812h-17a1.817,1.817,0,0,0-1.812,1.812h0a1.816,1.816,0,0,0,1.812,1.812" transform="translate(84.083 26.274)" fill="#fff" fill-rule="evenodd"/>
    <path id="Trazado_191736" data-name="Trazado 191736" d="M291.362,2810.542H313.1a1.817,1.817,0,0,0,1.812-1.812h0a1.817,1.817,0,0,0-1.812-1.812H291.362a1.817,1.817,0,0,0-1.812,1.812h0a1.817,1.817,0,0,0,1.812,1.812" transform="translate(40.506 48.125)" fill="#fff" fill-rule="evenodd"/>
    <path id="Trazado_191737" data-name="Trazado 191737" d="M291,2805.24h32.614a1.817,1.817,0,0,0,1.81-1.812h0a1.817,1.817,0,0,0-1.81-1.812H291a1.817,1.817,0,0,0-1.812,1.812h0A1.817,1.817,0,0,0,291,2805.24" transform="translate(40.332 45.54)" fill="#fff" fill-rule="evenodd"/>
    <path id="Trazado_191738" data-name="Trazado 191738" d="M291.076,2799.938h26.752a1.817,1.817,0,0,0,1.81-1.812h0a1.817,1.817,0,0,0-1.81-1.812H291.076a1.817,1.817,0,0,0-1.812,1.812h0a1.817,1.817,0,0,0,1.812,1.812" transform="translate(40.367 42.955)" fill="#fff" fill-rule="evenodd"/>
    <path id="Trazado_191739" data-name="Trazado 191739" d="M291.076,2794.636h35.1a1.817,1.817,0,0,0,1.812-1.812h0a1.817,1.817,0,0,0-1.812-1.812h-35.1a1.817,1.817,0,0,0-1.812,1.812h0a1.817,1.817,0,0,0,1.812,1.812" transform="translate(40.367 40.37)" fill="#ffca05" fill-rule="evenodd"/>
    <path id="Trazado_191740" data-name="Trazado 191740" d="M319.735,2805.24h21.317a1.816,1.816,0,0,0,1.81-1.812h0a1.816,1.816,0,0,0-1.81-1.812H319.735a1.817,1.817,0,0,0-1.812,1.812h0a1.817,1.817,0,0,0,1.812,1.812" transform="translate(54.339 45.54)" fill="#fff" fill-rule="evenodd"/>
    <path id="Trazado_191741" data-name="Trazado 191741" d="M314.326,2799.938h63.36a1.817,1.817,0,0,0,1.812-1.812h0a1.817,1.817,0,0,0-1.812-1.812h-63.36a1.817,1.817,0,0,0-1.812,1.812h0a1.817,1.817,0,0,0,1.812,1.812" transform="translate(51.702 42.955)" fill="rgba(77,208,225,0.43)" fill-rule="evenodd"/>
    <path id="Trazado_191742" data-name="Trazado 191742" d="M363.333,2799.938h17a1.817,1.817,0,0,0,1.812-1.812h0a1.817,1.817,0,0,0-1.812-1.812h-17a1.817,1.817,0,0,0-1.812,1.812h0a1.817,1.817,0,0,0,1.812,1.812" transform="translate(75.595 42.955)" fill="#fff" fill-rule="evenodd"/>
    <path id="Trazado_191743" data-name="Trazado 191743" d="M380.743,2799.938h17a1.817,1.817,0,0,0,1.812-1.812h0a1.817,1.817,0,0,0-1.812-1.812h-17a1.817,1.817,0,0,0-1.812,1.812h0a1.817,1.817,0,0,0,1.812,1.812" transform="translate(84.083 42.955)" fill="#fff" fill-rule="evenodd"/>
    <path id="Trazado_191744" data-name="Trazado 191744" d="M308.451,2754.936h63.36a1.817,1.817,0,0,0,1.812-1.812h0a1.817,1.817,0,0,0-1.812-1.812h-63.36a1.817,1.817,0,0,0-1.812,1.812h0a1.817,1.817,0,0,0,1.812,1.812" transform="translate(48.838 21.015)" fill="#fff" fill-rule="evenodd"/>
    <path id="Trazado_191745" data-name="Trazado 191745" d="M357.458,2754.936h17a1.817,1.817,0,0,0,1.812-1.812h0a1.817,1.817,0,0,0-1.812-1.812h-17a1.817,1.817,0,0,0-1.812,1.812h0a1.817,1.817,0,0,0,1.812,1.812" transform="translate(72.731 21.015)" fill="#fff" fill-rule="evenodd"/>
    <path id="Trazado_191746" data-name="Trazado 191746" d="M374.868,2754.936h17a1.817,1.817,0,0,0,1.812-1.812h0a1.817,1.817,0,0,0-1.812-1.812h-17a1.817,1.817,0,0,0-1.812,1.812h0a1.817,1.817,0,0,0,1.812,1.812" transform="translate(81.219 21.015)" fill="#fff" fill-rule="evenodd"/>
    <path id="Trazado_191747" data-name="Trazado 191747" d="M308.449,2749.92h27.71a1.817,1.817,0,0,0,1.812-1.812h0a1.817,1.817,0,0,0-1.812-1.812h-27.71a1.817,1.817,0,0,0-1.81,1.812h0a1.817,1.817,0,0,0,1.81,1.812" transform="translate(48.838 18.569)" fill="#feca2e" fill-rule="evenodd"/>
    <path id="Trazado_191748" data-name="Trazado 191748" d="M333.6,2749.92h43.482a1.817,1.817,0,0,0,1.812-1.812h0a1.817,1.817,0,0,0-1.812-1.812H333.6a1.817,1.817,0,0,0-1.812,1.812h0a1.817,1.817,0,0,0,1.812,1.812" transform="translate(61.099 18.569)" fill="rgba(77,208,225,0.43)" fill-rule="evenodd"/>
    <path id="Trazado_191749" data-name="Trazado 191749" d="M370.3,2749.92h36.637a1.817,1.817,0,0,0,1.812-1.812h0a1.817,1.817,0,0,0-1.812-1.812H370.3a1.817,1.817,0,0,0-1.812,1.812h0a1.817,1.817,0,0,0,1.812,1.812" transform="translate(78.992 18.569)" fill="#fff" fill-rule="evenodd"/>
    <path id="Trazado_191750" data-name="Trazado 191750" d="M308.451,2789.345h63.36a1.817,1.817,0,0,0,1.812-1.812h0a1.817,1.817,0,0,0-1.812-1.811h-63.36a1.817,1.817,0,0,0-1.812,1.811h0a1.817,1.817,0,0,0,1.812,1.812" transform="translate(48.838 37.791)" fill="#fff" fill-rule="evenodd"/>
    <path id="Trazado_191751" data-name="Trazado 191751" d="M357.458,2789.345h17a1.817,1.817,0,0,0,1.812-1.812h0a1.817,1.817,0,0,0-1.812-1.811h-17a1.817,1.817,0,0,0-1.812,1.811h0a1.817,1.817,0,0,0,1.812,1.812" transform="translate(72.731 37.791)" fill="#fff" fill-rule="evenodd"/>
    <path id="Trazado_191752" data-name="Trazado 191752" d="M374.868,2789.345h17a1.817,1.817,0,0,0,1.812-1.812h0a1.817,1.817,0,0,0-1.812-1.811h-17a1.817,1.817,0,0,0-1.812,1.811h0a1.817,1.817,0,0,0,1.812,1.812" transform="translate(81.219 37.791)" fill="#fff" fill-rule="evenodd"/>
    <path id="Trazado_191753" data-name="Trazado 191753" d="M308.449,2783.722h27.71a1.817,1.817,0,0,0,1.812-1.812h0a1.817,1.817,0,0,0-1.812-1.811h-27.71a1.817,1.817,0,0,0-1.81,1.811h0a1.816,1.816,0,0,0,1.81,1.812" transform="translate(48.838 35.049)" fill="#fff" fill-rule="evenodd"/>
    <path id="Trazado_191754" data-name="Trazado 191754" d="M333.6,2783.722h43.482a1.817,1.817,0,0,0,1.812-1.812h0a1.817,1.817,0,0,0-1.812-1.811H333.6a1.817,1.817,0,0,0-1.812,1.811h0a1.817,1.817,0,0,0,1.812,1.812" transform="translate(61.099 35.049)" fill="#fff" fill-rule="evenodd"/>
    <path id="Trazado_191755" data-name="Trazado 191755" d="M370.3,2783.722h36.637a1.817,1.817,0,0,0,1.812-1.812h0a1.817,1.817,0,0,0-1.812-1.811H370.3a1.817,1.817,0,0,0-1.812,1.811h0a1.817,1.817,0,0,0,1.812,1.812" transform="translate(78.992 35.049)" fill="#fff" fill-rule="evenodd"/>
    <rect id="Rectángulo_41753" data-name="Rectángulo 41753" width="53.855" height="166.808" transform="translate(219.778 2748.837)" fill="#031542"/>
    <path id="Trazado_191756" data-name="Trazado 191756" d="M319.751,2794.636h18.89a1.817,1.817,0,0,0,1.812-1.812h0a1.817,1.817,0,0,0-1.812-1.812h-18.89a1.817,1.817,0,0,0-1.812,1.812h0a1.817,1.817,0,0,0,1.812,1.812" transform="translate(54.347 40.37)" fill="rgba(77,208,225,0.43)" fill-rule="evenodd"/>
    <path id="Trazado_191757" data-name="Trazado 191757" d="M336.891,2794.636h18.892a1.817,1.817,0,0,0,1.812-1.812h0a1.817,1.817,0,0,0-1.812-1.812H336.891a1.817,1.817,0,0,0-1.812,1.812h0a1.817,1.817,0,0,0,1.812,1.812" transform="translate(62.704 40.37)" fill="rgba(77,208,225,0.43)" fill-rule="evenodd"/>
    <path id="Trazado_191758" data-name="Trazado 191758" d="M284.556,2777.681H312.55a1.817,1.817,0,0,0,1.812-1.812h0a1.817,1.817,0,0,0-1.812-1.811H284.556a1.817,1.817,0,0,0-1.812,1.811h0a1.817,1.817,0,0,0,1.812,1.812" transform="translate(37.188 32.104)" fill="#fff" fill-rule="evenodd"/>
    <path id="Trazado_191759" data-name="Trazado 191759" d="M308.457,2777.681h18.89a1.818,1.818,0,0,0,1.813-1.812h0a1.818,1.818,0,0,0-1.813-1.811h-18.89a1.817,1.817,0,0,0-1.812,1.811h0a1.817,1.817,0,0,0,1.812,1.812" transform="translate(48.841 32.104)" fill="#fff" fill-rule="evenodd"/>
    <path id="Trazado_191760" data-name="Trazado 191760" d="M326.879,2777.681h18.892a1.817,1.817,0,0,0,1.812-1.812h0a1.817,1.817,0,0,0-1.812-1.811H326.879a1.817,1.817,0,0,0-1.812,1.811h0a1.817,1.817,0,0,0,1.812,1.812" transform="translate(57.822 32.104)" fill="#fff" fill-rule="evenodd"/>
    <path id="Trazado_191761" data-name="Trazado 191761" d="M226.626,2815.715h12a1.755,1.755,0,0,0,1.749-1.748h0a1.755,1.755,0,0,0-1.749-1.749h-12a1.754,1.754,0,0,0-1.748,1.749h0a1.754,1.754,0,0,0,1.748,1.748" transform="translate(8.976 50.709)" fill="#e8f6fd" fill-rule="evenodd"/>
    <path id="Trazado_191762" data-name="Trazado 191762" d="M221.755,2809.892h31.723a1.754,1.754,0,0,0,1.749-1.748h0a1.754,1.754,0,0,0-1.749-1.748H221.755a1.753,1.753,0,0,0-1.748,1.748h0a1.754,1.754,0,0,0,1.748,1.748" transform="translate(6.601 47.87)" fill="#e8f6fd" fill-rule="evenodd"/>
    <path id="Trazado_191763" data-name="Trazado 191763" d="M221.755,2803.729H245.93a1.754,1.754,0,0,0,1.749-1.75h0a1.753,1.753,0,0,0-1.749-1.748H221.755a1.753,1.753,0,0,0-1.748,1.748h0a1.754,1.754,0,0,0,1.748,1.75" transform="translate(6.601 44.865)" fill="#e8f6fd" fill-rule="evenodd"/>
    <path id="Trazado_191764" data-name="Trazado 191764" d="M226.627,2797.565h24.128a1.754,1.754,0,0,0,1.749-1.749h0a1.754,1.754,0,0,0-1.749-1.75H226.627a1.754,1.754,0,0,0-1.749,1.75h0a1.754,1.754,0,0,0,1.749,1.749" transform="translate(8.976 41.859)" fill="#e8f6fd" fill-rule="evenodd"/>
    <path id="Trazado_191765" data-name="Trazado 191765" d="M226.627,2791.4h7.685a1.754,1.754,0,0,0,1.748-1.75h0a1.754,1.754,0,0,0-1.748-1.749h-7.685a1.754,1.754,0,0,0-1.749,1.749h0a1.754,1.754,0,0,0,1.749,1.75" transform="translate(8.976 38.854)" fill="#e8f6fd" fill-rule="evenodd"/>
    <path id="Trazado_191766" data-name="Trazado 191766" d="M221.755,2785.237H244.7a1.754,1.754,0,0,0,1.749-1.75h0a1.754,1.754,0,0,0-1.749-1.749H221.755a1.754,1.754,0,0,0-1.748,1.749h0a1.754,1.754,0,0,0,1.748,1.75" transform="translate(6.601 35.849)" fill="#e8f6fd" fill-rule="evenodd"/>
    <path id="Trazado_191767" data-name="Trazado 191767" d="M226.535,2779.073h6.28a1.755,1.755,0,0,0,1.749-1.75h0a1.754,1.754,0,0,0-1.749-1.749h-6.28a1.754,1.754,0,0,0-1.749,1.749h0a1.755,1.755,0,0,0,1.749,1.75" transform="translate(8.931 32.843)" fill="#e8f6fd" fill-rule="evenodd"/>
    <path id="Trazado_191768" data-name="Trazado 191768" d="M225.972,2772.907h25.45a1.754,1.754,0,0,0,1.749-1.748h0a1.754,1.754,0,0,0-1.749-1.748h-25.45a1.754,1.754,0,0,0-1.749,1.748h0a1.754,1.754,0,0,0,1.749,1.748" transform="translate(8.656 29.838)" fill="#e8f6fd" fill-rule="evenodd"/>
    <path id="Trazado_191769" data-name="Trazado 191769" d="M221.755,2766.744H242a1.754,1.754,0,0,0,1.748-1.75h0a1.754,1.754,0,0,0-1.748-1.749H221.755a1.754,1.754,0,0,0-1.748,1.749h0a1.754,1.754,0,0,0,1.748,1.75" transform="translate(6.601 26.833)" fill="#e8f6fd" fill-rule="evenodd"/>
    <path id="Trazado_191770" data-name="Trazado 191770" d="M225.972,2760.58h25.45a1.754,1.754,0,0,0,1.749-1.749h0a1.754,1.754,0,0,0-1.749-1.75h-25.45a1.754,1.754,0,0,0-1.749,1.75h0a1.754,1.754,0,0,0,1.749,1.749" transform="translate(8.656 23.827)" fill="#e8f6fd" fill-rule="evenodd"/>
    <path id="Trazado_191771" data-name="Trazado 191771" d="M225.972,2754.416h15.514a1.754,1.754,0,0,0,1.749-1.75h0a1.754,1.754,0,0,0-1.749-1.749H225.972a1.754,1.754,0,0,0-1.749,1.749h0a1.754,1.754,0,0,0,1.749,1.75" transform="translate(8.656 20.822)" fill="#e8f6fd" fill-rule="evenodd"/>
    <path id="Trazado_191772" data-name="Trazado 191772" d="M221.755,2748.252h11.157a1.754,1.754,0,0,0,1.749-1.75h0a1.754,1.754,0,0,0-1.749-1.749H221.755a1.754,1.754,0,0,0-1.748,1.749h0a1.754,1.754,0,0,0,1.748,1.75" transform="translate(6.601 17.817)" fill="#e8f6fd" fill-rule="evenodd"/>
    <path id="Trazado_191773" data-name="Trazado 191773" d="M226.626,2821.163h12a1.755,1.755,0,0,0,1.749-1.75h0a1.755,1.755,0,0,0-1.749-1.75h-12a1.754,1.754,0,0,0-1.748,1.75h0a1.754,1.754,0,0,0,1.748,1.75" transform="translate(8.976 53.364)" fill="#e8f6fd" fill-rule="evenodd"/>
    <path id="Trazado_191774" data-name="Trazado 191774" d="M221.755,2826.609H252.41a1.753,1.753,0,0,0,1.748-1.749h0a1.754,1.754,0,0,0-1.748-1.75H221.755a1.754,1.754,0,0,0-1.748,1.75h0a1.753,1.753,0,0,0,1.748,1.749" transform="translate(6.601 56.02)" fill="#e8f6fd" fill-rule="evenodd"/>
    <path id="Trazado_191775" data-name="Trazado 191775" d="M226.626,2832.056h12a1.755,1.755,0,0,0,1.749-1.75h0a1.755,1.755,0,0,0-1.749-1.749h-12a1.754,1.754,0,0,0-1.748,1.749h0a1.754,1.754,0,0,0,1.748,1.75" transform="translate(8.976 58.675)" fill="#e8f6fd" fill-rule="evenodd"/>
    <path id="Trazado_191776" data-name="Trazado 191776" d="M291.076,2754.936h17.8a1.817,1.817,0,0,0,1.812-1.812h0a1.817,1.817,0,0,0-1.812-1.812h-17.8a1.817,1.817,0,0,0-1.812,1.812h0a1.817,1.817,0,0,0,1.812,1.812" transform="translate(40.367 21.015)" fill="#fff" fill-rule="evenodd"/>
    <path id="Trazado_191777" data-name="Trazado 191777" d="M278.916,2749.92h35.346a1.817,1.817,0,0,0,1.812-1.812h0a1.817,1.817,0,0,0-1.812-1.812H278.916a1.816,1.816,0,0,0-1.81,1.812h0a1.816,1.816,0,0,0,1.81,1.812" transform="translate(34.439 18.569)" fill="#fff" fill-rule="evenodd"/>
    <path id="Trazado_191778" data-name="Trazado 191778" d="M278.916,2743.713h46.55a1.817,1.817,0,0,0,1.812-1.812h0a1.816,1.816,0,0,0-1.812-1.812h-46.55a1.816,1.816,0,0,0-1.81,1.812h0a1.816,1.816,0,0,0,1.81,1.812" transform="translate(34.439 15.543)" fill="#fff" fill-rule="evenodd"/>
    <path id="Trazado_191779" data-name="Trazado 191779" d="M265.991,2743.713h1.7a1.817,1.817,0,0,0,1.812-1.812h0a1.816,1.816,0,0,0-1.812-1.812h-1.7a1.816,1.816,0,0,0-1.812,1.812h0a1.817,1.817,0,0,0,1.812,1.812" transform="translate(28.137 15.543)" fill="#b1cbef" fill-rule="evenodd"/>
    <path id="Trazado_191780" data-name="Trazado 191780" d="M265.991,2749.92h1.7a1.817,1.817,0,0,0,1.812-1.812h0a1.817,1.817,0,0,0-1.812-1.812h-1.7a1.817,1.817,0,0,0-1.812,1.812h0a1.817,1.817,0,0,0,1.812,1.812" transform="translate(28.137 18.569)" fill="#b1cbef" fill-rule="evenodd"/>
    <path id="Trazado_191781" data-name="Trazado 191781" d="M265.773,2771.025h1.479a1.817,1.817,0,0,0,1.812-1.812h0a1.817,1.817,0,0,0-1.812-1.812h-1.479a1.817,1.817,0,0,0-1.812,1.812h0a1.817,1.817,0,0,0,1.812,1.812" transform="translate(28.03 28.859)" fill="#b1cbef" fill-rule="evenodd"/>
    <path id="Trazado_191782" data-name="Trazado 191782" d="M265.845,2765.722h1.372a1.816,1.816,0,0,0,1.812-1.812h0a1.817,1.817,0,0,0-1.812-1.812h-1.372a1.817,1.817,0,0,0-1.812,1.812h0a1.816,1.816,0,0,0,1.812,1.812" transform="translate(28.065 26.274)" fill="#b1cbef" fill-rule="evenodd"/>
    <path id="Trazado_191783" data-name="Trazado 191783" d="M265.845,2760.421h1.372a1.817,1.817,0,0,0,1.812-1.812h0a1.817,1.817,0,0,0-1.812-1.812h-1.372a1.817,1.817,0,0,0-1.812,1.812h0a1.817,1.817,0,0,0,1.812,1.812" transform="translate(28.065 23.689)" fill="#b1cbef" fill-rule="evenodd"/>
    <path id="Trazado_191784" data-name="Trazado 191784" d="M265.845,2754.936h1.372a1.817,1.817,0,0,0,1.812-1.812h0a1.817,1.817,0,0,0-1.812-1.812h-1.372a1.817,1.817,0,0,0-1.812,1.812h0a1.817,1.817,0,0,0,1.812,1.812" transform="translate(28.065 21.015)" fill="#b1cbef" fill-rule="evenodd"/>
    <path id="Trazado_191785" data-name="Trazado 191785" d="M265.914,2789.345h1.269a1.817,1.817,0,0,0,1.812-1.812h0a1.817,1.817,0,0,0-1.812-1.811h-1.269a1.817,1.817,0,0,0-1.812,1.811h0a1.817,1.817,0,0,0,1.812,1.812" transform="translate(28.099 37.791)" fill="#b1cbef" fill-rule="evenodd"/>
    <path id="Trazado_191786" data-name="Trazado 191786" d="M265.914,2783.722h1.269a1.817,1.817,0,0,0,1.812-1.812h0a1.817,1.817,0,0,0-1.812-1.811h-1.269a1.817,1.817,0,0,0-1.812,1.811h0a1.817,1.817,0,0,0,1.812,1.812" transform="translate(28.099 35.049)" fill="#b1cbef" fill-rule="evenodd"/>
    <path id="Trazado_191787" data-name="Trazado 191787" d="M265.921,2777.681h1.258a1.817,1.817,0,0,0,1.812-1.812h0a1.817,1.817,0,0,0-1.812-1.811h-1.258a1.817,1.817,0,0,0-1.812,1.811h0a1.817,1.817,0,0,0,1.812,1.812" transform="translate(28.103 32.104)" fill="#b1cbef" fill-rule="evenodd"/>
    <path id="Trazado_191788" data-name="Trazado 191788" d="M266.283,2810.542H267a1.817,1.817,0,0,0,1.812-1.812h0a1.817,1.817,0,0,0-1.812-1.812h-.72a1.817,1.817,0,0,0-1.812,1.812h0a1.817,1.817,0,0,0,1.812,1.812" transform="translate(28.279 48.125)" fill="#b1cbef" fill-rule="evenodd"/>
    <path id="Trazado_191789" data-name="Trazado 191789" d="M265.914,2805.24h1.269a1.817,1.817,0,0,0,1.812-1.812h0a1.817,1.817,0,0,0-1.812-1.812h-1.269a1.817,1.817,0,0,0-1.812,1.812h0a1.817,1.817,0,0,0,1.812,1.812" transform="translate(28.099 45.54)" fill="#b1cbef" fill-rule="evenodd"/>
    <path id="Trazado_191790" data-name="Trazado 191790" d="M265.988,2799.938h1.159a1.817,1.817,0,0,0,1.812-1.812h0a1.817,1.817,0,0,0-1.812-1.812h-1.159a1.817,1.817,0,0,0-1.812,1.812h0a1.817,1.817,0,0,0,1.812,1.812" transform="translate(28.135 42.955)" fill="#b1cbef" fill-rule="evenodd"/>
    <path id="Trazado_191791" data-name="Trazado 191791" d="M265.988,2794.636h1.159a1.817,1.817,0,0,0,1.812-1.812h0a1.817,1.817,0,0,0-1.812-1.812h-1.159a1.817,1.817,0,0,0-1.812,1.812h0a1.817,1.817,0,0,0,1.812,1.812" transform="translate(28.135 40.37)" fill="#b1cbef" fill-rule="evenodd"/>
    <path id="Trazado_191792" data-name="Trazado 191792" d="M266.41,2838.869h.531a1.817,1.817,0,0,0,1.812-1.812h0a1.817,1.817,0,0,0-1.812-1.812h-.531a1.817,1.817,0,0,0-1.812,1.812h0a1.817,1.817,0,0,0,1.812,1.812" transform="translate(28.341 61.936)" fill="#b1cbef" fill-rule="evenodd"/>
    <path id="Trazado_191793" data-name="Trazado 191793" d="M266.41,2833.568h.531a1.817,1.817,0,0,0,1.812-1.812h0a1.817,1.817,0,0,0-1.812-1.812h-.531a1.817,1.817,0,0,0-1.812,1.812h0a1.817,1.817,0,0,0,1.812,1.812" transform="translate(28.341 59.351)" fill="#b1cbef" fill-rule="evenodd"/>
    <path id="Trazado_191794" data-name="Trazado 191794" d="M266.365,2828.265h.6a1.817,1.817,0,0,0,1.812-1.811h0a1.817,1.817,0,0,0-1.812-1.812h-.6a1.817,1.817,0,0,0-1.812,1.812h0a1.817,1.817,0,0,0,1.812,1.811" transform="translate(28.319 56.766)" fill="#b1cbef" fill-rule="evenodd"/>
    <path id="Trazado_191795" data-name="Trazado 191795" d="M266.283,2822.964H267a1.817,1.817,0,0,0,1.812-1.812h0A1.817,1.817,0,0,0,267,2819.34h-.72a1.817,1.817,0,0,0-1.812,1.812h0a1.817,1.817,0,0,0,1.812,1.812" transform="translate(28.279 54.181)" fill="#b1cbef" fill-rule="evenodd"/>
    <path id="Trazado_191796" data-name="Trazado 191796" d="M266.283,2817.626H267a1.817,1.817,0,0,0,1.812-1.812h0A1.817,1.817,0,0,0,267,2814h-.72a1.817,1.817,0,0,0-1.812,1.812h0a1.817,1.817,0,0,0,1.812,1.812" transform="translate(28.279 51.579)" fill="#b1cbef" fill-rule="evenodd"/>
    <rect id="Rectángulo_41754" data-name="Rectángulo 41754" width="304.006" height="10.488" transform="translate(206.469 2725.489)" fill="#bddcf6"/>
    <rect id="Rectángulo_41755" data-name="Rectángulo 41755" width="3.19" height="3.19" transform="translate(488.959 2728.454)" fill="#fff"/>
    <rect id="Rectángulo_41756" data-name="Rectángulo 41756" width="3.19" height="3.19" transform="translate(494.592 2728.454)" fill="#fff"/>
    <rect id="Rectángulo_41757" data-name="Rectángulo 41757" width="3.19" height="3.19" transform="translate(500.225 2728.454)" fill="#fff"/>
    <path id="Trazado_191797" data-name="Trazado 191797" d="M421.062,2708.209H560.946a23.505,23.505,0,0,1,23.314,23.558V3024.3a23.507,23.507,0,0,1-23.314,23.56H421.062a23.508,23.508,0,0,1-23.314-23.56V2731.767a23.506,23.506,0,0,1,23.314-23.558" transform="translate(93.257)" fill="#e8e8e8" fill-rule="evenodd"/>
    <path id="Trazado_191798" data-name="Trazado 191798" d="M414.233,2708.209H554.119a23.505,23.505,0,0,1,23.313,23.558V3024.3a23.507,23.507,0,0,1-23.313,23.56H414.233a23.508,23.508,0,0,1-23.314-23.56V2731.767a23.506,23.506,0,0,1,23.314-23.558" transform="translate(89.928)" fill="#afafaf" fill-rule="evenodd"/>
    <path id="Trazado_191799" data-name="Trazado 191799" d="M409.913,2714.4c-6.791,0-12.388,5.906-12.388,13.07v290.558c0,7.167,5.6,13.071,12.388,13.071H552c6.792,0,12.388-5.9,12.388-13.071V2727.471c0-7.165-5.6-13.07-12.388-13.07H409.913" transform="translate(93.149 3.019)" fill="#0f2771" fill-rule="evenodd"/>
    <rect id="Rectángulo_41758" data-name="Rectángulo 41758" width="144.793" height="129.754" transform="translate(501.31 2745.597)" fill="#4d69af"/>
    <path id="Trazado_191800" data-name="Trazado 191800" d="M505.539,2720.1h-9.816a.775.775,0,0,0-.774.772h0a.775.775,0,0,0,.774.773h9.816a.775.775,0,0,0,.773-.773h0a.776.776,0,0,0-.773-.772" transform="translate(140.647 5.799)" fill="#4d69af" fill-rule="evenodd"/>
    <path id="Trazado_191801" data-name="Trazado 191801" d="M505.539,2722.582h-9.816a.776.776,0,0,0-.774.774h0a.775.775,0,0,0,.774.774h9.816a.776.776,0,0,0,.773-.774h0a.777.777,0,0,0-.773-.774" transform="translate(140.647 7.007)" fill="#4d69af" fill-rule="evenodd"/>
    <path id="Trazado_191802" data-name="Trazado 191802" d="M505.539,2724.891h-9.816a.775.775,0,0,0-.774.773h0a.775.775,0,0,0,.774.773h9.816a.776.776,0,0,0,.773-.773h0a.775.775,0,0,0-.773-.773" transform="translate(140.647 8.133)" fill="#4d69af" fill-rule="evenodd"/>
    <rect id="Rectángulo_41759" data-name="Rectángulo 41759" width="163.528" height="130.988" transform="translate(536.814 2766.397)" fill="#feca2e"/>
    <path id="Trazado_191803" data-name="Trazado 191803" d="M491.264,2772.969l54.719,83.578H436.545Z" transform="translate(112.173 31.573)" fill="#fff" fill-rule="evenodd"/>
    <path id="Trazado_191804" data-name="Trazado 191804" d="M515.913,2791.914l36.268,55.4H479.644Z" transform="translate(133.186 40.81)" fill="#fff" fill-rule="evenodd"/>
    <path id="Trazado_191805" data-name="Trazado 191805" d="M514.794,2760.939a15.395,15.395,0,1,1-15.4,15.395,15.395,15.395,0,0,1,15.4-15.395" transform="translate(142.816 25.708)" fill="#fff" fill-rule="evenodd"/>
    <path id="Trazado_191806" data-name="Trazado 191806" d="M430.022,2844.522h8.745a3,3,0,0,1,2.994,2.994h0a3,3,0,0,1-2.994,2.995h-8.745a3,3,0,0,1-2.994-2.995h0a3,3,0,0,1,2.994-2.994" transform="translate(107.533 66.459)" fill="#6c8bc6" fill-rule="evenodd"/>
    <path id="Trazado_191807" data-name="Trazado 191807" d="M430.022,2853.5h19.5a3,3,0,0,1,2.994,2.995h0a3,3,0,0,1-2.994,2.994h-19.5a3,3,0,0,1-2.994-2.994h0a3,3,0,0,1,2.994-2.995" transform="translate(107.533 70.838)" fill="#6c8bc6" fill-rule="evenodd"/>
    <path id="Trazado_191808" data-name="Trazado 191808" d="M430.023,2862.486h38.019a3,3,0,0,1,2.994,2.994v0a3,3,0,0,1-2.994,2.994H430.023a3,3,0,0,1-3-2.994v0a3,3,0,0,1,3-2.994" transform="translate(107.532 75.217)" fill="#4d69af" fill-rule="evenodd"/>
    <path id="Trazado_191809" data-name="Trazado 191809" d="M430.022,2880.787h19.762a3,3,0,0,1,2.994,2.994h0a3,3,0,0,1-2.994,3H430.022a3,3,0,0,1-2.994-3h0a3,3,0,0,1,2.994-2.994" transform="translate(107.533 84.139)" fill="#6c8bc6" fill-rule="evenodd"/>
    <path id="Trazado_191810" data-name="Trazado 191810" d="M430.022,2889.769h67.43a3,3,0,0,1,2.994,2.994h0a3,3,0,0,1-2.994,2.994h-67.43a3,3,0,0,1-2.994-2.994h0a3,3,0,0,1,2.994-2.994" transform="translate(107.533 88.519)" fill="#4d69af" fill-rule="evenodd"/>
    <path id="Trazado_191811" data-name="Trazado 191811" d="M430.023,2898.751h38.019a3,3,0,0,1,2.994,2.995h0a3,3,0,0,1-2.994,3H430.023a3,3,0,0,1-3-3h0a3,3,0,0,1,3-2.995" transform="translate(107.532 92.898)" fill="#4d69af" fill-rule="evenodd"/>
    <path id="Trazado_191812" data-name="Trazado 191812" d="M411.067,2844.522h9.926a3,3,0,0,1,2.994,2.994h0a3,3,0,0,1-2.994,2.995h-9.926a3,3,0,0,1-3-2.995h0a3,3,0,0,1,3-2.994" transform="translate(98.29 66.459)" fill="#6c8bc6" fill-rule="evenodd"/>
    <path id="Trazado_191813" data-name="Trazado 191813" d="M411.067,2853.5h9.926a3,3,0,0,1,2.994,2.995h0a3,3,0,0,1-2.994,2.994h-9.926a3,3,0,0,1-3-2.994h0a3,3,0,0,1,3-2.995" transform="translate(98.29 70.838)" fill="#6c8bc6" fill-rule="evenodd"/>
    <path id="Trazado_191814" data-name="Trazado 191814" d="M411.067,2862.486h9.926a3,3,0,0,1,2.994,2.994h0a3,3,0,0,1-2.994,3h-9.926a3,3,0,0,1-3-3h0a3,3,0,0,1,3-2.994" transform="translate(98.29 75.217)" fill="#6c8bc6" fill-rule="evenodd"/>
    <path id="Trazado_191815" data-name="Trazado 191815" d="M411.067,2880.787h9.926a3,3,0,0,1,2.994,2.994h0a3,3,0,0,1-2.994,3h-9.926a3,3,0,0,1-3-3h0a3,3,0,0,1,3-2.994" transform="translate(98.29 84.139)" fill="#6c8bc6" fill-rule="evenodd"/>
    <path id="Trazado_191816" data-name="Trazado 191816" d="M411.067,2889.769h9.926a3,3,0,0,1,2.994,2.994h0a3,3,0,0,1-2.994,2.994h-9.926a3,3,0,0,1-3-2.994h0a3,3,0,0,1,3-2.994" transform="translate(98.29 88.519)" fill="#6c8bc6" fill-rule="evenodd"/>
    <path id="Trazado_191817" data-name="Trazado 191817" d="M411.067,2898.751h9.926a3,3,0,0,1,2.994,2.995h0a3,3,0,0,1-2.994,3h-9.926a3,3,0,0,1-3-3h0a3,3,0,0,1,3-2.995" transform="translate(98.29 92.898)" fill="#6c8bc6" fill-rule="evenodd"/>
    <path id="Trazado_191818" data-name="Trazado 191818" d="M451.711,2880.787h43.108a3,3,0,0,1,2.994,2.994h0a3,3,0,0,1-2.994,3H451.711a3,3,0,0,1-2.994-3h0a3,3,0,0,1,2.994-2.994" transform="translate(118.107 84.139)" fill="#4d69af" fill-rule="evenodd"/>
    <path id="Trazado_191819" data-name="Trazado 191819" d="M488.471,2880.787h7.573a3,3,0,0,1,3,2.994h0a3,3,0,0,1-3,3h-7.573a3,3,0,0,1-2.994-3h0a3,3,0,0,1,2.994-2.994" transform="translate(136.029 84.139)" fill="#6c8bc6" fill-rule="evenodd"/>
    <path id="Trazado_191820" data-name="Trazado 191820" d="M450.579,2853.5h31.893a3,3,0,0,1,2.994,2.995h0a3,3,0,0,1-2.994,2.994H450.579a3,3,0,0,1-2.994-2.994h0a3,3,0,0,1,2.994-2.995" transform="translate(117.555 70.838)" fill="#4d69af" fill-rule="evenodd"/>
    <path id="Trazado_191821" data-name="Trazado 191821" d="M478.793,2853.5h12.952a3,3,0,0,1,2.994,2.995h0a3,3,0,0,1-2.994,2.994H478.793a3,3,0,0,1-2.994-2.994h0a3,3,0,0,1,2.994-2.995" transform="translate(131.311 70.838)" fill="#4d69af" fill-rule="evenodd"/>
    <path id="Trazado_191822" data-name="Trazado 191822" d="M463.7,2862.486H501.72a3,3,0,0,1,2.994,2.994v0a3,3,0,0,1-2.994,2.994H463.7a3,3,0,0,1-3-2.994v0a3,3,0,0,1,3-2.994" transform="translate(123.953 75.217)" fill="#4d69af" fill-rule="evenodd"/>
    <path id="Trazado_191823" data-name="Trazado 191823" d="M443.5,2844.522h18.865a3,3,0,0,1,2.994,2.994h0a3,3,0,0,1-2.994,2.995H443.5a3,3,0,0,1-3-2.995h0a3,3,0,0,1,3-2.994" transform="translate(114.102 66.459)" fill="#6c8bc6" fill-rule="evenodd"/>
    <path id="Trazado_191824" data-name="Trazado 191824" d="M463.016,2844.522h18.865a3,3,0,0,1,3,2.994h0a3,3,0,0,1-3,2.995H463.016a3,3,0,0,1-2.994-2.995h0a3,3,0,0,1,2.994-2.994" transform="translate(123.619 66.459)" fill="#4d69af" fill-rule="evenodd"/>
    <path id="Trazado_191825" data-name="Trazado 191825" d="M482.942,2844.522h12.65a3,3,0,0,1,2.994,2.994h0a3,3,0,0,1-2.994,2.995h-12.65a3,3,0,0,1-2.994-2.995h0a3,3,0,0,1,2.994-2.994" transform="translate(133.334 66.459)" fill="#4d69af" fill-rule="evenodd"/>
    <path id="Trazado_191826" data-name="Trazado 191826" d="M521.767,2720.247H410.28a4.424,4.424,0,0,0-4.412,4.412h0a4.424,4.424,0,0,0,4.412,4.412H521.767a4.424,4.424,0,0,0,4.411-4.412h0a4.423,4.423,0,0,0-4.411-4.412" transform="translate(97.216 5.869)" fill="#4d69af" fill-rule="evenodd"/>
    <rect id="Rectángulo_41760" data-name="Rectángulo 41760" width="81.204" height="65.045" transform="translate(460.724 2921.763)" fill="#7ba9e3"/>
    <path id="Trazado_191827" data-name="Trazado 191827" d="M429.95,2894.078l-1.318-1.334a1.751,1.751,0,0,1-.278-2.1,18.029,18.029,0,0,0,1.737-4.126,1.75,1.75,0,0,1,1.7-1.266l1.876.009a1.76,1.76,0,0,0,1.775-1.748l.022-3.594a1.763,1.763,0,0,0-1.752-1.773l-1.877-.012a1.747,1.747,0,0,1-1.679-1.287,18.1,18.1,0,0,0-1.687-4.147,1.738,1.738,0,0,1,.306-2.092l1.333-1.319a1.762,1.762,0,0,0,.016-2.492l-2.526-2.557a1.763,1.763,0,0,0-2.492-.014l-1.334,1.318a1.751,1.751,0,0,1-2.1.28,18.07,18.07,0,0,0-4.123-1.74,1.746,1.746,0,0,1-1.267-1.7l.012-1.876a1.758,1.758,0,0,0-1.751-1.77l-3.594-.026a1.765,1.765,0,0,0-1.773,1.752l-.01,1.877a1.745,1.745,0,0,1-1.29,1.678,18.371,18.371,0,0,0-4.147,1.687,1.74,1.74,0,0,1-2.091-.3l-1.318-1.334a1.762,1.762,0,0,0-2.492-.016l-2.556,2.526a1.761,1.761,0,0,0-.016,2.491l1.318,1.334a1.75,1.75,0,0,1,.278,2.1,18.007,18.007,0,0,0-1.737,4.122,1.745,1.745,0,0,1-1.7,1.269l-1.877-.013a1.762,1.762,0,0,0-1.772,1.752l-.024,3.591A1.765,1.765,0,0,0,391.5,2885l1.876.009a1.751,1.751,0,0,1,1.681,1.291,18.043,18.043,0,0,0,1.687,4.145,1.746,1.746,0,0,1-.3,2.094l-1.334,1.318a1.759,1.759,0,0,0-.015,2.491l2.523,2.557a1.769,1.769,0,0,0,2.495.015l1.333-1.319a1.748,1.748,0,0,1,2.1-.277,18.144,18.144,0,0,0,4.122,1.736,1.749,1.749,0,0,1,1.267,1.7l-.012,1.876a1.763,1.763,0,0,0,1.751,1.775l3.594.021a1.76,1.76,0,0,0,1.773-1.751l.012-1.877a1.748,1.748,0,0,1,1.287-1.681,17.915,17.915,0,0,0,4.147-1.686,1.741,1.741,0,0,1,2.091.3l1.319,1.336a1.761,1.761,0,0,0,2.492.016l2.556-2.526a1.758,1.758,0,0,0,.015-2.49m-11.765-4.5a9.757,9.757,0,1,1,.1-15.933A9.745,9.745,0,0,1,418.185,2889.579Z" transform="translate(89.356 73.38)" fill="#fff" fill-rule="evenodd"/>
    <path id="Trazado_191828" data-name="Trazado 191828" d="M301.6,2866.087c-7.118,10.125,11.069,60.421,14.57,84.287,1.6,10.9,5.04,13.14,14.861,15.365,12.882,2.92,21.613,6.5,31.067,6.175,5.532-.192,9.992.025,12.161-1.6,7.546-5.657-4.171-12.2-4.171-12.2s-23.533-9.279-28.229-11.691c-4.04-2.38-6.35-85.046-32.757-90.9-3.459-.768-2.878,5.868-7.5,10.566" transform="translate(45.584 71.791)" fill="#4dd0e1" fill-rule="evenodd"/>
    <path id="Trazado_191829" data-name="Trazado 191829" d="M336.939,2956.72c4.415-2.788,8.619-4.363,10.042,0Zm-75.177,0a175.791,175.791,0,0,1,4.762-27.147c11.409-.387,21.806-2.556,24.391-4.357,1.074-3.319,5.98-14.663,1.285-16.323-3.607-1.587-9.7-2.071-15.941-2.3,19.594-28.782,49.986-.094,48.269,50.132Z" transform="translate(26.958 91.134)" fill="#0b3870" fill-rule="evenodd"/>
    <path id="Trazado_191830" data-name="Trazado 191830" d="M312.263,2818.471a51.239,51.239,0,0,0-.033,14.4c1.346,9.509,4.835,16.272,8.723,24.637a6.175,6.175,0,0,1,.248,3.257c-.394,1.567-1.444,2.559-1.474,3.462-.123,3.558,3.945,5.037,2.654,9.089-1.373,4.308-7.656,9.232-11.485,14.613,0,0-12.565-13.83-17.947-14.807s-6.1-17.9-6.1-18.764,4.79-34.6,4.79-34.6Z" transform="translate(39.19 53.758)" fill="#000446" fill-rule="evenodd"/>
    <path id="Trazado_191831" data-name="Trazado 191831" d="M284.051,2853.746c-11.2,0-20.809,3.435-27.589,10.444a5.166,5.166,0,0,0-1,1.555c2.17,20.022,10.483,24.91,4.568,37.614,1.111,4.248,6.944,21.88,7.9,25.867a58.55,58.55,0,0,1,.534,25.4c-1.73,5.855-2.837,10.6-5.672,22.569h93.831c-3.35-19.006-7.189-33.983-7.424-36.617-1.514-16.985,1.444-73.419-14.639-82.575-12.726-7.246-34.959-4.257-50.505-4.257" transform="translate(23.886 70.658)" fill="#4dd0e1" fill-rule="evenodd"/>
    <path id="Trazado_191832" data-name="Trazado 191832" d="M304.993,2853.416c13.3,7.192,20.278,76.474,17.1,123.936H291.08c1.028-76.408-7.451-105.92-15.438-123.548,11.317-.746,15.3-1.581,29.351-.388" transform="translate(33.725 70.503)" fill="#fff" fill-rule="evenodd"/>
    <path id="Trazado_191833" data-name="Trazado 191833" d="M302.531,2863.836l.265,5.937.409.524c2.9,6.63-4.588,11.118-6.609,12.15-2.065-.319-13.874-4.049-14.562-13.384l.054-.6.411-13.232a3.675,3.675,0,0,1-2.884-2.017c-1.183-2.012-2.2-5.919-2.02-7.324.326-2.535,3.9-.992,3.9-.992h0c-3.366-7.321-7.534-13.58.089-18.075s23.393-4.892,23.393-4.892l9.4-1.4c-4.2,7.392,9.357,37-11.847,43.3" transform="translate(34.524 54.764)" fill="#eac7b0" fill-rule="evenodd"/>
    <path id="Trazado_191834" data-name="Trazado 191834" d="M284.65,2845.169c3.719,8.746,7.021,11.91,14.553,12.594l-.271-6.056c-2.871-.15-9.986-2.268-14.282-6.538" transform="translate(38.117 66.774)" fill="#d8b29e" fill-rule="evenodd"/>
    <path id="Trazado_191835" data-name="Trazado 191835" d="M329.185,2815.645c-12.6-8.9-31.536-6.755-40.808,7.431-7.979,12.213-8.083,33.177-20.269,33.77-3.99.195-8.6,2.179-9.23,10.889-2.886.928-9.464,4.42-4.631,13.682-4.766,3.419-5.285,9.052-1.012,12.381a32.532,32.532,0,0,1,4.716-7.17h0a5.22,5.22,0,0,1,1.012-1.57c6.78-7.008,16.385-10.444,27.589-10.444,2.655,0,6.1-.007,8.656-.2.338-4.175.933-12.03.949-14.618a7.526,7.526,0,0,1-2.969-6.45c.076-3.375,1.148-2.88,5.917-.605.628-8.481-.43-13.449,15.7-13.443a36.039,36.039,0,0,0,13.638-2.416c6.858-2.8,8.881-15.487.744-21.236" transform="translate(21.383 49.788)" fill="#000446" fill-rule="evenodd"/>
    <path id="Trazado_191836" data-name="Trazado 191836" d="M279.226,2882.153c-3.476-7.716,2.35-33.645-14.315-20.366-.9.716-5.172,6.713-6.144,8.341-7.531,12.628-23.533,60.506-20.187,83.314,1.59,10.84,10.907,13,20.672,15.213,12.808,2.9,32.107,6.462,41.508,6.138,5.5-.189,9.934.027,12.092-1.592,7.5-5.626-4.149-12.129-4.149-12.129s-41.311-16.256-45.98-18.653c-2.207-1.3,19.24-54.186,16.5-60.266" transform="translate(15.435 73.061)" fill="#4dd0e1" fill-rule="evenodd"/>
    <path id="Trazado_191837" data-name="Trazado 191837" d="M376.6,2933.292H290.055v2.413a2.418,2.418,0,0,0,2.411,2.411h81.718a2.419,2.419,0,0,0,2.413-2.411Z" transform="translate(40.752 109.738)" fill="#2a4589" fill-rule="evenodd"/>
    <path id="Trazado_191838" data-name="Trazado 191838" d="M394.641,2899.6H330.05c-2.547,0-4.156,2.154-4.631,4.685l-9.192,48.954h73.21l9.192-49.6c.4-2.18-1.794-4.035-3.988-4.035" transform="translate(53.513 93.313)" fill="#2a4589" fill-rule="evenodd"/>
    <path id="Trazado_191839" data-name="Trazado 191839" d="M396.04,2899.6H331.451c-2.548,0-4.155,2.155-4.632,4.685l-8.253,43.82h-.11l-.53,3.216c-.289,1.745,1.449,3.216,3.216,3.216h66.911a3.425,3.425,0,0,0,3.216-3.216l.4-2.64,8.363-45.046c.4-2.18-1.794-4.035-3.988-4.035" transform="translate(54.325 93.313)" fill="#b1d2fc" fill-rule="evenodd"/>
    <path id="Trazado_191840" data-name="Trazado 191840" d="M348.758,2916.205a3.416,3.416,0,1,0,2,3.946,3.149,3.149,0,0,0-2-3.946" transform="translate(67.577 101.375)" fill="#edf8fd" fill-rule="evenodd"/>
    <path id="Trazado_191841" data-name="Trazado 191841" d="M283.632,2940.258c10.124-.051,21.437.083,24.433-.046-2.965-8.831-13.514-11.744-21.837-11.262-2,1.365-4.027,8.47-2.6,11.308" transform="translate(37.386 107.596)" fill="#eac7b0" fill-rule="evenodd"/>
  </g>
</svg>
