<svg xmlns="http://www.w3.org/2000/svg" width="142.007" height="17.927" viewBox="0 0 142.007 17.927">
  <g id="Grupo_139915" data-name="Grupo 139915" transform="translate(-3246.266 7543.836)">
    <path id="Trazado_197433" data-name="Trazado 197433" d="M88.633,12.383a12.079,12.079,0,0,1,.473-3.391,9.849,9.849,0,0,1,1.41-2.953,6,6,0,0,1,1.945-1.875l.3.953a6.222,6.222,0,0,0-1.871,2.672,11.583,11.583,0,0,0-.8,4.023l-.008.664a11.643,11.643,0,0,0,1.1,5.234,6.252,6.252,0,0,0,1.578,2.078l-.3.883a6.192,6.192,0,0,1-1.984-1.937A10.859,10.859,0,0,1,88.633,12.383Zm12.18-.641h-4.93v4.031h5.727V17H94.383V5.625h7.148V6.852H95.883v3.664h4.93Zm7.359,3.016a1.064,1.064,0,0,0-.441-.91,4.249,4.249,0,0,0-1.539-.559,7.277,7.277,0,0,1-1.742-.562,2.479,2.479,0,0,1-.953-.781,1.869,1.869,0,0,1-.309-1.078,2.193,2.193,0,0,1,.879-1.758,3.432,3.432,0,0,1,2.246-.719,3.532,3.532,0,0,1,2.332.742,2.357,2.357,0,0,1,.895,1.9h-1.453a1.3,1.3,0,0,0-.5-1.023,1.888,1.888,0,0,0-1.27-.43,1.976,1.976,0,0,0-1.234.344,1.082,1.082,0,0,0-.445.9.877.877,0,0,0,.414.789,5.1,5.1,0,0,0,1.5.508,7.8,7.8,0,0,1,1.754.578,2.558,2.558,0,0,1,1,.809,1.988,1.988,0,0,1,.324,1.152,2.163,2.163,0,0,1-.906,1.816,3.8,3.8,0,0,1-2.352.684,4.257,4.257,0,0,1-1.8-.359,2.922,2.922,0,0,1-1.223-1A2.42,2.42,0,0,1,102.9,14.4h1.445a1.5,1.5,0,0,0,.582,1.152,2.258,2.258,0,0,0,1.434.426,2.331,2.331,0,0,0,1.316-.332A1.02,1.02,0,0,0,108.172,14.758ZM113.461,6.5V8.547h1.578V9.664h-1.578v5.249a1.173,1.173,0,0,0,.211.763.888.888,0,0,0,.719.254,3.5,3.5,0,0,0,.688-.094V17a4.215,4.215,0,0,1-1.109.155,1.8,1.8,0,0,1-1.461-.586,2.517,2.517,0,0,1-.492-1.664V9.664h-1.539V8.547h1.539V6.5Zm8.484,9.664a3.07,3.07,0,0,1-2.477.992,2.628,2.628,0,0,1-2.059-.785,3.4,3.4,0,0,1-.715-2.324v-5.5h1.445v5.461q0,1.922,1.563,1.922a2.163,2.163,0,0,0,2.2-1.234V8.547h1.445V17h-1.375ZM125.2,12.7a4.952,4.952,0,0,1,.922-3.129,3.137,3.137,0,0,1,4.766-.168V5h1.445V17H131l-.07-.906a2.943,2.943,0,0,1-2.414,1.063,2.887,2.887,0,0,1-2.395-1.2,5.008,5.008,0,0,1-.926-3.141Zm1.445.164a3.749,3.749,0,0,0,.594,2.25,1.92,1.92,0,0,0,1.641.813,2.108,2.108,0,0,0,2.008-1.234V10.813a2.125,2.125,0,0,0-1.992-1.2,1.929,1.929,0,0,0-1.656.82A4.128,4.128,0,0,0,126.641,12.867Zm9.5,4.133H134.7V8.547h1.445ZM134.578,6.3a.863.863,0,0,1,.215-.594.807.807,0,0,1,.637-.242.819.819,0,0,1,.641.242.854.854,0,0,1,.219.594.826.826,0,0,1-.219.586.834.834,0,0,1-.641.234.821.821,0,0,1-.637-.234A.834.834,0,0,1,134.578,6.3ZM143.672,17a3.036,3.036,0,0,1-.2-.891,3.225,3.225,0,0,1-2.406,1.047,2.984,2.984,0,0,1-2.051-.707,2.287,2.287,0,0,1-.8-1.793,2.39,2.39,0,0,1,1-2.051,4.733,4.733,0,0,1,2.824-.73h1.406v-.664A1.623,1.623,0,0,0,142.992,10a1.821,1.821,0,0,0-1.336-.449,2.107,2.107,0,0,0-1.3.391,1.151,1.151,0,0,0-.523.945h-1.453a2,2,0,0,1,.449-1.223,3.066,3.066,0,0,1,1.219-.934,4.1,4.1,0,0,1,1.691-.344,3.342,3.342,0,0,1,2.289.73,2.635,2.635,0,0,1,.859,2.012v3.891a4.757,4.757,0,0,0,.3,1.852V17Zm-2.4-1.1a2.54,2.54,0,0,0,1.289-.352,2.127,2.127,0,0,0,.883-.914V12.9h-1.133q-2.656,0-2.656,1.555a1.316,1.316,0,0,0,.453,1.063A1.742,1.742,0,0,0,141.273,15.9Zm7.25-7.352.047,1.063A3.08,3.08,0,0,1,151.1,8.391q2.68,0,2.7,3.023V17h-1.445V11.406a1.946,1.946,0,0,0-.418-1.352,1.675,1.675,0,0,0-1.277-.437,2.086,2.086,0,0,0-1.234.375,2.546,2.546,0,0,0-.828.984V17h-1.445V8.547ZM157.945,6.5V8.547h1.578V9.664h-1.578v5.249a1.173,1.173,0,0,0,.211.763.888.888,0,0,0,.719.254,3.5,3.5,0,0,0,.688-.094V17a4.215,4.215,0,0,1-1.109.155,1.8,1.8,0,0,1-1.461-.586,2.517,2.517,0,0,1-.492-1.664V9.664h-1.539V8.547H156.5V6.5Zm6.773,10.656a3.693,3.693,0,0,1-2.8-1.129,4.19,4.19,0,0,1-1.078-3.02v-.266a5.073,5.073,0,0,1,.48-2.246,3.748,3.748,0,0,1,1.344-1.547,3.378,3.378,0,0,1,1.871-.559A3.166,3.166,0,0,1,167.1,9.477a4.7,4.7,0,0,1,.914,3.109v.6h-5.727a3,3,0,0,0,.73,2.02,2.3,2.3,0,0,0,1.777.77,2.517,2.517,0,0,0,1.3-.312,3.258,3.258,0,0,0,.93-.828l.883.688A3.55,3.55,0,0,1,164.719,17.156Zm-.18-7.578a1.928,1.928,0,0,0-1.469.637A3.1,3.1,0,0,0,162.336,12h4.234v-.109a2.753,2.753,0,0,0-.594-1.707A1.815,1.815,0,0,0,164.539,9.578Zm10.07,5.18a1.064,1.064,0,0,0-.441-.91,4.249,4.249,0,0,0-1.539-.559,7.277,7.277,0,0,1-1.742-.562,2.479,2.479,0,0,1-.953-.781,1.869,1.869,0,0,1-.309-1.078,2.193,2.193,0,0,1,.879-1.758,3.432,3.432,0,0,1,2.246-.719,3.532,3.532,0,0,1,2.332.742,2.357,2.357,0,0,1,.895,1.9h-1.453a1.3,1.3,0,0,0-.5-1.023,1.888,1.888,0,0,0-1.27-.43,1.976,1.976,0,0,0-1.234.344,1.082,1.082,0,0,0-.445.9.877.877,0,0,0,.414.789,5.1,5.1,0,0,0,1.5.508,7.8,7.8,0,0,1,1.754.578,2.558,2.558,0,0,1,1,.809,1.988,1.988,0,0,1,.324,1.152,2.163,2.163,0,0,1-.906,1.816,3.8,3.8,0,0,1-2.352.684A4.257,4.257,0,0,1,171,16.8a2.922,2.922,0,0,1-1.223-1,2.42,2.42,0,0,1-.441-1.395h1.445a1.5,1.5,0,0,0,.582,1.152,2.258,2.258,0,0,0,1.434.426,2.331,2.331,0,0,0,1.316-.332A1.02,1.02,0,0,0,174.609,14.758Zm6.664-2.3a12.084,12.084,0,0,1-.457,3.34,9.876,9.876,0,0,1-1.4,2.949,6.127,6.127,0,0,1-1.973,1.922l-.3-.883a6.281,6.281,0,0,0,1.934-2.863,12.387,12.387,0,0,0,.746-4.309v-.25a12.861,12.861,0,0,0-.344-3.051,10.3,10.3,0,0,0-.957-2.527,5.838,5.838,0,0,0-1.379-1.742l.3-.883A6.1,6.1,0,0,1,179.41,6.07a9.9,9.9,0,0,1,1.4,2.945A12.364,12.364,0,0,1,181.273,12.461Z" transform="translate(3207 -7548)" fill="#12263f"/>
    <path id="Trazado_197434" data-name="Trazado 197434" d="M121.477,9.742h-2.219a3.848,3.848,0,0,1,1.563,3.289v.133a4.3,4.3,0,0,1-.477,2.012,3.623,3.623,0,0,1-3.3,1.98,3.471,3.471,0,0,1-2.742-1.184,4.642,4.642,0,0,1-1.039-3.176v-.1a4.8,4.8,0,0,1,.461-2.133,3.521,3.521,0,0,1,1.309-1.477,3.629,3.629,0,0,1,1.941-.539h4.5Zm-6.758,3.125a3.719,3.719,0,0,0,.625,2.27,2.145,2.145,0,0,0,3.41-.008,4.071,4.071,0,0,0,.621-2.434,3.4,3.4,0,0,0-.629-2.148,2.059,2.059,0,0,0-1.715-.8,2.029,2.029,0,0,0-1.691.8A3.731,3.731,0,0,0,114.719,12.867Zm9.543,9.224a2.154,2.154,0,0,1-1.631-.658A2.444,2.444,0,0,1,122,19.671v-.155a2.959,2.959,0,0,1,.28-1.31,2.186,2.186,0,0,1,.784-.9,1.971,1.971,0,0,1,1.091-.326,1.847,1.847,0,0,1,1.495.633,2.743,2.743,0,0,1,.533,1.814v.351h-3.34a1.753,1.753,0,0,0,.426,1.178,1.339,1.339,0,0,0,1.037.449,1.468,1.468,0,0,0,.756-.182,1.9,1.9,0,0,0,.542-.483l.515.4A2.071,2.071,0,0,1,124.263,22.091Zm-.1-4.42a1.125,1.125,0,0,0-.857.371,1.805,1.805,0,0,0-.428,1.041h2.47V19.02a1.606,1.606,0,0,0-.346-1A1.059,1.059,0,0,0,124.158,17.671Zm2.8,1.823a2.888,2.888,0,0,1,.538-1.825,1.83,1.83,0,0,1,2.78-.1V15h.843v7h-.775l-.041-.529a1.717,1.717,0,0,1-1.408.62,1.684,1.684,0,0,1-1.4-.7,2.921,2.921,0,0,1-.54-1.832Zm.843.1a2.187,2.187,0,0,0,.346,1.312,1.12,1.12,0,0,0,.957.474,1.23,1.23,0,0,0,1.171-.72V18.391a1.239,1.239,0,0,0-1.162-.7,1.125,1.125,0,0,0-.966.478A2.408,2.408,0,0,0,127.8,19.589ZM135.469,22a1.771,1.771,0,0,1-.118-.52,1.881,1.881,0,0,1-1.4.611,1.741,1.741,0,0,1-1.2-.412,1.334,1.334,0,0,1-.467-1.046,1.394,1.394,0,0,1,.586-1.2,2.761,2.761,0,0,1,1.647-.426h.82v-.387a.947.947,0,0,0-.264-.7,1.062,1.062,0,0,0-.779-.262,1.229,1.229,0,0,0-.756.228.671.671,0,0,0-.305.551h-.848a1.163,1.163,0,0,1,.262-.713,1.789,1.789,0,0,1,.711-.545,2.392,2.392,0,0,1,.987-.2,1.949,1.949,0,0,1,1.335.426,1.537,1.537,0,0,1,.5,1.173v2.269a2.774,2.774,0,0,0,.173,1.08V22Zm-1.4-.643a1.482,1.482,0,0,0,.752-.205,1.24,1.24,0,0,0,.515-.533V19.608h-.661q-1.549,0-1.549.907a.767.767,0,0,0,.264.62A1.016,1.016,0,0,0,134.07,21.357Zm3.226-1.864a2.889,2.889,0,0,1,.538-1.825,1.83,1.83,0,0,1,2.78-.1V15h.843v7h-.775l-.041-.529a1.717,1.717,0,0,1-1.408.62,1.684,1.684,0,0,1-1.4-.7,2.921,2.921,0,0,1-.54-1.832Zm.843.1a2.187,2.187,0,0,0,.346,1.312,1.12,1.12,0,0,0,.957.474,1.23,1.23,0,0,0,1.171-.72V18.391a1.239,1.239,0,0,0-1.162-.7,1.125,1.125,0,0,0-.966.478A2.408,2.408,0,0,0,138.139,19.589Zm7.61-.551-3.012-1.18v-.866l3.892,1.723v.665l-3.892,1.727v-.875ZM150.325,22h-.848V16.381l-1.7.624V16.24l2.415-.907h.132Zm6.494-4.9a1.541,1.541,0,0,1-.262.884,1.783,1.783,0,0,1-.709.606,1.9,1.9,0,0,1,.823.652,1.64,1.64,0,0,1,.3.971,1.734,1.734,0,0,1-.581,1.372,2.547,2.547,0,0,1-3.062,0,1.742,1.742,0,0,1-.576-1.369,1.689,1.689,0,0,1,.294-.971,1.829,1.829,0,0,1,.813-.656,1.739,1.739,0,0,1-.7-.606,1.563,1.563,0,0,1-.255-.88,1.715,1.715,0,0,1,.538-1.331,2.283,2.283,0,0,1,2.832,0A1.711,1.711,0,0,1,156.818,17.1Zm-.688,3.094a1.223,1.223,0,0,0-.353-.907,1.253,1.253,0,0,0-.923-.351,1.186,1.186,0,0,0-1.258,1.258,1.178,1.178,0,0,0,.335.889,1.5,1.5,0,0,0,1.862,0A1.175,1.175,0,0,0,156.13,20.191Zm-1.267-4.224a1.088,1.088,0,0,0-.8.308,1.273,1.273,0,0,0,0,1.654,1.2,1.2,0,0,0,1.618,0,1.247,1.247,0,0,0-.011-1.643A1.072,1.072,0,0,0,154.863,15.966Z" transform="translate(3133 -7548)" fill="#12263f"/>
  </g>
</svg>
