<svg xmlns="http://www.w3.org/2000/svg" width="219.84" height="19.508" viewBox="0 0 219.84 19.508">
  <g id="Grupo_139917" data-name="Grupo 139917" transform="translate(-558.214 -3699.464)">
    <path id="Trazado_197437" data-name="Trazado 197437" d="M85.852,12.383a12.079,12.079,0,0,1,.473-3.391,9.849,9.849,0,0,1,1.41-2.953A6,6,0,0,1,89.68,4.164l.3.953a6.222,6.222,0,0,0-1.871,2.672,11.583,11.583,0,0,0-.8,4.023l-.008.664a11.643,11.643,0,0,0,1.1,5.234,6.252,6.252,0,0,0,1.578,2.078l-.3.883A6.192,6.192,0,0,1,87.7,18.734,10.859,10.859,0,0,1,85.852,12.383Zm12.18-.641H93.1v4.031h5.727V17H91.6V5.625H98.75V6.852H93.1v3.664h4.93Zm7.359,3.016a1.064,1.064,0,0,0-.441-.91,4.249,4.249,0,0,0-1.539-.559,7.277,7.277,0,0,1-1.742-.562,2.479,2.479,0,0,1-.953-.781,1.869,1.869,0,0,1-.309-1.078,2.193,2.193,0,0,1,.879-1.758,3.432,3.432,0,0,1,2.246-.719,3.532,3.532,0,0,1,2.332.742,2.357,2.357,0,0,1,.895,1.9H105.3a1.3,1.3,0,0,0-.5-1.023,1.888,1.888,0,0,0-1.27-.43,1.976,1.976,0,0,0-1.234.344,1.082,1.082,0,0,0-.445.9.877.877,0,0,0,.414.789,5.1,5.1,0,0,0,1.5.508,7.8,7.8,0,0,1,1.754.578,2.558,2.558,0,0,1,1,.809,1.988,1.988,0,0,1,.324,1.152,2.163,2.163,0,0,1-.906,1.816,3.8,3.8,0,0,1-2.352.684,4.257,4.257,0,0,1-1.8-.359,2.922,2.922,0,0,1-1.223-1,2.42,2.42,0,0,1-.441-1.395h1.445a1.5,1.5,0,0,0,.582,1.152,2.258,2.258,0,0,0,1.434.426,2.331,2.331,0,0,0,1.316-.332A1.02,1.02,0,0,0,105.391,14.758ZM110.68,6.5V8.547h1.578V9.664H110.68v5.249a1.173,1.173,0,0,0,.211.763.888.888,0,0,0,.719.254,3.5,3.5,0,0,0,.688-.094V17a4.215,4.215,0,0,1-1.109.155,1.8,1.8,0,0,1-1.461-.586,2.517,2.517,0,0,1-.492-1.664V9.664H107.7V8.547h1.539V6.5Zm8.484,9.664a3.07,3.07,0,0,1-2.477.992,2.628,2.628,0,0,1-2.059-.785,3.4,3.4,0,0,1-.715-2.324v-5.5h1.445v5.461q0,1.922,1.563,1.922a2.163,2.163,0,0,0,2.2-1.234V8.547h1.445V17H119.2Zm3.25-3.461a4.952,4.952,0,0,1,.922-3.129,3.137,3.137,0,0,1,4.766-.168V5h1.445V17h-1.328l-.07-.906a2.943,2.943,0,0,1-2.414,1.063,2.887,2.887,0,0,1-2.395-1.2,5.008,5.008,0,0,1-.926-3.141Zm1.445.164a3.749,3.749,0,0,0,.594,2.25,1.92,1.92,0,0,0,1.641.813A2.108,2.108,0,0,0,128.1,14.7V10.813a2.125,2.125,0,0,0-1.992-1.2,1.929,1.929,0,0,0-1.656.82A4.128,4.128,0,0,0,123.859,12.867Zm9.5,4.133h-1.445V8.547h1.445ZM131.8,6.3a.863.863,0,0,1,.215-.594.807.807,0,0,1,.637-.242.819.819,0,0,1,.641.242.854.854,0,0,1,.219.594.826.826,0,0,1-.219.586.834.834,0,0,1-.641.234.821.821,0,0,1-.637-.234A.834.834,0,0,1,131.8,6.3ZM140.891,17a3.036,3.036,0,0,1-.2-.891,3.225,3.225,0,0,1-2.406,1.047,2.984,2.984,0,0,1-2.051-.707,2.287,2.287,0,0,1-.8-1.793,2.39,2.39,0,0,1,1-2.051,4.733,4.733,0,0,1,2.824-.73h1.406v-.664A1.623,1.623,0,0,0,140.211,10a1.821,1.821,0,0,0-1.336-.449,2.107,2.107,0,0,0-1.3.391,1.151,1.151,0,0,0-.523.945H135.6a2,2,0,0,1,.449-1.223,3.066,3.066,0,0,1,1.219-.934,4.1,4.1,0,0,1,1.691-.344,3.342,3.342,0,0,1,2.289.73,2.635,2.635,0,0,1,.859,2.012v3.891a4.757,4.757,0,0,0,.3,1.852V17Zm-2.4-1.1a2.54,2.54,0,0,0,1.289-.352,2.127,2.127,0,0,0,.883-.914V12.9h-1.133q-2.656,0-2.656,1.555a1.316,1.316,0,0,0,.453,1.063A1.742,1.742,0,0,0,138.492,15.9Zm7.25-7.352.047,1.063a3.08,3.08,0,0,1,2.531-1.219q2.68,0,2.7,3.023V17h-1.445V11.406a1.946,1.946,0,0,0-.418-1.352,1.675,1.675,0,0,0-1.277-.437,2.086,2.086,0,0,0-1.234.375,2.546,2.546,0,0,0-.828.984V17h-1.445V8.547ZM155.164,6.5V8.547h1.578V9.664h-1.578v5.249a1.173,1.173,0,0,0,.211.763.888.888,0,0,0,.719.254,3.5,3.5,0,0,0,.688-.094V17a4.215,4.215,0,0,1-1.109.155,1.8,1.8,0,0,1-1.461-.586,2.517,2.517,0,0,1-.492-1.664V9.664H152.18V8.547h1.539V6.5Zm6.773,10.656a3.693,3.693,0,0,1-2.8-1.129,4.19,4.19,0,0,1-1.078-3.02v-.266a5.073,5.073,0,0,1,.48-2.246,3.748,3.748,0,0,1,1.344-1.547,3.378,3.378,0,0,1,1.871-.559,3.166,3.166,0,0,1,2.563,1.086,4.7,4.7,0,0,1,.914,3.109v.6h-5.727a3,3,0,0,0,.73,2.02,2.3,2.3,0,0,0,1.777.77,2.517,2.517,0,0,0,1.3-.312,3.258,3.258,0,0,0,.93-.828l.883.688A3.55,3.55,0,0,1,161.938,17.156Zm-.18-7.578a1.928,1.928,0,0,0-1.469.637A3.1,3.1,0,0,0,159.555,12h4.234v-.109a2.753,2.753,0,0,0-.594-1.707A1.815,1.815,0,0,0,161.758,9.578Zm10.07,5.18a1.064,1.064,0,0,0-.441-.91,4.249,4.249,0,0,0-1.539-.559,7.277,7.277,0,0,1-1.742-.562,2.479,2.479,0,0,1-.953-.781,1.869,1.869,0,0,1-.309-1.078,2.193,2.193,0,0,1,.879-1.758,3.432,3.432,0,0,1,2.246-.719,3.532,3.532,0,0,1,2.332.742,2.357,2.357,0,0,1,.895,1.9h-1.453a1.3,1.3,0,0,0-.5-1.023,1.888,1.888,0,0,0-1.27-.43,1.976,1.976,0,0,0-1.234.344,1.082,1.082,0,0,0-.445.9.877.877,0,0,0,.414.789,5.1,5.1,0,0,0,1.5.508,7.8,7.8,0,0,1,1.754.578,2.558,2.558,0,0,1,1,.809,1.988,1.988,0,0,1,.324,1.152,2.163,2.163,0,0,1-.906,1.816,3.8,3.8,0,0,1-2.352.684,4.257,4.257,0,0,1-1.8-.359,2.922,2.922,0,0,1-1.223-1,2.42,2.42,0,0,1-.441-1.395H168a1.5,1.5,0,0,0,.582,1.152,2.258,2.258,0,0,0,1.434.426,2.331,2.331,0,0,0,1.316-.332A1.02,1.02,0,0,0,171.828,14.758Zm6.664-2.3a12.084,12.084,0,0,1-.457,3.34,9.876,9.876,0,0,1-1.4,2.949,6.127,6.127,0,0,1-1.973,1.922l-.3-.883a6.281,6.281,0,0,0,1.934-2.863,12.387,12.387,0,0,0,.746-4.309v-.25a12.861,12.861,0,0,0-.344-3.051,10.3,10.3,0,0,0-.957-2.527,5.838,5.838,0,0,0-1.379-1.742l.3-.883a6.1,6.1,0,0,1,1.965,1.906,9.9,9.9,0,0,1,1.4,2.945A12.364,12.364,0,0,1,178.492,12.461Zm5.563,0a12.084,12.084,0,0,1-.457,3.34,9.876,9.876,0,0,1-1.4,2.949,6.127,6.127,0,0,1-1.973,1.922l-.3-.883a6.281,6.281,0,0,0,1.934-2.863,12.387,12.387,0,0,0,.746-4.309v-.25a12.861,12.861,0,0,0-.344-3.051,10.3,10.3,0,0,0-.957-2.527,5.838,5.838,0,0,0-1.379-1.742l.3-.883a6.1,6.1,0,0,1,1.965,1.906,9.9,9.9,0,0,1,1.4,2.945A12.364,12.364,0,0,1,184.055,12.461Z" transform="translate(594 3698.3)" fill="#12263f"/>
    <path id="Trazado_197438" data-name="Trazado 197438" d="M99.777,9.742H98.558v5.116a1.159,1.159,0,0,0,.211.755.888.888,0,0,0,.719.254,2.306,2.306,0,0,0,.68-.094l.008,1.173a4.273,4.273,0,0,1-1.117.147q-1.945,0-1.945-2.3V9.742H93.98V17H92.535V9.742h-1.32v-1.2h8.563Zm3.333,12.349a2.154,2.154,0,0,1-1.631-.658,2.444,2.444,0,0,1-.629-1.761v-.155a2.959,2.959,0,0,1,.28-1.31,2.186,2.186,0,0,1,.784-.9A1.971,1.971,0,0,1,103,16.978a1.847,1.847,0,0,1,1.495.633,2.743,2.743,0,0,1,.533,1.814v.351h-3.34a1.753,1.753,0,0,0,.426,1.178,1.339,1.339,0,0,0,1.037.449,1.468,1.468,0,0,0,.756-.182,1.9,1.9,0,0,0,.542-.483l.515.4A2.071,2.071,0,0,1,103.11,22.091Zm-.1-4.42a1.125,1.125,0,0,0-.857.371,1.805,1.805,0,0,0-.428,1.041h2.47V19.02a1.606,1.606,0,0,0-.346-1A1.059,1.059,0,0,0,103,17.671Zm2.8,1.823a2.888,2.888,0,0,1,.538-1.825,1.83,1.83,0,0,1,2.78-.1V15h.843v7h-.775l-.041-.529a1.717,1.717,0,0,1-1.408.62,1.684,1.684,0,0,1-1.4-.7,2.921,2.921,0,0,1-.54-1.832Zm.843.1a2.187,2.187,0,0,0,.346,1.312,1.12,1.12,0,0,0,.957.474,1.23,1.23,0,0,0,1.171-.72V18.391a1.239,1.239,0,0,0-1.162-.7,1.125,1.125,0,0,0-.966.478A2.408,2.408,0,0,0,106.646,19.589ZM114.315,22a1.771,1.771,0,0,1-.118-.52,1.881,1.881,0,0,1-1.4.611,1.741,1.741,0,0,1-1.2-.412,1.334,1.334,0,0,1-.467-1.046,1.394,1.394,0,0,1,.586-1.2,2.761,2.761,0,0,1,1.647-.426h.82v-.387a.947.947,0,0,0-.264-.7,1.062,1.062,0,0,0-.779-.262,1.229,1.229,0,0,0-.756.228.671.671,0,0,0-.305.551h-.848a1.163,1.163,0,0,1,.262-.713,1.788,1.788,0,0,1,.711-.545,2.392,2.392,0,0,1,.987-.2,1.949,1.949,0,0,1,1.335.426,1.537,1.537,0,0,1,.5,1.173v2.269a2.774,2.774,0,0,0,.173,1.08V22Zm-1.4-.643a1.482,1.482,0,0,0,.752-.205,1.24,1.24,0,0,0,.515-.533V19.608h-.661q-1.549,0-1.549.907a.767.767,0,0,0,.264.62A1.016,1.016,0,0,0,112.916,21.357Zm3.226-1.864a2.888,2.888,0,0,1,.538-1.825,1.83,1.83,0,0,1,2.78-.1V15h.843v7h-.775l-.041-.529a1.717,1.717,0,0,1-1.408.62,1.684,1.684,0,0,1-1.4-.7,2.921,2.921,0,0,1-.54-1.832Zm.843.1a2.187,2.187,0,0,0,.346,1.312,1.12,1.12,0,0,0,.957.474,1.23,1.23,0,0,0,1.171-.72V18.391a1.239,1.239,0,0,0-1.162-.7,1.125,1.125,0,0,0-.966.478A2.408,2.408,0,0,0,116.986,19.589Zm4.6,3.732-.478-.328a2.2,2.2,0,0,0,.447-1.23V21h.825v.661a2.076,2.076,0,0,1-.226.921A2.155,2.155,0,0,1,121.584,23.322Zm4.967-6.252.027.62a1.8,1.8,0,0,1,1.476-.711q1.563,0,1.577,1.764V22h-.843V18.737a1.135,1.135,0,0,0-.244-.788.977.977,0,0,0-.745-.255,1.217,1.217,0,0,0-.72.219,1.485,1.485,0,0,0-.483.574V22h-.843V17.069Zm4.129,2.42a2.912,2.912,0,0,1,.285-1.3,2.125,2.125,0,0,1,.793-.893,2.158,2.158,0,0,1,1.16-.314,2.079,2.079,0,0,1,1.629.7,2.682,2.682,0,0,1,.622,1.855v.059a2.938,2.938,0,0,1-.276,1.292,2.093,2.093,0,0,1-.788.891,2.183,2.183,0,0,1-1.178.319,2.074,2.074,0,0,1-1.625-.7,2.669,2.669,0,0,1-.622-1.846Zm.848.1a2.109,2.109,0,0,0,.381,1.317,1.289,1.289,0,0,0,2.039-.007,2.307,2.307,0,0,0,.378-1.41,2.106,2.106,0,0,0-.385-1.315,1.224,1.224,0,0,0-1.023-.5,1.211,1.211,0,0,0-1.007.5A2.289,2.289,0,0,0,131.527,19.589Zm5.491-2.52.023.547a1.821,1.821,0,0,1,1.463-.638,1.41,1.41,0,0,1,1.408.793,1.868,1.868,0,0,1,.64-.574,1.891,1.891,0,0,1,.932-.219q1.622,0,1.65,1.718V22h-.843V18.746a1.132,1.132,0,0,0-.242-.791,1.064,1.064,0,0,0-.811-.262,1.118,1.118,0,0,0-.779.28,1.137,1.137,0,0,0-.36.754V22h-.848V18.769a.941.941,0,0,0-1.053-1.075,1.128,1.128,0,0,0-1.135.706V22h-.843V17.069Zm11.561,2.52a2.932,2.932,0,0,1-.52,1.816,1.66,1.66,0,0,1-1.394.686,1.719,1.719,0,0,1-1.445-.661l-.041.57h-.775V15h.843v2.611a1.709,1.709,0,0,1,1.408-.633,1.67,1.67,0,0,1,1.41.679,3.02,3.02,0,0,1,.513,1.859Zm-.843-.1a2.278,2.278,0,0,0-.333-1.331,1.1,1.1,0,0,0-.957-.469,1.238,1.238,0,0,0-1.2.775V20.6a1.272,1.272,0,0,0,1.208.775,1.1,1.1,0,0,0,.943-.469A2.423,2.423,0,0,0,147.737,19.494Zm4.288-1.668a2.527,2.527,0,0,0-.415-.032,1.111,1.111,0,0,0-1.126.706V22h-.843V17.069h.82l.014.57a1.313,1.313,0,0,1,1.176-.661.861.861,0,0,1,.374.064Zm2.821,4.265a2.154,2.154,0,0,1-1.631-.658,2.444,2.444,0,0,1-.629-1.761v-.155a2.959,2.959,0,0,1,.28-1.31,2.186,2.186,0,0,1,.784-.9,1.971,1.971,0,0,1,1.091-.326,1.847,1.847,0,0,1,1.495.633,2.742,2.742,0,0,1,.533,1.814v.351h-3.34a1.753,1.753,0,0,0,.426,1.178,1.339,1.339,0,0,0,1.037.449,1.468,1.468,0,0,0,.756-.182,1.9,1.9,0,0,0,.542-.483l.515.4A2.071,2.071,0,0,1,154.846,22.091Zm-.1-4.42a1.124,1.124,0,0,0-.857.371,1.805,1.805,0,0,0-.428,1.041h2.47V19.02a1.606,1.606,0,0,0-.346-1A1.059,1.059,0,0,0,154.741,17.671Z" transform="translate(467 3691.3)" fill="#12263f"/>
    <path id="Trazado_197439" data-name="Trazado 197439" d="M110.821,12.383a12.079,12.079,0,0,1,.473-3.391,9.849,9.849,0,0,1,1.41-2.953,6,6,0,0,1,1.945-1.875l.3.953a6.222,6.222,0,0,0-1.871,2.672,11.583,11.583,0,0,0-.8,4.023l-.008.664a11.643,11.643,0,0,0,1.1,5.234,6.252,6.252,0,0,0,1.578,2.078l-.3.883a6.192,6.192,0,0,1-1.984-1.937A10.859,10.859,0,0,1,110.821,12.383Zm13.391-2.641h-2.219a3.848,3.848,0,0,1,1.563,3.289v.133a4.3,4.3,0,0,1-.477,2.012,3.623,3.623,0,0,1-3.3,1.98,3.471,3.471,0,0,1-2.742-1.184A4.642,4.642,0,0,1,116,12.8v-.1a4.8,4.8,0,0,1,.461-2.133,3.521,3.521,0,0,1,1.309-1.477,3.629,3.629,0,0,1,1.941-.539h4.5Zm-6.758,3.125a3.719,3.719,0,0,0,.625,2.27,2.145,2.145,0,0,0,3.41-.008,4.071,4.071,0,0,0,.621-2.434,3.4,3.4,0,0,0-.629-2.148,2.059,2.059,0,0,0-1.715-.8,2.029,2.029,0,0,0-1.691.8A3.731,3.731,0,0,0,117.454,12.867ZM127,22.091a2.154,2.154,0,0,1-1.631-.658,2.444,2.444,0,0,1-.629-1.761v-.155a2.959,2.959,0,0,1,.28-1.31,2.186,2.186,0,0,1,.784-.9,1.971,1.971,0,0,1,1.091-.326,1.847,1.847,0,0,1,1.495.633,2.742,2.742,0,0,1,.533,1.814v.351h-3.34a1.753,1.753,0,0,0,.426,1.178,1.339,1.339,0,0,0,1.037.449,1.468,1.468,0,0,0,.756-.182,1.9,1.9,0,0,0,.542-.483l.515.4A2.071,2.071,0,0,1,127,22.091Zm-.1-4.42a1.125,1.125,0,0,0-.857.371,1.805,1.805,0,0,0-.428,1.041h2.47V19.02a1.606,1.606,0,0,0-.346-1A1.059,1.059,0,0,0,126.892,17.671Zm2.8,1.823a2.889,2.889,0,0,1,.538-1.825,1.83,1.83,0,0,1,2.78-.1V15h.843v7h-.775l-.041-.529a1.717,1.717,0,0,1-1.408.62,1.684,1.684,0,0,1-1.4-.7,2.921,2.921,0,0,1-.54-1.832Zm.843.1a2.187,2.187,0,0,0,.346,1.312,1.12,1.12,0,0,0,.957.474,1.23,1.23,0,0,0,1.171-.72V18.391a1.239,1.239,0,0,0-1.162-.7,1.125,1.125,0,0,0-.966.478A2.408,2.408,0,0,0,130.534,19.589ZM138.2,22a1.771,1.771,0,0,1-.118-.52,1.881,1.881,0,0,1-1.4.611,1.741,1.741,0,0,1-1.2-.412,1.334,1.334,0,0,1-.467-1.046,1.394,1.394,0,0,1,.586-1.2,2.761,2.761,0,0,1,1.647-.426h.82v-.387a.947.947,0,0,0-.264-.7,1.062,1.062,0,0,0-.779-.262,1.229,1.229,0,0,0-.756.228.671.671,0,0,0-.305.551h-.848a1.163,1.163,0,0,1,.262-.713,1.789,1.789,0,0,1,.711-.545,2.392,2.392,0,0,1,.987-.2,1.949,1.949,0,0,1,1.335.426,1.537,1.537,0,0,1,.5,1.173v2.269a2.774,2.774,0,0,0,.173,1.08V22Zm-1.4-.643a1.482,1.482,0,0,0,.752-.205,1.24,1.24,0,0,0,.515-.533V19.608h-.661q-1.549,0-1.549.907a.767.767,0,0,0,.264.62A1.016,1.016,0,0,0,136.8,21.357Zm3.226-1.864a2.889,2.889,0,0,1,.538-1.825,1.83,1.83,0,0,1,2.78-.1V15h.843v7h-.775l-.041-.529a1.717,1.717,0,0,1-1.408.62,1.684,1.684,0,0,1-1.4-.7,2.921,2.921,0,0,1-.54-1.832Zm.843.1a2.187,2.187,0,0,0,.346,1.312,1.12,1.12,0,0,0,.957.474,1.23,1.23,0,0,0,1.171-.72V18.391a1.239,1.239,0,0,0-1.162-.7,1.125,1.125,0,0,0-.966.478A2.408,2.408,0,0,0,140.873,19.589Zm7.61-.551-3.012-1.18v-.866l3.892,1.723v.665l-3.892,1.727v-.875ZM153.059,22h-.848V16.381l-1.7.624V16.24l2.415-.907h.132Zm6.494-4.9a1.541,1.541,0,0,1-.262.884,1.783,1.783,0,0,1-.709.606,1.9,1.9,0,0,1,.823.652,1.64,1.64,0,0,1,.3.971,1.734,1.734,0,0,1-.581,1.372,2.547,2.547,0,0,1-3.062,0,1.742,1.742,0,0,1-.576-1.369,1.689,1.689,0,0,1,.294-.971,1.829,1.829,0,0,1,.813-.656,1.739,1.739,0,0,1-.7-.606,1.563,1.563,0,0,1-.255-.88,1.715,1.715,0,0,1,.538-1.331,2.283,2.283,0,0,1,2.832,0A1.711,1.711,0,0,1,159.553,17.1Zm-.688,3.094a1.223,1.223,0,0,0-.353-.907,1.253,1.253,0,0,0-.923-.351,1.186,1.186,0,0,0-1.258,1.258,1.178,1.178,0,0,0,.335.889,1.5,1.5,0,0,0,1.862,0A1.175,1.175,0,0,0,158.865,20.191ZM157.6,15.966a1.088,1.088,0,0,0-.8.308,1.273,1.273,0,0,0,0,1.654,1.2,1.2,0,0,0,1.618,0,1.247,1.247,0,0,0-.011-1.643A1.072,1.072,0,0,0,157.6,15.966Z" transform="translate(517 3695.3)" fill="#12263f"/>
  </g>
</svg>
