<svg xmlns="http://www.w3.org/2000/svg" width="1172" height="300" viewBox="0 0 1172 300">
  <g id="Grupo_139914" data-name="Grupo 139914" transform="translate(-201 -809)">
    <g id="Trazado_197391" data-name="Trazado 197391" transform="translate(201 842)" fill="#fff">
      <path d="M 202.5 67.5 L 0.5 67.5 L 0.5 0.5 L 202.5 0.5 L 202.5 67.5 Z" stroke="none"/>
      <path d="M 1 1 L 1 67 L 202 67 L 202 1 L 1 1 M 0 0 L 203 0 L 203 68 L 0 68 L 0 0 Z" stroke="none" fill="#707070"/>
    </g>
    <g id="Trazado_197392" data-name="Trazado 197392" transform="translate(659 842)" fill="#fff">
      <path d="M 201.5 94.5 L 0.5 94.5 L 0.5 0.5 L 201.5 0.5 L 201.5 94.5 Z" stroke="none"/>
      <path d="M 1 1 L 1 94 L 201 94 L 201 1 L 1 1 M 0 0 L 202 0 L 202 95 L 0 95 L 0 0 Z" stroke="none" fill="#707070"/>
    </g>
    <g id="Trazado_197393" data-name="Trazado 197393" transform="translate(1115 842)" fill="#fff">
      <path d="M 257.5 266.5 L 0.5 266.5 L 0.5 0.5 L 257.5 0.5 L 257.5 266.5 Z" stroke="none"/>
      <path d="M 1 1 L 1 266 L 257 266 L 257 1 L 1 1 M 0 0 L 258 0 L 258 267 L 0 267 L 0 0 Z" stroke="none" fill="#707070"/>
    </g>
    <g id="Trazado_197394" data-name="Trazado 197394" transform="translate(201 809)" fill="#4dd0e1">
      <path d="M 202.5 36.5 L 0.5 36.5 L 0.5 0.5 L 202.5 0.5 L 202.5 36.5 Z" stroke="none"/>
      <path d="M 1 1 L 1 36 L 202 36 L 202 1 L 1 1 M 0 0 L 203 0 L 203 37 L 0 37 L 0 0 Z" stroke="none" fill="#707070"/>
    </g>
    <g id="Trazado_197395" data-name="Trazado 197395" transform="translate(659 809)" fill="#4dd0e1">
      <path d="M 201.5 36.5 L 0.5 36.5 L 0.5 0.5 L 201.5 0.5 L 201.5 36.5 Z" stroke="none"/>
      <path d="M 1 1 L 1 36 L 201 36 L 201 1 L 1 1 M 0 0 L 202 0 L 202 37 L 0 37 L 0 0 Z" stroke="none" fill="#707070"/>
    </g>
    <g id="Trazado_197396" data-name="Trazado 197396" transform="translate(1115 809)" fill="#e8e8e8">
      <path d="M 257.5 36.5 L 0.5 36.5 L 0.5 0.5 L 257.5 0.5 L 257.5 36.5 Z" stroke="none"/>
      <path d="M 1 1 L 1 36 L 257 36 L 257 1 L 1 1 M 0 0 L 258 0 L 258 37 L 0 37 L 0 0 Z" stroke="none" fill="#707070"/>
    </g>
    <path id="Trazado_197397" data-name="Trazado 197397" d="M2.729-3.256V0H.825V-9.242H4.431a4.171,4.171,0,0,1,1.831.381A2.807,2.807,0,0,1,7.478-7.779a3.018,3.018,0,0,1,.425,1.6,2.654,2.654,0,0,1-.93,2.142A3.873,3.873,0,0,1,4.4-3.256Zm0-1.542h1.7a1.673,1.673,0,0,0,1.152-.355,1.293,1.293,0,0,0,.4-1.016,1.524,1.524,0,0,0-.4-1.1,1.494,1.494,0,0,0-1.1-.432H2.729Zm10.22-.349a4.984,4.984,0,0,0-.66-.051,1.344,1.344,0,0,0-1.365.7V0H9.09V-6.868h1.733l.051.819A1.7,1.7,0,0,1,12.4-7a1.922,1.922,0,0,1,.571.083Zm.368,1.65a4.073,4.073,0,0,1,.394-1.822,2.881,2.881,0,0,1,1.133-1.238A3.306,3.306,0,0,1,16.561-7a3.127,3.127,0,0,1,2.269.851,3.414,3.414,0,0,1,.981,2.311l.013.47a3.59,3.59,0,0,1-.882,2.536,3.067,3.067,0,0,1-2.368.955A3.082,3.082,0,0,1,14.2-.825a3.653,3.653,0,0,1-.885-2.59Zm1.834.13a2.567,2.567,0,0,0,.368,1.5,1.215,1.215,0,0,0,1.054.518,1.217,1.217,0,0,0,1.041-.512A2.809,2.809,0,0,0,17.989-3.5a2.542,2.542,0,0,0-.375-1.488,1.217,1.217,0,0,0-1.054-.528,1.2,1.2,0,0,0-1.041.524A2.857,2.857,0,0,0,15.152-3.367Zm8.277,1.127,1.276-4.627h1.917L24.305,0H22.553L20.236-6.868h1.917ZM29.364,0H27.523V-6.868h1.841ZM27.416-8.646a.9.9,0,0,1,.276-.679,1.037,1.037,0,0,1,.752-.267,1.04,1.04,0,0,1,.749.267.9.9,0,0,1,.279.679.9.9,0,0,1-.282.686,1.042,1.042,0,0,1-.746.267A1.042,1.042,0,0,1,27.7-7.96.9.9,0,0,1,27.416-8.646Zm5.148,1.777.057.793A2.4,2.4,0,0,1,34.595-7a1.993,1.993,0,0,1,1.625.641,2.991,2.991,0,0,1,.546,1.917V0H34.931V-4.393a1.19,1.19,0,0,0-.254-.847,1.137,1.137,0,0,0-.844-.263,1.262,1.262,0,0,0-1.162.66V0H30.837V-6.868Zm8.449,5.516a1.2,1.2,0,0,0,.825-.279.979.979,0,0,0,.33-.743h1.72a2.353,2.353,0,0,1-.381,1.279,2.513,2.513,0,0,1-1.025.9,3.208,3.208,0,0,1-1.438.321,2.982,2.982,0,0,1-2.323-.936A3.705,3.705,0,0,1,37.87-3.4v-.121a3.663,3.663,0,0,1,.844-2.533A2.947,2.947,0,0,1,41.031-7a2.889,2.889,0,0,1,2.066.733,2.6,2.6,0,0,1,.79,1.952h-1.72a1.261,1.261,0,0,0-.33-.871A1.1,1.1,0,0,0,41-5.516a1.1,1.1,0,0,0-.968.467A2.708,2.708,0,0,0,39.7-3.533v.191a2.742,2.742,0,0,0,.324,1.526A1.119,1.119,0,0,0,41.012-1.352ZM46.871,0H45.03V-6.868h1.841ZM44.922-8.646a.9.9,0,0,1,.276-.679,1.037,1.037,0,0,1,.752-.267,1.04,1.04,0,0,1,.749.267.9.9,0,0,1,.279.679.9.9,0,0,1-.282.686,1.042,1.042,0,0,1-.746.267A1.042,1.042,0,0,1,45.2-7.96.9.9,0,0,1,44.922-8.646ZM52.362,0a2.037,2.037,0,0,1-.184-.616,2.22,2.22,0,0,1-1.733.743,2.439,2.439,0,0,1-1.673-.584,1.878,1.878,0,0,1-.663-1.473,1.941,1.941,0,0,1,.809-1.676,3.994,3.994,0,0,1,2.339-.59H52.1v-.394a1.132,1.132,0,0,0-.244-.762.961.961,0,0,0-.771-.286,1.093,1.093,0,0,0-.727.222.755.755,0,0,0-.263.609H48.261a1.843,1.843,0,0,1,.368-1.1,2.434,2.434,0,0,1,1.041-.8A3.794,3.794,0,0,1,51.181-7a3,3,0,0,1,2.015.638,2.232,2.232,0,0,1,.746,1.793v2.977a3.284,3.284,0,0,0,.273,1.479V0ZM50.845-1.276a1.58,1.58,0,0,0,.749-.181,1.188,1.188,0,0,0,.508-.486V-3.123h-.686q-1.377,0-1.466.952l-.006.108a.734.734,0,0,0,.241.565A.937.937,0,0,0,50.845-1.276ZM59.071-1.9a.591.591,0,0,0-.333-.53,3.785,3.785,0,0,0-1.07-.346q-2.45-.514-2.45-2.082a1.887,1.887,0,0,1,.759-1.527A3.06,3.06,0,0,1,57.96-7a3.293,3.293,0,0,1,2.092.616,1.94,1.94,0,0,1,.784,1.6H59a.888.888,0,0,0-.254-.651,1.075,1.075,0,0,0-.793-.257,1.1,1.1,0,0,0-.717.209.661.661,0,0,0-.254.533.565.565,0,0,0,.289.492,2.971,2.971,0,0,0,.974.324,7.959,7.959,0,0,1,1.155.308,1.9,1.9,0,0,1,1.454,1.847,1.792,1.792,0,0,1-.806,1.52,3.478,3.478,0,0,1-2.082.581,3.632,3.632,0,0,1-1.533-.308,2.572,2.572,0,0,1-1.051-.844A1.962,1.962,0,0,1,55-2.184h1.739a.958.958,0,0,0,.362.749,1.435,1.435,0,0,0,.9.26,1.328,1.328,0,0,0,.8-.2A.622.622,0,0,0,59.071-1.9Z" transform="translate(262.201 830.109)"/>
    <path id="Trazado_197398" data-name="Trazado 197398" d="M2.38,0H1.162V-9.242H2.38ZM4.608,0V-9.242H7.217a4.2,4.2,0,0,1,2.133.533,3.606,3.606,0,0,1,1.431,1.517,4.938,4.938,0,0,1,.511,2.26v.59a4.955,4.955,0,0,1-.5,2.292A3.55,3.55,0,0,1,9.347-.54,4.467,4.467,0,0,1,7.167,0ZM5.827-8.246V-1H7.109A2.79,2.79,0,0,0,9.3-1.873a3.622,3.622,0,0,0,.784-2.5v-.54a3.68,3.68,0,0,0-.74-2.449,2.632,2.632,0,0,0-2.1-.886ZM17.57-3.618V0H16.352V-9.242H19.76a3.425,3.425,0,0,1,2.377.774A2.625,2.625,0,0,1,23-6.417a2.591,2.591,0,0,1-.841,2.073,3.578,3.578,0,0,1-2.409.727Zm0-1h2.19a2.19,2.19,0,0,0,1.5-.461,1.686,1.686,0,0,0,.521-1.332,1.742,1.742,0,0,0-.521-1.323,2.051,2.051,0,0,0-1.428-.515H17.57Zm10.118-1.2a3.519,3.519,0,0,0-.578-.044,1.547,1.547,0,0,0-1.568.984V0H24.369V-6.868h1.143l.019.793A1.829,1.829,0,0,1,27.168-7a1.2,1.2,0,0,1,.521.089ZM28.33-3.5a4.057,4.057,0,0,1,.4-1.815,2.96,2.96,0,0,1,1.1-1.244A3.007,3.007,0,0,1,31.446-7a2.9,2.9,0,0,1,2.269.971,3.736,3.736,0,0,1,.866,2.583v.083a4.092,4.092,0,0,1-.384,1.8A2.916,2.916,0,0,1,33.1-.317a3.041,3.041,0,0,1-1.641.444A2.889,2.889,0,0,1,29.2-.844a3.718,3.718,0,0,1-.866-2.571Zm1.181.14a2.938,2.938,0,0,0,.53,1.834,1.7,1.7,0,0,0,1.419.692,1.686,1.686,0,0,0,1.422-.7A3.213,3.213,0,0,0,33.408-3.5a2.933,2.933,0,0,0-.536-1.831,1.705,1.705,0,0,0-1.425-.7,1.686,1.686,0,0,0-1.4.692A3.189,3.189,0,0,0,29.51-3.358Zm8.715,1.765,1.7-5.275h1.2L38.664,0h-.9L35.28-6.868h1.2Zm38.283-.825H72.636L71.767,0H70.51l3.529-9.242h1.066L78.641,0h-1.25Zm-3.5-1h3.142L74.572-7.738ZM86.284-9.242v6.284a2.948,2.948,0,0,1-.822,2.139A3.312,3.312,0,0,1,83.25.114l-.324.013a3.459,3.459,0,0,1-2.418-.819,2.929,2.929,0,0,1-.914-2.253v-6.3H80.8v6.259a2.114,2.114,0,0,0,.552,1.558,2.123,2.123,0,0,0,1.574.555,2.137,2.137,0,0,0,1.584-.552,2.11,2.11,0,0,0,.549-1.555V-9.242Zm8.309,1H91.622V0H90.41V-8.246H87.445v-1h7.147Zm8.3,3.923a5.717,5.717,0,0,1-.457,2.371,3.462,3.462,0,0,1-1.295,1.546,3.563,3.563,0,0,1-1.955.533,3.532,3.532,0,0,1-1.936-.536,3.545,3.545,0,0,1-1.311-1.53,5.486,5.486,0,0,1-.479-2.3v-.667a5.649,5.649,0,0,1,.463-2.355,3.532,3.532,0,0,1,1.311-1.565,3.517,3.517,0,0,1,1.939-.543,3.583,3.583,0,0,1,1.958.536,3.455,3.455,0,0,1,1.3,1.555,5.745,5.745,0,0,1,.457,2.371Zm-1.212-.6a4.144,4.144,0,0,0-.66-2.523,2.177,2.177,0,0,0-1.847-.879,2.154,2.154,0,0,0-1.819.879A4.059,4.059,0,0,0,96.675-5v.679a4.15,4.15,0,0,0,.67,2.5,2.163,2.163,0,0,0,1.844.911,2.154,2.154,0,0,0,1.828-.86,4.126,4.126,0,0,0,.667-2.466ZM0,1H103.651V2H0Z" transform="translate(226.647 865.112)"/>
    <path id="Trazado_197399" data-name="Trazado 197399" d="M2.729-1.53H6.773V0H.825V-9.242h1.9ZM7.458-3.5a4.073,4.073,0,0,1,.394-1.822A2.881,2.881,0,0,1,8.985-6.557,3.306,3.306,0,0,1,10.7-7a3.128,3.128,0,0,1,2.269.851,3.414,3.414,0,0,1,.981,2.311l.013.47a3.59,3.59,0,0,1-.882,2.536,3.067,3.067,0,0,1-2.368.955A3.082,3.082,0,0,1,8.344-.825a3.653,3.653,0,0,1-.885-2.59Zm1.834.13a2.567,2.567,0,0,0,.368,1.5,1.215,1.215,0,0,0,1.054.518,1.217,1.217,0,0,0,1.041-.512A2.809,2.809,0,0,0,12.13-3.5a2.542,2.542,0,0,0-.375-1.488A1.217,1.217,0,0,0,10.7-5.516a1.2,1.2,0,0,0-1.041.524A2.857,2.857,0,0,0,9.293-3.367Zm8.658,2.015a1.2,1.2,0,0,0,.825-.279.979.979,0,0,0,.33-.743h1.72a2.353,2.353,0,0,1-.381,1.279,2.513,2.513,0,0,1-1.025.9,3.208,3.208,0,0,1-1.438.321A2.982,2.982,0,0,1,15.66-.809,3.705,3.705,0,0,1,14.809-3.4v-.121a3.663,3.663,0,0,1,.844-2.533A2.947,2.947,0,0,1,17.97-7a2.889,2.889,0,0,1,2.066.733,2.6,2.6,0,0,1,.79,1.952h-1.72a1.261,1.261,0,0,0-.33-.871,1.1,1.1,0,0,0-.838-.335,1.1,1.1,0,0,0-.968.467,2.708,2.708,0,0,0-.327,1.516v.191a2.742,2.742,0,0,0,.324,1.526A1.119,1.119,0,0,0,17.951-1.352ZM25.854,0a2.037,2.037,0,0,1-.184-.616,2.22,2.22,0,0,1-1.733.743,2.439,2.439,0,0,1-1.673-.584A1.878,1.878,0,0,1,21.6-1.93a1.941,1.941,0,0,1,.809-1.676A3.994,3.994,0,0,1,24.75-4.2h.844v-.394a1.132,1.132,0,0,0-.244-.762.961.961,0,0,0-.771-.286,1.093,1.093,0,0,0-.727.222.755.755,0,0,0-.263.609H21.753a1.843,1.843,0,0,1,.368-1.1,2.434,2.434,0,0,1,1.041-.8A3.794,3.794,0,0,1,24.673-7a3,3,0,0,1,2.015.638,2.232,2.232,0,0,1,.746,1.793v2.977a3.284,3.284,0,0,0,.273,1.479V0ZM24.337-1.276a1.58,1.58,0,0,0,.749-.181,1.188,1.188,0,0,0,.508-.486V-3.123h-.686q-1.377,0-1.466.952l-.006.108a.734.734,0,0,0,.241.565A.937.937,0,0,0,24.337-1.276ZM30.78,0H28.939V-9.75H30.78Zm3.447,0H32.386V-6.868h1.841ZM32.278-8.646a.9.9,0,0,1,.276-.679,1.037,1.037,0,0,1,.752-.267,1.04,1.04,0,0,1,.749.267.9.9,0,0,1,.279.679.9.9,0,0,1-.282.686,1.042,1.042,0,0,1-.746.267,1.042,1.042,0,0,1-.746-.267A.9.9,0,0,1,32.278-8.646Zm3.174,5.161a4.139,4.139,0,0,1,.72-2.558A2.338,2.338,0,0,1,38.143-7a2.1,2.1,0,0,1,1.657.749v-3.5h1.841V0H39.984L39.9-.73A2.159,2.159,0,0,1,38.13.127a2.331,2.331,0,0,1-1.946-.955A4.272,4.272,0,0,1,35.452-3.485Zm1.834.137a2.711,2.711,0,0,0,.336,1.481,1.1,1.1,0,0,0,.978.515,1.227,1.227,0,0,0,1.2-.718V-4.785A1.21,1.21,0,0,0,38.613-5.5Q37.286-5.5,37.286-3.348ZM47.042,0a2.037,2.037,0,0,1-.184-.616,2.22,2.22,0,0,1-1.733.743,2.439,2.439,0,0,1-1.673-.584A1.878,1.878,0,0,1,42.79-1.93,1.941,1.941,0,0,1,43.6-3.605a3.994,3.994,0,0,1,2.339-.59h.844v-.394a1.132,1.132,0,0,0-.244-.762.961.961,0,0,0-.771-.286,1.093,1.093,0,0,0-.727.222.755.755,0,0,0-.263.609H42.942a1.843,1.843,0,0,1,.368-1.1,2.434,2.434,0,0,1,1.041-.8A3.794,3.794,0,0,1,45.862-7a3,3,0,0,1,2.015.638,2.232,2.232,0,0,1,.746,1.793v2.977A3.284,3.284,0,0,0,48.9-.108V0ZM45.525-1.276a1.58,1.58,0,0,0,.749-.181,1.188,1.188,0,0,0,.508-.486V-3.123H46.1q-1.377,0-1.466.952l-.006.108a.734.734,0,0,0,.241.565A.937.937,0,0,0,45.525-1.276Zm4.221-2.209a4.139,4.139,0,0,1,.72-2.558A2.338,2.338,0,0,1,52.438-7a2.1,2.1,0,0,1,1.657.749v-3.5h1.841V0H54.279L54.19-.73a2.159,2.159,0,0,1-1.765.857A2.331,2.331,0,0,1,50.48-.828,4.272,4.272,0,0,1,49.747-3.485Zm1.834.137a2.711,2.711,0,0,0,.336,1.481,1.1,1.1,0,0,0,.978.515,1.227,1.227,0,0,0,1.2-.718V-4.785A1.21,1.21,0,0,0,52.908-5.5Q51.581-5.5,51.581-3.348ZM60.519.127A3.372,3.372,0,0,1,58.059-.8a3.294,3.294,0,0,1-.949-2.469v-.178a4.149,4.149,0,0,1,.4-1.85,2.935,2.935,0,0,1,1.133-1.257A3.18,3.18,0,0,1,60.315-7a2.85,2.85,0,0,1,2.219.889,3.611,3.611,0,0,1,.809,2.52v.749H58.97a1.7,1.7,0,0,0,.536,1.079,1.621,1.621,0,0,0,1.133.406A1.98,1.98,0,0,0,62.3-2.12l.9,1.009A2.754,2.754,0,0,1,62.08-.2,3.665,3.665,0,0,1,60.519.127Zm-.209-5.643a1.146,1.146,0,0,0-.885.37,1.915,1.915,0,0,0-.435,1.058h2.552v-.147a1.366,1.366,0,0,0-.33-.947A1.183,1.183,0,0,0,60.309-5.516ZM68.1-1.9a.591.591,0,0,0-.333-.53,3.785,3.785,0,0,0-1.07-.346q-2.45-.514-2.45-2.082a1.887,1.887,0,0,1,.759-1.527A3.06,3.06,0,0,1,66.993-7a3.293,3.293,0,0,1,2.092.616,1.94,1.94,0,0,1,.784,1.6H68.034a.888.888,0,0,0-.254-.651,1.075,1.075,0,0,0-.793-.257,1.1,1.1,0,0,0-.717.209.661.661,0,0,0-.254.533.565.565,0,0,0,.289.492,2.971,2.971,0,0,0,.974.324,7.958,7.958,0,0,1,1.155.308,1.9,1.9,0,0,1,1.454,1.847,1.792,1.792,0,0,1-.806,1.52A3.478,3.478,0,0,1,67,.127a3.632,3.632,0,0,1-1.533-.308,2.572,2.572,0,0,1-1.051-.844,1.962,1.962,0,0,1-.381-1.158h1.739a.958.958,0,0,0,.362.749,1.435,1.435,0,0,0,.9.26,1.328,1.328,0,0,0,.8-.2A.622.622,0,0,0,68.1-1.9Z" transform="translate(720 831)"/>
    <path id="Trazado_197400" data-name="Trazado 197400" d="M2.38,0H1.162V-9.242H2.38ZM4.608,0V-9.242H7.217a4.2,4.2,0,0,1,2.133.533,3.606,3.606,0,0,1,1.431,1.517,4.938,4.938,0,0,1,.511,2.26v.59a4.955,4.955,0,0,1-.5,2.292A3.55,3.55,0,0,1,9.347-.54,4.467,4.467,0,0,1,7.167,0ZM5.827-8.246V-1H7.109A2.79,2.79,0,0,0,9.3-1.873a3.622,3.622,0,0,0,.784-2.5v-.54a3.68,3.68,0,0,0-.74-2.449,2.632,2.632,0,0,0-2.1-.886ZM17.577-1h4.38V0h-5.6V-9.242h1.225Zm5.275-2.5a4.057,4.057,0,0,1,.4-1.815,2.96,2.96,0,0,1,1.1-1.244A3.007,3.007,0,0,1,25.968-7a2.9,2.9,0,0,1,2.269.971A3.736,3.736,0,0,1,29.1-3.44v.083a4.092,4.092,0,0,1-.384,1.8,2.916,2.916,0,0,1-1.1,1.241,3.041,3.041,0,0,1-1.641.444,2.889,2.889,0,0,1-2.263-.971,3.718,3.718,0,0,1-.866-2.571Zm1.181.14a2.938,2.938,0,0,0,.53,1.834,1.7,1.7,0,0,0,1.419.692,1.686,1.686,0,0,0,1.422-.7A3.213,3.213,0,0,0,27.93-3.5a2.933,2.933,0,0,0-.536-1.831,1.705,1.705,0,0,0-1.425-.7,1.686,1.686,0,0,0-1.4.692A3.189,3.189,0,0,0,24.032-3.358Zm9.3,2.526a1.692,1.692,0,0,0,1.1-.381,1.34,1.34,0,0,0,.521-.952h1.111a2.13,2.13,0,0,1-.406,1.124,2.676,2.676,0,0,1-1,.851,2.885,2.885,0,0,1-1.323.317A2.829,2.829,0,0,1,31.1-.809a3.729,3.729,0,0,1-.828-2.561v-.2a4.135,4.135,0,0,1,.368-1.784A2.8,2.8,0,0,1,31.7-6.563,3,3,0,0,1,33.325-7a2.755,2.755,0,0,1,1.92.692,2.473,2.473,0,0,1,.816,1.8H34.95a1.618,1.618,0,0,0-.5-1.095,1.57,1.57,0,0,0-1.12-.428,1.644,1.644,0,0,0-1.387.644,3.026,3.026,0,0,0-.492,1.863V-3.3a2.965,2.965,0,0,0,.489,1.828A1.651,1.651,0,0,0,33.332-.832ZM41.622,0a2.467,2.467,0,0,1-.165-.724A2.62,2.62,0,0,1,39.5.127a2.424,2.424,0,0,1-1.666-.574A1.859,1.859,0,0,1,37.185-1.9,1.942,1.942,0,0,1,38-3.571a3.846,3.846,0,0,1,2.295-.594h1.143V-4.7a1.319,1.319,0,0,0-.368-.981,1.48,1.48,0,0,0-1.085-.365,1.712,1.712,0,0,0-1.054.317.935.935,0,0,0-.425.768H37.324a1.621,1.621,0,0,1,.365-.993,2.491,2.491,0,0,1,.99-.759A3.331,3.331,0,0,1,40.054-7a2.715,2.715,0,0,1,1.86.594,2.141,2.141,0,0,1,.7,1.635v3.161a3.865,3.865,0,0,0,.241,1.5V0ZM39.673-.9a2.064,2.064,0,0,0,1.047-.286,1.728,1.728,0,0,0,.717-.743V-3.333h-.92q-2.158,0-2.158,1.263a1.069,1.069,0,0,0,.368.863A1.415,1.415,0,0,0,39.673-.9Zm6.056.9H44.554V-9.75h1.174Zm3.155,0H47.709V-6.868h1.174Zm-1.27-8.69a.7.7,0,0,1,.175-.482.655.655,0,0,1,.517-.2.666.666,0,0,1,.521.2A.694.694,0,0,1,49-8.69a.671.671,0,0,1-.178.476.678.678,0,0,1-.521.19.667.667,0,0,1-.517-.19A.678.678,0,0,1,47.614-8.69Zm2.863,5.2a4.023,4.023,0,0,1,.749-2.542A2.369,2.369,0,0,1,53.187-7,2.382,2.382,0,0,1,55.1-6.17V-9.75h1.174V0H55.193l-.057-.736a2.391,2.391,0,0,1-1.961.863,2.346,2.346,0,0,1-1.946-.978A4.069,4.069,0,0,1,50.477-3.4Zm1.174.133a3.046,3.046,0,0,0,.482,1.828,1.56,1.56,0,0,0,1.333.66,1.713,1.713,0,0,0,1.631-1V-5.027A1.726,1.726,0,0,0,53.479-6a1.567,1.567,0,0,0-1.346.667A3.354,3.354,0,0,0,51.651-3.358ZM62.334,0a2.467,2.467,0,0,1-.165-.724,2.62,2.62,0,0,1-1.955.851,2.424,2.424,0,0,1-1.666-.574A1.859,1.859,0,0,1,57.9-1.9a1.942,1.942,0,0,1,.816-1.666,3.846,3.846,0,0,1,2.295-.594H62.15V-4.7a1.319,1.319,0,0,0-.368-.981A1.48,1.48,0,0,0,60.7-6.049a1.712,1.712,0,0,0-1.054.317.935.935,0,0,0-.425.768H58.037a1.621,1.621,0,0,1,.365-.993,2.491,2.491,0,0,1,.99-.759A3.331,3.331,0,0,1,60.766-7a2.715,2.715,0,0,1,1.86.594,2.141,2.141,0,0,1,.7,1.635v3.161a3.865,3.865,0,0,0,.241,1.5V0ZM60.385-.9a2.064,2.064,0,0,0,1.047-.286,1.728,1.728,0,0,0,.717-.743V-3.333h-.92q-2.158,0-2.158,1.263a1.069,1.069,0,0,0,.368.863A1.415,1.415,0,0,0,60.385-.9Zm4.494-2.6a4.023,4.023,0,0,1,.749-2.542A2.369,2.369,0,0,1,67.59-7,2.382,2.382,0,0,1,69.5-6.17V-9.75h1.174V0H69.6l-.057-.736a2.391,2.391,0,0,1-1.961.863,2.346,2.346,0,0,1-1.946-.978A4.069,4.069,0,0,1,64.879-3.4Zm1.174.133a3.046,3.046,0,0,0,.482,1.828,1.56,1.56,0,0,0,1.333.66,1.713,1.713,0,0,0,1.631-1V-5.027A1.726,1.726,0,0,0,67.882-6a1.567,1.567,0,0,0-1.346.667A3.354,3.354,0,0,0,66.054-3.358Zm24.6.939H86.785L85.916,0H84.659l3.529-9.242h1.066L92.79,0H91.54Zm-3.5-1H90.3L88.721-7.738Zm13.279-5.827v6.284a2.948,2.948,0,0,1-.822,2.139A3.312,3.312,0,0,1,97.4.114l-.324.013a3.459,3.459,0,0,1-2.418-.819,2.929,2.929,0,0,1-.914-2.253v-6.3h1.206v6.259A2.114,2.114,0,0,0,95.5-1.425a2.123,2.123,0,0,0,1.574.555,2.137,2.137,0,0,0,1.584-.552,2.11,2.11,0,0,0,.549-1.555V-9.242Zm8.309,1h-2.971V0h-1.212V-8.246h-2.964v-1h7.147Zm8.3,3.923a5.717,5.717,0,0,1-.457,2.371,3.462,3.462,0,0,1-1.295,1.546,3.563,3.563,0,0,1-1.955.533A3.532,3.532,0,0,1,111.4-.409a3.545,3.545,0,0,1-1.311-1.53,5.486,5.486,0,0,1-.479-2.3v-.667a5.649,5.649,0,0,1,.463-2.355,3.532,3.532,0,0,1,1.311-1.565,3.517,3.517,0,0,1,1.939-.543,3.583,3.583,0,0,1,1.958.536,3.455,3.455,0,0,1,1.3,1.555,5.745,5.745,0,0,1,.457,2.371Zm-1.212-.6a4.144,4.144,0,0,0-.66-2.523,2.177,2.177,0,0,0-1.847-.879,2.154,2.154,0,0,0-1.819.879A4.059,4.059,0,0,0,110.824-5v.679a4.15,4.15,0,0,0,.67,2.5,2.163,2.163,0,0,0,1.844.911,2.154,2.154,0,0,0,1.828-.86,4.126,4.126,0,0,0,.667-2.466ZM0,1H117.8V2H0Z" transform="translate(684.644 865.112)"/>
    <path id="Trazado_197401" data-name="Trazado 197401" d="M6.386-4.005H2.729V-1.53H7.021V0H.825V-9.242H7.008V-7.7H2.729v2.2H6.386ZM9.737-6.868l.057.768A2.414,2.414,0,0,1,11.769-7,1.832,1.832,0,0,1,13.59-5.948,2.358,2.358,0,0,1,15.653-7a2.049,2.049,0,0,1,1.663.651,2.991,2.991,0,0,1,.546,1.958V0H16.021V-4.38a1.308,1.308,0,0,0-.229-.854,1.013,1.013,0,0,0-.806-.27,1.145,1.145,0,0,0-1.143.787L13.851,0H12.016V-4.374a1.292,1.292,0,0,0-.235-.863,1.023,1.023,0,0,0-.8-.267,1.189,1.189,0,0,0-1.13.647V0H8.017V-6.868Zm15.717,3.5a4.119,4.119,0,0,1-.72,2.542,2.31,2.31,0,0,1-1.946.955A2.14,2.14,0,0,1,21.106-.6V2.641H19.271V-6.868h1.7l.063.673A2.156,2.156,0,0,1,22.775-7a2.326,2.326,0,0,1,1.974.939,4.231,4.231,0,0,1,.7,2.59ZM23.62-3.5a2.7,2.7,0,0,0-.34-1.479,1.106,1.106,0,0,0-.987-.521,1.2,1.2,0,0,0-1.187.66v2.812a1.222,1.222,0,0,0,1.2.679Q23.62-1.352,23.62-3.5ZM28.526,0H26.686V-9.75h1.841ZM33.2.127A3.372,3.372,0,0,1,30.739-.8a3.294,3.294,0,0,1-.949-2.469v-.178a4.149,4.149,0,0,1,.4-1.85,2.935,2.935,0,0,1,1.133-1.257A3.18,3.18,0,0,1,33-7a2.85,2.85,0,0,1,2.219.889,3.611,3.611,0,0,1,.809,2.52v.749H31.649a1.7,1.7,0,0,0,.536,1.079,1.621,1.621,0,0,0,1.133.406,1.98,1.98,0,0,0,1.657-.768l.9,1.009A2.754,2.754,0,0,1,34.76-.2,3.665,3.665,0,0,1,33.2.127Zm-.209-5.643a1.146,1.146,0,0,0-.885.37,1.915,1.915,0,0,0-.435,1.058H34.22v-.147a1.366,1.366,0,0,0-.33-.947A1.183,1.183,0,0,0,32.989-5.516ZM41.044,0a2.037,2.037,0,0,1-.184-.616,2.22,2.22,0,0,1-1.733.743,2.439,2.439,0,0,1-1.673-.584,1.878,1.878,0,0,1-.663-1.473A1.941,1.941,0,0,1,37.6-3.605a3.994,3.994,0,0,1,2.339-.59h.844v-.394a1.132,1.132,0,0,0-.244-.762.961.961,0,0,0-.771-.286,1.093,1.093,0,0,0-.727.222.755.755,0,0,0-.263.609H36.943a1.843,1.843,0,0,1,.368-1.1,2.434,2.434,0,0,1,1.041-.8A3.794,3.794,0,0,1,39.863-7a3,3,0,0,1,2.015.638,2.232,2.232,0,0,1,.746,1.793v2.977A3.284,3.284,0,0,0,42.9-.108V0ZM39.527-1.276a1.58,1.58,0,0,0,.749-.181,1.188,1.188,0,0,0,.508-.486V-3.123H40.1q-1.377,0-1.466.952l-.006.108a.734.734,0,0,0,.241.565A.937.937,0,0,0,39.527-1.276Zm4.221-2.209a4.139,4.139,0,0,1,.72-2.558A2.338,2.338,0,0,1,46.439-7a2.1,2.1,0,0,1,1.657.749v-3.5h1.841V0H48.28l-.089-.73a2.159,2.159,0,0,1-1.765.857,2.331,2.331,0,0,1-1.946-.955A4.272,4.272,0,0,1,43.748-3.485Zm1.834.137a2.711,2.711,0,0,0,.336,1.481,1.1,1.1,0,0,0,.978.515,1.227,1.227,0,0,0,1.2-.718V-4.785A1.21,1.21,0,0,0,46.909-5.5Q45.583-5.5,45.583-3.348ZM51.073-3.5a4.073,4.073,0,0,1,.394-1.822A2.881,2.881,0,0,1,52.6-6.557,3.306,3.306,0,0,1,54.317-7a3.128,3.128,0,0,1,2.269.851,3.414,3.414,0,0,1,.981,2.311l.013.47A3.59,3.59,0,0,1,56.7-.828,3.067,3.067,0,0,1,54.33.127a3.082,3.082,0,0,1-2.371-.952,3.653,3.653,0,0,1-.885-2.59Zm1.834.13a2.567,2.567,0,0,0,.368,1.5,1.215,1.215,0,0,0,1.054.518,1.217,1.217,0,0,0,1.041-.512A2.809,2.809,0,0,0,55.745-3.5a2.542,2.542,0,0,0-.375-1.488,1.217,1.217,0,0,0-1.054-.528,1.2,1.2,0,0,0-1.041.524A2.857,2.857,0,0,0,52.908-3.367ZM62.429-1.9a.591.591,0,0,0-.333-.53,3.785,3.785,0,0,0-1.07-.346q-2.45-.514-2.45-2.082a1.887,1.887,0,0,1,.759-1.527A3.06,3.06,0,0,1,61.318-7a3.293,3.293,0,0,1,2.092.616,1.94,1.94,0,0,1,.784,1.6H62.359a.888.888,0,0,0-.254-.651,1.075,1.075,0,0,0-.793-.257,1.1,1.1,0,0,0-.717.209.661.661,0,0,0-.254.533.565.565,0,0,0,.289.492,2.971,2.971,0,0,0,.974.324,7.959,7.959,0,0,1,1.155.308,1.9,1.9,0,0,1,1.454,1.847,1.792,1.792,0,0,1-.806,1.52,3.478,3.478,0,0,1-2.082.581,3.632,3.632,0,0,1-1.533-.308,2.572,2.572,0,0,1-1.051-.844,1.962,1.962,0,0,1-.381-1.158H60.1a.958.958,0,0,0,.362.749,1.435,1.435,0,0,0,.9.26,1.328,1.328,0,0,0,.8-.2A.622.622,0,0,0,62.429-1.9Z" transform="translate(1215 831)"/>
    <path id="Trazado_197402" data-name="Trazado 197402" d="M2.38,0H1.162V-9.242H2.38ZM4.608,0V-9.242H7.217a4.2,4.2,0,0,1,2.133.533,3.606,3.606,0,0,1,1.431,1.517,4.938,4.938,0,0,1,.511,2.26v.59a4.955,4.955,0,0,1-.5,2.292A3.55,3.55,0,0,1,9.347-.54,4.467,4.467,0,0,1,7.167,0ZM5.827-8.246V-1H7.109A2.79,2.79,0,0,0,9.3-1.873a3.622,3.622,0,0,0,.784-2.5v-.54a3.68,3.68,0,0,0-.74-2.449,2.632,2.632,0,0,0-2.1-.886ZM17.9.958H12.086V0H17.9Zm6.322-5.23H20.217V-1H24.87V0H19V-9.242h5.808v1H20.217v2.977h4.005Zm3.085-2.6.032.762A2.536,2.536,0,0,1,29.377-7a1.964,1.964,0,0,1,1.961,1.1,2.6,2.6,0,0,1,.892-.8,2.634,2.634,0,0,1,1.3-.3q2.26,0,2.3,2.393V0H34.652V-4.532a1.577,1.577,0,0,0-.336-1.1A1.482,1.482,0,0,0,33.186-6a1.557,1.557,0,0,0-1.085.39,1.584,1.584,0,0,0-.5,1.051V0H30.418V-4.5A1.31,1.31,0,0,0,28.952-6a1.571,1.571,0,0,0-1.581.984V0H26.2V-6.868ZM43.4-3.358a4.113,4.113,0,0,1-.717,2.526,2.3,2.3,0,0,1-1.942.958,2.519,2.519,0,0,1-1.968-.793V2.641H37.6V-6.868H38.67l.057.762A2.419,2.419,0,0,1,40.72-7a2.342,2.342,0,0,1,1.958.933,4.157,4.157,0,0,1,.72,2.6Zm-1.174-.133a3.035,3.035,0,0,0-.5-1.834A1.6,1.6,0,0,0,40.371-6a1.726,1.726,0,0,0-1.6.946v3.282a1.73,1.73,0,0,0,1.612.939,1.587,1.587,0,0,0,1.343-.67A3.312,3.312,0,0,0,42.225-3.491ZM46.167,0H44.992V-9.75h1.174ZM50.9.127A3,3,0,0,1,48.623-.79a3.4,3.4,0,0,1-.876-2.453v-.216a4.121,4.121,0,0,1,.39-1.825,3.045,3.045,0,0,1,1.092-1.257A2.745,2.745,0,0,1,50.75-7a2.572,2.572,0,0,1,2.082.882,3.82,3.82,0,0,1,.743,2.526V-3.1H48.921a2.441,2.441,0,0,0,.594,1.641,1.866,1.866,0,0,0,1.444.625,2.045,2.045,0,0,0,1.054-.254,2.648,2.648,0,0,0,.755-.673l.717.559A2.884,2.884,0,0,1,50.9.127ZM50.75-6.03a1.566,1.566,0,0,0-1.193.517,2.515,2.515,0,0,0-.6,1.45H52.4v-.089a2.237,2.237,0,0,0-.482-1.387A1.475,1.475,0,0,0,50.75-6.03ZM59.173,0a2.467,2.467,0,0,1-.165-.724,2.62,2.62,0,0,1-1.955.851,2.424,2.424,0,0,1-1.666-.574A1.859,1.859,0,0,1,54.736-1.9a1.942,1.942,0,0,1,.816-1.666,3.846,3.846,0,0,1,2.295-.594h1.143V-4.7a1.319,1.319,0,0,0-.368-.981,1.48,1.48,0,0,0-1.085-.365,1.712,1.712,0,0,0-1.054.317.935.935,0,0,0-.425.768H54.875a1.621,1.621,0,0,1,.365-.993,2.491,2.491,0,0,1,.99-.759A3.331,3.331,0,0,1,57.6-7a2.715,2.715,0,0,1,1.86.594,2.141,2.141,0,0,1,.7,1.635v3.161A3.865,3.865,0,0,0,60.4-.1V0ZM57.224-.9a2.064,2.064,0,0,0,1.047-.286,1.728,1.728,0,0,0,.717-.743V-3.333h-.92q-2.158,0-2.158,1.263a1.069,1.069,0,0,0,.368.863A1.415,1.415,0,0,0,57.224-.9Zm4.494-2.6a4.023,4.023,0,0,1,.749-2.542A2.369,2.369,0,0,1,64.429-7a2.382,2.382,0,0,1,1.911.825V-9.75h1.174V0H66.435l-.057-.736a2.391,2.391,0,0,1-1.961.863A2.346,2.346,0,0,1,62.47-.851,4.069,4.069,0,0,1,61.718-3.4Zm1.174.133a3.046,3.046,0,0,0,.482,1.828,1.56,1.56,0,0,0,1.333.66,1.713,1.713,0,0,0,1.631-1V-5.027A1.726,1.726,0,0,0,64.721-6a1.567,1.567,0,0,0-1.346.667A3.354,3.354,0,0,0,62.893-3.358Zm6.132-.14a4.057,4.057,0,0,1,.4-1.815,2.96,2.96,0,0,1,1.1-1.244A3.007,3.007,0,0,1,72.141-7a2.9,2.9,0,0,1,2.269.971,3.736,3.736,0,0,1,.866,2.583v.083a4.092,4.092,0,0,1-.384,1.8,2.916,2.916,0,0,1-1.1,1.241,3.041,3.041,0,0,1-1.641.444,2.889,2.889,0,0,1-2.263-.971,3.718,3.718,0,0,1-.866-2.571Zm1.181.14a2.938,2.938,0,0,0,.53,1.834,1.7,1.7,0,0,0,1.419.692,1.686,1.686,0,0,0,1.422-.7A3.213,3.213,0,0,0,74.1-3.5a2.933,2.933,0,0,0-.536-1.831,1.705,1.705,0,0,0-1.425-.7,1.686,1.686,0,0,0-1.4.692A3.189,3.189,0,0,0,70.205-3.358Zm24.705.939H91.038L90.168,0H88.912l3.529-9.242h1.066L97.043,0h-1.25Zm-3.5-1h3.142L92.974-7.738Zm13.279-5.827v6.284a2.948,2.948,0,0,1-.822,2.139,3.312,3.312,0,0,1-2.212.933l-.324.013a3.459,3.459,0,0,1-2.418-.819A2.929,2.929,0,0,1,98-2.945v-6.3H99.2v6.259a2.114,2.114,0,0,0,.552,1.558,2.123,2.123,0,0,0,1.574.555,2.137,2.137,0,0,0,1.584-.552,2.11,2.11,0,0,0,.549-1.555V-9.242Zm8.309,1h-2.971V0h-1.212V-8.246h-2.964v-1h7.147Zm8.3,3.923a5.717,5.717,0,0,1-.457,2.371,3.462,3.462,0,0,1-1.295,1.546,3.563,3.563,0,0,1-1.955.533,3.532,3.532,0,0,1-1.936-.536,3.545,3.545,0,0,1-1.311-1.53,5.486,5.486,0,0,1-.479-2.3v-.667a5.649,5.649,0,0,1,.463-2.355,3.532,3.532,0,0,1,1.311-1.565,3.517,3.517,0,0,1,1.939-.543,3.583,3.583,0,0,1,1.958.536,3.455,3.455,0,0,1,1.3,1.555,5.745,5.745,0,0,1,.457,2.371Zm-1.212-.6a4.144,4.144,0,0,0-.66-2.523,2.177,2.177,0,0,0-1.847-.879,2.154,2.154,0,0,0-1.819.879A4.059,4.059,0,0,0,115.077-5v.679a4.15,4.15,0,0,0,.67,2.5,2.163,2.163,0,0,0,1.844.911,2.154,2.154,0,0,0,1.828-.86,4.126,4.126,0,0,0,.667-2.466ZM0,1H36.6V2H0ZM39.771,1h82.281V2H39.771Z" transform="translate(1148.135 873.841)"/>
    <path id="Trazado_197403" data-name="Trazado 197403" d="M2.38,0H1.162V-9.242H2.38ZM4.608,0V-9.242H7.217a4.2,4.2,0,0,1,2.133.533,3.606,3.606,0,0,1,1.431,1.517,4.938,4.938,0,0,1,.511,2.26v.59a4.955,4.955,0,0,1-.5,2.292A3.55,3.55,0,0,1,9.347-.54,4.467,4.467,0,0,1,7.167,0ZM5.827-8.246V-1H7.109A2.79,2.79,0,0,0,9.3-1.873a3.622,3.622,0,0,0,.784-2.5v-.54a3.68,3.68,0,0,0-.74-2.449,2.632,2.632,0,0,0-2.1-.886ZM17.9.958H12.086V0H17.9ZM20.224-1H24.6V0H19V-9.242h1.225ZM25.5-3.5a4.057,4.057,0,0,1,.4-1.815A2.96,2.96,0,0,1,27-6.557,3.007,3.007,0,0,1,28.615-7a2.9,2.9,0,0,1,2.269.971,3.736,3.736,0,0,1,.866,2.583v.083a4.092,4.092,0,0,1-.384,1.8,2.916,2.916,0,0,1-1.1,1.241,3.041,3.041,0,0,1-1.641.444,2.889,2.889,0,0,1-2.263-.971A3.718,3.718,0,0,1,25.5-3.415Zm1.181.14a2.938,2.938,0,0,0,.53,1.834,1.7,1.7,0,0,0,1.419.692,1.686,1.686,0,0,0,1.422-.7A3.213,3.213,0,0,0,30.577-3.5a2.933,2.933,0,0,0-.536-1.831,1.705,1.705,0,0,0-1.425-.7,1.686,1.686,0,0,0-1.4.692A3.189,3.189,0,0,0,26.679-3.358Zm9.3,2.526a1.692,1.692,0,0,0,1.1-.381,1.34,1.34,0,0,0,.521-.952h1.111A2.13,2.13,0,0,1,38.3-1.041a2.676,2.676,0,0,1-1,.851,2.885,2.885,0,0,1-1.323.317,2.829,2.829,0,0,1-2.231-.936,3.729,3.729,0,0,1-.828-2.561v-.2a4.135,4.135,0,0,1,.368-1.784,2.8,2.8,0,0,1,1.057-1.212A3,3,0,0,1,35.972-7a2.755,2.755,0,0,1,1.92.692,2.473,2.473,0,0,1,.816,1.8H37.6a1.618,1.618,0,0,0-.5-1.095,1.57,1.57,0,0,0-1.12-.428,1.644,1.644,0,0,0-1.387.644,3.026,3.026,0,0,0-.492,1.863V-3.3a2.965,2.965,0,0,0,.489,1.828A1.651,1.651,0,0,0,35.979-.832ZM44.269,0A2.467,2.467,0,0,1,44.1-.724a2.62,2.62,0,0,1-1.955.851,2.424,2.424,0,0,1-1.666-.574A1.859,1.859,0,0,1,39.832-1.9a1.942,1.942,0,0,1,.816-1.666,3.846,3.846,0,0,1,2.295-.594h1.143V-4.7a1.319,1.319,0,0,0-.368-.981,1.48,1.48,0,0,0-1.085-.365,1.712,1.712,0,0,0-1.054.317.935.935,0,0,0-.425.768H39.971a1.621,1.621,0,0,1,.365-.993,2.491,2.491,0,0,1,.99-.759A3.331,3.331,0,0,1,42.7-7a2.715,2.715,0,0,1,1.86.594,2.141,2.141,0,0,1,.7,1.635v3.161A3.865,3.865,0,0,0,45.5-.1V0ZM42.32-.9a2.064,2.064,0,0,0,1.047-.286,1.728,1.728,0,0,0,.717-.743V-3.333h-.92q-2.158,0-2.158,1.263a1.069,1.069,0,0,0,.368.863A1.415,1.415,0,0,0,42.32-.9Zm6.056.9H47.2V-9.75h1.174ZM51.53,0H50.356V-6.868H51.53Zm-1.27-8.69a.7.7,0,0,1,.175-.482.655.655,0,0,1,.517-.2.666.666,0,0,1,.521.2.694.694,0,0,1,.178.482.671.671,0,0,1-.178.476.678.678,0,0,1-.521.19.667.667,0,0,1-.517-.19A.678.678,0,0,1,50.261-8.69Zm2.863,5.2a4.023,4.023,0,0,1,.749-2.542A2.369,2.369,0,0,1,55.834-7a2.382,2.382,0,0,1,1.911.825V-9.75h1.174V0H57.84l-.057-.736a2.391,2.391,0,0,1-1.961.863,2.346,2.346,0,0,1-1.946-.978A4.069,4.069,0,0,1,53.124-3.4Zm1.174.133A3.046,3.046,0,0,0,54.78-1.53a1.56,1.56,0,0,0,1.333.66,1.713,1.713,0,0,0,1.631-1V-5.027A1.726,1.726,0,0,0,56.126-6a1.567,1.567,0,0,0-1.346.667A3.354,3.354,0,0,0,54.3-3.358ZM64.981,0a2.467,2.467,0,0,1-.165-.724,2.62,2.62,0,0,1-1.955.851,2.424,2.424,0,0,1-1.666-.574A1.859,1.859,0,0,1,60.544-1.9a1.942,1.942,0,0,1,.816-1.666,3.846,3.846,0,0,1,2.295-.594H64.8V-4.7a1.319,1.319,0,0,0-.368-.981,1.48,1.48,0,0,0-1.085-.365,1.712,1.712,0,0,0-1.054.317.935.935,0,0,0-.425.768H60.684a1.621,1.621,0,0,1,.365-.993,2.491,2.491,0,0,1,.99-.759A3.331,3.331,0,0,1,63.413-7a2.715,2.715,0,0,1,1.86.594,2.141,2.141,0,0,1,.7,1.635v3.161a3.865,3.865,0,0,0,.241,1.5V0ZM63.032-.9a2.064,2.064,0,0,0,1.047-.286,1.728,1.728,0,0,0,.717-.743V-3.333h-.92q-2.158,0-2.158,1.263a1.069,1.069,0,0,0,.368.863A1.415,1.415,0,0,0,63.032-.9Zm4.494-2.6a4.023,4.023,0,0,1,.749-2.542A2.369,2.369,0,0,1,70.237-7a2.382,2.382,0,0,1,1.911.825V-9.75h1.174V0H72.243l-.057-.736a2.391,2.391,0,0,1-1.961.863,2.346,2.346,0,0,1-1.946-.978A4.069,4.069,0,0,1,67.526-3.4Zm1.174.133a3.046,3.046,0,0,0,.482,1.828,1.56,1.56,0,0,0,1.333.66,1.713,1.713,0,0,0,1.631-1V-5.027A1.726,1.726,0,0,0,70.529-6a1.567,1.567,0,0,0-1.346.667A3.354,3.354,0,0,0,68.7-3.358ZM101.74,0h-1.225L95.862-7.122V0H94.637V-9.242h1.225l4.666,7.154V-9.242h1.212Zm8.671-9.242v6.284a2.948,2.948,0,0,1-.822,2.139,3.312,3.312,0,0,1-2.212.933l-.324.013a3.459,3.459,0,0,1-2.418-.819,2.929,2.929,0,0,1-.914-2.253v-6.3h1.206v6.259a2.114,2.114,0,0,0,.552,1.558,2.123,2.123,0,0,0,1.574.555,2.137,2.137,0,0,0,1.584-.552,2.11,2.11,0,0,0,.549-1.555V-9.242Zm3.5,0L116.93-1.7l3.021-7.541h1.581V0h-1.219V-3.6l.114-3.885L117.394,0h-.933l-3.028-7.465.121,3.866V0h-1.219V-9.242ZM123.684,0V-9.242h3.021a3.507,3.507,0,0,1,2.263.622,2.242,2.242,0,0,1,.759,1.841,1.877,1.877,0,0,1-.368,1.146,2.387,2.387,0,0,1-1,.771,2.143,2.143,0,0,1,1.184.8,2.286,2.286,0,0,1,.435,1.4,2.472,2.472,0,0,1-.806,1.955A3.334,3.334,0,0,1,126.89,0ZM124.9-4.323V-1h2.012a1.938,1.938,0,0,0,1.343-.441,1.549,1.549,0,0,0,.492-1.216q0-1.669-1.815-1.669Zm0-.978h1.841a1.93,1.93,0,0,0,1.279-.4,1.344,1.344,0,0,0,.479-1.088,1.321,1.321,0,0,0-.444-1.11,2.182,2.182,0,0,0-1.352-.347h-1.8ZM137-4.272H133V-1h4.653V0h-5.872V-9.242h5.808v1H133v2.977H137Zm5.554.533h-2.171V0H139.16V-9.242h3.06a3.621,3.621,0,0,1,2.4.711,2.558,2.558,0,0,1,.841,2.069,2.488,2.488,0,0,1-.467,1.5A2.785,2.785,0,0,1,143.7-4l2.171,3.923V0h-1.308Zm-2.171-1h1.873a2.112,2.112,0,0,0,1.444-.471,1.591,1.591,0,0,0,.536-1.259,1.676,1.676,0,0,0-.511-1.316,2.164,2.164,0,0,0-1.476-.464h-1.866Z" transform="translate(1148.135 966.557)"/>
    <path id="Trazado_197404" data-name="Trazado 197404" d="M3.8-4.12A5.731,5.731,0,0,1,1.514-5.227,2.116,2.116,0,0,1,.8-6.849a2.236,2.236,0,0,1,.873-1.806,3.469,3.469,0,0,1,2.269-.714A3.786,3.786,0,0,1,5.64-9,2.792,2.792,0,0,1,6.8-7.985,2.6,2.6,0,0,1,7.2-6.57H5.979a1.69,1.69,0,0,0-.533-1.322,2.168,2.168,0,0,0-1.5-.481,2.22,2.22,0,0,0-1.406.4,1.326,1.326,0,0,0-.5,1.1,1.193,1.193,0,0,0,.479.957A4.7,4.7,0,0,0,4.142-5.2a7.569,7.569,0,0,1,1.8.715,2.736,2.736,0,0,1,.965.911,2.325,2.325,0,0,1,.314,1.225,2.159,2.159,0,0,1-.876,1.8A3.735,3.735,0,0,1,4.005.127,4.344,4.344,0,0,1,2.228-.238a2.991,2.991,0,0,1-1.273-1A2.44,2.44,0,0,1,.508-2.679H1.733a1.592,1.592,0,0,0,.619,1.323A2.606,2.606,0,0,0,4.005-.87a2.4,2.4,0,0,0,1.479-.394A1.278,1.278,0,0,0,6-2.336a1.255,1.255,0,0,0-.476-1.051A5.489,5.489,0,0,0,3.8-4.12Zm9.045,3.44a2.494,2.494,0,0,1-2.012.806A2.135,2.135,0,0,1,9.156-.511,2.761,2.761,0,0,1,8.576-2.4V-6.868H9.75v4.437Q9.75-.87,11.02-.87a1.758,1.758,0,0,0,1.79-1v-5h1.174V0H12.867Zm5.776.806A3,3,0,0,1,16.345-.79a3.4,3.4,0,0,1-.876-2.453v-.216a4.121,4.121,0,0,1,.39-1.825,3.045,3.045,0,0,1,1.092-1.257A2.745,2.745,0,0,1,18.472-7a2.572,2.572,0,0,1,2.082.882A3.82,3.82,0,0,1,21.3-3.586V-3.1H16.644a2.441,2.441,0,0,0,.594,1.641,1.866,1.866,0,0,0,1.444.625,2.045,2.045,0,0,0,1.054-.254,2.648,2.648,0,0,0,.755-.673l.717.559A2.884,2.884,0,0,1,18.618.127ZM18.472-6.03a1.566,1.566,0,0,0-1.193.517,2.515,2.515,0,0,0-.6,1.45h3.44v-.089a2.237,2.237,0,0,0-.482-1.387A1.475,1.475,0,0,0,18.472-6.03ZM23.931,0H22.756V-9.75h1.174Zm1.593-3.491a4.023,4.023,0,0,1,.749-2.542A2.369,2.369,0,0,1,28.234-7a2.382,2.382,0,0,1,1.911.825V-9.75h1.174V0H30.24l-.057-.736a2.391,2.391,0,0,1-1.961.863,2.346,2.346,0,0,1-1.946-.978A4.069,4.069,0,0,1,25.524-3.4Zm1.174.133a3.046,3.046,0,0,0,.482,1.828,1.56,1.56,0,0,0,1.333.66,1.713,1.713,0,0,0,1.631-1V-5.027A1.726,1.726,0,0,0,28.526-6a1.567,1.567,0,0,0-1.346.667A3.354,3.354,0,0,0,26.7-3.358ZM32.83-3.5a4.057,4.057,0,0,1,.4-1.815,2.96,2.96,0,0,1,1.1-1.244A3.007,3.007,0,0,1,35.947-7a2.9,2.9,0,0,1,2.269.971,3.736,3.736,0,0,1,.866,2.583v.083a4.092,4.092,0,0,1-.384,1.8A2.916,2.916,0,0,1,37.6-.317a3.041,3.041,0,0,1-1.641.444A2.889,2.889,0,0,1,33.7-.844a3.718,3.718,0,0,1-.866-2.571Zm1.181.14a2.938,2.938,0,0,0,.53,1.834,1.7,1.7,0,0,0,1.419.692,1.686,1.686,0,0,0,1.422-.7A3.213,3.213,0,0,0,37.908-3.5a2.933,2.933,0,0,0-.536-1.831,1.705,1.705,0,0,0-1.425-.7,1.686,1.686,0,0,0-1.4.692A3.189,3.189,0,0,0,34.011-3.358ZM102.553,0h-1.225L96.675-7.122V0H95.45V-9.242h1.225l4.666,7.154V-9.242h1.212Zm8.671-9.242v6.284A2.948,2.948,0,0,1,110.4-.819a3.312,3.312,0,0,1-2.212.933l-.324.013a3.459,3.459,0,0,1-2.418-.819,2.929,2.929,0,0,1-.914-2.253v-6.3h1.206v6.259a2.114,2.114,0,0,0,.552,1.558,2.123,2.123,0,0,0,1.574.555,2.137,2.137,0,0,0,1.584-.552A2.11,2.11,0,0,0,110-2.977V-9.242Zm3.5,0L117.743-1.7l3.021-7.541h1.581V0h-1.219V-3.6l.114-3.885L118.206,0h-.933l-3.028-7.465.121,3.866V0h-1.219V-9.242ZM124.5,0V-9.242h3.021a3.507,3.507,0,0,1,2.263.622,2.242,2.242,0,0,1,.759,1.841,1.877,1.877,0,0,1-.368,1.146,2.387,2.387,0,0,1-1,.771,2.143,2.143,0,0,1,1.184.8,2.286,2.286,0,0,1,.435,1.4,2.472,2.472,0,0,1-.806,1.955A3.334,3.334,0,0,1,127.7,0Zm1.219-4.323V-1h2.012a1.937,1.937,0,0,0,1.343-.441,1.549,1.549,0,0,0,.492-1.216q0-1.669-1.815-1.669Zm0-.978h1.841a1.93,1.93,0,0,0,1.279-.4,1.344,1.344,0,0,0,.479-1.088,1.321,1.321,0,0,0-.444-1.11,2.182,2.182,0,0,0-1.352-.347h-1.8Zm12.1,1.028h-4.005V-1h4.653V0H132.59V-9.242H138.4v1h-4.589v2.977h4.005Zm5.554.533H141.2V0h-1.225V-9.242h3.06a3.621,3.621,0,0,1,2.4.711,2.558,2.558,0,0,1,.841,2.069,2.488,2.488,0,0,1-.467,1.5,2.785,2.785,0,0,1-1.3.958l2.171,3.923V0h-1.308Zm-2.171-1h1.873a2.112,2.112,0,0,0,1.444-.471,1.591,1.591,0,0,0,.536-1.259,1.676,1.676,0,0,0-.511-1.316,2.164,2.164,0,0,0-1.476-.464H141.2Z" transform="translate(1148.135 1056.63)"/>
    <path id="Trazado_197405" data-name="Trazado 197405" d="M6.176-2.418H2.3L1.435,0H.178L3.707-9.242H4.773L8.309,0H7.059Zm-3.5-1H5.814L4.24-7.738ZM10.48-6.868,10.518-6A2.5,2.5,0,0,1,12.575-7q2.177,0,2.2,2.457V0H13.6V-4.545a1.581,1.581,0,0,0-.34-1.1A1.361,1.361,0,0,0,12.219-6a1.7,1.7,0,0,0-1,.3,2.069,2.069,0,0,0-.673.8V0H9.369V-6.868Zm7.655-1.663v1.663h1.282v.908H18.135V-1.7a.953.953,0,0,0,.171.62.721.721,0,0,0,.584.207,2.843,2.843,0,0,0,.559-.076V0a3.424,3.424,0,0,1-.9.126,1.462,1.462,0,0,1-1.187-.476,2.045,2.045,0,0,1-.4-1.352V-5.96H15.71v-.908h1.25V-8.531ZM22.064,0H20.89V-6.868h1.174Zm-1.27-8.69a.7.7,0,0,1,.175-.482.655.655,0,0,1,.517-.2.666.666,0,0,1,.521.2.694.694,0,0,1,.178.482.671.671,0,0,1-.178.476.678.678,0,0,1-.521.19.667.667,0,0,1-.517-.19A.678.678,0,0,1,20.795-8.69Zm2.869,5.2a4.037,4.037,0,0,1,.743-2.555A2.375,2.375,0,0,1,26.375-7a2.363,2.363,0,0,1,1.961.889l.057-.762h1.073v6.7a2.794,2.794,0,0,1-.79,2.1,2.916,2.916,0,0,1-2.123.768A3.532,3.532,0,0,1,25.1,2.387a2.5,2.5,0,0,1-1.085-.87l.609-.7a2.3,2.3,0,0,0,1.847.933,1.8,1.8,0,0,0,1.336-.482A1.844,1.844,0,0,0,28.285-.1v-.59a2.414,2.414,0,0,1-1.923.813A2.346,2.346,0,0,1,24.41-.844,4.244,4.244,0,0,1,23.664-3.491Zm1.181.133a3.08,3.08,0,0,0,.476,1.825,1.547,1.547,0,0,0,1.333.663,1.72,1.72,0,0,0,1.631-1.009V-5.015A1.74,1.74,0,0,0,26.667-6a1.561,1.561,0,0,0-1.339.667A3.354,3.354,0,0,0,24.845-3.358ZM35.477-.679a2.494,2.494,0,0,1-2.012.806,2.135,2.135,0,0,1-1.673-.638A2.761,2.761,0,0,1,31.211-2.4V-6.868h1.174v4.437q0,1.562,1.27,1.562a1.758,1.758,0,0,0,1.79-1v-5H36.62V0H35.5Zm5.776.806A3,3,0,0,1,38.981-.79,3.4,3.4,0,0,1,38.1-3.244v-.216a4.121,4.121,0,0,1,.39-1.825,3.045,3.045,0,0,1,1.092-1.257A2.745,2.745,0,0,1,41.107-7a2.572,2.572,0,0,1,2.082.882,3.82,3.82,0,0,1,.743,2.526V-3.1H39.279a2.441,2.441,0,0,0,.594,1.641,1.866,1.866,0,0,0,1.444.625,2.045,2.045,0,0,0,1.054-.254,2.648,2.648,0,0,0,.755-.673l.717.559A2.884,2.884,0,0,1,41.253.127ZM41.107-6.03a1.566,1.566,0,0,0-1.193.517,2.515,2.515,0,0,0-.6,1.45h3.44v-.089a2.237,2.237,0,0,0-.482-1.387A1.475,1.475,0,0,0,41.107-6.03ZM45-3.491a4.023,4.023,0,0,1,.749-2.542A2.369,2.369,0,0,1,47.715-7a2.382,2.382,0,0,1,1.911.825V-9.75H50.8V0H49.721l-.057-.736A2.391,2.391,0,0,1,47.7.127a2.346,2.346,0,0,1-1.946-.978A4.069,4.069,0,0,1,45-3.4Zm1.174.133a3.046,3.046,0,0,0,.482,1.828,1.56,1.56,0,0,0,1.333.66,1.713,1.713,0,0,0,1.631-1V-5.027A1.726,1.726,0,0,0,48.007-6a1.567,1.567,0,0,0-1.346.667A3.354,3.354,0,0,0,46.179-3.358ZM56.862,0A2.467,2.467,0,0,1,56.7-.724a2.62,2.62,0,0,1-1.955.851,2.424,2.424,0,0,1-1.666-.574A1.859,1.859,0,0,1,52.425-1.9a1.942,1.942,0,0,1,.816-1.666,3.846,3.846,0,0,1,2.295-.594h1.143V-4.7a1.319,1.319,0,0,0-.368-.981,1.48,1.48,0,0,0-1.085-.365,1.712,1.712,0,0,0-1.054.317.935.935,0,0,0-.425.768H52.565a1.621,1.621,0,0,1,.365-.993,2.491,2.491,0,0,1,.99-.759A3.331,3.331,0,0,1,55.294-7a2.715,2.715,0,0,1,1.86.594,2.141,2.141,0,0,1,.7,1.635v3.161a3.865,3.865,0,0,0,.241,1.5V0ZM54.914-.9a2.064,2.064,0,0,0,1.047-.286,1.728,1.728,0,0,0,.717-.743V-3.333h-.92q-2.158,0-2.158,1.263a1.069,1.069,0,0,0,.368.863A1.415,1.415,0,0,0,54.914-.9Zm4.494-2.6a4.023,4.023,0,0,1,.749-2.542A2.369,2.369,0,0,1,62.118-7a2.382,2.382,0,0,1,1.911.825V-9.75H65.2V0H64.124l-.057-.736a2.391,2.391,0,0,1-1.961.863A2.346,2.346,0,0,1,60.16-.851,4.069,4.069,0,0,1,59.408-3.4Zm1.174.133a3.046,3.046,0,0,0,.482,1.828A1.56,1.56,0,0,0,62.4-.87a1.713,1.713,0,0,0,1.631-1V-5.027A1.726,1.726,0,0,0,62.41-6a1.567,1.567,0,0,0-1.346.667A3.354,3.354,0,0,0,60.582-3.358ZM103.276,0h-1.225L97.4-7.122V0H96.173V-9.242H97.4l4.666,7.154V-9.242h1.212Zm8.671-9.242v6.284a2.948,2.948,0,0,1-.822,2.139,3.312,3.312,0,0,1-2.212.933l-.324.013a3.459,3.459,0,0,1-2.418-.819,2.929,2.929,0,0,1-.914-2.253v-6.3h1.206v6.259a2.114,2.114,0,0,0,.552,1.558,2.123,2.123,0,0,0,1.574.555,2.137,2.137,0,0,0,1.584-.552,2.11,2.11,0,0,0,.549-1.555V-9.242Zm3.5,0L118.466-1.7l3.021-7.541h1.581V0H121.85V-3.6l.114-3.885L118.93,0H118l-3.028-7.465.121,3.866V0h-1.219V-9.242ZM125.22,0V-9.242h3.021a3.507,3.507,0,0,1,2.263.622,2.242,2.242,0,0,1,.759,1.841,1.877,1.877,0,0,1-.368,1.146,2.387,2.387,0,0,1-1,.771,2.143,2.143,0,0,1,1.184.8,2.286,2.286,0,0,1,.435,1.4A2.472,2.472,0,0,1,130.7-.711,3.334,3.334,0,0,1,128.426,0Zm1.219-4.323V-1h2.012a1.937,1.937,0,0,0,1.343-.441,1.549,1.549,0,0,0,.492-1.216q0-1.669-1.815-1.669Zm0-.978h1.841a1.93,1.93,0,0,0,1.279-.4,1.344,1.344,0,0,0,.479-1.088,1.321,1.321,0,0,0-.444-1.11,2.182,2.182,0,0,0-1.352-.347h-1.8Zm12.1,1.028h-4.005V-1h4.653V0h-5.872V-9.242h5.808v1h-4.589v2.977h4.005Zm5.554.533h-2.171V0H140.7V-9.242h3.06a3.621,3.621,0,0,1,2.4.711A2.558,2.558,0,0,1,147-6.462a2.488,2.488,0,0,1-.467,1.5,2.785,2.785,0,0,1-1.3.958l2.171,3.923V0H146.1Zm-2.171-1h1.873a2.112,2.112,0,0,0,1.444-.471,1.591,1.591,0,0,0,.536-1.259,1.676,1.676,0,0,0-.511-1.316,2.164,2.164,0,0,0-1.476-.464h-1.866Z" transform="translate(1148.135 1086.251)"/>
    <path id="Trazado_197406" data-name="Trazado 197406" d="M7.458-8.246H4.488V0H3.275V-8.246H.311v-1H7.458ZM11.5.127A3,3,0,0,1,9.223-.79a3.4,3.4,0,0,1-.876-2.453v-.216a4.121,4.121,0,0,1,.39-1.825A3.045,3.045,0,0,1,9.829-6.541,2.745,2.745,0,0,1,11.35-7a2.572,2.572,0,0,1,2.082.882,3.82,3.82,0,0,1,.743,2.526V-3.1H9.521a2.441,2.441,0,0,0,.594,1.641,1.866,1.866,0,0,0,1.444.625,2.045,2.045,0,0,0,1.054-.254,2.648,2.648,0,0,0,.755-.673l.717.559A2.884,2.884,0,0,1,11.5.127ZM11.35-6.03a1.566,1.566,0,0,0-1.193.517,2.515,2.515,0,0,0-.6,1.45H13v-.089a2.237,2.237,0,0,0-.482-1.387A1.475,1.475,0,0,0,11.35-6.03ZM16.809,0H15.634V-9.75h1.174Zm4.729.127A3,3,0,0,1,19.265-.79a3.4,3.4,0,0,1-.876-2.453v-.216a4.121,4.121,0,0,1,.39-1.825,3.045,3.045,0,0,1,1.092-1.257A2.745,2.745,0,0,1,21.392-7a2.572,2.572,0,0,1,2.082.882,3.82,3.82,0,0,1,.743,2.526V-3.1H19.563a2.441,2.441,0,0,0,.594,1.641A1.866,1.866,0,0,0,21.6-.832a2.045,2.045,0,0,0,1.054-.254,2.648,2.648,0,0,0,.755-.673l.717.559A2.884,2.884,0,0,1,21.538.127ZM21.392-6.03a1.566,1.566,0,0,0-1.193.517,2.515,2.515,0,0,0-.6,1.45h3.44v-.089a2.237,2.237,0,0,0-.482-1.387A1.475,1.475,0,0,0,21.392-6.03ZM26.152,0V-5.96H25.067v-.908h1.085v-.7a2.339,2.339,0,0,1,.59-1.708,2.23,2.23,0,0,1,1.669-.6,3.1,3.1,0,0,1,.806.107l-.063.946a3.373,3.373,0,0,0-.635-.057,1.146,1.146,0,0,0-.882.334,1.356,1.356,0,0,0-.311.958v.726h1.466v.908H27.327V0Zm3.625-3.5a4.057,4.057,0,0,1,.4-1.815,2.96,2.96,0,0,1,1.1-1.244A3.007,3.007,0,0,1,32.894-7a2.9,2.9,0,0,1,2.269.971,3.736,3.736,0,0,1,.866,2.583v.083a4.092,4.092,0,0,1-.384,1.8,2.916,2.916,0,0,1-1.1,1.241,3.041,3.041,0,0,1-1.641.444,2.889,2.889,0,0,1-2.263-.971,3.718,3.718,0,0,1-.866-2.571Zm1.181.14a2.938,2.938,0,0,0,.53,1.834,1.7,1.7,0,0,0,1.419.692,1.686,1.686,0,0,0,1.422-.7A3.213,3.213,0,0,0,34.855-3.5a2.933,2.933,0,0,0-.536-1.831,1.705,1.705,0,0,0-1.425-.7,1.686,1.686,0,0,0-1.4.692A3.189,3.189,0,0,0,30.958-3.358Zm7.655-3.51L38.651-6A2.5,2.5,0,0,1,40.708-7q2.177,0,2.2,2.457V0H41.729V-4.545a1.581,1.581,0,0,0-.34-1.1A1.361,1.361,0,0,0,40.352-6a1.7,1.7,0,0,0-1,.3,2.069,2.069,0,0,0-.673.8V0H37.5V-6.868ZM44.364-3.5a4.057,4.057,0,0,1,.4-1.815,2.96,2.96,0,0,1,1.1-1.244A3.007,3.007,0,0,1,47.48-7a2.9,2.9,0,0,1,2.269.971,3.736,3.736,0,0,1,.866,2.583v.083a4.092,4.092,0,0,1-.384,1.8,2.916,2.916,0,0,1-1.1,1.241,3.041,3.041,0,0,1-1.641.444A2.889,2.889,0,0,1,45.23-.844a3.718,3.718,0,0,1-.866-2.571Zm1.181.14a2.938,2.938,0,0,0,.53,1.834,1.7,1.7,0,0,0,1.419.692,1.686,1.686,0,0,0,1.422-.7A3.213,3.213,0,0,0,49.442-3.5a2.933,2.933,0,0,0-.536-1.831,1.705,1.705,0,0,0-1.425-.7,1.686,1.686,0,0,0-1.4.692A3.189,3.189,0,0,0,45.544-3.358ZM101.213,0H99.988L95.335-7.122V0H94.11V-9.242h1.225L100-2.088V-9.242h1.212Zm8.671-9.242v6.284a2.948,2.948,0,0,1-.822,2.139,3.312,3.312,0,0,1-2.212.933l-.324.013a3.459,3.459,0,0,1-2.418-.819,2.929,2.929,0,0,1-.914-2.253v-6.3H104.4v6.259a2.114,2.114,0,0,0,.552,1.558,2.123,2.123,0,0,0,1.574.555,2.137,2.137,0,0,0,1.584-.552,2.11,2.11,0,0,0,.549-1.555V-9.242Zm3.5,0L116.4-1.7l3.021-7.541h1.581V0h-1.219V-3.6l.114-3.885L116.867,0h-.933l-3.028-7.465.121,3.866V0h-1.219V-9.242ZM123.157,0V-9.242h3.021a3.507,3.507,0,0,1,2.263.622,2.242,2.242,0,0,1,.759,1.841,1.877,1.877,0,0,1-.368,1.146,2.387,2.387,0,0,1-1,.771,2.143,2.143,0,0,1,1.184.8,2.286,2.286,0,0,1,.435,1.4,2.472,2.472,0,0,1-.806,1.955A3.334,3.334,0,0,1,126.363,0Zm1.219-4.323V-1h2.012a1.938,1.938,0,0,0,1.343-.441,1.549,1.549,0,0,0,.492-1.216q0-1.669-1.815-1.669Zm0-.978h1.841a1.93,1.93,0,0,0,1.279-.4,1.344,1.344,0,0,0,.479-1.088,1.321,1.321,0,0,0-.444-1.11,2.182,2.182,0,0,0-1.352-.347h-1.8Zm12.1,1.028h-4.005V-1h4.653V0H131.25V-9.242h5.808v1h-4.589v2.977h4.005Zm5.554.533h-2.171V0h-1.225V-9.242h3.06a3.621,3.621,0,0,1,2.4.711,2.558,2.558,0,0,1,.841,2.069,2.488,2.488,0,0,1-.467,1.5,2.785,2.785,0,0,1-1.3.958l2.171,3.923V0h-1.308Zm-2.171-1h1.873a2.112,2.112,0,0,0,1.444-.471,1.591,1.591,0,0,0,.536-1.259,1.676,1.676,0,0,0-.511-1.316,2.164,2.164,0,0,0-1.476-.464h-1.866Z" transform="translate(1148.135 995.466)"/>
    <path id="Trazado_197407" data-name="Trazado 197407" d="M8.176,0H6.951L2.3-7.122V0H1.073V-9.242H2.3L6.963-2.088V-9.242H8.176ZM9.845-3.5a4.057,4.057,0,0,1,.4-1.815,2.96,2.96,0,0,1,1.1-1.244A3.007,3.007,0,0,1,12.962-7a2.9,2.9,0,0,1,2.269.971A3.736,3.736,0,0,1,16.1-3.44v.083a4.092,4.092,0,0,1-.384,1.8,2.916,2.916,0,0,1-1.1,1.241,3.041,3.041,0,0,1-1.641.444,2.889,2.889,0,0,1-2.263-.971,3.718,3.718,0,0,1-.866-2.571Zm1.181.14a2.938,2.938,0,0,0,.53,1.834,1.7,1.7,0,0,0,1.419.692,1.686,1.686,0,0,0,1.422-.7A3.213,3.213,0,0,0,14.923-3.5a2.933,2.933,0,0,0-.536-1.831,1.705,1.705,0,0,0-1.425-.7,1.686,1.686,0,0,0-1.4.692A3.189,3.189,0,0,0,11.026-3.358Zm7.649-3.51.032.762A2.536,2.536,0,0,1,20.744-7a1.964,1.964,0,0,1,1.961,1.1,2.6,2.6,0,0,1,.892-.8A2.634,2.634,0,0,1,24.9-7q2.26,0,2.3,2.393V0H26.019V-4.532a1.577,1.577,0,0,0-.336-1.1A1.482,1.482,0,0,0,24.553-6a1.557,1.557,0,0,0-1.085.39,1.584,1.584,0,0,0-.5,1.051V0H21.785V-4.5A1.31,1.31,0,0,0,20.319-6a1.571,1.571,0,0,0-1.581.984V0H17.564V-6.868Zm16.1,3.51a4.084,4.084,0,0,1-.724,2.53,2.312,2.312,0,0,1-1.942.955A2.394,2.394,0,0,1,30.1-.793L30.043,0H28.964V-9.75h1.174v3.637A2.381,2.381,0,0,1,32.1-7a2.326,2.326,0,0,1,1.965.946,4.206,4.206,0,0,1,.714,2.59ZM33.6-3.491a3.173,3.173,0,0,0-.463-1.854A1.534,1.534,0,0,0,31.808-6a1.724,1.724,0,0,0-1.669,1.079v2.971A1.772,1.772,0,0,0,31.821-.87a1.526,1.526,0,0,0,1.314-.654A3.374,3.374,0,0,0,33.6-3.491Zm5.973-2.323A3.519,3.519,0,0,0,39-5.859a1.547,1.547,0,0,0-1.568.984V0H36.258V-6.868H37.4l.019.793A1.829,1.829,0,0,1,39.057-7a1.2,1.2,0,0,1,.521.089ZM43.507.127A3,3,0,0,1,41.234-.79a3.4,3.4,0,0,1-.876-2.453v-.216a4.121,4.121,0,0,1,.39-1.825,3.045,3.045,0,0,1,1.092-1.257A2.745,2.745,0,0,1,43.361-7a2.572,2.572,0,0,1,2.082.882,3.82,3.82,0,0,1,.743,2.526V-3.1H41.533a2.441,2.441,0,0,0,.594,1.641,1.866,1.866,0,0,0,1.444.625,2.045,2.045,0,0,0,1.054-.254,2.648,2.648,0,0,0,.755-.673L46.1-1.2A2.884,2.884,0,0,1,43.507.127ZM43.361-6.03a1.566,1.566,0,0,0-1.193.517,2.515,2.515,0,0,0-.6,1.45h3.44v-.089a2.237,2.237,0,0,0-.482-1.387A1.475,1.475,0,0,0,43.361-6.03ZM95.843-1.619l2.641-7.624h1.333L96.389,0H95.31L91.889-9.242h1.327Zm9.839-.8H101.81L100.94,0H99.684l3.529-9.242h1.066L107.815,0h-1.25Zm-3.5-1h3.142l-1.574-4.323Zm10.271-.324h-2.171V0h-1.225V-9.242h3.06a3.621,3.621,0,0,1,2.4.711,2.558,2.558,0,0,1,.841,2.069,2.488,2.488,0,0,1-.467,1.5,2.785,2.785,0,0,1-1.3.958l2.171,3.923V0h-1.308Zm-2.171-1h1.873a2.112,2.112,0,0,0,1.444-.471,1.591,1.591,0,0,0,.536-1.259,1.676,1.676,0,0,0-.511-1.316,2.164,2.164,0,0,0-1.476-.464h-1.866Zm13.584,1.8A3.4,3.4,0,0,1,122.78-.67a3.547,3.547,0,0,1-2.422.8,3.257,3.257,0,0,1-2.625-1.174,4.724,4.724,0,0,1-.987-3.142v-.889a5.266,5.266,0,0,1,.46-2.266,3.437,3.437,0,0,1,1.3-1.5,3.632,3.632,0,0,1,1.955-.524,3.34,3.34,0,0,1,2.361.822,3.441,3.441,0,0,1,1.035,2.276h-1.225a2.655,2.655,0,0,0-.689-1.6,2.084,2.084,0,0,0-1.482-.5,2.181,2.181,0,0,0-1.831.864,3.966,3.966,0,0,0-.663,2.459v.9a4.077,4.077,0,0,0,.628,2.4,2.031,2.031,0,0,0,1.758.889,2.345,2.345,0,0,0,1.558-.46,2.554,2.554,0,0,0,.72-1.6ZM132.628,0H131.4V-4.272h-4.659V0h-1.219V-9.242h1.219v3.974H131.4V-9.242h1.225Zm7.382-2.418h-3.872L135.269,0h-1.257l3.529-9.242h1.066L142.143,0h-1.25Zm-3.5-1h3.142l-1.574-4.323Zm10.271-.324h-2.171V0h-1.225V-9.242h3.06a3.621,3.621,0,0,1,2.4.711,2.558,2.558,0,0,1,.841,2.069,2.488,2.488,0,0,1-.467,1.5,2.785,2.785,0,0,1-1.3.958L150.09-.076V0h-1.308Zm-2.171-1h1.873a2.112,2.112,0,0,0,1.444-.471,1.591,1.591,0,0,0,.536-1.259,1.676,1.676,0,0,0-.511-1.316,2.164,2.164,0,0,0-1.476-.464h-1.866Z" transform="translate(1148.135 903.305)"/>
    <path id="Trazado_197408" data-name="Trazado 197408" d="M6.176-2.418H2.3L1.435,0H.178L3.707-9.242H4.773L8.309,0H7.059Zm-3.5-1H5.814L4.24-7.738Zm12.5.057a4.113,4.113,0,0,1-.717,2.526,2.3,2.3,0,0,1-1.942.958,2.519,2.519,0,0,1-1.968-.793V2.641H9.369V-6.868h1.073l.057.762A2.419,2.419,0,0,1,12.492-7a2.342,2.342,0,0,1,1.958.933,4.157,4.157,0,0,1,.72,2.6ZM14-3.491a3.035,3.035,0,0,0-.5-1.834A1.6,1.6,0,0,0,12.143-6a1.726,1.726,0,0,0-1.6.946v3.282a1.73,1.73,0,0,0,1.612.939A1.587,1.587,0,0,0,13.5-1.5,3.312,3.312,0,0,0,14-3.491ZM19.513.127A3,3,0,0,1,17.24-.79a3.4,3.4,0,0,1-.876-2.453v-.216a4.121,4.121,0,0,1,.39-1.825,3.045,3.045,0,0,1,1.092-1.257A2.745,2.745,0,0,1,19.367-7a2.572,2.572,0,0,1,2.082.882,3.82,3.82,0,0,1,.743,2.526V-3.1H17.539a2.441,2.441,0,0,0,.594,1.641,1.866,1.866,0,0,0,1.444.625,2.045,2.045,0,0,0,1.054-.254,2.648,2.648,0,0,0,.755-.673L22.1-1.2A2.884,2.884,0,0,1,19.513.127ZM19.367-6.03a1.566,1.566,0,0,0-1.193.517,2.515,2.515,0,0,0-.6,1.45h3.44v-.089a2.237,2.237,0,0,0-.482-1.387A1.475,1.475,0,0,0,19.367-6.03ZM24.826,0H23.651V-9.75h1.174ZM27.98,0H26.806V-9.75H27.98Zm3.155,0H29.961V-6.868h1.174Zm-1.27-8.69a.7.7,0,0,1,.175-.482.655.655,0,0,1,.517-.2.666.666,0,0,1,.521.2.694.694,0,0,1,.178.482.671.671,0,0,1-.178.476.678.678,0,0,1-.521.19.667.667,0,0,1-.517-.19A.678.678,0,0,1,29.866-8.69Zm2.863,5.2a4.023,4.023,0,0,1,.749-2.542A2.369,2.369,0,0,1,35.439-7a2.382,2.382,0,0,1,1.911.825V-9.75h1.174V0H37.445l-.057-.736a2.391,2.391,0,0,1-1.961.863,2.346,2.346,0,0,1-1.946-.978A4.069,4.069,0,0,1,32.729-3.4Zm1.174.133a3.046,3.046,0,0,0,.482,1.828,1.56,1.56,0,0,0,1.333.66,1.713,1.713,0,0,0,1.631-1V-5.027A1.726,1.726,0,0,0,35.731-6a1.567,1.567,0,0,0-1.346.667A3.354,3.354,0,0,0,33.9-3.358Zm6.132-.14a4.057,4.057,0,0,1,.4-1.815,2.96,2.96,0,0,1,1.1-1.244A3.007,3.007,0,0,1,43.151-7a2.9,2.9,0,0,1,2.269.971,3.736,3.736,0,0,1,.866,2.583v.083a4.092,4.092,0,0,1-.384,1.8A2.916,2.916,0,0,1,44.8-.317a3.041,3.041,0,0,1-1.641.444A2.889,2.889,0,0,1,40.9-.844a3.718,3.718,0,0,1-.866-2.571Zm1.181.14a2.938,2.938,0,0,0,.53,1.834,1.7,1.7,0,0,0,1.419.692,1.686,1.686,0,0,0,1.422-.7A3.213,3.213,0,0,0,45.113-3.5a2.933,2.933,0,0,0-.536-1.831,1.705,1.705,0,0,0-1.425-.7,1.686,1.686,0,0,0-1.4.692A3.189,3.189,0,0,0,41.215-3.358ZM51.759-1.822a.865.865,0,0,0-.359-.74,3.452,3.452,0,0,0-1.25-.454,5.912,5.912,0,0,1-1.416-.457,2.014,2.014,0,0,1-.774-.635,1.518,1.518,0,0,1-.251-.876,1.782,1.782,0,0,1,.714-1.428A2.789,2.789,0,0,1,50.248-7a2.87,2.87,0,0,1,1.895.6A1.915,1.915,0,0,1,52.87-4.85H51.689a1.06,1.06,0,0,0-.409-.832,1.534,1.534,0,0,0-1.031-.349,1.605,1.605,0,0,0-1,.279.879.879,0,0,0-.362.73.712.712,0,0,0,.336.641,4.139,4.139,0,0,0,1.216.413,6.334,6.334,0,0,1,1.425.47,2.079,2.079,0,0,1,.809.657,1.615,1.615,0,0,1,.263.936A1.758,1.758,0,0,1,52.2-.428a3.089,3.089,0,0,1-1.911.555,3.459,3.459,0,0,1-1.46-.292,2.375,2.375,0,0,1-.993-.816,1.966,1.966,0,0,1-.359-1.133h1.174a1.216,1.216,0,0,0,.473.936,1.835,1.835,0,0,0,1.165.346,1.894,1.894,0,0,0,1.07-.27A.829.829,0,0,0,51.759-1.822Zm44.567.2,2.641-7.624H100.3L96.872,0H95.792L92.371-9.242H93.7Zm9.839-.8h-3.872L101.423,0h-1.257L103.7-9.242h1.066L108.3,0h-1.25Zm-3.5-1H105.8l-1.574-4.323Zm10.271-.324H110.76V0h-1.225V-9.242h3.06a3.621,3.621,0,0,1,2.4.711,2.558,2.558,0,0,1,.841,2.069,2.488,2.488,0,0,1-.467,1.5,2.785,2.785,0,0,1-1.3.958l2.171,3.923V0h-1.308Zm-2.171-1h1.873a2.112,2.112,0,0,0,1.444-.471,1.591,1.591,0,0,0,.536-1.259,1.676,1.676,0,0,0-.511-1.316,2.164,2.164,0,0,0-1.476-.464H110.76Zm13.584,1.8A3.4,3.4,0,0,1,123.262-.67a3.547,3.547,0,0,1-2.422.8,3.257,3.257,0,0,1-2.625-1.174,4.724,4.724,0,0,1-.987-3.142v-.889a5.266,5.266,0,0,1,.46-2.266,3.437,3.437,0,0,1,1.3-1.5,3.632,3.632,0,0,1,1.955-.524,3.34,3.34,0,0,1,2.361.822,3.441,3.441,0,0,1,1.035,2.276h-1.225a2.655,2.655,0,0,0-.689-1.6,2.084,2.084,0,0,0-1.482-.5,2.181,2.181,0,0,0-1.831.864,3.966,3.966,0,0,0-.663,2.459v.9a4.077,4.077,0,0,0,.628,2.4,2.031,2.031,0,0,0,1.758.889,2.345,2.345,0,0,0,1.558-.46,2.554,2.554,0,0,0,.72-1.6ZM133.11,0h-1.225V-4.272h-4.659V0h-1.219V-9.242h1.219v3.974h4.659V-9.242h1.225Zm7.382-2.418h-3.872L135.751,0h-1.257l3.529-9.242h1.066L142.625,0h-1.25Zm-3.5-1h3.142l-1.574-4.323Zm10.271-.324h-2.171V0h-1.225V-9.242h3.06a3.621,3.621,0,0,1,2.4.711,2.558,2.558,0,0,1,.841,2.069,2.488,2.488,0,0,1-.467,1.5A2.785,2.785,0,0,1,148.4-4l2.171,3.923V0h-1.308Zm-2.171-1h1.873a2.112,2.112,0,0,0,1.444-.471,1.591,1.591,0,0,0,.536-1.259,1.676,1.676,0,0,0-.511-1.316,2.164,2.164,0,0,0-1.476-.464h-1.866Z" transform="translate(1149 934)"/>
    <path id="Trazado_197409" data-name="Trazado 197409" d="M1.073,0V-9.242H3.682a4.2,4.2,0,0,1,2.133.533A3.606,3.606,0,0,1,7.246-7.192a4.938,4.938,0,0,1,.511,2.26v.59a4.955,4.955,0,0,1-.5,2.292A3.55,3.55,0,0,1,5.811-.54,4.467,4.467,0,0,1,3.631,0ZM2.292-8.246V-1H3.574a2.79,2.79,0,0,0,2.193-.877,3.622,3.622,0,0,0,.784-2.5v-.54a3.68,3.68,0,0,0-.74-2.449,2.632,2.632,0,0,0-2.1-.886ZM10.689,0H9.515V-6.868h1.174ZM9.42-8.69a.7.7,0,0,1,.175-.482.655.655,0,0,1,.517-.2.666.666,0,0,1,.521.2.694.694,0,0,1,.178.482.671.671,0,0,1-.178.476.678.678,0,0,1-.521.19.667.667,0,0,1-.517-.19A.678.678,0,0,1,9.42-8.69Zm6.468,2.875a3.519,3.519,0,0,0-.578-.044,1.547,1.547,0,0,0-1.568.984V0H12.568V-6.868h1.143l.019.793A1.829,1.829,0,0,1,15.368-7a1.2,1.2,0,0,1,.521.089ZM19.817.127A3,3,0,0,1,17.545-.79a3.4,3.4,0,0,1-.876-2.453v-.216a4.121,4.121,0,0,1,.39-1.825,3.045,3.045,0,0,1,1.092-1.257A2.745,2.745,0,0,1,19.671-7a2.572,2.572,0,0,1,2.082.882A3.82,3.82,0,0,1,22.5-3.586V-3.1H17.843a2.441,2.441,0,0,0,.594,1.641,1.866,1.866,0,0,0,1.444.625,2.045,2.045,0,0,0,1.054-.254,2.648,2.648,0,0,0,.755-.673l.717.559A2.884,2.884,0,0,1,19.817.127ZM19.671-6.03a1.566,1.566,0,0,0-1.193.517,2.515,2.515,0,0,0-.6,1.45h3.44v-.089a2.237,2.237,0,0,0-.482-1.387A1.475,1.475,0,0,0,19.671-6.03Zm6.938,5.2a1.692,1.692,0,0,0,1.1-.381,1.34,1.34,0,0,0,.521-.952h1.111a2.13,2.13,0,0,1-.406,1.124,2.676,2.676,0,0,1-1,.851,2.885,2.885,0,0,1-1.323.317,2.829,2.829,0,0,1-2.231-.936,3.729,3.729,0,0,1-.828-2.561v-.2a4.135,4.135,0,0,1,.368-1.784,2.8,2.8,0,0,1,1.057-1.212A3,3,0,0,1,26.6-7a2.755,2.755,0,0,1,1.92.692,2.473,2.473,0,0,1,.816,1.8H28.228a1.618,1.618,0,0,0-.5-1.095A1.57,1.57,0,0,0,26.6-6.03a1.644,1.644,0,0,0-1.387.644,3.026,3.026,0,0,0-.492,1.863V-3.3a2.965,2.965,0,0,0,.489,1.828A1.651,1.651,0,0,0,26.609-.832Zm6.8,0a1.692,1.692,0,0,0,1.1-.381,1.34,1.34,0,0,0,.521-.952h1.111a2.13,2.13,0,0,1-.406,1.124,2.676,2.676,0,0,1-1,.851,2.885,2.885,0,0,1-1.323.317,2.829,2.829,0,0,1-2.231-.936,3.729,3.729,0,0,1-.828-2.561v-.2a4.135,4.135,0,0,1,.368-1.784A2.8,2.8,0,0,1,31.78-6.563,3,3,0,0,1,33.408-7a2.755,2.755,0,0,1,1.92.692,2.473,2.473,0,0,1,.816,1.8H35.033a1.618,1.618,0,0,0-.5-1.095,1.57,1.57,0,0,0-1.12-.428,1.644,1.644,0,0,0-1.387.644,3.026,3.026,0,0,0-.492,1.863V-3.3a2.965,2.965,0,0,0,.489,1.828A1.651,1.651,0,0,0,33.414-.832ZM38.74,0H37.565V-6.868H38.74ZM37.47-8.69a.7.7,0,0,1,.175-.482.655.655,0,0,1,.517-.2.666.666,0,0,1,.521.2.694.694,0,0,1,.178.482.671.671,0,0,1-.178.476.678.678,0,0,1-.521.19.667.667,0,0,1-.517-.19A.678.678,0,0,1,37.47-8.69ZM40.308-3.5a4.057,4.057,0,0,1,.4-1.815,2.96,2.96,0,0,1,1.1-1.244A3.007,3.007,0,0,1,43.424-7a2.9,2.9,0,0,1,2.269.971A3.736,3.736,0,0,1,46.56-3.44v.083a4.092,4.092,0,0,1-.384,1.8,2.916,2.916,0,0,1-1.1,1.241,3.041,3.041,0,0,1-1.641.444,2.889,2.889,0,0,1-2.263-.971,3.718,3.718,0,0,1-.866-2.571Zm1.181.14a2.938,2.938,0,0,0,.53,1.834,1.7,1.7,0,0,0,1.419.692,1.686,1.686,0,0,0,1.422-.7A3.213,3.213,0,0,0,45.386-3.5a2.933,2.933,0,0,0-.536-1.831,1.705,1.705,0,0,0-1.425-.7,1.686,1.686,0,0,0-1.4.692A3.189,3.189,0,0,0,41.488-3.358Zm7.655-3.51L49.182-6A2.5,2.5,0,0,1,51.238-7q2.177,0,2.2,2.457V0H52.26V-4.545a1.581,1.581,0,0,0-.34-1.1A1.361,1.361,0,0,0,50.883-6a1.7,1.7,0,0,0-1,.3,2.069,2.069,0,0,0-.673.8V0H48.033V-6.868Zm47.925,5.25,2.641-7.624h1.333L97.614,0H96.535L93.114-9.242H94.44Zm9.839-.8h-3.872L102.166,0h-1.257l3.529-9.242H105.5L109.04,0h-1.25Zm-3.5-1h3.142l-1.574-4.323Zm10.271-.324H111.5V0h-1.225V-9.242h3.06a3.621,3.621,0,0,1,2.4.711,2.558,2.558,0,0,1,.841,2.069,2.488,2.488,0,0,1-.467,1.5,2.785,2.785,0,0,1-1.3.958l2.171,3.923V0H115.68Zm-2.171-1h1.873a2.112,2.112,0,0,0,1.444-.471,1.591,1.591,0,0,0,.536-1.259,1.676,1.676,0,0,0-.511-1.316,2.164,2.164,0,0,0-1.476-.464H111.5Zm13.584,1.8A3.4,3.4,0,0,1,124-.67a3.547,3.547,0,0,1-2.422.8,3.257,3.257,0,0,1-2.625-1.174,4.724,4.724,0,0,1-.987-3.142v-.889a5.266,5.266,0,0,1,.46-2.266,3.437,3.437,0,0,1,1.3-1.5,3.632,3.632,0,0,1,1.955-.524,3.34,3.34,0,0,1,2.361.822,3.441,3.441,0,0,1,1.035,2.276h-1.225a2.655,2.655,0,0,0-.689-1.6,2.084,2.084,0,0,0-1.482-.5,2.181,2.181,0,0,0-1.831.864A3.966,3.966,0,0,0,119.2-5.05v.9a4.077,4.077,0,0,0,.628,2.4,2.031,2.031,0,0,0,1.758.889,2.345,2.345,0,0,0,1.558-.46,2.554,2.554,0,0,0,.72-1.6ZM133.853,0h-1.225V-4.272h-4.659V0H126.75V-9.242h1.219v3.974h4.659V-9.242h1.225Zm7.382-2.418h-3.872L136.494,0h-1.257l3.529-9.242h1.066L143.368,0h-1.25Zm-3.5-1h3.142L139.3-7.738ZM148-3.739h-2.171V0h-1.225V-9.242h3.06a3.621,3.621,0,0,1,2.4.711,2.558,2.558,0,0,1,.841,2.069,2.488,2.488,0,0,1-.467,1.5,2.785,2.785,0,0,1-1.3.958l2.171,3.923V0h-1.308Zm-2.171-1H147.7a2.112,2.112,0,0,0,1.444-.471,1.591,1.591,0,0,0,.536-1.259,1.676,1.676,0,0,0-.511-1.316,2.164,2.164,0,0,0-1.476-.464h-1.866Z" transform="translate(1148.135 1027.009)"/>
    <path id="Trazado_197410" data-name="Trazado 197410" d="M2.3-1h4.38V0h-5.6V-9.242H2.3ZM7.573-3.5a4.057,4.057,0,0,1,.4-1.815,2.96,2.96,0,0,1,1.1-1.244A3.007,3.007,0,0,1,10.689-7a2.9,2.9,0,0,1,2.269.971,3.736,3.736,0,0,1,.866,2.583v.083a4.092,4.092,0,0,1-.384,1.8,2.916,2.916,0,0,1-1.1,1.241A3.041,3.041,0,0,1,10.7.127,2.889,2.889,0,0,1,8.439-.844a3.718,3.718,0,0,1-.866-2.571Zm1.181.14a2.938,2.938,0,0,0,.53,1.834A1.7,1.7,0,0,0,10.7-.832a1.686,1.686,0,0,0,1.422-.7A3.213,3.213,0,0,0,12.651-3.5a2.933,2.933,0,0,0-.536-1.831,1.705,1.705,0,0,0-1.425-.7,1.686,1.686,0,0,0-1.4.692A3.189,3.189,0,0,0,8.753-3.358Zm9.3,2.526a1.692,1.692,0,0,0,1.1-.381,1.34,1.34,0,0,0,.521-.952h1.111a2.13,2.13,0,0,1-.406,1.124,2.676,2.676,0,0,1-1,.851,2.885,2.885,0,0,1-1.323.317,2.829,2.829,0,0,1-2.231-.936,3.729,3.729,0,0,1-.828-2.561v-.2a4.135,4.135,0,0,1,.368-1.784,2.8,2.8,0,0,1,1.057-1.212A3,3,0,0,1,18.046-7a2.755,2.755,0,0,1,1.92.692,2.473,2.473,0,0,1,.816,1.8H19.671a1.618,1.618,0,0,0-.5-1.095,1.57,1.57,0,0,0-1.12-.428,1.644,1.644,0,0,0-1.387.644,3.026,3.026,0,0,0-.492,1.863V-3.3a2.965,2.965,0,0,0,.489,1.828A1.651,1.651,0,0,0,18.053-.832ZM26.343,0a2.467,2.467,0,0,1-.165-.724,2.62,2.62,0,0,1-1.955.851,2.424,2.424,0,0,1-1.666-.574A1.859,1.859,0,0,1,21.906-1.9a1.942,1.942,0,0,1,.816-1.666,3.846,3.846,0,0,1,2.295-.594h1.143V-4.7a1.319,1.319,0,0,0-.368-.981,1.48,1.48,0,0,0-1.085-.365,1.712,1.712,0,0,0-1.054.317.935.935,0,0,0-.425.768H22.045a1.621,1.621,0,0,1,.365-.993,2.491,2.491,0,0,1,.99-.759A3.331,3.331,0,0,1,24.775-7a2.715,2.715,0,0,1,1.86.594,2.141,2.141,0,0,1,.7,1.635v3.161a3.865,3.865,0,0,0,.241,1.5V0ZM24.394-.9a2.064,2.064,0,0,0,1.047-.286,1.728,1.728,0,0,0,.717-.743V-3.333h-.92q-2.158,0-2.158,1.263a1.069,1.069,0,0,0,.368.863A1.415,1.415,0,0,0,24.394-.9ZM30.45,0H29.275V-9.75H30.45ZM33.6,0H32.43V-6.868H33.6Zm-1.27-8.69a.7.7,0,0,1,.175-.482.655.655,0,0,1,.517-.2.666.666,0,0,1,.521.2.694.694,0,0,1,.178.482.671.671,0,0,1-.178.476.678.678,0,0,1-.521.19.667.667,0,0,1-.517-.19A.678.678,0,0,1,32.335-8.69Zm2.863,5.2a4.023,4.023,0,0,1,.749-2.542A2.369,2.369,0,0,1,37.908-7a2.382,2.382,0,0,1,1.911.825V-9.75h1.174V0H39.914l-.057-.736A2.391,2.391,0,0,1,37.9.127,2.346,2.346,0,0,1,35.95-.851,4.069,4.069,0,0,1,35.2-3.4Zm1.174.133a3.046,3.046,0,0,0,.482,1.828,1.56,1.56,0,0,0,1.333.66,1.713,1.713,0,0,0,1.631-1V-5.027A1.726,1.726,0,0,0,38.2-6a1.567,1.567,0,0,0-1.346.667A3.354,3.354,0,0,0,36.372-3.358ZM47.055,0a2.467,2.467,0,0,1-.165-.724,2.62,2.62,0,0,1-1.955.851,2.424,2.424,0,0,1-1.666-.574A1.859,1.859,0,0,1,42.618-1.9a1.942,1.942,0,0,1,.816-1.666,3.846,3.846,0,0,1,2.295-.594h1.143V-4.7a1.319,1.319,0,0,0-.368-.981,1.48,1.48,0,0,0-1.085-.365,1.712,1.712,0,0,0-1.054.317.935.935,0,0,0-.425.768H42.758a1.621,1.621,0,0,1,.365-.993,2.491,2.491,0,0,1,.99-.759A3.331,3.331,0,0,1,45.487-7a2.715,2.715,0,0,1,1.86.594,2.141,2.141,0,0,1,.7,1.635v3.161a3.865,3.865,0,0,0,.241,1.5V0ZM45.106-.9a2.064,2.064,0,0,0,1.047-.286,1.728,1.728,0,0,0,.717-.743V-3.333h-.92q-2.158,0-2.158,1.263a1.069,1.069,0,0,0,.368.863A1.415,1.415,0,0,0,45.106-.9Zm4.494-2.6a4.023,4.023,0,0,1,.749-2.542A2.369,2.369,0,0,1,52.311-7a2.382,2.382,0,0,1,1.911.825V-9.75H55.4V0H54.317L54.26-.736A2.391,2.391,0,0,1,52.3.127a2.346,2.346,0,0,1-1.946-.978A4.069,4.069,0,0,1,49.6-3.4Zm1.174.133a3.046,3.046,0,0,0,.482,1.828,1.56,1.56,0,0,0,1.333.66,1.713,1.713,0,0,0,1.631-1V-5.027A1.726,1.726,0,0,0,52.6-6a1.567,1.567,0,0,0-1.346.667A3.354,3.354,0,0,0,50.775-3.358ZM86.208-1.619l2.641-7.624h1.333L86.753,0H85.674L82.253-9.242H83.58Zm9.839-.8H92.174L91.3,0H90.048l3.529-9.242h1.066L98.179,0h-1.25Zm-3.5-1h3.142L94.11-7.738Zm10.271-.324h-2.171V0H99.417V-9.242h3.06a3.621,3.621,0,0,1,2.4.711,2.558,2.558,0,0,1,.841,2.069,2.488,2.488,0,0,1-.467,1.5,2.785,2.785,0,0,1-1.3.958l2.171,3.923V0h-1.308Zm-2.171-1h1.873a2.112,2.112,0,0,0,1.444-.471,1.591,1.591,0,0,0,.536-1.259,1.676,1.676,0,0,0-.511-1.316,2.164,2.164,0,0,0-1.476-.464h-1.866Zm13.584,1.8A3.4,3.4,0,0,1,113.144-.67a3.547,3.547,0,0,1-2.422.8A3.257,3.257,0,0,1,108.1-1.047a4.724,4.724,0,0,1-.987-3.142v-.889a5.266,5.266,0,0,1,.46-2.266,3.437,3.437,0,0,1,1.3-1.5,3.632,3.632,0,0,1,1.955-.524,3.34,3.34,0,0,1,2.361.822,3.441,3.441,0,0,1,1.035,2.276H113a2.655,2.655,0,0,0-.689-1.6,2.084,2.084,0,0,0-1.482-.5A2.181,2.181,0,0,0,109-7.509a3.966,3.966,0,0,0-.663,2.459v.9a4.077,4.077,0,0,0,.628,2.4,2.031,2.031,0,0,0,1.758.889,2.345,2.345,0,0,0,1.558-.46,2.554,2.554,0,0,0,.72-1.6ZM122.992,0h-1.225V-4.272h-4.659V0h-1.219V-9.242h1.219v3.974h4.659V-9.242h1.225Zm7.382-2.418H126.5L125.633,0h-1.257l3.529-9.242h1.066L132.507,0h-1.25Zm-3.5-1h3.142l-1.574-4.323Zm10.271-.324H134.97V0h-1.225V-9.242h3.06a3.621,3.621,0,0,1,2.4.711,2.558,2.558,0,0,1,.841,2.069,2.488,2.488,0,0,1-.467,1.5,2.785,2.785,0,0,1-1.3.958l2.171,3.923V0h-1.308Zm-2.171-1h1.873a2.112,2.112,0,0,0,1.444-.471,1.591,1.591,0,0,0,.536-1.259,1.676,1.676,0,0,0-.511-1.316,2.164,2.164,0,0,0-1.476-.464H134.97Z" transform="translate(684.644 892.973)"/>
    <path id="Trazado_197411" data-name="Trazado 197411" d="M2.38,0H1.162V-9.242H2.38ZM4.608,0V-9.242H7.217a4.2,4.2,0,0,1,2.133.533,3.606,3.606,0,0,1,1.431,1.517,4.938,4.938,0,0,1,.511,2.26v.59a4.955,4.955,0,0,1-.5,2.292A3.55,3.55,0,0,1,9.347-.54,4.467,4.467,0,0,1,7.167,0ZM5.827-8.246V-1H7.109A2.79,2.79,0,0,0,9.3-1.873a3.622,3.622,0,0,0,.784-2.5v-.54a3.68,3.68,0,0,0-.74-2.449,2.632,2.632,0,0,0-2.1-.886ZM17.9.958H12.086V0H17.9Zm2.317-4.577V0H19V-9.242h3.409a3.425,3.425,0,0,1,2.377.774,2.625,2.625,0,0,1,.86,2.05A2.591,2.591,0,0,1,24.8-4.345a3.578,3.578,0,0,1-2.409.727Zm0-1h2.19a2.19,2.19,0,0,0,1.5-.461,1.686,1.686,0,0,0,.521-1.332,1.742,1.742,0,0,0-.521-1.323,2.051,2.051,0,0,0-1.428-.515h-2.26Zm10.118-1.2a3.519,3.519,0,0,0-.578-.044,1.547,1.547,0,0,0-1.568.984V0H27.016V-6.868h1.143l.019.793A1.829,1.829,0,0,1,29.815-7a1.2,1.2,0,0,1,.521.089ZM30.977-3.5a4.057,4.057,0,0,1,.4-1.815,2.96,2.96,0,0,1,1.1-1.244A3.007,3.007,0,0,1,34.093-7a2.9,2.9,0,0,1,2.269.971,3.736,3.736,0,0,1,.866,2.583v.083a4.092,4.092,0,0,1-.384,1.8,2.916,2.916,0,0,1-1.1,1.241,3.041,3.041,0,0,1-1.641.444,2.889,2.889,0,0,1-2.263-.971,3.718,3.718,0,0,1-.866-2.571Zm1.181.14a2.938,2.938,0,0,0,.53,1.834,1.7,1.7,0,0,0,1.419.692,1.686,1.686,0,0,0,1.422-.7A3.213,3.213,0,0,0,36.055-3.5a2.933,2.933,0,0,0-.536-1.831,1.705,1.705,0,0,0-1.425-.7,1.686,1.686,0,0,0-1.4.692A3.189,3.189,0,0,0,32.157-3.358Zm8.715,1.765,1.7-5.275h1.2L41.311,0h-.9L37.927-6.868h1.2ZM90.81,0H89.584L84.932-7.122V0H83.707V-9.242h1.225L89.6-2.088V-9.242H90.81ZM99.48-9.242v6.284a2.948,2.948,0,0,1-.822,2.139,3.312,3.312,0,0,1-2.212.933l-.324.013A3.459,3.459,0,0,1,93.7-.692a2.929,2.929,0,0,1-.914-2.253v-6.3H94v6.259a2.114,2.114,0,0,0,.552,1.558,2.123,2.123,0,0,0,1.574.555,2.137,2.137,0,0,0,1.584-.552,2.11,2.11,0,0,0,.549-1.555V-9.242Zm3.5,0L106-1.7l3.021-7.541H110.6V0h-1.219V-3.6l.114-3.885L106.463,0h-.933L102.5-7.465l.121,3.866V0H101.4V-9.242ZM112.753,0V-9.242h3.021a3.507,3.507,0,0,1,2.263.622,2.242,2.242,0,0,1,.759,1.841,1.877,1.877,0,0,1-.368,1.146,2.387,2.387,0,0,1-1,.771,2.143,2.143,0,0,1,1.184.8,2.286,2.286,0,0,1,.435,1.4,2.472,2.472,0,0,1-.806,1.955A3.334,3.334,0,0,1,115.959,0Zm1.219-4.323V-1h2.012a1.938,1.938,0,0,0,1.343-.441,1.549,1.549,0,0,0,.492-1.216q0-1.669-1.815-1.669Zm0-.978h1.841a1.93,1.93,0,0,0,1.279-.4,1.344,1.344,0,0,0,.479-1.088,1.321,1.321,0,0,0-.444-1.11,2.182,2.182,0,0,0-1.352-.347h-1.8Zm12.1,1.028h-4.005V-1h4.653V0h-5.872V-9.242h5.808v1h-4.589v2.977h4.005Zm5.554.533h-2.171V0h-1.225V-9.242h3.06a3.621,3.621,0,0,1,2.4.711,2.558,2.558,0,0,1,.841,2.069,2.488,2.488,0,0,1-.467,1.5,2.785,2.785,0,0,1-1.3.958l2.171,3.923V0h-1.308Zm-2.171-1h1.873a2.112,2.112,0,0,0,1.444-.471,1.591,1.591,0,0,0,.536-1.259,1.676,1.676,0,0,0-.511-1.316,2.164,2.164,0,0,0-1.476-.464h-1.866Z" transform="translate(684.644 919.334)"/>
    <path id="Trazado_197412" data-name="Trazado 197412" d="M6.17-4.082H2.292V0H1.073V-9.242H6.8v1H2.292v3.167H6.17ZM10.607-4.3,9.477-3.123V0H8.258V-9.242H9.477v4.57l4.107-4.57h1.473L11.419-5.161,15.342,0h-1.46ZM21.176.958H15.361V0h5.814ZM23.582,0H22.363V-9.242h1.219ZM25.81,0V-9.242h2.609a4.2,4.2,0,0,1,2.133.533,3.606,3.606,0,0,1,1.431,1.517,4.938,4.938,0,0,1,.511,2.26v.59a4.955,4.955,0,0,1-.5,2.292A3.55,3.55,0,0,1,30.548-.54a4.467,4.467,0,0,1-2.18.54Zm1.219-8.246V-1h1.282A2.79,2.79,0,0,0,30.5-1.873a3.622,3.622,0,0,0,.784-2.5v-.54a3.68,3.68,0,0,0-.74-2.449,2.632,2.632,0,0,0-2.1-.886ZM39.1.958H33.287V0H39.1Zm2.317-4.577V0H40.2V-9.242h3.409a3.425,3.425,0,0,1,2.377.774,2.625,2.625,0,0,1,.86,2.05A2.591,2.591,0,0,1,46-4.345a3.578,3.578,0,0,1-2.409.727Zm0-1h2.19a2.19,2.19,0,0,0,1.5-.461,1.686,1.686,0,0,0,.521-1.332,1.742,1.742,0,0,0-.521-1.323,2.051,2.051,0,0,0-1.428-.515h-2.26Zm10.118-1.2a3.519,3.519,0,0,0-.578-.044,1.547,1.547,0,0,0-1.568.984V0H48.217V-6.868h1.143l.019.793A1.829,1.829,0,0,1,51.016-7a1.2,1.2,0,0,1,.521.089ZM52.178-3.5a4.057,4.057,0,0,1,.4-1.815,2.96,2.96,0,0,1,1.1-1.244A3.007,3.007,0,0,1,55.294-7a2.9,2.9,0,0,1,2.269.971A3.736,3.736,0,0,1,58.43-3.44v.083a4.092,4.092,0,0,1-.384,1.8,2.916,2.916,0,0,1-1.1,1.241,3.041,3.041,0,0,1-1.641.444,2.889,2.889,0,0,1-2.263-.971,3.718,3.718,0,0,1-.866-2.571Zm1.181.14a2.938,2.938,0,0,0,.53,1.834,1.7,1.7,0,0,0,1.419.692,1.686,1.686,0,0,0,1.422-.7A3.213,3.213,0,0,0,57.256-3.5a2.933,2.933,0,0,0-.536-1.831,1.705,1.705,0,0,0-1.425-.7,1.686,1.686,0,0,0-1.4.692A3.189,3.189,0,0,0,53.358-3.358Zm8.715,1.765,1.7-5.275h1.2L62.512,0h-.9L59.128-6.868h1.2Z" transform="translate(488.973 843.975)"/>
    <path id="Trazado_197413" data-name="Trazado 197413" d="M4.627,0H3.447V-7.827l-2.368.87V-8.023L4.443-9.287h.184Z" transform="translate(415.945 857.425)"/>
    <path id="Trazado_197414" data-name="Trazado 197414" d="M6.17-4.082H2.292V0H1.073V-9.242H6.8v1H2.292v3.167H6.17ZM10.607-4.3,9.477-3.123V0H8.258V-9.242H9.477v4.57l4.107-4.57h1.473L11.419-5.161,15.342,0h-1.46ZM21.176.958H15.361V0h5.814ZM23.582,0H22.363V-9.242h1.219ZM25.81,0V-9.242h2.609a4.2,4.2,0,0,1,2.133.533,3.606,3.606,0,0,1,1.431,1.517,4.938,4.938,0,0,1,.511,2.26v.59a4.955,4.955,0,0,1-.5,2.292A3.55,3.55,0,0,1,30.548-.54a4.467,4.467,0,0,1-2.18.54Zm1.219-8.246V-1h1.282A2.79,2.79,0,0,0,30.5-1.873a3.622,3.622,0,0,0,.784-2.5v-.54a3.68,3.68,0,0,0-.74-2.449,2.632,2.632,0,0,0-2.1-.886ZM39.1.958H33.287V0H39.1ZM41.425-1H45.8V0H40.2V-9.242h1.225ZM46.7-3.5a4.057,4.057,0,0,1,.4-1.815,2.96,2.96,0,0,1,1.1-1.244A3.007,3.007,0,0,1,49.816-7a2.9,2.9,0,0,1,2.269.971,3.736,3.736,0,0,1,.866,2.583v.083a4.092,4.092,0,0,1-.384,1.8,2.916,2.916,0,0,1-1.1,1.241,3.041,3.041,0,0,1-1.641.444,2.889,2.889,0,0,1-2.263-.971A3.718,3.718,0,0,1,46.7-3.415Zm1.181.14a2.938,2.938,0,0,0,.53,1.834,1.7,1.7,0,0,0,1.419.692,1.686,1.686,0,0,0,1.422-.7A3.213,3.213,0,0,0,51.778-3.5a2.933,2.933,0,0,0-.536-1.831,1.705,1.705,0,0,0-1.425-.7,1.686,1.686,0,0,0-1.4.692A3.189,3.189,0,0,0,47.88-3.358Zm9.3,2.526a1.692,1.692,0,0,0,1.1-.381,1.34,1.34,0,0,0,.521-.952h1.111A2.13,2.13,0,0,1,59.5-1.041a2.676,2.676,0,0,1-1,.851A2.885,2.885,0,0,1,57.18.127a2.829,2.829,0,0,1-2.231-.936,3.729,3.729,0,0,1-.828-2.561v-.2a4.135,4.135,0,0,1,.368-1.784,2.8,2.8,0,0,1,1.057-1.212A3,3,0,0,1,57.173-7a2.755,2.755,0,0,1,1.92.692,2.473,2.473,0,0,1,.816,1.8H58.8a1.618,1.618,0,0,0-.5-1.095,1.57,1.57,0,0,0-1.12-.428,1.644,1.644,0,0,0-1.387.644,3.026,3.026,0,0,0-.492,1.863V-3.3a2.965,2.965,0,0,0,.489,1.828A1.651,1.651,0,0,0,57.18-.832ZM65.47,0A2.467,2.467,0,0,1,65.3-.724,2.62,2.62,0,0,1,63.35.127a2.424,2.424,0,0,1-1.666-.574A1.859,1.859,0,0,1,61.033-1.9a1.942,1.942,0,0,1,.816-1.666,3.846,3.846,0,0,1,2.295-.594h1.143V-4.7a1.319,1.319,0,0,0-.368-.981,1.48,1.48,0,0,0-1.085-.365,1.712,1.712,0,0,0-1.054.317.935.935,0,0,0-.425.768H61.172a1.621,1.621,0,0,1,.365-.993,2.491,2.491,0,0,1,.99-.759A3.331,3.331,0,0,1,63.9-7a2.715,2.715,0,0,1,1.86.594,2.141,2.141,0,0,1,.7,1.635v3.161A3.865,3.865,0,0,0,66.7-.1V0ZM63.521-.9a2.064,2.064,0,0,0,1.047-.286,1.728,1.728,0,0,0,.717-.743V-3.333h-.92q-2.158,0-2.158,1.263a1.069,1.069,0,0,0,.368.863A1.415,1.415,0,0,0,63.521-.9Zm6.056.9H68.4V-9.75h1.174Zm3.155,0H71.557V-6.868h1.174Zm-1.27-8.69a.7.7,0,0,1,.175-.482.655.655,0,0,1,.517-.2.666.666,0,0,1,.521.2.694.694,0,0,1,.178.482.671.671,0,0,1-.178.476.678.678,0,0,1-.521.19.667.667,0,0,1-.517-.19A.678.678,0,0,1,71.462-8.69Zm2.863,5.2a4.023,4.023,0,0,1,.749-2.542A2.369,2.369,0,0,1,77.035-7a2.382,2.382,0,0,1,1.911.825V-9.75H80.12V0H79.041l-.057-.736a2.391,2.391,0,0,1-1.961.863,2.346,2.346,0,0,1-1.946-.978A4.069,4.069,0,0,1,74.325-3.4Zm1.174.133a3.046,3.046,0,0,0,.482,1.828,1.56,1.56,0,0,0,1.333.66,1.713,1.713,0,0,0,1.631-1V-5.027A1.726,1.726,0,0,0,77.327-6a1.567,1.567,0,0,0-1.346.667A3.354,3.354,0,0,0,75.5-3.358ZM86.182,0a2.467,2.467,0,0,1-.165-.724,2.62,2.62,0,0,1-1.955.851A2.424,2.424,0,0,1,82.4-.448,1.859,1.859,0,0,1,81.745-1.9a1.942,1.942,0,0,1,.816-1.666,3.846,3.846,0,0,1,2.295-.594H86V-4.7a1.319,1.319,0,0,0-.368-.981,1.48,1.48,0,0,0-1.085-.365,1.712,1.712,0,0,0-1.054.317.935.935,0,0,0-.425.768H81.885a1.621,1.621,0,0,1,.365-.993,2.491,2.491,0,0,1,.99-.759A3.331,3.331,0,0,1,84.614-7a2.715,2.715,0,0,1,1.86.594,2.141,2.141,0,0,1,.7,1.635v3.161a3.865,3.865,0,0,0,.241,1.5V0ZM84.233-.9a2.064,2.064,0,0,0,1.047-.286A1.728,1.728,0,0,0,86-1.923V-3.333h-.92q-2.158,0-2.158,1.263a1.069,1.069,0,0,0,.368.863A1.415,1.415,0,0,0,84.233-.9Zm4.494-2.6a4.023,4.023,0,0,1,.749-2.542A2.369,2.369,0,0,1,91.438-7a2.382,2.382,0,0,1,1.911.825V-9.75h1.174V0H93.444l-.057-.736a2.391,2.391,0,0,1-1.961.863A2.346,2.346,0,0,1,89.48-.851,4.069,4.069,0,0,1,88.728-3.4Zm1.174.133a3.046,3.046,0,0,0,.482,1.828,1.56,1.56,0,0,0,1.333.66,1.713,1.713,0,0,0,1.631-1V-5.027A1.726,1.726,0,0,0,91.73-6a1.567,1.567,0,0,0-1.346.667A3.354,3.354,0,0,0,89.9-3.358Z" transform="translate(924.245 843.975)"/>
    <path id="Trazado_197415" data-name="Trazado 197415" d="M4.627,0H3.447V-7.827l-2.368.87V-8.023L4.443-9.287h.184Z" transform="translate(871.41 857.425)"/>
    <path id="Trazado_197416" data-name="Trazado 197416" d="M2.292-3.618V0H1.073V-9.242H4.481a3.425,3.425,0,0,1,2.377.774,2.625,2.625,0,0,1,.86,2.05,2.591,2.591,0,0,1-.841,2.073,3.578,3.578,0,0,1-2.409.727Zm0-1h2.19a2.19,2.19,0,0,0,1.5-.461A1.686,1.686,0,0,0,6.5-6.408a1.742,1.742,0,0,0-.521-1.323,2.051,2.051,0,0,0-1.428-.515H2.292Zm10.118-1.2a3.519,3.519,0,0,0-.578-.044,1.547,1.547,0,0,0-1.568.984V0H9.09V-6.868h1.143l.019.793A1.829,1.829,0,0,1,11.889-7a1.2,1.2,0,0,1,.521.089ZM13.051-3.5a4.057,4.057,0,0,1,.4-1.815,2.96,2.96,0,0,1,1.1-1.244A3.007,3.007,0,0,1,16.167-7a2.9,2.9,0,0,1,2.269.971A3.736,3.736,0,0,1,19.3-3.44v.083a4.092,4.092,0,0,1-.384,1.8,2.916,2.916,0,0,1-1.1,1.241A3.041,3.041,0,0,1,16.18.127a2.889,2.889,0,0,1-2.263-.971,3.718,3.718,0,0,1-.866-2.571Zm1.181.14a2.938,2.938,0,0,0,.53,1.834,1.7,1.7,0,0,0,1.419.692,1.686,1.686,0,0,0,1.422-.7A3.213,3.213,0,0,0,18.129-3.5a2.933,2.933,0,0,0-.536-1.831,1.705,1.705,0,0,0-1.425-.7,1.686,1.686,0,0,0-1.4.692A3.189,3.189,0,0,0,14.231-3.358Zm8.715,1.765,1.7-5.275h1.2L23.385,0h-.9L20-6.868h1.2ZM28.253,0H27.079V-6.868h1.174Zm-1.27-8.69a.7.7,0,0,1,.175-.482.655.655,0,0,1,.517-.2.666.666,0,0,1,.521.2.694.694,0,0,1,.178.482.671.671,0,0,1-.178.476.678.678,0,0,1-.521.19.667.667,0,0,1-.517-.19A.678.678,0,0,1,26.984-8.69Zm4.259,1.822L31.281-6A2.5,2.5,0,0,1,33.338-7q2.177,0,2.2,2.457V0H34.36V-4.545a1.581,1.581,0,0,0-.34-1.1A1.361,1.361,0,0,0,32.982-6a1.7,1.7,0,0,0-1,.3,2.069,2.069,0,0,0-.673.8V0H30.132V-6.868ZM40.06-.832a1.692,1.692,0,0,0,1.1-.381,1.34,1.34,0,0,0,.521-.952H42.79a2.13,2.13,0,0,1-.406,1.124,2.676,2.676,0,0,1-1,.851A2.885,2.885,0,0,1,40.06.127a2.829,2.829,0,0,1-2.231-.936A3.729,3.729,0,0,1,37-3.371v-.2a4.135,4.135,0,0,1,.368-1.784,2.8,2.8,0,0,1,1.057-1.212A3,3,0,0,1,40.054-7a2.755,2.755,0,0,1,1.92.692,2.473,2.473,0,0,1,.816,1.8H41.679a1.618,1.618,0,0,0-.5-1.095,1.57,1.57,0,0,0-1.12-.428,1.644,1.644,0,0,0-1.387.644,3.026,3.026,0,0,0-.492,1.863V-3.3a2.965,2.965,0,0,0,.489,1.828A1.651,1.651,0,0,0,40.06-.832ZM45.386,0H44.211V-6.868h1.174Zm-1.27-8.69a.7.7,0,0,1,.175-.482.655.655,0,0,1,.517-.2.666.666,0,0,1,.521.2.694.694,0,0,1,.178.482.671.671,0,0,1-.178.476.678.678,0,0,1-.521.19.667.667,0,0,1-.517-.19A.678.678,0,0,1,44.116-8.69ZM51.5,0a2.467,2.467,0,0,1-.165-.724,2.62,2.62,0,0,1-1.955.851,2.424,2.424,0,0,1-1.666-.574A1.859,1.859,0,0,1,47.068-1.9a1.942,1.942,0,0,1,.816-1.666,3.846,3.846,0,0,1,2.295-.594h1.143V-4.7a1.319,1.319,0,0,0-.368-.981,1.48,1.48,0,0,0-1.085-.365,1.712,1.712,0,0,0-1.054.317.935.935,0,0,0-.425.768H47.208a1.621,1.621,0,0,1,.365-.993,2.491,2.491,0,0,1,.99-.759A3.331,3.331,0,0,1,49.937-7,2.715,2.715,0,0,1,51.8-6.4a2.141,2.141,0,0,1,.7,1.635v3.161a3.865,3.865,0,0,0,.241,1.5V0ZM49.556-.9A2.064,2.064,0,0,0,50.6-1.181a1.728,1.728,0,0,0,.717-.743V-3.333H50.4q-2.158,0-2.158,1.263a1.069,1.069,0,0,0,.368.863A1.415,1.415,0,0,0,49.556-.9Zm24.115-.724,2.641-7.624h1.333L74.217,0H73.138L69.716-9.242h1.327Zm9.839-.8H79.638L78.768,0H77.511l3.529-9.242h1.066L85.643,0h-1.25Zm-3.5-1h3.142L81.574-7.738Zm10.271-.324H88.105V0H86.88V-9.242h3.06a3.621,3.621,0,0,1,2.4.711,2.558,2.558,0,0,1,.841,2.069,2.488,2.488,0,0,1-.467,1.5,2.785,2.785,0,0,1-1.3.958L93.59-.076V0H92.282Zm-2.171-1h1.873a2.112,2.112,0,0,0,1.444-.471,1.591,1.591,0,0,0,.536-1.259,1.676,1.676,0,0,0-.511-1.316,2.164,2.164,0,0,0-1.476-.464H88.105Zm13.584,1.8A3.4,3.4,0,0,1,100.607-.67a3.547,3.547,0,0,1-2.422.8,3.257,3.257,0,0,1-2.625-1.174,4.724,4.724,0,0,1-.987-3.142v-.889a5.266,5.266,0,0,1,.46-2.266,3.437,3.437,0,0,1,1.3-1.5,3.632,3.632,0,0,1,1.955-.524,3.34,3.34,0,0,1,2.361.822,3.441,3.441,0,0,1,1.035,2.276h-1.225a2.655,2.655,0,0,0-.689-1.6,2.084,2.084,0,0,0-1.482-.5,2.181,2.181,0,0,0-1.831.864A3.966,3.966,0,0,0,95.8-5.05v.9a4.077,4.077,0,0,0,.628,2.4,2.031,2.031,0,0,0,1.758.889,2.345,2.345,0,0,0,1.558-.46,2.554,2.554,0,0,0,.72-1.6ZM110.456,0H109.23V-4.272h-4.659V0h-1.219V-9.242h1.219v3.974h4.659V-9.242h1.225Zm7.382-2.418h-3.872L113.1,0h-1.257l3.529-9.242h1.066L119.971,0h-1.25Zm-3.5-1h3.142L115.9-7.738ZM124.6-3.739h-2.171V0h-1.225V-9.242h3.06a3.621,3.621,0,0,1,2.4.711,2.558,2.558,0,0,1,.841,2.069,2.488,2.488,0,0,1-.467,1.5,2.785,2.785,0,0,1-1.3.958l2.171,3.923V0H126.61Zm-2.171-1h1.873a2.112,2.112,0,0,0,1.444-.471,1.591,1.591,0,0,0,.536-1.259,1.676,1.676,0,0,0-.511-1.316,2.164,2.164,0,0,0-1.476-.464h-1.866Z" transform="translate(226.647 897.057)"/>
    <path id="Trazado_197417" data-name="Trazado 197417" d="M0,0H236.261V4.8H0Z" transform="translate(861.802 865.443)" fill="#0f2771"/>
    <path id="Trazado_195465" data-name="Trazado 195465" d="M-1478.509,1119.039l-15.464-8.928v17.857Z" transform="translate(2592.037 -251.194)" fill="#0f2771"/>
    <path id="Trazado_197418" data-name="Trazado 197418" d="M0,0H236.261V4.8H0Z" transform="translate(402.492 865.443)" fill="#0f2771"/>
    <path id="Trazado_195465-2" data-name="Trazado 195465" d="M-1478.509,1119.039l-15.464-8.928v17.857Z" transform="translate(2132.727 -251.194)" fill="#0f2771"/>
    <path id="Trazado_197419" data-name="Trazado 197419" d="M3.5,0C5.433,0,7,.9,7,2S5.433,4,3.5,4,0,3.1,0,2,1.567,0,3.5,0Z" transform="translate(211 860)" fill="#4dd0e1"/>
    <path id="Trazado_197420" data-name="Trazado 197420" d="M3.5,0A3.5,3.5,0,1,1,0,3.5,3.5,3.5,0,0,1,3.5,0Z" transform="translate(211 892)" fill="#4dd0e1"/>
    <path id="Trazado_197421" data-name="Trazado 197421" d="M3.5,0A3.5,3.5,0,1,1,0,3.5,3.5,3.5,0,0,1,3.5,0Z" transform="translate(669 861)" fill="#4dd0e1"/>
    <path id="Trazado_197422" data-name="Trazado 197422" d="M3.5,0A3.279,3.279,0,0,1,7,3,3.279,3.279,0,0,1,3.5,6,3.279,3.279,0,0,1,0,3,3.279,3.279,0,0,1,3.5,0Z" transform="translate(669 888)" fill="#4dd0e1"/>
    <path id="Trazado_197423" data-name="Trazado 197423" d="M2.5,0A2.5,2.5,0,1,1,0,2.5,2.5,2.5,0,0,1,2.5,0Z" transform="translate(1131 870)" fill="#4dd0e1"/>
    <path id="Trazado_197424" data-name="Trazado 197424" d="M2.5,0A2.784,2.784,0,0,1,5,3,2.784,2.784,0,0,1,2.5,6,2.784,2.784,0,0,1,0,3,2.784,2.784,0,0,1,2.5,0Z" transform="translate(1131 900)" fill="#4dd0e1"/>
    <path id="Trazado_197425" data-name="Trazado 197425" d="M2.5,0A2.784,2.784,0,0,1,5,3,2.784,2.784,0,0,1,2.5,6,2.784,2.784,0,0,1,0,3,2.784,2.784,0,0,1,2.5,0Z" transform="translate(1131 931)" fill="#4dd0e1"/>
    <path id="Trazado_197426" data-name="Trazado 197426" d="M2.5,0C3.881,0,5,1.567,5,3.5S3.881,7,2.5,7,0,5.433,0,3.5,1.119,0,2.5,0Z" transform="translate(1131 961)" fill="#4dd0e1"/>
    <path id="Trazado_197427" data-name="Trazado 197427" d="M2.5,0A2.5,2.5,0,1,1,0,2.5,2.5,2.5,0,0,1,2.5,0Z" transform="translate(1131 993)" fill="#4dd0e1"/>
    <path id="Trazado_197428" data-name="Trazado 197428" d="M2.5,0A2.784,2.784,0,0,1,5,3,2.784,2.784,0,0,1,2.5,6,2.784,2.784,0,0,1,0,3,2.784,2.784,0,0,1,2.5,0Z" transform="translate(1131 1023)" fill="#4dd0e1"/>
    <path id="Trazado_197429" data-name="Trazado 197429" d="M2.5,0A2.5,2.5,0,1,1,0,2.5,2.5,2.5,0,0,1,2.5,0Z" transform="translate(1131 1054)" fill="#4dd0e1"/>
    <path id="Trazado_197430" data-name="Trazado 197430" d="M2.5,0C3.881,0,5,1.567,5,3.5S3.881,7,2.5,7,0,5.433,0,3.5,1.119,0,2.5,0Z" transform="translate(1131 1084)" fill="#4dd0e1"/>
    <path id="Trazado_197431" data-name="Trazado 197431" d="M3.5,0A3.5,3.5,0,1,1,0,3.5,3.5,3.5,0,0,1,3.5,0Z" transform="translate(669 915)" fill="#4dd0e1"/>
  </g>
</svg>
