<svg xmlns="http://www.w3.org/2000/svg" width="262" height="208.299" viewBox="0 0 262 208.299">
  <g id="Group_139398" data-name="Group 139398" transform="translate(-717.791 -478.695)">
    <circle id="Ellipse_5151" data-name="Ellipse 5151" cx="92.528" cy="92.528" r="92.528" transform="translate(755.454 478.695)" fill="#0f2771"/>
    <g id="Group_139287" data-name="Group 139287" transform="translate(719.706 563.248)">
      <g id="Group_139279" data-name="Group 139279" transform="translate(0)">
        <rect id="Rectangle_42995" data-name="Rectangle 42995" width="60.861" height="21.247" rx="10.624" transform="translate(0.21 0.21)" fill="#f9f9f9"/>
        <path id="Path_195726" data-name="Path 195726" d="M795.541,1705.689H755.927a10.834,10.834,0,0,1,0-21.668h39.614a10.834,10.834,0,0,1,0,21.668Zm-39.614-21.247a10.413,10.413,0,0,0,0,20.826h39.614a10.413,10.413,0,0,0,0-20.826Z" transform="translate(-745.093 -1684.021)" fill="#292929"/>
      </g>
      <circle id="Ellipse_5152" data-name="Ellipse 5152" cx="6.942" cy="6.942" r="6.942" transform="translate(3.297 10.834) rotate(-45)" fill="#feca2e"/>
      <g id="Group_139282" data-name="Group 139282" transform="translate(9.631 7.486)">
        <g id="Group_139280" data-name="Group 139280">
          <circle id="Ellipse_5153" data-name="Ellipse 5153" cx="2.455" cy="2.455" r="2.455" transform="translate(0.21 0.21)" fill="#f9f9f9"/>
          <path id="Path_195727" data-name="Path 195727" d="M885.058,1796.07a2.666,2.666,0,1,1,2.666-2.666A2.669,2.669,0,0,1,885.058,1796.07Zm0-4.91a2.245,2.245,0,1,0,2.245,2.245A2.247,2.247,0,0,0,885.058,1791.16Z" transform="translate(-882.392 -1790.739)" fill="#292929"/>
        </g>
        <g id="Group_139281" data-name="Group 139281" transform="translate(4.44 4.17)">
          <path id="Path_195728" data-name="Path 195728" d="M948,1852.715a.21.21,0,0,1-.149-.062l-2.1-2.1a.21.21,0,0,1,.3-.3l2.1,2.1a.21.21,0,0,1-.149.359Z" transform="translate(-945.685 -1850.19)" fill="#292929"/>
        </g>
      </g>
      <g id="Group_139286" data-name="Group 139286" transform="translate(25.796 5.967)">
        <g id="Group_139283" data-name="Group 139283">
          <path id="Path_195729" data-name="Path 195729" d="M1115.821,1772.081h0Z" transform="translate(-1115.611 -1771.871)" fill="#f9f9f9"/>
          <path id="Path_195730" data-name="Path 195730" d="M1139.758,1769.5h-26.727a.21.21,0,0,1,0-.421h26.727a.21.21,0,0,1,0,.421Z" transform="translate(-1112.821 -1769.081)" fill="#292929"/>
        </g>
        <g id="Group_139284" data-name="Group 139284" transform="translate(0 4.227)">
          <path id="Path_195731" data-name="Path 195731" d="M1115.821,1832.332h0Z" transform="translate(-1115.611 -1832.122)" fill="#f9f9f9"/>
          <path id="Path_195732" data-name="Path 195732" d="M1139.758,1829.753h-26.727a.21.21,0,0,1,0-.421h26.727a.21.21,0,0,1,0,.421Z" transform="translate(-1112.821 -1829.332)" fill="#292929"/>
        </g>
        <g id="Group_139285" data-name="Group 139285" transform="translate(0 8.453)">
          <path id="Path_195733" data-name="Path 195733" d="M1115.821,1892.582h0Z" transform="translate(-1115.611 -1892.372)" fill="#f9f9f9"/>
          <path id="Path_195734" data-name="Path 195734" d="M1127.824,1890h-14.793a.21.21,0,0,1,0-.421h14.793a.21.21,0,0,1,0,.421Z" transform="translate(-1112.821 -1889.582)" fill="#292929"/>
        </g>
      </g>
    </g>
    <g id="Group_139291" data-name="Group 139291" transform="translate(917.587 571.877)">
      <g id="Group_139288" data-name="Group 139288" transform="translate(2.865 2.336)">
        <path id="Path_195735" data-name="Path 195735" d="M3655.657,1861.326h-38.349a10.495,10.495,0,0,1,0-20.99h38.349a10.495,10.495,0,1,1,0,20.99Zm-38.349-20.569a10.074,10.074,0,0,0,0,20.148h38.349a10.074,10.074,0,1,0,0-20.148Z" transform="translate(-3606.813 -1840.336)" fill="#292929"/>
      </g>
      <g id="Group_139289" data-name="Group 139289">
        <rect id="Rectangle_42996" data-name="Rectangle 42996" width="58.918" height="20.569" rx="10.284" transform="translate(0.21 0.21)" fill="#f9f9f9"/>
        <path id="Path_195736" data-name="Path 195736" d="M3614.812,1828.022h-38.349a10.495,10.495,0,0,1,0-20.99h38.349a10.495,10.495,0,0,1,0,20.99Zm-38.349-20.569a10.074,10.074,0,0,0,0,20.148h38.349a10.074,10.074,0,0,0,0-20.148Z" transform="translate(-3565.968 -1807.032)" fill="#292929"/>
      </g>
      <g id="Group_139290" data-name="Group 139290" transform="translate(12.907 6.507)">
        <path id="Path_195737" data-name="Path 195737" d="M3750.2,1905.688a3.093,3.093,0,0,0,1.586.446c.908,0,1.442-.474,1.442-1.171,0-.637-.373-1.013-1.3-1.36-1.122-.4-1.818-.988-1.818-1.95a1.981,1.981,0,0,1,2.229-1.864,3.149,3.149,0,0,1,1.517.332l-.248.728a2.612,2.612,0,0,0-1.3-.326c-.944,0-1.3.56-1.3,1.028,0,.638.418.953,1.367,1.32,1.166.458,1.753,1.017,1.753,2.025,0,1.054-.777,1.982-2.406,1.982a3.52,3.52,0,0,1-1.756-.448Z" transform="translate(-3749.969 -1899.788)" fill="#292929"/>
        <path id="Path_195738" data-name="Path 195738" d="M3830.171,1904.966h-2.665v2.483h2.981v.74h-3.874v-6.875h3.716v.74h-2.824v2.177h2.665Z" transform="translate(-3821.237 -1901.207)" fill="#292929"/>
        <path id="Path_195739" data-name="Path 195739" d="M3892.433,1906.028l-.71,2.161h-.921l2.338-6.875h1.068l2.348,6.875h-.95l-.736-2.161Zm2.258-.694-.681-1.979c-.149-.45-.252-.859-.354-1.254h-.024c-.1.4-.206.822-.341,1.242l-.677,1.99Z" transform="translate(-3880.922 -1901.207)" fill="#292929"/>
        <path id="Path_195740" data-name="Path 195740" d="M3987.132,1900.7a9.394,9.394,0,0,1,1.708-.148,2.835,2.835,0,0,1,1.992.566,1.72,1.72,0,0,1,.539,1.307,1.815,1.815,0,0,1-1.3,1.752v.025a1.742,1.742,0,0,1,1.008,1.392,11.557,11.557,0,0,0,.529,1.887h-.921a9.136,9.136,0,0,1-.451-1.646c-.2-.941-.576-1.306-1.38-1.333h-.84v2.979h-.887Zm.887,3.129h.907c.95,0,1.552-.517,1.552-1.305,0-.893-.644-1.281-1.58-1.282a3.864,3.864,0,0,0-.879.078Z" transform="translate(-3970.495 -1900.498)" fill="#292929"/>
        <path id="Path_195741" data-name="Path 195741" d="M4065.287,1906.549a4.412,4.412,0,0,1-1.817.328,3.21,3.21,0,0,1-3.389-3.482,3.412,3.412,0,0,1,3.589-3.607,3.721,3.721,0,0,1,1.631.3l-.219.723a3.27,3.27,0,0,0-1.383-.283,2.555,2.555,0,0,0-2.681,2.836,2.492,2.492,0,0,0,2.634,2.757,3.61,3.61,0,0,0,1.456-.282Z" transform="translate(-4038.327 -1899.788)" fill="#292929"/>
        <path id="Path_195742" data-name="Path 195742" d="M4151.012,1901.314v2.879h3.323v-2.879h.893v6.875h-.893v-3.225h-3.323v3.225h-.893v-6.875Z" transform="translate(-4122.049 -1901.207)" fill="#292929"/>
      </g>
    </g>
    <g id="Group_139373" data-name="Group 139373" transform="translate(754.521 482.416)">
      <path id="Path_195743" data-name="Path 195743" d="M2306.813,543.815s4.8-3.963,10.977,2.734c2.982,3.235,3.3,8.819,9.42,16.751,3.088,4,10.5,7.493,14.7,13.838a9.378,9.378,0,0,1-1.119,11.752c-3.833,3.893-10.44,8.08-21.088,7.991a31.212,31.212,0,0,1-27.5-15.92l8.832-33.118S2305.5,543.912,2306.813,543.815Z" transform="translate(-2218.493 -541.885)" fill="#292929"/>
      <path id="Path_195744" data-name="Path 195744" d="M1860.11,994.534s.612-3.253,12.229-2.77l-5.106,11.845Z" transform="translate(-1816.707 -959.448)" fill="#292929"/>
      <g id="Group_139299" data-name="Group 139299" transform="translate(81.709 4.665)">
        <g id="Group_139293" data-name="Group 139293" transform="translate(5.22 12.302)">
          <g id="Group_139292" data-name="Group 139292">
            <path id="Path_195745" data-name="Path 195745" d="M2495.331,790.012c-.1-.272-2.452-12.357-2.741-13.251s-8.991,4.725-8.991,4.725,1.162,9.112,1.583,10.659C2487.188,799.536,2495.331,790.012,2495.331,790.012Z" transform="translate(-2483.387 -776.45)" fill="#f9f9f9"/>
            <path id="Path_195746" data-name="Path 195746" d="M2485.2,792.312a2.816,2.816,0,0,1-.619-.066c-1.134-.255-1.939-1.23-2.392-2.9-.419-1.544-1.541-10.315-1.588-10.688a.21.21,0,0,1,.095-.2c.02-.013,2.019-1.3,4.107-2.533,4.3-2.537,4.781-2.366,4.985-2.294a.335.335,0,0,1,.213.214c.178.55,1.094,5.12,1.83,8.793.443,2.212.862,4.3.91,4.454a.2.2,0,0,1-.039.206C2492.515,787.512,2488.373,792.312,2485.2,792.312Zm-4.165-13.574c.145,1.126,1.175,9.084,1.56,10.5.409,1.506,1.108,2.38,2.078,2.6,2.778.625,7.038-4.053,7.639-4.732-.092-.4-.351-1.68-.893-4.384-.678-3.382-1.6-7.982-1.8-8.7-.172-.011-.989.137-4.608,2.27C2483.21,777.349,2481.482,778.45,2481.034,778.737Z" transform="translate(-2480.598 -773.596)" fill="#292929"/>
          </g>
          <path id="Path_195747" data-name="Path 195747" d="M2491,824.252s-.988,3.342-7.129,7.174l-.8-6.111Z" transform="translate(-2482.891 -820.699)" fill="#292929"/>
        </g>
        <g id="Group_139298" data-name="Group 139298">
          <path id="Path_195748" data-name="Path 195748" d="M2422.193,602.573c.221,1.3-1,1.573-1.206,3.057-.412,2.984-.222,7.065-.5,7.646-.548,1.16-9.9,8.931-13.416,4.412-1.712-2.2-.636-12.49.558-15.683a2.92,2.92,0,0,1,.391-.771c2.047-2.535,2.489-3.028,5.749-3.006a18.159,18.159,0,0,1,5.015.637A11.593,11.593,0,0,1,2422.193,602.573Z" transform="translate(-2406.184 -598.226)" fill="#f9f9f9"/>
          <g id="Group_139294" data-name="Group 139294" transform="translate(2.553 14.252)">
            <path id="Path_195749" data-name="Path 195749" d="M2443.539,802.676a2.286,2.286,0,0,1-.819-.153.21.21,0,1,1,.15-.393,2.413,2.413,0,0,0,2.433-.679.21.21,0,1,1,.293.3A3.152,3.152,0,0,1,2443.539,802.676Z" transform="translate(-2442.584 -801.392)" fill="#292929"/>
          </g>
          <g id="Group_139295" data-name="Group 139295" transform="translate(1.731 8.352)">
            <path id="Path_195750" data-name="Path 195750" d="M2431.9,722.572a.21.21,0,0,1-.141-.054,3.71,3.71,0,0,1-.852-1.193.8.8,0,0,1,.141-.807l.012-.013.975-.956-.131-2.034a.21.21,0,1,1,.42-.027l.137,2.13a.211.211,0,0,1-.063.164l-1.037,1.016a.381.381,0,0,0-.061.377,3.261,3.261,0,0,0,.74,1.029.21.21,0,0,1-.141.367Z" transform="translate(-2430.854 -717.291)" fill="#292929"/>
          </g>
          <path id="Path_195751" data-name="Path 195751" d="M2494.274,727.417c-.006.414-.214.746-.464.743s-.45-.342-.444-.755.214-.746.465-.743S2494.28,727,2494.274,727.417Z" transform="translate(-2487.25 -717.652)" fill="#292929"/>
          <path id="Path_195752" data-name="Path 195752" d="M2421.168,726.413c-.005.414-.213.746-.464.743s-.45-.342-.444-.755.214-.746.465-.743S2421.174,726,2421.168,726.413Z" transform="translate(-2419.272 -716.719)" fill="#292929"/>
          <g id="Group_139296" data-name="Group 139296" transform="translate(4.909 7.088)">
            <path id="Path_195753" data-name="Path 195753" d="M2479.671,700.185a.208.208,0,0,1-.088-.019,5.774,5.774,0,0,0-3.172-.405.21.21,0,0,1-.083-.413,6.1,6.1,0,0,1,3.43.436.21.21,0,0,1-.088.4Z" transform="translate(-2476.16 -699.269)" fill="#292929"/>
          </g>
          <g id="Group_139297" data-name="Group 139297" transform="translate(0.773 7.123)">
            <path id="Path_195754" data-name="Path 195754" d="M2417.409,700.326a.21.21,0,0,1-.083-.4,4.367,4.367,0,0,1,1.318-.158.21.21,0,0,1,0,.421h0a4.058,4.058,0,0,0-1.146.124A.21.21,0,0,1,2417.409,700.326Z" transform="translate(-2417.198 -699.764)" fill="#292929"/>
          </g>
        </g>
      </g>
      <g id="Group_139300" data-name="Group 139300" transform="translate(41.161 16.649)">
        <path id="Path_195755" data-name="Path 195755" d="M1845.027,789.489c-1.315,1.031-7.607,3.534-9.179,1.845l-.246-1.343-.624-3.393a10.568,10.568,0,0,1-2.125-2.5c-.759-2.2-2.168-6.361-1.534-7.87a2.285,2.285,0,0,1,2.612-1.383s.779-1.592,2.229-.9a2.835,2.835,0,0,1,3.21-1.113s1.1-1.844,3.011.205,2.232,3.047,2.118,3.635a43.283,43.283,0,0,0,.18,6.832c.182,2.4.421,4.707.588,5.675C1845.281,789.252,1845.194,789.359,1845.027,789.489Z" transform="translate(-1830.949 -771.86)" fill="#f9f9f9"/>
        <path id="Path_195756" data-name="Path 195756" d="M1834.872,789.325a2.638,2.638,0,0,1-1.974-.639.211.211,0,0,1-.053-.105l-.857-4.665a9.983,9.983,0,0,1-2.13-2.538c-1.093-3.164-2.129-6.591-1.529-8.02a2.5,2.5,0,0,1,1.494-1.425,2.393,2.393,0,0,1,1.211-.129,1.844,1.844,0,0,1,2.262-.908,3.024,3.024,0,0,1,3.194-1.1,1.819,1.819,0,0,1,1.207-.718,2.536,2.536,0,0,1,2.043,1.025c1.644,1.762,2.333,2.975,2.171,3.819a41.307,41.307,0,0,0,.183,6.777c.181,2.381.422,4.706.586,5.656.035.2-.151.38-.318.51h0a16.416,16.416,0,0,1-4.566,1.98A11.393,11.393,0,0,1,1834.872,789.325Zm-1.625-.884c1.49,1.438,7.49-.839,8.853-1.909h0a.846.846,0,0,0,.156-.147c-.168-1-.4-3.258-.584-5.656a46.8,46.8,0,0,1-.176-6.888c.131-.681-.564-1.842-2.066-3.452a2.163,2.163,0,0,0-1.687-.894,1.471,1.471,0,0,0-.99.654.211.211,0,0,1-.246.092,2.6,2.6,0,0,0-2.968,1.027.211.211,0,0,1-.267.075c-1.242-.591-1.922.748-1.95.8a.211.211,0,0,1-.287.094,1.745,1.745,0,0,0-1.072.086,2.093,2.093,0,0,0-1.248,1.192c-.619,1.474.893,5.851,1.539,7.72a9.873,9.873,0,0,0,2.067,2.411.211.211,0,0,1,.066.118Z" transform="translate(-1828.152 -769.069)" fill="#292929"/>
      </g>
      <path id="Path_195757" data-name="Path 195757" d="M1903.908,978.612c-1.315,1.031-7.607,3.534-9.179,1.845l-.247-1.343c4.883-.52,8.738-3.475,9.242-3.654Z" transform="translate(-1848.669 -944.333)" fill="#292929"/>
      <g id="Group_139323" data-name="Group 139323" transform="translate(0 0)">
        <circle id="Ellipse_5154" data-name="Ellipse 5154" cx="7.881" cy="7.881" r="7.881" transform="translate(45.467 14.267) rotate(-45)" fill="#292929"/>
        <g id="Group_139301" data-name="Group 139301" transform="translate(15.071 0.116)">
          <path id="Path_195758" data-name="Path 195758" d="M1459.232,565.747l1.095-29.366L1471.28,538l54.193,9.486a2.778,2.778,0,0,1,2.442,2.757v.039a2.777,2.777,0,0,1-2.487,2.723l-53.688,10.5-10.272,2.008Z" transform="translate(-1459.022 -536.171)" fill="#f9f9f9"/>
          <path id="Path_195759" data-name="Path 195759" d="M1456.442,563.169h-.008a.211.211,0,0,1-.2-.218l1.095-29.366a.21.21,0,0,1,.241-.2l10.953,1.621,54.193,9.486a2.991,2.991,0,0,1,2.622,2.965v.039a2.99,2.99,0,0,1-2.666,2.931l-53.679,10.494-10.272,2.008a.21.21,0,1,1-.081-.413l10.272-2.008,53.688-10.5.019,0a2.568,2.568,0,0,0,2.3-2.517v-.036a2.57,2.57,0,0,0-2.257-2.548l-.011,0-54.193-9.486-10.715-1.586-1.086,29.131A.21.21,0,0,1,1456.442,563.169Z" transform="translate(-1456.232 -533.382)" fill="#292929"/>
        </g>
        <g id="Group_139302" data-name="Group 139302" transform="translate(27.118 1.737)">
          <path id="Path_195760" data-name="Path 195760" d="M1630.974,559.492a15.318,15.318,0,0,1,.461,25.5Z" transform="translate(-1630.764 -559.281)" fill="#f9f9f9"/>
          <path id="Path_195761" data-name="Path 195761" d="M1628.645,582.413a.21.21,0,0,1-.12-.383,15.108,15.108,0,0,0-.455-25.15.21.21,0,0,1,.227-.354,15.522,15.522,0,0,1,.467,25.851A.209.209,0,0,1,1628.645,582.413Z" transform="translate(-1627.973 -556.491)" fill="#292929"/>
        </g>
        <g id="Group_139303" data-name="Group 139303" transform="translate(78.639 10.741)">
          <path id="Path_195762" data-name="Path 195762" d="M2362.636,691.784a.21.21,0,0,1-.04-.417c1.349-.264,1.984-1.807,2-3.129.017-1.246-.567-2.708-1.892-2.972a.21.21,0,0,1,.082-.413c1.56.311,2.25,1.976,2.23,3.391-.021,1.487-.762,3.227-2.342,3.536A.211.211,0,0,1,2362.636,691.784Z" transform="translate(-2362.426 -684.849)" fill="#292929"/>
        </g>
        <g id="Group_139322" data-name="Group 139322">
          <circle id="Ellipse_5155" data-name="Ellipse 5155" cx="14.95" cy="14.95" r="14.95" transform="translate(0 0)" fill="#4dd0e1"/>
          <path id="Path_195763" data-name="Path 195763" d="M1256.334,533.456h.186a13.225,13.225,0,0,1-.178,26.45h-.186a13.225,13.225,0,0,1,.178-26.45Zm0-1.725a14.95,14.95,0,0,0-.2,29.9h.21a14.95,14.95,0,0,0,.2-29.9l-.21,0Z" transform="translate(-1241.388 -531.731)" fill="#292929"/>
          <g id="Group_139321" data-name="Group 139321" transform="translate(6.491 7.431)">
            <path id="Path_195764" data-name="Path 195764" d="M1342.241,685.363c-4.591,0-8.295,1.748-8.325,3.957-.031,2.249,3.758,4.125,8.463,4.19l.25,0c4.591,0,8.3-1.748,8.325-3.957.031-2.249-3.758-4.125-8.463-4.19l-.25,0Z" transform="translate(-1333.915 -682.017)" fill="#f9f9f9"/>
            <path id="Path_195765" data-name="Path 195765" d="M1342.241,685.912l.242,0a13.779,13.779,0,0,1,5.771,1.219c1.378.682,2.162,1.562,2.15,2.415-.011.834-.791,1.68-2.139,2.319a13.522,13.522,0,0,1-5.638,1.1l-.242,0a13.779,13.779,0,0,1-5.771-1.219c-1.378-.682-2.162-1.562-2.15-2.415.011-.834.791-1.679,2.139-2.319a13.522,13.522,0,0,1,5.638-1.1Zm0-.549c-4.591,0-8.295,1.748-8.325,3.957-.031,2.249,3.758,4.125,8.463,4.19l.25,0c4.591,0,8.3-1.748,8.325-3.957.031-2.249-3.758-4.125-8.463-4.19l-.25,0Z" transform="translate(-1333.915 -682.017)" fill="#292929"/>
            <g id="Group_139304" data-name="Group 139304" transform="translate(5.216 4.238)">
              <path id="Path_195766" data-name="Path 195766" d="M1415.052,707.812a2.906,2.906,0,0,1-2.865-2.945,2.917,2.917,0,0,1,2.9-2.866h.041a2.906,2.906,0,0,1-.039,5.811Z" transform="translate(-1411.911 -701.727)" fill="#292929"/>
              <path id="Path_195767" data-name="Path 195767" d="M1411.452,698.637h.037a2.631,2.631,0,0,1-.035,5.262h-.037a2.631,2.631,0,0,1,.035-5.262Zm0-.549a3.18,3.18,0,0,0-.043,6.36h.045a3.18,3.18,0,0,0,.043-6.36Z" transform="translate(-1408.273 -698.088)" fill="#292929"/>
            </g>
            <g id="Group_139312" data-name="Group 139312" transform="translate(0.232)">
              <g id="Group_139307" data-name="Group 139307" transform="translate(0 1.679)">
                <g id="Group_139305" data-name="Group 139305" transform="translate(14.694 0.229)">
                  <path id="Path_195768" data-name="Path 195768" d="M1551.673,667.881l-1.976,2.806Z" transform="translate(-1549.487 -667.671)" fill="#292929"/>
                  <path id="Path_195769" data-name="Path 195769" d="M1546.907,668.107a.21.21,0,0,1-.172-.332l1.976-2.805a.21.21,0,0,1,.344.242l-1.976,2.805A.21.21,0,0,1,1546.907,668.107Z" transform="translate(-1546.697 -664.881)" fill="#292929"/>
                </g>
                <g id="Group_139306" data-name="Group 139306">
                  <path id="Path_195770" data-name="Path 195770" d="M1340.227,664.611l1.9,2.859Z" transform="translate(-1340.017 -664.401)" fill="#292929"/>
                  <path id="Path_195771" data-name="Path 195771" d="M1339.336,664.891a.21.21,0,0,1-.175-.094l-1.9-2.859a.21.21,0,1,1,.351-.233l1.9,2.859a.211.211,0,0,1-.175.327Z" transform="translate(-1337.227 -661.611)" fill="#292929"/>
                </g>
              </g>
              <g id="Group_139310" data-name="Group 139310" transform="translate(3.48 0.423)">
                <g id="Group_139308" data-name="Group 139308" transform="translate(8.239 0.132)">
                  <path id="Path_195772" data-name="Path 195772" d="M1508.666,648.581l-1.382,3.077Z" transform="translate(-1507.074 -648.371)" fill="#292929"/>
                  <path id="Path_195773" data-name="Path 195773" d="M1504.494,649.079a.211.211,0,0,1-.192-.3l1.382-3.077a.21.21,0,1,1,.384.172l-1.382,3.077A.211.211,0,0,1,1504.494,649.079Z" transform="translate(-1504.283 -645.581)" fill="#292929"/>
                </g>
                <g id="Group_139309" data-name="Group 139309">
                  <path id="Path_195774" data-name="Path 195774" d="M1389.837,646.694l1.353,3.114Z" transform="translate(-1389.627 -646.483)" fill="#292929"/>
                  <path id="Path_195775" data-name="Path 195775" d="M1388.4,647.228a.211.211,0,0,1-.193-.127l-1.353-3.114a.21.21,0,1,1,.386-.168l1.353,3.114a.211.211,0,0,1-.109.277A.208.208,0,0,1,1388.4,647.228Z" transform="translate(-1386.837 -643.693)" fill="#292929"/>
                </g>
              </g>
              <g id="Group_139311" data-name="Group 139311" transform="translate(8.284)">
                <path id="Path_195776" data-name="Path 195776" d="M1458.367,640.67l-.044,3.21Z" transform="translate(-1458.113 -640.459)" fill="#292929"/>
                <path id="Path_195777" data-name="Path 195777" d="M1455.534,641.3h0a.21.21,0,0,1-.208-.213l.044-3.21a.21.21,0,0,1,.421.006l-.044,3.21A.211.211,0,0,1,1455.534,641.3Z" transform="translate(-1455.324 -637.669)" fill="#292929"/>
              </g>
            </g>
            <g id="Group_139320" data-name="Group 139320" transform="translate(0.08 9.909)">
              <g id="Group_139315" data-name="Group 139315">
                <g id="Group_139313" data-name="Group 139313" transform="translate(14.772 0.176)">
                  <path id="Path_195778" data-name="Path 195778" d="M1550.542,787.294l-1.9-2.859Z" transform="translate(-1548.434 -784.225)" fill="#292929"/>
                  <path id="Path_195779" data-name="Path 195779" d="M1547.752,784.715a.21.21,0,0,1-.176-.094l-1.9-2.859a.21.21,0,1,1,.351-.233l1.9,2.859a.211.211,0,0,1-.175.327Z" transform="translate(-1545.644 -781.435)" fill="#292929"/>
                </g>
                <g id="Group_139314" data-name="Group 139314">
                  <path id="Path_195780" data-name="Path 195780" d="M1338.062,784.731l1.976-2.805Z" transform="translate(-1337.852 -781.715)" fill="#292929"/>
                  <path id="Path_195781" data-name="Path 195781" d="M1335.273,782.151a.21.21,0,0,1-.172-.332l1.976-2.805a.21.21,0,0,1,.344.242l-1.976,2.805A.21.21,0,0,1,1335.273,782.151Z" transform="translate(-1335.063 -778.925)" fill="#292929"/>
                </g>
              </g>
              <g id="Group_139318" data-name="Group 139318" transform="translate(3.444 1.082)">
                <g id="Group_139316" data-name="Group 139316" transform="translate(8.324 0.095)">
                  <path id="Path_195782" data-name="Path 195782" d="M1507.119,801.811l-1.3-3.114Z" transform="translate(-1505.612 -798.487)" fill="#292929"/>
                  <path id="Path_195783" data-name="Path 195783" d="M1504.328,799.231a.21.21,0,0,1-.194-.13l-1.3-3.114a.21.21,0,0,1,.388-.162l1.3,3.114a.21.21,0,0,1-.194.291Z" transform="translate(-1502.821 -795.696)" fill="#292929"/>
                </g>
                <g id="Group_139317" data-name="Group 139317">
                  <path id="Path_195784" data-name="Path 195784" d="M1387.161,800.422l1.438-3.076Z" transform="translate(-1386.951 -797.135)" fill="#292929"/>
                  <path id="Path_195785" data-name="Path 195785" d="M1384.37,797.842a.211.211,0,0,1-.191-.3l1.438-3.076a.21.21,0,1,1,.381.178l-1.438,3.076A.211.211,0,0,1,1384.37,797.842Z" transform="translate(-1384.16 -794.345)" fill="#292929"/>
                </g>
              </g>
              <g id="Group_139319" data-name="Group 139319" transform="translate(8.279 1.504)">
                <path id="Path_195786" data-name="Path 195786" d="M1456.084,806.571l.044-3.21Z" transform="translate(-1455.874 -803.151)" fill="#292929"/>
                <path id="Path_195787" data-name="Path 195787" d="M1453.3,803.991h0a.21.21,0,0,1-.208-.213l.044-3.21a.208.208,0,0,1,.213-.208.21.21,0,0,1,.208.213l-.044,3.21A.211.211,0,0,1,1453.3,803.991Z" transform="translate(-1453.085 -800.36)" fill="#292929"/>
              </g>
            </g>
          </g>
        </g>
        <path id="Path_195788" data-name="Path 195788" d="M2034.3,638.468a7.881,7.881,0,1,0,0-15.639,7.882,7.882,0,0,1,0,15.639Z" transform="translate(-1978.678 -616.382)" fill="#292929"/>
      </g>
      <g id="Group_139324" data-name="Group 139324" transform="translate(50.144 13.988)">
        <path id="Path_195789" data-name="Path 195789" d="M1959.946,745.825l.846-3.556c.263-1.206,1.069-4.673.624-5.825-.889-2.3-3.233-5.929-4.177-5.222-.682.51,1.2,6.227,1.2,6.227s-2.86,4.17-2.1,7.327C1956.633,745.989,1959.946,745.825,1959.946,745.825Z" transform="translate(-1956.213 -731.132)" fill="#f9f9f9"/>
      </g>
      <path id="Path_195790" data-name="Path 195790" d="M2754.23,965.779c-1.518,2.714-6.451,2.989-9.81,3.212-.065,0-.13.007-.2.007a5.512,5.512,0,0,1-1.655-.259,18.254,18.254,0,0,1-5.773-3.435c-6.139-5.105-5.92-9.516-5.6-12.273.138-1.183.294-2.061-.025-2.56-.906-1.419-4.849-21.343,4.623-23.176a6.934,6.934,0,0,1,7.553,3.894l8.908,18.9C2754.934,956.786,2756.37,961.951,2754.23,965.779Z" transform="translate(-2625.191 -899.432)" fill="#f9f9f9"/>
      <path id="Path_195791" data-name="Path 195791" d="M1960.557,985.622l-24.527,19.74a7.7,7.7,0,0,0-2.711,5.884h0a7.705,7.705,0,0,0,11.488,6.693c5.216-2.931,17.5-11.1,19.375-13.692C1968.159,998.735,1971.125,979.21,1960.557,985.622Z" transform="translate(-1884.781 -952.594)" fill="#f9f9f9"/>
      <path id="Path_195792" data-name="Path 195792" d="M2423.437,1697.892c.333,1.875-12.277,6.039-24.124,8.147s-21.722,2.3-22.056.422,9-5.1,20.848-7.213S2423.1,1696.017,2423.437,1697.892Z" transform="translate(-2297.568 -1615.201)" fill="#292929"/>
      <g id="Group_139347" data-name="Group 139347" transform="translate(77.392 60.826)">
        <g id="Group_139333" data-name="Group 139333" transform="translate(0.792 52.203)">
          <g id="Group_139326" data-name="Group 139326">
            <g id="Group_139325" data-name="Group 139325">
              <path id="Path_195793" data-name="Path 195793" d="M2377.6,2150.862c6.1,14.744,21.869,52.743,21.869,52.743l-9.408,5.076-30.142-49.592c-2.262-3.479-.5-8.778,3.717-11.44h0C2368.358,2144.671,2375.464,2145.7,2377.6,2150.862Z" transform="translate(-2358.718 -2145.787)" fill="#f9f9f9"/>
              <path id="Path_195794" data-name="Path 195794" d="M2387.286,2206.115a.211.211,0,0,1-.18-.1l-30.141-49.592a6.964,6.964,0,0,1-.831-5.33,10.434,10.434,0,0,1,4.615-6.4,11.244,11.244,0,0,1,9.17-1.2,7.959,7.959,0,0,1,5.1,4.508c6.034,14.576,21.712,52.364,21.869,52.743a.21.21,0,0,1-.094.266l-9.408,5.077A.209.209,0,0,1,2387.286,2206.115ZM2366.7,2143.43a10.839,10.839,0,0,0-5.729,1.621,10.006,10.006,0,0,0-4.428,6.131,6.553,6.553,0,0,0,.776,5.016l30.041,49.426,9.065-4.892c-1.173-2.828-15.974-38.5-21.8-52.568h0a7.547,7.547,0,0,0-4.839-4.268A10.225,10.225,0,0,0,2366.7,2143.43Z" transform="translate(-2355.943 -2143.01)" fill="#292929"/>
            </g>
            <path id="Path_195795" data-name="Path 195795" d="M2761.646,2869.046l-11.287,2.869,10.205-5.527Z" transform="translate(-2722.691 -2815.644)" fill="#292929"/>
          </g>
          <path id="Path_195796" data-name="Path 195796" d="M2401.031,2284.4l-13.677,7.263-25.426-44.818,19.531-5.734Z" transform="translate(-2361.509 -2234.233)" fill="#afafaf"/>
          <g id="Group_139332" data-name="Group 139332" transform="translate(24.471 54.318)">
            <g id="Group_139327" data-name="Group 139327" transform="translate(5.249)">
              <path id="Path_195797" data-name="Path 195797" d="M2794.323,2924.466l-2.231-4.133-9.486,5.994,1.43,5.3Z" transform="translate(-2782.396 -2920.123)" fill="#f9f9f9"/>
              <path id="Path_195798" data-name="Path 195798" d="M2781.246,2929.048a.21.21,0,0,1-.2-.156l-1.43-5.3a.21.21,0,0,1,.091-.233l9.486-5.994a.21.21,0,0,1,.3.078l2.231,4.133a.211.211,0,0,1-.065.273l-10.287,7.161A.211.211,0,0,1,2781.246,2929.048Zm-1.186-5.415,1.312,4.861,9.887-6.883-2.035-3.769Z" transform="translate(-2779.606 -2917.334)" fill="#292929"/>
            </g>
            <g id="Group_139328" data-name="Group 139328" transform="translate(0 16.827)">
              <path id="Path_195799" data-name="Path 195799" d="M2709.048,3161.045a5.957,5.957,0,0,1-3.326-.789,2.141,2.141,0,0,1-.9-1.438c-.167-1.04.329-1.4.641-1.515,1.327-.509,4.254,1.208,5.593,3.281a.211.211,0,0,1-.143.322A12.617,12.617,0,0,1,2709.048,3161.045Zm-3.043-3.412a1.1,1.1,0,0,0-.394.064c-.341.131-.468.486-.376,1.055a1.715,1.715,0,0,0,.732,1.163c1.249.9,3.66.722,4.542.621C2709.3,3158.877,2707.161,3157.633,2706,3157.633Z" transform="translate(-2704.786 -3157.213)" fill="#292929"/>
            </g>
            <g id="Group_139329" data-name="Group 139329" transform="translate(0.892 3.5)">
              <path id="Path_195800" data-name="Path 195800" d="M2721.2,3001.931l-.035-.107a6.407,6.407,0,0,1-.638-2.734c.056-.283,2.018-6.8,2.018-6.8l2.862-11.09-.416-4.557,11.37-6.411,6.9,8,.822-.076,1.814,2.175-23.537,22.947Z" transform="translate(-2720.284 -2970.018)" fill="#f9f9f9"/>
              <path id="Path_195801" data-name="Path 195801" d="M2719.573,3000.693h-.009a.211.211,0,0,1-.15-.073l-1.157-1.342a.206.206,0,0,1-.04-.07l-.036-.108c-.029-.09-.078-.216-.134-.361a5.21,5.21,0,0,1-.51-2.479c.056-.284,1.815-6.132,2.021-6.819l2.852-11.051-.413-4.52a.21.21,0,0,1,.106-.2l11.37-6.411a.21.21,0,0,1,.263.046l6.827,7.917.714-.067a.211.211,0,0,1,.181.075l1.814,2.175a.211.211,0,0,1-.015.285l-23.537,22.947A.211.211,0,0,1,2719.573,3000.693Zm-.97-1.658.984,1.141,23.237-22.655-1.618-1.941-.712.066a.209.209,0,0,1-.179-.072l-6.786-7.869-11.1,6.26.4,4.421a.2.2,0,0,1-.006.072l-2.862,11.091,0,.008c-.786,2.614-1.971,6.577-2.013,6.784a4.953,4.953,0,0,0,.49,2.246c.058.151.109.281.141.381Z" transform="translate(-2717.503 -2967.227)" fill="#292929"/>
            </g>
            <g id="Group_139330" data-name="Group 139330" transform="translate(4.229 11.42)">
              <path id="Path_195802" data-name="Path 195802" d="M2765.9,3089.118a.217.217,0,0,1-.061-.009.211.211,0,0,1-.141-.142c-.056-.192-1.371-4.733,0-7.239a2.912,2.912,0,0,1,1.787-1.459c1.287-.375,1.859.111,2.112.585.92,1.722-.944,6.021-3.561,8.214A.212.212,0,0,1,2765.9,3089.118Zm2.413-8.561a2.579,2.579,0,0,0-.711.116,2.506,2.506,0,0,0-1.536,1.256c-1.086,1.986-.322,5.518-.05,6.6a11.641,11.641,0,0,0,2.738-3.913c.654-1.516.835-2.88.471-3.561A.949.949,0,0,0,2768.313,3080.558Z" transform="translate(-2765.076 -3080.136)" fill="#292929"/>
            </g>
            <g id="Group_139331" data-name="Group 139331" transform="translate(17.214 7.684)">
              <path id="Path_195803" data-name="Path 195803" d="M2951.326,3037.084a.21.21,0,0,1-.181-.1,7.864,7.864,0,0,1-.781-5.551,7.139,7.139,0,0,1,2.8-4.528.21.21,0,1,1,.234.35c-2.72,1.817-3.655,6.53-1.887,9.514a.21.21,0,0,1-.181.318Z" transform="translate(-2950.177 -3026.866)" fill="#292929"/>
            </g>
            <path id="Path_195804" data-name="Path 195804" d="M2730.038,3106.942l1.568,1.819,23.383-23.1-2.071-2.5-.822.076-22.093,23.6Z" transform="translate(-2728.233 -3071.53)" fill="#292929"/>
          </g>
        </g>
        <path id="Path_195805" data-name="Path 195805" d="M2345.118,1496.894a9.057,9.057,0,0,0,5.491,5.628c5.019,1.824,12.723-.371,13.831-5.6,2.619-12.351,6.683-34.366,9.091-47.355a11.348,11.348,0,1,0-22.4-3.595l-.881,6.491-.4,2.917-2.741,20.187-2.454,18.072A9.039,9.039,0,0,0,2345.118,1496.894Z" transform="translate(-2344.648 -1433.532)" fill="#afafaf"/>
        <g id="Group_139334" data-name="Group 139334" transform="translate(2.53 16.741)">
          <path id="Path_195806" data-name="Path 195806" d="M2380.929,1661.209l-.028,0a.21.21,0,0,1-.18-.237l3.128-23.3a.21.21,0,0,1,.417.056l-3.128,23.3A.21.21,0,0,1,2380.929,1661.209Z" transform="translate(-2380.718 -1637.487)" fill="#f9f9f9"/>
        </g>
        <g id="Group_139344" data-name="Group 139344" transform="translate(5.523)">
          <g id="Group_139336" data-name="Group 139336" transform="translate(22.143 57.778)">
            <g id="Group_139335" data-name="Group 139335">
              <path id="Path_195807" data-name="Path 195807" d="M2757,2227.27c12.086,10.421,42.475,36.443,42.475,36.443l-7.45,6.752-45.467-28.934c-3.586-2.089-6.044-6.569-3.473-10.845h0C2745.966,2225.9,2752.777,2223.625,2757,2227.27Z" transform="translate(-2741.817 -2225.261)" fill="#f9f9f9"/>
              <path id="Path_195808" data-name="Path 195808" d="M2789.255,2267.894a.21.21,0,0,1-.113-.033l-45.463-28.932a9.423,9.423,0,0,1-4.411-5.574,7.146,7.146,0,0,1,.867-5.56,11.245,11.245,0,0,1,7.65-5.2,7.96,7.96,0,0,1,6.583,1.731c11.948,10.3,42.17,36.182,42.474,36.442a.211.211,0,0,1,0,.316l-7.45,6.752A.212.212,0,0,1,2789.255,2267.894Zm-40.008-44.993a8.818,8.818,0,0,0-1.4.113,10.814,10.814,0,0,0-7.356,5,6.735,6.735,0,0,0-.82,5.239,9,9,0,0,0,4.218,5.316l.007,0,45.332,28.848,7.154-6.484c-2.546-2.18-30.831-26.4-42.294-36.288h0A7.317,7.317,0,0,0,2749.247,2222.9Z" transform="translate(-2739.043 -2222.48)" fill="#292929"/>
            </g>
            <path id="Path_195809" data-name="Path 195809" d="M3325.852,2643.706l-8.287,9.152,6.667-10.566Z" transform="translate(-3276.982 -2612.843)" fill="#292929"/>
          </g>
          <g id="Group_139337" data-name="Group 139337" transform="translate(0 3.239)">
            <path id="Path_195810" data-name="Path 195810" d="M2463.384,1504.082c.972-7.687,3.093-25.318,3.635-36.8.3-6.448-4.956-19.5-11.407-19.287v7.714a11.06,11.06,0,0,0-10.445,8.707c-5.005,1.241-19.013,4.8-18.763,6.112.267,1.394,14.733.35,18.366.066l-1.3,35.883a9.055,9.055,0,0,0,3.511,8.457l-.065.074,41.4,28.844,8.271-12.872Z" transform="translate(-2426.188 -1447.785)" fill="#f9f9f9"/>
            <path id="Path_195811" data-name="Path 195811" d="M2485.51,1541.277a.212.212,0,0,1-.121-.038l-41.4-28.844a.21.21,0,0,1-.089-.147.218.218,0,0,1,0-.046,9.273,9.273,0,0,1-3.447-8.529l1.292-35.637c-1.914.148-6.269.461-10.22.579-2.313.069-4.154.061-5.469-.024-2.239-.145-2.6-.49-2.665-.809s.167-.741,2.251-1.567c1.238-.49,3.023-1.081,5.306-1.755,2.966-.876,6.849-1.913,11.235-3a11.245,11.245,0,0,1,10.412-8.735v-7.512a.211.211,0,0,1,.2-.21,6.935,6.935,0,0,1,5.089,2.455,23.612,23.612,0,0,1,4.859,8.279,24.024,24.024,0,0,1,1.675,8.773c-.544,11.529-2.7,29.414-3.622,36.7l33.115,26.828a.211.211,0,0,1,.045.277l-8.27,12.872a.211.211,0,0,1-.136.093A.2.2,0,0,1,2485.51,1541.277Zm-41.129-29.119,41.07,28.611,8.05-12.53-33.06-26.783a.211.211,0,0,1-.076-.19c.91-7.2,3.087-25.2,3.634-36.78.218-4.608-2.479-12.744-6.414-16.736a6.676,6.676,0,0,0-4.573-2.332v7.506a.21.21,0,0,1-.2.21,10.827,10.827,0,0,0-10.246,8.541.211.211,0,0,1-.155.16c-4.342,1.076-8.2,2.106-11.166,2.976-2.248.66-4.021,1.241-5.27,1.725-2.071.8-2.166,1.136-2.17,1.172h0s.1.323,2.289.464c1.3.084,3.13.091,5.429.023,4.111-.123,8.66-.457,10.425-.6a.21.21,0,0,1,.227.218l-1.3,35.883a.2.2,0,0,1,0,.021,8.852,8.852,0,0,0,3.43,8.261.21.21,0,0,1,.083.146A.219.219,0,0,1,2444.381,1512.158Z" transform="translate(-2423.379 -1444.996)" fill="#292929"/>
          </g>
          <g id="Group_139343" data-name="Group 139343" transform="translate(66.661 90.008)">
            <g id="Group_139338" data-name="Group 139338" transform="translate(0.055)">
              <path id="Path_195812" data-name="Path 195812" d="M3387.462,2687.814l-3.763-2.88-6.25,9.442,3.509,4.286Z" transform="translate(-3377.239 -2684.724)" fill="#f9f9f9"/>
              <path id="Path_195813" data-name="Path 195813" d="M3378.168,2696.083a.209.209,0,0,1-.163-.077l-3.509-4.285a.211.211,0,0,1-.013-.25l6.25-9.442a.211.211,0,0,1,.3-.051l3.763,2.88a.21.21,0,0,1,.053.275l-6.5,10.847a.211.211,0,0,1-.165.1Zm-3.248-4.509,3.221,3.934,6.254-10.43-3.435-2.629Z" transform="translate(-3374.449 -2681.935)" fill="#292929"/>
            </g>
            <g id="Group_139339" data-name="Group 139339" transform="translate(0 20.912)">
              <path id="Path_195814" data-name="Path 195814" d="M3376.049,2983.293a3.168,3.168,0,0,1-.632-.06,2.162,2.162,0,0,1-1.424-.949c-.583-.887-.274-1.419-.037-1.657,1.01-1.017,4.413-.648,6.5.706a.21.21,0,0,1,0,.352A9.838,9.838,0,0,1,3376.049,2983.293Zm-.057-2.823a2.588,2.588,0,0,0-1.738.454c-.26.262-.23.642.09,1.129a1.731,1.731,0,0,0,1.156.768c1.523.311,3.673-.852,4.441-1.31A8.442,8.442,0,0,0,3375.992,2980.469Z" transform="translate(-3373.658 -2980.045)" fill="#292929"/>
            </g>
            <g id="Group_139340" data-name="Group 139340" transform="translate(1.801 2.385)">
              <path id="Path_195815" data-name="Path 195815" d="M3409.315,2754.39l-.077-.084c-.356-.39-1.518-1.379-1.719-2.252-.065-.283-.958-7.1-.958-7.1l-1.956-11.391-2.269-4.022,7.811-10.605,9.659,4.508.725-.411,2.569,1.251-12.167,30.859Z" transform="translate(-3402.126 -2718.729)" fill="#f9f9f9"/>
              <path id="Path_195816" data-name="Path 195816" d="M3408.146,2752.568a.211.211,0,0,1-.089-.02l-1.62-.757a.21.21,0,0,1-.065-.048l-.078-.085c-.064-.071-.161-.166-.273-.277a5.258,5.258,0,0,1-1.5-2.07c-.065-.285-.867-6.4-.961-7.113l-1.948-11.351-2.251-3.99a.211.211,0,0,1,.014-.228l7.811-10.6a.21.21,0,0,1,.258-.066l9.561,4.461.631-.357a.211.211,0,0,1,.2-.006l2.569,1.251a.211.211,0,0,1,.1.267l-12.166,30.858a.209.209,0,0,1-.118.118A.2.2,0,0,1,3408.146,2752.568Zm-1.494-1.14,1.38.644,12.013-30.469-2.294-1.118-.629.356a.211.211,0,0,1-.193.008l-9.5-4.435-7.628,10.357,2.2,3.9a.211.211,0,0,1,.024.068l1.956,11.391s0,.006,0,.008c.358,2.731.908,6.87.955,7.077a5,5,0,0,0,1.381,1.865c.116.115.217.214.288.292Z" transform="translate(-3399.337 -2715.941)" fill="#292929"/>
            </g>
            <g id="Group_139341" data-name="Group 139341" transform="translate(2.513 13.467)">
              <path id="Path_195817" data-name="Path 195817" d="M3412.656,2883.354a.211.211,0,0,1-.16-.074c-.131-.153-3.219-3.788-3-6.66a2.939,2.939,0,0,1,1.041-2.081c1.028-.877,1.754-.667,2.183-.335,1.559,1.2,1.622,5.93.121,9.031a.21.21,0,0,1-.162.117Zm-.743-9.012a1.785,1.785,0,0,0-1.1.518,2.529,2.529,0,0,0-.894,1.792c-.178,2.28,1.991,5.219,2.686,6.1a11.746,11.746,0,0,0,.9-4.738c-.025-1.666-.424-3-1.041-3.474A.887.887,0,0,0,3411.913,2874.341Z" transform="translate(-3409.489 -2873.917)" fill="#292929"/>
            </g>
            <g id="Group_139342" data-name="Group 139342" transform="translate(13.549 4.85)">
              <path id="Path_195818" data-name="Path 195818" d="M3570.156,2761.321a.208.208,0,0,1-.121-.038,7.934,7.934,0,0,1-3.015-4.784,7.2,7.2,0,0,1,.7-5.323.211.211,0,0,1,.357.223c-1.752,2.8-.662,7.523,2.2,9.54a.21.21,0,0,1-.121.383Z" transform="translate(-3566.811 -2751.077)" fill="#292929"/>
            </g>
            <path id="Path_195819" data-name="Path 195819" d="M3500.787,2808.692l2.2,1.025,11.96-30.939-2.939-1.44-.725.411-10.568,30.86Z" transform="translate(-3491.797 -2770.646)" fill="#292929"/>
          </g>
          <path id="Path_195820" data-name="Path 195820" d="M2458.605,1402.579l-23.478-3.659a7.517,7.517,0,0,0-8.188,4.767h0a7.517,7.517,0,0,0,5.54,10.029l15.878,3.213Z" transform="translate(-2426.233 -1398.83)" fill="#f9f9f9"/>
        </g>
        <g id="Group_139345" data-name="Group 139345" transform="translate(35.339 21.082)">
          <path id="Path_195821" data-name="Path 195821" d="M2858.355,1708.978a.211.211,0,0,1-.049-.006,13.418,13.418,0,0,1-7.816-5.352,14.7,14.7,0,0,1-2.068-3.992.21.21,0,0,1,.4-.119,14.575,14.575,0,0,0,2.015,3.878,13,13,0,0,0,7.563,5.176.21.21,0,0,1-.048.415Z" transform="translate(-2848.413 -1699.359)" fill="#292929"/>
        </g>
        <g id="Group_139346" data-name="Group 139346" transform="translate(36.739 59.576)">
          <path id="Path_195822" data-name="Path 195822" d="M2868.587,2249.7a.211.211,0,0,1-.041-.417l5.9-1.164a.211.211,0,0,1,.081.413l-5.9,1.164A.212.212,0,0,1,2868.587,2249.7Z" transform="translate(-2868.377 -2248.113)" fill="#292929"/>
        </g>
      </g>
      <path id="Path_195823" data-name="Path 195823" d="M2333.143,964.274c-11.545,2.055-20.7,5.174-20.854,7.067h-.022c-2.09-6.689-4.2-41.963-4.873-54.052a5.375,5.375,0,0,1,3.627-5.385l9.684-3.312c7.595,3.913,9.758-1.879,9.758-1.879s12.583-1.166,17.5,2.2c3.007,2.061,9.379,46.621,10.515,54C2357.34,961.307,2344.449,962.261,2333.143,964.274Z" transform="translate(-2232.608 -880.225)" fill="#f9f9f9"/>
      <g id="Group_139348" data-name="Group 139348" transform="translate(79.45 81.664)">
        <path id="Path_195824" data-name="Path 195824" d="M2374.219,1705.549h-.009l-.031,0a.211.211,0,0,1-.191-.228.207.207,0,0,1,.036-.1c.491-2.306,11.106-5.391,21.011-7.153a151.422,151.422,0,0,1,16.5-2.04c5.406-.327,8.447-.068,9.037.769a.211.211,0,0,1-.344.242c-.177-.251-1.325-1.035-8.667-.591a150.972,150.972,0,0,0-16.456,2.034,105.292,105.292,0,0,0-14.669,3.586c-5.483,1.861-5.988,2.989-6.012,3.29A.21.21,0,0,1,2374.219,1705.549Z" transform="translate(-2373.987 -1695.888)" fill="#292929"/>
      </g>
      <g id="Group_139350" data-name="Group 139350" transform="translate(43.251 32.316)">
        <path id="Path_195825" data-name="Path 195825" d="M1872.339,992.413l5.6,19.175-10.528,12.582s-7.322-6.266-7.306-28.988C1860.109,995.183,1865.631,996.638,1872.339,992.413Z" transform="translate(-1859.958 -992.413)" fill="#f9f9f9"/>
        <g id="Group_139349" data-name="Group 139349" transform="translate(0 2.564)">
          <path id="Path_195826" data-name="Path 195826" d="M1860.731,1032.989a12.309,12.309,0,0,1-2.342-.227c-.111-.02-.2-.036-.263-.045a.21.21,0,0,1,.057-.417c.074.01.165.027.281.048,3.844.7,8.03-.426,12.442-3.343a.21.21,0,0,1,.232.351,21.093,21.093,0,0,1-8.39,3.478A13.637,13.637,0,0,1,1860.731,1032.989Z" transform="translate(-1857.944 -1028.97)" fill="#292929"/>
        </g>
      </g>
      <g id="Group_139351" data-name="Group 139351" transform="translate(78.639 78.836)">
        <path id="Path_195827" data-name="Path 195827" d="M2362.637,1664.622a.21.21,0,0,1-.112-.389,56.063,56.063,0,0,1,12.514-5.2,83.055,83.055,0,0,1,14.732-2.944,93.946,93.946,0,0,1,19.6-.031.21.21,0,1,1-.042.419,88.7,88.7,0,0,0-34.147,2.954,55.7,55.7,0,0,0-12.428,5.155A.21.21,0,0,1,2362.637,1664.622Z" transform="translate(-2362.426 -1655.565)" fill="#292929"/>
      </g>
      <g id="Group_139352" data-name="Group 139352" transform="translate(57.113 37.893)">
        <path id="Path_195828" data-name="Path 195828" d="M2059.891,1085.657a.21.21,0,0,1-.2-.148l-4.121-13.325a.21.21,0,0,1,.4-.124l4.121,13.325a.21.21,0,0,1-.139.263A.213.213,0,0,1,2059.891,1085.657Z" transform="translate(-2055.56 -1071.91)" fill="#292929"/>
      </g>
      <g id="Group_139353" data-name="Group 139353" transform="translate(75.164 46.851)">
        <path id="Path_195829" data-name="Path 195829" d="M2314.054,1212.828a.21.21,0,0,1-.209-.19c-.608-6.2-.959-12.734-.962-12.8a.211.211,0,0,1,.42-.022c0,.065.354,6.59.961,12.781a.21.21,0,0,1-.189.23Z" transform="translate(-2312.883 -1199.617)" fill="#292929"/>
      </g>
      <g id="Group_139363" data-name="Group 139363" transform="translate(77.87 45.771)">
        <g id="Group_139360" data-name="Group 139360">
          <g id="Group_139355" data-name="Group 139355">
            <path id="Path_195830" data-name="Path 195830" d="M2371.735,1203.754l7.032-3.275a.978.978,0,0,0,.474-1.3l-6.705-14.4a.978.978,0,0,0-1.3-.474l-7.032,3.275a.978.978,0,0,0-.474,1.3l6.705,14.4A.978.978,0,0,0,2371.735,1203.754Z" transform="translate(-2362.784 -1184.214)" fill="#f9f9f9"/>
            <path id="Path_195831" data-name="Path 195831" d="M2359.557,1209.424l7.032-3.274a.979.979,0,0,0,.474-1.3l-6.705-14.4a.978.978,0,0,0-1.3-.474l-7.032,3.275a.978.978,0,0,0-.474,1.3l6.705,14.4A.978.978,0,0,0,2359.557,1209.424Z" transform="translate(-2351.46 -1189.486)" fill="#292929"/>
            <g id="Group_139354" data-name="Group 139354" transform="translate(5.752 1.438)">
              <path id="Path_195832" data-name="Path 195832" d="M2434.19,1206.679a.735.735,0,0,1-.251-.045.733.733,0,0,1-.058-1.353l1.089-.507a.733.733,0,1,1,.618,1.328l-1.089.507h0A.727.727,0,0,1,2434.19,1206.679Zm.22-.26h0Zm.868-1.292a.314.314,0,0,0-.132.029l-1.089.507a.312.312,0,1,0,.264.565l1.089-.507a.312.312,0,0,0-.025-.576A.315.315,0,0,0,2435.278,1205.127Z" transform="translate(-2433.456 -1204.706)" fill="#f9f9f9"/>
            </g>
          </g>
          <g id="Group_139359" data-name="Group 139359" transform="translate(0.468 1.08)">
            <g id="Group_139356" data-name="Group 139356">
              <path id="Path_195833" data-name="Path 195833" d="M2381.3,1219.963l2.685-9.028-7.363-1.344c-1.36-2.164-4.258-6.731-4.6-6.916-.454-.243-1.448.219-.687,2.595a10.758,10.758,0,0,1,.75,3.412,2.122,2.122,0,0,1-2.328.848s-6.485-1.861-8.214-1.35c-.416.123-.637.728.01,1.114,1.616.963,5.94,2.157,6.31,2.774.026.044.057.1.09.175-.917.93-3.673.664-4.151.49s-1.119-1.779-1.119-1.779a3.158,3.158,0,0,0,1.451,4.453,1.892,1.892,0,0,0,.98,2.54,1.508,1.508,0,0,0,1.457,1.6c.552.067,2.639-.055,4.844-.2l5.454-.267C2377.668,1219.311,2381.3,1219.963,2381.3,1219.963Z" transform="translate(-2360.929 -1202.405)" fill="#f9f9f9"/>
              <path id="Path_195834" data-name="Path 195834" d="M2378.507,1217.375a.216.216,0,0,1-.037,0c-.147-.026-3.557-.64-4.422-.875l-5.419.266c-2.193.145-4.3.269-4.879.2a1.7,1.7,0,0,1-1.642-1.68,2.049,2.049,0,0,1-1.022-2.591,4.5,4.5,0,0,1-1.693-2.025,4.77,4.77,0,0,1,.3-2.591.211.211,0,0,1,.195-.13h0a.211.211,0,0,1,.194.133,4.1,4.1,0,0,0,.995,1.659c.477.174,2.9.37,3.818-.342l-.01-.017a11.947,11.947,0,0,0-2.864-1.274,24.334,24.334,0,0,1-3.373-1.427.889.889,0,0,1-.5-.864.771.771,0,0,1,.542-.633c1.747-.516,7.925,1.233,8.321,1.347a1.94,1.94,0,0,0,2.076-.715,11.192,11.192,0,0,0-.746-3.276c-.576-1.8-.159-2.488.14-2.737a.761.761,0,0,1,.847-.107c.108.058.434.233,4.634,6.911l7.272,1.328a.21.21,0,0,1,.164.267l-2.685,9.028A.21.21,0,0,1,2378.507,1217.375Zm-4.436-1.3a.219.219,0,0,1,.058.008c.682.193,3.481.706,4.23.842l2.564-8.622-7.132-1.3a.211.211,0,0,1-.141-.095,77.2,77.2,0,0,0-4.531-6.846.343.343,0,0,0-.373.063c-.137.114-.543.617-.009,2.286a10.536,10.536,0,0,1,.759,3.5.216.216,0,0,1-.033.092,2.353,2.353,0,0,1-2.54.941l-.022-.005c-.064-.018-6.446-1.839-8.1-1.351a.346.346,0,0,0-.244.281c-.02.162.087.322.3.45a24.182,24.182,0,0,0,3.3,1.394c1.816.676,2.854,1.077,3.078,1.453a2.154,2.154,0,0,1,.1.194.21.21,0,0,1-.041.237c-1.028,1.043-3.9.714-4.373.54-.381-.139-.777-.861-1.021-1.386a3.663,3.663,0,0,0-.114,1.809,4.475,4.475,0,0,0,1.654,1.877.211.211,0,0,1,.078.261,1.676,1.676,0,0,0,.874,2.263.211.211,0,0,1,.124.21,1.3,1.3,0,0,0,1.273,1.377c.542.066,2.732-.065,4.8-.2l5.457-.268Z" transform="translate(-2358.137 -1199.607)" fill="#292929"/>
            </g>
            <g id="Group_139357" data-name="Group 139357" transform="translate(2.989 12.791)">
              <path id="Path_195835" data-name="Path 195835" d="M2403.439,1382.517h-.013l-2.481-.151a.21.21,0,1,1,.026-.42l2.481.151a.21.21,0,0,1-.013.421Z" transform="translate(-2400.747 -1381.945)" fill="#292929"/>
            </g>
            <g id="Group_139358" data-name="Group 139358" transform="translate(3.88 15.307)">
              <path id="Path_195836" data-name="Path 195836" d="M2416.134,1418.382h-.013l-2.481-.151a.21.21,0,0,1,.025-.42l2.481.151a.21.21,0,0,1-.012.421Z" transform="translate(-2413.441 -1417.81)" fill="#292929"/>
            </g>
          </g>
        </g>
        <path id="Path_195837" data-name="Path 195837" d="M2605.9,1322.945s0-7.172,1.828-8.816c1.168-1.05,1.331,5.005,1.331,5.005l-.164,4.405Z" transform="translate(-2588.052 -1304.902)" fill="#292929"/>
        <path id="Path_195838" data-name="Path 195838" d="M2647.868,1306.891a9.87,9.87,0,0,1-7.7,4.686c-.065,0-.13.007-.2.007l-1.655-.259-19.929-3.12s-2.719-9.859,1.2-12.3c.438-.274,3.536-.328,7.359-.283,6.993.083,16.414.5,16.414.5Z" transform="translate(-2598.81 -1287.79)" fill="#f9f9f9"/>
        <g id="Group_139361" data-name="Group 139361" transform="translate(18.497 7.828)">
          <path id="Path_195839" data-name="Path 195839" d="M2637.767,1311.978l-.033,0L2616.2,1308.6a.21.21,0,0,1-.156-.114c-.036-.073-.888-1.833-.893-6.288-.005-4.494,1.764-6.254,1.839-6.327a.211.211,0,0,1,.146-.059l17.877-.007h0a.21.21,0,0,1,0,.421l-17.785.007c-.292.334-1.661,2.106-1.657,5.964a16.726,16.726,0,0,0,.807,6l21.424,3.355a.21.21,0,0,1-.032.418Z" transform="translate(-2615.148 -1295.808)" fill="#292929"/>
        </g>
        <g id="Group_139362" data-name="Group 139362" transform="translate(22.182 7.837)">
          <path id="Path_195840" data-name="Path 195840" d="M2668.763,1308.721a.211.211,0,0,1-.2-.137,19.27,19.27,0,0,1-.754-8.285,27.714,27.714,0,0,1,.749-4.213.211.211,0,0,1,.405.114c-.02.07-1.937,7.014-.005,12.238a.21.21,0,0,1-.2.283Z" transform="translate(-2667.675 -1295.932)" fill="#292929"/>
        </g>
      </g>
      <g id="Group_139364" data-name="Group 139364" transform="translate(109.486 46.646)">
        <path id="Path_195841" data-name="Path 195841" d="M2805.917,1204.07a.21.21,0,0,1-.187-.115l-3.544-6.962a.21.21,0,0,1,.375-.191l3.544,6.962a.211.211,0,0,1-.187.306Z" transform="translate(-2802.162 -1196.687)" fill="#292929"/>
      </g>
      <g id="Group_139365" data-name="Group 139365" transform="translate(92.923 119.262)">
        <path id="Path_195842" data-name="Path 195842" d="M2571.259,2232.717h-.019l-5-.439a.21.21,0,1,1,.037-.419l5,.439a.21.21,0,0,1-.018.42Z" transform="translate(-2566.046 -2231.857)" fill="#f9f9f9"/>
      </g>
      <path id="Path_195843" data-name="Path 195843" d="M2405.756,565.5s.038-6.748,6.64-7.549c12.89-1.565,12.89,16.157,12.89,16.157s-12.132-6.117-13.244-11.051C2412.043,563.057,2408.342,567.527,2405.756,565.5Z" transform="translate(-2324.077 -556.021)" fill="#292929"/>
      <g id="Group_139368" data-name="Group 139368" transform="translate(92.864 12.681)">
        <path id="Path_195844" data-name="Path 195844" d="M2565.628,713.195s2.1-1.662,3.478.156c1.936,2.554-1.155,5.105-2.943,4.488S2565.628,713.195,2565.628,713.195Z" transform="translate(-2565.202 -712.5)" fill="#f9f9f9"/>
        <g id="Group_139366" data-name="Group 139366" transform="translate(0.88 0.585)">
          <path id="Path_195845" data-name="Path 195845" d="M2580.159,724.2a.21.21,0,0,1-.185-.31,2.022,2.022,0,0,0,.27-1.751,1.72,1.72,0,0,0-1.186-.851,1.291,1.291,0,0,0-.974.231.21.21,0,0,1-.257-.333,1.7,1.7,0,0,1,1.333-.306,2.125,2.125,0,0,1,1.469,1.089,2.4,2.4,0,0,1-.283,2.12A.211.211,0,0,1,2580.159,724.2Z" transform="translate(-2577.745 -720.844)" fill="#292929"/>
        </g>
        <g id="Group_139367" data-name="Group 139367" transform="translate(1.587 2.594)">
          <path id="Path_195846" data-name="Path 195846" d="M2588.032,750.321a.21.21,0,0,1-.047-.416l1.852-.424a.21.21,0,0,1,.094.41l-1.852.424A.214.214,0,0,1,2588.032,750.321Z" transform="translate(-2587.822 -749.476)" fill="#292929"/>
        </g>
      </g>
      <g id="Group_139369" data-name="Group 139369" transform="translate(85.507 26.08)">
        <path id="Path_195847" data-name="Path 195847" d="M2467.125,909.609a8.851,8.851,0,0,1-4.539-1.33,9.99,9.99,0,0,1-2.208-1.778.21.21,0,0,1,.317-.276c.031.036,3.157,3.552,7.553,2.878a6.546,6.546,0,0,0,4.617-2.967,7.96,7.96,0,0,0,1.1-2.451.21.21,0,0,1,.412.087,8.224,8.224,0,0,1-1.148,2.584,7.058,7.058,0,0,1-4.912,3.163A7.817,7.817,0,0,1,2467.125,909.609Z" transform="translate(-2460.327 -903.518)" fill="#292929"/>
      </g>
      <g id="Group_139371" data-name="Group 139371" transform="translate(49.933 13.778)">
        <g id="Group_139370" data-name="Group 139370">
          <path id="Path_195848" data-name="Path 195848" d="M1953.538,742.2a.21.21,0,0,1-.2-.161c-.72-2.995,1.655-6.773,2.074-7.408-.113-.349-.5-1.577-.829-2.837-.712-2.751-.535-3.326-.268-3.526a.7.7,0,0,1,.639-.1c1.215.349,3.1,3.438,3.861,5.411.4,1.037-.119,4.023-.626,6.346a.21.21,0,0,1-.411-.09c.7-3.2.927-5.372.644-6.1-.808-2.09-2.621-4.881-3.585-5.158a.282.282,0,0,0-.27.029c-.03.029-.283.364.433,3.122.378,1.456.839,2.857.844,2.871a.211.211,0,0,1-.026.185c-.028.041-2.8,4.13-2.07,7.158a.21.21,0,0,1-.2.26Z" transform="translate(-1953.199 -728.135)" fill="#292929"/>
        </g>
      </g>
      <g id="Group_139372" data-name="Group 139372" transform="translate(87.888 26.275)">
        <path id="Path_195849" data-name="Path 195849" d="M2498.73,910.062a7.455,7.455,0,0,1-4.391-1.514.21.21,0,0,1,.267-.325h0a6.936,6.936,0,0,0,5.67,1.22c3.128-.813,3.746-2.97,3.751-2.992a.21.21,0,0,1,.406.11c-.027.1-.69,2.415-4.052,3.289A6.547,6.547,0,0,1,2498.73,910.062Z" transform="translate(-2494.263 -906.295)" fill="#292929"/>
      </g>
    </g>
    <g id="Group_139387" data-name="Group 139387" transform="translate(899.234 486.9)">
      <g id="Group_139374" data-name="Group 139374" transform="translate(5.331 5.331)">
        <path id="Path_195850" data-name="Path 195850" d="M3418.45,697.166h-37.918a.211.211,0,0,1-.21-.21v-25.1a.21.21,0,0,1,.21-.21h37.918a.21.21,0,0,1,.21.21v25.1A.21.21,0,0,1,3418.45,697.166Zm-37.708-.421h37.5V672.071h-37.5Z" transform="translate(-3380.321 -671.65)" fill="#292929"/>
      </g>
      <g id="Group_139375" data-name="Group 139375" transform="translate(0 0)">
        <rect id="Rectangle_42997" data-name="Rectangle 42997" width="37.918" height="25.095" transform="translate(0.21 0.21)" fill="#f9f9f9"/>
        <path id="Path_195851" data-name="Path 195851" d="M3342.459,621.175h-37.918a.21.21,0,0,1-.21-.21v-25.1a.21.21,0,0,1,.21-.21h37.918a.21.21,0,0,1,.21.21v25.1A.21.21,0,0,1,3342.459,621.175Zm-37.708-.421h37.5V596.08h-37.5Z" transform="translate(-3304.33 -595.659)" fill="#292929"/>
      </g>
      <g id="Group_139376" data-name="Group 139376" transform="translate(0 4.968)">
        <path id="Path_195852" data-name="Path 195852" d="M3307.33,669.481h0Z" transform="translate(-3307.12 -669.271)" fill="#f9f9f9"/>
        <path id="Path_195853" data-name="Path 195853" d="M3342.459,666.9h-37.918a.21.21,0,1,1,0-.421h37.918a.21.21,0,1,1,0,.421Z" transform="translate(-3304.33 -666.481)" fill="#292929"/>
      </g>
      <g id="Group_139377" data-name="Group 139377" transform="translate(33.46 1.146)">
        <circle id="Ellipse_5156" data-name="Ellipse 5156" cx="1.369" cy="1.369" r="1.369" transform="translate(0.21 0.21)" fill="#f9f9f9"/>
        <path id="Path_195854" data-name="Path 195854" d="M3782.893,615.162a1.58,1.58,0,1,1,1.58-1.58A1.581,1.581,0,0,1,3782.893,615.162Zm0-2.739a1.159,1.159,0,1,0,1.159,1.159A1.16,1.16,0,0,0,3782.893,612.423Z" transform="translate(-3781.313 -612.002)" fill="#292929"/>
      </g>
      <g id="Group_139381" data-name="Group 139381" transform="translate(3.753 9.172)">
        <g id="Group_139378" data-name="Group 139378">
          <rect id="Rectangle_42998" data-name="Rectangle 42998" width="16.258" height="11.72" transform="translate(0.21 0.21)" fill="#f9f9f9"/>
          <path id="Path_195855" data-name="Path 195855" d="M3374.294,738.547h-16.258a.21.21,0,0,1-.21-.21v-11.72a.21.21,0,0,1,.21-.21h16.258a.21.21,0,0,1,.21.21v11.72A.21.21,0,0,1,3374.294,738.547Zm-16.048-.421h15.837v-11.3h-15.837Z" transform="translate(-3357.826 -726.407)" fill="#292929"/>
        </g>
        <g id="Group_139379" data-name="Group 139379" transform="translate(0 0)">
          <path id="Path_195856" data-name="Path 195856" d="M3360.826,729.407l16.258,11.72Z" transform="translate(-3360.616 -729.197)" fill="#f9f9f9"/>
          <path id="Path_195857" data-name="Path 195857" d="M3374.294,738.548a.21.21,0,0,1-.123-.04l-16.258-11.72a.21.21,0,0,1,.246-.341l16.258,11.719a.211.211,0,0,1-.123.381Z" transform="translate(-3357.826 -726.408)" fill="#292929"/>
        </g>
        <g id="Group_139380" data-name="Group 139380" transform="translate(0 0)">
          <path id="Path_195858" data-name="Path 195858" d="M3377.084,729.407l-16.258,11.72Z" transform="translate(-3360.616 -729.197)" fill="#f9f9f9"/>
          <path id="Path_195859" data-name="Path 195859" d="M3358.037,738.548a.211.211,0,0,1-.123-.381l16.258-11.719a.21.21,0,0,1,.246.341l-16.258,11.72A.209.209,0,0,1,3358.037,738.548Z" transform="translate(-3357.826 -726.408)" fill="#292929"/>
        </g>
      </g>
      <g id="Group_139386" data-name="Group 139386" transform="translate(24.469 10.318)">
        <g id="Group_139382" data-name="Group 139382">
          <path id="Path_195860" data-name="Path 195860" d="M3656.15,745.75h0Z" transform="translate(-3655.939 -745.54)" fill="#f9f9f9"/>
          <path id="Path_195861" data-name="Path 195861" d="M3663.265,743.171h-9.9a.21.21,0,0,1,0-.421h9.9a.21.21,0,0,1,0,.421Z" transform="translate(-3653.15 -742.75)" fill="#292929"/>
        </g>
        <g id="Group_139383" data-name="Group 139383" transform="translate(0 3.057)">
          <path id="Path_195862" data-name="Path 195862" d="M3656.15,789.333h0Z" transform="translate(-3655.939 -789.123)" fill="#f9f9f9"/>
          <path id="Path_195863" data-name="Path 195863" d="M3663.265,786.754h-9.9a.21.21,0,0,1,0-.421h9.9a.21.21,0,0,1,0,.421Z" transform="translate(-3653.15 -786.333)" fill="#292929"/>
        </g>
        <g id="Group_139384" data-name="Group 139384" transform="translate(0 6.115)">
          <path id="Path_195864" data-name="Path 195864" d="M3656.15,832.916h0Z" transform="translate(-3655.939 -832.706)" fill="#f9f9f9"/>
          <path id="Path_195865" data-name="Path 195865" d="M3663.265,830.337h-9.9a.21.21,0,0,1,0-.421h9.9a.21.21,0,0,1,0,.421Z" transform="translate(-3653.15 -829.916)" fill="#292929"/>
        </g>
        <g id="Group_139385" data-name="Group 139385" transform="translate(0 9.172)">
          <path id="Path_195866" data-name="Path 195866" d="M3656.15,876.5h0Z" transform="translate(-3655.939 -876.288)" fill="#f9f9f9"/>
          <path id="Path_195867" data-name="Path 195867" d="M3663.265,873.919h-9.9a.21.21,0,1,1,0-.421h9.9a.21.21,0,1,1,0,.421Z" transform="translate(-3653.15 -873.498)" fill="#292929"/>
        </g>
      </g>
    </g>
    <g id="Group_139396" data-name="Group 139396" transform="translate(767.603 630.558)">
      <g id="Group_139393" data-name="Group 139393" transform="translate(0)">
        <g id="Group_139388" data-name="Group 139388">
          <path id="Path_195868" data-name="Path 195868" d="M1455.517,2646.563H1434.1a3.217,3.217,0,0,0-3.217,3.217v17.436l5.645-4.332h18.993a3.217,3.217,0,0,0,3.217-3.217v-9.888A3.217,3.217,0,0,0,1455.517,2646.563Z" transform="translate(-1430.669 -2646.353)" fill="#f9f9f9"/>
          <path id="Path_195869" data-name="Path 195869" d="M1428.089,2664.637a.21.21,0,0,1-.21-.21V2646.99a3.431,3.431,0,0,1,3.427-3.427h21.421a3.431,3.431,0,0,1,3.427,3.427v9.888a3.431,3.431,0,0,1-3.427,3.427h-18.922l-5.588,4.288A.21.21,0,0,1,1428.089,2664.637Zm3.217-20.653a3.01,3.01,0,0,0-3.006,3.006V2664l5.306-4.072a.21.21,0,0,1,.128-.044h18.993a3.009,3.009,0,0,0,3.006-3.006v-9.888a3.01,3.01,0,0,0-3.006-3.006Z" transform="translate(-1427.879 -2643.563)" fill="#292929"/>
        </g>
        <g id="Group_139392" data-name="Group 139392" transform="translate(4.052 5.702)">
          <g id="Group_139389" data-name="Group 139389" transform="translate(0 0)">
            <circle id="Ellipse_5157" data-name="Ellipse 5157" cx="2.323" cy="2.323" r="2.323" transform="matrix(0.162, -0.987, 0.987, 0.162, 0, 4.585)" fill="#f9f9f9"/>
            <path id="Path_195870" data-name="Path 195870" d="M1490.1,2731.842a2.534,2.534,0,1,1,2.534-2.534A2.537,2.537,0,0,1,1490.1,2731.842Zm0-4.646a2.113,2.113,0,1,0,2.113,2.113A2.115,2.115,0,0,0,1490.1,2727.2Z" transform="translate(-1487.43 -2726.64)" fill="#292929"/>
          </g>
          <g id="Group_139390" data-name="Group 139390" transform="translate(7.417 0)">
            <circle id="Ellipse_5158" data-name="Ellipse 5158" cx="2.323" cy="2.323" r="2.323" transform="matrix(0.162, -0.987, 0.987, 0.162, 0, 4.585)" fill="#f9f9f9"/>
            <path id="Path_195871" data-name="Path 195871" d="M1595.833,2731.842a2.534,2.534,0,1,1,2.534-2.534A2.537,2.537,0,0,1,1595.833,2731.842Zm0-4.646a2.113,2.113,0,1,0,2.113,2.113A2.115,2.115,0,0,0,1595.833,2727.2Z" transform="translate(-1593.164 -2726.64)" fill="#292929"/>
          </g>
          <g id="Group_139391" data-name="Group 139391" transform="translate(14.834 0)">
            <circle id="Ellipse_5159" data-name="Ellipse 5159" cx="2.323" cy="2.323" r="2.323" transform="matrix(0.162, -0.987, 0.987, 0.162, 0, 4.585)" fill="#f9f9f9"/>
            <path id="Path_195872" data-name="Path 195872" d="M1701.568,2731.842a2.534,2.534,0,1,1,2.534-2.534A2.537,2.537,0,0,1,1701.568,2731.842Zm0-4.646a2.113,2.113,0,1,0,2.113,2.113A2.115,2.115,0,0,0,1701.568,2727.2Z" transform="translate(-1698.899 -2726.64)" fill="#292929"/>
          </g>
        </g>
      </g>
      <g id="Group_139395" data-name="Group 139395" transform="translate(15.268 7.851)">
        <rect id="Rectangle_42999" data-name="Rectangle 42999" width="27.855" height="16.321" rx="8.161" transform="translate(27.855 16.321) rotate(180)" fill="#636363"/>
        <path id="Path_195873" data-name="Path 195873" d="M1919.428,2913.653v9.558l-9.293-7.132Z" transform="translate(-1891.573 -2902.558)" fill="#636363"/>
        <g id="Group_139394" data-name="Group 139394" transform="translate(4.187 5.837)">
          <circle id="Ellipse_5160" data-name="Ellipse 5160" cx="2.323" cy="2.323" r="2.323" transform="translate(14.834)" fill="#f9f9f9"/>
          <circle id="Ellipse_5161" data-name="Ellipse 5161" cx="2.323" cy="2.323" r="2.323" transform="translate(7.417 0)" fill="#f9f9f9"/>
          <circle id="Ellipse_5162" data-name="Ellipse 5162" cx="2.323" cy="2.323" r="2.323" transform="translate(0 0)" fill="#f9f9f9"/>
        </g>
      </g>
    </g>
    <circle id="Ellipse_5163" data-name="Ellipse 5163" cx="2.265" cy="2.265" r="2.265" transform="translate(789.381 594.992)" fill="#f0edea"/>
    <circle id="Ellipse_5164" data-name="Ellipse 5164" cx="3.518" cy="3.518" r="3.518" transform="matrix(0.23, -0.973, 0.973, 0.23, 903.842, 547.86)" fill="#f0edea"/>
    <circle id="Ellipse_5165" data-name="Ellipse 5165" cx="1.886" cy="1.886" r="1.886" transform="translate(717.791 626.997)" fill="#5d65cf"/>
    <g id="Group_139397" data-name="Group 139397" transform="translate(965.19 626.786)">
      <path id="Path_195874" data-name="Path 195874" d="M4246.657,2593.988a2.1,2.1,0,1,1,2.1-2.1A2.1,2.1,0,0,1,4246.657,2593.988Zm0-3.772a1.675,1.675,0,1,0,1.676,1.675A1.677,1.677,0,0,0,4246.657,2590.216Z" transform="translate(-4244.561 -2589.795)" fill="#292929"/>
    </g>
  </g>
</svg>
