<svg xmlns="http://www.w3.org/2000/svg" xmlns:xlink="http://www.w3.org/1999/xlink" width="283.583" height="218.922" viewBox="0 0 283.583 218.922">
  <defs>
    <clipPath id="clip-path">
      <rect id="Rectangle_43023" data-name="Rectangle 43023" width="24.865" height="24.868" fill="none"/>
    </clipPath>
  </defs>
  <g id="Group_139655" data-name="Group 139655" transform="translate(-699.348 -456.259)">
    <circle id="Ellipse_5182" data-name="Ellipse 5182" cx="2.355" cy="2.355" r="2.355" transform="translate(830.907 489.881)" fill="#f9f9f9"/>
    <g id="Group_139501" data-name="Group 139501" transform="translate(868.192 471.557)">
      <rect id="Rectangle_43015" data-name="Rectangle 43015" width="1.489" height="7.692" transform="translate(7.325 2.006) rotate(72.211)" fill="#5856b8"/>
      <rect id="Rectangle_43016" data-name="Rectangle 43016" width="1.489" height="7.692" transform="translate(5.774 7.325) rotate(162.211)" fill="#5856b8"/>
    </g>
    <g id="Group_139502" data-name="Group 139502" transform="translate(769.621 545.67)">
      <rect id="Rectangle_43017" data-name="Rectangle 43017" width="1.542" height="7.965" transform="translate(7.584 2.077) rotate(72.211)" fill="#5856b8"/>
      <rect id="Rectangle_43018" data-name="Rectangle 43018" width="1.542" height="7.965" transform="translate(5.978 7.584) rotate(162.211)" fill="#5856b8"/>
    </g>
    <g id="Group_139563" data-name="Group 139563" transform="translate(767.888 588.651)">
      <g id="Group_139503" data-name="Group 139503" transform="translate(0 0)">
        <rect id="Rectangle_43019" data-name="Rectangle 43019" width="179.938" height="86.033" transform="translate(0.113 0.113)" fill="#f9f9f9"/>
        <path id="Path_195975" data-name="Path 195975" d="M1485.307,1801.911H1305.143v-86.259h180.164Zm-179.938-.226h179.711v-85.806H1305.369Z" transform="translate(-1305.143 -1715.652)" fill="#292929"/>
      </g>
      <g id="Group_139504" data-name="Group 139504" transform="translate(0.127 12.933)">
        <path id="Path_195976" data-name="Path 195976" d="M1306.265,1830.961h0Z" transform="translate(-1306.265 -1830.848)" fill="#f9f9f9"/>
        <rect id="Rectangle_43020" data-name="Rectangle 43020" width="180.051" height="0.226" transform="translate(0)" fill="#292929"/>
      </g>
      <g id="Group_139505" data-name="Group 139505" transform="translate(171.891 3.388)">
        <circle id="Ellipse_5183" data-name="Ellipse 5183" cx="2.935" cy="2.935" r="2.935" transform="translate(0.113 0.113)" fill="#f9f9f9"/>
        <path id="Path_195977" data-name="Path 195977" d="M2827.461,1751.692a3.048,3.048,0,1,1,3.048-3.049A3.052,3.052,0,0,1,2827.461,1751.692Zm0-5.871a2.822,2.822,0,1,0,2.822,2.822A2.825,2.825,0,0,0,2827.461,1745.821Z" transform="translate(-2824.412 -1745.595)" fill="#292929"/>
      </g>
      <g id="Group_139506" data-name="Group 139506" transform="translate(163.273 3.388)">
        <circle id="Ellipse_5184" data-name="Ellipse 5184" cx="2.935" cy="2.935" r="2.935" transform="translate(0.113 0.113)" fill="#f9f9f9"/>
        <path id="Path_195978" data-name="Path 195978" d="M2751.288,1751.692a3.048,3.048,0,1,1,3.049-3.049A3.052,3.052,0,0,1,2751.288,1751.692Zm0-5.871a2.822,2.822,0,1,0,2.822,2.822A2.825,2.825,0,0,0,2751.288,1745.821Z" transform="translate(-2748.24 -1745.595)" fill="#292929"/>
      </g>
      <g id="Group_139507" data-name="Group 139507" transform="translate(154.654 3.388)">
        <circle id="Ellipse_5185" data-name="Ellipse 5185" cx="2.935" cy="2.935" r="2.935" transform="translate(0.113 0.113)" fill="#f9f9f9"/>
        <path id="Path_195979" data-name="Path 195979" d="M2675.116,1751.692a3.048,3.048,0,1,1,3.049-3.049A3.052,3.052,0,0,1,2675.116,1751.692Zm0-5.871a2.822,2.822,0,1,0,2.823,2.822A2.825,2.825,0,0,0,2675.116,1745.821Z" transform="translate(-2672.068 -1745.595)" fill="#292929"/>
      </g>
      <g id="Group_139519" data-name="Group 139519" transform="translate(137.286 21.456)">
        <rect id="Rectangle_43021" data-name="Rectangle 43021" width="24.865" height="24.868" fill="#f9f9f9"/>
        <g id="Group_139508" data-name="Group 139508" transform="translate(2.289 4.392)">
          <path id="Path_195980" data-name="Path 195980" d="M2538.9,1969.5a.113.113,0,0,1-.113-.113v-24.868a.113.113,0,0,1,.112-.113l27.31-.295a.12.12,0,0,1,.081.033.113.113,0,0,1,.034.08V1969.1a.113.113,0,0,1-.112.113l-27.31.295Zm.113-24.869v24.642l27.084-.293v-24.641Zm27.2,24.461h0Z" transform="translate(-2538.79 -1944.114)" fill="#292929"/>
        </g>
        <g id="Group_139518" data-name="Group 139518" transform="translate(9.696 9.011)">
          <g id="Group_139517" data-name="Group 139517" clip-path="url(#clip-path)">
            <rect id="Rectangle_43022" data-name="Rectangle 43022" width="24.865" height="24.868" fill="#292929"/>
            <g id="Group_139509" data-name="Group 139509" transform="translate(-10.389 -8.972)">
              <path id="Path_195981" data-name="Path 195981" d="M2512.54,1928.867a.112.112,0,0,1-.084-.037.113.113,0,0,1,.008-.16l25.387-23a.113.113,0,1,1,.152.168l-25.387,23A.113.113,0,0,1,2512.54,1928.867Z" transform="translate(-2512.427 -1905.64)" fill="#f9f9f9"/>
            </g>
            <g id="Group_139510" data-name="Group 139510" transform="translate(-7.568 -6.905)">
              <path id="Path_195982" data-name="Path 195982" d="M2537.475,1947.131a.113.113,0,0,1-.076-.2l25.387-23a.113.113,0,0,1,.152.168l-25.387,23A.113.113,0,0,1,2537.475,1947.131Z" transform="translate(-2537.362 -1923.904)" fill="#f9f9f9"/>
            </g>
            <g id="Group_139511" data-name="Group 139511" transform="translate(-4.747 -4.52)">
              <path id="Path_195983" data-name="Path 195983" d="M2562.41,1968.216a.113.113,0,0,1-.076-.2l25.387-23a.113.113,0,0,1,.152.168l-25.387,23A.113.113,0,0,1,2562.41,1968.216Z" transform="translate(-2562.296 -1944.989)" fill="#f9f9f9"/>
            </g>
            <g id="Group_139512" data-name="Group 139512" transform="translate(-1.926 -1.949)">
              <path id="Path_195984" data-name="Path 195984" d="M2587.344,1990.94a.113.113,0,0,1-.076-.2l25.387-23a.113.113,0,1,1,.152.168l-25.387,23A.112.112,0,0,1,2587.344,1990.94Z" transform="translate(-2587.231 -1967.714)" fill="#f9f9f9"/>
            </g>
            <g id="Group_139513" data-name="Group 139513" transform="translate(-1.926 1.162)">
              <path id="Path_195985" data-name="Path 195985" d="M2587.344,2020.987a.113.113,0,0,1-.076-.2l28.208-25.556a.113.113,0,1,1,.152.167l-28.208,25.556A.112.112,0,0,1,2587.344,2020.987Z" transform="translate(-2587.231 -1995.205)" fill="#f9f9f9"/>
            </g>
            <g id="Group_139514" data-name="Group 139514" transform="translate(3.716 4.142)">
              <path id="Path_195986" data-name="Path 195986" d="M2637.213,2044.775a.113.113,0,0,1-.076-.2l25.387-23a.113.113,0,1,1,.152.168l-25.387,23A.113.113,0,0,1,2637.213,2044.775Z" transform="translate(-2637.1 -2021.549)" fill="#f9f9f9"/>
            </g>
            <g id="Group_139515" data-name="Group 139515" transform="translate(6.537 7.322)">
              <path id="Path_195987" data-name="Path 195987" d="M2662.148,2072.877a.113.113,0,0,1-.076-.2l25.387-23a.113.113,0,0,1,.152.168l-25.387,23A.114.114,0,0,1,2662.148,2072.877Z" transform="translate(-2662.035 -2049.65)" fill="#f9f9f9"/>
            </g>
            <g id="Group_139516" data-name="Group 139516" transform="translate(9.358 10.776)">
              <path id="Path_195988" data-name="Path 195988" d="M2687.082,2103.408a.113.113,0,0,1-.076-.2l25.387-23a.113.113,0,1,1,.152.167l-25.387,23A.114.114,0,0,1,2687.082,2103.408Z" transform="translate(-2686.969 -2080.181)" fill="#f9f9f9"/>
            </g>
          </g>
        </g>
      </g>
      <g id="Group_139533" data-name="Group 139533" transform="translate(10.946 21.166)">
        <g id="Group_139520" data-name="Group 139520">
          <path id="Path_195989" data-name="Path 195989" d="M1439.545,1931.024H1404.93a3.041,3.041,0,0,1-3.038-3.038v-22.219a3.041,3.041,0,0,1,3.038-3.038h34.615a3.041,3.041,0,0,1,3.038,3.038v22.219A3.041,3.041,0,0,1,1439.545,1931.024Zm-34.615-28.068a2.815,2.815,0,0,0-2.812,2.812v22.219a2.815,2.815,0,0,0,2.812,2.812h34.615a2.815,2.815,0,0,0,2.812-2.812v-22.219a2.815,2.815,0,0,0-2.812-2.812Z" transform="translate(-1401.892 -1902.729)" fill="#5856b8"/>
        </g>
        <g id="Group_139521" data-name="Group 139521" transform="translate(4.457 2.797)">
          <path id="Path_195990" data-name="Path 195990" d="M1445.664,1936.2a4.378,4.378,0,1,1,4.378-4.378A4.383,4.383,0,0,1,1445.664,1936.2Zm0-8.53a4.152,4.152,0,1,0,4.152,4.152A4.157,4.157,0,0,0,1445.664,1927.674Z" transform="translate(-1441.286 -1927.448)" fill="#5856b8"/>
        </g>
        <g id="Group_139525" data-name="Group 139525" transform="translate(15.863 5.09)">
          <g id="Group_139524" data-name="Group 139524">
            <g id="Group_139522" data-name="Group 139522">
              <path id="Path_195991" data-name="Path 195991" d="M1562.674,1949.4h-19.736a.843.843,0,0,1,0-1.686h19.736a.843.843,0,1,1,0,1.686Zm-19.736-1.46a.617.617,0,0,0,0,1.233h19.736a.617.617,0,1,0,0-1.233Z" transform="translate(-1542.095 -1947.718)" fill="#5856b8"/>
            </g>
            <g id="Group_139523" data-name="Group 139523" transform="translate(0 2.881)">
              <path id="Path_195992" data-name="Path 195992" d="M1552.076,1974.872h-9.138a.843.843,0,0,1,0-1.686h9.138a.843.843,0,0,1,0,1.686Zm-9.138-1.46a.617.617,0,0,0,0,1.234h9.138a.617.617,0,0,0,0-1.234Z" transform="translate(-1542.095 -1973.186)" fill="#5856b8"/>
            </g>
          </g>
        </g>
        <g id="Group_139531" data-name="Group 139531" transform="translate(4.861 16.683)">
          <g id="Group_139530" data-name="Group 139530">
            <g id="Group_139526" data-name="Group 139526" transform="translate(24.071)">
              <path id="Path_195993" data-name="Path 195993" d="M1661.988,2058.936a4.378,4.378,0,1,1,4.378-4.378A4.383,4.383,0,0,1,1661.988,2058.936Zm0-8.531a4.152,4.152,0,1,0,4.152,4.152A4.157,4.157,0,0,0,1661.988,2050.405Z" transform="translate(-1657.61 -2050.179)" fill="#5856b8"/>
            </g>
            <g id="Group_139529" data-name="Group 139529" transform="translate(0 2.293)">
              <g id="Group_139527" data-name="Group 139527">
                <path id="Path_195994" data-name="Path 195994" d="M1465.435,2072.134H1445.7a.843.843,0,0,1,0-1.686h19.736a.843.843,0,0,1,0,1.686Zm-19.736-1.46a.617.617,0,1,0,0,1.234h19.736a.617.617,0,0,0,0-1.234Z" transform="translate(-1444.856 -2070.448)" fill="#5856b8"/>
              </g>
              <g id="Group_139528" data-name="Group 139528" transform="translate(10.598 2.882)">
                <path id="Path_195995" data-name="Path 195995" d="M1548.507,2097.6h-9.138a.843.843,0,1,1,0-1.686h9.138a.843.843,0,1,1,0,1.686Zm-9.138-1.46a.617.617,0,0,0,0,1.234h9.138a.617.617,0,0,0,0-1.234Z" transform="translate(-1538.526 -2095.917)" fill="#5856b8"/>
              </g>
            </g>
          </g>
        </g>
        <g id="Group_139532" data-name="Group 139532" transform="translate(0.113 14.034)">
          <rect id="Rectangle_43024" data-name="Rectangle 43024" width="40.464" height="0.226" fill="#5856b8"/>
        </g>
      </g>
      <g id="Group_139538" data-name="Group 139538" transform="translate(56.341 21.166)">
        <g id="Group_139535" data-name="Group 139535">
          <g id="Group_139534" data-name="Group 139534">
            <path id="Path_195996" data-name="Path 195996" d="M1803.232,1931.095l-.114-28.256h.113l30.506-.113.114,28.256h-.113Zm.114-28.031.112,27.8,30.167-.111-.112-27.8Z" transform="translate(-1803.118 -1902.725)" fill="#292929"/>
          </g>
        </g>
        <g id="Group_139536" data-name="Group 139536" transform="translate(0.129 4.281)">
          <rect id="Rectangle_43025" data-name="Rectangle 43025" width="30.393" height="0.226" transform="matrix(1, -0.004, 0.004, 1, 0, 0.111)" fill="#292929"/>
        </g>
        <g id="Group_139537" data-name="Group 139537" transform="translate(2.516 8.091)">
          <path id="Path_195997" data-name="Path 195997" d="M1825.358,2010.319l25.632-.095s-1.784-6.911-4.839-7.385c-3.8-.59-5.425,3.667-7.93,1.733s-3.75-7.388-6.711-7.323C1827.481,1997.338,1825.358,2010.319,1825.358,2010.319Z" transform="translate(-1825.358 -1994.646)" fill="#292929"/>
          <circle id="Ellipse_5186" data-name="Ellipse 5186" cx="2.007" cy="2.007" r="2.007" transform="translate(13.279 2.838) rotate(-45)" fill="#292929"/>
        </g>
      </g>
      <g id="Group_139548" data-name="Group 139548" transform="translate(92.778 21.279)">
        <path id="Path_195998" data-name="Path 195998" d="M2162.156,1959.739h-36.988v-55.874l36.988-.137Z" transform="translate(-2125.169 -1903.728)" fill="#636363"/>
        <g id="Group_139539" data-name="Group 139539" transform="translate(13.84 8.01)">
          <circle id="Ellipse_5187" data-name="Ellipse 5187" cx="4.741" cy="4.741" r="4.741" transform="matrix(0.015, -1, 1, 0.015, 0, 9.481)" fill="#5856b8"/>
          <path id="Path_195999" data-name="Path 195999" d="M2283.793,2000.211l-3.771,2.113.056-4.322Z" transform="translate(-2276.342 -1995.345)" fill="#f9f9f9"/>
        </g>
        <g id="Group_139547" data-name="Group 139547" transform="translate(6.955 23.589)">
          <g id="Group_139544" data-name="Group 139544">
            <path id="Path_196000" data-name="Path 196000" d="M2187.021,2140.323l23.521.12.074-28.105-23.521-.12Z" transform="translate(-2186.979 -2112.217)" fill="#f9f9f9"/>
            <g id="Group_139540" data-name="Group 139540" transform="translate(0 4.839)">
              <path id="Path_196001" data-name="Path 196001" d="M2210.28,2155.331h0l-23.521-.119a.113.113,0,0,1,0-.226h0l23.522.119a.113.113,0,0,1,0,.226Z" transform="translate(-2186.645 -2154.985)" fill="#292929"/>
            </g>
            <g id="Group_139543" data-name="Group 139543" transform="translate(1.958 1.623)">
              <g id="Group_139541" data-name="Group 139541" transform="translate(0 0.001)">
                <path id="Path_196002" data-name="Path 196002" d="M2204.061,2128.562a.113.113,0,0,1-.08-.193l1.766-1.764a.113.113,0,0,1,.16.16l-1.766,1.764A.113.113,0,0,1,2204.061,2128.562Z" transform="translate(-2203.948 -2126.573)" fill="#f9f9f9"/>
              </g>
              <g id="Group_139542" data-name="Group 139542" transform="translate(0.001)">
                <path id="Path_196003" data-name="Path 196003" d="M2205.836,2128.553a.112.112,0,0,1-.08-.033l-1.764-1.766a.113.113,0,1,1,.16-.16l1.764,1.766a.113.113,0,0,1-.08.193Z" transform="translate(-2203.959 -2126.561)" fill="#f9f9f9"/>
              </g>
            </g>
          </g>
          <g id="Group_139546" data-name="Group 139546" transform="translate(1.251 5.141)">
            <circle id="Ellipse_5188" data-name="Ellipse 5188" cx="7.493" cy="7.493" r="7.493" transform="translate(0 10.597) rotate(-45)" fill="#f9f9f9"/>
            <g id="Group_139545" data-name="Group 139545" transform="translate(6.322 6.025)">
              <path id="Path_196004" data-name="Path 196004" d="M2253.585,2255.478l8.59-.041a4.295,4.295,0,0,0-8.59.041Z" transform="translate(-2253.585 -2246.609)" fill="#5856b8"/>
              <circle id="Ellipse_5189" data-name="Ellipse 5189" cx="1.945" cy="1.945" r="1.945" transform="translate(2.024 3.837) rotate(-80.492)" fill="#5856b8"/>
            </g>
          </g>
        </g>
      </g>
      <g id="Group_139551" data-name="Group 139551" transform="translate(135.364 62.368)">
        <g id="Group_139549" data-name="Group 139549">
          <path id="Path_196005" data-name="Path 196005" d="M2539.89,2282h-.113l-38.209-.213.083-14.893h.113l38.208.213Zm-38.094-.439,37.869.211.081-14.44-37.869-.211Z" transform="translate(-2501.568 -2266.893)" fill="#f9f9f9"/>
        </g>
        <g id="Group_139550" data-name="Group 139550" transform="translate(4.211 3.485)">
          <path id="Path_196006" data-name="Path 196006" d="M2547.6,2307.113a.112.112,0,0,1-.073-.026l-8.693-7.281a.113.113,0,1,1,.145-.174l8.61,7.212,8.379-9.115a.114.114,0,0,1,.154-.012l7.472,6,5.775-3.724a.113.113,0,1,1,.123.19l-5.844,3.768a.114.114,0,0,1-.132-.007l-7.453-5.987-8.381,9.117A.114.114,0,0,1,2547.6,2307.113Z" transform="translate(-2538.79 -2297.691)" fill="#292929"/>
        </g>
        <circle id="Ellipse_5190" data-name="Ellipse 5190" cx="0.389" cy="0.389" r="0.389" transform="translate(3.95 5.21)" fill="#292929"/>
        <circle id="Ellipse_5191" data-name="Ellipse 5191" cx="0.389" cy="0.389" r="0.389" transform="translate(12.635 12.279)" fill="#292929"/>
        <path id="Path_196007" data-name="Path 196007" d="M2689.2,2296.7a.389.389,0,1,1-.387-.391A.389.389,0,0,1,2689.2,2296.7Z" transform="translate(-2667.285 -2292.982)" fill="#292929"/>
        <path id="Path_196008" data-name="Path 196008" d="M2754.735,2347.5a.389.389,0,1,1-.469.288A.389.389,0,0,1,2754.735,2347.5Z" transform="translate(-2725.667 -2338.372)" fill="#292929"/>
        <path id="Path_196009" data-name="Path 196009" d="M2806.623,2316.04a.389.389,0,1,1-.469.289A.389.389,0,0,1,2806.623,2316.04Z" transform="translate(-2771.683 -2310.47)" fill="#292929"/>
      </g>
      <g id="Group_139562" data-name="Group 139562" transform="translate(10.939 59.238)">
        <g id="Group_139558" data-name="Group 139558">
          <g id="Group_139557" data-name="Group 139557">
            <g id="Group_139556" data-name="Group 139556">
              <g id="Group_139553" data-name="Group 139553">
                <g id="Group_139552" data-name="Group 139552">
                  <path id="Path_196010" data-name="Path 196010" d="M1425.87,2252.667h-24.045V2239.23h.113l23.842.035Zm-23.819-.227h23.591l-.087-12.95-23.5-.035Z" transform="translate(-1401.825 -2239.23)" fill="#292929"/>
                </g>
              </g>
              <g id="Group_139555" data-name="Group 139555" transform="translate(0.062 0.087)">
                <g id="Group_139554" data-name="Group 139554">
                  <path id="Path_196011" data-name="Path 196011" d="M1414.516,2246.419l-12.147-6.216.1-.2,12.042,6.162,11.464-6.085.106.2Z" transform="translate(-1402.37 -2240.002)" fill="#292929"/>
                </g>
              </g>
            </g>
          </g>
        </g>
        <g id="Group_139559" data-name="Group 139559" transform="translate(27.799 1.006)">
          <path id="Path_196012" data-name="Path 196012" d="M1683.215,2250.538h-34.479a1.21,1.21,0,1,1,0-2.42h34.479a1.21,1.21,0,1,1,0,2.42Zm-34.479-2.194a.984.984,0,1,0,0,1.968h34.479a.984.984,0,1,0,0-1.968Z" transform="translate(-1647.526 -2248.118)" fill="#292929"/>
        </g>
        <g id="Group_139560" data-name="Group 139560" transform="translate(27.799 5.426)">
          <path id="Path_196013" data-name="Path 196013" d="M1678.566,2289.609h-29.83a1.21,1.21,0,1,1,0-2.42h29.83a1.21,1.21,0,1,1,0,2.42Zm-29.83-2.194a.984.984,0,1,0,0,1.968h29.83a.984.984,0,0,0,0-1.968Z" transform="translate(-1647.526 -2287.189)" fill="#292929"/>
        </g>
        <g id="Group_139561" data-name="Group 139561" transform="translate(27.799 9.923)">
          <path id="Path_196014" data-name="Path 196014" d="M1688.406,2329.352h-39.67a1.21,1.21,0,1,1,0-2.42h39.67a1.21,1.21,0,1,1,0,2.42Zm-39.67-2.194a.984.984,0,1,0,0,1.968h39.67a.984.984,0,1,0,0-1.968Z" transform="translate(-1647.526 -2326.932)" fill="#292929"/>
        </g>
      </g>
    </g>
    <g id="Group_139566" data-name="Group 139566" transform="translate(705.736 456.259)">
      <g id="Group_139564" data-name="Group 139564" transform="translate(0 0)">
        <rect id="Rectangle_43026" data-name="Rectangle 43026" width="115.149" height="66.926" transform="translate(0.113 0.113)" fill="#f9f9f9"/>
        <path id="Path_196015" data-name="Path 196015" d="M871.185,612.649H755.809V545.5H871.185Zm-115.149-.226H870.958v-66.7H756.035Z" transform="translate(-755.809 -545.497)" fill="#292929"/>
      </g>
      <rect id="Rectangle_43027" data-name="Rectangle 43027" width="115.149" height="8.502" transform="translate(0.113 0.113)" fill="#4dd0e1"/>
      <g id="Group_139565" data-name="Group 139565" transform="translate(0.113 8.502)">
        <rect id="Rectangle_43028" data-name="Rectangle 43028" width="115.149" height="0.226" fill="#292929"/>
      </g>
    </g>
    <g id="Group_139569" data-name="Group 139569" transform="translate(712.491 475.331)">
      <g id="Group_139567" data-name="Group 139567" transform="translate(0 0)">
        <path id="Path_196016" data-name="Path 196016" d="M858.818,729.543H823.25a7.739,7.739,0,1,1,0-15.478h35.568a7.739,7.739,0,1,1,0,15.478ZM823.25,714.291a7.513,7.513,0,1,0,0,15.026h35.568a7.513,7.513,0,1,0,0-15.026Z" transform="translate(-815.511 -714.065)" fill="#292929"/>
      </g>
      <g id="Group_139568" data-name="Group 139568" transform="translate(5.83 7.626)">
        <rect id="Rectangle_43029" data-name="Rectangle 43029" width="39.386" height="0.226" fill="#5856b8"/>
      </g>
    </g>
    <g id="Group_139572" data-name="Group 139572" transform="translate(699.348 510.256)">
      <g id="Group_139570" data-name="Group 139570" transform="translate(2.506 2.506)">
        <path id="Path_196017" data-name="Path 196017" d="M745.615,1065.478H721.5V1044.9h24.119Zm-23.893-.226h23.667v-20.123H721.722Z" transform="translate(-721.496 -1044.902)" fill="#292929"/>
      </g>
      <rect id="Rectangle_43030" data-name="Rectangle 43030" width="23.893" height="20.35" transform="translate(0 0)" fill="#636363"/>
      <g id="Group_139571" data-name="Group 139571" transform="translate(3.268 4.751)">
        <path id="Path_196018" data-name="Path 196018" d="M736.235,1075.448l-1.042-2.96h-4.075l-1.043,2.96h-1.844l3.966-10.7h1.939l3.958,10.7Zm-1.494-4.454-1.013-2.923q-.059-.189-.168-.532t-.219-.707q-.109-.365-.182-.612-.073.3-.179.667t-.2.693l-.15.492-1.021,2.923Z" transform="translate(-728.231 -1064.746)" fill="#f9f9f9"/>
        <path id="Path_196019" data-name="Path 196019" d="M825,1086.653a3.449,3.449,0,0,1,2.315.678,2.649,2.649,0,0,1,.784,2.114v5.431h-1.217l-.335-1.145h-.058a4.294,4.294,0,0,1-.707.725,2.441,2.441,0,0,1-.838.427,4.18,4.18,0,0,1-1.159.139,3.025,3.025,0,0,1-1.3-.266,2.006,2.006,0,0,1-.893-.813,2.68,2.68,0,0,1-.324-1.385,2.11,2.11,0,0,1,.929-1.874,5.423,5.423,0,0,1,2.81-.693l1.392-.051v-.423a1.324,1.324,0,0,0-1.48-1.546,3.965,3.965,0,0,0-1.174.175,8.979,8.979,0,0,0-1.108.423l-.561-1.21a6.367,6.367,0,0,1,1.352-.51A6.2,6.2,0,0,1,825,1086.653Zm1.392,4.367-1.035.044a3.284,3.284,0,0,0-1.8.434,1.272,1.272,0,0,0-.518,1.075,1.027,1.027,0,0,0,.357.871,1.506,1.506,0,0,0,.94.273,2.165,2.165,0,0,0,1.473-.507,1.859,1.859,0,0,0,.583-1.484Z" transform="translate(-810.744 -1084.174)" fill="#f9f9f9"/>
      </g>
    </g>
    <g id="Group_139583" data-name="Group 139583" transform="translate(793.492 567.132)">
      <g id="Group_139582" data-name="Group 139582" transform="translate(0 0)">
        <g id="Group_139574" data-name="Group 139574" transform="translate(37.168 5.561)">
          <g id="Group_139573" data-name="Group 139573">
            <path id="Path_196020" data-name="Path 196020" d="M1886.806,1582.006c-8.186,19.52-25.582,61.752-25.582,61.752l12.448,6.791,36.535-57.521c3.022-4.6.721-11.641-4.86-15.2h0C1899.1,1573.851,1889.67,1575.177,1886.806,1582.006Z" transform="translate(-1861.081 -1575.49)" fill="#f9f9f9"/>
            <path id="Path_196021" data-name="Path 196021" d="M1872.588,1649.818l-12.63-6.891.039-.094c.174-.422,17.489-42.455,25.582-61.752a10.4,10.4,0,0,1,6.689-5.854,14.746,14.746,0,0,1,12.017,1.627,13.672,13.672,0,0,1,6.009,8.409,9.079,9.079,0,0,1-1.115,6.946Zm-12.343-6.992,12.266,6.692,36.478-57.431a8.854,8.854,0,0,0,1.084-6.776,13.441,13.441,0,0,0-5.909-8.265,14.514,14.514,0,0,0-11.828-1.6,10.173,10.173,0,0,0-6.548,5.725l-.1-.044.1.044C1877.88,1600.024,1861.168,1640.585,1860.244,1642.826Z" transform="translate(-1859.958 -1574.609)" fill="#292929"/>
          </g>
        </g>
        <g id="Group_139575" data-name="Group 139575">
          <path id="Path_196022" data-name="Path 196022" d="M1622,1537.231a12.007,12.007,0,0,0-10.433-9.6l-24.187-.444-27.018-.5-3.9-.071-8.688-.16a15.052,15.052,0,1,0,.175,30.1c10.507-.315,25.392-.754,39.231-1.256l-15.862,34.737,18.1,9.717,28.978-49.062A17.006,17.006,0,0,0,1622,1537.231Z" transform="translate(-1532.328 -1526.342)" fill="#1f42af"/>
          <path id="Path_196023" data-name="Path 196023" d="M1588.577,1599.015l-18.287-9.819,15.83-34.667c-12.74.461-26.515.874-36.586,1.175l-2.462.074a15.169,15.169,0,0,1-6.89-28.9,15,15,0,0,1,6.714-1.424l63.8,1.169a12.117,12.117,0,0,1,10.542,9.694h0a17.174,17.174,0,0,1-3.63,13.547Zm-17.993-9.918,17.908,9.616,28.927-48.977.006-.007a16.933,16.933,0,0,0,3.586-13.364h0a11.893,11.893,0,0,0-10.334-9.513l-51.194-.938-12.592-.23a14.767,14.767,0,0,0-6.614,1.4,14.942,14.942,0,0,0,6.787,28.466l2.462-.074c10.119-.3,23.978-.718,36.768-1.182l.183-.007-.076.167Z" transform="translate(-1531.45 -1525.454)" fill="#f9f9f9"/>
        </g>
        <g id="Group_139581" data-name="Group 139581" transform="translate(27.199 69.959)">
          <g id="Group_139580" data-name="Group 139580">
            <path id="Path_196024" data-name="Path 196024" d="M1933.81,2192.134c.037.017,2.242-4.07,6.8-1.184l-2.511,8.325-6.02-4.721Z" transform="translate(-1913.953 -2184.699)" fill="#292929"/>
            <g id="Group_139576" data-name="Group 139576">
              <path id="Path_196025" data-name="Path 196025" d="M1807.23,2180.694l-1.654,2.315h-.98l-19.931-13.83-5.486-4.622-5.64-3.342a1.6,1.6,0,0,1-.383-2.246l2.567-3.592h.979l7.281-10.188,14.328,10.372-.152,4.07,4.513,10.109s4.77,7.326,5.048,7.525c.246.176-.318,2.693-.458,3.3a0,0,0,0,0,0,0Z" transform="translate(-1772.743 -2145.031)" fill="#f9f9f9"/>
              <path id="Path_196026" data-name="Path 196026" d="M1804.745,2181.879h-1.074l-.029-.02-19.931-13.83-5.487-4.622-5.632-3.337a1.717,1.717,0,0,1-.418-2.409l2.633-3.685.063.046h.884l7.314-10.233.092.067,14.377,10.408-.153,4.1,4.5,10.078c1.892,2.905,4.785,7.292,5.016,7.489.077.055.319.228-.411,3.392h0l-.042.172-.013.017Zm-1-.227h.886l1.608-2.25.021-.083,0-.021.014-.022a11.026,11.026,0,0,0,.49-3.167c-.341-.3-4.277-6.333-5.069-7.549l-.008-.016-4.524-10.134.151-4.036-14.187-10.27-7.249,10.143h-.979l-2.533,3.544a1.49,1.49,0,0,0,.356,2.087l5.647,3.348,5.486,4.622Z" transform="translate(-1771.854 -2143.789)" fill="#292929"/>
            </g>
            <g id="Group_139577" data-name="Group 139577" transform="translate(21.376 14.777)">
              <path id="Path_196027" data-name="Path 196027" d="M1965.94,2275.406a.113.113,0,0,1-.066-.021c-2.124-1.518-4.9-.31-4.931-.3a.113.113,0,1,1-.092-.207c.029-.013,2.925-1.273,5.155.32a.113.113,0,0,1-.066.205Z" transform="translate(-1960.784 -2274.395)" fill="#292929"/>
            </g>
            <g id="Group_139578" data-name="Group 139578" transform="translate(22.692 17.742)">
              <path id="Path_196028" data-name="Path 196028" d="M1977.307,2301.576a.112.112,0,0,1-.073-.027c-1.642-1.377-4.634-.339-4.664-.328a.113.113,0,1,1-.076-.213c.128-.045,3.144-1.093,4.885.368a.113.113,0,0,1-.073.2Z" transform="translate(-1972.419 -2300.602)" fill="#292929"/>
            </g>
            <g id="Group_139579" data-name="Group 139579" transform="translate(24.038 20.609)">
              <path id="Path_196029" data-name="Path 196029" d="M1984.429,2326.842a.113.113,0,0,1-.058-.211c.025-.015,2.564-1.484,4.518-.087a.113.113,0,1,1-.131.184c-1.833-1.31-4.247.084-4.272.1A.114.114,0,0,1,1984.429,2326.842Z" transform="translate(-1984.316 -2325.942)" fill="#292929"/>
            </g>
          </g>
          <path id="Path_196030" data-name="Path 196030" d="M1807.23,2260.539l-1.654,2.315h-.98l-19.931-13.83-5.486-4.622-5.64-3.342a1.6,1.6,0,0,1-.383-2.246l2.567-3.592h0c.081.036,2.687,1.177,7.61,6.134,5,5.038,23.927,19.053,23.927,19.053a0,0,0,0,0,0,0Z" transform="translate(-1772.743 -2224.876)" fill="#292929"/>
        </g>
      </g>
    </g>
    <g id="Group_139594" data-name="Group 139594" transform="translate(785.698 566.869)">
      <g id="Group_139585" data-name="Group 139585" transform="translate(68.547 14.612)">
        <g id="Group_139584" data-name="Group 139584">
          <path id="Path_196031" data-name="Path 196031" d="M2069.614,1667.278c4.4,20.706,14.17,65.322,14.17,65.322l13.416-2.78-4.338-65.576c-.139-5.5-3.778-11.222-10.391-10.964h0C2075.072,1653.57,2068.076,1660.035,2069.614,1667.278Z" transform="translate(-2069.289 -1653.16)" fill="#f9f9f9"/>
          <path id="Path_196032" data-name="Path 196032" d="M2082.832,1731.848l-.024-.109c-.1-.446-9.823-44.853-14.17-65.322a10.394,10.394,0,0,1,2.16-8.622,14.745,14.745,0,0,1,10.8-5.511,9.316,9.316,0,0,1,6.9,2.5,12.329,12.329,0,0,1,3.611,8.575l4.345,65.669Zm-13.973-65.479c4.241,19.971,13.6,62.732,14.146,65.212l13.21-2.737-4.332-65.477a12.1,12.1,0,0,0-3.54-8.421,9.1,9.1,0,0,0-6.733-2.437,14.515,14.515,0,0,0-10.633,5.424A10.173,10.173,0,0,0,2068.859,1666.37Z" transform="translate(-2068.423 -1652.275)" fill="#292929"/>
        </g>
      </g>
      <g id="Group_139587" data-name="Group 139587" transform="translate(0)">
        <g id="Group_139586" data-name="Group 139586">
          <path id="Path_196033" data-name="Path 196033" d="M1561.313,1599.476l-5.448-56.208-.07.007a12.125,12.125,0,0,0-.384-1.981h0a12.01,12.01,0,0,0-11.161-8.746l-64.029-8.285a14.667,14.667,0,0,0-16.406,11.574h0a14.666,14.666,0,0,0,12.572,17.507c15.346,1.892,39.365,4.359,56.637,4.064l8.043,43.464Z" transform="translate(-1463.404 -1524.006)" fill="#0f2771"/>
          <path id="Path_196034" data-name="Path 196034" d="M1540.132,1600.112l-8.044-43.469c-.927.015-1.875.023-2.836.023-17.8,0-41.038-2.525-53.721-4.089a14.78,14.78,0,1,1,3.864-29.306l64.028,8.285a12.076,12.076,0,0,1,11.255,8.828,12.279,12.279,0,0,1,.375,1.889l.072-.007,5.47,56.436-.116.008Zm-7.856-43.7,8.042,43.459,20.03-1.38-5.426-55.98-.069.007-.012-.111a12.063,12.063,0,0,0-.38-1.963,11.855,11.855,0,0,0-11.056-8.664l-64.04-8.286a14.554,14.554,0,1,0-3.806,28.857c13.386,1.65,38.541,4.374,56.621,4.063Z" transform="translate(-1462.562 -1523.127)" fill="#f9f9f9"/>
        </g>
      </g>
      <g id="Group_139593" data-name="Group 139593" transform="translate(79.603 84.506)">
        <g id="Group_139592" data-name="Group 139592">
          <path id="Path_196035" data-name="Path 196035" d="M2273.534,2274.961c.04-.007-.542-4.615,4.845-4.918l2.8,8.233-7.643-.341Z" transform="translate(-2261.382 -2270.043)" fill="#292929"/>
          <g id="Group_139588" data-name="Group 139588" transform="translate(0 3.895)">
            <path id="Path_196036" data-name="Path 196036" d="M2207.5,2320.844v2.846l-.8.569-24.257.337-7.15-.57-6.531.56a1.6,1.6,0,0,1-1.618-1.6v-4.415h0l.8-.567v-12.522l17.688.108,2.243,3.4,9.55,5.6s8.141,3.187,8.482,3.187c.3,0,1.307,2.376,1.544,2.948a0,0,0,0,0,0,0Z" transform="translate(-2167.029 -2305.362)" fill="#f9f9f9"/>
            <path id="Path_196037" data-name="Path 196037" d="M2181.557,2323.817l-7.152-.57-6.522.559a1.716,1.716,0,0,1-1.741-1.717v-4.528h.078l.72-.513V2304.47l17.862.109,2.262,3.428,9.52,5.583c3.228,1.264,8.133,3.151,8.436,3.176.093,0,.392,0,1.638,3h0l.066.165v2.926l-.874.623h-.035Zm-7.152-.8h.009l7.151.57,24.211-.337.721-.515v-2.766l-.032-.08-.017-.017v-.026a11.728,11.728,0,0,0-1.442-2.86c-.452-.045-7.162-2.666-8.513-3.195l-.016-.008-9.573-5.614-2.224-3.371-17.514-.106v12.467l-.8.568v4.356a1.49,1.49,0,0,0,1.5,1.491Zm30.611-6.028h0Z" transform="translate(-2166.142 -2304.47)" fill="#292929"/>
          </g>
          <g id="Group_139589" data-name="Group 139589" transform="translate(17.978 7.628)">
            <path id="Path_196038" data-name="Path 196038" d="M2325.153,2340.368a.116.116,0,0,1-.057-.015.113.113,0,0,1-.04-.155c.016-.027,1.639-2.737,4.38-2.737a.113.113,0,0,1,0,.226c-2.61,0-4.17,2.6-4.185,2.625A.112.112,0,0,1,2325.153,2340.368Z" transform="translate(-2325.04 -2337.461)" fill="#292929"/>
          </g>
          <g id="Group_139590" data-name="Group 139590" transform="translate(20.729 9.393)">
            <path id="Path_196039" data-name="Path 196039" d="M2349.466,2355.788a.113.113,0,0,1-.093-.178c.077-.111,1.921-2.719,4.188-2.541a.113.113,0,0,1,.1.122.111.111,0,0,1-.122.1c-2.139-.166-3.967,2.418-3.985,2.445A.114.114,0,0,1,2349.466,2355.788Z" transform="translate(-2349.353 -2353.06)" fill="#292929"/>
          </g>
          <g id="Group_139591" data-name="Group 139591" transform="translate(23.65 11.036)">
            <path id="Path_196040" data-name="Path 196040" d="M2375.288,2370.44a.113.113,0,0,1-.1-.159c.012-.027,1.223-2.7,3.625-2.7a.113.113,0,1,1,0,.226c-2.253,0-3.407,2.538-3.418,2.563A.113.113,0,0,1,2375.288,2370.44Z" transform="translate(-2375.175 -2367.583)" fill="#292929"/>
          </g>
        </g>
        <path id="Path_196041" data-name="Path 196041" d="M2207.5,2422.166v2.846l-.8.569-24.257.337-7.15-.57-6.531.56a1.6,1.6,0,0,1-1.618-1.6v-4.415h0c.087-.018,2.87-.605,9.758.566,7,1.19,30.544,1.589,30.544,1.589v0Z" transform="translate(-2167.029 -2402.79)" fill="#292929"/>
      </g>
    </g>
    <g id="Group_139606" data-name="Group 139606" transform="translate(894.544 465.934)">
      <rect id="Rectangle_43031" data-name="Rectangle 43031" width="54.004" height="37.089" transform="translate(0 20.112)" fill="#feca2e"/>
      <g id="Group_139605" data-name="Group 139605" transform="translate(6.451 0)">
        <g id="Group_139595" data-name="Group 139595">
          <rect id="Rectangle_43032" data-name="Rectangle 43032" width="74.121" height="50.853" transform="translate(0.113 0.113)" fill="#f9f9f9"/>
          <path id="Path_196042" data-name="Path 196042" d="M2555.97,682.082h-74.347V631h74.347Zm-74.121-.226h73.894V631.229h-73.894Z" transform="translate(-2481.623 -631.003)" fill="#292929"/>
        </g>
        <path id="Path_196043" data-name="Path 196043" d="M2551.269,688.723h-26.336a1.068,1.068,0,0,1-1.068-1.068h0a1.068,1.068,0,0,1,1.068-1.068h26.336a1.068,1.068,0,0,1,1.068,1.068h0A1.068,1.068,0,0,1,2551.269,688.723Z" transform="translate(-2519.086 -680.299)" fill="#292929"/>
        <path id="Path_196044" data-name="Path 196044" d="M2899.642,688.723h-12.635a1.068,1.068,0,0,1-1.067-1.068h0a1.068,1.068,0,0,1,1.067-1.068h12.635a1.068,1.068,0,0,1,1.068,1.068h0A1.068,1.068,0,0,1,2899.642,688.723Z" transform="translate(-2840.196 -680.299)" fill="#292929"/>
        <g id="Group_139596" data-name="Group 139596" transform="translate(4.666 12.582)">
          <path id="Path_196045" data-name="Path 196045" d="M2550.382,744.571h-26.336a1.181,1.181,0,1,1,0-2.362h26.336a1.181,1.181,0,0,1,0,2.362Zm-26.336-2.135a.955.955,0,1,0,0,1.909h26.336a.955.955,0,1,0,0-1.909Z" transform="translate(-2522.865 -742.209)" fill="#5856b8"/>
        </g>
        <g id="Group_139597" data-name="Group 139597" transform="translate(37.06 12.582)">
          <path id="Path_196046" data-name="Path 196046" d="M2823,744.571h-12.635a1.181,1.181,0,0,1,0-2.362H2823a1.181,1.181,0,1,1,0,2.362Zm-12.635-2.135a.955.955,0,1,0,0,1.909H2823a.955.955,0,1,0,0-1.909Z" transform="translate(-2809.183 -742.209)" fill="#5856b8"/>
        </g>
        <g id="Group_139598" data-name="Group 139598" transform="translate(55.092 12.582)">
          <path id="Path_196047" data-name="Path 196047" d="M2973.717,744.571h-3.974a1.181,1.181,0,1,1,0-2.362h3.974a1.181,1.181,0,1,1,0,2.362Zm-3.974-2.135a.955.955,0,0,0,0,1.909h3.974a.955.955,0,1,0,0-1.909Z" transform="translate(-2968.562 -742.209)" fill="#5856b8"/>
        </g>
        <rect id="Rectangle_43033" data-name="Rectangle 43033" width="14.77" height="2.135" rx="1.068" transform="translate(5.966 32.507)" fill="#292929"/>
        <rect id="Rectangle_43034" data-name="Rectangle 43034" width="38.8" height="2.135" rx="1.068" transform="translate(31.175 32.507)" fill="#292929"/>
        <g id="Group_139599" data-name="Group 139599" transform="translate(17.805 38.543)">
          <path id="Path_196048" data-name="Path 196048" d="M2652.806,974.03h-12.634a1.181,1.181,0,1,1,0-2.362h12.634a1.181,1.181,0,1,1,0,2.362Zm-12.634-2.135a.955.955,0,0,0,0,1.909h12.634a.955.955,0,1,0,0-1.909Z" transform="translate(-2638.991 -971.668)" fill="#292929"/>
        </g>
        <g id="Group_139600" data-name="Group 139600" transform="translate(16.055 18.931)">
          <path id="Path_196049" data-name="Path 196049" d="M2651.042,800.685h-26.336a1.181,1.181,0,1,1,0-2.362h26.336a1.181,1.181,0,1,1,0,2.362Zm-26.336-2.135a.955.955,0,1,0,0,1.909h26.336a.955.955,0,1,0,0-1.909Z" transform="translate(-2623.525 -798.323)" fill="#292929"/>
        </g>
        <path id="Path_196050" data-name="Path 196050" d="M2917.992,969.019h-12.635a1.068,1.068,0,0,1-1.068-1.068h0a1.068,1.068,0,0,1,1.068-1.068h12.635a1.068,1.068,0,0,1,1.067,1.068h0A1.068,1.068,0,0,1,2917.992,969.019Z" transform="translate(-2856.469 -928.882)" fill="#0f2771"/>
        <g id="Group_139601" data-name="Group 139601" transform="translate(5.852 44.237)">
          <path id="Path_196051" data-name="Path 196051" d="M2571.07,1024.36h-36.539a1.181,1.181,0,1,1,0-2.362h36.539a1.181,1.181,0,1,1,0,2.362Zm-36.539-2.135a.955.955,0,0,0,0,1.909h36.539a.955.955,0,1,0,0-1.909Z" transform="translate(-2533.35 -1021.998)" fill="#292929"/>
        </g>
        <g id="Group_139602" data-name="Group 139602" transform="translate(48.449 18.931)">
          <path id="Path_196052" data-name="Path 196052" d="M2923.658,800.685h-12.634a1.181,1.181,0,1,1,0-2.362h12.634a1.181,1.181,0,1,1,0,2.362Zm-12.634-2.135a.955.955,0,1,0,0,1.909h12.634a.955.955,0,1,0,0-1.909Z" transform="translate(-2909.843 -798.323)" fill="#5856b8"/>
        </g>
        <path id="Path_196053" data-name="Path 196053" d="M2561.755,858.872h-26.336a1.068,1.068,0,0,1-1.068-1.068h0a1.068,1.068,0,0,1,1.068-1.068h26.336a1.068,1.068,0,0,1,1.068,1.068h0A1.068,1.068,0,0,1,2561.755,858.872Z" transform="translate(-2528.385 -831.197)" fill="#0f2771"/>
        <g id="Group_139603" data-name="Group 139603" transform="translate(38.247 25.426)">
          <path id="Path_196054" data-name="Path 196054" d="M2833.484,858.1H2820.85a1.181,1.181,0,0,1,0-2.362h12.634a1.181,1.181,0,1,1,0,2.362Zm-12.634-2.135a.954.954,0,1,0,0,1.909h12.634a.954.954,0,1,0,0-1.909Z" transform="translate(-2819.669 -855.737)" fill="#5856b8"/>
        </g>
        <g id="Group_139604" data-name="Group 139604" transform="translate(55.092 25.426)">
          <path id="Path_196055" data-name="Path 196055" d="M2982.377,858.1h-12.634a1.181,1.181,0,1,1,0-2.362h12.634a1.181,1.181,0,1,1,0,2.362Zm-12.634-2.135a.954.954,0,0,0,0,1.909h12.634a.954.954,0,1,0,0-1.909Z" transform="translate(-2968.562 -855.737)" fill="#5856b8"/>
        </g>
      </g>
    </g>
    <g id="Group_139618" data-name="Group 139618" transform="translate(929.585 529.189)">
      <g id="Group_139607" data-name="Group 139607" transform="translate(0 0)">
        <rect id="Rectangle_43035" data-name="Rectangle 43035" width="39.817" height="21.333" transform="translate(0.113 0.113)" fill="#f9f9f9"/>
        <path id="Path_196056" data-name="Path 196056" d="M2774.359,1211.649h-40.043V1190.09h40.043Zm-39.816-.226h39.59v-21.107h-39.59Z" transform="translate(-2734.316 -1190.09)" fill="#292929"/>
      </g>
      <g id="Group_139616" data-name="Group 139616" transform="translate(7.197 8.843)">
        <g id="Group_139610" data-name="Group 139610" transform="translate(0 0)">
          <g id="Group_139608" data-name="Group 139608" transform="translate(0 0)">
            <rect id="Rectangle_43036" data-name="Rectangle 43036" width="7.713" height="0.226" transform="matrix(0.889, -0.457, 0.457, 0.889, 0, 3.526)" fill="#292929"/>
          </g>
          <g id="Group_139609" data-name="Group 139609" transform="translate(0 3.526)">
            <rect id="Rectangle_43037" data-name="Rectangle 43037" width="0.226" height="7.713" transform="matrix(0.457, -0.889, 0.889, 0.457, 0, 0.201)" fill="#292929"/>
          </g>
        </g>
        <g id="Group_139613" data-name="Group 139613" transform="translate(18.685 0)">
          <g id="Group_139611" data-name="Group 139611" transform="translate(0)">
            <rect id="Rectangle_43038" data-name="Rectangle 43038" width="0.226" height="7.713" transform="translate(0 0.201) rotate(-62.796)" fill="#292929"/>
          </g>
          <g id="Group_139612" data-name="Group 139612" transform="translate(0 3.527)">
            <rect id="Rectangle_43039" data-name="Rectangle 43039" width="7.713" height="0.226" transform="matrix(0.89, -0.457, 0.457, 0.89, 0, 3.524)" fill="#292929"/>
          </g>
        </g>
        <g id="Group_139614" data-name="Group 139614" transform="translate(9.881 0.05)">
          <rect id="Rectangle_43040" data-name="Rectangle 43040" width="8.421" height="0.226" transform="translate(0 7.552) rotate(-63.737)" fill="#292929"/>
        </g>
        <g id="Group_139615" data-name="Group 139615" transform="translate(12.452 0.05)">
          <rect id="Rectangle_43041" data-name="Rectangle 43041" width="8.421" height="0.226" transform="translate(0 7.551) rotate(-63.736)" fill="#292929"/>
        </g>
      </g>
      <g id="Group_139617" data-name="Group 139617" transform="translate(0.113 4.305)">
        <rect id="Rectangle_43042" data-name="Rectangle 43042" width="39.817" height="0.226" fill="#292929"/>
      </g>
    </g>
    <g id="Group_139622" data-name="Group 139622" transform="translate(731.71 498.351)">
      <rect id="Rectangle_43043" data-name="Rectangle 43043" width="47.594" height="11.389" rx="5.694" transform="translate(0 0)" fill="#636363"/>
      <g id="Group_139621" data-name="Group 139621" transform="translate(4.635 3.046)">
        <g id="Group_139619" data-name="Group 139619" transform="translate(0 0.011)">
          <path id="Path_196057" data-name="Path 196057" d="M1026.463,949.55a.113.113,0,0,1-.08-.193l4.793-4.77a.113.113,0,1,1,.159.16l-4.793,4.77A.113.113,0,0,1,1026.463,949.55Z" transform="translate(-1026.35 -944.554)" fill="#f9f9f9"/>
        </g>
        <g id="Group_139620" data-name="Group 139620" transform="translate(0.011)">
          <path id="Path_196058" data-name="Path 196058" d="M1031.333,949.474a.113.113,0,0,1-.08-.033l-4.77-4.793a.113.113,0,1,1,.16-.159l4.77,4.793a.113.113,0,0,1-.08.193Z" transform="translate(-1026.45 -944.455)" fill="#f9f9f9"/>
        </g>
      </g>
    </g>
    <g id="Group_139623" data-name="Group 139623" transform="translate(731.71 674.684)">
      <path id="Path_196059" data-name="Path 196059" d="M985.379,2476.637h0Z" transform="translate(-985.379 -2476.572)" fill="#f9f9f9"/>
      <rect id="Rectangle_43044" data-name="Rectangle 43044" width="251.222" height="0.131" transform="translate(0 0)" fill="#292929"/>
    </g>
    <g id="Group_139624" data-name="Group 139624" transform="translate(971.707 610.556)">
      <rect id="Rectangle_43045" data-name="Rectangle 43045" width="1.323" height="6.837" transform="translate(6.51 1.783) rotate(72.211)" fill="#5856b8"/>
      <rect id="Rectangle_43046" data-name="Rectangle 43046" width="1.323" height="6.837" transform="translate(5.132 6.51) rotate(162.211)" fill="#5856b8"/>
    </g>
    <g id="Group_139636" data-name="Group 139636" transform="translate(810.544 471.381)">
      <g id="Group_139626" data-name="Group 139626" transform="translate(0 15.799)">
        <g id="Group_139625" data-name="Group 139625">
          <path id="Path_196060" data-name="Path 196060" d="M1683.588,834.31c.272-.308,8.763-13.423,9.593-14.461s8.053,10.636,8.053,10.636-6.548,12.235-7.323,12.015S1683.588,834.31,1683.588,834.31Z" transform="translate(-1683.426 -819.671)" fill="#f9f9f9"/>
          <path id="Path_196061" data-name="Path 196061" d="M1692.678,841.734a.226.226,0,0,1-.065-.011c-.789-.224-9.975-7.887-10.365-8.213l-.089-.074.077-.087c.105-.12,1.662-2.5,3.311-5.011,2.576-3.931,5.782-8.824,6.279-9.446a.286.286,0,0,1,.25-.107c1.347.081,7.312,9.662,7.988,10.754l.034.055-.031.057c-.016.031-1.657,3.095-3.372,6.093C1693.536,841.267,1692.907,841.734,1692.678,841.734Zm-10.2-8.329c2.71,2.261,9.59,7.927,10.2,8.1.11-.014.747-.485,3.891-5.991,1.559-2.73,3.041-5.482,3.271-5.911-2.632-4.249-6.848-10.536-7.775-10.592a.062.062,0,0,0-.059.023c-.49.613-3.693,5.5-6.267,9.428C1683.9,831.267,1682.77,832.986,1682.475,833.405Z" transform="translate(-1682.159 -818.785)" fill="#292929"/>
        </g>
      </g>
      <g id="Group_139631" data-name="Group 139631" transform="translate(9.665 4.031)">
        <path id="Path_196062" data-name="Path 196062" d="M1787.387,733.756a22.151,22.151,0,0,1-1.071-3.8c.163-.908.322-1.893.485-2.978,1.08-7.183-.417-9.73-7.394-11.751q-.171-.049-.346-.1c-9.325-2.479-11.168,8.766-11.458,12.479s3.925,11.577,6.965,13.53c2.973,1.91,6.021,2.224,8.079-1.029a22.81,22.81,0,0,0,2.154-4.243,11.449,11.449,0,0,0,1.107-.453C1786.873,734.965,1787.682,734.518,1787.387,733.756Z" transform="translate(-1767.588 -714.772)" fill="#f9f9f9"/>
        <g id="Group_139628" data-name="Group 139628" transform="translate(15.902 12.014)">
          <path id="Path_196063" data-name="Path 196063" d="M1913.283,839.619c-.161.439-.522.71-.808.606s-.387-.545-.226-.984.522-.71.808-.606S1913.444,839.18,1913.283,839.619Z" transform="translate(-1911.717 -836.615)" fill="#292929"/>
          <g id="Group_139627" data-name="Group 139627">
            <path id="Path_196064" data-name="Path 196064" d="M1908.195,821.362l-.057-.219a10.152,10.152,0,0,1,3.322-.111l-.024.225A10.167,10.167,0,0,0,1908.195,821.362Z" transform="translate(-1908.138 -820.957)" fill="#292929"/>
          </g>
        </g>
        <g id="Group_139630" data-name="Group 139630" transform="translate(12.392 19.882)">
          <g id="Group_139629" data-name="Group 139629">
            <path id="Path_196065" data-name="Path 196065" d="M1879.928,893.473a6.608,6.608,0,0,1-2.814-2.9l.214-.074a6.546,6.546,0,0,0,2.722,2.785Z" transform="translate(-1877.114 -890.497)" fill="#292929"/>
          </g>
        </g>
      </g>
      <path id="Path_196066" data-name="Path 196066" d="M1753.932,688.266c2.618-.647,5.066-4.622,4.66-5.892-1.785-.162-6.538-.542-9.668-.791-1.481-.117-3.159-.254-4.2-1.313-2.732-2.773-5,.46-5,.46-2.767-3.187-6.692,3.943-6.692,3.943-1.139-.39-1.883-2.341-3.057,1.834-.122.432-.258.94-.406,1.5a84.443,84.443,0,0,0-1.681,12.442c2.838,2.117,8.394-1.525,8.394-1.525,5.709-.335,7.555-9.028,7.555-9.028s.373.764,6.966,3.032c3.443,1.184,5.548-.493,6.555-2.259a17.948,17.948,0,0,0,1.037-4.123l-.409.316a6.731,6.731,0,0,1-4.052,1.4Z" transform="translate(-1722.712 -679.147)" fill="#292929"/>
      <g id="Group_139634" data-name="Group 139634" transform="translate(13.036 13.839)">
        <path id="Path_196067" data-name="Path 196067" d="M1804.275,804.081s-1.367-3.592-4.4-2.361c-4.263,1.728-2.325,7.145.333,7.7S1804.275,804.081,1804.275,804.081Z" transform="translate(-1797.376 -801.463)" fill="#f9f9f9"/>
        <g id="Group_139632" data-name="Group 139632" transform="translate(1.017 1.174)">
          <path id="Path_196068" data-name="Path 196068" d="M1806.587,814.933l-.226-.01a3.279,3.279,0,0,1,1.128-2.677,2.868,2.868,0,0,1,2.448-.237,2.236,2.236,0,0,1,1.3,1.244l-.211.083a2.043,2.043,0,0,0-1.152-1.11,2.65,2.65,0,0,0-2.252.205A3.073,3.073,0,0,0,1806.587,814.933Z" transform="translate(-1806.361 -811.841)" fill="#292929"/>
        </g>
        <g id="Group_139633" data-name="Group 139633" transform="translate(1.298 2.771)">
          <rect id="Rectangle_43047" data-name="Rectangle 43047" width="0.226" height="2.726" transform="translate(0 0.164) rotate(-46.33)" fill="#292929"/>
        </g>
      </g>
      <g id="Group_139635" data-name="Group 139635" transform="translate(12.942 4.275)">
        <path id="Path_196069" data-name="Path 196069" d="M1804.23,744.5c-2.55,0-5.276-1.965-7.684-5.541l.188-.126c2.365,3.512,5.024,5.441,7.5,5.441h.067a4.726,4.726,0,0,0,3.935-2.318,22.793,22.793,0,0,0,2.143-4.223l.019-.051.051-.017a11.459,11.459,0,0,0,1.095-.448c1.1-.509,1.658-.9,1.422-1.51a22.416,22.416,0,0,1-1.078-3.828l0-.019,0-.019c.155-.863.313-1.836.484-2.975.566-3.767.369-6.08-.66-7.735-1.044-1.679-3.034-2.842-6.654-3.891q-.17-.049-.343-.1l.058-.219q.176.047.348.1c6.966,2.018,8.573,4.571,7.474,11.877-.17,1.133-.328,2.1-.482,2.963a22.21,22.21,0,0,0,1.062,3.762c.357.924-.739,1.429-1.539,1.8-.293.135-.711.318-1.067.44a23.063,23.063,0,0,1-2.145,4.214,4.949,4.949,0,0,1-4.123,2.424Z" transform="translate(-1796.546 -716.93)" fill="#292929"/>
      </g>
    </g>
    <g id="Group_139638" data-name="Group 139638" transform="translate(843.582 530.614)">
      <g id="Group_139637" data-name="Group 139637" transform="translate(0 35.432)">
        <path id="Path_196070" data-name="Path 196070" d="M1974.864,1518.576h42.542v-2.727l-42.564,1.342a.692.692,0,0,0-.671.692h0A.692.692,0,0,0,1974.864,1518.576Z" transform="translate(-1974.172 -1515.85)" fill="#292929"/>
      </g>
      <path id="Path_196071" data-name="Path 196071" d="M2332.967,1240.479l12.951-37.172a.928.928,0,0,1,.877-.623h0a.929.929,0,0,1,.885,1.21l-11.747,36.958Z" transform="translate(-2292.373 -1202.684)" fill="#292929"/>
      <path id="Path_196072" data-name="Path 196072" d="M2146.941,1514.773l.025-.6a.788.788,0,0,1,.759-.755l2.193-.078a.789.789,0,0,1,.816.772l.007.342Z" transform="translate(-2127.394 -1478.189)" fill="#292929"/>
      <path id="Path_196073" data-name="Path 196073" d="M2198.4,1512.942l.025-.6a.788.788,0,0,1,.759-.755l2.193-.078a.788.788,0,0,1,.816.771l.007.342Z" transform="translate(-2173.027 -1476.565)" fill="#292929"/>
      <path id="Path_196074" data-name="Path 196074" d="M2250.545,1511.086l.025-.6a.788.788,0,0,1,.759-.755l2.193-.078a.788.788,0,0,1,.816.772l.007.342Z" transform="translate(-2219.276 -1474.919)" fill="#292929"/>
      <path id="Path_196075" data-name="Path 196075" d="M2299.426,1509.346l.025-.6a.788.788,0,0,1,.759-.755l2.193-.078a.788.788,0,0,1,.816.771l.007.343Z" transform="translate(-2262.627 -1473.376)" fill="#292929"/>
    </g>
    <g id="Group_139654" data-name="Group 139654" transform="translate(781.327 498.506)">
      <path id="Path_196076" data-name="Path 196076" d="M1453.832,933.681l12.255,6.453s.3.151,1.482,3.114c3.744,9.345,5.541,25.034,5.04,29.125-.44,3.59,1.612,22.586,1.612,22.586l.243,9.357c-13.874,8.95-31.2,5.125-48.179,3.115l-2.357-.279s11.6-43.2,14.151-50.15S1449.029,933.96,1453.832,933.681Z" transform="translate(-1423.927 -932.008)" fill="#636363"/>
      <g id="Group_139639" data-name="Group 139639" transform="translate(26.088 0)">
        <path id="Path_196077" data-name="Path 196077" d="M1659.519,919.9c.386-.079,12.035,8.012,12.035,8.012l.035,5.158s-7.462-9.069-15.983-8.917A4.96,4.96,0,0,1,1659.519,919.9Z" transform="translate(-1655.482 -919.786)" fill="#292929"/>
        <path id="Path_196078" data-name="Path 196078" d="M1670.728,932.5l-.2-.246a32.377,32.377,0,0,0-4.781-4.5c-2.659-2.039-6.743-4.449-11.112-4.375l-.126,0,.012-.126a5.109,5.109,0,0,1,4-4.354h0c.1-.021.288-.059,6.248,3.994,2.927,1.99,5.844,4.016,5.873,4.036l.048.033Zm-15.889-9.351c4.355,0,8.4,2.4,11.047,4.427a33.55,33.55,0,0,1,4.612,4.3l-.033-4.791c-4.535-3.149-11.386-7.823-11.914-7.958a4.845,4.845,0,0,0-3.79,4.025Zm3.7-4.026Zm.024,0h0Z" transform="translate(-1654.506 -918.897)" fill="#f9f9f9"/>
      </g>
      <g id="Group_139653" data-name="Group 139653" transform="translate(7.606 7.061)">
        <g id="Group_139648" data-name="Group 139648" transform="translate(5.923 34.417)">
          <g id="Group_139645" data-name="Group 139645" transform="translate(4.938 4.899)">
            <g id="Group_139640" data-name="Group 139640">
              <path id="Path_196079" data-name="Path 196079" d="M1652.826,1350.294c-1.421-1.958-3.905-6.3-6.88-5.6-2.326.548-8.4,1.658-11.9,2.286l.01-.066-32.04-16.862-13.075,14.349s33.606,10.8,41.237,13.237a7.235,7.235,0,0,0,4.658,1.079c3.271-.59,6.388-3.084,6.626-3.116,1.769-.242,4.748,1.077,5.7,1.256.574.092,1.345.435,1.617-.834a.688.688,0,0,0-.118-.414.89.89,0,0,0,.445.115c.708.041,1.7-.546.566-1.934h0c.74.6,1.472.992,2.038.573.374-.277.624-.973.046-2a.423.423,0,0,0,.177.018c.586-.1,1.024-.222,1.143-.594A1.673,1.673,0,0,0,1652.826,1350.294Z" transform="translate(-1588.742 -1329.908)" fill="#f9f9f9"/>
              <path id="Path_196080" data-name="Path 196080" d="M1632.4,1357.8a8.048,8.048,0,0,1-3.851-1.163c-7.565-2.414-40.89-13.125-41.226-13.233l-.167-.054.118-.13,13.134-14.414.077.041,32.1,16.892c3.465-.623,9.455-1.719,11.752-2.26,2.669-.63,4.916,2.636,6.4,4.8.213.309.413.6.594.85h0a1.794,1.794,0,0,1,.266,1.588c-.144.454-.665.577-1.232.672h0c.484.99.22,1.671-.174,1.963a1.43,1.43,0,0,1-1.651-.19,1.093,1.093,0,0,1,.085,1.029,1.181,1.181,0,0,1-1.1.545.608.608,0,0,1-.24-.028.582.582,0,0,1,.02.227c-.264,1.234-1,1.083-1.534.973-.073-.015-.145-.03-.213-.041a12.07,12.07,0,0,1-1.264-.378,11.676,11.676,0,0,0-4.4-.878c-.043.014-.265.16-.5.314a17.714,17.714,0,0,1-6.122,2.8A4.9,4.9,0,0,1,1632.4,1357.8Zm-44.841-14.558c2.581.83,33.8,10.864,41.069,13.182l.021.009a6.992,6.992,0,0,0,4.583,1.067,17.515,17.515,0,0,0,6.038-2.767,2.419,2.419,0,0,1,.593-.35,11.824,11.824,0,0,1,4.5.887,12.343,12.343,0,0,0,1.231.369c.069.011.144.026.22.042.54.111,1.05.216,1.265-.789a.6.6,0,0,0-.105-.333l-.179-.307.323.147a.765.765,0,0,0,.379.107l.012,0h.013a.952.952,0,0,0,.9-.421c.167-.327.02-.787-.425-1.329l-.683-.833.842.673c.881.716,1.467.892,1.9.571.344-.255.555-.894.014-1.855l-.133-.236.261.072a.309.309,0,0,0,.129.015c.595-.1.958-.216,1.053-.517a1.566,1.566,0,0,0-.234-1.387c-.183-.251-.384-.544-.6-.854-1.452-2.11-3.646-5.3-6.165-4.705-2.333.55-8.459,1.669-11.9,2.287l-.155.028.021-.142-31.892-16.784Z" transform="translate(-1587.158 -1328.804)" fill="#292929"/>
            </g>
            <g id="Group_139644" data-name="Group 139644" transform="translate(50.34 17.142)">
              <g id="Group_139641" data-name="Group 139641" transform="translate(2.76)">
                <path id="Path_196081" data-name="Path 196081" d="M2066.306,1485.693c-.032-.043-3.2-4.292-4.194-4.839-1.154-.638-5.557-.093-5.6-.088l-.028-.224c.184-.023,4.522-.559,5.739.114,1.033.571,4.134,4.726,4.266,4.9Z" transform="translate(-2056.482 -1480.317)" fill="#292929"/>
              </g>
              <g id="Group_139642" data-name="Group 139642" transform="translate(1.75 2.467)">
                <path id="Path_196082" data-name="Path 196082" d="M2056.323,1506.476a46.448,46.448,0,0,0-4.415-3.839c-1.149-.635-4.271-.009-4.3,0l-.045-.222c.131-.027,3.235-.649,4.457.027a45.2,45.2,0,0,1,4.462,3.874Z" transform="translate(-2047.561 -1502.125)" fill="#292929"/>
              </g>
              <g id="Group_139643" data-name="Group 139643" transform="translate(0 4.952)">
                <path id="Path_196083" data-name="Path 196083" d="M2041.693,1527.957c-.044-.028-4.431-2.832-5.44-3.39-1.147-.634-4.077.1-4.106.1l-.056-.219c.124-.031,3.047-.759,4.272-.082,1.015.561,5.408,3.369,5.452,3.4Z" transform="translate(-2032.091 -1524.082)" fill="#292929"/>
              </g>
            </g>
          </g>
          <path id="Path_196084" data-name="Path 196084" d="M1552.339,1285.5l16.689,8.884-6.208,17.005-19.311-8.6Z" transform="translate(-1543.509 -1285.502)" fill="#636363"/>
          <path id="Path_196085" data-name="Path 196085" d="M1676.983,1361.923l8.352,3,6.422-18.246-7.566-3.366Z" transform="translate(-1661.882 -1336.768)" fill="#292929"/>
          <g id="Group_139646" data-name="Group 139646" transform="translate(18.132 22.479)">
            <path id="Path_196086" data-name="Path 196086" d="M1705.07,1486.794a1.3,1.3,0,1,1,.4-2.541h0a1.3,1.3,0,0,1-.4,2.541Zm0-2.379a1.076,1.076,0,0,0-.333,2.1,1.076,1.076,0,1,0,.333-2.1Z" transform="translate(-1703.766 -1484.189)" fill="#f9f9f9"/>
          </g>
          <g id="Group_139647" data-name="Group 139647" transform="translate(14.955 6.388)">
            <path id="Path_196087" data-name="Path 196087" d="M1684.153,1363.838l-3.788-1.229-4.675-1.81,7.292-18.831,3.247,1.445-4.067,10.172-.21-.084,3.986-9.97-2.831-1.259-7.124,18.4,4.458,1.726,3.782,1.227Z" transform="translate(-1675.69 -1341.967)" fill="#f9f9f9"/>
          </g>
        </g>
        <g id="Group_139650" data-name="Group 139650" transform="translate(0.246)">
          <path id="Path_196088" data-name="Path 196088" d="M1505.22,987.9l-11.391,33.159a9.675,9.675,0,0,0,5.842,12.143h0a9.675,9.675,0,0,0,12.519-6.037l11.336-33.178a9.646,9.646,0,0,0-5.266-11.862h0A9.646,9.646,0,0,0,1505.22,987.9Z" transform="translate(-1493.33 -981.303)" fill="#636363"/>
          <g id="Group_139649" data-name="Group 139649" transform="translate(16.253 16.626)">
            <path id="Path_196089" data-name="Path 196089" d="M1637.038,1151.193l-.054-.22,5.2-1.284,7.281-21.438.214.073-7.321,21.555Z" transform="translate(-1636.984 -1128.252)" fill="#f9f9f9"/>
          </g>
        </g>
        <g id="Group_139651" data-name="Group 139651" transform="translate(0 10.057)">
          <path id="Path_196090" data-name="Path 196090" d="M1512.119,1118.952l-13.922-6.38a12.947,12.947,0,0,1-5.906-5.018,8.407,8.407,0,0,1-.629-7.116l10.321-30.241.214.073-10.321,30.241c-1.612,4.724.846,9.267,6.415,11.855l13.921,6.38Z" transform="translate(-1491.156 -1070.197)" fill="#f9f9f9"/>
        </g>
        <g id="Group_139652" data-name="Group 139652" transform="translate(21.729 38.059)">
          <rect id="Rectangle_43048" data-name="Rectangle 43048" width="0.226" height="7.077" transform="translate(0 0.2) rotate(-61.974)" fill="#f9f9f9"/>
        </g>
      </g>
    </g>
    <circle id="Ellipse_5192" data-name="Ellipse 5192" cx="1.236" cy="1.236" r="1.236" transform="translate(959.907 563.911)" fill="#292929"/>
    <circle id="Ellipse_5193" data-name="Ellipse 5193" cx="2.206" cy="2.206" r="2.206" transform="translate(953.313 558.331)" fill="#292929"/>
  </g>
</svg>
