<svg xmlns="http://www.w3.org/2000/svg" xmlns:xlink="http://www.w3.org/1999/xlink" width="292.833" height="199.708" viewBox="0 0 292.833 199.708">
  <defs>
    <clipPath id="clip-path">
      <rect id="Rectangle_43006" data-name="Rectangle 43006" width="18.043" height="17.189" fill="#f9f9f9"/>
    </clipPath>
    <clipPath id="clip-path-2">
      <path id="Path_195968" data-name="Path 195968" d="M3261.287,663.42l-.055,0v-3.87h-10.858V670.41h3.868a1.561,1.561,0,1,1,3.122,0h3.868v-3.87l.055,0a1.562,1.562,0,0,0,0-3.123Z" transform="translate(-3250.374 -659.552)" fill="#afafaf" clip-rule="evenodd"/>
    </clipPath>
  </defs>
  <g id="Group_139500" data-name="Group 139500" transform="translate(-678.56 -449.424)">
    <g id="Group_139402" data-name="Group 139402" transform="translate(686.859 501.467)">
      <g id="Group_139399" data-name="Group 139399" transform="translate(0.136 11.113)">
        <path id="Path_195875" data-name="Path 195875" d="M771.7,1282.587a129.659,129.659,0,0,1,2.313-25.772,93.441,93.441,0,0,1,6.9-22.057c3.915-8.34,9.013-14.965,15.153-19.693a41.5,41.5,0,0,1,19.836-8.239c7.907-1.106,16.754-.224,26.3,2.619a187.664,187.664,0,0,1,29.214,11.742c9.171,4.512,17.886,9.429,26.313,14.185,16.985,9.585,33.027,18.638,47.477,21.029a37.541,37.541,0,0,0,19.5-1.506c6.813-2.5,13.235-7.187,19.633-14.341a213.748,213.748,0,0,0,25.323-34.752,199.747,199.747,0,0,0,14.426-30.265c6.511-17.342,7.9-28.816,7.913-28.93l13.857,1.614c-.062.534-1.605,13.3-8.709,32.22a213.73,213.73,0,0,1-15.434,32.386,227.72,227.72,0,0,1-26.977,37.027,76.433,76.433,0,0,1-12.307,11.217A54.455,54.455,0,0,1,969.5,1268a51.111,51.111,0,0,1-26.579,2.17c-16.882-2.793-33.967-12.435-52.056-22.643-16.641-9.391-33.849-19.1-52.656-24.708-7.6-2.266-14.454-3-20.362-2.175a27.358,27.358,0,0,0-13.252,5.463c-4.337,3.332-8.034,8.189-10.988,14.436a79.032,79.032,0,0,0-5.841,18.619,120.948,120.948,0,0,0-2.124,23.429Z" transform="translate(-771.676 -1146.609)" fill="#4dd0e1"/>
      </g>
      <g id="Group_139401" data-name="Group 139401" transform="translate(0 10.977)">
        <g id="Group_139400" data-name="Group 139400">
          <path id="Path_195876" data-name="Path 195876" d="M784.276,1281.359H770.332a.136.136,0,0,1-.136-.132,129.8,129.8,0,0,1,2.315-25.8,93.581,93.581,0,0,1,6.909-22.089c3.924-8.36,9.036-15,15.193-19.743a41.639,41.639,0,0,1,19.9-8.266c7.926-1.109,16.793-.226,26.353,2.624A187.784,187.784,0,0,1,870.1,1219.7c9.176,4.514,17.891,9.433,26.32,14.189,16.974,9.579,33.006,18.626,47.433,21.013a37.41,37.41,0,0,0,19.433-1.5c6.791-2.488,13.2-7.167,19.578-14.3a213.61,213.61,0,0,0,25.307-34.73,199.627,199.627,0,0,0,14.416-30.244c6.5-17.323,7.892-28.784,7.905-28.9a.136.136,0,0,1,.151-.119l13.857,1.614a.136.136,0,0,1,.119.151c-.062.535-1.607,13.314-8.717,32.252a213.859,213.859,0,0,1-15.444,32.407,227.866,227.866,0,0,1-26.993,37.049,76.585,76.585,0,0,1-12.329,11.238,54.594,54.594,0,0,1-12.958,6.939,48.926,48.926,0,0,1-17.03,3,58.806,58.806,0,0,1-9.618-.821c-16.906-2.8-34-12.445-52.1-22.658-16.635-9.388-33.836-19.095-52.629-24.7-7.584-2.261-14.416-2.991-20.3-2.17a27.223,27.223,0,0,0-13.188,5.436c-4.32,3.319-8,8.159-10.948,14.386a78.911,78.911,0,0,0-5.831,18.587,120.116,120.116,0,0,0-2.122,23.4.136.136,0,0,1-.136.14Zm-13.812-.272h13.673a121.1,121.1,0,0,1,2.13-23.319,79.18,79.18,0,0,1,5.852-18.652c2.963-6.266,6.674-11.14,11.028-14.486a27.487,27.487,0,0,1,13.316-5.489c5.928-.826,12.8-.093,20.42,2.179,18.822,5.61,36.036,15.325,52.684,24.72,18.078,10.2,35.153,19.838,52.011,22.627a50.976,50.976,0,0,0,26.51-2.164,54.321,54.321,0,0,0,12.893-6.906,76.291,76.291,0,0,0,12.284-11.2,227.6,227.6,0,0,0,26.961-37,213.609,213.609,0,0,0,15.424-32.365c6.8-18.1,8.5-30.554,8.685-32.053l-13.588-1.582c-.176,1.339-1.768,12.485-7.9,28.827a199.893,199.893,0,0,1-14.436,30.285,213.877,213.877,0,0,1-25.339,34.774c-6.413,7.171-12.853,11.874-19.687,14.378a37.674,37.674,0,0,1-19.571,1.512c-14.474-2.4-30.526-11.454-47.521-21.044-8.426-4.755-17.139-9.672-26.307-14.182a187.523,187.523,0,0,0-29.193-11.734c-9.522-2.838-18.35-3.718-26.238-2.615a41.371,41.371,0,0,0-19.772,8.212c-6.123,4.714-11.208,11.323-15.113,19.643a93.316,93.316,0,0,0-6.888,22.024A130.309,130.309,0,0,0,770.464,1281.087Z" transform="translate(-770.176 -1145.109)" fill="#5856b8"/>
        </g>
      </g>
      <path id="Path_195877" data-name="Path 195877" d="M3528.625,1023.935l-21.153,17.072,36.573,5.314Z" transform="translate(-3259.51 -1023.935)" fill="#4dd0e1"/>
      <path id="Path_195878" data-name="Path 195878" d="M3621.069,1233.542s16.369-1,15.5-1.123l-14.717-2.125Z" transform="translate(-3362.818 -1211.6)" fill="#292929"/>
    </g>
    <path id="Path_195879" data-name="Path 195879" d="M1496.481,1373.227l1.189,1.043q-.223-.263-.451-.523C1496.982,1373.563,1496.737,1373.389,1496.481,1373.227Z" transform="translate(-743.829 -840.119)" fill="#f9f9f9"/>
    <g id="Group_139404" data-name="Group 139404" transform="translate(728.257 451.321)">
      <g id="Group_139403" data-name="Group 139403" transform="translate(0)">
        <path id="Path_195880" data-name="Path 195880" d="M1419.233,503.428a23.976,23.976,0,0,0-1.955-13.263c-1.953-3.891-5.281-6.93-8.869-9.4-14.185-9.748-33.2-11.3-49.438-5.6-20.681,7.255-37.461,25.24-59.273,27.38-10.335,1.014-20.671-1.727-31.056-1.789s-22.03,3.605-26.449,13a25.324,25.324,0,0,0-1.872,12.621,43.646,43.646,0,0,0,6.228,19.3c1.828,3.023,4.7,5.589,7.125,8.357l.451.523a17.211,17.211,0,0,1,3.455,5.772,14.48,14.48,0,0,1-.346,8.853c-1.863,5.659-5.219,10.511-8.975,15.141h0c-1.963,2.43-13.385,15.322-14.953,17.955-5.448,9.149-6.783,21.586-.193,29.95,4.191,5.319,10.988,7.8,17.555,9.456,5.836,1.468,11.872,2.485,17.863,1.907,11.824-1.14,21.441-9.365,32.045-14.72,5.472-2.763,16.694-7.908,23.627-11.154a32.716,32.716,0,0,1,9.291-.671c2.474.188,5.106.792,6.757,2.644,3.727,4.18.074,11.23,2.6,16.227,1.921,3.793,6.719,5.071,10.969,5.182,11.321.3,22.293-4.832,30.88-12.216s15.057-16.9,20.842-26.637c6.063-10.206,11.575-21.04,13.3-32.784.556-3.775.323-8.4-2.95-10.358-4.233-2.535-10.293,1.4-14.417-1.3-3.786-2.485-2.792-8.266-.966-12.41C1406.733,531.283,1417.608,518.758,1419.233,503.428Z" transform="translate(-1228.541 -471.728)" fill="#f9f9f9"/>
        <path id="Path_195881" data-name="Path 195881" d="M1263.619,642.533a58.711,58.711,0,0,1-14.35-2.08c-5.889-1.482-13.214-3.9-17.628-9.5a22.184,22.184,0,0,1-4.447-14.77,32.868,32.868,0,0,1,4.63-15.334c1.1-1.847,6.893-8.565,11.124-13.471,1.815-2.1,3.248-3.767,3.841-4.5,3.314-4.084,6.969-9.071,8.952-15.1a14.5,14.5,0,0,0,.346-8.769,16.737,16.737,0,0,0-3.43-5.726l-.45-.522c-.73-.834-1.516-1.664-2.276-2.468a36.614,36.614,0,0,1-4.863-5.908,43.807,43.807,0,0,1-6.247-19.356c-.369-5.056.248-9.207,1.885-12.689a18.732,18.732,0,0,1,4.569-6.049,24.559,24.559,0,0,1,6.487-4.067,38.437,38.437,0,0,1,15.517-2.966,122.188,122.188,0,0,1,12.98,1.009c5.924.674,12.049,1.37,18.062.78,12.852-1.261,24.2-8.184,35.166-14.879,7.667-4.68,15.6-9.518,24.076-12.493a59.116,59.116,0,0,1,25.549-3,51.959,51.959,0,0,1,24.011,8.616c4.285,2.945,7.2,6.035,8.913,9.447A23.813,23.813,0,0,1,1418,502.078l-.135-.014.135.014c-1.077,10.164-6.3,19.256-11.351,28.049a150.1,150.1,0,0,0-7.377,13.952c-1.924,4.364-2.693,9.872.916,12.241,2.046,1.343,4.652,1.008,7.173.684s5.11-.657,7.24.618c3.646,2.184,3.454,7.512,3.015,10.495-1.8,12.2-7.742,23.442-13.322,32.834-5.24,8.82-11.817,18.886-20.87,26.671a53.858,53.858,0,0,1-14.451,9.01,40.625,40.625,0,0,1-15.58,3.251q-.471,0-.941-.012a18.423,18.423,0,0,1-6.406-1.22,8.675,8.675,0,0,1-4.681-4.036c-1.171-2.313-1.035-5.065-.9-7.727.159-3.209.308-6.24-1.68-8.47-1.346-1.51-3.527-2.36-6.666-2.6a32.747,32.747,0,0,0-9.237.666c-1.708.8-3.673,1.713-5.753,2.68-6.439,2.993-13.737,6.386-17.857,8.466-3.088,1.559-6.143,3.393-9.1,5.166-7.173,4.305-14.59,8.757-23,9.568C1266.016,642.476,1264.834,642.533,1263.619,642.533Zm3.408-143c-9.716,0-21.592,3.388-26.076,12.926-1.617,3.438-2.225,7.545-1.859,12.553a43.533,43.533,0,0,0,6.209,19.235,36.419,36.419,0,0,0,4.828,5.862c.761.805,1.549,1.638,2.283,2.476l.451.524a16.993,16.993,0,0,1,3.482,5.82,14.765,14.765,0,0,1-.347,8.937c-2,6.068-5.67,11.081-9,15.184-.595.736-2.029,2.4-3.844,4.5-3.986,4.622-10.01,11.608-11.1,13.435-5.073,8.52-7.1,21.038-.2,29.8,4.364,5.538,11.635,7.937,17.481,9.408,7.2,1.811,12.693,2.4,17.816,1.9,8.345-.8,15.735-5.241,22.883-9.531,2.958-1.776,6.017-3.611,9.114-5.175,4.124-2.082,11.424-5.476,17.865-8.47,2.085-.969,4.055-1.885,5.766-2.686a.138.138,0,0,1,.03-.01,33.015,33.015,0,0,1,9.329-.674c3.212.244,5.452,1.124,6.848,2.689,2.063,2.313,1.9,5.542,1.749,8.665-.13,2.626-.264,5.342.875,7.591,2.234,4.412,8.333,5.042,10.851,5.107,10.4.272,21.336-4.055,30.788-12.183,9.023-7.76,15.585-17.8,20.814-26.6,5.566-9.369,11.5-20.585,13.287-32.735.429-2.915.625-8.119-2.886-10.222-2.049-1.227-4.6-.9-7.066-.582-2.57.331-5.227.672-7.357-.726-3.751-2.462-2.984-8.112-1.016-12.578a150.261,150.261,0,0,1,7.39-13.978c5.037-8.769,10.246-17.836,11.317-27.943a23.548,23.548,0,0,0-1.941-13.188c-1.691-3.37-4.578-6.426-8.824-9.345-13.6-9.346-32.5-11.486-49.316-5.586-8.453,2.965-16.369,7.8-24.024,12.469a179.248,179.248,0,0,1-17,9.549,55.883,55.883,0,0,1-18.282,5.369c-6.041.593-12.181-.106-18.119-.781a121.976,121.976,0,0,0-12.951-1.007Z" transform="translate(-1227.176 -470.364)" fill="#292929"/>
      </g>
    </g>
    <g id="Group_139412" data-name="Group 139412" transform="translate(852.966 566.443)">
      <g id="Group_139405" data-name="Group 139405" transform="translate(0 0)">
        <path id="Path_195882" data-name="Path 195882" d="M2606.138,1757.872c7.927,17.077,25.266,53.815,25.266,53.815l11.079-5.076-16.093-57.665c-1.214-4.743-6.2-7.3-11.886-5.765h0C2608.146,1744.9,2603.365,1751.9,2606.138,1757.872Z" transform="translate(-2605.201 -1742.599)" fill="#f9f9f9"/>
        <path id="Path_195883" data-name="Path 195883" d="M2630.075,1810.447a.137.137,0,0,1-.123-.078c-.173-.367-17.429-36.934-25.266-53.816a9.28,9.28,0,0,1,.159-7.934,13.153,13.153,0,0,1,8.293-6.944,10.717,10.717,0,0,1,8.251.825,8.119,8.119,0,0,1,3.8,5.038l16.092,57.662a.136.136,0,0,1-.074.16l-11.079,5.076A.133.133,0,0,1,2630.075,1810.447Zm-13.645-68.953a12.343,12.343,0,0,0-3.221.443,12.873,12.873,0,0,0-8.117,6.8,9.015,9.015,0,0,0-.16,7.7c7.609,16.393,24.1,51.348,25.208,53.693l10.851-4.971-16.062-57.553a7.85,7.85,0,0,0-3.677-4.873A9.513,9.513,0,0,0,2616.43,1741.494Z" transform="translate(-2603.872 -1741.222)" fill="#292929"/>
      </g>
      <g id="Group_139410" data-name="Group 139410" transform="translate(23.917 59.573)">
        <path id="Path_195884" data-name="Path 195884" d="M2982.1,2403.237c.036-.007-.483-4.1,4.31-4.375l2.489,7.323-6.8-.3Z" transform="translate(-2971.754 -2398.862)" fill="#5856b8"/>
        <path id="Path_195885" data-name="Path 195885" d="M2907.567,2452.819v2.532l-.71.505H2869.4v-5.366l.709-.505v-11.137l14.982-2.733,1.317,3.948,9.922,6.885s9.515,3.139,9.819,3.139c.268,0,1.162,2.113,1.373,2.623Z" transform="translate(-2869.263 -2432.74)" fill="#292929"/>
        <path id="Path_195886" data-name="Path 195886" d="M2907.567,2632.606v.608l-.709.505H2869.4V2631.7Z" transform="translate(-2869.263 -2610.604)" fill="#5856b8"/>
        <path id="Path_195887" data-name="Path 195887" d="M2907.567,2592.065v2.532H2869.4v-4.861l.709-.505,37.414,2.724Z" transform="translate(-2869.263 -2571.986)" fill="#f9f9f9"/>
        <path id="Path_195888" data-name="Path 195888" d="M2920.909,2450.905l12.343-2.868.818,2.868-8.554,1.837a4.451,4.451,0,0,1-4.607-1.837Z" transform="translate(-2916.107 -2443.583)" fill="#5856b8"/>
        <g id="Group_139406" data-name="Group 139406" transform="translate(0 17.614)">
          <path id="Path_195889" data-name="Path 195889" d="M2906.2,2596.485h-.01l-38.168-2.9a.136.136,0,1,1,.021-.271l38.168,2.9a.136.136,0,0,1-.01.271Z" transform="translate(-2867.898 -2593.311)" fill="#292929"/>
        </g>
        <path id="Path_195890" data-name="Path 195890" d="M2963.04,2464.186l1.533,2.846a.349.349,0,0,0,.416.166h0a.349.349,0,0,0,.2-.493l-1.488-2.858a.349.349,0,0,0-.4-.177l-.045.012A.35.35,0,0,0,2963.04,2464.186Z" transform="translate(-2954.383 -2457.789)" fill="#f9f9f9"/>
        <g id="Group_139407" data-name="Group 139407" transform="translate(15.991 9.291)">
          <path id="Path_195891" data-name="Path 195891" d="M3044.558,2504.08a.136.136,0,0,1-.117-.2,5.035,5.035,0,0,1,3.926-2.452.136.136,0,1,1,0,.272c-2.3,0-3.678,2.294-3.692,2.317A.136.136,0,0,1,3044.558,2504.08Z" transform="translate(-3044.422 -2501.423)" fill="#f9f9f9"/>
        </g>
        <g id="Group_139408" data-name="Group 139408" transform="translate(18.437 10.86)">
          <path id="Path_195892" data-name="Path 195892" d="M3071.567,2521.248a.134.134,0,0,1-.078-.024.136.136,0,0,1-.034-.189c.069-.1,1.721-2.434,3.757-2.275a.136.136,0,1,1-.021.271c-1.88-.146-3.5,2.136-3.513,2.159A.136.136,0,0,1,3071.567,2521.248Z" transform="translate(-3071.431 -2518.752)" fill="#f9f9f9"/>
        </g>
        <g id="Group_139409" data-name="Group 139409" transform="translate(21.036 12.322)">
          <path id="Path_195893" data-name="Path 195893" d="M3100.251,2537.5a.137.137,0,0,1-.124-.191c.044-.1,1.1-2.421,3.256-2.421a.136.136,0,1,1,0,.272c-1.981,0-3,2.237-3.008,2.259A.136.136,0,0,1,3100.251,2537.5Z" transform="translate(-3100.116 -2534.886)" fill="#f9f9f9"/>
        </g>
      </g>
      <g id="Group_139411" data-name="Group 139411" transform="translate(0.38 10.031)">
        <path id="Path_195894" data-name="Path 195894" d="M2608.2,1856.341a.136.136,0,0,1-.058-.259l8.836-4.109a.136.136,0,0,1,.115.246l-8.836,4.109A.135.135,0,0,1,2608.2,1856.341Z" transform="translate(-2608.065 -1851.96)" fill="#292929"/>
      </g>
    </g>
    <g id="Group_139414" data-name="Group 139414" transform="translate(826.859 467.242)">
      <g id="Group_139413" data-name="Group 139413" transform="translate(0 0)">
        <path id="Path_195895" data-name="Path 195895" d="M2317.163,658.8c.235-.234,7.774-10.336,8.5-11.127s5.913,8.994,5.913,8.994-3.609,6.676-4.222,6.457S2317.163,658.8,2317.163,658.8Z" transform="translate(-2317.027 -647.487)" fill="#f9f9f9"/>
        <path id="Path_195896" data-name="Path 195896" d="M2326.032,661.9a.251.251,0,0,1-.09-.019c-.609-.217-9.805-4.16-10.2-4.327a.136.136,0,0,1-.042-.221c.1-.106,1.476-1.926,2.931-3.853,2.284-3.027,5.128-6.794,5.563-7.269a.276.276,0,0,1,.245-.087c.2.026.731.093,3.391,4.636,1.3,2.219,2.485,4.451,2.5,4.473a.136.136,0,0,1,0,.128c-.009.017-.915,1.69-1.884,3.316C2326.726,661.562,2326.242,661.9,2326.032,661.9Zm-10.013-4.525c1.269.544,9.371,4.014,10.005,4.247.421-.077,2.368-3.257,4.031-6.327-.208-.39-1.332-2.486-2.536-4.534-2.51-4.271-3.042-4.388-3.122-4.368-.426.467-3.265,4.228-5.546,7.25C2317.328,655.663,2316.354,656.952,2316.019,657.378Z" transform="translate(-2315.663 -646.124)" fill="#292929"/>
      </g>
    </g>
    <g id="Group_139421" data-name="Group 139421" transform="translate(835.908 456.379)">
      <path id="Path_195897" data-name="Path 195897" d="M2431.877,540.764a17.809,17.809,0,0,1-1.117-2.995c.073-.767.136-1.572.193-2.42.389-5.847-.984-7.8-6.729-8.955-.094-.019-.189-.037-.284-.054-7.663-1.372-8.395,7.793-8.381,10.8s3.588,8.357,5.9,10.131c2.439,1.87,5.448,2.815,6.886.063a19.133,19.133,0,0,0,1.693-4.746c.226-.1.495-.244.758-.393C2431.545,541.771,2432.165,541.357,2431.877,540.764Z" transform="translate(-2415.56 -526.202)" fill="#f9f9f9"/>
      <path id="Path_195898" data-name="Path 195898" d="M2480.7,548.663c2.438,1.87,5.448,2.815,6.886.063a19.152,19.152,0,0,0,1.693-4.746c.226-.1.495-.244.758-.393.747-.422,1.368-.836,1.08-1.429a17.812,17.812,0,0,1-1.117-2.995c.073-.767.136-1.572.193-2.42.389-5.847-.984-7.8-6.729-8.955-.094-.019-.189-.037-.284-.054Z" transform="translate(-2474.801 -527.596)" fill="#f9f9f9"/>
      <g id="Group_139415" data-name="Group 139415" transform="translate(13.286 10.743)">
        <path id="Path_195899" data-name="Path 195899" d="M2563.123,645.581c-.1.364-.373.606-.609.541s-.347-.412-.248-.776.373-.606.609-.541S2563.222,645.218,2563.123,645.581Z" transform="translate(-2562.229 -644.795)" fill="#292929"/>
      </g>
      <g id="Group_139418" data-name="Group 139418" transform="translate(10.374 15.666)">
        <g id="Group_139416" data-name="Group 139416" transform="translate(0.457 0.536)">
          <path id="Path_195900" data-name="Path 195900" d="M2536.221,707.278a.834.834,0,0,1-.344-.076,1.612,1.612,0,0,1-.611-2.059.136.136,0,0,1,.126-.087c.054,0,1.335.007,1.72.64a.95.95,0,0,1-.05.967A.963.963,0,0,1,2536.221,707.278Zm-.734-1.947a1.316,1.316,0,0,0,.5,1.624c.317.144.621-.008.832-.415a.7.7,0,0,0,.06-.7C2536.648,705.456,2535.869,705.347,2535.487,705.331Z" transform="translate(-2535.131 -705.057)" fill="#292929"/>
        </g>
        <g id="Group_139417" data-name="Group 139417">
          <path id="Path_195901" data-name="Path 195901" d="M2532.637,701.51a.134.134,0,0,1-.063-.016,5.374,5.374,0,0,1-2.476-2.167.136.136,0,0,1,.248-.11,5.258,5.258,0,0,0,2.354,2.037.136.136,0,0,1-.063.256Z" transform="translate(-2530.086 -699.137)" fill="#292929"/>
        </g>
      </g>
      <g id="Group_139419" data-name="Group 139419" transform="translate(4.029 0.003)">
        <path id="Path_195902" data-name="Path 195902" d="M2466.151,549.07c-1.844,0-4.121-1.262-6.073-3.4a.136.136,0,1,1,.2-.183c2.068,2.262,4.491,3.519,6.323,3.28a2.656,2.656,0,0,0,2.078-1.47,19.106,19.106,0,0,0,1.681-4.713.136.136,0,0,1,.076-.094c.206-.094.465-.228.748-.387.83-.469,1.24-.808,1.025-1.251a18.006,18.006,0,0,1-1.127-3.022.129.129,0,0,1,0-.044c.071-.741.134-1.532.193-2.416.2-3.055-.107-4.893-1.038-6.145-.944-1.27-2.613-2.068-5.582-2.668q-.139-.028-.281-.054a.136.136,0,1,1,.048-.268q.145.026.287.055c5.766,1.164,7.235,3.12,6.837,9.1-.059.878-.121,1.664-.191,2.4a17.8,17.8,0,0,0,1.1,2.945c.367.757-.5,1.248-1.135,1.606-.263.148-.506.275-.707.37a19.326,19.326,0,0,1-1.69,4.714,2.917,2.917,0,0,1-2.284,1.614A3.745,3.745,0,0,1,2466.151,549.07Z" transform="translate(-2460.042 -526.235)" fill="#292929"/>
      </g>
      <g id="Group_139420" data-name="Group 139420" transform="translate(12.361 8.403)">
        <path id="Path_195903" data-name="Path 195903" d="M2552.156,619.848a.136.136,0,0,1-.083-.243,3.911,3.911,0,0,1,2.288-.638.136.136,0,0,1,0,.272,3.72,3.72,0,0,0-2.122.581A.136.136,0,0,1,2552.156,619.848Z" transform="translate(-2552.02 -618.967)" fill="#292929"/>
      </g>
    </g>
    <path id="Path_195904" data-name="Path 195904" d="M2537.271,536.465c-.007,1.011-.016,1.5-.086,2.863l-3.331-.31-4.015-.374s-.349-3.842-.349-6.177l2.867-.365A4.364,4.364,0,0,1,2537.271,536.465Z" transform="translate(-1683.261 -75.156)" fill="#292929"/>
    <path id="Path_195905" data-name="Path 195905" d="M1895.431,1167.7s-3.665-9.524,4.369-16.7,10.671-9.271,10.671-9.271l23.17,6.377,5.6,11.788Z" transform="translate(-1105.881 -629.595)" fill="#f9f9f9"/>
    <path id="Path_195906" data-name="Path 195906" d="M1967.984,739.8a11.217,11.217,0,0,1,10.375,7.966c2.884,8.161,4.467,12.908,3.727,15.8s-10.616,29.748-10.616,29.748l-40.886-5.793s15.9-19.826,19.064-25.055S1959.509,741.239,1967.984,739.8Z" transform="translate(-1138.608 -264.072)" fill="#0f2771"/>
    <path id="Path_195907" data-name="Path 195907" d="M1727.1,457.022s-2.083,1.982-5.877,8.144c-3.106,5.045,1.378-2.733-2.132,3.213s-13.726,9.02-17.227,8.13a27.812,27.812,0,0,0-19.115,3.14c-6.339,3.611-14.308.585-22.834-2.136-7.077-2.258-15.977,2.366-17.144,4.117V461.7a8.527,8.527,0,0,1,5.1-1.755,57.037,57.037,0,0,1,7.05.777c-.038-.016-.544-.214-4.715-1.6a10.62,10.62,0,0,0-7.435.619v-6.97s9.045-3.772,17.217.459,17.655-6.493,26.7-3.137,13.423,1.573,21.054.474C1718.587,449,1723.792,452.791,1727.1,457.022Z" transform="translate(-876.865 0)" fill="#292929"/>
    <g id="Group_139423" data-name="Group 139423" transform="translate(838.676 464.874)">
      <path id="Path_195908" data-name="Path 195908" d="M2451.135,621.72s-1.227-2.563-3.388-1.471c-3.035,1.533-1.276,5.406.715,5.649S2451.135,621.72,2451.135,621.72Z" transform="translate(-2446.113 -619.978)" fill="#f9f9f9"/>
      <g id="Group_139422" data-name="Group 139422" transform="translate(0.733 0.824)">
        <path id="Path_195909" data-name="Path 195909" d="M2454.343,631.691a.136.136,0,0,1-.136-.131,2.472,2.472,0,0,1,.687-2.083,2.17,2.17,0,0,1,1.833-.335,1.711,1.711,0,0,1,1.068.865.136.136,0,0,1-.244.12,1.457,1.457,0,0,0-.881-.72,1.908,1.908,0,0,0-1.6.278,2.225,2.225,0,0,0-.589,1.865.136.136,0,0,1-.131.141Z" transform="translate(-2454.203 -629.074)" fill="#292929"/>
      </g>
    </g>
    <g id="Group_139432" data-name="Group 139432" transform="translate(739.911 519.618)">
      <g id="Group_139424" data-name="Group 139424" transform="translate(16.577 60.171)">
        <path id="Path_195910" data-name="Path 195910" d="M1593,1890.992c-16.719,8.657-52.673,27.567-52.673,27.567l5.55,10.849,56.814-17.549c4.686-1.418,7.13-7.535,5.348-13.145h0C1606.043,1892.438,1598.848,1887.964,1593,1890.992Z" transform="translate(-1540.19 -1889.89)" fill="#f9f9f9"/>
        <path id="Path_195911" data-name="Path 195911" d="M1544.512,1928.213a.136.136,0,0,1-.121-.074l-5.55-10.849a.136.136,0,0,1,.058-.182c.359-.189,36.146-19.009,52.674-27.568a9.281,9.281,0,0,1,7.934-.184,13.152,13.152,0,0,1,7.3,7.985,12.2,12.2,0,0,1-.7,9.193,8.109,8.109,0,0,1-4.743,4.123l-56.813,17.549A.137.137,0,0,1,1544.512,1928.213Zm-5.368-10.927,5.437,10.628,56.7-17.515a7.842,7.842,0,0,0,4.582-3.99,11.919,11.919,0,0,0,.677-8.984,12.873,12.873,0,0,0-7.141-7.816,9.013,9.013,0,0,0-7.7.174l-.062-.121.063.121C1575.649,1898.092,1541.439,1916.079,1539.144,1917.286Z" transform="translate(-1538.826 -1888.558)" fill="#292929"/>
      </g>
      <g id="Group_139425" data-name="Group 139425" transform="translate(23.78 0)">
        <path id="Path_195912" data-name="Path 195912" d="M1728.951,1332.766l17.318-5.091-16.353-49.616c-.065-.22-.136-.438-.216-.654l-.006-.018h0a10.66,10.66,0,0,0-2.762-4.134l-48.262-47.443-16.654,12.787-16.444,5.563c.777,2.708,7.211,26.973,12.9,46.093l-38.621,18.1,6.674,17.008,48.406-17.442a10.8,10.8,0,0,0,1.216-.438h0a10.682,10.682,0,0,0,6.411-10.861l-6.655-37.793c10.763,9.88,24.083,21.718,33.855,28.542Z" transform="translate(-1619.713 -1225.676)" fill="#f9f9f9"/>
        <path id="Path_195913" data-name="Path 195913" d="M1727.586,1331.538a.136.136,0,0,1-.125-.083l-19.18-45.355c-7.716-5.393-18.692-14.64-33.542-28.26l6.586,37.4v.01a10.818,10.818,0,0,1-6.493,11,11.015,11.015,0,0,1-1.232.444l-48.4,17.44a.136.136,0,0,1-.173-.078l-6.674-17.008a.136.136,0,0,1,.069-.173l38.515-18.055c-4.4-14.8-9.23-32.61-11.554-41.182-.684-2.524-1.136-4.191-1.311-4.8a.136.136,0,0,1,.087-.166l16.423-5.556,16.636-12.773a.136.136,0,0,1,.178.011l48.262,47.443a10.858,10.858,0,0,1,2.789,4.169.135.135,0,0,1,.008.019l.006.018c.075.2.146.421.217.657l16.352,49.612a.136.136,0,0,1-.091.173l-17.318,5.091A.135.135,0,0,1,1727.586,1331.538Zm-53.05-74.205a.135.135,0,0,1,.092.036c15.013,13.78,26.082,23.113,33.841,28.531a.136.136,0,0,1,.047.058l19.148,45.28,17.067-5.017-16.309-49.483c-.07-.235-.139-.446-.214-.649l0-.007,0-.01a10.59,10.59,0,0,0-2.727-4.081l-48.181-47.363-16.56,12.715a.136.136,0,0,1-.039.021l-16.322,5.522c.2.694.634,2.309,1.277,4.679,2.33,8.593,7.179,26.474,11.586,41.288a.136.136,0,0,1-.073.162l-38.506,18.05,6.579,16.766,48.282-17.4a10.818,10.818,0,0,0,1.209-.435,10.509,10.509,0,0,0,6.33-10.717l-6.655-37.788a.136.136,0,0,1,.134-.159Z" transform="translate(-1618.348 -1224.312)" fill="#292929"/>
      </g>
      <g id="Group_139430" data-name="Group 139430" transform="translate(0 88.407)">
        <path id="Path_195914" data-name="Path 195914" d="M1562.527,2290.467c.017.032,3.743-1.753,5.511,2.709l-6.163,4.672-1.857-6.547Z" transform="translate(-1541.521 -2281.998)" fill="#5856b8"/>
        <path id="Path_195915" data-name="Path 195915" d="M1370.757,2240.207l-2.4.8-.7-.514-11.819-35.545,5.092-1.693.7.514,10.568-3.514,7.321,13.355-3.331,2.495-3.4,11.588s.024,10.02.12,10.308c.085.254-1.639,1.769-2.056,2.131Z" transform="translate(-1355.832 -2200.253)" fill="#292929"/>
        <path id="Path_195916" data-name="Path 195916" d="M1368.932,2281.517l-.577.192-.7-.514-11.819-35.545,1.921-.639Z" transform="translate(-1355.832 -2240.957)" fill="#5856b8"/>
        <path id="Path_195917" data-name="Path 195917" d="M1375.572,2270.326l-2.4.8-12.043-36.219,4.612-1.534.7.514,9.22,36.362Z" transform="translate(-1360.647 -2230.373)" fill="#f9f9f9"/>
        <path id="Path_195918" data-name="Path 195918" d="M1528.433,2245.931l6.616,10.807-2.463,1.682-4.442-7.537a4.452,4.452,0,0,1,.29-4.952Z" transform="translate(-1511.974 -2241.793)" fill="#5856b8"/>
        <g id="Group_139426" data-name="Group 139426" transform="translate(4.956 2.864)">
          <path id="Path_195919" data-name="Path 195919" d="M1419.966,2269.279a.136.136,0,0,1-.132-.1l-9.289-37.134a.136.136,0,0,1,.264-.066l9.289,37.134a.136.136,0,0,1-.1.165A.14.14,0,0,1,1419.966,2269.279Z" transform="translate(-1410.541 -2231.873)" fill="#292929"/>
        </g>
        <path id="Path_195920" data-name="Path 195920" d="M1537.442,2281.982l-2.217,2.353a.35.35,0,0,0-.027.447h0a.35.35,0,0,0,.532.036l2.243-2.313a.349.349,0,0,0,.041-.435l-.026-.039A.349.349,0,0,0,1537.442,2281.982Z" transform="translate(-1518.888 -2274.479)" fill="#f9f9f9"/>
        <g id="Group_139427" data-name="Group 139427" transform="translate(15.637 16.164)">
          <path id="Path_195921" data-name="Path 195921" d="M1532.054,2381.826a.136.136,0,0,1-.129-.093c-.726-2.184-3.338-2.767-3.364-2.772a.136.136,0,0,1,.057-.266,5.033,5.033,0,0,1,3.565,2.952.136.136,0,0,1-.086.172A.14.14,0,0,1,1532.054,2381.826Z" transform="translate(-1528.454 -2378.692)" fill="#f9f9f9"/>
        </g>
        <g id="Group_139428" data-name="Group 139428" transform="translate(15.071 18.931)">
          <path id="Path_195922" data-name="Path 195922" d="M1525.6,2412.253a.136.136,0,0,1-.132-.1c-.454-1.83-3.131-2.644-3.158-2.652a.136.136,0,0,1,.077-.26c.116.034,2.852.866,3.344,2.847a.136.136,0,0,1-.1.164A.126.126,0,0,1,1525.6,2412.253Z" transform="translate(-1522.21 -2409.231)" fill="#f9f9f9"/>
        </g>
        <g id="Group_139429" data-name="Group 139429" transform="translate(14.395 21.894)">
          <path id="Path_195923" data-name="Path 195923" d="M1518.086,2444.449a.136.136,0,0,1-.129-.093c-.626-1.883-3.068-2.139-3.093-2.141a.136.136,0,1,1,.026-.271c.108.01,2.643.277,3.325,2.326a.135.135,0,0,1-.086.172A.132.132,0,0,1,1518.086,2444.449Z" transform="translate(-1514.741 -2441.944)" fill="#f9f9f9"/>
        </g>
      </g>
      <g id="Group_139431" data-name="Group 139431" transform="translate(62.401 64.443)">
        <path id="Path_195924" data-name="Path 195924" d="M2053.421,1938.324a.141.141,0,0,1-.036,0l-8.592-2.343a.136.136,0,0,1,.072-.262l8.592,2.343a.136.136,0,0,1-.036.267Z" transform="translate(-2044.693 -1935.709)" fill="#292929"/>
      </g>
    </g>
    <g id="Group_139470" data-name="Group 139470" transform="translate(769.57 498.524)">
      <g id="Group_139438" data-name="Group 139438" transform="translate(0 0)">
        <g id="Group_139433" data-name="Group 139433">
          <rect id="Rectangle_43000" data-name="Rectangle 43000" width="107.947" height="61.17" transform="translate(0.136 0.136)" fill="#f9f9f9"/>
          <path id="Path_195925" data-name="Path 195925" d="M1791.321,1052.894H1683.374a.136.136,0,0,1-.136-.136v-61.17a.136.136,0,0,1,.136-.136h107.947a.136.136,0,0,1,.136.136v61.17A.136.136,0,0,1,1791.321,1052.894Zm-107.811-.272h107.675v-60.9H1683.51Z" transform="translate(-1683.238 -991.452)" fill="#292929"/>
        </g>
        <g id="Group_139434" data-name="Group 139434" transform="translate(0 8.014)">
          <path id="Path_195926" data-name="Path 195926" d="M1791.321,1080.187H1683.374a.136.136,0,1,1,0-.272h107.947a.136.136,0,1,1,0,.272Z" transform="translate(-1683.238 -1079.915)" fill="#292929"/>
        </g>
        <g id="Group_139437" data-name="Group 139437" transform="translate(101.925 2.807)">
          <g id="Group_139435" data-name="Group 139435">
            <path id="Path_195927" data-name="Path 195927" d="M2811.4,1025.563a.135.135,0,0,1-.1-.04l-2.856-2.856a.136.136,0,0,1,.192-.192l2.856,2.856a.136.136,0,0,1-.1.232Z" transform="translate(-2808.407 -1022.435)" fill="#292929"/>
          </g>
          <g id="Group_139436" data-name="Group 139436">
            <path id="Path_195928" data-name="Path 195928" d="M2808.543,1025.563a.136.136,0,0,1-.1-.232l2.856-2.856a.136.136,0,1,1,.192.192l-2.856,2.856A.135.135,0,0,1,2808.543,1025.563Z" transform="translate(-2808.407 -1022.435)" fill="#292929"/>
          </g>
        </g>
      </g>
      <g id="Group_139440" data-name="Group 139440" transform="translate(68.85 14.99)">
        <rect id="Rectangle_43001" data-name="Rectangle 43001" width="33.019" height="13.291" fill="#5856b8"/>
        <circle id="Ellipse_5166" data-name="Ellipse 5166" cx="4.251" cy="4.251" r="4.251" transform="translate(3.952 2.394)" fill="#f9f9f9"/>
        <g id="Group_139439" data-name="Group 139439" transform="translate(16.51 3.397)">
          <path id="Path_195929" data-name="Path 195929" d="M2638.544,1196.675h-11.875a1.123,1.123,0,0,1-1.124-1.123h0a1.123,1.123,0,0,1,1.124-1.123h11.875a1.123,1.123,0,0,1,1.124,1.123h0A1.123,1.123,0,0,1,2638.544,1196.675Z" transform="translate(-2625.546 -1194.428)" fill="#f9f9f9"/>
          <path id="Path_195930" data-name="Path 195930" d="M2638.544,1243.6h-11.875a1.123,1.123,0,0,1-1.124-1.123h0a1.123,1.123,0,0,1,1.124-1.123h11.875a1.123,1.123,0,0,1,1.124,1.123h0A1.123,1.123,0,0,1,2638.544,1243.6Z" transform="translate(-2625.546 -1237.106)" fill="#f9f9f9"/>
        </g>
      </g>
      <g id="Group_139444" data-name="Group 139444" transform="translate(6.604 14.854)">
        <g id="Group_139442" data-name="Group 139442">
          <g id="Group_139441" data-name="Group 139441">
            <rect id="Rectangle_43002" data-name="Rectangle 43002" width="23.806" height="23.845" transform="translate(0.136 0.136)" fill="#f9f9f9"/>
            <path id="Path_195931" data-name="Path 195931" d="M1780.082,1179.55h-23.806a.136.136,0,0,1-.136-.136v-23.845a.136.136,0,0,1,.136-.136h23.806a.136.136,0,0,1,.136.136v23.845A.136.136,0,0,1,1780.082,1179.55Zm-23.67-.272h23.534V1155.7h-23.534Z" transform="translate(-1756.14 -1155.433)" fill="#292929"/>
          </g>
        </g>
        <g id="Group_139443" data-name="Group 139443" transform="translate(0 3.352)">
          <path id="Path_195932" data-name="Path 195932" d="M1757.64,1193.937h0Z" transform="translate(-1757.504 -1193.801)" fill="#f9f9f9"/>
          <path id="Path_195933" data-name="Path 195933" d="M1780.082,1192.709h-23.806a.136.136,0,1,1,0-.272h23.806a.136.136,0,0,1,0,.272Z" transform="translate(-1756.14 -1192.437)" fill="#292929"/>
        </g>
        <path id="Path_195934" data-name="Path 195934" d="M1777.643,1263.161h20.076s-1.377-5.418-3.769-5.8c-2.977-.474-4.26,2.856-6.217,1.334s-2.916-5.8-5.235-5.755C1779.343,1253,1777.643,1263.161,1777.643,1263.161Z" transform="translate(-1775.695 -1244.109)" fill="#636363"/>
        <circle id="Ellipse_5167" data-name="Ellipse 5167" cx="1.572" cy="1.572" r="1.572" transform="translate(12.386 9.046) rotate(-45)" fill="#636363"/>
      </g>
      <g id="Group_139449" data-name="Group 139449" transform="translate(6.604 44.433)">
        <g id="Group_139445" data-name="Group 139445">
          <path id="Path_195935" data-name="Path 195935" d="M1790.48,1482.228h-34.2a.136.136,0,1,1,0-.272h34.2a.136.136,0,0,1,0,.272Z" transform="translate(-1756.14 -1481.956)" fill="#292929"/>
        </g>
        <g id="Group_139446" data-name="Group 139446" transform="translate(0 3.431)">
          <path id="Path_195936" data-name="Path 195936" d="M1790.48,1520.107h-34.2a.136.136,0,1,1,0-.272h34.2a.136.136,0,0,1,0,.272Z" transform="translate(-1756.14 -1519.835)" fill="#292929"/>
        </g>
        <g id="Group_139447" data-name="Group 139447" transform="translate(0 6.863)">
          <path id="Path_195937" data-name="Path 195937" d="M1790.48,1557.985h-34.2a.136.136,0,1,1,0-.272h34.2a.136.136,0,0,1,0,.272Z" transform="translate(-1756.14 -1557.713)" fill="#292929"/>
        </g>
        <g id="Group_139448" data-name="Group 139448" transform="translate(0 10.294)">
          <path id="Path_195938" data-name="Path 195938" d="M1790.48,1595.864h-34.2a.136.136,0,1,1,0-.272h34.2a.136.136,0,0,1,0,.272Z" transform="translate(-1756.14 -1595.592)" fill="#292929"/>
        </g>
      </g>
      <g id="Group_139452" data-name="Group 139452" transform="translate(35.466 14.854)">
        <g id="Group_139450" data-name="Group 139450">
          <path id="Path_195939" data-name="Path 195939" d="M2103.815,1179.55h-28.927a.136.136,0,0,1-.136-.136v-23.845a.136.136,0,0,1,.136-.136h28.927a.136.136,0,0,1,.136.136v23.845A.136.136,0,0,1,2103.815,1179.55Zm-28.791-.272h28.655V1155.7h-28.655Z" transform="translate(-2074.752 -1155.433)" fill="#5856b8"/>
        </g>
        <g id="Group_139451" data-name="Group 139451" transform="translate(10.886 8.345)">
          <circle id="Ellipse_5168" data-name="Ellipse 5168" cx="3.714" cy="3.714" r="3.714" fill="#5856b8"/>
          <path id="Path_195940" data-name="Path 195940" d="M2229.012,1271.6l-2.96,1.644.057-3.385Z" transform="translate(-2223.232 -1267.842)" fill="#f9f9f9"/>
        </g>
      </g>
      <g id="Group_139466" data-name="Group 139466" transform="translate(81.624 33.187)">
        <rect id="Rectangle_43003" data-name="Rectangle 43003" width="15.008" height="13.826" transform="translate(5.238 7.85)" fill="#292929"/>
        <g id="Group_139464" data-name="Group 139464" transform="translate(0.136 0.136)">
          <rect id="Rectangle_43004" data-name="Rectangle 43004" width="18.043" height="17.189" fill="#f9f9f9"/>
          <g id="Group_139463" data-name="Group 139463" clip-path="url(#clip-path)">
            <g id="Group_139453" data-name="Group 139453" transform="translate(-0.136 -0.136)">
              <rect id="Rectangle_43005" data-name="Rectangle 43005" width="18.043" height="17.189" transform="translate(0.136 0.136)" fill="#f9f9f9"/>
              <path id="Path_195941" data-name="Path 195941" d="M2602.486,1375.273h-18.043a.136.136,0,0,1-.136-.136v-17.189a.136.136,0,0,1,.136-.136h18.043a.136.136,0,0,1,.135.136v17.189A.136.136,0,0,1,2602.486,1375.273Zm-17.907-.272h17.771v-16.917h-17.771Z" transform="translate(-2584.307 -1357.812)" fill="#292929"/>
            </g>
            <g id="Group_139462" data-name="Group 139462" transform="translate(-7.008 -6.5)">
              <g id="Group_139454" data-name="Group 139454">
                <path id="Path_195942" data-name="Path 195942" d="M2508.51,1304.288a.07.07,0,0,1-.052-.024.069.069,0,0,1,.007-.1l19.174-16.592a.069.069,0,0,1,.09.1l-19.174,16.592A.068.068,0,0,1,2508.51,1304.288Z" transform="translate(-2508.441 -1287.557)" fill="#292929"/>
              </g>
              <g id="Group_139455" data-name="Group 139455" transform="translate(1.717 1.984)">
                <path id="Path_195943" data-name="Path 195943" d="M2527.46,1326.186a.069.069,0,0,1-.045-.121l19.174-16.592a.069.069,0,1,1,.09.1l-19.174,16.592A.068.068,0,0,1,2527.46,1326.186Z" transform="translate(-2527.391 -1309.456)" fill="#292929"/>
              </g>
              <g id="Group_139456" data-name="Group 139456" transform="translate(3.433 3.967)">
                <path id="Path_195944" data-name="Path 195944" d="M2546.41,1348.085a.069.069,0,0,1-.045-.121l19.173-16.592a.07.07,0,0,1,.1.007.069.069,0,0,1-.007.1l-19.174,16.592A.069.069,0,0,1,2546.41,1348.085Z" transform="translate(-2546.341 -1331.355)" fill="#292929"/>
              </g>
              <g id="Group_139457" data-name="Group 139457" transform="translate(5.15 5.951)">
                <path id="Path_195945" data-name="Path 195945" d="M2565.36,1369.984a.069.069,0,0,1-.045-.121l19.174-16.592a.069.069,0,0,1,.09.1l-19.174,16.592A.068.068,0,0,1,2565.36,1369.984Z" transform="translate(-2565.291 -1353.254)" fill="#292929"/>
              </g>
              <g id="Group_139458" data-name="Group 139458" transform="translate(6.866 7.935)">
                <path id="Path_195946" data-name="Path 195946" d="M2584.309,1391.883a.069.069,0,0,1-.045-.121l19.174-16.592a.069.069,0,1,1,.09.1l-19.174,16.592A.069.069,0,0,1,2584.309,1391.883Z" transform="translate(-2584.24 -1375.153)" fill="#292929"/>
              </g>
              <g id="Group_139459" data-name="Group 139459" transform="translate(8.583 9.919)">
                <path id="Path_195947" data-name="Path 195947" d="M2603.26,1413.781a.069.069,0,0,1-.045-.121l19.174-16.592a.069.069,0,0,1,.09.1l-19.174,16.592A.068.068,0,0,1,2603.26,1413.781Z" transform="translate(-2603.191 -1397.051)" fill="#292929"/>
              </g>
              <g id="Group_139460" data-name="Group 139460" transform="translate(10.3 11.902)">
                <path id="Path_195948" data-name="Path 195948" d="M2622.21,1435.68a.069.069,0,0,1-.045-.121l19.174-16.592a.069.069,0,0,1,.09.1l-19.174,16.592A.069.069,0,0,1,2622.21,1435.68Z" transform="translate(-2622.141 -1418.949)" fill="#292929"/>
              </g>
              <g id="Group_139461" data-name="Group 139461" transform="translate(12.016 13.886)">
                <path id="Path_195949" data-name="Path 195949" d="M2641.16,1457.578a.069.069,0,0,1-.045-.121l19.174-16.592a.069.069,0,1,1,.09.1l-19.174,16.592A.069.069,0,0,1,2641.16,1457.578Z" transform="translate(-2641.091 -1440.848)" fill="#292929"/>
              </g>
            </g>
          </g>
        </g>
        <g id="Group_139465" data-name="Group 139465">
          <path id="Path_195950" data-name="Path 195950" d="M2602.486,1375.273h-18.043a.136.136,0,0,1-.136-.136v-17.189a.136.136,0,0,1,.136-.136h18.043a.136.136,0,0,1,.135.136v17.189A.136.136,0,0,1,2602.486,1375.273Zm-17.907-.272h17.771v-16.917h-17.771Z" transform="translate(-2584.307 -1357.812)" fill="#292929"/>
        </g>
      </g>
      <g id="Group_139469" data-name="Group 139469" transform="translate(47.714 35.703)">
        <g id="Group_139467" data-name="Group 139467">
          <rect id="Rectangle_43007" data-name="Rectangle 43007" width="29.839" height="19.024" transform="translate(0.136 0.136)" fill="#f9f9f9"/>
          <path id="Path_195951" data-name="Path 195951" d="M2239.94,1404.877H2210.1a.136.136,0,0,1-.136-.136v-19.024a.136.136,0,0,1,.136-.136h29.839a.136.136,0,0,1,.136.136v19.024A.136.136,0,0,1,2239.94,1404.877Zm-29.7-.272H2239.8v-18.752h-29.567Z" transform="translate(-2209.965 -1385.581)" fill="#292929"/>
        </g>
        <g id="Group_139468" data-name="Group 139468" transform="translate(3.257 4.365)">
          <path id="Path_195952" data-name="Path 195952" d="M2252.9,1446.028a.136.136,0,0,1-.11-.056l-6.841-9.382a.136.136,0,0,1,.219-.16l6.715,9.209,6.477-11.8a.136.136,0,0,1,.227-.017l5.831,7.667,4.45-4.811a.136.136,0,0,1,.2.185l-4.561,4.93a.136.136,0,0,1-.208-.01l-5.8-7.63-6.479,11.8a.137.137,0,0,1-.111.07Z" transform="translate(-2245.925 -1433.769)" fill="#5856b8"/>
        </g>
        <circle id="Ellipse_5169" data-name="Ellipse 5169" cx="0.505" cy="0.505" r="0.505" transform="translate(3.1 6.716)" fill="#5856b8"/>
        <circle id="Ellipse_5170" data-name="Ellipse 5170" cx="0.505" cy="0.505" r="0.505" transform="translate(9.769 15.984)" fill="#5856b8"/>
        <circle id="Ellipse_5171" data-name="Ellipse 5171" cx="0.505" cy="0.505" r="0.505" transform="translate(16.309 3.996)" fill="#5856b8"/>
        <circle id="Ellipse_5172" data-name="Ellipse 5172" cx="0.505" cy="0.505" r="0.505" transform="translate(22.255 11.651)" fill="#5856b8"/>
        <path id="Path_195953" data-name="Path 195953" d="M2505.784,1462.439a.5.5,0,1,1-.5-.5A.5.5,0,0,1,2505.784,1462.439Z" transform="translate(-2478.068 -1455.017)" fill="#5856b8"/>
      </g>
    </g>
    <g id="Group_139480" data-name="Group 139480" transform="translate(803.89 480.343)">
      <g id="Group_139477" data-name="Group 139477" transform="translate(0 0)">
        <g id="Group_139475" data-name="Group 139475">
          <g id="Group_139471" data-name="Group 139471">
            <path id="Path_195954" data-name="Path 195954" d="M2096.442,805.315a7.969,7.969,0,0,0-.467-10.712h0a7.969,7.969,0,0,0-11.772.5l-18.773,22.059a7.981,7.981,0,0,0-1.631,7.02h0s4.2,18.672,6.58,29.194c.33,2.191.795,5.452.946,6.051l.029.11c1.219,4.775,2.747,9.569,2.754,9.59h0s1.934,5.724,3.724,6.558c.638.3,1,.121,1.207-.23,1.336,1.332,3.349,2.29,3.628,1.181,1.705,1.194,2.782.588,2.087-.848.576.2,1.046.023,1.1-.564.093-.955-3.507-6.971-3.946-9.859-.3-1.938,2.417,1.22,4.09,2.539.819.645,1.171.141,1.228-.238.159-1.064-2.584-4.745-4.842-8.05q-.271-.4-.529-.781c-.01-.017-.023-.035-.033-.052-.062-.095-.716-1.224-.9-1.569l-1.527-31.8Z" transform="translate(-2063.439 -792.11)" fill="#f9f9f9" fill-rule="evenodd"/>
            <path id="Path_195955" data-name="Path 195955" d="M2082.9,876.045a2.939,2.939,0,0,1-1.507-.56.7.7,0,0,1-.459.376c-.81.224-2.231-.617-3.216-1.557-.219.27-.608.458-1.284.143-1.822-.848-3.716-6.4-3.8-6.638a.087.087,0,0,1,0-.013c-.081-.253-1.565-4.933-2.753-9.587l-.028-.11c-.12-.474-.423-2.521-.716-4.5-.081-.545-.16-1.077-.232-1.559-2.35-10.4-6.537-29-6.579-29.189a.118.118,0,0,1,0-.022,8.167,8.167,0,0,1,1.665-7.114l18.774-22.06a8.1,8.1,0,0,1,12.447,10.385h0L2078.2,824.1l1.523,31.72c.2.368.817,1.437.878,1.532l.017.026.019.03c.168.251.344.511.524.774.386.565.791,1.148,1.183,1.713,2.05,2.95,3.82,5.5,3.68,6.434a.778.778,0,0,1-.437.62,1.043,1.043,0,0,1-1.009-.3c-.464-.366-1.011-.875-1.539-1.368-.808-.753-2.029-1.89-2.3-1.748-.01.005-.094.062-.035.449a29.65,29.65,0,0,0,2.534,6.4c.93,1.943,1.454,3.063,1.412,3.494a.816.816,0,0,1-.351.641.929.929,0,0,1-.654.109,1.057,1.057,0,0,1-.146,1.226A.9.9,0,0,1,2082.9,876.045Zm-1.575-.906a.136.136,0,0,1,.078.025c1.006.7,1.662.7,1.918.481.234-.2.222-.633-.032-1.158a.136.136,0,0,1,.167-.187.812.812,0,0,0,.7-.01.549.549,0,0,0,.227-.438,15.075,15.075,0,0,0-1.387-3.35,29.733,29.733,0,0,1-2.558-6.475c-.039-.253-.062-.6.176-.73.419-.221,1.264.536,2.61,1.789.525.489,1.067.994,1.522,1.353.3.239.56.328.74.256a.509.509,0,0,0,.269-.407c.124-.829-1.787-3.579-3.635-6.239-.392-.565-.8-1.149-1.185-1.714q-.271-.4-.53-.782l-.017-.027-.02-.031c-.062-.094-.72-1.232-.9-1.575a.13.13,0,0,1-.016-.057l-1.527-31.8a.135.135,0,0,1,.032-.094l17.047-20.1a7.833,7.833,0,0,0-12.031-10.035l-18.774,22.06a7.892,7.892,0,0,0-1.6,6.9.141.141,0,0,1,0,.027c.176.78,4.264,18.941,6.574,29.169,0,0,0,.006,0,.01.073.483.152,1.017.233,1.564.279,1.881.594,4.013.711,4.474l.028.109c1.213,4.755,2.736,9.535,2.751,9.583l0,.008c.092.269,1.967,5.685,3.65,6.469.492.229.83.172,1.031-.175a.136.136,0,0,1,.214-.028c1.061,1.058,2.437,1.776,3.068,1.6a.451.451,0,0,0,.332-.357.136.136,0,0,1,.132-.1Zm13.778-71.187h0Z" transform="translate(-2062.101 -790.747)" fill="#292929"/>
          </g>
          <g id="Group_139472" data-name="Group 139472" transform="translate(16.102 76.189)">
            <path id="Path_195956" data-name="Path 195956" d="M2243.645,1638.113a37.374,37.374,0,0,1-3.778-6.157.093.093,0,1,1,.166-.086c3.561,6.855,5.043,7.344,5.058,7.349a.093.093,0,0,1,.065.114.092.092,0,0,1-.111.067C2245.012,1639.391,2244.582,1639.266,2243.645,1638.113Z" transform="translate(-2239.856 -1631.819)" fill="#292929"/>
          </g>
          <g id="Group_139473" data-name="Group 139473" transform="translate(13.956 77.097)">
            <path id="Path_195957" data-name="Path 195957" d="M2219.15,1647.08a19.289,19.289,0,0,1-2.978-5.116.093.093,0,0,1,.174-.068,17.786,17.786,0,0,0,5.145,7.3.093.093,0,0,1-.111.15A14.349,14.349,0,0,1,2219.15,1647.08Z" transform="translate(-2216.166 -1641.836)" fill="#292929"/>
          </g>
          <g id="Group_139474" data-name="Group 139474" transform="translate(12.358 77.83)">
            <path id="Path_195958" data-name="Path 195958" d="M2201.542,1655.34a19.2,19.2,0,0,1-3.012-5.289.093.093,0,0,1,.176-.061,19.059,19.059,0,0,0,3.038,5.3.093.093,0,0,1-.142.12Z" transform="translate(-2198.524 -1649.927)" fill="#292929"/>
          </g>
        </g>
        <g id="Group_139476" data-name="Group 139476" transform="translate(11.623 31.658)">
          <path id="Path_195959" data-name="Path 195959" d="M2194.782,1141.963a.135.135,0,0,1-.044-.008l-4.237-1.46a.136.136,0,1,1,.088-.257l4.237,1.46a.136.136,0,0,1-.044.265Z" transform="translate(-2190.409 -1140.231)" fill="#292929"/>
        </g>
      </g>
      <path id="Path_195960" data-name="Path 195960" d="M2168.643,805.6l10.984-12.03a8.389,8.389,0,0,1,10.773-1.374h0a8.39,8.39,0,0,1,2.252,11.9c-4.077,5.716-9.18,12.749-9.477,12.553C2182.679,816.323,2168.643,805.6,2168.643,805.6Z" transform="translate(-2158.992 -790.828)" fill="#0f2771"/>
      <g id="Group_139478" data-name="Group 139478" transform="translate(22.3 12.782)">
        <path id="Path_195961" data-name="Path 195961" d="M2310.159,945.026a.135.135,0,0,1-.081-.027l-1.748-1.31a.136.136,0,0,1,.163-.217l1.639,1.229,9.633-12.8a.136.136,0,0,1,.217.163l-9.715,12.906A.135.135,0,0,1,2310.159,945.026Z" transform="translate(-2308.276 -931.849)" fill="#f9f9f9"/>
      </g>
      <g id="Group_139479" data-name="Group 139479" transform="translate(9.515 2.605)">
        <path id="Path_195962" data-name="Path 195962" d="M2167.279,831.808a.136.136,0,0,1-.1-.228l10.984-12.03a.136.136,0,1,1,.2.183l-10.983,12.03A.136.136,0,0,1,2167.279,831.808Z" transform="translate(-2167.143 -819.507)" fill="#f9f9f9"/>
      </g>
    </g>
    <g id="Group_139483" data-name="Group 139483" transform="translate(720.686 487.967)">
      <g id="Group_139481" data-name="Group 139481" transform="translate(0 0)">
        <circle id="Ellipse_5173" data-name="Ellipse 5173" cx="11.776" cy="11.776" r="11.776" transform="translate(0.136 0.136)" fill="#f9f9f9"/>
        <path id="Path_195963" data-name="Path 195963" d="M1155.515,898.733a11.912,11.912,0,1,1,11.912-11.912A11.925,11.925,0,0,1,1155.515,898.733Zm0-23.552a11.64,11.64,0,1,0,11.64,11.64A11.654,11.654,0,0,0,1155.515,875.181Z" transform="translate(-1143.603 -874.909)" fill="#292929"/>
      </g>
      <g id="Group_139482" data-name="Group 139482" transform="translate(5.162 3.924)">
        <path id="Path_195964" data-name="Path 195964" d="M1214.09,1012.853h-13.5a6.75,6.75,0,0,1,13.5,0Z" transform="translate(-1200.591 -998.144)" fill="#feca2e"/>
        <circle id="Ellipse_5174" data-name="Ellipse 5174" cx="3.057" cy="3.057" r="3.057" transform="translate(2.427 4.323) rotate(-45)" fill="#feca2e"/>
      </g>
    </g>
    <g id="Group_139487" data-name="Group 139487" transform="translate(904.981 461.976)">
      <g id="Group_139484" data-name="Group 139484" transform="translate(0 0)">
        <circle id="Ellipse_5175" data-name="Ellipse 5175" cx="11.776" cy="11.776" r="11.776" transform="translate(0.136 0.136)" fill="#f9f9f9"/>
        <path id="Path_195965" data-name="Path 195965" d="M3189.98,611.81a11.912,11.912,0,1,1,11.912-11.912A11.926,11.926,0,0,1,3189.98,611.81Zm0-23.552a11.64,11.64,0,1,0,11.64,11.64A11.653,11.653,0,0,0,3189.98,588.258Z" transform="translate(-3178.068 -587.986)" fill="#292929"/>
      </g>
      <g id="Group_139486" data-name="Group 139486" transform="translate(6.55 6.483)">
        <path id="Path_195966" data-name="Path 195966" d="M3261.287,663.42l-.055,0v-3.87h-10.858V670.41h3.868a1.561,1.561,0,1,1,3.122,0h3.868v-3.87l.055,0a1.562,1.562,0,0,0,0-3.123Z" transform="translate(-3250.374 -659.552)" fill="#afafaf" fill-rule="evenodd"/>
        <g id="Group_139485" data-name="Group 139485" clip-path="url(#clip-path-2)">
          <path id="Path_195967" data-name="Path 195967" d="M3272.4,663.42l-.055,0v-3.87h-10.858V670.41h3.868a1.561,1.561,0,1,1,3.123,0h3.868v-3.87l.055,0a1.562,1.562,0,0,0,0-3.123Z" transform="translate(-3260.482 -659.552)" fill="#afafaf" fill-rule="evenodd"/>
        </g>
      </g>
    </g>
    <g id="Group_139492" data-name="Group 139492" transform="translate(678.56 585.073)">
      <g id="Group_139489" data-name="Group 139489" transform="translate(0 0)">
        <g id="Group_139488" data-name="Group 139488">
          <circle id="Ellipse_5176" data-name="Ellipse 5176" cx="11.776" cy="11.776" r="11.776" transform="translate(0.136 0.136)" fill="#f9f9f9"/>
          <path id="Path_195969" data-name="Path 195969" d="M690.472,1970.7a11.912,11.912,0,1,1,11.912-11.912A11.926,11.926,0,0,1,690.472,1970.7Zm0-23.552a11.64,11.64,0,1,0,11.64,11.64A11.653,11.653,0,0,0,690.472,1947.152Z" transform="translate(-678.56 -1946.88)" fill="#292929"/>
        </g>
      </g>
      <g id="Group_139491" data-name="Group 139491" transform="translate(4.984 8.01)">
        <rect id="Rectangle_43008" data-name="Rectangle 43008" width="14.323" height="8.262" transform="translate(0.136 0.136)" fill="#0f2771"/>
        <g id="Group_139490" data-name="Group 139490">
          <path id="Path_195970" data-name="Path 195970" d="M740.873,2039.708a.134.134,0,0,1-.068-.018c-.065-.037-6.536-3.75-7.164-4.133a.136.136,0,0,1,.141-.232c.59.36,6.394,3.691,7.09,4.091l7.094-4.092a.136.136,0,0,1,.136.235l-7.161,4.131A.137.137,0,0,1,740.873,2039.708Z" transform="translate(-733.576 -2035.305)" fill="#f9f9f9"/>
        </g>
      </g>
    </g>
    <g id="Group_139493" data-name="Group 139493" transform="translate(702.216 580.574)">
      <circle id="Ellipse_5177" data-name="Ellipse 5177" cx="3.133" cy="3.133" r="3.133" transform="translate(0 4.43) rotate(-45)" fill="#f9f9f9"/>
      <path id="Path_195971" data-name="Path 195971" d="M955.793,1916.584a3.268,3.268,0,1,1,3.268-3.268A3.272,3.272,0,0,1,955.793,1916.584Zm0-6.265a3,3,0,1,0,3,3A3,3,0,0,0,955.793,1910.319Z" transform="translate(-951.363 -1908.885)" fill="#292929"/>
    </g>
    <g id="Group_139494" data-name="Group 139494" transform="translate(916.757 600.45)">
      <circle id="Ellipse_5178" data-name="Ellipse 5178" cx="5.66" cy="5.66" r="5.66" transform="translate(0.136 0.136)" fill="#f9f9f9"/>
      <path id="Path_195972" data-name="Path 195972" d="M3313.864,2128.225a5.8,5.8,0,1,1,5.8-5.8A5.8,5.8,0,0,1,3313.864,2128.225Zm0-11.321a5.525,5.525,0,1,0,5.524,5.525A5.531,5.531,0,0,0,3313.864,2116.9Z" transform="translate(-3308.068 -2116.632)" fill="#292929"/>
    </g>
    <g id="Group_139495" data-name="Group 139495" transform="translate(935.999 528.818)">
      <circle id="Ellipse_5179" data-name="Ellipse 5179" cx="3.771" cy="3.771" r="3.771" transform="translate(0 5.333) rotate(-45)" fill="#f9f9f9"/>
      <path id="Path_195973" data-name="Path 195973" d="M3540.132,1349.428a3.907,3.907,0,1,1,3.906-3.907A3.911,3.911,0,0,1,3540.132,1349.428Zm0-7.542a3.635,3.635,0,1,0,3.635,3.635A3.639,3.639,0,0,0,3540.132,1341.887Z" transform="translate(-3534.799 -1340.189)" fill="#292929"/>
    </g>
    <g id="Group_139496" data-name="Group 139496" transform="translate(896.664 459.648)">
      <circle id="Ellipse_5180" data-name="Ellipse 5180" cx="3.462" cy="3.462" r="3.462" transform="matrix(0.924, -0.383, 0.383, 0.924, 0, 2.65)" fill="#f9f9f9"/>
      <path id="Path_195974" data-name="Path 195974" d="M3100.071,579.7a3.6,3.6,0,1,1,3.6-3.6A3.6,3.6,0,0,1,3100.071,579.7Zm0-6.924a3.326,3.326,0,1,0,3.326,3.326A3.33,3.33,0,0,0,3100.071,572.78Z" transform="translate(-3095.548 -571.582)" fill="#292929"/>
    </g>
    <g id="Group_139497" data-name="Group 139497" transform="translate(917.032 494.5)">
      <rect id="Rectangle_43009" data-name="Rectangle 43009" width="8.299" height="1.606" transform="translate(1.916 7.741) rotate(-68.884)" fill="#f9f9f9"/>
      <rect id="Rectangle_43010" data-name="Rectangle 43010" width="1.606" height="8.299" transform="matrix(0.36, -0.933, 0.933, 0.36, 0, 3.414)" fill="#f9f9f9"/>
    </g>
    <g id="Group_139498" data-name="Group 139498" transform="translate(948.91 571.33)">
      <rect id="Rectangle_43011" data-name="Rectangle 43011" width="8.299" height="1.606" transform="matrix(0.952, -0.306, 0.306, 0.952, 0, 4.699)" fill="#5856b8"/>
      <rect id="Rectangle_43012" data-name="Rectangle 43012" width="1.606" height="8.299" transform="matrix(0.952, -0.306, 0.306, 0.952, 2.164, 0.491)" fill="#5856b8"/>
    </g>
    <g id="Group_139499" data-name="Group 139499" transform="translate(740.152 514.935)">
      <rect id="Rectangle_43013" data-name="Rectangle 43013" width="8.299" height="1.606" transform="translate(0 4.406) rotate(-13.444)" fill="#5856b8"/>
      <rect id="Rectangle_43014" data-name="Rectangle 43014" width="1.606" height="8.299" transform="translate(2.477 0.373) rotate(-13.444)" fill="#5856b8"/>
    </g>
  </g>
</svg>
