<svg xmlns="http://www.w3.org/2000/svg" width="100" height="100" viewBox="0 0 100 100">
  <g id="Group_136817" data-name="Group 136817" transform="translate(-180 -3836)">
    <circle id="Ellipse_5071" data-name="Ellipse 5071" cx="50" cy="50" r="50" transform="translate(180 3836)" fill="#0f2771"/>
    <g id="Group_136815" data-name="Group 136815" transform="translate(208 3854.03)">
      <path id="Path_193585" data-name="Path 193585" d="M1924.317,4013.086H1921a1.047,1.047,0,0,0,0,2.094h2.267v17.891h-36.34V4015.18h26.881l-10.479,10.479-2.574-2.575a1.047,1.047,0,0,0-1.48,1.48l3.314,3.314a1.048,1.048,0,0,0,1.48,0l14.137-14.137a1.047,1.047,0,0,0-1.48-1.48l-.83.83c-.019,0-.037-.006-.056-.006h-29.959a1.047,1.047,0,0,0-1.047,1.047v19.984a1.047,1.047,0,0,0,1.047,1.047h18.17v7.675h-12.319a1.046,1.046,0,0,0-1.046,1.047v12.021a1.047,1.047,0,0,0,1.046,1.047h12.319v7.925h-12.319a1.047,1.047,0,0,0-1.046,1.047v12.021a1.047,1.047,0,0,0,1.046,1.047h26.732a1.047,1.047,0,0,0,1.047-1.047v-12.021a1.047,1.047,0,0,0-1.047-1.047h-12.319v-7.925h12.319a1.047,1.047,0,0,0,1.047-1.047v-12.021a1.046,1.046,0,0,0-1.047-1.047h-12.319v-7.675h18.17a1.047,1.047,0,0,0,1.047-1.047v-19.984A1.047,1.047,0,0,0,1924.317,4013.086Zm-6.9,63.813h-24.638v-9.927h24.638Zm0-22.04h-24.638v-9.927h24.638Z" transform="translate(-1884.837 -4011.956)" fill="#fff"/>
    </g>
  </g>
</svg>
