<svg xmlns="http://www.w3.org/2000/svg" width="408" height="276.741" viewBox="0 0 408 276.741">
  <g id="Group_136514" data-name="Group 136514" transform="translate(-52.531 -32.603)">
    <g id="Group_136320" data-name="Group 136320" transform="translate(95.836 299.936)">
      <g id="Group_136317" data-name="Group 136317" transform="translate(287.899)">
        <path id="Path_193346" data-name="Path 193346" d="M364.269,274.143H349.462a1.568,1.568,0,0,1-1.568-1.569h0a1.568,1.568,0,0,1,1.568-1.568h14.807a1.568,1.568,0,0,1,1.568,1.568h0A1.568,1.568,0,0,1,364.269,274.143Z" transform="translate(-347.894 -271.007)" fill="#6f83ed"/>
        <path id="Path_193347" data-name="Path 193347" d="M377.113,274.143h-5.368a1.568,1.568,0,0,1-1.568-1.569h0a1.568,1.568,0,0,1,1.568-1.568h5.368a1.568,1.568,0,0,1,1.568,1.568h0A1.568,1.568,0,0,1,377.113,274.143Z" transform="translate(-345.19 -271.007)" fill="#6f83ed"/>
      </g>
      <g id="Group_136318" data-name="Group 136318" transform="translate(0 6.272)">
        <rect id="Rectangle_42143" data-name="Rectangle 42143" width="8.503" height="3.136" rx="1.398" fill="#6f83ed"/>
      </g>
      <g id="Group_136319" data-name="Group 136319" transform="translate(11.138)">
        <path id="Path_193348" data-name="Path 193348" d="M327.956,275.483a1.65,1.65,0,0,1,1.672-1.34h37.109a1.653,1.653,0,0,0,1.672-1.34,1.569,1.569,0,0,0-1.552-1.8H120.131a1.626,1.626,0,0,0-1.63,1.305,1.569,1.569,0,0,0,1.546,1.831h25.563a1.625,1.625,0,0,1,1.629,1.3,1.568,1.568,0,0,1-1.546,1.831H102.735a1.626,1.626,0,0,0-1.63,1.305,1.569,1.569,0,0,0,1.546,1.831H389.087a1.654,1.654,0,0,0,1.673-1.34,1.569,1.569,0,0,0-1.552-1.8h-59.7A1.568,1.568,0,0,1,327.956,275.483Z" transform="translate(-101.083 -271.007)" fill="#6f83ed"/>
      </g>
    </g>
    <g id="Group_136513" data-name="Group 136513" transform="translate(52.531 32.603)">
      <g id="Group_136410" data-name="Group 136410" transform="translate(85.175 117.261)">
        <g id="Group_136323" data-name="Group 136323">
          <g id="Group_136321" data-name="Group 136321" transform="translate(15.948)">
            <path id="Rectangle_42144" data-name="Rectangle 42144" d="M6.511,0H199.242a6.511,6.511,0,0,1,6.511,6.511V137.538a0,0,0,0,1,0,0H0a0,0,0,0,1,0,0V6.511A6.511,6.511,0,0,1,6.511,0Z" fill="#fefefe"/>
            <path id="Rectangle_42145" data-name="Rectangle 42145" d="M4.557,0h128.6a0,0,0,0,1,0,0V201.372a0,0,0,0,1,0,0H4.557A4.557,4.557,0,0,1,0,196.814V4.557A4.557,4.557,0,0,1,4.557,0Z" transform="translate(203.562 2.19) rotate(90)" fill="#2f3bac"/>
            <rect id="Rectangle_42146" data-name="Rectangle 42146" width="117.096" height="185.31" transform="translate(195.531 10.221) rotate(90)" fill="#72c0ce"/>
          </g>
          <g id="Group_136322" data-name="Group 136322" transform="translate(0 137.538)">
            <rect id="Rectangle_42147" data-name="Rectangle 42147" width="237.649" height="6.269" transform="translate(0)" fill="#cdd5f8"/>
            <path id="Path_193349" data-name="Path 193349" d="M354.959,271.685H139.668a13.106,13.106,0,0,1-11.179-6.266H366.138A13.1,13.1,0,0,1,354.959,271.685Z" transform="translate(-128.489 -259.15)" fill="#a9b1e3"/>
            <path id="Path_193350" data-name="Path 193350" d="M252.086,262.963H220.879a3.134,3.134,0,0,1-3.134-3.134h37.476A3.135,3.135,0,0,1,252.086,262.963Z" transform="translate(-117.658 -259.829)" fill="#a9b1e3"/>
          </g>
        </g>
        <g id="Group_136409" data-name="Group 136409" transform="translate(33.407 19.921)">
          <g id="Group_136324" data-name="Group 136324" transform="translate(68.276 32.217)">
            <rect id="Rectangle_42148" data-name="Rectangle 42148" width="30.359" height="12.019" transform="translate(1.962)" fill="#efba67"/>
            <path id="Path_193351" data-name="Path 193351" d="M231.54,188.641h0a1.158,1.158,0,0,0-1.158-1.158H220.327a1.158,1.158,0,0,0-1.158,1.158V216.47h34.282V189.8H232.7A1.158,1.158,0,0,1,231.54,188.641Z" transform="translate(-219.169 -183.208)" fill="#eaa022"/>
          </g>
          <g id="Group_136408" data-name="Group 136408">
            <g id="Group_136396" data-name="Group 136396" transform="translate(0 0.881)">
              <g id="Group_136328" data-name="Group 136328" transform="translate(4.015)">
                <g id="Group_136325" data-name="Group 136325" transform="translate(4.198)">
                  <rect id="Rectangle_42149" data-name="Rectangle 42149" width="5.476" height="2.92" fill="#fff"/>
                </g>
                <g id="Group_136326" data-name="Group 136326" transform="translate(15.149)">
                  <rect id="Rectangle_42150" data-name="Rectangle 42150" width="25.735" height="2.92" fill="#fff"/>
                </g>
                <g id="Group_136327" data-name="Group 136327">
                  <rect id="Rectangle_42151" data-name="Rectangle 42151" width="1.917" height="2.92" fill="#fff"/>
                </g>
              </g>
              <g id="Group_136332" data-name="Group 136332" transform="translate(4.015 8.031)">
                <g id="Group_136329" data-name="Group 136329" transform="translate(4.198)">
                  <rect id="Rectangle_42152" data-name="Rectangle 42152" width="5.476" height="2.92" fill="#fff"/>
                </g>
                <g id="Group_136330" data-name="Group 136330" transform="translate(15.149)">
                  <rect id="Rectangle_42153" data-name="Rectangle 42153" width="25.735" height="2.92" fill="#fff"/>
                </g>
                <g id="Group_136331" data-name="Group 136331">
                  <rect id="Rectangle_42154" data-name="Rectangle 42154" width="1.917" height="2.92" fill="#fff"/>
                </g>
              </g>
              <g id="Group_136336" data-name="Group 136336" transform="translate(4.015 16.061)">
                <g id="Group_136333" data-name="Group 136333" transform="translate(4.198)">
                  <rect id="Rectangle_42155" data-name="Rectangle 42155" width="5.476" height="2.92" fill="#fff"/>
                </g>
                <g id="Group_136334" data-name="Group 136334" transform="translate(15.149)">
                  <rect id="Rectangle_42156" data-name="Rectangle 42156" width="25.735" height="2.92" fill="#fff"/>
                </g>
                <g id="Group_136335" data-name="Group 136335">
                  <rect id="Rectangle_42157" data-name="Rectangle 42157" width="1.917" height="2.92" fill="#fff"/>
                </g>
              </g>
              <g id="Group_136340" data-name="Group 136340" transform="translate(4.015 24.092)">
                <g id="Group_136337" data-name="Group 136337" transform="translate(4.198)">
                  <rect id="Rectangle_42158" data-name="Rectangle 42158" width="5.476" height="2.92" fill="#fff"/>
                </g>
                <g id="Group_136338" data-name="Group 136338" transform="translate(15.149)">
                  <rect id="Rectangle_42159" data-name="Rectangle 42159" width="25.735" height="2.92" fill="#fff"/>
                </g>
                <g id="Group_136339" data-name="Group 136339">
                  <rect id="Rectangle_42160" data-name="Rectangle 42160" width="1.917" height="2.92" fill="#fff"/>
                </g>
              </g>
              <g id="Group_136343" data-name="Group 136343" transform="translate(0.73 32.123)">
                <g id="Group_136341" data-name="Group 136341">
                  <rect id="Rectangle_42161" data-name="Rectangle 42161" width="12.959" height="2.92" fill="#fff"/>
                </g>
                <g id="Group_136342" data-name="Group 136342" transform="translate(18.434)">
                  <rect id="Rectangle_42162" data-name="Rectangle 42162" width="33.035" height="2.92" fill="#fff"/>
                </g>
              </g>
              <g id="Group_136346" data-name="Group 136346" transform="translate(5.932 40.153)">
                <g id="Group_136344" data-name="Group 136344">
                  <rect id="Rectangle_42163" data-name="Rectangle 42163" width="7.757" height="2.92" fill="#fff"/>
                </g>
                <g id="Group_136345" data-name="Group 136345" transform="translate(13.232)">
                  <rect id="Rectangle_42164" data-name="Rectangle 42164" width="36.564" height="2.92" fill="#fff"/>
                </g>
              </g>
              <g id="Group_136350" data-name="Group 136350" transform="translate(116.049 54.665)">
                <g id="Group_136347" data-name="Group 136347" transform="translate(4.198)">
                  <rect id="Rectangle_42165" data-name="Rectangle 42165" width="5.476" height="2.92" fill="#fff"/>
                </g>
                <g id="Group_136348" data-name="Group 136348" transform="translate(15.149)">
                  <rect id="Rectangle_42166" data-name="Rectangle 42166" width="25.735" height="2.92" fill="#fff"/>
                </g>
                <g id="Group_136349" data-name="Group 136349">
                  <rect id="Rectangle_42167" data-name="Rectangle 42167" width="1.916" height="2.92" fill="#fff"/>
                </g>
              </g>
              <g id="Group_136354" data-name="Group 136354" transform="translate(116.049 62.696)">
                <g id="Group_136351" data-name="Group 136351" transform="translate(4.198)">
                  <rect id="Rectangle_42168" data-name="Rectangle 42168" width="5.476" height="2.92" fill="#fff"/>
                </g>
                <g id="Group_136352" data-name="Group 136352" transform="translate(15.149)">
                  <rect id="Rectangle_42169" data-name="Rectangle 42169" width="14.571" height="2.92" fill="#fff"/>
                </g>
                <g id="Group_136353" data-name="Group 136353">
                  <rect id="Rectangle_42170" data-name="Rectangle 42170" width="1.916" height="2.92" fill="#fff"/>
                </g>
              </g>
              <g id="Group_136358" data-name="Group 136358" transform="translate(116.049 70.726)">
                <g id="Group_136355" data-name="Group 136355" transform="translate(4.198)">
                  <rect id="Rectangle_42171" data-name="Rectangle 42171" width="5.476" height="2.92" fill="#fff"/>
                </g>
                <g id="Group_136356" data-name="Group 136356" transform="translate(15.149)">
                  <rect id="Rectangle_42172" data-name="Rectangle 42172" width="31.788" height="2.92" fill="#fff"/>
                </g>
                <g id="Group_136357" data-name="Group 136357">
                  <rect id="Rectangle_42173" data-name="Rectangle 42173" width="1.916" height="2.92" fill="#fff"/>
                </g>
              </g>
              <g id="Group_136362" data-name="Group 136362" transform="translate(116.049 78.757)">
                <g id="Group_136359" data-name="Group 136359" transform="translate(4.198)">
                  <rect id="Rectangle_42174" data-name="Rectangle 42174" width="5.476" height="2.92" fill="#fff"/>
                </g>
                <g id="Group_136360" data-name="Group 136360" transform="translate(15.149)">
                  <rect id="Rectangle_42175" data-name="Rectangle 42175" width="21.142" height="2.92" fill="#fff"/>
                </g>
                <g id="Group_136361" data-name="Group 136361">
                  <rect id="Rectangle_42176" data-name="Rectangle 42176" width="1.916" height="2.92" fill="#fff"/>
                </g>
              </g>
              <g id="Group_136366" data-name="Group 136366" transform="translate(4.015 56.215)">
                <g id="Group_136363" data-name="Group 136363" transform="translate(4.198)">
                  <rect id="Rectangle_42177" data-name="Rectangle 42177" width="5.476" height="2.92" fill="#fff"/>
                </g>
                <g id="Group_136364" data-name="Group 136364" transform="translate(15.149)">
                  <rect id="Rectangle_42178" data-name="Rectangle 42178" width="25.735" height="2.92" fill="#fff"/>
                </g>
                <g id="Group_136365" data-name="Group 136365">
                  <rect id="Rectangle_42179" data-name="Rectangle 42179" width="1.917" height="2.92" fill="#fff"/>
                </g>
              </g>
              <g id="Group_136369" data-name="Group 136369" transform="translate(0 64.245)">
                <g id="Group_136367" data-name="Group 136367">
                  <rect id="Rectangle_42180" data-name="Rectangle 42180" width="13.689" height="2.92" fill="#fff"/>
                </g>
                <g id="Group_136368" data-name="Group 136368" transform="translate(19.164)">
                  <rect id="Rectangle_42181" data-name="Rectangle 42181" width="30.115" height="2.92" fill="#fff"/>
                </g>
              </g>
              <g id="Group_136373" data-name="Group 136373" transform="translate(4.015 80.307)">
                <g id="Group_136370" data-name="Group 136370" transform="translate(4.198)">
                  <rect id="Rectangle_42182" data-name="Rectangle 42182" width="5.476" height="2.92" fill="#fff"/>
                </g>
                <g id="Group_136371" data-name="Group 136371" transform="translate(15.149)">
                  <rect id="Rectangle_42183" data-name="Rectangle 42183" width="25.735" height="2.92" fill="#fff"/>
                </g>
                <g id="Group_136372" data-name="Group 136372">
                  <rect id="Rectangle_42184" data-name="Rectangle 42184" width="1.917" height="2.92" fill="#fff"/>
                </g>
              </g>
              <g id="Group_136377" data-name="Group 136377" transform="translate(4.015 88.338)">
                <g id="Group_136374" data-name="Group 136374" transform="translate(4.198)">
                  <rect id="Rectangle_42185" data-name="Rectangle 42185" width="5.476" height="2.92" fill="#fff"/>
                </g>
                <g id="Group_136375" data-name="Group 136375" transform="translate(15.149)">
                  <rect id="Rectangle_42186" data-name="Rectangle 42186" width="25.735" height="2.92" fill="#fff"/>
                </g>
                <g id="Group_136376" data-name="Group 136376">
                  <rect id="Rectangle_42187" data-name="Rectangle 42187" width="1.917" height="2.92" fill="#fff"/>
                </g>
              </g>
              <g id="Group_136381" data-name="Group 136381" transform="translate(4.015 96.368)">
                <g id="Group_136378" data-name="Group 136378" transform="translate(4.198)">
                  <rect id="Rectangle_42188" data-name="Rectangle 42188" width="5.476" height="2.92" fill="#fff"/>
                </g>
                <g id="Group_136379" data-name="Group 136379" transform="translate(15.149)">
                  <rect id="Rectangle_42189" data-name="Rectangle 42189" width="25.735" height="2.92" fill="#fff"/>
                </g>
                <g id="Group_136380" data-name="Group 136380">
                  <rect id="Rectangle_42190" data-name="Rectangle 42190" width="1.917" height="2.92" fill="#fff"/>
                </g>
              </g>
              <g id="Group_136385" data-name="Group 136385" transform="translate(111.836 5.493)">
                <g id="Group_136382" data-name="Group 136382">
                  <rect id="Rectangle_42191" data-name="Rectangle 42191" width="6.571" height="2.92" fill="#fff"/>
                </g>
                <g id="Group_136383" data-name="Group 136383" transform="translate(11.133)">
                  <rect id="Rectangle_42192" data-name="Rectangle 42192" width="34.587" height="2.92" fill="#fff"/>
                </g>
                <g id="Group_136384" data-name="Group 136384" transform="translate(49.097)">
                  <rect id="Rectangle_42193" data-name="Rectangle 42193" width="4.107" height="2.92" fill="#fff"/>
                </g>
              </g>
              <g id="Group_136389" data-name="Group 136389" transform="translate(111.836 13.689)">
                <g id="Group_136386" data-name="Group 136386">
                  <rect id="Rectangle_42194" data-name="Rectangle 42194" width="6.571" height="2.92" fill="#fff"/>
                </g>
                <g id="Group_136387" data-name="Group 136387" transform="translate(11.133)">
                  <rect id="Rectangle_42195" data-name="Rectangle 42195" width="34.587" height="2.92" fill="#fff"/>
                </g>
                <g id="Group_136388" data-name="Group 136388" transform="translate(49.097)">
                  <rect id="Rectangle_42196" data-name="Rectangle 42196" width="4.107" height="2.92" fill="#fff"/>
                </g>
              </g>
              <g id="Group_136392" data-name="Group 136392" transform="translate(111.836 21.884)">
                <g id="Group_136390" data-name="Group 136390">
                  <rect id="Rectangle_42197" data-name="Rectangle 42197" width="6.571" height="2.92" fill="#fff"/>
                </g>
                <g id="Group_136391" data-name="Group 136391" transform="translate(11.133)">
                  <rect id="Rectangle_42198" data-name="Rectangle 42198" width="23.59" height="2.92" fill="#fff"/>
                </g>
              </g>
              <g id="Group_136395" data-name="Group 136395" transform="translate(111.836 30.079)">
                <g id="Group_136393" data-name="Group 136393">
                  <rect id="Rectangle_42199" data-name="Rectangle 42199" width="6.571" height="2.92" fill="#fff"/>
                </g>
                <g id="Group_136394" data-name="Group 136394" transform="translate(11.133)">
                  <rect id="Rectangle_42200" data-name="Rectangle 42200" width="17.294" height="2.92" fill="#fff"/>
                </g>
              </g>
            </g>
            <g id="Group_136407" data-name="Group 136407" transform="translate(52.93)">
              <g id="Group_136397" data-name="Group 136397" transform="translate(0.365)">
                <rect id="Rectangle_42201" data-name="Rectangle 42201" width="0.73" height="26.433" fill="#fff"/>
              </g>
              <g id="Group_136398" data-name="Group 136398" transform="translate(4.928 15.665)">
                <path id="Path_193352" data-name="Path 193352" d="M230.5,200.119h-.73V176.743h-7.65l-7.1-7.1h-5.142v-.73h5.444l7.1,7.1H230.5Z" transform="translate(-209.878 -168.909)" fill="#fff"/>
              </g>
              <g id="Group_136399" data-name="Group 136399" transform="translate(0.73 54.373)">
                <path id="Path_193353" data-name="Path 193353" d="M215.228,211.262h-9.094v-.73h8.792l7.1-7.1h8.562v.73h-8.26Z" transform="translate(-206.134 -203.429)" fill="#fff"/>
              </g>
              <g id="Group_136400" data-name="Group 136400" transform="translate(0 59.773)">
                <path id="Path_193354" data-name="Path 193354" d="M220.692,239.515H205.483v-.73h14.906l17.506-17.505V208.244h.73v13.338Z" transform="translate(-205.483 -208.244)" fill="#fff"/>
              </g>
              <g id="Group_136401" data-name="Group 136401" transform="translate(38.359 15.665)">
                <path id="Path_193355" data-name="Path 193355" d="M240.421,198.9h-.73V178.948l10.039-10.039H254.5v.73h-4.472l-9.611,9.611Z" transform="translate(-239.691 -168.909)" fill="#fff"/>
              </g>
              <g id="Group_136402" data-name="Group 136402" transform="translate(40.883 54.738)">
                <path id="Path_193356" data-name="Path 193356" d="M259.966,221.078h-7.832l-10.192-10.192v-7.132h.73v6.83l9.764,9.764h7.53Z" transform="translate(-241.942 -203.754)" fill="#fff"/>
              </g>
              <g id="Group_136403" data-name="Group 136403" transform="translate(58.542 44.928)">
                <path id="Path_193357" data-name="Path 193357" d="M258.42,202.306h-.73v-7.3h7.651v.73H258.42Z" transform="translate(-257.69 -195.006)" fill="#fff"/>
              </g>
              <g id="Group_136404" data-name="Group 136404" transform="translate(99.41 79.91)">
                <path id="Path_193358" data-name="Path 193358" d="M309.345,239.344H294.136v-.73h14.479V226.2h.73Z" transform="translate(-294.136 -226.203)" fill="#fff"/>
              </g>
              <g id="Group_136405" data-name="Group 136405" transform="translate(74.649 44.928)">
                <rect id="Rectangle_42202" data-name="Rectangle 42202" width="22.814" height="0.73" fill="#fff"/>
              </g>
              <g id="Group_136406" data-name="Group 136406" transform="translate(104.764 44.928)">
                <rect id="Rectangle_42203" data-name="Rectangle 42203" width="5.293" height="0.73" fill="#fff"/>
              </g>
            </g>
          </g>
        </g>
      </g>
      <g id="Group_136414" data-name="Group 136414" transform="translate(139.121)">
        <g id="Group_136411" data-name="Group 136411" transform="translate(0)">
          <path id="Path_193359" data-name="Path 193359" d="M302.4,50.187A114.323,114.323,0,0,1,241.476,32.6h0a114.323,114.323,0,0,1-60.92,17.584H176.6V96.627a87.308,87.308,0,0,0,64.879,84.378h0a87.308,87.308,0,0,0,64.879-84.378V50.187Z" transform="translate(-176.597 -32.603)" fill="#2f3bac"/>
          <path id="Path_193360" data-name="Path 193360" d="M240.625,171.847A79.535,79.535,0,0,1,183.61,95.634V57a122.011,122.011,0,0,0,57.015-16.208A122.012,122.012,0,0,0,297.641,57V95.634A79.536,79.536,0,0,1,240.625,171.847Z" transform="translate(-175.746 -31.61)" fill="#fff"/>
        </g>
        <g id="Group_136413" data-name="Group 136413" transform="translate(32.467 28.952)">
          <rect id="Rectangle_42204" data-name="Rectangle 42204" width="63.515" height="42.344" transform="translate(0 35.774)" fill="#6f83ed"/>
          <g id="Group_136412" data-name="Group 136412" transform="translate(8.03)">
            <rect id="Rectangle_42205" data-name="Rectangle 42205" width="8.031" height="6.319" transform="translate(0 29.455)" fill="#6176eb"/>
            <rect id="Rectangle_42206" data-name="Rectangle 42206" width="8.031" height="6.319" transform="translate(38.329 29.455)" fill="#6176eb"/>
            <path id="Path_193361" data-name="Path 193361" d="M259.072,81.6a23.18,23.18,0,1,0-46.36,0v6.275h8.031V81.6a15.149,15.149,0,1,1,30.3,0v6.275h8.031Z" transform="translate(-212.712 -58.422)" fill="#6f83ed"/>
          </g>
          <path id="Path_193362" data-name="Path 193362" d="M239.954,104.808a5.488,5.488,0,1,0-8.471,4.6l-2.506,12.079h10.977l-2.505-12.079A5.483,5.483,0,0,0,239.954,104.808Z" transform="translate(-202.708 -53.459)" fill="#2f3bac"/>
        </g>
      </g>
      <g id="Group_136512" data-name="Group 136512" transform="translate(0 92.156)">
        <g id="Group_136415" data-name="Group 136415" transform="translate(4.902 4.902)">
          <rect id="Rectangle_42207" data-name="Rectangle 42207" width="131.411" height="49.644" transform="translate(256.012)" fill="#283090"/>
          <path id="Path_193363" data-name="Path 193363" d="M429.612,194.876H307.327V244.52H429.612Z" transform="translate(-26.514 -109.97)" fill="#283090"/>
          <rect id="Rectangle_42208" data-name="Rectangle 42208" width="110.066" height="64.245" rx="0.456" transform="translate(17.867 8.664)" fill="#283090"/>
          <path id="Path_193364" data-name="Path 193364" d="M170.184,211.582H56.9v38.085H170.184Z" transform="translate(-56.902 -107.942)" fill="#283090"/>
        </g>
        <g id="Group_136511" data-name="Group 136511">
          <g id="Group_136435" data-name="Group 136435" transform="translate(256.012)">
            <rect id="Rectangle_42209" data-name="Rectangle 42209" width="131.411" height="49.644" fill="#6f83ed"/>
            <g id="Group_136434" data-name="Group 136434" transform="translate(11.657 7.118)">
              <g id="Group_136416" data-name="Group 136416" transform="translate(0)">
                <rect id="Rectangle_42210" data-name="Rectangle 42210" width="4.244" height="2.92" fill="#fff"/>
              </g>
              <g id="Group_136417" data-name="Group 136417" transform="translate(7.575)">
                <rect id="Rectangle_42211" data-name="Rectangle 42211" width="33.965" height="2.92" fill="#fff"/>
              </g>
              <g id="Group_136418" data-name="Group 136418" transform="translate(0 6.51)">
                <rect id="Rectangle_42212" data-name="Rectangle 42212" width="4.244" height="2.92" fill="#fff"/>
              </g>
              <g id="Group_136419" data-name="Group 136419" transform="translate(7.575 6.51)">
                <rect id="Rectangle_42213" data-name="Rectangle 42213" width="33.965" height="2.92" fill="#fff"/>
              </g>
              <g id="Group_136420" data-name="Group 136420" transform="translate(7.575 13.019)">
                <rect id="Rectangle_42214" data-name="Rectangle 42214" width="45.403" height="2.92" fill="#fff"/>
              </g>
              <g id="Group_136421" data-name="Group 136421" transform="translate(63.076 0.182)">
                <rect id="Rectangle_42215" data-name="Rectangle 42215" width="45.021" height="5.111" fill="#fff"/>
              </g>
              <g id="Group_136422" data-name="Group 136422" transform="translate(63.076 8.943)">
                <rect id="Rectangle_42216" data-name="Rectangle 42216" width="45.021" height="5.11" fill="#fff"/>
              </g>
              <g id="Group_136423" data-name="Group 136423" transform="translate(0 22.319)">
                <path id="Path_193365" data-name="Path 193365" d="M298.809,144.826a3.787,3.787,0,1,1-3.788-3.788A3.787,3.787,0,0,1,298.809,144.826Z" transform="translate(-291.234 -141.038)" fill="#72c0ce"/>
              </g>
              <g id="Group_136424" data-name="Group 136424" transform="translate(12.411 22.319)">
                <path id="Path_193366" data-name="Path 193366" d="M309.877,144.826a3.787,3.787,0,1,1-3.788-3.788A3.787,3.787,0,0,1,309.877,144.826Z" transform="translate(-302.302 -141.038)" fill="#72c0ce"/>
              </g>
              <g id="Group_136425" data-name="Group 136425" transform="translate(24.822 22.319)">
                <circle id="Ellipse_5026" data-name="Ellipse 5026" cx="3.787" cy="3.787" r="3.787" fill="#72c0ce"/>
              </g>
              <g id="Group_136426" data-name="Group 136426" transform="translate(0 33.57)">
                <rect id="Rectangle_42217" data-name="Rectangle 42217" width="7.574" height="2.92" fill="#fff"/>
              </g>
              <g id="Group_136427" data-name="Group 136427" transform="translate(12.411 33.57)">
                <rect id="Rectangle_42218" data-name="Rectangle 42218" width="7.574" height="2.92" fill="#fff"/>
              </g>
              <g id="Group_136428" data-name="Group 136428" transform="translate(24.822 33.57)">
                <rect id="Rectangle_42219" data-name="Rectangle 42219" width="7.574" height="2.92" fill="#fff"/>
              </g>
              <g id="Group_136429" data-name="Group 136429" transform="translate(37.233 33.57)">
                <rect id="Rectangle_42220" data-name="Rectangle 42220" width="7.574" height="2.92" fill="#fff"/>
              </g>
              <g id="Group_136430" data-name="Group 136430" transform="translate(49.645 33.57)">
                <rect id="Rectangle_42221" data-name="Rectangle 42221" width="7.574" height="2.92" fill="#fff"/>
              </g>
              <g id="Group_136431" data-name="Group 136431" transform="translate(80.111 22.206)">
                <rect id="Rectangle_42222" data-name="Rectangle 42222" width="18.13" height="2.92" fill="#fff"/>
              </g>
              <g id="Group_136432" data-name="Group 136432" transform="translate(80.111 27.803)">
                <rect id="Rectangle_42223" data-name="Rectangle 42223" width="18.13" height="2.92" fill="#fff"/>
              </g>
              <g id="Group_136433" data-name="Group 136433" transform="translate(80.111 33.4)">
                <rect id="Rectangle_42224" data-name="Rectangle 42224" width="18.13" height="2.92" fill="#fff"/>
              </g>
            </g>
          </g>
          <g id="Group_136472" data-name="Group 136472" transform="translate(280.813 84.907)">
            <path id="Path_193367" data-name="Path 193367" d="M425.241,240.149H302.955V190.5H425.241Z" transform="translate(-302.955 -190.505)" fill="#6f83ed"/>
            <g id="Group_136471" data-name="Group 136471" transform="translate(8.53 7.119)">
              <g id="Group_136442" data-name="Group 136442" transform="translate(0 3.008)">
                <g id="Group_136440" data-name="Group 136440">
                  <g id="Group_136437" data-name="Group 136437" transform="translate(14.696 14.697)">
                    <g id="Group_136436" data-name="Group 136436">
                      <path id="Path_193368" data-name="Path 193368" d="M338.364,227.338h-14.7v-.73h13.966V212.641h.73Z" transform="translate(-323.668 -212.641)" fill="#fff"/>
                    </g>
                  </g>
                  <g id="Group_136439" data-name="Group 136439">
                    <g id="Group_136438" data-name="Group 136438">
                      <path id="Path_193369" data-name="Path 193369" d="M311.292,214.232h-.73v-14.7h14.7v.73H311.292Z" transform="translate(-310.562 -199.535)" fill="#fff"/>
                    </g>
                  </g>
                </g>
                <g id="Group_136441" data-name="Group 136441" transform="translate(6.935 6.936)">
                  <rect id="Rectangle_42225" data-name="Rectangle 42225" width="15.522" height="15.522" fill="#fff"/>
                </g>
              </g>
              <g id="Group_136443" data-name="Group 136443" transform="translate(39.351 1.673)">
                <rect id="Rectangle_42226" data-name="Rectangle 42226" width="17.752" height="2.92" fill="#fff"/>
              </g>
              <g id="Group_136444" data-name="Group 136444" transform="translate(39.351 7.27)">
                <rect id="Rectangle_42227" data-name="Rectangle 42227" width="37.341" height="2.92" fill="#fff"/>
              </g>
              <g id="Group_136445" data-name="Group 136445" transform="translate(39.351 12.867)">
                <rect id="Rectangle_42228" data-name="Rectangle 42228" width="37.341" height="2.92" fill="#fff"/>
              </g>
              <g id="Group_136446" data-name="Group 136446" transform="translate(39.351 18.465)">
                <rect id="Rectangle_42229" data-name="Rectangle 42229" width="27.851" height="2.92" fill="#fff"/>
              </g>
              <g id="Group_136453" data-name="Group 136453" transform="translate(39.351 26.008)">
                <g id="Group_136447" data-name="Group 136447">
                  <rect id="Rectangle_42230" data-name="Rectangle 42230" width="4.368" height="2.19" fill="#fff"/>
                </g>
                <g id="Group_136448" data-name="Group 136448" transform="translate(7.666)">
                  <rect id="Rectangle_42231" data-name="Rectangle 42231" width="16.9" height="2.19" fill="#fff"/>
                </g>
                <g id="Group_136449" data-name="Group 136449" transform="translate(28.351)">
                  <rect id="Rectangle_42232" data-name="Rectangle 42232" width="14.345" height="2.19" fill="#fff"/>
                </g>
                <g id="Group_136450" data-name="Group 136450" transform="translate(0 5.171)">
                  <rect id="Rectangle_42233" data-name="Rectangle 42233" width="4.368" height="2.19" fill="#fff"/>
                </g>
                <g id="Group_136451" data-name="Group 136451" transform="translate(7.666 5.171)">
                  <rect id="Rectangle_42234" data-name="Rectangle 42234" width="16.9" height="2.19" fill="#fff"/>
                </g>
                <g id="Group_136452" data-name="Group 136452" transform="translate(28.351 5.171)">
                  <rect id="Rectangle_42235" data-name="Rectangle 42235" width="8.991" height="2.19" fill="#fff"/>
                </g>
              </g>
              <g id="Group_136454" data-name="Group 136454" transform="translate(87.522)">
                <rect id="Rectangle_42236" data-name="Rectangle 42236" width="0.73" height="35.408" fill="#fff"/>
              </g>
              <g id="Group_136455" data-name="Group 136455" transform="translate(91.841 2.258)">
                <rect id="Rectangle_42237" data-name="Rectangle 42237" width="2.312" height="1.46" fill="#fff"/>
              </g>
              <g id="Group_136456" data-name="Group 136456" transform="translate(96.952 2.258)">
                <rect id="Rectangle_42238" data-name="Rectangle 42238" width="8.275" height="1.46" fill="#fff"/>
              </g>
              <g id="Group_136457" data-name="Group 136457" transform="translate(91.841 5.528)">
                <rect id="Rectangle_42239" data-name="Rectangle 42239" width="2.312" height="1.46" fill="#fff"/>
              </g>
              <g id="Group_136458" data-name="Group 136458" transform="translate(96.952 5.528)">
                <rect id="Rectangle_42240" data-name="Rectangle 42240" width="8.275" height="1.46" fill="#fff"/>
              </g>
              <g id="Group_136459" data-name="Group 136459" transform="translate(91.841 8.799)">
                <rect id="Rectangle_42241" data-name="Rectangle 42241" width="2.312" height="1.46" fill="#fff"/>
              </g>
              <g id="Group_136460" data-name="Group 136460" transform="translate(96.952 8.799)">
                <rect id="Rectangle_42242" data-name="Rectangle 42242" width="8.275" height="1.46" fill="#fff"/>
              </g>
              <g id="Group_136461" data-name="Group 136461" transform="translate(91.841 15.339)">
                <rect id="Rectangle_42243" data-name="Rectangle 42243" width="2.312" height="1.46" fill="#fff"/>
              </g>
              <g id="Group_136462" data-name="Group 136462" transform="translate(96.952 15.339)">
                <rect id="Rectangle_42244" data-name="Rectangle 42244" width="8.275" height="1.46" fill="#fff"/>
              </g>
              <g id="Group_136463" data-name="Group 136463" transform="translate(91.841 18.609)">
                <rect id="Rectangle_42245" data-name="Rectangle 42245" width="2.312" height="1.46" fill="#fff"/>
              </g>
              <g id="Group_136464" data-name="Group 136464" transform="translate(96.952 18.609)">
                <rect id="Rectangle_42246" data-name="Rectangle 42246" width="8.275" height="1.46" fill="#fff"/>
              </g>
              <g id="Group_136465" data-name="Group 136465" transform="translate(91.841 21.878)">
                <rect id="Rectangle_42247" data-name="Rectangle 42247" width="2.312" height="1.46" fill="#fff"/>
              </g>
              <g id="Group_136466" data-name="Group 136466" transform="translate(96.952 21.878)">
                <rect id="Rectangle_42248" data-name="Rectangle 42248" width="8.275" height="1.46" fill="#fff"/>
              </g>
              <g id="Group_136467" data-name="Group 136467" transform="translate(91.841 28.419)">
                <rect id="Rectangle_42249" data-name="Rectangle 42249" width="2.312" height="1.46" fill="#fff"/>
              </g>
              <g id="Group_136468" data-name="Group 136468" transform="translate(96.952 28.419)">
                <rect id="Rectangle_42250" data-name="Rectangle 42250" width="8.275" height="1.46" fill="#fff"/>
              </g>
              <g id="Group_136469" data-name="Group 136469" transform="translate(91.841 31.689)">
                <rect id="Rectangle_42251" data-name="Rectangle 42251" width="2.312" height="1.46" fill="#fff"/>
              </g>
              <g id="Group_136470" data-name="Group 136470" transform="translate(96.952 31.689)">
                <rect id="Rectangle_42252" data-name="Rectangle 42252" width="8.275" height="1.46" fill="#fff"/>
              </g>
            </g>
          </g>
          <g id="Group_136494" data-name="Group 136494" transform="translate(17.867 8.664)">
            <rect id="Rectangle_42253" data-name="Rectangle 42253" width="110.066" height="64.245" rx="0.456" transform="translate(110.066 64.245) rotate(180)" fill="#6f83ed"/>
            <g id="Group_136493" data-name="Group 136493" transform="translate(11.396 10.318)">
              <g id="Group_136481" data-name="Group 136481">
                <g id="Group_136475" data-name="Group 136475" transform="translate(4.746 4.264)">
                  <g id="Group_136473" data-name="Group 136473" transform="translate(3.712)">
                    <path id="Path_193370" data-name="Path 193370" d="M101.378,143.12a7.6,7.6,0,1,1-7.6-7.6A7.6,7.6,0,0,1,101.378,143.12Z" transform="translate(-86.17 -135.516)" fill="#fff"/>
                  </g>
                  <g id="Group_136474" data-name="Group 136474" transform="translate(0 17.517)">
                    <path id="Rectangle_42254" data-name="Rectangle 42254" d="M10.091,0H12.54A10.091,10.091,0,0,1,22.632,10.091v7.248a0,0,0,0,1,0,0H0a0,0,0,0,1,0,0V10.091A10.091,10.091,0,0,1,10.091,0Z" fill="#fff"/>
                  </g>
                </g>
                <g id="Group_136476" data-name="Group 136476">
                  <path id="Path_193371" data-name="Path 193371" d="M79.357,147.41h-.73v-15.7H93.35v.73H79.357Z" transform="translate(-78.627 -131.714)" fill="#fff"/>
                </g>
                <g id="Group_136477" data-name="Group 136477" transform="translate(17.097 28.351)">
                  <path id="Path_193372" data-name="Path 193372" d="M108.6,172.693H93.874v-.73h13.993V157h.73Z" transform="translate(-93.874 -156.997)" fill="#fff"/>
                </g>
                <g id="Group_136478" data-name="Group 136478" transform="translate(0.365 43.317)">
                  <rect id="Rectangle_42255" data-name="Rectangle 42255" width="10.405" height="0.73" fill="#fff"/>
                </g>
                <g id="Group_136479" data-name="Group 136479" transform="translate(20.991)">
                  <path id="Path_193373" data-name="Path 193373" d="M108.176,135.977h-.73v-3.533h-10.1v-.73h10.829Z" transform="translate(-97.346 -131.714)" fill="#fff"/>
                </g>
                <g id="Group_136480" data-name="Group 136480" transform="translate(31.09 9.369)">
                  <rect id="Rectangle_42256" data-name="Rectangle 42256" width="0.73" height="4.259" fill="#fff"/>
                </g>
              </g>
              <g id="Group_136482" data-name="Group 136482" transform="translate(39.485 0.365)">
                <rect id="Rectangle_42257" data-name="Rectangle 42257" width="24.398" height="2.92" fill="#fff"/>
              </g>
              <g id="Group_136483" data-name="Group 136483" transform="translate(39.485 7.422)">
                <rect id="Rectangle_42258" data-name="Rectangle 42258" width="47.789" height="2.92" fill="#fff"/>
              </g>
              <g id="Group_136484" data-name="Group 136484" transform="translate(39.485 13.263)">
                <rect id="Rectangle_42259" data-name="Rectangle 42259" width="35.286" height="2.92" fill="#fff"/>
              </g>
              <g id="Group_136485" data-name="Group 136485" transform="translate(39.485 22.023)">
                <rect id="Rectangle_42260" data-name="Rectangle 42260" width="3.285" height="2.92" fill="#72c0ce"/>
              </g>
              <g id="Group_136486" data-name="Group 136486" transform="translate(46.36 22.023)">
                <rect id="Rectangle_42261" data-name="Rectangle 42261" width="16" height="2.92" fill="#fff"/>
              </g>
              <g id="Group_136487" data-name="Group 136487" transform="translate(39.485 27.986)">
                <rect id="Rectangle_42262" data-name="Rectangle 42262" width="3.285" height="2.92" fill="#72c0ce"/>
              </g>
              <g id="Group_136488" data-name="Group 136488" transform="translate(46.36 27.986)">
                <rect id="Rectangle_42263" data-name="Rectangle 42263" width="22.693" height="2.92" fill="#fff"/>
              </g>
              <g id="Group_136489" data-name="Group 136489" transform="translate(39.485 33.947)">
                <rect id="Rectangle_42264" data-name="Rectangle 42264" width="3.285" height="2.92" fill="#72c0ce"/>
              </g>
              <g id="Group_136490" data-name="Group 136490" transform="translate(46.36 33.947)">
                <rect id="Rectangle_42265" data-name="Rectangle 42265" width="34.739" height="2.92" fill="#fff"/>
              </g>
              <g id="Group_136491" data-name="Group 136491" transform="translate(39.485 39.91)">
                <rect id="Rectangle_42266" data-name="Rectangle 42266" width="3.285" height="2.92" fill="#72c0ce"/>
              </g>
              <g id="Group_136492" data-name="Group 136492" transform="translate(46.36 39.91)">
                <rect id="Rectangle_42267" data-name="Rectangle 42267" width="27.744" height="2.92" fill="#fff"/>
              </g>
            </g>
          </g>
          <g id="Group_136510" data-name="Group 136510" transform="translate(0 103.64)">
            <path id="Path_193374" data-name="Path 193374" d="M52.531,245.3H165.812V207.211H52.531Z" transform="translate(-52.531 -207.211)" fill="#6f83ed"/>
            <g id="Group_136509" data-name="Group 136509" transform="translate(8.822 5.595)">
              <g id="Group_136495" data-name="Group 136495" transform="translate(0 2.038)">
                <rect id="Rectangle_42268" data-name="Rectangle 42268" width="13.871" height="13.871" fill="#fff"/>
              </g>
              <g id="Group_136496" data-name="Group 136496" transform="translate(27.499 0.7)">
                <rect id="Rectangle_42269" data-name="Rectangle 42269" width="5.962" height="2.92" fill="#fff"/>
              </g>
              <g id="Group_136497" data-name="Group 136497" transform="translate(38.45 0.7)">
                <rect id="Rectangle_42270" data-name="Rectangle 42270" width="16.791" height="2.92" fill="#fff"/>
              </g>
              <g id="Group_136498" data-name="Group 136498" transform="translate(84.779 0.7)">
                <rect id="Rectangle_42271" data-name="Rectangle 42271" width="10.86" height="2.92" fill="#72c0ce"/>
              </g>
              <g id="Group_136499" data-name="Group 136499" transform="translate(84.779 6.297)">
                <rect id="Rectangle_42272" data-name="Rectangle 42272" width="10.86" height="2.92" fill="#72c0ce"/>
              </g>
              <g id="Group_136500" data-name="Group 136500" transform="translate(84.779 11.894)">
                <rect id="Rectangle_42273" data-name="Rectangle 42273" width="10.86" height="2.92" fill="#72c0ce"/>
              </g>
              <g id="Group_136501" data-name="Group 136501" transform="translate(84.779 17.492)">
                <rect id="Rectangle_42274" data-name="Rectangle 42274" width="10.86" height="2.92" fill="#72c0ce"/>
              </g>
              <g id="Group_136502" data-name="Group 136502" transform="translate(84.779 23.088)">
                <rect id="Rectangle_42275" data-name="Rectangle 42275" width="10.86" height="2.92" fill="#72c0ce"/>
              </g>
              <g id="Group_136503" data-name="Group 136503" transform="translate(27.499 6.297)">
                <rect id="Rectangle_42276" data-name="Rectangle 42276" width="37.867" height="2.92" fill="#fff"/>
              </g>
              <g id="Group_136504" data-name="Group 136504" transform="translate(27.499 12.016)">
                <rect id="Rectangle_42277" data-name="Rectangle 42277" width="29.75" height="2.92" fill="#fff"/>
              </g>
              <g id="Group_136505" data-name="Group 136505" transform="translate(27.499 17.735)">
                <rect id="Rectangle_42278" data-name="Rectangle 42278" width="40.762" height="2.92" fill="#fff"/>
              </g>
              <g id="Group_136506" data-name="Group 136506" transform="translate(27.499 23.453)">
                <rect id="Rectangle_42279" data-name="Rectangle 42279" width="44.899" height="2.92" fill="#fff"/>
              </g>
              <g id="Group_136507" data-name="Group 136507" transform="translate(21.658)">
                <rect id="Rectangle_42280" data-name="Rectangle 42280" width="0.73" height="27.074" fill="#fff"/>
              </g>
              <g id="Group_136508" data-name="Group 136508" transform="translate(78.544)">
                <rect id="Rectangle_42281" data-name="Rectangle 42281" width="0.73" height="27.074" fill="#fff"/>
              </g>
            </g>
          </g>
        </g>
      </g>
    </g>
  </g>
</svg>
