<svg xmlns="http://www.w3.org/2000/svg" width="899" height="479" viewBox="0 0 899 479">
  <g id="Grupo_139911" data-name="Grupo 139911" transform="translate(-351 -3021)">
    <path id="Trazado_197317" data-name="Trazado 197317" d="M0,66,230,0" transform="translate(558 3145)" fill="none" stroke="#707070" stroke-width="2"/>
    <path id="Trazado_197318" data-name="Trazado 197318" d="M0,216V0" transform="translate(558 3253)" fill="none" stroke="#707070" stroke-width="2"/>
    <path id="Trazado_197319" data-name="Trazado 197319" d="M0,216V0" transform="translate(1039 3253)" fill="none" stroke="#707070" stroke-width="2"/>
    <path id="Trazado_197320" data-name="Trazado 197320" d="M180,67,0,0" transform="translate(1008 3345)" fill="none" stroke="#707070" stroke-width="2"/>
    <path id="Trazado_197321" data-name="Trazado 197321" d="M180,67,0,0" transform="translate(525 3345)" fill="none" stroke="#707070" stroke-width="2"/>
    <path id="Trazado_197322" data-name="Trazado 197322" d="M0,54,109,0" transform="translate(930 3358)" fill="none" stroke="#707070" stroke-width="2"/>
    <path id="Trazado_197323" data-name="Trazado 197323" d="M0,54,109,0" transform="translate(447 3358)" fill="none" stroke="#707070" stroke-width="2"/>
    <path id="Trazado_197324" data-name="Trazado 197324" d="M0,0H360" transform="translate(610 3335)" fill="none" stroke="#707070" stroke-width="2"/>
    <path id="Trazado_197325" data-name="Trazado 197325" d="M255,66,0,0" transform="translate(787 3145)" fill="none" stroke="#707070" stroke-width="2"/>
    <path id="Trazado_193557" data-name="Trazado 193557" d="M73.026.053,58.694,6.064.169,30.612,73.026,60.819l71.967-30.207Z" transform="translate(966.919 3208.564)" fill="#fff" stroke="#707070" stroke-width="1.5"/>
    <path id="Trazado_193558" data-name="Trazado 193558" d="M73.026.053,58.694,6.064.169,30.612,73.026,60.819l71.967-30.207Z" transform="translate(484.919 3208.564)" fill="#fff" stroke="#707070" stroke-width="1.5"/>
    <path id="Trazado_193559" data-name="Trazado 193559" d="M73.026.053,58.694,6.064.169,30.612,73.026,60.819l71.967-30.207Z" transform="translate(727.419 3303.947)" fill="#fff" stroke="#707070" stroke-width="1.5"/>
    <path id="Trazado_197326" data-name="Trazado 197326" d="M0,0V92" transform="translate(787.5 3052.5)" fill="none" stroke="#707070" stroke-width="2"/>
    <path id="Trazado_197327" data-name="Trazado 197327" d="M78,0,0,47" transform="translate(854 3106)" fill="none" stroke="#707070" stroke-width="2"/>
    <path id="Trazado_197328" data-name="Trazado 197328" d="M0,0,75,31" transform="translate(622 3114)" fill="none" stroke="#707070" stroke-width="2"/>
    <path id="Trazado_197329" data-name="Trazado 197329" d="M62,0c34.242,0,62,13.879,62,31S96.242,62,62,62,0,48.121,0,31,27.758,0,62,0Z" transform="translate(834 3401)" fill="#feca2e"/>
    <path id="Trazado_197330" data-name="Trazado 197330" d="M62.5,0C97.018,0,125,13.879,125,31S97.018,62,62.5,62,0,48.121,0,31,27.982,0,62.5,0Z" transform="translate(351 3401)" fill="#feca2e"/>
    <path id="Trazado_197331" data-name="Trazado 197331" d="M56.5,0C87.7,0,113,9.178,113,20.5S87.7,41,56.5,41,0,31.822,0,20.5,25.3,0,56.5,0Z" transform="translate(548 3084)" fill="#feca2e"/>
    <path id="Trazado_197332" data-name="Trazado 197332" d="M62,0c34.242,0,62,13.879,62,31S96.242,62,62,62,0,48.121,0,31,27.758,0,62,0Z" transform="translate(977 3438)" fill="#feca2e"/>
    <path id="Trazado_197333" data-name="Trazado 197333" d="M62,0c34.242,0,62,13.879,62,31S96.242,62,62,62,0,48.121,0,31,27.758,0,62,0Z" transform="translate(496 3438)" fill="#feca2e"/>
    <path id="Trazado_197334" data-name="Trazado 197334" d="M62.5,0C97.018,0,125,13.879,125,31S97.018,62,62.5,62,0,48.121,0,31,27.982,0,62.5,0Z" transform="translate(1125 3401)" fill="#feca2e"/>
    <path id="Trazado_197335" data-name="Trazado 197335" d="M62,0c34.242,0,62,13.879,62,31S96.242,62,62,62,0,48.121,0,31,27.758,0,62,0Z" transform="translate(648 3401)" fill="#feca2e"/>
    <path id="Trazado_197336" data-name="Trazado 197336" d="M57,0c31.48,0,57,9.178,57,20.5S88.48,41,57,41,0,31.822,0,20.5,25.52,0,57,0Z" transform="translate(730 3021)" fill="#feca2e"/>
    <path id="Trazado_197337" data-name="Trazado 197337" d="M57,0c31.48,0,57,8.954,57,20S88.48,40,57,40,0,31.046,0,20,25.52,0,57,0Z" transform="translate(903 3077)" fill="#feca2e"/>
    <path id="Trazado_197338" data-name="Trazado 197338" d="M0,0H205V46H0Z" transform="translate(684 3121)" fill="#4dd0e1"/>
    <path id="Trazado_197339" data-name="Trazado 197339" d="M0,0H167V45H0Z" transform="translate(473 3313)" fill="#4dd0e1"/>
    <path id="Trazado_197340" data-name="Trazado 197340" d="M0,0H167V45H0Z" transform="translate(958 3313)" fill="#4dd0e1"/>
    <path id="Trazado_197341" data-name="Trazado 197341" d="M-86.855-4.731V0h-1.594V-12.086h4.458a4.478,4.478,0,0,1,3.109,1.013,3.433,3.433,0,0,1,1.125,2.681,3.388,3.388,0,0,1-1.1,2.71,4.678,4.678,0,0,1-3.15.95Zm0-1.3h2.864a2.863,2.863,0,0,0,1.959-.6,2.2,2.2,0,0,0,.681-1.742,2.277,2.277,0,0,0-.681-1.73,2.682,2.682,0,0,0-1.868-.674h-2.955ZM-73.624-7.6a4.6,4.6,0,0,0-.755-.058,2.024,2.024,0,0,0-2.05,1.287V0h-1.536V-8.981h1.494l.025,1.038a2.391,2.391,0,0,1,2.142-1.2,1.569,1.569,0,0,1,.681.116Zm.838,3.03a5.3,5.3,0,0,1,.519-2.374,3.87,3.87,0,0,1,1.444-1.627,3.932,3.932,0,0,1,2.113-.573,3.788,3.788,0,0,1,2.968,1.27A4.886,4.886,0,0,1-64.609-4.5v.108a5.351,5.351,0,0,1-.5,2.353A3.813,3.813,0,0,1-66.547-.415a3.977,3.977,0,0,1-2.146.581A3.778,3.778,0,0,1-71.652-1.1a4.861,4.861,0,0,1-1.133-3.362Zm1.544.183a3.842,3.842,0,0,0,.693,2.4,2.218,2.218,0,0,0,1.855.9A2.2,2.2,0,0,0-66.834-2a4.2,4.2,0,0,0,.689-2.569,3.836,3.836,0,0,0-.7-2.395,2.23,2.23,0,0,0-1.864-.917,2.205,2.205,0,0,0-1.834.9A4.17,4.17,0,0,0-71.241-4.391Zm8.193-.174a5.279,5.279,0,0,1,.971-3.341A3.106,3.106,0,0,1-59.5-9.147a3.09,3.09,0,0,1,2.565,1.162l.075-1h1.4V-.216A3.654,3.654,0,0,1-56.5,2.532a3.814,3.814,0,0,1-2.777,1,4.619,4.619,0,0,1-1.9-.415,3.272,3.272,0,0,1-1.419-1.137l.8-.921a3,3,0,0,0,2.416,1.22,2.353,2.353,0,0,0,1.747-.631,2.411,2.411,0,0,0,.627-1.776V-.9A3.156,3.156,0,0,1-59.521.166,3.068,3.068,0,0,1-62.073-1.1,5.55,5.55,0,0,1-63.049-4.565Zm1.544.174A4.027,4.027,0,0,0-60.882-2a2.023,2.023,0,0,0,1.743.867,2.249,2.249,0,0,0,2.133-1.32v-4.1a2.276,2.276,0,0,0-2.117-1.287,2.041,2.041,0,0,0-1.751.872A4.386,4.386,0,0,0-61.5-4.391ZM-48.8-7.6a4.6,4.6,0,0,0-.755-.058,2.024,2.024,0,0,0-2.05,1.287V0h-1.536V-8.981h1.494l.025,1.038a2.391,2.391,0,0,1,2.142-1.2,1.569,1.569,0,0,1,.681.116ZM-42.18,0A3.226,3.226,0,0,1-42.4-.946,3.426,3.426,0,0,1-44.953.166a3.17,3.17,0,0,1-2.179-.751,2.43,2.43,0,0,1-.851-1.905,2.539,2.539,0,0,1,1.067-2.179,5.029,5.029,0,0,1,3-.776h1.494v-.706A1.725,1.725,0,0,0-42.9-7.433a1.935,1.935,0,0,0-1.419-.477A2.239,2.239,0,0,0-45.7-7.5a1.223,1.223,0,0,0-.556,1H-47.8a2.119,2.119,0,0,1,.477-1.3,3.258,3.258,0,0,1,1.295-.992,4.356,4.356,0,0,1,1.8-.365,3.551,3.551,0,0,1,2.432.776,2.8,2.8,0,0,1,.913,2.137V-2.1A5.054,5.054,0,0,0-40.57-.133V0Zm-2.548-1.17a2.7,2.7,0,0,0,1.37-.374,2.259,2.259,0,0,0,.938-.971V-4.358h-1.2q-2.822,0-2.822,1.652a1.4,1.4,0,0,0,.481,1.129A1.85,1.85,0,0,0-44.729-1.17Zm7.695-7.811.042,1a3.317,3.317,0,0,1,2.665-1.162A2.568,2.568,0,0,1-31.763-7.7,3.4,3.4,0,0,1-30.6-8.749a3.445,3.445,0,0,1,1.7-.4q2.955,0,3,3.129V0H-27.43V-5.927a2.062,2.062,0,0,0-.44-1.44,1.937,1.937,0,0,0-1.478-.477,2.036,2.036,0,0,0-1.419.51,2.071,2.071,0,0,0-.656,1.374V0h-1.544V-5.885a1.713,1.713,0,0,0-1.917-1.959,2.055,2.055,0,0,0-2.067,1.287V0h-1.536V-8.981Zm19,8.981a3.226,3.226,0,0,1-.216-.946A3.426,3.426,0,0,1-20.806.166a3.17,3.17,0,0,1-2.179-.751,2.43,2.43,0,0,1-.851-1.905,2.539,2.539,0,0,1,1.067-2.179,5.029,5.029,0,0,1,3-.776h1.494v-.706a1.725,1.725,0,0,0-.481-1.282,1.935,1.935,0,0,0-1.419-.477,2.239,2.239,0,0,0-1.378.415,1.223,1.223,0,0,0-.556,1h-1.544a2.119,2.119,0,0,1,.477-1.3,3.258,3.258,0,0,1,1.295-.992,4.356,4.356,0,0,1,1.8-.365,3.551,3.551,0,0,1,2.432.776,2.8,2.8,0,0,1,.913,2.137V-2.1a5.054,5.054,0,0,0,.315,1.967V0Zm-2.548-1.17a2.7,2.7,0,0,0,1.37-.374,2.259,2.259,0,0,0,.938-.971V-4.358h-1.2q-2.822,0-2.822,1.652a1.4,1.4,0,0,0,.481,1.129A1.85,1.85,0,0,0-20.582-1.17ZM-9.1-2.382a1.131,1.131,0,0,0-.469-.967,4.514,4.514,0,0,0-1.635-.594,7.731,7.731,0,0,1-1.851-.6,2.633,2.633,0,0,1-1.013-.83A1.986,1.986,0,0,1-14.4-6.516a2.33,2.33,0,0,1,.934-1.868,3.647,3.647,0,0,1,2.386-.764A3.753,3.753,0,0,1-8.6-8.359a2.5,2.5,0,0,1,.95,2.017H-9.193a1.386,1.386,0,0,0-.535-1.087,2.006,2.006,0,0,0-1.349-.457,2.1,2.1,0,0,0-1.312.365,1.15,1.15,0,0,0-.473.955.932.932,0,0,0,.44.838,5.413,5.413,0,0,0,1.59.54,8.283,8.283,0,0,1,1.864.614,2.718,2.718,0,0,1,1.058.859A2.112,2.112,0,0,1-7.566-2.49,2.3,2.3,0,0,1-8.529-.56a4.039,4.039,0,0,1-2.5.726,4.523,4.523,0,0,1-1.909-.382,3.105,3.105,0,0,1-1.3-1.067A2.571,2.571,0,0,1-14.7-2.764h1.536a1.59,1.59,0,0,0,.618,1.224,2.4,2.4,0,0,0,1.523.452,2.476,2.476,0,0,0,1.4-.353A1.084,1.084,0,0,0-9.1-2.382ZM4.188,0a3.226,3.226,0,0,1-.216-.946A3.426,3.426,0,0,1,1.415.166,3.17,3.17,0,0,1-.764-.585,2.43,2.43,0,0,1-1.615-2.49,2.539,2.539,0,0,1-.548-4.669a5.029,5.029,0,0,1,3-.776H3.947v-.706a1.725,1.725,0,0,0-.481-1.282,1.935,1.935,0,0,0-1.419-.477A2.239,2.239,0,0,0,.668-7.5a1.223,1.223,0,0,0-.556,1H-1.432a2.119,2.119,0,0,1,.477-1.3A3.258,3.258,0,0,1,.34-8.782a4.356,4.356,0,0,1,1.8-.365,3.551,3.551,0,0,1,2.432.776,2.8,2.8,0,0,1,.913,2.137V-2.1A5.054,5.054,0,0,0,5.8-.133V0ZM1.639-1.17a2.7,2.7,0,0,0,1.37-.374,2.259,2.259,0,0,0,.938-.971V-4.358h-1.2q-2.822,0-2.822,1.652A1.4,1.4,0,0,0,.4-1.577,1.85,1.85,0,0,0,1.639-1.17Zm9.853.083a2.212,2.212,0,0,0,1.436-.5,1.752,1.752,0,0,0,.681-1.245h1.453a2.785,2.785,0,0,1-.531,1.469A3.5,3.5,0,0,1,13.223-.249a3.772,3.772,0,0,1-1.731.415A3.7,3.7,0,0,1,8.575-1.058,4.877,4.877,0,0,1,7.491-4.408v-.257A5.407,5.407,0,0,1,7.973-7,3.667,3.667,0,0,1,9.355-8.583a3.926,3.926,0,0,1,2.129-.564,3.6,3.6,0,0,1,2.511.9,3.234,3.234,0,0,1,1.067,2.349H13.609a2.116,2.116,0,0,0-.66-1.432,2.053,2.053,0,0,0-1.465-.56,2.149,2.149,0,0,0-1.814.843,3.957,3.957,0,0,0-.643,2.436v.291a3.878,3.878,0,0,0,.639,2.391A2.16,2.16,0,0,0,11.492-1.087ZM22.333,0a3.226,3.226,0,0,1-.216-.946A3.426,3.426,0,0,1,19.561.166a3.17,3.17,0,0,1-2.179-.751,2.43,2.43,0,0,1-.851-1.905A2.539,2.539,0,0,1,17.6-4.669a5.029,5.029,0,0,1,3-.776h1.494v-.706a1.725,1.725,0,0,0-.481-1.282,1.935,1.935,0,0,0-1.419-.477,2.239,2.239,0,0,0-1.378.415,1.223,1.223,0,0,0-.556,1H16.714a2.119,2.119,0,0,1,.477-1.3,3.258,3.258,0,0,1,1.295-.992,4.356,4.356,0,0,1,1.8-.365,3.551,3.551,0,0,1,2.432.776,2.8,2.8,0,0,1,.913,2.137V-2.1a5.054,5.054,0,0,0,.315,1.967V0ZM19.785-1.17a2.7,2.7,0,0,0,1.37-.374,2.259,2.259,0,0,0,.938-.971V-4.358h-1.2q-2.822,0-2.822,1.652a1.4,1.4,0,0,0,.481,1.129A1.85,1.85,0,0,0,19.785-1.17Zm5.877-3.4a5.261,5.261,0,0,1,.979-3.324,3.1,3.1,0,0,1,2.565-1.258,3.115,3.115,0,0,1,2.5,1.079V-12.75H33.24V0H31.829l-.075-.963A3.127,3.127,0,0,1,29.19.166a3.068,3.068,0,0,1-2.544-1.278,5.321,5.321,0,0,1-.984-3.337Zm1.536.174A3.984,3.984,0,0,0,27.828-2a2.039,2.039,0,0,0,1.743.863A2.24,2.24,0,0,0,31.7-2.449V-6.574a2.257,2.257,0,0,0-2.117-1.27,2.049,2.049,0,0,0-1.76.872A4.386,4.386,0,0,0,27.2-4.391ZM39.35.166a3.924,3.924,0,0,1-2.972-1.2,4.452,4.452,0,0,1-1.146-3.208v-.282a5.39,5.39,0,0,1,.51-2.386,3.982,3.982,0,0,1,1.428-1.644,3.59,3.59,0,0,1,1.988-.594,3.364,3.364,0,0,1,2.723,1.154,5,5,0,0,1,.971,3.3v.639H36.768a3.193,3.193,0,0,0,.776,2.146,2.44,2.44,0,0,0,1.888.818,2.675,2.675,0,0,0,1.378-.332A3.462,3.462,0,0,0,41.8-2.3l.938.73A3.772,3.772,0,0,1,39.35.166Zm-.191-8.052a2.048,2.048,0,0,0-1.561.677,3.288,3.288,0,0,0-.78,1.9h4.5v-.116a2.925,2.925,0,0,0-.631-1.814A1.928,1.928,0,0,0,39.159-7.886Zm.747-4.864h1.859l-2.225,2.44-1.237,0Zm6.167,3.769.042,1A3.317,3.317,0,0,1,48.78-9.147,2.568,2.568,0,0,1,51.344-7.7a3.4,3.4,0,0,1,1.166-1.046,3.445,3.445,0,0,1,1.7-.4q2.955,0,3,3.129V0H55.677V-5.927a2.062,2.062,0,0,0-.44-1.44,1.937,1.937,0,0,0-1.478-.477,2.036,2.036,0,0,0-1.419.51,2.071,2.071,0,0,0-.656,1.374V0H50.141V-5.885a1.713,1.713,0,0,0-1.917-1.959,2.055,2.055,0,0,0-2.067,1.287V0H44.621V-8.981ZM61.2,0H59.662V-8.981H61.2Zm-1.66-11.364a.917.917,0,0,1,.228-.631.857.857,0,0,1,.677-.257.87.87,0,0,1,.681.257.907.907,0,0,1,.232.631.877.877,0,0,1-.232.623.886.886,0,0,1-.681.249.872.872,0,0,1-.677-.249A.886.886,0,0,1,59.537-11.364Zm7.72,10.276a2.212,2.212,0,0,0,1.436-.5,1.752,1.752,0,0,0,.681-1.245h1.453A2.785,2.785,0,0,1,70.3-1.361,3.5,3.5,0,0,1,68.988-.249a3.772,3.772,0,0,1-1.731.415,3.7,3.7,0,0,1-2.918-1.224,4.877,4.877,0,0,1-1.083-3.349v-.257A5.407,5.407,0,0,1,63.738-7,3.667,3.667,0,0,1,65.12-8.583a3.926,3.926,0,0,1,2.129-.564,3.6,3.6,0,0,1,2.511.9,3.234,3.234,0,0,1,1.067,2.349H69.374a2.116,2.116,0,0,0-.66-1.432,2.053,2.053,0,0,0-1.465-.56,2.149,2.149,0,0,0-1.814.843,3.957,3.957,0,0,0-.643,2.436v.291a3.878,3.878,0,0,0,.639,2.391A2.16,2.16,0,0,0,67.257-1.087Zm4.889-3.486a5.3,5.3,0,0,1,.519-2.374,3.87,3.87,0,0,1,1.444-1.627,3.932,3.932,0,0,1,2.113-.573,3.788,3.788,0,0,1,2.968,1.27A4.886,4.886,0,0,1,80.323-4.5v.108a5.351,5.351,0,0,1-.5,2.353A3.813,3.813,0,0,1,78.384-.415a3.977,3.977,0,0,1-2.146.581A3.778,3.778,0,0,1,73.279-1.1a4.861,4.861,0,0,1-1.133-3.362Zm1.544.183a3.842,3.842,0,0,0,.693,2.4,2.218,2.218,0,0,0,1.855.9A2.2,2.2,0,0,0,78.1-2a4.2,4.2,0,0,0,.689-2.569,3.836,3.836,0,0,0-.7-2.395,2.23,2.23,0,0,0-1.864-.917,2.205,2.205,0,0,0-1.834.9A4.17,4.17,0,0,0,73.69-4.391ZM87.478-2.382a1.131,1.131,0,0,0-.469-.967,4.514,4.514,0,0,0-1.635-.594,7.731,7.731,0,0,1-1.851-.6,2.633,2.633,0,0,1-1.013-.83,1.986,1.986,0,0,1-.328-1.146,2.33,2.33,0,0,1,.934-1.868A3.647,3.647,0,0,1,85.5-9.147a3.753,3.753,0,0,1,2.478.789,2.5,2.5,0,0,1,.95,2.017H87.386a1.386,1.386,0,0,0-.535-1.087A2.006,2.006,0,0,0,85.5-7.886a2.1,2.1,0,0,0-1.312.365,1.15,1.15,0,0,0-.473.955.932.932,0,0,0,.44.838,5.413,5.413,0,0,0,1.59.54,8.283,8.283,0,0,1,1.864.614,2.718,2.718,0,0,1,1.058.859,2.112,2.112,0,0,1,.344,1.224,2.3,2.3,0,0,1-.963,1.93,4.039,4.039,0,0,1-2.5.726,4.523,4.523,0,0,1-1.909-.382,3.105,3.105,0,0,1-1.3-1.067,2.571,2.571,0,0,1-.469-1.482H83.41a1.59,1.59,0,0,0,.618,1.224,2.4,2.4,0,0,0,1.523.452,2.476,2.476,0,0,0,1.4-.353A1.084,1.084,0,0,0,87.478-2.382Z" transform="translate(787 3149)" fill="#12263f"/>
    <path id="Trazado_197342" data-name="Trazado 197342" d="M-38.453-4.731V0h-1.594V-12.086h4.458a4.478,4.478,0,0,1,3.109,1.013,3.433,3.433,0,0,1,1.125,2.681,3.388,3.388,0,0,1-1.1,2.71,4.678,4.678,0,0,1-3.15.95Zm0-1.3h2.864a2.863,2.863,0,0,0,1.959-.6A2.2,2.2,0,0,0-32.95-8.38a2.277,2.277,0,0,0-.681-1.73,2.682,2.682,0,0,0-1.868-.674h-2.955ZM-25.222-7.6a4.6,4.6,0,0,0-.755-.058,2.024,2.024,0,0,0-2.05,1.287V0h-1.536V-8.981h1.494l.025,1.038a2.391,2.391,0,0,1,2.142-1.2,1.569,1.569,0,0,1,.681.116Zm.838,3.03a5.3,5.3,0,0,1,.519-2.374A3.87,3.87,0,0,1-22.42-8.575a3.932,3.932,0,0,1,2.113-.573,3.788,3.788,0,0,1,2.968,1.27A4.886,4.886,0,0,1-16.207-4.5v.108a5.351,5.351,0,0,1-.5,2.353A3.813,3.813,0,0,1-18.146-.415a3.977,3.977,0,0,1-2.146.581A3.778,3.778,0,0,1-23.25-1.1a4.861,4.861,0,0,1-1.133-3.362Zm1.544.183a3.842,3.842,0,0,0,.693,2.4,2.218,2.218,0,0,0,1.855.9A2.2,2.2,0,0,0-18.432-2a4.2,4.2,0,0,0,.689-2.569,3.836,3.836,0,0,0-.7-2.395,2.23,2.23,0,0,0-1.864-.917,2.205,2.205,0,0,0-1.834.9A4.17,4.17,0,0,0-22.84-4.391ZM-13.526,0V-7.794h-1.419V-8.981h1.419V-9.9a3.058,3.058,0,0,1,.772-2.233,2.916,2.916,0,0,1,2.183-.789,4.055,4.055,0,0,1,1.054.14L-9.6-11.546a4.41,4.41,0,0,0-.83-.075,1.5,1.5,0,0,0-1.154.437,1.773,1.773,0,0,0-.407,1.253v.949h1.917v1.187H-11.99V0Zm8.874.166a3.924,3.924,0,0,1-2.972-1.2A4.452,4.452,0,0,1-8.77-4.242v-.282a5.39,5.39,0,0,1,.51-2.386A3.982,3.982,0,0,1-6.832-8.554a3.59,3.59,0,0,1,1.988-.594A3.364,3.364,0,0,1-2.121-7.994a5,5,0,0,1,.971,3.3v.639H-7.234a3.193,3.193,0,0,0,.776,2.146,2.44,2.44,0,0,0,1.888.818,2.675,2.675,0,0,0,1.378-.332A3.462,3.462,0,0,0-2.2-2.3l.938.73A3.772,3.772,0,0,1-4.653.166Zm-.191-8.052A2.048,2.048,0,0,0-6.4-7.209a3.288,3.288,0,0,0-.78,1.9h4.5v-.116a2.925,2.925,0,0,0-.631-1.814A1.928,1.928,0,0,0-4.844-7.886Zm10.7,5.5a1.131,1.131,0,0,0-.469-.967,4.514,4.514,0,0,0-1.635-.594,7.731,7.731,0,0,1-1.851-.6,2.633,2.633,0,0,1-1.013-.83A1.986,1.986,0,0,1,.56-6.516a2.33,2.33,0,0,1,.934-1.868,3.647,3.647,0,0,1,2.386-.764,3.753,3.753,0,0,1,2.478.789,2.5,2.5,0,0,1,.95,2.017H5.765a1.386,1.386,0,0,0-.535-1.087,2.006,2.006,0,0,0-1.349-.457,2.1,2.1,0,0,0-1.312.365,1.15,1.15,0,0,0-.473.955.932.932,0,0,0,.44.838,5.413,5.413,0,0,0,1.59.54,8.283,8.283,0,0,1,1.864.614,2.718,2.718,0,0,1,1.058.859A2.112,2.112,0,0,1,7.392-2.49,2.3,2.3,0,0,1,6.429-.56a4.039,4.039,0,0,1-2.5.726A4.523,4.523,0,0,1,2.021-.216a3.105,3.105,0,0,1-1.3-1.067A2.571,2.571,0,0,1,.253-2.764H1.789A1.59,1.59,0,0,0,2.407-1.54a2.4,2.4,0,0,0,1.523.452,2.476,2.476,0,0,0,1.4-.353A1.084,1.084,0,0,0,5.856-2.382ZM8.986-4.574A5.3,5.3,0,0,1,9.5-6.948a3.87,3.87,0,0,1,1.444-1.627,3.932,3.932,0,0,1,2.113-.573,3.788,3.788,0,0,1,2.968,1.27A4.886,4.886,0,0,1,17.162-4.5v.108a5.351,5.351,0,0,1-.5,2.353A3.813,3.813,0,0,1,15.224-.415a3.977,3.977,0,0,1-2.146.581A3.778,3.778,0,0,1,10.119-1.1,4.861,4.861,0,0,1,8.986-4.466Zm1.544.183a3.842,3.842,0,0,0,.693,2.4,2.218,2.218,0,0,0,1.855.9A2.2,2.2,0,0,0,14.937-2a4.2,4.2,0,0,0,.689-2.569,3.836,3.836,0,0,0-.7-2.395,2.23,2.23,0,0,0-1.864-.917,2.205,2.205,0,0,0-1.834.9A4.17,4.17,0,0,0,10.53-4.391ZM23.429-7.6a4.6,4.6,0,0,0-.755-.058,2.024,2.024,0,0,0-2.05,1.287V0H19.088V-8.981h1.494l.025,1.038a2.391,2.391,0,0,1,2.142-1.2,1.569,1.569,0,0,1,.681.116ZM28.567.166a3.924,3.924,0,0,1-2.972-1.2A4.452,4.452,0,0,1,24.45-4.242v-.282a5.39,5.39,0,0,1,.51-2.386,3.982,3.982,0,0,1,1.428-1.644,3.59,3.59,0,0,1,1.988-.594A3.364,3.364,0,0,1,31.1-7.994a5,5,0,0,1,.971,3.3v.639H25.986a3.193,3.193,0,0,0,.776,2.146,2.44,2.44,0,0,0,1.888.818,2.675,2.675,0,0,0,1.378-.332,3.462,3.462,0,0,0,.988-.88l.938.73A3.772,3.772,0,0,1,28.567.166Zm-.191-8.052a2.048,2.048,0,0,0-1.561.677,3.288,3.288,0,0,0-.78,1.9h4.5v-.116A2.925,2.925,0,0,0,29.9-7.242,1.928,1.928,0,0,0,28.376-7.886Zm10.7,5.5a1.13,1.13,0,0,0-.469-.967,4.514,4.514,0,0,0-1.635-.594,7.731,7.731,0,0,1-1.851-.6,2.633,2.633,0,0,1-1.013-.83,1.986,1.986,0,0,1-.328-1.146,2.33,2.33,0,0,1,.934-1.868A3.647,3.647,0,0,1,37.1-9.147a3.753,3.753,0,0,1,2.478.789,2.5,2.5,0,0,1,.95,2.017H38.985a1.386,1.386,0,0,0-.535-1.087A2.006,2.006,0,0,0,37.1-7.886a2.1,2.1,0,0,0-1.312.365,1.15,1.15,0,0,0-.473.955.932.932,0,0,0,.44.838,5.413,5.413,0,0,0,1.59.54,8.283,8.283,0,0,1,1.864.614,2.718,2.718,0,0,1,1.058.859,2.112,2.112,0,0,1,.344,1.224,2.3,2.3,0,0,1-.963,1.93,4.039,4.039,0,0,1-2.5.726,4.523,4.523,0,0,1-1.909-.382,3.105,3.105,0,0,1-1.3-1.067,2.571,2.571,0,0,1-.469-1.482h1.536a1.59,1.59,0,0,0,.618,1.224,2.4,2.4,0,0,0,1.523.452,2.476,2.476,0,0,0,1.4-.353A1.084,1.084,0,0,0,39.076-2.382Z" transform="translate(557 3342)" fill="#12263f"/>
    <path id="Trazado_197343" data-name="Trazado 197343" d="M-36.274-5.586h-5.238V-1.3h6.084V0h-7.678V-12.086h7.6v1.3h-6V-6.89h5.238Zm7.819,3.2a1.131,1.131,0,0,0-.469-.967,4.514,4.514,0,0,0-1.635-.594,7.731,7.731,0,0,1-1.851-.6,2.633,2.633,0,0,1-1.013-.83,1.986,1.986,0,0,1-.328-1.146,2.33,2.33,0,0,1,.934-1.868,3.647,3.647,0,0,1,2.386-.764,3.753,3.753,0,0,1,2.478.789A2.5,2.5,0,0,1-27-6.342h-1.544a1.386,1.386,0,0,0-.535-1.087,2.006,2.006,0,0,0-1.349-.457,2.1,2.1,0,0,0-1.312.365,1.15,1.15,0,0,0-.473.955.932.932,0,0,0,.44.838,5.413,5.413,0,0,0,1.59.54,8.283,8.283,0,0,1,1.864.614,2.718,2.718,0,0,1,1.058.859,2.112,2.112,0,0,1,.344,1.224,2.3,2.3,0,0,1-.963,1.93,4.039,4.039,0,0,1-2.5.726A4.523,4.523,0,0,1-32.29-.216a3.105,3.105,0,0,1-1.3-1.067,2.571,2.571,0,0,1-.469-1.482h1.536A1.59,1.59,0,0,0-31.9-1.54a2.4,2.4,0,0,0,1.523.452,2.476,2.476,0,0,0,1.4-.353A1.084,1.084,0,0,0-28.455-2.382Zm5.62-8.774v2.175h1.677v1.187h-1.677v5.577a1.247,1.247,0,0,0,.224.81.943.943,0,0,0,.764.27,3.718,3.718,0,0,0,.73-.1V0A4.478,4.478,0,0,1-22.3.166a1.912,1.912,0,0,1-1.552-.623,2.675,2.675,0,0,1-.523-1.768v-5.57h-1.635V-8.981h1.635v-2.175ZM-13.821-.888A3.262,3.262,0,0,1-16.452.166a2.792,2.792,0,0,1-2.187-.834,3.611,3.611,0,0,1-.76-2.469V-8.981h1.536v5.8q0,2.042,1.66,2.042a2.3,2.3,0,0,0,2.341-1.312V-8.981h1.536V0h-1.461Zm3.453-3.677A5.261,5.261,0,0,1-9.388-7.89,3.1,3.1,0,0,1-6.823-9.147a3.115,3.115,0,0,1,2.5,1.079V-12.75h1.536V0H-4.2l-.075-.963A3.127,3.127,0,0,1-6.84.166,3.068,3.068,0,0,1-9.384-1.112a5.321,5.321,0,0,1-.984-3.337Zm1.536.174A3.984,3.984,0,0,0-8.2-2a2.039,2.039,0,0,0,1.743.863A2.24,2.24,0,0,0-4.325-2.449V-6.574a2.257,2.257,0,0,0-2.117-1.27,2.049,2.049,0,0,0-1.76.872A4.386,4.386,0,0,0-8.832-4.391ZM1.262,0H-.274V-8.981H1.262ZM-.4-11.364a.917.917,0,0,1,.228-.631.857.857,0,0,1,.677-.257.87.87,0,0,1,.681.257.907.907,0,0,1,.232.631.877.877,0,0,1-.232.623.886.886,0,0,1-.681.249.872.872,0,0,1-.677-.249A.886.886,0,0,1-.4-11.364ZM9.264,0a3.226,3.226,0,0,1-.216-.946A3.426,3.426,0,0,1,6.491.166,3.17,3.17,0,0,1,4.312-.585,2.43,2.43,0,0,1,3.461-2.49,2.539,2.539,0,0,1,4.528-4.669a5.029,5.029,0,0,1,3-.776H9.023v-.706a1.725,1.725,0,0,0-.481-1.282,1.935,1.935,0,0,0-1.419-.477A2.239,2.239,0,0,0,5.744-7.5a1.223,1.223,0,0,0-.556,1H3.644a2.119,2.119,0,0,1,.477-1.3,3.258,3.258,0,0,1,1.295-.992,4.356,4.356,0,0,1,1.8-.365,3.551,3.551,0,0,1,2.432.776,2.8,2.8,0,0,1,.913,2.137V-2.1a5.054,5.054,0,0,0,.315,1.967V0ZM6.715-1.17a2.7,2.7,0,0,0,1.37-.374,2.259,2.259,0,0,0,.938-.971V-4.358h-1.2Q5-4.358,5-2.706a1.4,1.4,0,0,0,.481,1.129A1.85,1.85,0,0,0,6.715-1.17Zm7.7-7.811.05,1.129a3.273,3.273,0,0,1,2.689-1.295q2.847,0,2.872,3.212V0H18.494V-5.943a2.068,2.068,0,0,0-.444-1.436,1.78,1.78,0,0,0-1.357-.465,2.216,2.216,0,0,0-1.312.4A2.706,2.706,0,0,0,14.5-6.4V0H12.966V-8.981Zm10.011-2.175v2.175h1.677v1.187H24.429v5.577a1.247,1.247,0,0,0,.224.81.943.943,0,0,0,.764.27,3.718,3.718,0,0,0,.73-.1V0a4.478,4.478,0,0,1-1.179.165,1.912,1.912,0,0,1-1.552-.623,2.675,2.675,0,0,1-.523-1.768v-5.57H21.258V-8.981h1.635v-2.175ZM31.626.166a3.924,3.924,0,0,1-2.972-1.2,4.452,4.452,0,0,1-1.146-3.208v-.282a5.39,5.39,0,0,1,.51-2.386,3.982,3.982,0,0,1,1.428-1.644,3.59,3.59,0,0,1,1.988-.594,3.364,3.364,0,0,1,2.723,1.154,5,5,0,0,1,.971,3.3v.639H29.044a3.193,3.193,0,0,0,.776,2.146,2.44,2.44,0,0,0,1.888.818,2.675,2.675,0,0,0,1.378-.332,3.462,3.462,0,0,0,.988-.88l.938.73A3.772,3.772,0,0,1,31.626.166Zm-.191-8.052a2.048,2.048,0,0,0-1.561.677,3.288,3.288,0,0,0-.78,1.9h4.5v-.116a2.925,2.925,0,0,0-.631-1.814A1.928,1.928,0,0,0,31.435-7.886Zm10.7,5.5a1.13,1.13,0,0,0-.469-.967,4.514,4.514,0,0,0-1.635-.594,7.731,7.731,0,0,1-1.851-.6,2.633,2.633,0,0,1-1.013-.83,1.986,1.986,0,0,1-.328-1.146,2.33,2.33,0,0,1,.934-1.868,3.647,3.647,0,0,1,2.386-.764,3.753,3.753,0,0,1,2.478.789,2.5,2.5,0,0,1,.95,2.017H42.043a1.386,1.386,0,0,0-.535-1.087,2.006,2.006,0,0,0-1.349-.457,2.1,2.1,0,0,0-1.312.365,1.15,1.15,0,0,0-.473.955.932.932,0,0,0,.44.838,5.413,5.413,0,0,0,1.59.54,8.283,8.283,0,0,1,1.864.614,2.718,2.718,0,0,1,1.058.859A2.112,2.112,0,0,1,43.67-2.49a2.3,2.3,0,0,1-.963,1.93,4.039,4.039,0,0,1-2.5.726A4.523,4.523,0,0,1,38.3-.216,3.105,3.105,0,0,1,37-1.282a2.571,2.571,0,0,1-.469-1.482h1.536a1.59,1.59,0,0,0,.618,1.224,2.4,2.4,0,0,0,1.523.452,2.476,2.476,0,0,0,1.4-.353A1.084,1.084,0,0,0,42.135-2.382Z" transform="translate(1042 3342)" fill="#12263f"/>
    <path id="Trazado_197344" data-name="Trazado 197344" d="M-22.288-3.835A4.447,4.447,0,0,1-23.7-.876,4.638,4.638,0,0,1-26.87.166,4.259,4.259,0,0,1-30.3-1.37a6.178,6.178,0,0,1-1.291-4.109V-6.641a6.886,6.886,0,0,1,.6-2.963,4.5,4.5,0,0,1,1.706-1.963,4.75,4.75,0,0,1,2.557-.685,4.367,4.367,0,0,1,3.088,1.075A4.5,4.5,0,0,1-22.288-8.2h-1.6a3.472,3.472,0,0,0-.9-2.1,2.725,2.725,0,0,0-1.938-.649,2.851,2.851,0,0,0-2.395,1.13A5.187,5.187,0,0,0-29.991-6.6v1.171A5.332,5.332,0,0,0-29.169-2.3a2.655,2.655,0,0,0,2.3,1.163,3.067,3.067,0,0,0,2.038-.6,3.34,3.34,0,0,0,.942-2.1Zm1.527-.739a5.3,5.3,0,0,1,.519-2.374A3.87,3.87,0,0,1-18.8-8.575a3.932,3.932,0,0,1,2.113-.573,3.788,3.788,0,0,1,2.968,1.27A4.886,4.886,0,0,1-12.584-4.5v.108a5.351,5.351,0,0,1-.5,2.353A3.813,3.813,0,0,1-14.522-.415a3.977,3.977,0,0,1-2.146.581A3.778,3.778,0,0,1-19.627-1.1,4.861,4.861,0,0,1-20.76-4.466Zm1.544.183a3.842,3.842,0,0,0,.693,2.4,2.218,2.218,0,0,0,1.855.9A2.2,2.2,0,0,0-14.809-2a4.2,4.2,0,0,0,.689-2.569,3.836,3.836,0,0,0-.7-2.395,2.23,2.23,0,0,0-1.864-.917,2.205,2.205,0,0,0-1.834.9A4.17,4.17,0,0,0-19.216-4.391Zm10.011-4.59.05,1.129A3.273,3.273,0,0,1-6.466-9.147q2.847,0,2.872,3.212V0H-5.13V-5.943a2.068,2.068,0,0,0-.444-1.436,1.78,1.78,0,0,0-1.357-.465,2.216,2.216,0,0,0-1.312.4A2.706,2.706,0,0,0-9.123-6.4V0h-1.536V-8.981ZM.805-11.156v2.175H2.482v1.187H.805v5.577a1.247,1.247,0,0,0,.224.81.943.943,0,0,0,.764.27,3.718,3.718,0,0,0,.73-.1V0A4.478,4.478,0,0,1,1.345.166,1.912,1.912,0,0,1-.208-.457,2.675,2.675,0,0,1-.73-2.225v-5.57H-2.366V-8.981H-.73v-2.175ZM8.616-7.6a4.6,4.6,0,0,0-.755-.058,2.024,2.024,0,0,0-2.05,1.287V0H4.275V-8.981H5.769l.025,1.038a2.391,2.391,0,0,1,2.142-1.2,1.569,1.569,0,0,1,.681.116ZM15.24,0a3.226,3.226,0,0,1-.216-.946A3.426,3.426,0,0,1,12.468.166a3.17,3.17,0,0,1-2.179-.751A2.43,2.43,0,0,1,9.438-2.49,2.539,2.539,0,0,1,10.5-4.669a5.029,5.029,0,0,1,3-.776H15v-.706a1.725,1.725,0,0,0-.481-1.282A1.935,1.935,0,0,0,13.1-7.911a2.239,2.239,0,0,0-1.378.415,1.223,1.223,0,0,0-.556,1H9.621a2.119,2.119,0,0,1,.477-1.3,3.258,3.258,0,0,1,1.295-.992,4.356,4.356,0,0,1,1.8-.365,3.551,3.551,0,0,1,2.432.776,2.8,2.8,0,0,1,.913,2.137V-2.1a5.054,5.054,0,0,0,.315,1.967V0ZM12.692-1.17a2.7,2.7,0,0,0,1.37-.374A2.259,2.259,0,0,0,15-2.515V-4.358H13.8q-2.822,0-2.822,1.652a1.4,1.4,0,0,0,.481,1.129A1.85,1.85,0,0,0,12.692-1.17Zm8.334-9.986v2.175H22.7v1.187H21.026v5.577a1.247,1.247,0,0,0,.224.81.943.943,0,0,0,.764.27,3.718,3.718,0,0,0,.73-.1V0a4.478,4.478,0,0,1-1.179.165,1.912,1.912,0,0,1-1.552-.623,2.675,2.675,0,0,1-.523-1.768v-5.57H17.855V-8.981H19.49v-2.175ZM30.041,0a3.226,3.226,0,0,1-.216-.946A3.426,3.426,0,0,1,27.268.166a3.17,3.17,0,0,1-2.179-.751,2.43,2.43,0,0,1-.851-1.905A2.539,2.539,0,0,1,25.3-4.669a5.029,5.029,0,0,1,3-.776H29.8v-.706a1.725,1.725,0,0,0-.481-1.282A1.935,1.935,0,0,0,27.9-7.911a2.239,2.239,0,0,0-1.378.415,1.223,1.223,0,0,0-.556,1H24.421a2.119,2.119,0,0,1,.477-1.3,3.258,3.258,0,0,1,1.295-.992,4.356,4.356,0,0,1,1.8-.365,3.551,3.551,0,0,1,2.432.776,2.8,2.8,0,0,1,.913,2.137V-2.1a5.054,5.054,0,0,0,.315,1.967V0ZM27.492-1.17a2.7,2.7,0,0,0,1.37-.374,2.259,2.259,0,0,0,.938-.971V-4.358H28.6q-2.822,0-2.822,1.652a1.4,1.4,0,0,0,.481,1.129A1.85,1.85,0,0,0,27.492-1.17Z" transform="translate(557 3245)" fill="#12263f"/>
    <path id="Trazado_197345" data-name="Trazado 197345" d="M-32.157-12.086l3.951,9.861,3.951-9.861h2.067V0h-1.594V-4.707l.149-5.08L-27.6,0h-1.22L-32.78-9.762l.158,5.055V0h-1.594V-12.086ZM-14.07,0a3.226,3.226,0,0,1-.216-.946A3.426,3.426,0,0,1-16.842.166a3.17,3.17,0,0,1-2.179-.751,2.43,2.43,0,0,1-.851-1.905,2.539,2.539,0,0,1,1.067-2.179,5.029,5.029,0,0,1,3-.776h1.494v-.706a1.725,1.725,0,0,0-.481-1.282,1.935,1.935,0,0,0-1.419-.477,2.239,2.239,0,0,0-1.378.415,1.223,1.223,0,0,0-.556,1h-1.544a2.119,2.119,0,0,1,.477-1.3,3.258,3.258,0,0,1,1.295-.992,4.356,4.356,0,0,1,1.8-.365,3.551,3.551,0,0,1,2.432.776,2.8,2.8,0,0,1,.913,2.137V-2.1a5.054,5.054,0,0,0,.315,1.967V0Zm-2.548-1.17a2.7,2.7,0,0,0,1.37-.374,2.259,2.259,0,0,0,.938-.971V-4.358h-1.2q-2.822,0-2.822,1.652a1.4,1.4,0,0,0,.481,1.129A1.85,1.85,0,0,0-16.618-1.17Zm8.334-9.986v2.175h1.677v1.187H-8.284v5.577a1.247,1.247,0,0,0,.224.81.943.943,0,0,0,.764.27,3.718,3.718,0,0,0,.73-.1V0A4.478,4.478,0,0,1-7.745.166,1.912,1.912,0,0,1-9.3-.457,2.675,2.675,0,0,1-9.82-2.225v-5.57h-1.635V-8.981H-9.82v-2.175ZM-.473-7.6a4.6,4.6,0,0,0-.755-.058,2.024,2.024,0,0,0-2.05,1.287V0H-4.814V-8.981H-3.32L-3.3-7.944a2.391,2.391,0,0,1,2.142-1.2,1.569,1.569,0,0,1,.681.116ZM2.606,0H1.063V-8.981H2.606Zm.017-12.742H4.482L2.258-10.3l-1.237,0ZM8.741-1.087a2.212,2.212,0,0,0,1.436-.5,1.752,1.752,0,0,0,.681-1.245H12.31a2.785,2.785,0,0,1-.531,1.469A3.5,3.5,0,0,1,10.471-.249,3.772,3.772,0,0,1,8.741.166,3.7,3.7,0,0,1,5.823-1.058,4.877,4.877,0,0,1,4.74-4.408v-.257A5.407,5.407,0,0,1,5.221-7,3.667,3.667,0,0,1,6.6-8.583a3.926,3.926,0,0,1,2.129-.564,3.6,3.6,0,0,1,2.511.9A3.234,3.234,0,0,1,12.31-5.894H10.857a2.116,2.116,0,0,0-.66-1.432,2.053,2.053,0,0,0-1.465-.56,2.149,2.149,0,0,0-1.814.843,3.957,3.957,0,0,0-.643,2.436v.291a3.878,3.878,0,0,0,.639,2.391A2.16,2.16,0,0,0,8.741-1.087Zm10.841.2A3.262,3.262,0,0,1,16.95.166a2.792,2.792,0,0,1-2.187-.834A3.611,3.611,0,0,1,14-3.138V-8.981h1.536v5.8q0,2.042,1.66,2.042A2.3,2.3,0,0,0,19.54-2.449V-8.981h1.536V0H19.615Zm5.5.888H23.541V-12.75h1.536Zm8,0a3.226,3.226,0,0,1-.216-.946A3.426,3.426,0,0,1,30.306.166a3.17,3.17,0,0,1-2.179-.751,2.43,2.43,0,0,1-.851-1.905,2.539,2.539,0,0,1,1.067-2.179,5.029,5.029,0,0,1,3-.776h1.494v-.706a1.725,1.725,0,0,0-.481-1.282,1.935,1.935,0,0,0-1.419-.477,2.239,2.239,0,0,0-1.378.415,1.223,1.223,0,0,0-.556,1H27.459a2.119,2.119,0,0,1,.477-1.3,3.258,3.258,0,0,1,1.295-.992,4.356,4.356,0,0,1,1.8-.365,3.551,3.551,0,0,1,2.432.776,2.8,2.8,0,0,1,.913,2.137V-2.1a5.054,5.054,0,0,0,.315,1.967V0ZM30.53-1.17a2.7,2.7,0,0,0,1.37-.374,2.259,2.259,0,0,0,.938-.971V-4.358h-1.2q-2.822,0-2.822,1.652a1.4,1.4,0,0,0,.481,1.129A1.85,1.85,0,0,0,30.53-1.17Z" transform="translate(1039 3245)" fill="#12263f"/>
    <path id="Trazado_197346" data-name="Trazado 197346" d="M-19.486-5.586h-5.238V-1.3h6.084V0h-7.678V-12.086h7.6v1.3h-6V-6.89h5.238Zm4.042-3.4.05,1.129A3.273,3.273,0,0,1-12.7-9.147q2.847,0,2.872,3.212V0h-1.536V-5.943a2.068,2.068,0,0,0-.444-1.436,1.78,1.78,0,0,0-1.357-.465,2.216,2.216,0,0,0-1.312.4,2.706,2.706,0,0,0-.88,1.046V0H-16.9V-8.981Zm13.157,6.6a1.131,1.131,0,0,0-.469-.967,4.514,4.514,0,0,0-1.635-.594,7.731,7.731,0,0,1-1.851-.6,2.633,2.633,0,0,1-1.013-.83,1.986,1.986,0,0,1-.328-1.146,2.33,2.33,0,0,1,.934-1.868,3.647,3.647,0,0,1,2.386-.764,3.753,3.753,0,0,1,2.478.789,2.5,2.5,0,0,1,.95,2.017H-2.378a1.386,1.386,0,0,0-.535-1.087,2.006,2.006,0,0,0-1.349-.457,2.1,2.1,0,0,0-1.312.365,1.15,1.15,0,0,0-.473.955.932.932,0,0,0,.44.838,5.413,5.413,0,0,0,1.59.54,8.283,8.283,0,0,1,1.864.614A2.718,2.718,0,0,1-1.1-3.715,2.112,2.112,0,0,1-.751-2.49,2.3,2.3,0,0,1-1.714-.56a4.039,4.039,0,0,1-2.5.726A4.523,4.523,0,0,1-6.122-.216a3.105,3.105,0,0,1-1.3-1.067A2.571,2.571,0,0,1-7.89-2.764h1.536A1.59,1.59,0,0,0-5.736-1.54a2.4,2.4,0,0,0,1.523.452,2.476,2.476,0,0,0,1.4-.353A1.084,1.084,0,0,0-2.287-2.382ZM4.976.166A3.924,3.924,0,0,1,2-1.033,4.452,4.452,0,0,1,.859-4.242v-.282A5.39,5.39,0,0,1,1.37-6.91,3.982,3.982,0,0,1,2.8-8.554a3.59,3.59,0,0,1,1.988-.594A3.364,3.364,0,0,1,7.508-7.994a5,5,0,0,1,.971,3.3v.639H2.395a3.193,3.193,0,0,0,.776,2.146,2.44,2.44,0,0,0,1.888.818,2.675,2.675,0,0,0,1.378-.332,3.462,3.462,0,0,0,.988-.88l.938.73A3.772,3.772,0,0,1,4.976.166ZM4.785-7.886a2.048,2.048,0,0,0-1.561.677,3.288,3.288,0,0,0-.78,1.9h4.5v-.116a2.925,2.925,0,0,0-.631-1.814A1.928,1.928,0,0,0,4.785-7.886Zm6.923-1.1.05,1.129a3.273,3.273,0,0,1,2.689-1.295q2.847,0,2.872,3.212V0H15.784V-5.943a2.068,2.068,0,0,0-.444-1.436,1.78,1.78,0,0,0-1.357-.465,2.216,2.216,0,0,0-1.312.4,2.706,2.706,0,0,0-.88,1.046V0H10.256V-8.981Zm5.08-3.5a2.064,2.064,0,0,1-.51,1.453A1.658,1.658,0,0,1,15-10.476a1.869,1.869,0,0,1-.589-.083,3.18,3.18,0,0,1-.652-.34,2.822,2.822,0,0,0-.581-.311,1.422,1.422,0,0,0-.411-.054A.762.762,0,0,0,12.19-11a.948.948,0,0,0-.241.668l-1.029-.058a2.167,2.167,0,0,1,.5-1.469,1.611,1.611,0,0,1,1.274-.581,1.548,1.548,0,0,1,.523.083,3.811,3.811,0,0,1,.631.324,3.712,3.712,0,0,0,.61.315,1.4,1.4,0,0,0,.469.075.743.743,0,0,0,.594-.282.99.99,0,0,0,.237-.656ZM25.18,0a3.226,3.226,0,0,1-.216-.946A3.426,3.426,0,0,1,22.408.166a3.17,3.17,0,0,1-2.179-.751,2.43,2.43,0,0,1-.851-1.905,2.539,2.539,0,0,1,1.067-2.179,5.029,5.029,0,0,1,3-.776H24.94v-.706a1.725,1.725,0,0,0-.481-1.282,1.935,1.935,0,0,0-1.419-.477,2.239,2.239,0,0,0-1.378.415,1.223,1.223,0,0,0-.556,1H19.561a2.119,2.119,0,0,1,.477-1.3,3.258,3.258,0,0,1,1.295-.992,4.356,4.356,0,0,1,1.8-.365,3.551,3.551,0,0,1,2.432.776,2.8,2.8,0,0,1,.913,2.137V-2.1a5.054,5.054,0,0,0,.315,1.967V0ZM22.632-1.17A2.7,2.7,0,0,0,24-1.544a2.259,2.259,0,0,0,.938-.971V-4.358h-1.2q-2.822,0-2.822,1.652A1.4,1.4,0,0,0,21.4-1.577,1.85,1.85,0,0,0,22.632-1.17Z" transform="translate(800 3341)" fill="#12263f"/>
    <path id="Trazado_197347" data-name="Trazado 197347" d="M-18.648,0h-1.508l-5.727-8.766V0h-1.508V-11.375h1.508l5.742,8.8v-8.8h1.492Zm2.055-4.3a4.993,4.993,0,0,1,.488-2.234A3.643,3.643,0,0,1-14.746-8.07a3.7,3.7,0,0,1,1.988-.539,3.565,3.565,0,0,1,2.793,1.2A4.6,4.6,0,0,1-8.9-4.234v.1a5.036,5.036,0,0,1-.473,2.215A3.589,3.589,0,0,1-10.723-.391a3.743,3.743,0,0,1-2.02.547,3.556,3.556,0,0,1-2.785-1.2A4.575,4.575,0,0,1-16.594-4.2Zm1.453.172a3.616,3.616,0,0,0,.652,2.258,2.088,2.088,0,0,0,1.746.852,2.075,2.075,0,0,0,1.75-.863A3.955,3.955,0,0,0-10.344-4.3,3.61,3.61,0,0,0-11-6.559a2.1,2.1,0,0,0-1.754-.863,2.075,2.075,0,0,0-1.727.852A3.925,3.925,0,0,0-15.141-4.133Zm9.414-4.32.039.938A3.122,3.122,0,0,1-3.18-8.609,2.417,2.417,0,0,1-.766-7.25a3.2,3.2,0,0,1,1.1-.984,3.242,3.242,0,0,1,1.6-.375q2.781,0,2.828,2.945V0H3.313V-5.578A1.941,1.941,0,0,0,2.9-6.934a1.823,1.823,0,0,0-1.391-.449A1.916,1.916,0,0,0,.172-6.9,1.949,1.949,0,0,0-.445-5.609V0H-1.9V-5.539A1.613,1.613,0,0,0-3.7-7.383,1.934,1.934,0,0,0-5.648-6.172V0H-7.094V-8.453Zm19.82,4.32A5.026,5.026,0,0,1,13.2-1.02,2.846,2.846,0,0,1,10.813.156,2.947,2.947,0,0,1,8.336-.977L8.266,0H6.938V-12H8.383v4.477A2.93,2.93,0,0,1,10.8-8.609a2.863,2.863,0,0,1,2.418,1.164,5.177,5.177,0,0,1,.879,3.188ZM12.648-4.3a3.906,3.906,0,0,0-.57-2.281,1.888,1.888,0,0,0-1.641-.8A2.122,2.122,0,0,0,8.383-6.055V-2.4a2.181,2.181,0,0,0,2.07,1.328,1.878,1.878,0,0,0,1.617-.8A4.153,4.153,0,0,0,12.648-4.3ZM20-7.156a4.331,4.331,0,0,0-.711-.055A1.9,1.9,0,0,0,17.359-6V0H15.914V-8.453H17.32l.023.977a2.251,2.251,0,0,1,2.016-1.133A1.477,1.477,0,0,1,20-8.5ZM24.836.156a3.693,3.693,0,0,1-2.8-1.129,4.19,4.19,0,0,1-1.078-3.02v-.266a5.073,5.073,0,0,1,.48-2.246,3.748,3.748,0,0,1,1.344-1.547,3.378,3.378,0,0,1,1.871-.559,3.166,3.166,0,0,1,2.563,1.086,4.7,4.7,0,0,1,.914,3.109v.6H22.406a3,3,0,0,0,.73,2.02,2.3,2.3,0,0,0,1.777.77,2.517,2.517,0,0,0,1.3-.312,3.259,3.259,0,0,0,.93-.828l.883.688A3.55,3.55,0,0,1,24.836.156Zm-.18-7.578a1.928,1.928,0,0,0-1.469.637A3.1,3.1,0,0,0,22.453-5h4.234v-.109a2.753,2.753,0,0,0-.594-1.707A1.815,1.815,0,0,0,24.656-7.422Z" transform="translate(605 3110)" fill="#12263f"/>
    <path id="Trazado_197348" data-name="Trazado 197348" d="M-18.648,0h-1.508l-5.727-8.766V0h-1.508V-11.375h1.508l5.742,8.8v-8.8h1.492Zm2.055-4.3a4.993,4.993,0,0,1,.488-2.234A3.643,3.643,0,0,1-14.746-8.07a3.7,3.7,0,0,1,1.988-.539,3.565,3.565,0,0,1,2.793,1.2A4.6,4.6,0,0,1-8.9-4.234v.1a5.036,5.036,0,0,1-.473,2.215A3.589,3.589,0,0,1-10.723-.391a3.743,3.743,0,0,1-2.02.547,3.556,3.556,0,0,1-2.785-1.2A4.575,4.575,0,0,1-16.594-4.2Zm1.453.172a3.616,3.616,0,0,0,.652,2.258,2.088,2.088,0,0,0,1.746.852,2.075,2.075,0,0,0,1.75-.863A3.955,3.955,0,0,0-10.344-4.3,3.61,3.61,0,0,0-11-6.559a2.1,2.1,0,0,0-1.754-.863,2.075,2.075,0,0,0-1.727.852A3.925,3.925,0,0,0-15.141-4.133Zm9.414-4.32.039.938A3.122,3.122,0,0,1-3.18-8.609,2.417,2.417,0,0,1-.766-7.25a3.2,3.2,0,0,1,1.1-.984,3.242,3.242,0,0,1,1.6-.375q2.781,0,2.828,2.945V0H3.313V-5.578A1.941,1.941,0,0,0,2.9-6.934a1.823,1.823,0,0,0-1.391-.449A1.916,1.916,0,0,0,.172-6.9,1.949,1.949,0,0,0-.445-5.609V0H-1.9V-5.539A1.613,1.613,0,0,0-3.7-7.383,1.934,1.934,0,0,0-5.648-6.172V0H-7.094V-8.453Zm19.82,4.32A5.026,5.026,0,0,1,13.2-1.02,2.846,2.846,0,0,1,10.813.156,2.947,2.947,0,0,1,8.336-.977L8.266,0H6.938V-12H8.383v4.477A2.93,2.93,0,0,1,10.8-8.609a2.863,2.863,0,0,1,2.418,1.164,5.177,5.177,0,0,1,.879,3.188ZM12.648-4.3a3.906,3.906,0,0,0-.57-2.281,1.888,1.888,0,0,0-1.641-.8A2.122,2.122,0,0,0,8.383-6.055V-2.4a2.181,2.181,0,0,0,2.07,1.328,1.878,1.878,0,0,0,1.617-.8A4.153,4.153,0,0,0,12.648-4.3ZM20-7.156a4.331,4.331,0,0,0-.711-.055A1.9,1.9,0,0,0,17.359-6V0H15.914V-8.453H17.32l.023.977a2.251,2.251,0,0,1,2.016-1.133A1.477,1.477,0,0,1,20-8.5ZM24.836.156a3.693,3.693,0,0,1-2.8-1.129,4.19,4.19,0,0,1-1.078-3.02v-.266a5.073,5.073,0,0,1,.48-2.246,3.748,3.748,0,0,1,1.344-1.547,3.378,3.378,0,0,1,1.871-.559,3.166,3.166,0,0,1,2.563,1.086,4.7,4.7,0,0,1,.914,3.109v.6H22.406a3,3,0,0,0,.73,2.02,2.3,2.3,0,0,0,1.777.77,2.517,2.517,0,0,0,1.3-.312,3.259,3.259,0,0,0,.93-.828l.883.688A3.55,3.55,0,0,1,24.836.156Zm-.18-7.578a1.928,1.928,0,0,0-1.469.637A3.1,3.1,0,0,0,22.453-5h4.234v-.109a2.753,2.753,0,0,0-.594-1.707A1.815,1.815,0,0,0,24.656-7.422Z" transform="translate(414 3438)" fill="#12263f"/>
    <path id="Trazado_197349" data-name="Trazado 197349" d="M-45.039,0h-1.5V-11.375h1.5Zm2.164-4.3a4.952,4.952,0,0,1,.922-3.129,2.915,2.915,0,0,1,2.414-1.184,2.932,2.932,0,0,1,2.352,1.016V-12h1.445V0H-37.07l-.07-.906A2.943,2.943,0,0,1-39.555.156a2.887,2.887,0,0,1-2.395-1.2,5.008,5.008,0,0,1-.926-3.141Zm1.445.164a3.749,3.749,0,0,0,.594,2.25A1.92,1.92,0,0,0-39.2-1.07,2.108,2.108,0,0,0-37.187-2.3V-6.187a2.125,2.125,0,0,0-1.992-1.2,1.929,1.929,0,0,0-1.656.82A4.128,4.128,0,0,0-41.43-4.133ZM-29.992.156a3.693,3.693,0,0,1-2.8-1.129,4.19,4.19,0,0,1-1.078-3.02v-.266a5.073,5.073,0,0,1,.48-2.246,3.748,3.748,0,0,1,1.344-1.547,3.378,3.378,0,0,1,1.871-.559,3.166,3.166,0,0,1,2.563,1.086A4.7,4.7,0,0,1-26.7-4.414v.6h-5.727a3,3,0,0,0,.73,2.02,2.3,2.3,0,0,0,1.777.77,2.517,2.517,0,0,0,1.3-.312,3.259,3.259,0,0,0,.93-.828l.883.688A3.55,3.55,0,0,1-29.992.156Zm-.18-7.578a1.928,1.928,0,0,0-1.469.637A3.1,3.1,0,0,0-32.375-5h4.234v-.109a2.753,2.753,0,0,0-.594-1.707A1.815,1.815,0,0,0-30.172-7.422Zm6.516-1.031.047,1.063a3.08,3.08,0,0,1,2.531-1.219q2.68,0,2.7,3.023V0H-19.82V-5.594a1.946,1.946,0,0,0-.418-1.352,1.675,1.675,0,0,0-1.277-.437,2.086,2.086,0,0,0-1.234.375,2.546,2.546,0,0,0-.828.984V0h-1.445V-8.453Zm9.422-2.047v2.047h1.578v1.117h-1.578v5.249a1.173,1.173,0,0,0,.211.763.888.888,0,0,0,.719.254,3.5,3.5,0,0,0,.688-.094V0a4.215,4.215,0,0,1-1.109.155A1.8,1.8,0,0,1-15.187-.43a2.517,2.517,0,0,1-.492-1.664V-7.336h-1.539V-8.453h1.539V-10.5ZM-9.4,0h-1.445V-8.453H-9.4Zm-1.562-10.7a.863.863,0,0,1,.215-.594.807.807,0,0,1,.637-.242.819.819,0,0,1,.641.242.854.854,0,0,1,.219.594.826.826,0,0,1-.219.586.834.834,0,0,1-.641.234.821.821,0,0,1-.637-.234A.834.834,0,0,1-10.961-10.7ZM-6.6,0V-7.336H-7.937V-8.453H-6.6v-.719a2.937,2.937,0,0,1,.809-2.2,3.136,3.136,0,0,1,2.285-.789,6.881,6.881,0,0,1,2.211.477l-.242,1.219A5.008,5.008,0,0,0-3.4-10.859a1.819,1.819,0,0,0-1.34.418,1.723,1.723,0,0,0-.41,1.254v.734h1.727v1.117H-5.148V0ZM-.578,0H-2.031V-8.453H-.578ZM5.164-1.023a2.082,2.082,0,0,0,1.352-.469,1.649,1.649,0,0,0,.641-1.172H8.523a2.621,2.621,0,0,1-.5,1.383A3.293,3.293,0,0,1,6.793-.234,3.55,3.55,0,0,1,5.164.156,3.482,3.482,0,0,1,2.418-1,4.59,4.59,0,0,1,1.4-4.148v-.242a5.089,5.089,0,0,1,.453-2.2,3.451,3.451,0,0,1,1.3-1.492,3.7,3.7,0,0,1,2-.531,3.39,3.39,0,0,1,2.363.852,3.043,3.043,0,0,1,1,2.211H7.156a1.992,1.992,0,0,0-.621-1.348,1.932,1.932,0,0,0-1.379-.527,2.023,2.023,0,0,0-1.707.793,3.724,3.724,0,0,0-.605,2.293v.273a3.65,3.65,0,0,0,.6,2.25A2.033,2.033,0,0,0,5.164-1.023ZM15.367,0a3.036,3.036,0,0,1-.2-.891A3.225,3.225,0,0,1,12.758.156a2.984,2.984,0,0,1-2.051-.707,2.287,2.287,0,0,1-.8-1.793,2.39,2.39,0,0,1,1-2.051,4.733,4.733,0,0,1,2.824-.73h1.406v-.664A1.623,1.623,0,0,0,14.688-7a1.821,1.821,0,0,0-1.336-.449,2.107,2.107,0,0,0-1.3.391,1.151,1.151,0,0,0-.523.945H10.078a2,2,0,0,1,.449-1.223,3.066,3.066,0,0,1,1.219-.934,4.1,4.1,0,0,1,1.691-.344,3.342,3.342,0,0,1,2.289.73,2.635,2.635,0,0,1,.859,2.012v3.891a4.757,4.757,0,0,0,.3,1.852V0Zm-2.4-1.1a2.54,2.54,0,0,0,1.289-.352,2.127,2.127,0,0,0,.883-.914V-4.1H14.008q-2.656,0-2.656,1.555A1.316,1.316,0,0,0,11.8-1.484,1.742,1.742,0,0,0,12.969-1.1Zm9.273.078a2.082,2.082,0,0,0,1.352-.469,1.649,1.649,0,0,0,.641-1.172H25.6a2.621,2.621,0,0,1-.5,1.383,3.293,3.293,0,0,1-1.23,1.047,3.55,3.55,0,0,1-1.629.391A3.482,3.482,0,0,1,19.5-1a4.59,4.59,0,0,1-1.02-3.152v-.242a5.089,5.089,0,0,1,.453-2.2,3.451,3.451,0,0,1,1.3-1.492,3.7,3.7,0,0,1,2-.531,3.39,3.39,0,0,1,2.363.852,3.043,3.043,0,0,1,1,2.211H24.234a1.992,1.992,0,0,0-.621-1.348,1.932,1.932,0,0,0-1.379-.527,2.023,2.023,0,0,0-1.707.793,3.724,3.724,0,0,0-.605,2.293v.273a3.65,3.65,0,0,0,.6,2.25A2.033,2.033,0,0,0,22.242-1.023ZM28.8,0H27.352V-8.453H28.8ZM27.234-10.7a.863.863,0,0,1,.215-.594.807.807,0,0,1,.637-.242.819.819,0,0,1,.641.242.854.854,0,0,1,.219.594.826.826,0,0,1-.219.586.834.834,0,0,1-.641.234.821.821,0,0,1-.637-.234A.834.834,0,0,1,27.234-10.7ZM30.727-4.3a4.993,4.993,0,0,1,.488-2.234A3.643,3.643,0,0,1,32.574-8.07a3.7,3.7,0,0,1,1.988-.539,3.565,3.565,0,0,1,2.793,1.2,4.6,4.6,0,0,1,1.066,3.18v.1a5.036,5.036,0,0,1-.473,2.215A3.589,3.589,0,0,1,36.6-.391a3.743,3.743,0,0,1-2.02.547,3.556,3.556,0,0,1-2.785-1.2A4.575,4.575,0,0,1,30.727-4.2Zm1.453.172a3.616,3.616,0,0,0,.652,2.258,2.088,2.088,0,0,0,1.746.852,2.075,2.075,0,0,0,1.75-.863A3.955,3.955,0,0,0,36.977-4.3a3.61,3.61,0,0,0-.66-2.254,2.1,2.1,0,0,0-1.754-.863,2.075,2.075,0,0,0-1.727.852A3.925,3.925,0,0,0,32.18-4.133ZM35.219-12h1.75L34.875-9.7l-1.164,0ZM41.6-8.453l.047,1.063A3.08,3.08,0,0,1,44.18-8.609q2.68,0,2.7,3.023V0H45.438V-5.594a1.946,1.946,0,0,0-.418-1.352,1.675,1.675,0,0,0-1.277-.437,2.086,2.086,0,0,0-1.234.375,2.546,2.546,0,0,0-.828.984V0H40.234V-8.453Z" transform="translate(896 3438)" fill="#12263f"/>
    <path id="Trazado_197350" data-name="Trazado 197350" d="M-31.477-4.453V0h-1.5V-11.375h4.2a4.215,4.215,0,0,1,2.926.953A3.231,3.231,0,0,1-24.8-7.9a3.189,3.189,0,0,1-1.035,2.551,4.4,4.4,0,0,1-2.965.895Zm0-1.227h2.7a2.7,2.7,0,0,0,1.844-.567,2.075,2.075,0,0,0,.641-1.64,2.143,2.143,0,0,0-.641-1.628,2.525,2.525,0,0,0-1.758-.634h-2.781Zm12.453-1.477a4.331,4.331,0,0,0-.711-.055A1.9,1.9,0,0,0-21.664-6V0h-1.445V-8.453H-21.7l.023.977a2.251,2.251,0,0,1,2.016-1.133,1.477,1.477,0,0,1,.641.109Zm.789,2.852a4.993,4.993,0,0,1,.488-2.234A3.643,3.643,0,0,1-16.387-8.07,3.7,3.7,0,0,1-14.4-8.609a3.565,3.565,0,0,1,2.793,1.2,4.6,4.6,0,0,1,1.066,3.18v.1a5.036,5.036,0,0,1-.473,2.215A3.589,3.589,0,0,1-12.363-.391a3.743,3.743,0,0,1-2.02.547,3.556,3.556,0,0,1-2.785-1.2A4.575,4.575,0,0,1-18.234-4.2Zm1.453.172a3.616,3.616,0,0,0,.652,2.258,2.088,2.088,0,0,0,1.746.852,2.075,2.075,0,0,0,1.75-.863A3.955,3.955,0,0,0-11.984-4.3a3.61,3.61,0,0,0-.66-2.254A2.1,2.1,0,0,0-14.4-7.422a2.075,2.075,0,0,0-1.727.852A3.925,3.925,0,0,0-16.781-4.133ZM-8.016,0V-7.336H-9.352V-8.453h1.336V-9.32a2.878,2.878,0,0,1,.727-2.1,2.745,2.745,0,0,1,2.055-.742,3.816,3.816,0,0,1,.992.132l-.078,1.165a4.151,4.151,0,0,0-.781-.07,1.41,1.41,0,0,0-1.086.411,1.669,1.669,0,0,0-.383,1.18v.893h1.8v1.117h-1.8V0ZM.336.156a3.693,3.693,0,0,1-2.8-1.129,4.19,4.19,0,0,1-1.078-3.02v-.266A5.073,5.073,0,0,1-3.059-6.5,3.748,3.748,0,0,1-1.715-8.051,3.378,3.378,0,0,1,.156-8.609,3.166,3.166,0,0,1,2.719-7.523a4.7,4.7,0,0,1,.914,3.109v.6H-2.094a3,3,0,0,0,.73,2.02,2.3,2.3,0,0,0,1.777.77,2.517,2.517,0,0,0,1.3-.312,3.259,3.259,0,0,0,.93-.828l.883.688A3.55,3.55,0,0,1,.336.156ZM.156-7.422a1.928,1.928,0,0,0-1.469.637A3.1,3.1,0,0,0-2.047-5H2.188v-.109a2.753,2.753,0,0,0-.594-1.707A1.815,1.815,0,0,0,.156-7.422Zm10.07,5.18a1.064,1.064,0,0,0-.441-.91,4.249,4.249,0,0,0-1.539-.559A7.277,7.277,0,0,1,6.5-4.273a2.479,2.479,0,0,1-.953-.781,1.869,1.869,0,0,1-.309-1.078,2.193,2.193,0,0,1,.879-1.758,3.432,3.432,0,0,1,2.246-.719,3.532,3.532,0,0,1,2.332.742,2.357,2.357,0,0,1,.895,1.9H10.141a1.3,1.3,0,0,0-.5-1.023,1.888,1.888,0,0,0-1.27-.43,1.976,1.976,0,0,0-1.234.344,1.082,1.082,0,0,0-.445.9.877.877,0,0,0,.414.789,5.1,5.1,0,0,0,1.5.508,7.8,7.8,0,0,1,1.754.578,2.558,2.558,0,0,1,1,.809,1.988,1.988,0,0,1,.324,1.152,2.163,2.163,0,0,1-.906,1.816A3.8,3.8,0,0,1,8.414.156,4.257,4.257,0,0,1,6.617-.2a2.922,2.922,0,0,1-1.223-1A2.42,2.42,0,0,1,4.953-2.6H6.4A1.5,1.5,0,0,0,6.98-1.449a2.258,2.258,0,0,0,1.434.426A2.331,2.331,0,0,0,9.73-1.355,1.02,1.02,0,0,0,10.227-2.242ZM15.125,0H13.68V-8.453h1.445ZM13.563-10.7a.863.863,0,0,1,.215-.594.807.807,0,0,1,.637-.242.819.819,0,0,1,.641.242.854.854,0,0,1,.219.594.826.826,0,0,1-.219.586.834.834,0,0,1-.641.234.821.821,0,0,1-.637-.234A.834.834,0,0,1,13.563-10.7ZM17.055-4.3a4.993,4.993,0,0,1,.488-2.234A3.643,3.643,0,0,1,18.9-8.07a3.7,3.7,0,0,1,1.988-.539,3.565,3.565,0,0,1,2.793,1.2,4.6,4.6,0,0,1,1.066,3.18v.1a5.036,5.036,0,0,1-.473,2.215A3.589,3.589,0,0,1,22.926-.391a3.743,3.743,0,0,1-2.02.547,3.556,3.556,0,0,1-2.785-1.2A4.575,4.575,0,0,1,17.055-4.2Zm1.453.172a3.616,3.616,0,0,0,.652,2.258,2.088,2.088,0,0,0,1.746.852,2.075,2.075,0,0,0,1.75-.863A3.955,3.955,0,0,0,23.3-4.3a3.61,3.61,0,0,0-.66-2.254,2.1,2.1,0,0,0-1.754-.863,2.075,2.075,0,0,0-1.727.852A3.925,3.925,0,0,0,18.508-4.133ZM21.547-12H23.3L21.2-9.7l-1.164,0ZM27.93-8.453l.047,1.063a3.08,3.08,0,0,1,2.531-1.219q2.68,0,2.7,3.023V0H31.766V-5.594a1.946,1.946,0,0,0-.418-1.352,1.675,1.675,0,0,0-1.277-.437,2.086,2.086,0,0,0-1.234.375,2.546,2.546,0,0,0-.828.984V0H26.563V-8.453Z" transform="translate(558 3475)" fill="#12263f"/>
    <path id="Trazado_197351" data-name="Trazado 197351" d="M-14.012-5.023h-4.773V0h-1.5V-11.375h7.047v1.227h-5.547v3.9h4.773ZM-8.16.156a3.693,3.693,0,0,1-2.8-1.129,4.19,4.19,0,0,1-1.078-3.02v-.266a5.073,5.073,0,0,1,.48-2.246,3.748,3.748,0,0,1,1.344-1.547A3.378,3.378,0,0,1-8.34-8.609,3.166,3.166,0,0,1-5.777-7.523a4.7,4.7,0,0,1,.914,3.109v.6H-10.59a3,3,0,0,0,.73,2.02,2.3,2.3,0,0,0,1.777.77,2.517,2.517,0,0,0,1.3-.312,3.259,3.259,0,0,0,.93-.828l.883.688A3.55,3.55,0,0,1-8.16.156Zm-.18-7.578a1.928,1.928,0,0,0-1.469.637A3.1,3.1,0,0,0-10.543-5h4.234v-.109A2.753,2.753,0,0,0-6.9-6.816,1.815,1.815,0,0,0-8.34-7.422ZM.2-1.023a2.082,2.082,0,0,0,1.352-.469,1.649,1.649,0,0,0,.641-1.172H3.559a2.621,2.621,0,0,1-.5,1.383A3.293,3.293,0,0,1,1.828-.234,3.55,3.55,0,0,1,.2.156,3.482,3.482,0,0,1-2.547-1a4.59,4.59,0,0,1-1.02-3.152v-.242a5.089,5.089,0,0,1,.453-2.2,3.451,3.451,0,0,1,1.3-1.492,3.7,3.7,0,0,1,2-.531,3.39,3.39,0,0,1,2.363.852,3.043,3.043,0,0,1,1,2.211H2.191A1.992,1.992,0,0,0,1.57-6.895,1.932,1.932,0,0,0,.191-7.422a2.023,2.023,0,0,0-1.707.793,3.724,3.724,0,0,0-.605,2.293v.273a3.65,3.65,0,0,0,.6,2.25A2.033,2.033,0,0,0,.2-1.023ZM6.629-7.43a3.073,3.073,0,0,1,2.5-1.18q2.68,0,2.7,3.023V0H10.387V-5.594a1.946,1.946,0,0,0-.418-1.352,1.675,1.675,0,0,0-1.277-.437,2.086,2.086,0,0,0-1.234.375,2.546,2.546,0,0,0-.828.984V0H5.184V-12H6.629ZM19.215,0a3.036,3.036,0,0,1-.2-.891A3.225,3.225,0,0,1,16.605.156a2.984,2.984,0,0,1-2.051-.707,2.287,2.287,0,0,1-.8-1.793,2.39,2.39,0,0,1,1-2.051,4.733,4.733,0,0,1,2.824-.73h1.406v-.664A1.623,1.623,0,0,0,18.535-7,1.821,1.821,0,0,0,17.2-7.445a2.108,2.108,0,0,0-1.3.391,1.151,1.151,0,0,0-.523.945H13.926a2,2,0,0,1,.449-1.223,3.066,3.066,0,0,1,1.219-.934,4.1,4.1,0,0,1,1.691-.344,3.342,3.342,0,0,1,2.289.73,2.635,2.635,0,0,1,.859,2.012v3.891a4.757,4.757,0,0,0,.3,1.852V0Zm-2.4-1.1a2.54,2.54,0,0,0,1.289-.352,2.127,2.127,0,0,0,.883-.914V-4.1H17.855Q15.2-4.1,15.2-2.547a1.316,1.316,0,0,0,.453,1.063A1.742,1.742,0,0,0,16.816-1.1ZM-37.137,6.547l.047,1.063a3.08,3.08,0,0,1,2.531-1.219q2.68,0,2.7,3.023V15H-33.3V9.406a1.946,1.946,0,0,0-.418-1.352A1.675,1.675,0,0,0-35,7.617a2.086,2.086,0,0,0-1.234.375,2.546,2.546,0,0,0-.828.984V15H-38.5V6.547ZM-24.457,15a3.036,3.036,0,0,1-.2-.891,3.225,3.225,0,0,1-2.406,1.047,2.984,2.984,0,0,1-2.051-.707,2.287,2.287,0,0,1-.8-1.793,2.39,2.39,0,0,1,1-2.051,4.733,4.733,0,0,1,2.824-.73h1.406V9.211A1.623,1.623,0,0,0-25.137,8a1.821,1.821,0,0,0-1.336-.449,2.108,2.108,0,0,0-1.3.391,1.151,1.151,0,0,0-.523.945h-1.453A2,2,0,0,1-29.3,7.668a3.066,3.066,0,0,1,1.219-.934,4.1,4.1,0,0,1,1.691-.344,3.342,3.342,0,0,1,2.289.73,2.635,2.635,0,0,1,.859,2.012v3.891a4.757,4.757,0,0,0,.3,1.852V15Zm-2.4-1.1a2.54,2.54,0,0,0,1.289-.352,2.127,2.127,0,0,0,.883-.914V10.9h-1.133q-2.656,0-2.656,1.555a1.316,1.316,0,0,0,.453,1.063A1.742,1.742,0,0,0-26.855,13.9Zm9.273.078a2.082,2.082,0,0,0,1.352-.469,1.649,1.649,0,0,0,.641-1.172h1.367a2.621,2.621,0,0,1-.5,1.383,3.293,3.293,0,0,1-1.23,1.047,3.55,3.55,0,0,1-1.629.391A3.482,3.482,0,0,1-20.328,14a4.59,4.59,0,0,1-1.02-3.152v-.242a5.089,5.089,0,0,1,.453-2.2,3.451,3.451,0,0,1,1.3-1.492,3.7,3.7,0,0,1,2-.531,3.39,3.39,0,0,1,2.363.852,3.043,3.043,0,0,1,1,2.211H-15.59a1.992,1.992,0,0,0-.621-1.348,1.932,1.932,0,0,0-1.379-.527,2.023,2.023,0,0,0-1.707.793,3.724,3.724,0,0,0-.605,2.293v.273a3.65,3.65,0,0,0,.6,2.25A2.033,2.033,0,0,0-17.582,13.977ZM-11.027,15h-1.445V6.547h1.445ZM-12.59,4.3a.863.863,0,0,1,.215-.594.807.807,0,0,1,.637-.242.819.819,0,0,1,.641.242.854.854,0,0,1,.219.594.826.826,0,0,1-.219.586.834.834,0,0,1-.641.234.821.821,0,0,1-.637-.234A.834.834,0,0,1-12.59,4.3Zm5.234,2.242.039.938A3.122,3.122,0,0,1-4.809,6.391,2.417,2.417,0,0,1-2.395,7.75a3.2,3.2,0,0,1,1.1-.984A3.242,3.242,0,0,1,.3,6.391q2.781,0,2.828,2.945V15H1.684V9.422A1.941,1.941,0,0,0,1.27,8.066,1.823,1.823,0,0,0-.121,7.617a1.916,1.916,0,0,0-1.336.48,1.949,1.949,0,0,0-.617,1.293V15H-3.527V9.461a1.613,1.613,0,0,0-1.8-1.844A1.934,1.934,0,0,0-7.277,8.828V15H-8.723V6.547ZM6.879,15H5.434V6.547H6.879ZM5.316,4.3a.863.863,0,0,1,.215-.594.807.807,0,0,1,.637-.242.819.819,0,0,1,.641.242.854.854,0,0,1,.219.594.826.826,0,0,1-.219.586.834.834,0,0,1-.641.234.821.821,0,0,1-.637-.234A.834.834,0,0,1,5.316,4.3ZM12.7,15.156a3.693,3.693,0,0,1-2.8-1.129,4.19,4.19,0,0,1-1.078-3.02v-.266A5.073,5.073,0,0,1,9.3,8.5a3.748,3.748,0,0,1,1.344-1.547,3.378,3.378,0,0,1,1.871-.559,3.166,3.166,0,0,1,2.563,1.086A4.7,4.7,0,0,1,16,10.586v.6H10.27a3,3,0,0,0,.73,2.02,2.3,2.3,0,0,0,1.777.77,2.517,2.517,0,0,0,1.3-.312,3.259,3.259,0,0,0,.93-.828l.883.688A3.55,3.55,0,0,1,12.7,15.156Zm-.18-7.578a1.928,1.928,0,0,0-1.469.637A3.1,3.1,0,0,0,10.316,10h4.234V9.891a2.753,2.753,0,0,0-.594-1.707A1.815,1.815,0,0,0,12.52,7.578Zm6.516-1.031.047,1.063a3.08,3.08,0,0,1,2.531-1.219q2.68,0,2.7,3.023V15H22.871V9.406a1.946,1.946,0,0,0-.418-1.352,1.675,1.675,0,0,0-1.277-.437,2.086,2.086,0,0,0-1.234.375,2.546,2.546,0,0,0-.828.984V15H17.668V6.547ZM28.457,4.5V6.547h1.578V7.664H28.457v5.249a1.173,1.173,0,0,0,.211.763.888.888,0,0,0,.719.254,3.5,3.5,0,0,0,.688-.094V15a4.215,4.215,0,0,1-1.109.155A1.8,1.8,0,0,1,27.5,14.57a2.517,2.517,0,0,1-.492-1.664V7.664H25.473V6.547h1.539V4.5Zm2.727,6.2a4.993,4.993,0,0,1,.488-2.234A3.643,3.643,0,0,1,33.031,6.93a3.7,3.7,0,0,1,1.988-.539,3.565,3.565,0,0,1,2.793,1.2,4.6,4.6,0,0,1,1.066,3.18v.1a5.036,5.036,0,0,1-.473,2.215,3.589,3.589,0,0,1-1.352,1.527,3.743,3.743,0,0,1-2.02.547,3.556,3.556,0,0,1-2.785-1.2A4.575,4.575,0,0,1,31.184,10.8Zm1.453.172a3.616,3.616,0,0,0,.652,2.258,2.211,2.211,0,0,0,3.5-.012,3.955,3.955,0,0,0,.648-2.418,3.61,3.61,0,0,0-.66-2.254,2.1,2.1,0,0,0-1.754-.863,2.075,2.075,0,0,0-1.727.852A3.925,3.925,0,0,0,32.637,10.867Z" transform="translate(1039 3467)" fill="#12263f"/>
    <path id="Trazado_197352" data-name="Trazado 197352" d="M-33.27-5.258H-38.2v4.031h5.727V0H-39.7V-11.375h7.148v1.227H-38.2v3.664h4.93ZM-28-5.367l1.875-3.086h1.688L-27.2-4.273-24.348,0H-26.02l-1.953-3.164L-29.926,0h-1.68l2.852-4.273-2.766-4.18h1.672Zm12.234,1.234a5.062,5.062,0,0,1-.883,3.109A2.829,2.829,0,0,1-19.035.156,3.1,3.1,0,0,1-21.457-.82V3.25H-22.9v-11.7h1.32l.07.938a2.977,2.977,0,0,1,2.453-1.094,2.882,2.882,0,0,1,2.41,1.148,5.117,5.117,0,0,1,.887,3.2ZM-17.207-4.3a3.735,3.735,0,0,0-.609-2.258,1.963,1.963,0,0,0-1.672-.828,2.125,2.125,0,0,0-1.969,1.164V-2.18a2.129,2.129,0,0,0,1.984,1.156,1.954,1.954,0,0,0,1.652-.824A4.077,4.077,0,0,0-17.207-4.3ZM-10.418.156a3.693,3.693,0,0,1-2.8-1.129,4.19,4.19,0,0,1-1.078-3.02v-.266a5.073,5.073,0,0,1,.48-2.246,3.748,3.748,0,0,1,1.344-1.547A3.378,3.378,0,0,1-10.6-8.609,3.166,3.166,0,0,1-8.035-7.523a4.7,4.7,0,0,1,.914,3.109v.6h-5.727a3,3,0,0,0,.73,2.02,2.3,2.3,0,0,0,1.777.77,2.517,2.517,0,0,0,1.3-.312,3.259,3.259,0,0,0,.93-.828l.883.688A3.55,3.55,0,0,1-10.418.156Zm-.18-7.578a1.928,1.928,0,0,0-1.469.637A3.1,3.1,0,0,0-12.8-5h4.234v-.109A2.753,2.753,0,0,0-9.16-6.816,1.815,1.815,0,0,0-10.6-7.422Zm9.234.266a4.331,4.331,0,0,0-.711-.055A1.9,1.9,0,0,0-4-6V0H-5.449V-8.453h1.406l.023.977A2.251,2.251,0,0,1-2-8.609a1.477,1.477,0,0,1,.641.109ZM1.535,0H.09V-8.453H1.535ZM-.027-10.7a.863.863,0,0,1,.215-.594.807.807,0,0,1,.637-.242.819.819,0,0,1,.641.242.854.854,0,0,1,.219.594.826.826,0,0,1-.219.586.834.834,0,0,1-.641.234.821.821,0,0,1-.637-.234A.834.834,0,0,1-.027-10.7ZM7.355.156a3.693,3.693,0,0,1-2.8-1.129A4.19,4.19,0,0,1,3.48-3.992v-.266A5.073,5.073,0,0,1,3.961-6.5,3.748,3.748,0,0,1,5.3-8.051a3.378,3.378,0,0,1,1.871-.559A3.166,3.166,0,0,1,9.738-7.523a4.7,4.7,0,0,1,.914,3.109v.6H4.926a3,3,0,0,0,.73,2.02,2.3,2.3,0,0,0,1.777.77,2.517,2.517,0,0,0,1.3-.312,3.259,3.259,0,0,0,.93-.828l.883.688A3.55,3.55,0,0,1,7.355.156Zm-.18-7.578a1.928,1.928,0,0,0-1.469.637A3.1,3.1,0,0,0,4.973-5H9.207v-.109a2.753,2.753,0,0,0-.594-1.707A1.815,1.815,0,0,0,7.176-7.422Zm6.516-1.031.047,1.063A3.08,3.08,0,0,1,16.27-8.609q2.68,0,2.7,3.023V0H17.527V-5.594a1.946,1.946,0,0,0-.418-1.352,1.675,1.675,0,0,0-1.277-.437,2.086,2.086,0,0,0-1.234.375,2.546,2.546,0,0,0-.828.984V0H12.324V-8.453Zm10.852,7.43a2.082,2.082,0,0,0,1.352-.469,1.649,1.649,0,0,0,.641-1.172H27.9a2.621,2.621,0,0,1-.5,1.383,3.293,3.293,0,0,1-1.23,1.047,3.55,3.55,0,0,1-1.629.391A3.482,3.482,0,0,1,21.8-1a4.59,4.59,0,0,1-1.02-3.152v-.242a5.089,5.089,0,0,1,.453-2.2,3.451,3.451,0,0,1,1.3-1.492,3.7,3.7,0,0,1,2-.531,3.39,3.39,0,0,1,2.363.852,3.043,3.043,0,0,1,1,2.211H26.535a1.992,1.992,0,0,0-.621-1.348,1.932,1.932,0,0,0-1.379-.527,2.023,2.023,0,0,0-1.707.793,3.724,3.724,0,0,0-.605,2.293v.273a3.65,3.65,0,0,0,.6,2.25A2.033,2.033,0,0,0,24.543-1.023ZM31.1,0H29.652V-8.453H31.1ZM29.535-10.7a.863.863,0,0,1,.215-.594.807.807,0,0,1,.637-.242.819.819,0,0,1,.641.242.854.854,0,0,1,.219.594.826.826,0,0,1-.219.586.834.834,0,0,1-.641.234.821.821,0,0,1-.637-.234A.834.834,0,0,1,29.535-10.7ZM38.629,0a3.036,3.036,0,0,1-.2-.891A3.225,3.225,0,0,1,36.02.156a2.984,2.984,0,0,1-2.051-.707,2.287,2.287,0,0,1-.8-1.793,2.39,2.39,0,0,1,1-2.051A4.733,4.733,0,0,1,37-5.125H38.4v-.664A1.623,1.623,0,0,0,37.949-7a1.821,1.821,0,0,0-1.336-.449,2.107,2.107,0,0,0-1.3.391,1.151,1.151,0,0,0-.523.945H33.34a2,2,0,0,1,.449-1.223,3.066,3.066,0,0,1,1.219-.934A4.1,4.1,0,0,1,36.7-8.609a3.342,3.342,0,0,1,2.289.73,2.635,2.635,0,0,1,.859,2.012v3.891a4.757,4.757,0,0,0,.3,1.852V0Zm-2.4-1.1a2.54,2.54,0,0,0,1.289-.352,2.127,2.127,0,0,0,.883-.914V-4.1H37.27q-2.656,0-2.656,1.555a1.316,1.316,0,0,0,.453,1.063A1.742,1.742,0,0,0,36.23-1.1Z" transform="translate(710 3438)" fill="#12263f"/>
    <path id="Trazado_197353" data-name="Trazado 197353" d="M-15.812-1.492A3.465,3.465,0,0,1-17.426-.254a6.517,6.517,0,0,1-2.41.41A4.674,4.674,0,0,1-22.3-.5a4.346,4.346,0,0,1-1.668-1.855,6.408,6.408,0,0,1-.605-2.789v-.992a5.982,5.982,0,0,1,1.2-3.984,4.179,4.179,0,0,1,3.371-1.414,4.316,4.316,0,0,1,2.867.91,3.965,3.965,0,0,1,1.328,2.582h-1.5A2.48,2.48,0,0,0-20-10.3a2.655,2.655,0,0,0-2.285,1.06,5.173,5.173,0,0,0-.785,3.069v.93A4.848,4.848,0,0,0-22.2-2.2a2.836,2.836,0,0,0,2.367,1.13,5.228,5.228,0,0,0,1.477-.187A2.283,2.283,0,0,0-17.3-1.889V-4.437h-2.633V-5.664h4.125ZM-10.031.156a3.693,3.693,0,0,1-2.8-1.129,4.19,4.19,0,0,1-1.078-3.02v-.266a5.073,5.073,0,0,1,.48-2.246,3.748,3.748,0,0,1,1.344-1.547,3.378,3.378,0,0,1,1.871-.559A3.166,3.166,0,0,1-7.648-7.523a4.7,4.7,0,0,1,.914,3.109v.6h-5.727a3,3,0,0,0,.73,2.02,2.3,2.3,0,0,0,1.777.77,2.517,2.517,0,0,0,1.3-.312,3.259,3.259,0,0,0,.93-.828l.883.688A3.55,3.55,0,0,1-10.031.156Zm-.18-7.578a1.928,1.928,0,0,0-1.469.637A3.1,3.1,0,0,0-12.414-5H-8.18v-.109a2.753,2.753,0,0,0-.594-1.707A1.815,1.815,0,0,0-10.211-7.422Zm.7-4.578h1.75L-9.852-9.7l-1.164,0ZM-3.7-8.453l.047,1.063A3.08,3.08,0,0,1-1.117-8.609q2.68,0,2.7,3.023V0H.141V-5.594A1.946,1.946,0,0,0-.277-6.945a1.675,1.675,0,0,0-1.277-.437,2.086,2.086,0,0,0-1.234.375,2.546,2.546,0,0,0-.828.984V0H-5.062V-8.453ZM7.273.156a3.693,3.693,0,0,1-2.8-1.129A4.19,4.19,0,0,1,3.4-3.992v-.266A5.073,5.073,0,0,1,3.879-6.5,3.748,3.748,0,0,1,5.223-8.051a3.378,3.378,0,0,1,1.871-.559A3.166,3.166,0,0,1,9.656-7.523a4.7,4.7,0,0,1,.914,3.109v.6H4.844a3,3,0,0,0,.73,2.02,2.3,2.3,0,0,0,1.777.77,2.517,2.517,0,0,0,1.3-.312,3.259,3.259,0,0,0,.93-.828l.883.688A3.55,3.55,0,0,1,7.273.156Zm-.18-7.578a1.928,1.928,0,0,0-1.469.637A3.1,3.1,0,0,0,4.891-5H9.125v-.109a2.753,2.753,0,0,0-.594-1.707A1.815,1.815,0,0,0,7.094-7.422Zm9.234.266a4.331,4.331,0,0,0-.711-.055A1.9,1.9,0,0,0,13.688-6V0H12.242V-8.453h1.406l.023.977a2.251,2.251,0,0,1,2.016-1.133,1.477,1.477,0,0,1,.641.109ZM17.117-4.3a4.993,4.993,0,0,1,.488-2.234A3.643,3.643,0,0,1,18.965-8.07a3.7,3.7,0,0,1,1.988-.539,3.565,3.565,0,0,1,2.793,1.2,4.6,4.6,0,0,1,1.066,3.18v.1a5.036,5.036,0,0,1-.473,2.215A3.589,3.589,0,0,1,22.988-.391a3.743,3.743,0,0,1-2.02.547,3.556,3.556,0,0,1-2.785-1.2A4.575,4.575,0,0,1,17.117-4.2Zm1.453.172a3.616,3.616,0,0,0,.652,2.258,2.088,2.088,0,0,0,1.746.852,2.075,2.075,0,0,0,1.75-.863A3.955,3.955,0,0,0,23.367-4.3a3.61,3.61,0,0,0-.66-2.254,2.1,2.1,0,0,0-1.754-.863,2.075,2.075,0,0,0-1.727.852A3.925,3.925,0,0,0,18.57-4.133Z" transform="translate(1188 3438)" fill="#12263f"/>
    <path id="Trazado_197354" data-name="Trazado 197354" d="M-16.56-3.835A4.447,4.447,0,0,1-17.975-.876,4.638,4.638,0,0,1-21.142.166,4.259,4.259,0,0,1-24.574-1.37a6.178,6.178,0,0,1-1.291-4.109V-6.641a6.886,6.886,0,0,1,.6-2.963,4.5,4.5,0,0,1,1.706-1.963A4.75,4.75,0,0,1-21-12.252a4.367,4.367,0,0,1,3.088,1.075A4.5,4.5,0,0,1-16.56-8.2h-1.6a3.472,3.472,0,0,0-.9-2.1A2.725,2.725,0,0,0-21-10.949,2.851,2.851,0,0,0-23.4-9.819,5.187,5.187,0,0,0-24.263-6.6v1.171A5.332,5.332,0,0,0-23.441-2.3a2.655,2.655,0,0,0,2.3,1.163,3.067,3.067,0,0,0,2.038-.6,3.34,3.34,0,0,0,.942-2.1Zm1.527-.739a5.3,5.3,0,0,1,.519-2.374A3.87,3.87,0,0,1-13.07-8.575a3.932,3.932,0,0,1,2.113-.573A3.788,3.788,0,0,1-7.99-7.877,4.886,4.886,0,0,1-6.856-4.5v.108a5.351,5.351,0,0,1-.5,2.353A3.813,3.813,0,0,1-8.795-.415,3.977,3.977,0,0,1-10.94.166,3.778,3.778,0,0,1-13.9-1.1a4.861,4.861,0,0,1-1.133-3.362Zm1.544.183a3.842,3.842,0,0,0,.693,2.4,2.218,2.218,0,0,0,1.855.9A2.2,2.2,0,0,0-9.081-2a4.2,4.2,0,0,0,.689-2.569,3.836,3.836,0,0,0-.7-2.395,2.23,2.23,0,0,0-1.864-.917,2.205,2.205,0,0,0-1.834.9A4.17,4.17,0,0,0-13.489-4.391Zm3.229-8.359H-8.4l-2.225,2.44-1.237,0ZM-5.3-4.565A5.261,5.261,0,0,1-4.325-7.89,3.1,3.1,0,0,1-1.76-9.147a3.115,3.115,0,0,1,2.5,1.079V-12.75H2.274V0H.863L.789-.963A3.127,3.127,0,0,1-1.776.166,3.068,3.068,0,0,1-4.321-1.112,5.321,5.321,0,0,1-5.3-4.449Zm1.536.174A3.984,3.984,0,0,0-3.138-2a2.039,2.039,0,0,0,1.743.863A2.24,2.24,0,0,0,.739-2.449V-6.574a2.257,2.257,0,0,0-2.117-1.27,2.049,2.049,0,0,0-1.76.872A4.386,4.386,0,0,0-3.769-4.391ZM6.325,0H4.79V-8.981H6.325ZM4.665-11.364a.917.917,0,0,1,.228-.631.857.857,0,0,1,.677-.257.87.87,0,0,1,.681.257.907.907,0,0,1,.232.631.877.877,0,0,1-.232.623.886.886,0,0,1-.681.249.872.872,0,0,1-.677-.249A.886.886,0,0,1,4.665-11.364Zm3.752,6.8a5.279,5.279,0,0,1,.971-3.341,3.106,3.106,0,0,1,2.573-1.241,3.09,3.09,0,0,1,2.565,1.162l.075-1H16V-.216A3.654,3.654,0,0,1,14.97,2.532a3.814,3.814,0,0,1-2.777,1,4.619,4.619,0,0,1-1.9-.415A3.272,3.272,0,0,1,8.874,1.984l.8-.921a3,3,0,0,0,2.416,1.22,2.353,2.353,0,0,0,1.747-.631A2.411,2.411,0,0,0,14.46-.125V-.9A3.156,3.156,0,0,1,11.945.166,3.068,3.068,0,0,1,9.392-1.1,5.55,5.55,0,0,1,8.417-4.565Zm1.544.174A4.027,4.027,0,0,0,10.583-2a2.023,2.023,0,0,0,1.743.867,2.249,2.249,0,0,0,2.133-1.32v-4.1a2.276,2.276,0,0,0-2.117-1.287,2.041,2.041,0,0,0-1.751.872A4.386,4.386,0,0,0,9.961-4.391Zm7.952-.183a5.3,5.3,0,0,1,.519-2.374,3.87,3.87,0,0,1,1.444-1.627,3.932,3.932,0,0,1,2.113-.573,3.788,3.788,0,0,1,2.968,1.27A4.886,4.886,0,0,1,26.089-4.5v.108a5.351,5.351,0,0,1-.5,2.353A3.813,3.813,0,0,1,24.151-.415a3.977,3.977,0,0,1-2.146.581A3.778,3.778,0,0,1,19.046-1.1a4.861,4.861,0,0,1-1.133-3.362Zm1.544.183a3.842,3.842,0,0,0,.693,2.4,2.218,2.218,0,0,0,1.855.9A2.2,2.2,0,0,0,23.865-2a4.2,4.2,0,0,0,.689-2.569,3.836,3.836,0,0,0-.7-2.395,2.23,2.23,0,0,0-1.864-.917,2.205,2.205,0,0,0-1.834.9A4.17,4.17,0,0,0,19.457-4.391Z" transform="translate(787 3048)" fill="#12263f"/>
    <path id="Trazado_197355" data-name="Trazado 197355" d="M-18.882-3.384A3.923,3.923,0,0,1-20.131-.773a4.093,4.093,0,0,1-2.794.919,3.758,3.758,0,0,1-3.029-1.355,5.451,5.451,0,0,1-1.139-3.625V-5.859a6.076,6.076,0,0,1,.531-2.615,3.966,3.966,0,0,1,1.505-1.732,4.191,4.191,0,0,1,2.256-.6,3.853,3.853,0,0,1,2.725.948,3.971,3.971,0,0,1,1.194,2.626H-20.3a3.064,3.064,0,0,0-.795-1.851,2.4,2.4,0,0,0-1.71-.573,2.516,2.516,0,0,0-2.113,1,4.577,4.577,0,0,0-.765,2.837v1.034a4.7,4.7,0,0,0,.725,2.764A2.343,2.343,0,0,0-22.925-1a2.706,2.706,0,0,0,1.8-.531A2.947,2.947,0,0,0-20.3-3.384Zm5.537-3.325a4.061,4.061,0,0,0-.667-.051A1.786,1.786,0,0,0-15.82-5.625V0h-1.355V-7.925h1.318l.022.916a2.11,2.11,0,0,1,1.89-1.062,1.384,1.384,0,0,1,.6.1ZM-8.811.146A3.463,3.463,0,0,1-11.433-.912a3.928,3.928,0,0,1-1.011-2.831v-.249a4.756,4.756,0,0,1,.45-2.106,3.514,3.514,0,0,1,1.26-1.45,3.167,3.167,0,0,1,1.754-.524,2.968,2.968,0,0,1,2.4,1.018A4.408,4.408,0,0,1-5.72-4.138v.564h-5.369A2.817,2.817,0,0,0-10.4-1.681a2.153,2.153,0,0,0,1.666.721,2.36,2.36,0,0,0,1.216-.293,3.055,3.055,0,0,0,.872-.776l.828.645A3.328,3.328,0,0,1-8.811.146Zm-.168-7.1a1.807,1.807,0,0,0-1.377.6,2.9,2.9,0,0,0-.688,1.674h3.97v-.1a2.581,2.581,0,0,0-.557-1.6A1.7,1.7,0,0,0-8.979-6.958Zm.659-4.292H-6.68L-8.643-9.1l-1.091,0Zm3.838,7.222a4.642,4.642,0,0,1,.864-2.933,2.733,2.733,0,0,1,2.263-1.11,2.748,2.748,0,0,1,2.2.952V-11.25H2.2V0H.959L.894-.85a2.759,2.759,0,0,1-2.263,1A2.707,2.707,0,0,1-3.615-.981a4.7,4.7,0,0,1-.868-2.944Zm1.355.154a3.515,3.515,0,0,0,.557,2.109A1.8,1.8,0,0,0-1.033-1,1.977,1.977,0,0,0,.85-2.161V-5.8A1.992,1.992,0,0,0-1.018-6.921a1.808,1.808,0,0,0-1.553.769A3.87,3.87,0,0,0-3.127-3.875ZM5.779,0H4.424V-7.925H5.779ZM4.314-10.027a.809.809,0,0,1,.2-.557.756.756,0,0,1,.6-.227.768.768,0,0,1,.6.227.8.8,0,0,1,.205.557.774.774,0,0,1-.205.549.782.782,0,0,1-.6.22.77.77,0,0,1-.6-.22A.782.782,0,0,1,4.314-10.027Zm5.471.183v1.919h1.479v1.047H9.785v4.921a1.1,1.1,0,0,0,.2.715A.832.832,0,0,0,10.657-1a3.281,3.281,0,0,0,.645-.088V0a3.951,3.951,0,0,1-1.04.146A1.687,1.687,0,0,1,8.892-.4a2.36,2.36,0,0,1-.461-1.56V-6.877H6.987V-7.925H8.43V-9.844Zm2.556,5.808A4.681,4.681,0,0,1,12.8-6.13a3.415,3.415,0,0,1,1.274-1.436,3.469,3.469,0,0,1,1.864-.505,3.342,3.342,0,0,1,2.618,1.121,4.311,4.311,0,0,1,1,2.981v.1A4.722,4.722,0,0,1,19.113-1.8,3.365,3.365,0,0,1,17.845-.366a3.509,3.509,0,0,1-1.893.513A3.334,3.334,0,0,1,13.341-.974a4.29,4.29,0,0,1-1-2.966Zm1.362.161a3.39,3.39,0,0,0,.612,2.117,1.957,1.957,0,0,0,1.637.8,1.945,1.945,0,0,0,1.641-.809A3.707,3.707,0,0,0,18.2-4.036a3.384,3.384,0,0,0-.619-2.113,1.968,1.968,0,0,0-1.644-.809,1.946,1.946,0,0,0-1.619.8A3.68,3.68,0,0,0,13.7-3.875ZM25.869-2.1a1,1,0,0,0-.414-.853,3.983,3.983,0,0,0-1.443-.524,6.822,6.822,0,0,1-1.633-.527,2.324,2.324,0,0,1-.894-.732A1.752,1.752,0,0,1,21.2-5.75,2.056,2.056,0,0,1,22.02-7.4a3.218,3.218,0,0,1,2.106-.674,3.311,3.311,0,0,1,2.186.7,2.21,2.21,0,0,1,.839,1.78H25.789a1.223,1.223,0,0,0-.472-.959,1.77,1.77,0,0,0-1.19-.4,1.852,1.852,0,0,0-1.157.322,1.014,1.014,0,0,0-.417.842.822.822,0,0,0,.388.74,4.776,4.776,0,0,0,1.4.476,7.308,7.308,0,0,1,1.644.542,2.4,2.4,0,0,1,.934.758,1.864,1.864,0,0,1,.3,1.08,2.028,2.028,0,0,1-.85,1.7,3.564,3.564,0,0,1-2.2.641A3.991,3.991,0,0,1,22.485-.19a2.74,2.74,0,0,1-1.146-.941,2.268,2.268,0,0,1-.414-1.307H22.28a1.4,1.4,0,0,0,.546,1.08,2.117,2.117,0,0,0,1.344.4A2.185,2.185,0,0,0,25.4-1.271.956.956,0,0,0,25.869-2.1Z" transform="translate(960 3102)" fill="#12263f"/>
  </g>
</svg>
