<svg xmlns="http://www.w3.org/2000/svg" xmlns:xlink="http://www.w3.org/1999/xlink" width="351" height="268.011" viewBox="0 0 351 268.011">
  <defs>
    <clipPath id="clip-path">
      <path id="Trazado_191683" data-name="Trazado 191683" d="M-19.967,2823.937l-33.618,4.594,29.242,37.555,41.021-10.61Z" transform="translate(53.585 -2823.937)" fill="none" clip-rule="evenodd"/>
    </clipPath>
    <linearGradient id="linear-gradient" x1="0.5" y1="1.193" x2="0.5" y2="0.125" gradientUnits="objectBoundingBox">
      <stop offset="0" stop-color="#b0d8ff"/>
      <stop offset="0.054" stop-color="#b5dafe"/>
      <stop offset="0.467" stop-color="#dcedfe"/>
      <stop offset="0.797" stop-color="#f5f9fe"/>
      <stop offset="1" stop-color="#fefefe"/>
    </linearGradient>
    <clipPath id="clip-path-2">
      <path id="Trazado_191692" data-name="Trazado 191692" d="M63.724,2877.968s5.469,3.354,6.344,5.834-2.553,3.792-3.718,3.938-26.691,6.709-27.493,6.928-4.653-.956-5.681-3.977,1.451-15.494,5.972-16.953,24.576,4.229,24.576,4.229" transform="translate(-32.946 -2873.5)" fill="none" clip-rule="evenodd"/>
    </clipPath>
    <linearGradient id="linear-gradient-2" x1="0.5" y1="0.99" x2="0.5" y2="0.158" gradientUnits="objectBoundingBox">
      <stop offset="0" stop-color="#1e9ef9"/>
      <stop offset="1" stop-color="#bae5ff"/>
    </linearGradient>
    <clipPath id="clip-path-3">
      <path id="Trazado_191699" data-name="Trazado 191699" d="M33.777,2827.784c-3.6,2.522-32.422,5.166-32.582,8.363-.072,1.458,23.92,15.752,26.18,17.137a12.854,12.854,0,0,0,10.063,1.167c3.573-1.24,26.535-9.939,27.889-11.861s-1.417-6.37-1.417-6.37l-19.981-8.751Z" transform="translate(-1.195 -2827.468)" fill="none" clip-rule="evenodd"/>
    </clipPath>
    <linearGradient id="linear-gradient-3" x1="0.487" y1="0.857" x2="0.524" y2="-0.156" xlink:href="#linear-gradient"/>
    <clipPath id="clip-path-4">
      <path id="Trazado_191700" data-name="Trazado 191700" d="M89.293,2827.282l-3.621,16.79s-.474,4.192-3.208,5.1a6.009,6.009,0,0,1-5.1-.876l-99.615-46.745s-1.168-.437-.948-2.26c.051-.427,1.111-5.339,2.706-12.609Z" transform="translate(23.23 -2786.686)" fill="none" clip-rule="evenodd"/>
    </clipPath>
    <linearGradient id="linear-gradient-4" x1="0.468" y1="0.924" x2="0.528" y2="0.137" xlink:href="#linear-gradient"/>
    <clipPath id="clip-path-5">
      <path id="Trazado_191701" data-name="Trazado 191701" d="M105.7,2708.461,82.654,2815.222l-99.469-33.544,15.314-66.07Z" transform="translate(16.815 -2708.461)" fill="none" clip-rule="evenodd"/>
    </clipPath>
    <linearGradient id="linear-gradient-5" x1="0.467" y1="0.85" x2="0.542" y2="0.046" gradientUnits="objectBoundingBox">
      <stop offset="0" stop-color="#243c82"/>
      <stop offset="1" stop-color="#1bc3f2"/>
    </linearGradient>
  </defs>
  <g id="Grupo_134161" data-name="Grupo 134161" transform="translate(234.475 -2631.125)">
    <path id="Trazado_191673" data-name="Trazado 191673" d="M78.949,2799.123C58.344,2789.163,29.867,2783-1.592,2783s-59.935,6.159-80.541,16.119c-20.544,9.927-33.251,23.622-33.251,38.729s12.707,28.8,33.251,38.728c20.606,9.959,49.081,16.118,80.541,16.118s59.935-6.158,80.541-16.118c20.543-9.928,33.25-23.624,33.25-38.728s-12.707-28.8-33.25-38.729m-80.541-16.7c31.549,0,60.118,6.183,80.8,16.18,20.748,10.026,33.582,23.9,33.582,39.246s-12.834,29.219-33.582,39.245c-20.685,10-49.254,16.179-80.8,16.179s-60.119-6.182-80.8-16.179c-20.748-10.026-33.581-23.9-33.581-39.245s12.833-29.22,33.581-39.246C-61.71,2788.609-33.141,2782.426-1.592,2782.426Z" transform="translate(0.264 0.337)" fill="#fff"/>
    <path id="Trazado_191674" data-name="Trazado 191674" d="M4.573,2803.259c45.409,0,82.221,17.792,82.221,39.736s-36.812,39.738-82.221,39.738S-77.648,2864.941-77.648,2843s36.812-39.736,82.221-39.736" transform="translate(0.35 0.384)" fill="#1798b5" fill-rule="evenodd"/>
    <path id="Trazado_191675" data-name="Trazado 191675" d="M-90.234,2671.493a40.8,40.8,0,0,1,.145,9.48c-.437,5.251-.73,9.043-.437,10.5s-1.933,4.412-2.517,5.469a4.265,4.265,0,0,0-.292,2.515l4.266,12.653a2.158,2.158,0,0,1-1.422,2.224,14.2,14.2,0,0,1-3.282.693c-.327-.037-2.441.036-2.441.036s.838,5.251.51,5.8-1.859.8-3.026,1.385a2.53,2.53,0,0,0-1.386,1.458c2.749,5.314-.123,13.358-7.528,16.344-1.813.732-13.277-2.615-16.465-3.144,0,0-13.272,11.375-14.072,13.49a5.741,5.741,0,0,0-.219,3.72s4.229,9.188,3.938,11.522-4.958,3.354-4.958,3.354l-22.826-21.44-17.575-21.586s10.062-1.823,12.907-6.927,4.741-10.21,4.449-22.023,1.6-31.649,15.459-40.109c18.1-11.053,52.9-12.652,56.771,14.584" transform="translate(0.122 0.041)" fill="#eac7b0" fill-rule="evenodd"/>
    <path id="Trazado_191676" data-name="Trazado 191676" d="M-90.378,2671.472a22.546,22.546,0,0,1,.306,3.448c-6.462-.619-8.538-5.152-13.2-9.179-6.481-5.6-11.763.48-11.763.48l.079-2.081s8.643-5.121,9.6-5.2c.679-.056,7.7,2,12.026,3.387a26.563,26.563,0,0,1,2.948,9.146" transform="translate(0.266 0.062)" fill="#d8b29e" fill-rule="evenodd"/>
    <path id="Trazado_191677" data-name="Trazado 191677" d="M-123.281,2737.32l-.826-.475s-13.272,11.375-14.072,13.49a5.733,5.733,0,0,0-.219,3.72s4.229,9.188,3.938,11.523-4.958,3.354-4.958,3.354l-22.826-21.44-17.575-21.586s10.062-1.823,12.907-6.927,4.741-10.21,4.449-22.023c-.045-1.813-.037-3.815.056-5.936l17.018-13.288s-1.472,7.6.5,12.486c.782,1.94,7.2,14.189,10.865,10.427,1.422-1.458,1.751-1.786,1.2-3.536s1.859,1.677,1.385,3.318-1.542,5.531-1.906,5.9,10.256,28.378,10.256,28.378Z" transform="translate(0.122 0.104)" fill="#eac7b0" fill-rule="evenodd"/>
    <path id="Trazado_191678" data-name="Trazado 191678" d="M-123.368,2737.2l-.826-.475s-13.272,11.375-14.072,13.49a15.016,15.016,0,0,0-2.416,5.257c-1.263-5.3,1.931-11.356,5.031-15.6,1.969-2.7,4.565-9.014,4.565-9.014l4.916-.9,1.684,1.164c.8,2.116,1.31,3.47,1.31,3.47Z" transform="translate(0.208 0.22)" fill="#d8b29e" fill-rule="evenodd"/>
    <path id="Trazado_191679" data-name="Trazado 191679" d="M-91.038,2693.145c-.4.764-1.2,2.185-1.6,2.8a3.64,3.64,0,0,0-.962.147c-.882.194-1.21,4.674-1.21,4.674l-.912-1.823c-.346,4.3-3.192,7.7.825,10.358a4.457,4.457,0,0,0-2.581.642,2.825,2.825,0,0,0-1.454,2.926c-2.808-3.443.721-7.622.675-11.818-.062-5.778-7.61-9.363-13.849-11.625.376-.152,4.876.363,5.291.256,4.768-1.23,11.856.462,15.773,3.459" transform="translate(0.273 0.129)" fill="#d8b29e" fill-rule="evenodd"/>
    <path id="Trazado_191680" data-name="Trazado 191680" d="M-96.236,2715.106c-6.156.808-15,1.514-20.925-6.55-8.765-11.924-5.9-28.582,2.811-32.854,1.069-.524,3.347-.746,2.623-2.407-2.253-5.16-.039-8.735,2.844-9.441,9.585-2.342,14.37,9.867,19.392,8.338a13.326,13.326,0,0,0,8.573-7.553c1.468-3.762,1.157-9.814-1.651-12.228-2.529-2.175-8.846-3.573-12.095-6.913-6.737-6.927-12.451-12.077-23.094-13.739-13.359-2.084-27.48.945-37.365,9.367-22.371,19.063-12.269,36.138-10.968,64.6.326,7.117,13.012,1.067,14.965-3.2,1.8-3.929,2.421-8.765,3.226-13.595,1.021-6.126,2.623-14.405,7.509-14.842,16.173-1.447,14.366,25.356,3.427,35.88l2.333,2.115-2.187,1.385c-5.341,15.113,22.087,33.231,32.113,29.186,7.4-2.987,7.315-13.592,4.566-18.906a7.668,7.668,0,0,1,1.746-1.138,7.787,7.787,0,0,0,2.666-1.7c.328-.548-.51-5.8-.51-5.8" transform="translate(0.145 0)" fill="#162963" fill-rule="evenodd"/>
    <path id="Trazado_191681" data-name="Trazado 191681" d="M-133.306,2688.182s-1.822,1.859-1.75,3.026,1.385,2.115,1.458,2.334a8.536,8.536,0,0,1-.582,1.787s-.876-3.026-3.064-3.209c-2.5-.208-4.644-2.635-3.1-4.849a9.162,9.162,0,0,1,4.3-2.808,4.144,4.144,0,0,0,1.349-1.531c.874-2.234-1-3.577-3.447-3.333-5.741.574-5.406,6.188-3.736,10.589a21.391,21.391,0,0,0,2.187,4.083s-4.557-3.864-4.411-9.661,3.245-7.8,4.7-8.131,4.666-.329,5.8,1.968,1.386,3.866.4,5.141a66.206,66.206,0,0,1-5.907,5.214s-.292.984.328,1.058c1.09.128,2.192-2,5.469-1.677" transform="translate(0.201 0.1)" fill="#d8b29e" fill-rule="evenodd"/>
    <path id="Trazado_191682" data-name="Trazado 191682" d="M-53.585,2828.521l-.18.947,29.5,38.3,35.8-9.162c.445,1.642,5.41,3.318,5.141-3.144Z" transform="translate(0.403 0.44)" fill="#369" fill-rule="evenodd"/>
    <g id="Grupo_134152" data-name="Grupo 134152" transform="translate(-53.182 2824.366)">
      <g id="Grupo_134151" data-name="Grupo 134151" clip-path="url(#clip-path)">
        <rect id="Rectángulo_41748" data-name="Rectángulo 41748" width="70.263" height="42.15" fill="url(#linear-gradient)"/>
      </g>
    </g>
    <path id="Trazado_191684" data-name="Trazado 191684" d="M-107.923,2816.768s30.382,8.261,39.862,7.313,21.075-4.74,21.075-4.74l13.35-1.168c.973-.085,1.925-.315,2.751.382,3,2.53,9.6,9.263,7.672,10.706a3.162,3.162,0,0,1-1.056.546,26.009,26.009,0,0,1,2.261,4.7c.218,1.239-.694,2.443-1.2,2.37s-.838,1.167-3.573-2.079-5.833-6.782-5.833-6.782c-1.63.1-11.709.277-12.543,1.35-.511.656-3.61,4.048-3.61,4.048l8.714,1.64s5.432.036,6.38.839,3.282,2.48,2.224,3.573-1.2,2.626-3.864,2.844-14.513-1.056-14.513-1.056c-7.345,2.667-10.608.94-17.065-2.88-14.562,0-30.278,1.878-44.892,2.889,0,0-2.872-.409-4.184-1.685s-2.735-8.934-.036-14.913a15.5,15.5,0,0,1,8.085-7.9" transform="translate(0.261 0.414)" fill="#eac7b0" fill-rule="evenodd"/>
    <path id="Trazado_191685" data-name="Trazado 191685" d="M-32.273,2840.524a3.52,3.52,0,0,1-3.044,1.757c-2.662.219-14.513-1.056-14.513-1.056-7.345,2.667-10.608.94-17.065-2.881-14.562,0-30.278,1.878-44.892,2.889,0,0-2.872-.409-4.184-1.684-.851-.827-1.747-4.333-1.538-8.326a19.123,19.123,0,0,1,6.683.585c7.147,1.678,12.323,1.021,18.085,1.9s21.877-.548,24.027-.4a18.093,18.093,0,0,1,4.558,1.094l3.318,1.459-.62-1.9s9.408,3.429,11.34,3.867,7.877.654,10.282,1.13,2.917-1.423,2.917-1.423a4.413,4.413,0,0,0,.911,2.042c.8,1.021,3.209.839,3.61.766Z" transform="translate(0.261 0.446)" fill="#d8b29e" fill-rule="evenodd"/>
    <path id="Trazado_191686" data-name="Trazado 191686" d="M-22.324,2835.868c-.264.615-.721,1.037-1.029.994-.51-.073-.838,1.167-3.573-2.08S-32.759,2828-32.759,2828c-1.63.1-11.709.277-12.543,1.35-.511.656-3.61,4.048-3.61,4.048s-.326-.082-1.218-.283-4.777-1.405-4.777-1.405l3.354-2.77a17.98,17.98,0,0,1,8.532-3.538c4.631-.4,10.465-.438,10.465-.438s7.364,8.88,7.894,9.774a3.547,3.547,0,0,0,2.337,1.13" transform="translate(0.4 0.432)" fill="#d8b29e" fill-rule="evenodd"/>
    <path id="Trazado_191687" data-name="Trazado 191687" d="M-123.806,2804.783s9.188,7.8,12.615,9.481a33.077,33.077,0,0,0,5.158,2.021c1.167.341,1.113,1.291,1.082,1.284a8.628,8.628,0,0,0-1.3-.308c-4.993,3.94-10.226,16.232-5.308,24.2,0,0-7.838.073-13.636-1.531s-6.163-2.771-6.163-2.771-7.548-19.835-1.86-27.274,9.409-5.105,9.409-5.105" transform="translate(0.221 0.386)" fill="#192f6e" fill-rule="evenodd"/>
    <path id="Trazado_191688" data-name="Trazado 191688" d="M-178.17,2724.577a12.542,12.542,0,0,1,9.187,3.354c2.254,2.027,31.392,45.041,33.472,36.607.555-2.252-2.388-9.747-2.388-9.747a4.819,4.819,0,0,1-.578-2.543,4.965,4.965,0,0,1,1.246-3.2c1-1.094,2.52-2.622,2.52-2.622a71.431,71.431,0,0,1,13.677,42.923c-.583,25.231-6.126,49.88-6.126,49.88l-14.293,59.695h-93.023v-120.39c0-16.4,30.918-49.07,56.305-53.961" transform="translate(0 0.208)" fill="#243c82" fill-rule="evenodd"/>
    <path id="Trazado_191689" data-name="Trazado 191689" d="M-123.527,2817.429c-1.732,12.711-3.759,21.732-3.759,21.732l-2.942,12.286-12.32-2.281-35.076-92.4s7.512-1.678,15.824,4.813,11.231,25.233,11.523,27.42,2.48,4.521,4.376,7.439,5.1,15.387,5.324,19.4,8.386,9.844,11.3,12.1c2.884,2.235,5.685-10.229,5.749-10.515" transform="translate(0.127 0.28)" fill="#192f6e" fill-rule="evenodd"/>
    <path id="Trazado_191690" data-name="Trazado 191690" d="M-182.973,2752.757c-14.147-.73-35.149.147-38.942,25.525s7.293,69.861,22.462,92.906,22.168,27.678,22.168,27.678h94.219s.729-20.6-.511-21.261-19.252-1.678-19.252-1.678l-4.448,1.167s.364-3.064-.876-4.3-4.375-1.751-4.375-1.751,1.385-2.479-.365-6.2-3.573-4.229-3.573-4.229a4.606,4.606,0,0,0,.163-5.541c-1.968-3.209-4.466-3.355-4.466-3.355s.292.293-.948-2.26a6.929,6.929,0,0,0-3.792-3.354s-5.542-11.011-8.605-12.908-3.791-3.354-3.791-3.354-6.709-12.251-8.022-18.668,1.167-8.167-2.479-13.856-3.939-10.063-3.939-10.063c-1.745-16.576-12.563-33.563-30.629-34.495" transform="translate(0.026 0.271)" fill="#243c82" fill-rule="evenodd"/>
    <path id="Trazado_191691" data-name="Trazado 191691" d="M-220.386,2771.644a40.452,40.452,0,0,0-1.528,6.595c-3.791,25.378,7.293,69.861,22.462,92.906s22.168,27.678,22.168,27.678h94.219s.06-1.717.116-4.172c-7.543-.356-30.032-1.571-44.54-3.97-17.648-2.916-19.981-9.625-19.981-9.625l3.938-6.71-15.022,3.064,2.625-8.46c-21.677-3.974-32.413-26.753-41.128-44.63l16.334-3.938c-20.654-8.639-37.465-24.583-39.661-48.738" transform="translate(0.026 0.313)" fill="#192f6e" fill-rule="evenodd"/>
    <g id="Grupo_134154" data-name="Grupo 134154" transform="translate(33.542 2874.04)">
      <g id="Grupo_134153" data-name="Grupo 134153" transform="translate(0)" clip-path="url(#clip-path-2)">
        <rect id="Rectángulo_41749" data-name="Rectángulo 41749" width="38.796" height="22.607" transform="translate(-0.798 -1.22)" fill="url(#linear-gradient-2)"/>
      </g>
    </g>
    <path id="Trazado_191693" data-name="Trazado 191693" d="M-84.391,2878.725s41.276,3.135,71.611-3.866,39.088-14,39.088-14,1.386-2.116,6.2-2.553,18.377-1.312,18.377-1.312l3.5,2.115,1.02,1.166,10.866,6.636a6.107,6.107,0,0,1,1.9,3.609c.472,2.516,1.275,6.2,1.275,6.2s-.437,2.48-1.64,2.663a5.152,5.152,0,0,1-2.7-.656,6.354,6.354,0,0,1-1.057,4.266c-1.385,1.75-3.865,5.324-3.865,5.324s-3.867-.511-4.229-3.027a5.847,5.847,0,0,1,1.384-4.413l-1.822-2.369-8.241.364-2.516,2.99,6.709-.146a4.32,4.32,0,0,1,2.152,3.61c.181,2.661.145,5.723.145,5.723s-2.735,3.866-2.954,4.012-2.48.875-2.48.875-2.479-1.569-2.443-2.517a13.071,13.071,0,0,0-.145-2.114,11.348,11.348,0,0,0-4.484.875c-12.671,4.793-14.91,4.732-28.514,4.838-2.327.018-6.819,1.614-9.624,1.614h-89.77Z" transform="translate(0.329 0.503)" fill="#eac7b0" fill-rule="evenodd"/>
    <path id="Trazado_191694" data-name="Trazado 191694" d="M50.683,2894.992c-.218.146-2.48.875-2.48.875s-2.479-1.569-2.443-2.517a13.069,13.069,0,0,0-.145-2.114,11.341,11.341,0,0,0-4.484.875c-12.671,4.793-14.91,4.732-28.514,4.839-2.327.018-6.819,1.614-9.624,1.614H-29.62s13.71-4.641,18.3-5.736,18.742-3.281,18.742-3.281l-.8-1.386s5.4-.583,8.533.365,8.021,3.429,10.72,3.429,14.949-3.136,19.762-3.794,4.666-.437,5.323,1.533-.279,5.3-.279,5.3" transform="translate(0.457 0.572)" fill="#d8b29e" fill-rule="evenodd"/>
    <path id="Trazado_191695" data-name="Trazado 191695" d="M69.16,2876.7s-.437,2.48-1.64,2.663a4.962,4.962,0,0,1-2.61-.609c-.252-.352-.4-.518-.4-.518a63.594,63.594,0,0,0-5.178-6.6c-2.369-2.481-3.974-3.064-4.777-3.209s-1.6,0-5.068.911-9.589,2.3-9.589,2.3l.73-1.094s7.657-4.339,11.668-5.1c4.142-.792,9.016,3.637,12.47,5.761,1.787,3.232,1.553,7.083,4.394,5.5" transform="translate(0.611 0.522)" fill="#d8b29e" fill-rule="evenodd"/>
    <path id="Trazado_191696" data-name="Trazado 191696" d="M62.539,2884.587c-1.269,1.729-2.629,3.69-2.629,3.69s-3.867-.511-4.229-3.027a5.847,5.847,0,0,1,1.384-4.413l-1.822-2.369-8.241.364-2.516,2.99-9.353-.653,2.479-2.114,6.928-3.9,10.61-1.642s7.366,5.36,7.84,6.891-.451,4.183-.451,4.183" transform="translate(0.601 0.54)" fill="#d8b29e" fill-rule="evenodd"/>
    <path id="Trazado_191697" data-name="Trazado 191697" d="M112.288,2698.419c5.8-.536,3.288,6.153,2.845,9.26L85.672,2844.269s-.474,4.192-3.208,5.1a6.009,6.009,0,0,1-5.1-.876l-99.615-46.745s-1.168-.437-.948-2.26,18.814-85.284,18.814-85.284c1.454-4.017,4.534-4.285,8.332-4.466Z" transform="translate(0.471 0.15)" fill="#162963" fill-rule="evenodd"/>
    <path id="Trazado_191698" data-name="Trazado 191698" d="M33.989,2828.933c-3.51,2.457-31.265,4.426-32.85,7.51a.856.856,0,0,0-.03.759,4.389,4.389,0,0,0,.78.875c3.7,3.316,23.654,15.1,25.7,16.356a12.852,12.852,0,0,0,10.064,1.168c3.572-1.239,26.534-9.939,27.888-11.861s-1.417-6.369-1.417-6.369l-19.981-8.752Z" transform="translate(0.525 0.44)" fill="#369" fill-rule="evenodd"/>
    <g id="Grupo_134156" data-name="Grupo 134156" transform="translate(1.72 2827.906)">
      <g id="Grupo_134155" data-name="Grupo 134155" transform="translate(0)" clip-path="url(#clip-path-3)">
        <rect id="Rectángulo_41750" data-name="Rectángulo 41750" width="65.559" height="28.222" transform="translate(-0.072 0)" fill="url(#linear-gradient-3)"/>
      </g>
    </g>
    <g id="Grupo_134158" data-name="Grupo 134158" transform="translate(-22.76 2787.033)">
      <g id="Grupo_134157" data-name="Grupo 134157" clip-path="url(#clip-path-4)">
        <rect id="Rectángulo_41751" data-name="Rectángulo 41751" width="112.716" height="63.401" transform="translate(-0.192 0)" fill="url(#linear-gradient-4)"/>
      </g>
    </g>
    <g id="Grupo_134160" data-name="Grupo 134160" transform="translate(-16.33 2708.634)">
      <g id="Grupo_134159" data-name="Grupo 134159" clip-path="url(#clip-path-5)">
        <rect id="Rectángulo_41752" data-name="Rectángulo 41752" width="122.513" height="106.761" fill="url(#linear-gradient-5)"/>
      </g>
    </g>
    <path id="Trazado_191702" data-name="Trazado 191702" d="M-5.551,2749.267l-6.855,29.024,56.152,19.252,8.167-39.524Z" transform="translate(0.495 0.263)" fill="#1bbeee" fill-rule="evenodd"/>
    <path id="Trazado_191703" data-name="Trazado 191703" d="M-4.589,2728.779l11.744.374,93.4,2.977,1-4.655-105.477-1.592Z" transform="translate(0.512 0.211)" fill="#369" fill-rule="evenodd"/>
    <path id="Trazado_191704" data-name="Trazado 191704" d="M49.527,2779.574l-5.007,22.676,36.514,12.314,5.684-25.51Z" transform="translate(0.622 0.331)" fill="#1bbeee" fill-rule="evenodd"/>
    <path id="Trazado_191705" data-name="Trazado 191705" d="M-4.471,2744.939l-.656,2.48,41.421,5.943.511-3.354Z" transform="translate(0.511 0.253)" fill="#9ff" fill-rule="evenodd"/>
    <path id="Trazado_191706" data-name="Trazado 191706" d="M29.453,2722.346,29,2725.227l20.784.328.492-3.245Z" transform="translate(0.587 0.203)" fill="#9ff" fill-rule="evenodd"/>
    <path id="Trazado_191707" data-name="Trazado 191707" d="M63.441,2784.739l-.692,3.137,20.492,5.579.912-3.538Z" transform="translate(0.662 0.342)" fill="#369" fill-rule="evenodd"/>
    <path id="Trazado_191708" data-name="Trazado 191708" d="M62.5,2789.287l-.693,3.135,20.455,5.715.912-3.536Z" transform="translate(0.66 0.353)" fill="#369" fill-rule="evenodd"/>
    <path id="Trazado_191709" data-name="Trazado 191709" d="M61.549,2793.835l-.693,3.136,20.383,5.979.911-3.537Z" transform="translate(0.658 0.363)" fill="#369" fill-rule="evenodd"/>
    <path id="Trazado_191710" data-name="Trazado 191710" d="M60.6,2798.383l-.691,3.136,20.309,6.015.911-3.536Z" transform="translate(0.656 0.373)" fill="#369" fill-rule="evenodd"/>
    <path id="Trazado_191711" data-name="Trazado 191711" d="M80.751,2713.763l-.455,2.881,20.783-.838.492-3.245Z" transform="translate(0.702 0.181)" fill="#9ff" fill-rule="evenodd"/>
    <path id="Trazado_191712" data-name="Trazado 191712" d="M55.728,2746.467l-.693,3.136,38.066,4.047.655-3.561Z" transform="translate(0.645 0.257)" fill="#1bbeee" fill-rule="evenodd"/>
    <path id="Trazado_191713" data-name="Trazado 191713" d="M58.275,2733.224l-.692,3.135,38.394,2.17.656-3.628Z" transform="translate(0.651 0.228)" fill="#1bbeee" fill-rule="evenodd"/>
    <path id="Trazado_191714" data-name="Trazado 191714" d="M22.3,2783.783l-.692,3.136,20.377,6.1.911-3.537Z" transform="translate(0.571 0.34)" fill="#369" fill-rule="evenodd"/>
    <path id="Trazado_191715" data-name="Trazado 191715" d="M10.957,2722.642l-.362,2.287,16.5.261.391-2.577Z" transform="translate(0.546 0.204)" fill="#9ff" fill-rule="evenodd"/>
    <path id="Trazado_191716" data-name="Trazado 191716" d="M54.219,2758.523l-3.814,18.58,36.385,8.85,4.776-22.207Z" transform="translate(0.635 0.284)" fill="#1bbeee" fill-rule="evenodd"/>
    <path id="Trazado_191717" data-name="Trazado 191717" d="M-89.092,2691.449l-7.914,16.544a.668.668,0,0,1-.987-.6c-.3-3.216,4.207-11.632,1.251-12.433-.892-.241-26.953-9.739-26.953-9.739s-3.548-2.257-3.545-2.842,1.473-.524,1.473-.524l31.886,10.966s1.207-.5,2.259-1.021a4.526,4.526,0,0,1,2.095-.578,1.549,1.549,0,0,1,.435.232" transform="translate(0.239 0.113)" fill="#162963" fill-rule="evenodd"/>
  </g>
</svg>
