<svg xmlns="http://www.w3.org/2000/svg" width="100" height="100" viewBox="0 0 100 100">
  <g id="Group_136816" data-name="Group 136816" transform="translate(-180 -4000)">
    <circle id="Ellipse_5072" data-name="Ellipse 5072" cx="50" cy="50" r="50" transform="translate(180 4000)" fill="#0f2771"/>
    <g id="Group_136814" data-name="Group 136814" transform="translate(196 4023)">
      <path id="Path_193584" data-name="Path 193584" d="M2192.405,4039.174h10.506a.962.962,0,0,0,.962-.962V4022.6a.962.962,0,0,0-.962-.962h-10.506a.962.962,0,0,0-.962.962v6.846H2179.17V4022.6a.962.962,0,0,0-.962-.962H2167.7a.962.962,0,0,0-.962.962v6.846h-12.7V4022.6a.962.962,0,0,0-.962-.962h-10.506a.962.962,0,0,0-.962.962v15.617a.962.962,0,0,0,.962.962h10.506a.962.962,0,0,0,.962-.962v-6.847h5.426v15.41a7.9,7.9,0,0,0,7.27,7.864v6.873a.962.962,0,0,0,.962.962h10.506a.962.962,0,0,0,.962-.962V4045.9a.962.962,0,0,0-.962-.962H2167.7a.962.962,0,0,0-.962.962v6.814a5.974,5.974,0,0,1-5.345-5.933v-15.41h5.345v6.847a.962.962,0,0,0,.962.962h10.506a.962.962,0,0,0,.962-.962v-6.847h5.345v37.941a7.9,7.9,0,0,0,6.928,7.829v6.907a.962.962,0,0,0,.962.962h10.506a.962.962,0,0,0,.962-.962v-15.617a.962.962,0,0,0-.962-.962h-10.506a.962.962,0,0,0-.962.962v6.761a5.97,5.97,0,0,1-5-5.881v-17.376a7.88,7.88,0,0,0,5,2.674v6.907a.962.962,0,0,0,.962.962h10.506a.962.962,0,0,0,.962-.962V4045.9a.962.962,0,0,0-.962-.962h-10.506a.962.962,0,0,0-.962.962v6.762a5.97,5.97,0,0,1-5-5.881v-15.41h5v6.847A.962.962,0,0,0,2192.405,4039.174Zm-40.285-1.924h-8.582v-13.693h8.582Zm16.544,9.608h8.582v13.692h-8.582Zm8.582-9.608h-8.582v-13.693h8.582Zm16.122,32.138h8.582v13.693h-8.582Zm0-22.531h8.582v13.692h-8.582Zm0-23.3h8.582v13.693h-8.582Z" transform="translate(-2141.614 -4021.633)" fill="#fff"/>
    </g>
  </g>
</svg>
