<svg xmlns="http://www.w3.org/2000/svg" width="100" height="100" viewBox="0 0 100 100">
  <g id="Group_136818" data-name="Group 136818" transform="translate(-180 -3677)">
    <circle id="Ellipse_5070" data-name="Ellipse 5070" cx="50" cy="50" r="50" transform="translate(180 3677)" fill="#0f2771"/>
    <g id="Group_136813" data-name="Group 136813" transform="translate(197.082 3693.333)">
      <path id="Path_193562" data-name="Path 193562" d="M1573.979,4089.476a8.995,8.995,0,0,0-6.284-8.526l-13.318-4.715-.005,0-1.027-.364-.522-6.077c.965-1.18,2.48-3.424,2.714-5.259l.151-1.188a6.656,6.656,0,0,1,.857-2.523,8.876,8.876,0,0,0,1.208-4.468v-5.721a1.09,1.09,0,0,0-2.18,0v5.721a6.691,6.691,0,0,1-.911,3.369,8.824,8.824,0,0,0-1.136,3.346l-.152,1.188a11.031,11.031,0,0,1-2.461,4.418c-.017.02-.033.04-.05.061-.444.586-1.99,2.317-3.224,2.573a1.09,1.09,0,0,0,.22,2.158,1.154,1.154,0,0,0,.222-.023,6.476,6.476,0,0,0,2.737-1.511l.414,4.823a1.091,1.091,0,0,0,.722.934l.115.04-6.847,7.347c-.707-.877-1.8-2.231-2.891-3.583-1.071-1.324-1.926-2.378-2.543-3.133-.188-.229-.357-.436-.508-.618l.17-.067a1.09,1.09,0,0,0,.685-.92l.421-4.892a7.773,7.773,0,0,0,2.833,1.558,1.1,1.1,0,0,0,.309.045,1.09,1.09,0,0,0,.308-2.136,6.3,6.3,0,0,1-3.353-2.641,1.094,1.094,0,0,0-.114-.166,11.26,11.26,0,0,1-2.332-4.267l-.184-1.445a8.852,8.852,0,0,0-.865-2.844l-.179-.357a6.717,6.717,0,0,1-.671-2.331q.29-.145.586-.3v.482a2.944,2.944,0,0,0,2.941,2.941h2.738a2.944,2.944,0,0,0,2.926-2.645h.7a2.944,2.944,0,0,0,2.926,2.645h2.738a2.944,2.944,0,0,0,2.94-2.941v-1.622a2.278,2.278,0,0,0-2.275-2.275h-4.069a2.278,2.278,0,0,0-2.259,2.012h-.708a2.278,2.278,0,0,0-2.259-2.012h-.365c2.69-1.652,5.185-3.307,6.834-4.427l-.292,2.462a1.091,1.091,0,0,0,1.574,1.1c6.765-3.414,6.765-6.213,6.764-7.716v-.022c0-2.28-1.364-4.314-3.839-5.727a13.217,13.217,0,0,0-6.054-1.694H1543.7a12.448,12.448,0,0,0-9.125,4.55c-2.252,2.65-4.651,7.557-3.291,15.889a1.091,1.091,0,0,0,1.426.857c.48-.162,1-.365,1.539-.6a8.911,8.911,0,0,0,.783,2.344l.179.357a6.665,6.665,0,0,1,.652,2.145l.185,1.445a12.467,12.467,0,0,0,2.538,5.034,1.073,1.073,0,0,0-.033.173l-.53,6.157-12.774,5.059a9,9,0,0,0-6.264,8.52l-1.084,7.97a1.089,1.089,0,0,0,.933,1.227,1.016,1.016,0,0,0,.148.01,1.09,1.09,0,0,0,1.079-.943l1.093-8.041a1.094,1.094,0,0,0,.01-.147,6.824,6.824,0,0,1,4.781-6.529c.024-.008.048-.016.072-.026l11.133-4.409c.853,1.01,4.725,5.8,7.163,8.837a1.092,1.092,0,0,0,.81.406h.04a1.09,1.09,0,0,0,.8-.347l8.351-8.96,12.673,4.487.035.011a6.824,6.824,0,0,1,4.78,6.529,1.094,1.094,0,0,0,.01.147l1.094,8.041a1.09,1.09,0,0,0,1.079.943,1.018,1.018,0,0,0,.148-.01,1.09,1.09,0,0,0,.933-1.227Zm-25.61-33.635a.1.1,0,0,1,.095-.095h4.069a.1.1,0,0,1,.1.095v1.622a.762.762,0,0,1-.76.761h-2.738a.762.762,0,0,1-.761-.761Zm-5.13-.095a.1.1,0,0,1,.095.095v1.622a.761.761,0,0,1-.76.761h-2.738a.762.762,0,0,1-.761-.761v-1.622a.09.09,0,0,1,.02-.048l.085-.047Zm-9.992.553c-.465-3.994-.189-9.057,2.987-12.794a10.363,10.363,0,0,1,7.464-3.782h4.163a11.01,11.01,0,0,1,4.973,1.408c1.25.713,2.74,1.957,2.74,3.833v.022c0,.97,0,2.512-3.743,4.768l.327-2.755a1.09,1.09,0,0,0-1.711-1.019c-.089.063-6.394,4.5-12.167,7.767a2.225,2.225,0,0,0-.425.24A47.856,47.856,0,0,1,1533.246,4056.3Z" transform="translate(-1513.361 -4030.425)" fill="#fff"/>
      <path id="Path_193563" data-name="Path 193563" d="M1508.243,4034.971a1.09,1.09,0,0,0,1.542.01l8-7.9a1.091,1.091,0,0,0,.01-1.542l-8-8.1a1.09,1.09,0,1,0-1.551,1.532l7.236,7.325-7.226,7.137A1.09,1.09,0,0,0,1508.243,4034.971Z" transform="translate(-1506.871 -4017.111)" fill="#fff"/>
      <path id="Path_193564" data-name="Path 193564" d="M1549.676,4020.419h3.77a1.09,1.09,0,0,0,0-2.181h-3.77a1.09,1.09,0,0,0,0,2.181Z" transform="translate(-1533.365 -4017.846)" fill="#fff"/>
      <path id="Path_193565" data-name="Path 193565" d="M1579.074,4020.419h13.2a1.09,1.09,0,0,0,0-2.181h-13.2a1.09,1.09,0,0,0,0,2.181Z" transform="translate(-1552.521 -4017.846)" fill="#fff"/>
      <path id="Path_193566" data-name="Path 193566" d="M1636.483,4020.419h2.873a1.09,1.09,0,0,0,0-2.181h-2.873a1.09,1.09,0,0,0,0,2.181Z" transform="translate(-1589.931 -4017.846)" fill="#fff"/>
      <path id="Path_193567" data-name="Path 193567" d="M1662.215,4020.419h2.873a1.09,1.09,0,0,0,0-2.181h-2.873a1.09,1.09,0,0,0,0,2.181Z" transform="translate(-1606.699 -4017.846)" fill="#fff"/>
      <path id="Path_193568" data-name="Path 193568" d="M1659.639,4042.261h2.317a1.09,1.09,0,1,0,0-2.18h-2.317a1.09,1.09,0,0,0,0,2.18Z" transform="translate(-1605.02 -4032.079)" fill="#fff"/>
      <path id="Path_193569" data-name="Path 193569" d="M1685.932,4020.419h3.05a1.09,1.09,0,0,0,0-2.181h-3.05a1.09,1.09,0,0,0,0,2.181Z" transform="translate(-1622.154 -4017.846)" fill="#fff"/>
      <path id="Path_193570" data-name="Path 193570" d="M1683.225,4040.081H1677.1a1.09,1.09,0,1,0,0,2.18h6.128a1.09,1.09,0,0,0,0-2.18Z" transform="translate(-1616.397 -4032.079)" fill="#fff"/>
      <path id="Path_193571" data-name="Path 193571" d="M1638.152,4040.081a1.09,1.09,0,1,0,0,2.18h3.049a1.09,1.09,0,0,0,0-2.18Z" transform="translate(-1591.019 -4032.079)" fill="#fff"/>
      <path id="Path_193572" data-name="Path 193572" d="M1549.676,4042.261h2.873a1.09,1.09,0,1,0,0-2.18h-2.873a1.09,1.09,0,0,0,0,2.18Z" transform="translate(-1533.365 -4032.079)" fill="#fff"/>
      <path id="Path_193573" data-name="Path 193573" d="M1505.982,4089.481h4.454a1.09,1.09,0,1,0,0-2.18h-4.454a1.09,1.09,0,1,0,0,2.18Z" transform="translate(-1504.892 -4062.85)" fill="#fff"/>
      <path id="Path_193574" data-name="Path 193574" d="M1530.482,4088.391a1.09,1.09,0,0,0,1.09,1.09h2.483a1.09,1.09,0,1,0,0-2.18h-2.483A1.09,1.09,0,0,0,1530.482,4088.391Z" transform="translate(-1521.567 -4062.85)" fill="#fff"/>
      <path id="Path_193575" data-name="Path 193575" d="M1511.963,4132.075a1.09,1.09,0,0,0-1.09-1.09h-4.89a1.09,1.09,0,1,0,0,2.18h4.89A1.09,1.09,0,0,0,1511.963,4132.075Z" transform="translate(-1504.892 -4091.315)" fill="#fff"/>
      <path id="Path_193576" data-name="Path 193576" d="M1532.824,4130.985a1.09,1.09,0,0,0,0,2.18h2.483a1.09,1.09,0,0,0,0-2.18Z" transform="translate(-1522.383 -4091.315)" fill="#fff"/>
      <path id="Path_193577" data-name="Path 193577" d="M1649.9,4088.391a1.09,1.09,0,0,0-1.09-1.09h-6.282a1.09,1.09,0,0,0,0,2.18h6.282A1.09,1.09,0,0,0,1649.9,4088.391Z" transform="translate(-1593.871 -4062.85)" fill="#fff"/>
      <path id="Path_193578" data-name="Path 193578" d="M1656.967,4111.323h6.85a1.09,1.09,0,0,0,0-2.181h-6.85a1.09,1.09,0,0,0,0,2.181Z" transform="translate(-1603.279 -4077.082)" fill="#fff"/>
      <path id="Path_193579" data-name="Path 193579" d="M1680.424,4087.3H1672.8a1.09,1.09,0,0,0,0,2.18h7.625a1.09,1.09,0,0,0,0-2.18Z" transform="translate(-1613.596 -4062.85)" fill="#fff"/>
      <path id="Path_193580" data-name="Path 193580" d="M1689.747,4109.143h-2.641a1.09,1.09,0,0,0,0,2.181h2.641a1.09,1.09,0,0,0,0-2.181Z" transform="translate(-1622.919 -4077.082)" fill="#fff"/>
      <path id="Path_193581" data-name="Path 193581" d="M1636.448,4111.323h2.641a1.09,1.09,0,0,0,0-2.181h-2.641a1.09,1.09,0,0,0,0,2.181Z" transform="translate(-1589.908 -4077.082)" fill="#fff"/>
      <path id="Path_193582" data-name="Path 193582" d="M1544.365,4111.323h2.261a1.09,1.09,0,1,0,0-2.181h-2.261a1.09,1.09,0,0,0,0,2.181Z" transform="translate(-1529.904 -4077.082)" fill="#fff"/>
      <path id="Path_193583" data-name="Path 193583" d="M1505.982,4111.323h8.814a1.09,1.09,0,0,0,0-2.181h-8.814a1.09,1.09,0,1,0,0,2.181Z" transform="translate(-1504.892 -4077.082)" fill="#fff"/>
    </g>
  </g>
</svg>
