<svg xmlns="http://www.w3.org/2000/svg" width="282" height="228.265" viewBox="0 0 282 228.265">
  <g id="Grupo_134147" data-name="Grupo 134147" transform="translate(-1004.176 -2692.867)">
    <g id="Grupo_133822" data-name="Grupo 133822" transform="translate(1007.654 2912.255)">
      <g id="Grupo_133821" data-name="Grupo 133821">
        <path id="Trazado_191558" data-name="Trazado 191558" d="M1286.3,2920.505c0,.069-62.354.126-139.254.126-76.927,0-139.268-.057-139.268-.126s62.341-.127,139.268-.127C1223.95,2920.378,1286.3,2920.435,1286.3,2920.505Z" transform="translate(-1007.783 -2920.378)" fill="#bddcf6"/>
      </g>
    </g>
    <g id="Grupo_133836" data-name="Grupo 133836" transform="translate(1231.014 2836.769)">
      <g id="Grupo_133823" data-name="Grupo 133823" transform="translate(0 0.044)">
        <path id="Trazado_191559" data-name="Trazado 191559" d="M1264.635,2860.7l-13.593,7.16a1.351,1.351,0,0,1-1.825-.566l-9.648-18.315a1.351,1.351,0,0,1,.566-1.825l9.5-5.007,7.993,2.36,7.568,14.368A1.352,1.352,0,0,1,1264.635,2860.7Z" transform="translate(-1239.413 -2842.143)" fill="#375a64"/>
      </g>
      <g id="Grupo_133824" data-name="Grupo 133824" transform="translate(10.203)">
        <path id="Trazado_191560" data-name="Trazado 191560" d="M1249.994,2842.1l1.918,3.639a1.84,1.84,0,0,0,2.487.771l3.611-2.007Z" transform="translate(-1249.994 -2842.097)" fill="#e1e1e1"/>
      </g>
      <g id="Grupo_133835" data-name="Grupo 133835" transform="translate(7.135 6.93)">
        <g id="Grupo_133826" data-name="Grupo 133826">
          <g id="Grupo_133825" data-name="Grupo 133825">
            <path id="Trazado_191561" data-name="Trazado 191561" d="M1260.953,2858.407a7.219,7.219,0,0,1-.382-.652q-.375-.682-1-1.808l-3.453-6.391.2.063-9.261,4.906c-.016.051.138-.445.073-.233v0l0,0,0,.01.01.019.02.039.041.076.08.152.16.3.318.6q.315.6.626,1.191l1.21,2.306c.782,1.5,1.523,2.915,2.2,4.222l-.2-.064,6.713-3.448,1.92-.966a7.623,7.623,0,0,1,.712-.335,5.5,5.5,0,0,1-.624.367l-1.852,1.02-6.726,3.63-.133.072-.072-.136-2.234-4.206-1.218-2.3-.628-1.19-.318-.6-.16-.3-.08-.152-.04-.076-.02-.039-.01-.019-.006-.01,0,0v0c-.066.209.087-.288.072-.237l9.284-4.862.133-.07.068.133c1.378,2.681,2.531,4.927,3.363,6.546l.911,1.814A5.232,5.232,0,0,1,1260.953,2858.407Z" transform="translate(-1246.812 -2849.284)" fill="#fff"/>
          </g>
        </g>
        <g id="Grupo_133828" data-name="Grupo 133828" transform="translate(4.768 2.796)">
          <g id="Grupo_133827" data-name="Grupo 133827">
            <path id="Trazado_191562" data-name="Trazado 191562" d="M1256.461,2861.1a73.083,73.083,0,0,1-4.7-8.921,73.274,73.274,0,0,1,4.7,8.921Z" transform="translate(-1251.757 -2852.183)" fill="#fff"/>
          </g>
        </g>
        <g id="Grupo_133830" data-name="Grupo 133830" transform="translate(3.645 6.95)">
          <g id="Grupo_133829" data-name="Grupo 133829">
            <path id="Trazado_191563" data-name="Trazado 191563" d="M1259.9,2856.5a79.223,79.223,0,0,1-9.308,4.9,79.517,79.517,0,0,1,9.308-4.9Z" transform="translate(-1250.592 -2856.491)" fill="#fff"/>
          </g>
        </g>
        <g id="Grupo_133832" data-name="Grupo 133832" transform="translate(2.553 4.62)">
          <g id="Grupo_133831" data-name="Grupo 133831">
            <path id="Trazado_191564" data-name="Trazado 191564" d="M1258.768,2854.08a79.642,79.642,0,0,1-9.308,4.9,79.725,79.725,0,0,1,9.308-4.9Z" transform="translate(-1249.459 -2854.075)" fill="#fff"/>
          </g>
        </g>
        <g id="Grupo_133834" data-name="Grupo 133834" transform="translate(1.355 2.383)">
          <g id="Grupo_133833" data-name="Grupo 133833">
            <path id="Trazado_191565" data-name="Trazado 191565" d="M1257.456,2851.76a78.485,78.485,0,0,1-9.238,4.867,78.485,78.485,0,0,1,9.238-4.867Z" transform="translate(-1248.217 -2851.755)" fill="#fff"/>
          </g>
        </g>
      </g>
    </g>
    <g id="Grupo_133935" data-name="Grupo 133935" transform="translate(1004.176 2692.867)">
      <g id="Grupo_133934" data-name="Grupo 133934">
        <g id="Grupo_133837" data-name="Grupo 133837" transform="translate(0.385 0.174)">
          <rect id="Rectángulo_41715" data-name="Rectángulo 41715" width="258.79" height="140.321" fill="#f5f5f5"/>
        </g>
        <g id="Grupo_133838" data-name="Grupo 133838" transform="translate(0.385 0.174)">
          <rect id="Rectángulo_41716" data-name="Rectángulo 41716" width="258.79" height="11.818" fill="#1a2e35"/>
        </g>
        <g id="Grupo_133839" data-name="Grupo 133839" transform="translate(5.047 4.781)">
          <circle id="Elipse_4961" data-name="Elipse 4961" cx="1.464" cy="1.464" r="1.464" fill="#fafafa"/>
        </g>
        <g id="Grupo_133840" data-name="Grupo 133840" transform="translate(10.376 4.781)">
          <circle id="Elipse_4962" data-name="Elipse 4962" cx="1.464" cy="1.464" r="1.464" fill="#fafafa"/>
        </g>
        <g id="Grupo_133841" data-name="Grupo 133841" transform="translate(15.706 4.781)">
          <circle id="Elipse_4963" data-name="Elipse 4963" cx="1.464" cy="1.464" r="1.464" fill="#fafafa"/>
        </g>
        <g id="Grupo_133883" data-name="Grupo 133883" transform="translate(0 28.143)">
          <g id="Grupo_133842" data-name="Grupo 133842" transform="translate(0 4.166)">
            <rect id="Rectángulo_41717" data-name="Rectángulo 41717" width="9.414" height="108.186" fill="#375a64"/>
          </g>
          <g id="Grupo_133843" data-name="Grupo 133843" transform="translate(0)">
            <rect id="Rectángulo_41718" data-name="Rectángulo 41718" width="9.414" height="259.061" transform="translate(0 9.413) rotate(-90)" fill="#375a64"/>
          </g>
          <g id="Grupo_133845" data-name="Grupo 133845" transform="translate(9.24 0)">
            <g id="Grupo_133844" data-name="Grupo 133844">
              <path id="Trazado_191566" data-name="Trazado 191566" d="M1013.932,2828.379c-.1,0-.174-23.8-.174-53.161s.078-53.167.174-53.167.175,23.8.175,53.167S1014.028,2828.379,1013.932,2828.379Z" transform="translate(-1013.758 -2722.052)" fill="#e1e1e1"/>
            </g>
          </g>
          <g id="Grupo_133847" data-name="Grupo 133847" transform="translate(46.247 0)">
            <g id="Grupo_133846" data-name="Grupo 133846">
              <path id="Trazado_191567" data-name="Trazado 191567" d="M1052.311,2834.4c-.1,0-.175-25.153-.175-56.173s.078-56.179.175-56.179.175,25.147.175,56.179S1052.407,2834.4,1052.311,2834.4Z" transform="translate(-1052.136 -2722.052)" fill="#e1e1e1"/>
            </g>
          </g>
          <g id="Grupo_133849" data-name="Grupo 133849" transform="translate(85.506 0.371)">
            <g id="Grupo_133848" data-name="Grupo 133848">
              <path id="Trazado_191568" data-name="Trazado 191568" d="M1093.021,2834.418c-.1,0-.173-25.07-.173-55.988s.077-55.994.173-55.994.175,25.065.175,55.994S1093.118,2834.418,1093.021,2834.418Z" transform="translate(-1092.848 -2722.436)" fill="#e1e1e1"/>
            </g>
          </g>
          <g id="Grupo_133851" data-name="Grupo 133851" transform="translate(123.834 0.371)">
            <g id="Grupo_133850" data-name="Grupo 133850">
              <path id="Trazado_191569" data-name="Trazado 191569" d="M1132.77,2834.418c-.1,0-.175-25.07-.175-55.988s.078-55.994.175-55.994.174,25.065.174,55.994S1132.865,2834.418,1132.77,2834.418Z" transform="translate(-1132.595 -2722.436)" fill="#e1e1e1"/>
            </g>
          </g>
          <g id="Grupo_133853" data-name="Grupo 133853" transform="translate(163.065 0)">
            <g id="Grupo_133852" data-name="Grupo 133852">
              <path id="Trazado_191570" data-name="Trazado 191570" d="M1173.453,2834.4c-.1,0-.174-25.153-.174-56.173s.078-56.179.174-56.179.174,25.147.174,56.179S1173.549,2834.4,1173.453,2834.4Z" transform="translate(-1173.279 -2722.052)" fill="#e1e1e1"/>
            </g>
          </g>
          <g id="Grupo_133855" data-name="Grupo 133855" transform="translate(202.297 0)">
            <g id="Grupo_133854" data-name="Grupo 133854">
              <path id="Trazado_191571" data-name="Trazado 191571" d="M1214.138,2834.4c-.1,0-.175-25.153-.175-56.173s.078-56.179.175-56.179.173,25.147.173,56.179S1214.233,2834.4,1214.138,2834.4Z" transform="translate(-1213.963 -2722.052)" fill="#e1e1e1"/>
            </g>
          </g>
          <g id="Grupo_133857" data-name="Grupo 133857" transform="translate(241.528 0.371)">
            <g id="Grupo_133856" data-name="Grupo 133856">
              <path id="Trazado_191572" data-name="Trazado 191572" d="M1254.822,2834.418c-.1,0-.175-25.07-.175-55.988s.078-55.994.175-55.994.174,25.065.174,55.994S1254.918,2834.418,1254.822,2834.418Z" transform="translate(-1254.647 -2722.436)" fill="#e1e1e1"/>
            </g>
          </g>
          <g id="Grupo_133859" data-name="Grupo 133859" transform="translate(0.008 17.824)">
            <g id="Grupo_133858" data-name="Grupo 133858">
              <path id="Trazado_191573" data-name="Trazado 191573" d="M1261.812,2740.709c0,.1-57.677.175-128.808.175-71.156,0-128.819-.078-128.819-.175s57.664-.174,128.819-.174C1204.136,2740.536,1261.812,2740.614,1261.812,2740.709Z" transform="translate(-1004.185 -2740.536)" fill="#e1e1e1"/>
            </g>
          </g>
          <g id="Grupo_133861" data-name="Grupo 133861" transform="translate(0.008 9.239)">
            <g id="Grupo_133860" data-name="Grupo 133860">
              <path id="Trazado_191574" data-name="Trazado 191574" d="M1261.812,2731.807c0,.1-57.677.174-128.808.174-71.156,0-128.819-.078-128.819-.174s57.664-.175,128.819-.175C1204.136,2731.633,1261.812,2731.711,1261.812,2731.807Z" transform="translate(-1004.185 -2731.633)" fill="#e1e1e1"/>
            </g>
          </g>
          <g id="Grupo_133863" data-name="Grupo 133863" transform="translate(0.008 26.868)">
            <g id="Grupo_133862" data-name="Grupo 133862">
              <path id="Trazado_191575" data-name="Trazado 191575" d="M1261.812,2750.088c0,.1-57.677.174-128.808.174-71.156,0-128.819-.078-128.819-.174s57.664-.174,128.819-.174C1204.136,2749.914,1261.812,2749.992,1261.812,2750.088Z" transform="translate(-1004.185 -2749.914)" fill="#e1e1e1"/>
            </g>
          </g>
          <g id="Grupo_133865" data-name="Grupo 133865" transform="translate(0.008 35.911)">
            <g id="Grupo_133864" data-name="Grupo 133864">
              <path id="Trazado_191576" data-name="Trazado 191576" d="M1261.812,2759.465c0,.1-57.677.175-128.808.175-71.156,0-128.819-.078-128.819-.175s57.664-.174,128.819-.174C1204.136,2759.292,1261.812,2759.37,1261.812,2759.465Z" transform="translate(-1004.185 -2759.292)" fill="#e1e1e1"/>
            </g>
          </g>
          <g id="Grupo_133867" data-name="Grupo 133867" transform="translate(0.008 44.954)">
            <g id="Grupo_133866" data-name="Grupo 133866">
              <path id="Trazado_191577" data-name="Trazado 191577" d="M1261.812,2768.844c0,.1-57.677.174-128.808.174-71.156,0-128.819-.078-128.819-.174s57.664-.174,128.819-.174C1204.136,2768.67,1261.812,2768.748,1261.812,2768.844Z" transform="translate(-1004.185 -2768.67)" fill="#e1e1e1"/>
            </g>
          </g>
          <g id="Grupo_133869" data-name="Grupo 133869" transform="translate(0.008 53.997)">
            <g id="Grupo_133868" data-name="Grupo 133868">
              <path id="Trazado_191578" data-name="Trazado 191578" d="M1261.812,2778.221c0,.1-57.677.175-128.808.175-71.156,0-128.819-.078-128.819-.175s57.664-.173,128.819-.173C1204.136,2778.048,1261.812,2778.125,1261.812,2778.221Z" transform="translate(-1004.185 -2778.048)" fill="#e1e1e1"/>
            </g>
          </g>
          <g id="Grupo_133871" data-name="Grupo 133871" transform="translate(0.008 63.04)">
            <g id="Grupo_133870" data-name="Grupo 133870">
              <path id="Trazado_191579" data-name="Trazado 191579" d="M1261.812,2787.6c0,.1-57.677.175-128.808.175-71.156,0-128.819-.078-128.819-.175s57.664-.174,128.819-.174C1204.136,2787.426,1261.812,2787.5,1261.812,2787.6Z" transform="translate(-1004.185 -2787.426)" fill="#e1e1e1"/>
            </g>
          </g>
          <g id="Grupo_133873" data-name="Grupo 133873" transform="translate(0.008 72.083)">
            <g id="Grupo_133872" data-name="Grupo 133872">
              <path id="Trazado_191580" data-name="Trazado 191580" d="M1261.812,2796.977c0,.1-57.677.175-128.808.175-71.156,0-128.819-.078-128.819-.175s57.664-.173,128.819-.173C1204.136,2796.8,1261.812,2796.881,1261.812,2796.977Z" transform="translate(-1004.185 -2796.804)" fill="#e1e1e1"/>
            </g>
          </g>
          <g id="Grupo_133875" data-name="Grupo 133875" transform="translate(0.008 81.125)">
            <g id="Grupo_133874" data-name="Grupo 133874">
              <path id="Trazado_191581" data-name="Trazado 191581" d="M1261.812,2806.355c0,.1-57.677.174-128.808.174-71.156,0-128.819-.078-128.819-.174s57.664-.175,128.819-.175C1204.136,2806.181,1261.812,2806.259,1261.812,2806.355Z" transform="translate(-1004.185 -2806.181)" fill="#e1e1e1"/>
            </g>
          </g>
          <g id="Grupo_133877" data-name="Grupo 133877" transform="translate(0.008 90.169)">
            <g id="Grupo_133876" data-name="Grupo 133876">
              <path id="Trazado_191582" data-name="Trazado 191582" d="M1261.812,2815.733c0,.1-57.677.174-128.808.174-71.156,0-128.819-.077-128.819-.174s57.664-.174,128.819-.174C1204.136,2815.559,1261.812,2815.637,1261.812,2815.733Z" transform="translate(-1004.185 -2815.559)" fill="#e1e1e1"/>
            </g>
          </g>
          <g id="Grupo_133879" data-name="Grupo 133879" transform="translate(0.008 99.212)">
            <g id="Grupo_133878" data-name="Grupo 133878">
              <path id="Trazado_191583" data-name="Trazado 191583" d="M1261.812,2825.111c0,.1-57.677.174-128.808.174-71.156,0-128.819-.077-128.819-.174s57.664-.175,128.819-.175C1204.136,2824.937,1261.812,2825.015,1261.812,2825.111Z" transform="translate(-1004.185 -2824.937)" fill="#e1e1e1"/>
            </g>
          </g>
          <g id="Grupo_133881" data-name="Grupo 133881" transform="translate(0.008 108.255)">
            <g id="Grupo_133880" data-name="Grupo 133880">
              <path id="Trazado_191584" data-name="Trazado 191584" d="M1261.812,2834.49c0,.1-57.677.174-128.808.174-71.156,0-128.819-.078-128.819-.174s57.664-.175,128.819-.175C1204.136,2834.315,1261.812,2834.393,1261.812,2834.49Z" transform="translate(-1004.185 -2834.315)" fill="#e1e1e1"/>
            </g>
          </g>
          <g id="Grupo_133882" data-name="Grupo 133882" transform="translate(9.413 9.413)">
            <rect id="Rectángulo_41719" data-name="Rectángulo 41719" width="249.647" height="17.628" fill="#bddcf6"/>
          </g>
        </g>
        <g id="Grupo_133885" data-name="Grupo 133885" transform="translate(74.735 44.964)">
          <g id="Grupo_133884" data-name="Grupo 133884">
            <path id="Trazado_191585" data-name="Trazado 191585" d="M1212.892,2739.67c0,.1-29.376.174-65.6.174s-65.61-.077-65.61-.174,29.369-.175,65.61-.175S1212.892,2739.574,1212.892,2739.67Z" transform="translate(-1081.678 -2739.496)" fill="#fafafa"/>
          </g>
        </g>
        <g id="Grupo_133887" data-name="Grupo 133887" transform="translate(54.284 49.987)">
          <g id="Grupo_133886" data-name="Grupo 133886">
            <path id="Trazado_191586" data-name="Trazado 191586" d="M1224.562,2744.878c0,.1-36.736.175-82.042.175-45.322,0-82.05-.078-82.05-.175s36.728-.173,82.05-.173C1187.827,2744.705,1224.562,2744.783,1224.562,2744.878Z" transform="translate(-1060.47 -2744.705)" fill="#fafafa"/>
          </g>
        </g>
        <g id="Grupo_133888" data-name="Grupo 133888" transform="translate(46.422 64.227)">
          <rect id="Rectángulo_41720" data-name="Rectángulo 41720" width="77.586" height="9.043" fill="#feca2e"/>
        </g>
        <g id="Grupo_133889" data-name="Grupo 133889" transform="translate(46.422 72.268)">
          <rect id="Rectángulo_41721" data-name="Rectángulo 41721" width="77.586" height="38.165" fill="#ececec"/>
        </g>
        <g id="Grupo_133891" data-name="Grupo 133891" transform="translate(50.648 77.218)">
          <g id="Grupo_133890" data-name="Grupo 133890">
            <path id="Trazado_191587" data-name="Trazado 191587" d="M1085.3,2773.118c0,.1-6.4.174-14.3.174s-14.3-.078-14.3-.174,6.4-.174,14.3-.174S1085.3,2773.022,1085.3,2773.118Z" transform="translate(-1056.7 -2772.944)" fill="#1a2e35"/>
          </g>
        </g>
        <g id="Grupo_133893" data-name="Grupo 133893" transform="translate(50.648 87.145)">
          <g id="Grupo_133892" data-name="Grupo 133892">
            <path id="Trazado_191588" data-name="Trazado 191588" d="M1073.877,2783.412c0,.1-3.846.175-8.588.175s-8.589-.078-8.589-.175,3.845-.174,8.589-.174S1073.877,2783.317,1073.877,2783.412Z" transform="translate(-1056.7 -2783.239)" fill="#1a2e35"/>
          </g>
        </g>
        <g id="Grupo_133895" data-name="Grupo 133895" transform="translate(50.648 94.376)">
          <g id="Grupo_133894" data-name="Grupo 133894">
            <path id="Trazado_191589" data-name="Trazado 191589" d="M1088.06,2790.911c0,.1-7.021.174-15.679.174s-15.681-.078-15.681-.174,7.019-.174,15.681-.174S1088.06,2790.815,1088.06,2790.911Z" transform="translate(-1056.7 -2790.737)" fill="#1a2e35"/>
          </g>
        </g>
        <g id="Grupo_133897" data-name="Grupo 133897" transform="translate(50.648 79.915)">
          <g id="Grupo_133896" data-name="Grupo 133896">
            <path id="Trazado_191590" data-name="Trazado 191590" d="M1073.877,2775.915c0,.1-3.846.175-8.588.175s-8.589-.078-8.589-.175,3.845-.174,8.589-.174S1073.877,2775.818,1073.877,2775.915Z" transform="translate(-1056.7 -2775.741)" fill="#1a2e35"/>
          </g>
        </g>
        <g id="Grupo_133899" data-name="Grupo 133899" transform="translate(112.007 77.218)">
          <g id="Grupo_133898" data-name="Grupo 133898">
            <path id="Trazado_191591" data-name="Trazado 191591" d="M1129.451,2773.118a59.746,59.746,0,0,1-9.121,0,60,60,0,0,1,9.121,0Z" transform="translate(-1120.33 -2772.944)" fill="#1a2e35"/>
          </g>
        </g>
        <g id="Grupo_133901" data-name="Grupo 133901" transform="translate(112.007 85.337)">
          <g id="Grupo_133900" data-name="Grupo 133900">
            <path id="Trazado_191592" data-name="Trazado 191592" d="M1129.451,2781.538a59.914,59.914,0,0,1-9.121,0,59.746,59.746,0,0,1,9.121,0Z" transform="translate(-1120.33 -2781.364)" fill="#1a2e35"/>
          </g>
        </g>
        <g id="Grupo_133903" data-name="Grupo 133903" transform="translate(112.007 94.376)">
          <g id="Grupo_133902" data-name="Grupo 133902">
            <path id="Trazado_191593" data-name="Trazado 191593" d="M1129.451,2790.911a59.746,59.746,0,0,1-9.121,0,60,60,0,0,1,9.121,0Z" transform="translate(-1120.33 -2790.737)" fill="#1a2e35"/>
          </g>
        </g>
        <g id="Grupo_133905" data-name="Grupo 133905" transform="translate(106.204 105.427)">
          <g id="Grupo_133904" data-name="Grupo 133904">
            <path id="Trazado_191594" data-name="Trazado 191594" d="M1128.735,2802.371c0,.1-3.229.174-7.211.174s-7.212-.077-7.212-.174,3.229-.174,7.212-.174S1128.735,2802.275,1128.735,2802.371Z" transform="translate(-1114.312 -2802.197)" fill="#1a2e35"/>
          </g>
        </g>
        <g id="Grupo_133907" data-name="Grupo 133907" transform="translate(85.506 72.94)">
          <g id="Grupo_133906" data-name="Grupo 133906">
            <path id="Trazado_191595" data-name="Trazado 191595" d="M1093.021,2805.34c-.1,0-.173-8.246-.173-18.415s.077-18.417.173-18.417.175,8.243.175,18.417S1093.118,2805.34,1093.021,2805.34Z" transform="translate(-1092.848 -2768.508)" fill="#e1e1e1"/>
          </g>
        </g>
        <g id="Grupo_133909" data-name="Grupo 133909" transform="translate(85.046 99.423)">
          <g id="Grupo_133908" data-name="Grupo 133908">
            <path id="Trazado_191596" data-name="Trazado 191596" d="M1130.684,2796.144c0,.1-8.578.175-19.156.175s-19.158-.078-19.158-.175,8.576-.174,19.158-.174S1130.684,2796.049,1130.684,2796.144Z" transform="translate(-1092.371 -2795.971)" fill="#e1e1e1"/>
          </g>
        </g>
        <g id="Grupo_133910" data-name="Grupo 133910" transform="translate(46.422 127.193)">
          <rect id="Rectángulo_41722" data-name="Rectángulo 41722" width="77.586" height="9.379" fill="#f5f5f5"/>
        </g>
        <g id="Grupo_133911" data-name="Grupo 133911" transform="translate(46.294 118.486)">
          <rect id="Rectángulo_41723" data-name="Rectángulo 41723" width="77.714" height="9.043" fill="#feca2e"/>
        </g>
        <g id="Grupo_133913" data-name="Grupo 133913" transform="translate(49.969 132.171)">
          <g id="Grupo_133912" data-name="Grupo 133912">
            <path id="Trazado_191597" data-name="Trazado 191597" d="M1088.69,2830.106c0,.1-7.32.174-16.347.174s-16.349-.078-16.349-.174,7.318-.174,16.349-.174S1088.69,2830.01,1088.69,2830.106Z" transform="translate(-1055.995 -2829.932)" fill="#1a2e35"/>
          </g>
        </g>
        <g id="Grupo_133915" data-name="Grupo 133915" transform="translate(106.204 131.708)">
          <g id="Grupo_133914" data-name="Grupo 133914">
            <path id="Trazado_191598" data-name="Trazado 191598" d="M1128.735,2829.626c0,.1-3.229.174-7.211.174s-7.212-.078-7.212-.174,3.229-.174,7.212-.174S1128.735,2829.53,1128.735,2829.626Z" transform="translate(-1114.312 -2829.452)" fill="#1a2e35"/>
          </g>
        </g>
        <g id="Grupo_133916" data-name="Grupo 133916" transform="translate(165.132 95.553)">
          <rect id="Rectángulo_41724" data-name="Rectángulo 41724" width="6.714" height="22.77" fill="#feca2e"/>
        </g>
        <g id="Grupo_133917" data-name="Grupo 133917" transform="translate(205.91 99.688)">
          <rect id="Rectángulo_41725" data-name="Rectángulo 41725" width="6.714" height="18.635" fill="#feca2e"/>
        </g>
        <g id="Grupo_133918" data-name="Grupo 133918" transform="translate(233.095 104.895)">
          <rect id="Rectángulo_41726" data-name="Rectángulo 41726" width="6.714" height="13.428" fill="#1a2e35"/>
        </g>
        <g id="Grupo_133919" data-name="Grupo 133919" transform="translate(178.725 81.588)">
          <rect id="Rectángulo_41727" data-name="Rectángulo 41727" width="6.714" height="36.736" fill="#375a64"/>
        </g>
        <g id="Grupo_133920" data-name="Grupo 133920" transform="translate(192.318 81.588)">
          <rect id="Rectángulo_41728" data-name="Rectángulo 41728" width="6.714" height="36.736" fill="#1a2e35"/>
        </g>
        <g id="Grupo_133921" data-name="Grupo 133921" transform="translate(219.503 73.108)">
          <rect id="Rectángulo_41729" data-name="Rectángulo 41729" width="6.714" height="45.215" fill="#375a64"/>
        </g>
        <g id="Grupo_133922" data-name="Grupo 133922" transform="translate(7.351 16.126)">
          <rect id="Rectángulo_41730" data-name="Rectángulo 41730" width="5.953" height="5.953" fill="#feca2e"/>
        </g>
        <g id="Grupo_133923" data-name="Grupo 133923" transform="translate(10.154 18.062)">
          <path id="Trazado_191599" data-name="Trazado 191599" d="M1021.328,2718.22h-6.622V2711.6h6.622Zm-5.954-.668h5.285v-5.285h-5.285Z" transform="translate(-1014.706 -2711.598)" fill="#feca2e"/>
        </g>
        <g id="Grupo_133924" data-name="Grupo 133924" transform="translate(25.495 17.707)">
          <rect id="Rectángulo_41731" data-name="Rectángulo 41731" width="5.564" height="5.564" fill="#e1e1e1"/>
        </g>
        <g id="Grupo_133925" data-name="Grupo 133925" transform="translate(34.536 17.707)">
          <rect id="Rectángulo_41732" data-name="Rectángulo 41732" width="5.564" height="5.564" fill="#e1e1e1"/>
        </g>
        <g id="Grupo_133926" data-name="Grupo 133926" transform="translate(43.576 17.707)">
          <rect id="Rectángulo_41733" data-name="Rectángulo 41733" width="5.564" height="5.564" fill="#e1e1e1"/>
        </g>
        <g id="Grupo_133927" data-name="Grupo 133927" transform="translate(52.617 17.707)">
          <rect id="Rectángulo_41734" data-name="Rectángulo 41734" width="5.564" height="5.564" fill="#e1e1e1"/>
        </g>
        <g id="Grupo_133928" data-name="Grupo 133928" transform="translate(61.658 17.707)">
          <rect id="Rectángulo_41735" data-name="Rectángulo 41735" width="5.564" height="5.564" fill="#e1e1e1"/>
        </g>
        <g id="Grupo_133929" data-name="Grupo 133929" transform="translate(75.494 17.65)">
          <rect id="Rectángulo_41736" data-name="Rectángulo 41736" width="58.79" height="5.678" fill="#e1e1e1"/>
        </g>
        <g id="Grupo_133930" data-name="Grupo 133930" transform="translate(142.353 17.65)">
          <rect id="Rectángulo_41737" data-name="Rectángulo 41737" width="58.79" height="5.678" fill="#e1e1e1"/>
        </g>
        <g id="Grupo_133931" data-name="Grupo 133931" transform="translate(208.374 17.65)">
          <rect id="Rectángulo_41738" data-name="Rectángulo 41738" width="50.687" height="5.678" fill="#e1e1e1"/>
        </g>
        <g id="Grupo_133933" data-name="Grupo 133933" transform="translate(0.211)">
          <g id="Grupo_133932" data-name="Grupo 133932">
            <path id="Trazado_191600" data-name="Trazado 191600" d="M1263.359,2833.362c0-1.057-.05-54-.132-140.321l.132.132-258.771.042h-.018l.174-.174c0,49.58-.008,97.046-.011,140.321l-.163-.163,258.789.163-258.789.163h-.163v-.163c0-43.275-.008-90.74-.012-140.321v-.175h.193l258.771.042h.132v.132C1263.41,2779.358,1263.36,2832.306,1263.359,2833.362Z" transform="translate(-1004.395 -2692.867)" fill="#1a2e35"/>
          </g>
        </g>
      </g>
    </g>
    <g id="Grupo_133941" data-name="Grupo 133941" transform="translate(1137.184 2848.305)">
      <g id="Grupo_133936" data-name="Grupo 133936">
        <path id="Trazado_191601" data-name="Trazado 191601" d="M1145.608,2854.06l18.035,19.265,27-8,4.752,10.521s-31.316,11.65-34.056,10.591-19.225-15.048-19.225-15.048Z" transform="translate(-1142.109 -2854.06)" fill="#31b2bc"/>
      </g>
      <g id="Grupo_133938" data-name="Grupo 133938" transform="translate(6.07 12.27)">
        <g id="Grupo_133937" data-name="Grupo 133937">
          <path id="Trazado_191602" data-name="Trazado 191602" d="M1156.742,2866.786a12.473,12.473,0,0,1-1.276,1.385c-.8.836-1.9,2.007-3.037,3.358-1.872,2.206-3.269,4.217-3.749,4.819l-.277.347.188-.393c.089-.187.139-.27.155-.263s0,.1-.062.3l-.089-.045a33.922,33.922,0,0,1,3.567-4.99,39.037,39.037,0,0,1,3.13-3.307A8.519,8.519,0,0,1,1156.742,2866.786Z" transform="translate(-1148.404 -2866.784)" fill="#fafafa"/>
        </g>
      </g>
      <g id="Grupo_133940" data-name="Grupo 133940" transform="translate(3.888 10.041)">
        <g id="Grupo_133939" data-name="Grupo 133939">
          <path id="Trazado_191603" data-name="Trazado 191603" d="M1155.21,2864.474a15.945,15.945,0,0,1-1.462,1.436c-.912.873-2.138,2.112-3.391,3.57s-2.291,2.859-3.015,3.893a16.215,16.215,0,0,1-1.2,1.662,9.561,9.561,0,0,1,.993-1.8,34.893,34.893,0,0,1,6.445-7.507A9.53,9.53,0,0,1,1155.21,2864.474Z" transform="translate(-1146.141 -2864.472)" fill="#fafafa"/>
        </g>
      </g>
    </g>
    <g id="Grupo_134028" data-name="Grupo 134028" transform="translate(1176.398 2914.273)">
      <g id="Grupo_134027" data-name="Grupo 134027">
        <g id="Grupo_134026" data-name="Grupo 134026">
          <g id="Grupo_134025" data-name="Grupo 134025">
            <g id="Grupo_133950" data-name="Grupo 133950">
              <g id="Grupo_133945" data-name="Grupo 133945">
                <g id="Grupo_133944" data-name="Grupo 133944">
                  <g id="Grupo_133943" data-name="Grupo 133943">
                    <g id="Grupo_133942" data-name="Grupo 133942">
                      <path id="Trazado_191604" data-name="Trazado 191604" d="M1194.888,2924.563l-.446-2.092-11.667,2.3.777,4.556.734-.069c3.261-.333,16.561-1.926,18.619-2.924C1205.2,2925.224,1194.888,2924.563,1194.888,2924.563Z" transform="translate(-1182.775 -2922.471)" fill="#4dd0e1"/>
                    </g>
                  </g>
                </g>
              </g>
              <g id="Grupo_133949" data-name="Grupo 133949" transform="translate(0.19 3.221)" opacity="0.5">
                <g id="Grupo_133948" data-name="Grupo 133948">
                  <g id="Grupo_133947" data-name="Grupo 133947">
                    <g id="Grupo_133946" data-name="Grupo 133946">
                      <path id="Trazado_191605" data-name="Trazado 191605" d="M1187.792,2928.684a4.183,4.183,0,0,0-1.827-2.347,3.46,3.46,0,0,0-2.993-.334l.573,3.278Z" transform="translate(-1182.972 -2925.811)" fill="#fff"/>
                    </g>
                  </g>
                </g>
              </g>
            </g>
            <g id="Grupo_133954" data-name="Grupo 133954" transform="translate(0.754 2.588)">
              <g id="Grupo_133953" data-name="Grupo 133953">
                <g id="Grupo_133952" data-name="Grupo 133952">
                  <g id="Grupo_133951" data-name="Grupo 133951" opacity="0.5">
                    <path id="Trazado_191606" data-name="Trazado 191606" d="M1199.982,2925.155s3.648.452,3.3,1.1-13.724,2.759-19.706,3.175l-.023-.264,15.627-2.334S1199.3,2925.292,1199.982,2925.155Z" transform="translate(-1183.557 -2925.155)" fill="#fff"/>
                  </g>
                </g>
              </g>
            </g>
            <g id="Grupo_133959" data-name="Grupo 133959" transform="translate(0.569 3.488)">
              <g id="Grupo_133958" data-name="Grupo 133958">
                <g id="Grupo_133957" data-name="Grupo 133957">
                  <g id="Grupo_133956" data-name="Grupo 133956">
                    <g id="Grupo_133955" data-name="Grupo 133955">
                      <path id="Trazado_191607" data-name="Trazado 191607" d="M1183.365,2929.216a1,1,0,0,0,.205-.01l.584-.056,2.144-.246c1.809-.219,4.3-.555,7.052-.988s5.226-.878,7.015-1.225l2.116-.425.573-.125a1.129,1.129,0,0,0,.2-.053,1.071,1.071,0,0,0-.2.025l-.579.1-2.123.38c-1.794.321-4.274.75-7.019,1.183s-5.237.784-7.042,1.029l-2.138.29-.582.083A1.175,1.175,0,0,0,1183.365,2929.216Z" transform="translate(-1183.365 -2926.088)" fill="#1a2e35"/>
                    </g>
                  </g>
                </g>
              </g>
            </g>
            <g id="Grupo_133964" data-name="Grupo 133964" transform="translate(16.35 2.431)">
              <g id="Grupo_133963" data-name="Grupo 133963">
                <g id="Grupo_133962" data-name="Grupo 133962">
                  <g id="Grupo_133961" data-name="Grupo 133961">
                    <g id="Grupo_133960" data-name="Grupo 133960">
                      <path id="Trazado_191608" data-name="Trazado 191608" d="M1199.787,2927a4.868,4.868,0,0,1,.237-1.079,4.923,4.923,0,0,1,.6-.93,1.915,1.915,0,0,0-.834,2.01Z" transform="translate(-1199.73 -2924.992)" fill="#1a2e35"/>
                    </g>
                  </g>
                </g>
              </g>
            </g>
            <g id="Grupo_133969" data-name="Grupo 133969" transform="translate(12.663 2.162)">
              <g id="Grupo_133968" data-name="Grupo 133968">
                <g id="Grupo_133967" data-name="Grupo 133967">
                  <g id="Grupo_133966" data-name="Grupo 133966">
                    <g id="Grupo_133965" data-name="Grupo 133965">
                      <path id="Trazado_191609" data-name="Trazado 191609" d="M1195.916,2925.787c.037.016.171-.212.3-.508s.2-.55.166-.565-.17.211-.3.508S1195.879,2925.771,1195.916,2925.787Z" transform="translate(-1195.906 -2924.713)" fill="#1a2e35"/>
                    </g>
                  </g>
                </g>
              </g>
            </g>
            <g id="Grupo_133974" data-name="Grupo 133974" transform="translate(11.639 2.109)">
              <g id="Grupo_133973" data-name="Grupo 133973">
                <g id="Grupo_133972" data-name="Grupo 133972">
                  <g id="Grupo_133971" data-name="Grupo 133971">
                    <g id="Grupo_133970" data-name="Grupo 133970">
                      <path id="Trazado_191610" data-name="Trazado 191610" d="M1194.85,2925.433c.031.025.2-.127.369-.341s.288-.406.258-.431-.2.127-.37.34S1194.819,2925.408,1194.85,2925.433Z" transform="translate(-1194.845 -2924.658)" fill="#1a2e35"/>
                    </g>
                  </g>
                </g>
              </g>
            </g>
            <g id="Grupo_133979" data-name="Grupo 133979" transform="translate(10.869 1.668)">
              <g id="Grupo_133978" data-name="Grupo 133978">
                <g id="Grupo_133977" data-name="Grupo 133977">
                  <g id="Grupo_133976" data-name="Grupo 133976">
                    <g id="Grupo_133975" data-name="Grupo 133975">
                      <path id="Trazado_191611" data-name="Trazado 191611" d="M1194.047,2924.406a2.7,2.7,0,1,0,.6-.161A1.421,1.421,0,0,0,1194.047,2924.406Z" transform="translate(-1194.047 -2924.201)" fill="#1a2e35"/>
                    </g>
                  </g>
                </g>
              </g>
            </g>
            <g id="Grupo_133984" data-name="Grupo 133984" transform="translate(10.54 0.999)">
              <g id="Grupo_133983" data-name="Grupo 133983">
                <g id="Grupo_133982" data-name="Grupo 133982">
                  <g id="Grupo_133981" data-name="Grupo 133981">
                    <g id="Grupo_133980" data-name="Grupo 133980">
                      <path id="Trazado_191612" data-name="Trazado 191612" d="M1193.7,2923.633a1.745,1.745,0,0,0,1.4-.115,3.839,3.839,0,0,0-.7.063A3.927,3.927,0,0,0,1193.7,2923.633Z" transform="translate(-1193.705 -2923.507)" fill="#1a2e35"/>
                    </g>
                  </g>
                </g>
              </g>
            </g>
            <g id="Grupo_133989" data-name="Grupo 133989" transform="translate(12.908 0.846)">
              <g id="Grupo_133988" data-name="Grupo 133988">
                <g id="Grupo_133987" data-name="Grupo 133987">
                  <g id="Grupo_133986" data-name="Grupo 133986">
                    <g id="Grupo_133985" data-name="Grupo 133985">
                      <path id="Trazado_191613" data-name="Trazado 191613" d="M1196.161,2924.653a2.185,2.185,0,0,0,.752-.124,4.454,4.454,0,0,0,.773-.3,2.206,2.206,0,0,0,.429-.261.411.411,0,0,0,.15-.263.3.3,0,0,0-.162-.283,1.4,1.4,0,0,0-1.643.673,1.367,1.367,0,0,0-.167.542.438.438,0,0,0,.013.206,2.192,2.192,0,0,1,.242-.7,1.37,1.37,0,0,1,.577-.519,1.177,1.177,0,0,1,.907-.081c.134.07.109.218-.011.318a2.242,2.242,0,0,1-.394.247,5.2,5.2,0,0,1-.743.325C1196.444,2924.584,1196.157,2924.629,1196.161,2924.653Z" transform="translate(-1196.161 -2923.349)" fill="#1a2e35"/>
                    </g>
                  </g>
                </g>
              </g>
            </g>
            <g id="Grupo_133994" data-name="Grupo 133994" transform="translate(11.939 0.806)">
              <g id="Grupo_133993" data-name="Grupo 133993">
                <g id="Grupo_133992" data-name="Grupo 133992">
                  <g id="Grupo_133991" data-name="Grupo 133991">
                    <g id="Grupo_133990" data-name="Grupo 133990">
                      <path id="Trazado_191614" data-name="Trazado 191614" d="M1196.326,2924.658a.75.75,0,0,0,0-.536,1.25,1.25,0,0,0-.293-.518.765.765,0,0,0-.687-.284.3.3,0,0,0-.177.384.826.826,0,0,0,.181.316,2.291,2.291,0,0,0,.428.4,1.092,1.092,0,0,0,.479.237c.01-.02-.172-.112-.417-.317a2.582,2.582,0,0,1-.387-.4c-.129-.143-.245-.417-.062-.481.186-.048.408.109.547.241a1.269,1.269,0,0,1,.29.456A2.754,2.754,0,0,1,1196.326,2924.658Z" transform="translate(-1195.156 -2923.307)" fill="#1a2e35"/>
                    </g>
                  </g>
                </g>
              </g>
            </g>
            <g id="Grupo_133999" data-name="Grupo 133999" transform="translate(0.302 3.151)">
              <g id="Grupo_133998" data-name="Grupo 133998">
                <g id="Grupo_133997" data-name="Grupo 133997">
                  <g id="Grupo_133996" data-name="Grupo 133996">
                    <g id="Grupo_133995" data-name="Grupo 133995">
                      <path id="Trazado_191615" data-name="Trazado 191615" d="M1183.088,2925.96c.007.026.331-.085.87-.106a3.719,3.719,0,0,1,3.456,1.961c.259.474.329.809.355.8a.688.688,0,0,0-.038-.236,3.12,3.12,0,0,0-.227-.612,3.607,3.607,0,0,0-3.552-2.015,3.1,3.1,0,0,0-.642.119A.727.727,0,0,0,1183.088,2925.96Z" transform="translate(-1183.088 -2925.739)" fill="#1a2e35"/>
                    </g>
                  </g>
                </g>
              </g>
            </g>
            <g id="Grupo_134004" data-name="Grupo 134004" transform="translate(6.305 4.203)">
              <g id="Grupo_134003" data-name="Grupo 134003">
                <g id="Grupo_134002" data-name="Grupo 134002">
                  <g id="Grupo_134001" data-name="Grupo 134001">
                    <g id="Grupo_134000" data-name="Grupo 134000">
                      <path id="Trazado_191616" data-name="Trazado 191616" d="M1189.313,2927.344a9.736,9.736,0,0,0,3.43-.508c-.01-.041-.769.127-1.714.266S1189.311,2927.3,1189.313,2927.344Z" transform="translate(-1189.313 -2926.83)" fill="#1a2e35"/>
                    </g>
                  </g>
                </g>
              </g>
            </g>
            <g id="Grupo_134009" data-name="Grupo 134009" transform="translate(4.004 5.07)">
              <g id="Grupo_134008" data-name="Grupo 134008">
                <g id="Grupo_134007" data-name="Grupo 134007">
                  <g id="Grupo_134006" data-name="Grupo 134006">
                    <g id="Grupo_134005" data-name="Grupo 134005">
                      <path id="Trazado_191617" data-name="Trazado 191617" d="M1186.931,2927.736c-.024.034.089.152.194.316s.174.312.213.3.032-.195-.093-.382S1186.952,2927.7,1186.931,2927.736Z" transform="translate(-1186.927 -2927.729)" fill="#1a2e35"/>
                    </g>
                  </g>
                </g>
              </g>
            </g>
            <g id="Grupo_134014" data-name="Grupo 134014" transform="translate(2.968 4.128)">
              <g id="Grupo_134013" data-name="Grupo 134013">
                <g id="Grupo_134012" data-name="Grupo 134012">
                  <g id="Grupo_134011" data-name="Grupo 134011">
                    <g id="Grupo_134010" data-name="Grupo 134010">
                      <path id="Trazado_191618" data-name="Trazado 191618" d="M1185.857,2926.761c-.023.032.071.142.212.246s.274.162.3.13-.071-.142-.212-.246S1185.88,2926.729,1185.857,2926.761Z" transform="translate(-1185.853 -2926.752)" fill="#1a2e35"/>
                    </g>
                  </g>
                </g>
              </g>
            </g>
            <g id="Grupo_134019" data-name="Grupo 134019" transform="translate(1.654 3.736)">
              <g id="Grupo_134018" data-name="Grupo 134018">
                <g id="Grupo_134017" data-name="Grupo 134017">
                  <g id="Grupo_134016" data-name="Grupo 134016">
                    <g id="Grupo_134015" data-name="Grupo 134015">
                      <path id="Trazado_191619" data-name="Trazado 191619" d="M1184.492,2926.45c.014.039.17.012.352.045s.32.106.346.074-.1-.177-.322-.215S1184.475,2926.416,1184.492,2926.45Z" transform="translate(-1184.491 -2926.346)" fill="#1a2e35"/>
                    </g>
                  </g>
                </g>
              </g>
            </g>
            <g id="Grupo_134024" data-name="Grupo 134024" transform="translate(0.737 3.707)">
              <g id="Grupo_134023" data-name="Grupo 134023">
                <g id="Grupo_134022" data-name="Grupo 134022">
                  <g id="Grupo_134021" data-name="Grupo 134021">
                    <g id="Grupo_134020" data-name="Grupo 134020">
                      <path id="Trazado_191620" data-name="Trazado 191620" d="M1183.54,2926.356c-.009.039.068.088.172.11s.193.01.2-.03-.068-.087-.172-.11S1183.548,2926.317,1183.54,2926.356Z" transform="translate(-1183.539 -2926.315)" fill="#1a2e35"/>
                    </g>
                  </g>
                </g>
              </g>
            </g>
          </g>
        </g>
      </g>
    </g>
    <g id="Grupo_134040" data-name="Grupo 134040" transform="translate(1107.252 2860.576)">
      <g id="Grupo_134037" data-name="Grupo 134037">
        <g id="Grupo_134029" data-name="Grupo 134029" transform="translate(12.757)">
          <path id="Trazado_191621" data-name="Trazado 191621" d="M1124.3,2908.589l40.12-37.833a13.19,13.19,0,0,1,9.432-3.97h0q.395,0,.8.02a13.829,13.829,0,0,1,12.754,11.609l8.3,41.685-16.678,4.708-5.989-33.734-19.809,17.9Z" transform="translate(-1124.298 -2866.786)" fill="#1a2e35"/>
        </g>
        <g id="Grupo_134030" data-name="Grupo 134030" transform="translate(0 40.162)">
          <path id="Trazado_191622" data-name="Trazado 191622" d="M1111.143,2914.032c-.17.479-1.281,14.36,16.067,14.36h46.353c5.867,0,10.623-4.468,10.623-9.979h0c0-5.511-4.756-9.978-10.623-9.978h-43.158a11.2,11.2,0,0,0-4.47.927Z" transform="translate(-1111.069 -2908.435)" fill="#1a2e35"/>
        </g>
        <g id="Grupo_134032" data-name="Grupo 134032" transform="translate(23.829 39.976)">
          <g id="Grupo_134031" data-name="Grupo 134031">
            <path id="Trazado_191623" data-name="Trazado 191623" d="M1178.544,2908.428c0,.1-9.574.186-21.381.186s-21.382-.084-21.382-.186,9.572-.186,21.382-.186S1178.544,2908.326,1178.544,2908.428Z" transform="translate(-1135.78 -2908.242)" fill="#375a64"/>
          </g>
        </g>
        <g id="Grupo_134034" data-name="Grupo 134034" transform="translate(60.11 15.444)">
          <g id="Grupo_134033" data-name="Grupo 134033">
            <path id="Trazado_191624" data-name="Trazado 191624" d="M1173.522,2882.8c.112,0,.117,2.006.48,4.437s.926,4.354.819,4.387a18.6,18.6,0,0,1-1.3-8.824Z" transform="translate(-1173.404 -2882.802)" fill="#375a64"/>
          </g>
        </g>
        <g id="Grupo_134036" data-name="Grupo 134036" transform="translate(61.396 15.156)">
          <g id="Grupo_134035" data-name="Grupo 134035">
            <path id="Trazado_191625" data-name="Trazado 191625" d="M1175.538,2882.5a28.009,28.009,0,0,1-.777,9.061c-.105-.018.177-2.034.389-4.53S1175.431,2882.5,1175.538,2882.5Z" transform="translate(-1174.738 -2882.503)" fill="#375a64"/>
          </g>
        </g>
      </g>
      <g id="Grupo_134039" data-name="Grupo 134039" transform="translate(64.085 40.139)">
        <g id="Grupo_134038" data-name="Grupo 134038">
          <path id="Trazado_191626" data-name="Trazado 191626" d="M1178.946,2927.992a12.69,12.69,0,0,0,3.384-1.977,10.363,10.363,0,0,0,2.581-3.328,10.066,10.066,0,0,0-.717-9.881,10.356,10.356,0,0,0-3.035-2.921,12.7,12.7,0,0,0-3.632-1.468.794.794,0,0,1,.277.016,6.517,6.517,0,0,1,.781.14,9.791,9.791,0,0,1,2.7,1.1,10.291,10.291,0,0,1,3.172,2.95,10.209,10.209,0,0,1,.741,10.2,10.291,10.291,0,0,1-2.713,3.377,9.807,9.807,0,0,1-2.516,1.481,6.894,6.894,0,0,1-.753.252A.808.808,0,0,1,1178.946,2927.992Z" transform="translate(-1177.526 -2908.411)" fill="#375a64"/>
        </g>
      </g>
    </g>
    <g id="Grupo_134081" data-name="Grupo 134081" transform="translate(1128.001 2805.506)">
      <g id="Grupo_134042" data-name="Grupo 134042" transform="translate(0 7.036)">
        <g id="Grupo_134041" data-name="Grupo 134041">
          <path id="Trazado_191627" data-name="Trazado 191627" d="M1138.9,2816.973l-.376,2.01-5.822,30.053a6.566,6.566,0,0,0,5.527,7.544h0a6.936,6.936,0,0,0,8.179-5.089c.778-3.687,1.664-7.555,1.664-7.555s4.917.2,7.19-5.8a67.665,67.665,0,0,0,2.623-12.259,6.688,6.688,0,0,0-5.955-7.605Z" transform="translate(-1132.585 -2816.973)" fill="#ffbf9d"/>
        </g>
      </g>
      <g id="Grupo_134048" data-name="Grupo 134048" transform="translate(20.517 17.138)">
        <g id="Grupo_134044" data-name="Grupo 134044" transform="translate(1.554 1.387)">
          <g id="Grupo_134043" data-name="Grupo 134043">
            <path id="Trazado_191628" data-name="Trazado 191628" d="M1157.089,2829.786a.812.812,0,0,1-.933.643.777.777,0,0,1-.671-.887.813.813,0,0,1,.933-.644A.778.778,0,0,1,1157.089,2829.786Z" transform="translate(-1155.474 -2828.888)" fill="#1a2e35"/>
          </g>
        </g>
        <g id="Grupo_134047" data-name="Grupo 134047">
          <g id="Grupo_134046" data-name="Grupo 134046">
            <g id="Grupo_134045" data-name="Grupo 134045">
              <path id="Trazado_191629" data-name="Trazado 191629" d="M1157,2828.654c-.12.083-.63-.488-1.486-.663s-1.573.122-1.643,0c-.037-.056.1-.222.417-.365a2.235,2.235,0,0,1,1.342-.126,2.144,2.144,0,0,1,1.156.656C1157.005,2828.412,1157.056,2828.618,1157,2828.654Z" transform="translate(-1153.862 -2827.449)" fill="#1a2e35"/>
            </g>
          </g>
        </g>
      </g>
      <g id="Grupo_134054" data-name="Grupo 134054" transform="translate(12.071 15.55)">
        <g id="Grupo_134050" data-name="Grupo 134050" transform="translate(1.446 1.031)">
          <g id="Grupo_134049" data-name="Grupo 134049">
            <path id="Trazado_191630" data-name="Trazado 191630" d="M1148.217,2827.769a.812.812,0,0,1-.933.643.775.775,0,0,1-.67-.887.812.812,0,0,1,.933-.644A.777.777,0,0,1,1148.217,2827.769Z" transform="translate(-1146.603 -2826.871)" fill="#1a2e35"/>
          </g>
        </g>
        <g id="Grupo_134053" data-name="Grupo 134053">
          <g id="Grupo_134052" data-name="Grupo 134052">
            <g id="Grupo_134051" data-name="Grupo 134051">
              <path id="Trazado_191631" data-name="Trazado 191631" d="M1148.239,2827.008c-.12.083-.632-.488-1.487-.663s-1.573.122-1.643,0c-.037-.056.1-.222.417-.365a2.229,2.229,0,0,1,1.342-.127,2.141,2.141,0,0,1,1.156.658C1148.246,2826.765,1148.3,2826.972,1148.239,2827.008Z" transform="translate(-1145.103 -2825.802)" fill="#1a2e35"/>
            </g>
          </g>
        </g>
      </g>
      <g id="Grupo_134057" data-name="Grupo 134057" transform="translate(16.994 16.536)">
        <g id="Grupo_134056" data-name="Grupo 134056">
          <g id="Grupo_134055" data-name="Grupo 134055">
            <path id="Trazado_191632" data-name="Trazado 191632" d="M1150.209,2834.037a5.793,5.793,0,0,1,1.442.038c.224.023.44.022.507-.119a1.135,1.135,0,0,0-.012-.679l-.3-1.8a29.211,29.211,0,0,1-.547-4.655,29.306,29.306,0,0,1,.921,4.6q.142.943.271,1.8a1.3,1.3,0,0,1-.064.881.56.56,0,0,1-.425.245,1.512,1.512,0,0,1-.383-.026A5.694,5.694,0,0,1,1150.209,2834.037Z" transform="translate(-1150.209 -2826.825)" fill="#1a2e35"/>
          </g>
        </g>
      </g>
      <g id="Grupo_134059" data-name="Grupo 134059" transform="translate(7.637 30.058)">
        <g id="Grupo_134058" data-name="Grupo 134058">
          <path id="Trazado_191633" data-name="Trazado 191633" d="M1148.351,2844.788a16.107,16.107,0,0,1-7.846-3.94s1.13,4.679,7.458,5.388Z" transform="translate(-1140.505 -2840.848)" fill="#ff9a6c"/>
        </g>
      </g>
      <g id="Grupo_134062" data-name="Grupo 134062" transform="translate(14.083 23.815)">
        <g id="Grupo_134061" data-name="Grupo 134061">
          <g id="Grupo_134060" data-name="Grupo 134060">
            <path id="Trazado_191634" data-name="Trazado 191634" d="M1147.459,2834.375c.141.021-.05.951.609,1.775s1.668.927,1.648,1.059c0,.061-.257.135-.678.06a2.364,2.364,0,0,1-1.387-.832,2.058,2.058,0,0,1-.45-1.476C1147.246,2834.565,1147.4,2834.356,1147.459,2834.375Z" transform="translate(-1147.19 -2834.374)" fill="#1a2e35"/>
          </g>
        </g>
      </g>
      <g id="Grupo_134064" data-name="Grupo 134064" transform="translate(12.137 12.388)">
        <g id="Grupo_134063" data-name="Grupo 134063">
          <path id="Trazado_191635" data-name="Trazado 191635" d="M1149.158,2823.583c-.133.215-.964-.072-1.993-.16-1.028-.108-1.9.017-1.988-.219-.039-.112.147-.3.522-.459a3.477,3.477,0,0,1,3.034.289C1149.071,2823.259,1149.218,2823.48,1149.158,2823.583Z" transform="translate(-1145.172 -2822.523)" fill="#1a2e35"/>
        </g>
      </g>
      <g id="Grupo_134066" data-name="Grupo 134066" transform="translate(20.967 14.558)">
        <g id="Grupo_134065" data-name="Grupo 134065">
          <path id="Trazado_191636" data-name="Trazado 191636" d="M1157.213,2826.017c-.191.163-.738-.161-1.445-.318-.7-.181-1.337-.141-1.432-.373-.041-.112.094-.286.4-.416a2.143,2.143,0,0,1,2.319.556C1157.26,2825.718,1157.3,2825.936,1157.213,2826.017Z" transform="translate(-1154.329 -2824.774)" fill="#1a2e35"/>
        </g>
      </g>
      <g id="Grupo_134072" data-name="Grupo 134072" transform="translate(3.518)">
        <g id="Grupo_134067" data-name="Grupo 134067">
          <path id="Trazado_191637" data-name="Trazado 191637" d="M1164.552,2818.519a2.38,2.38,0,0,0-.171-1.507,1.69,1.69,0,0,0-.687-1.037,1.865,1.865,0,0,0-1.342.077c-1.522.437-3.373.366-4.423-.818-.819-.923-.984-2.336-1.933-3.123-1.044-.865-2.6-.626-3.889-.211s-2.659.967-3.959.58a9.453,9.453,0,0,1-2.466-1.555,6.8,6.8,0,0,0-5.072-1.137,5.53,5.53,0,0,0-4.021,3.178,4.671,4.671,0,0,0,.879,4.961,2.212,2.212,0,0,0,.189.229c-.615,3.222-1.352,8.357.1,8.747,2.133.573,2.9-4.9,2.9-4.9,2.884-.352,3.532-3.174,4.34-3.606s3.913.806,6.436,2.67c3.137,2.316,8.594,2.668,10.5,2.719a2.316,2.316,0,0,0,.5.008h.178l-.021-.026a1.512,1.512,0,0,0,.367-.111,2.79,2.79,0,0,0,1.216-1.621,3.621,3.621,0,0,0,.356-1.807,1.521,1.521,0,0,0-.726-1.1A.955.955,0,0,0,1164.552,2818.519Z" transform="translate(-1136.234 -2809.677)" fill="#1a2e35"/>
        </g>
        <g id="Grupo_134069" data-name="Grupo 134069" transform="translate(3.192 2.09)">
          <g id="Grupo_134068" data-name="Grupo 134068">
            <path id="Trazado_191638" data-name="Trazado 191638" d="M1160.956,2819.873a.647.647,0,0,1,.239-.278,1.164,1.164,0,0,1,1.03-.172,1.178,1.178,0,0,1,.728,1.426,1.157,1.157,0,0,1-.753.769,1.865,1.865,0,0,1-1.2-.02,3.226,3.226,0,0,1-1.7-2.034,10.973,10.973,0,0,0-.6-1.312,2.665,2.665,0,0,0-.989-1.052,1.9,1.9,0,0,0-1.464-.1c-.516.14-1.027.391-1.6.567a3.713,3.713,0,0,1-1.823.1,5.347,5.347,0,0,1-1.726-.708,14,14,0,0,1-2.711-2.379,10.237,10.237,0,0,0-2.53-2.058,4.166,4.166,0,0,0-2.823-.387,4.268,4.268,0,0,0-2.2,1.205,4.335,4.335,0,0,0-1.115,3.423,6.757,6.757,0,0,0,.329,1.337,1.219,1.219,0,0,1-.176-.317,3.942,3.942,0,0,1-.287-1,4.434,4.434,0,0,1,.061-1.655,4.283,4.283,0,0,1,1.01-1.953,4.52,4.52,0,0,1,5.345-.937,10.442,10.442,0,0,1,2.63,2.105,13.878,13.878,0,0,0,2.649,2.321,5.042,5.042,0,0,0,1.61.666,3.377,3.377,0,0,0,1.657-.088c.535-.162,1.05-.413,1.609-.562a2.224,2.224,0,0,1,1.7.135,4.608,4.608,0,0,1,1.7,2.536,3.005,3.005,0,0,0,1.513,1.911,1.65,1.65,0,0,0,1.047.043.956.956,0,0,0,.638-.614,1.026,1.026,0,0,0-.585-1.243,1.124,1.124,0,0,0-.948.1A2.929,2.929,0,0,0,1160.956,2819.873Z" transform="translate(-1139.544 -2811.844)" fill="#375a64"/>
          </g>
        </g>
        <g id="Grupo_134071" data-name="Grupo 134071" transform="translate(5.255 6.113)">
          <g id="Grupo_134070" data-name="Grupo 134070">
            <path id="Trazado_191639" data-name="Trazado 191639" d="M1163.484,2821.223a.627.627,0,0,1-.082.258,2.207,2.207,0,0,1-.451.634,2.407,2.407,0,0,1-1.073.617,2.475,2.475,0,0,1-1.636-.153,3.8,3.8,0,0,1-1.425-1.373,3.148,3.148,0,0,0-.712-.738,1.278,1.278,0,0,0-.981-.189,8.085,8.085,0,0,0-1.118.372,3.921,3.921,0,0,1-1.285.221,5.834,5.834,0,0,1-2.611-.68c-1.651-.857-2.878-2.114-4.205-2.906a5.268,5.268,0,0,0-3.849-.912,3.149,3.149,0,0,0-2.086,1.612,3.647,3.647,0,0,0-.256.976.764.764,0,0,1-.03-.269,2.29,2.29,0,0,1,.162-.761,3.22,3.22,0,0,1,2.149-1.8,5.442,5.442,0,0,1,4.074.876c1.377.807,2.617,2.055,4.2,2.871a5.547,5.547,0,0,0,2.452.649,3.631,3.631,0,0,0,1.18-.194,7.822,7.822,0,0,1,1.17-.374,1.589,1.589,0,0,1,1.206.25,3.422,3.422,0,0,1,.772.82,3.6,3.6,0,0,0,1.3,1.323,2.294,2.294,0,0,0,1.486.187,2.346,2.346,0,0,0,1.026-.527A3.7,3.7,0,0,0,1163.484,2821.223Z" transform="translate(-1141.684 -2816.016)" fill="#375a64"/>
          </g>
        </g>
      </g>
      <g id="Grupo_134080" data-name="Grupo 134080" transform="translate(1.405 14.468)">
        <g id="Grupo_134075" data-name="Grupo 134075">
          <g id="Grupo_134074" data-name="Grupo 134074">
            <g id="Grupo_134073" data-name="Grupo 134073">
              <path id="Trazado_191640" data-name="Trazado 191640" d="M1138.269,2825.239c-.079-.061-3.33-1.972-4.119,1.637s3,3.656,3.027,3.555S1138.269,2825.239,1138.269,2825.239Z" transform="translate(-1134.042 -2824.68)" fill="#ffbf9d"/>
            </g>
          </g>
        </g>
        <g id="Grupo_134079" data-name="Grupo 134079" transform="translate(0.962 1.125)">
          <g id="Grupo_134078" data-name="Grupo 134078">
            <g id="Grupo_134077" data-name="Grupo 134077">
              <g id="Grupo_134076" data-name="Grupo 134076">
                <path id="Trazado_191641" data-name="Trazado 191641" d="M1136.408,2828.865c-.013-.016-.072.03-.189.056a.644.644,0,0,1-.471-.094,1.593,1.593,0,0,1-.416-1.553,2.12,2.12,0,0,1,.373-.861.744.744,0,0,1,.578-.38.327.327,0,0,1,.334.254c.026.112-.013.178.006.189s.091-.043.094-.2a.417.417,0,0,0-.093-.258.484.484,0,0,0-.328-.167.906.906,0,0,0-.779.416,2.189,2.189,0,0,0-.438.958,1.671,1.671,0,0,0,.577,1.76.692.692,0,0,0,.6.03C1136.383,2828.951,1136.42,2828.874,1136.408,2828.865Z" transform="translate(-1135.04 -2825.846)" fill="#ff9a6c"/>
              </g>
            </g>
          </g>
        </g>
      </g>
    </g>
    <g id="Grupo_134094" data-name="Grupo 134094" transform="translate(1185.855 2858.211)">
      <g id="Grupo_134084" data-name="Grupo 134084">
        <g id="Grupo_134083" data-name="Grupo 134083">
          <g id="Grupo_134082" data-name="Grupo 134082">
            <path id="Trazado_191642" data-name="Trazado 191642" d="M1199.406,2865.826c1.038.148,7.676,1.152,8.3,1.65s.615,1.188-.135,1.363a41.323,41.323,0,0,1-4.944-.14s5.411.129,5.582.7c.256.85-1.668,1.319-5.287.757,0,0,5.517-.587,5.458.774-.029.665-4.959.727-4.959.727-.117.379,4.968-.683,5.114.148.067.385-.633.78-3.209,1.141-1.555.218-4.13.539-6.687.884l.009.034-2.8.395-3.274-7.392c.253-.249,1.8-1.213,2.843-1.941a3.288,3.288,0,0,1,2.243-.568h0a2.035,2.035,0,0,1,1.739,1.473Z" transform="translate(-1192.582 -2864.333)" fill="#ffbf9d"/>
          </g>
        </g>
      </g>
      <g id="Grupo_134087" data-name="Grupo 134087" transform="translate(9.5 4.024)">
        <g id="Grupo_134086" data-name="Grupo 134086">
          <g id="Grupo_134085" data-name="Grupo 134085">
            <path id="Trazado_191643" data-name="Trazado 191643" d="M1207.595,2869.131a66.889,66.889,0,0,1-5.161-.509,11.453,11.453,0,0,1,5.161.509Z" transform="translate(-1202.434 -2868.506)" fill="#ff9a6c"/>
          </g>
        </g>
      </g>
      <g id="Grupo_134090" data-name="Grupo 134090" transform="translate(10.251 5.483)">
        <g id="Grupo_134089" data-name="Grupo 134089">
          <g id="Grupo_134088" data-name="Grupo 134088">
            <path id="Trazado_191644" data-name="Trazado 191644" d="M1207.817,2870.391a39.1,39.1,0,0,1-4.6-.167,9.606,9.606,0,0,1,4.6.167Z" transform="translate(-1203.213 -2870.018)" fill="#ff9a6c"/>
          </g>
        </g>
      </g>
      <g id="Grupo_134093" data-name="Grupo 134093" transform="translate(10.454 6.964)">
        <g id="Grupo_134092" data-name="Grupo 134092">
          <g id="Grupo_134091" data-name="Grupo 134091">
            <path id="Trazado_191645" data-name="Trazado 191645" d="M1208.013,2871.687a38.838,38.838,0,0,1-4.59.389,9.613,9.613,0,0,1,4.59-.389Z" transform="translate(-1203.423 -2871.554)" fill="#ff9a6c"/>
          </g>
        </g>
      </g>
    </g>
    <g id="Grupo_134095" data-name="Grupo 134095" transform="translate(1209.539 2849.725)">
      <path id="Trazado_191646" data-name="Trazado 191646" d="M1217.965,2855.533l-.794,5.1a2.307,2.307,0,0,0,1.926,2.635l5.134.683Z" transform="translate(-1217.143 -2855.533)" fill="#ff4f5b"/>
    </g>
    <g id="Grupo_134096" data-name="Grupo 134096" transform="translate(1209.539 2849.725)">
      <path id="Trazado_191647" data-name="Trazado 191647" d="M1217.965,2855.533l-.794,5.1a2.307,2.307,0,0,0,1.926,2.635l5.134.683Z" transform="translate(-1217.143 -2855.533)" fill="#bddcf6"/>
    </g>
    <g id="Grupo_134109" data-name="Grupo 134109" transform="translate(1191.093 2825.877)">
      <g id="Grupo_134097" data-name="Grupo 134097">
        <path id="Trazado_191648" data-name="Trazado 191648" d="M1232.434,2884.583l-32.009-4.985a2.849,2.849,0,0,1-2.377-3.254l6.717-43.13a2.85,2.85,0,0,1,3.254-2.377l22.383,3.487,10.555,14.048-5.27,33.834A2.849,2.849,0,0,1,1232.434,2884.583Z" transform="translate(-1198.013 -2830.802)" fill="#bddcf6"/>
      </g>
      <g id="Grupo_134108" data-name="Grupo 134108" transform="translate(8.816 19.811)">
        <g id="Grupo_134099" data-name="Grupo 134099">
          <g id="Grupo_134098" data-name="Grupo 134098">
            <path id="Trazado_191649" data-name="Trazado 191649" d="M1229.284,2876.047a2.7,2.7,0,0,1,.037-.417c.04-.306.089-.685.15-1.151l.6-4.3c.548-3.72,1.314-8.934,2.233-15.175l.209.287-21.84-3.361c-.075.052.631-.461.332-.24v.005l0,.011,0,.022-.007.046-.014.09-.028.18-.056.358-.112.715q-.111.715-.222,1.422l-.439,2.8q-.435,2.776-.853,5.425c-.558,3.522-1.087,6.851-1.573,9.919l-.213-.291,15.724,2.581,4.459.761,1.19.215a3.025,3.025,0,0,1,.425.1,1.63,1.63,0,0,1-.378-.029l-1.151-.149-4.422-.621-15.924-2.35-.252-.037.04-.253c.469-3.071.979-6.4,1.518-9.928q.408-2.646.837-5.427.215-1.388.435-2.8.11-.708.221-1.421l.112-.716.056-.359.028-.179.014-.09.008-.045,0-.022,0-.011v-.006c-.3.217.407-.3.337-.248l21.829,3.441.251.04-.041.248-2.513,15.294c-.3,1.776-.547,3.193-.724,4.226l-.2,1.1A1.593,1.593,0,0,1,1229.284,2876.047Z" transform="translate(-1207.156 -2851.347)" fill="#fff"/>
          </g>
        </g>
        <g id="Grupo_134101" data-name="Grupo 134101" transform="translate(10.937 2.21)">
          <g id="Grupo_134100" data-name="Grupo 134100">
            <path id="Trazado_191650" data-name="Trazado 191650" d="M1218.524,2874.646a192.841,192.841,0,0,1,3.272-21.007,193.352,193.352,0,0,1-3.272,21.007Z" transform="translate(-1218.498 -2853.639)" fill="#fff"/>
          </g>
        </g>
        <g id="Grupo_134103" data-name="Grupo 134103" transform="translate(0.927 16.1)">
          <g id="Grupo_134102" data-name="Grupo 134102">
            <path id="Trazado_191651" data-name="Trazado 191651" d="M1230.036,2871.481a210.462,210.462,0,0,1-21.919-3.413,210.233,210.233,0,0,1,21.919,3.413Z" transform="translate(-1208.117 -2868.043)" fill="#fff"/>
          </g>
        </g>
        <g id="Grupo_134105" data-name="Grupo 134105" transform="translate(2.009 10.784)">
          <g id="Grupo_134104" data-name="Grupo 134104">
            <path id="Trazado_191652" data-name="Trazado 191652" d="M1231.16,2865.969a210.336,210.336,0,0,1-21.921-3.414,210.242,210.242,0,0,1,21.921,3.414Z" transform="translate(-1209.24 -2862.53)" fill="#fff"/>
          </g>
        </g>
        <g id="Grupo_134107" data-name="Grupo 134107" transform="translate(2.844 5.428)">
          <g id="Grupo_134106" data-name="Grupo 134106">
            <path id="Trazado_191653" data-name="Trazado 191653" d="M1231.858,2860.39A207.216,207.216,0,0,1,1210.1,2857a206.99,206.99,0,0,1,21.754,3.389Z" transform="translate(-1210.105 -2856.976)" fill="#fff"/>
          </g>
        </g>
      </g>
    </g>
    <g id="Grupo_134110" data-name="Grupo 134110" transform="translate(1138.643 2867.57)">
      <path id="Trazado_191654" data-name="Trazado 191654" d="M1143.621,2906.9v-2.381l33.889.693,19.513-31.176,1.791,1.292-19.991,31.877Z" transform="translate(-1143.621 -2874.038)" fill="#375a64"/>
    </g>
    <g id="Grupo_134111" data-name="Grupo 134111" transform="translate(1152.463 2888.494)">
      <path id="Trazado_191655" data-name="Trazado 191655" d="M1167.578,2897.286l1.706,2.53v5.208a1.13,1.13,0,0,1-1.235-.5,20.875,20.875,0,0,1-.823-3.118l-.825,2.132a1.839,1.839,0,0,1-2.162,1.121l-6.284-1.577,2.568-7.343Z" transform="translate(-1157.953 -2895.737)" fill="#ffbf9d"/>
    </g>
    <g id="Grupo_134115" data-name="Grupo 134115" transform="translate(1188.334 2858.211)">
      <g id="Grupo_134112" data-name="Grupo 134112">
        <path id="Trazado_191656" data-name="Trazado 191656" d="M1198.008,2864.333l5.776,1.839a.947.947,0,0,1-1.032,1c-1.066-.035-3.9-.307-3.9-.307s-.019,2.011-1.67,2.431c0,0-2.1-3.637-2.029-3.741S1198.008,2864.333,1198.008,2864.333Z" transform="translate(-1195.152 -2864.333)" fill="#ffbf9d"/>
      </g>
      <g id="Grupo_134114" data-name="Grupo 134114" transform="translate(1.589 2.452)">
        <g id="Grupo_134113" data-name="Grupo 134113">
          <path id="Trazado_191657" data-name="Trazado 191657" d="M1198.494,2872.054c-.037.008-.088-.212-.273-.542a2.468,2.468,0,0,0-1.1-1.029l-.319-.147.332-.129a3.1,3.1,0,0,0,1.86-3.136l-.022-.195.188.016a13.026,13.026,0,0,1,2.54.324,13.164,13.164,0,0,1-2.56-.01l.166-.179a3.249,3.249,0,0,1-2.067,3.462l.013-.277a2.42,2.42,0,0,1,1.131,1.225C1198.531,2871.815,1198.52,2872.051,1198.494,2872.054Z" transform="translate(-1196.8 -2866.876)" fill="#ff9a6c"/>
        </g>
      </g>
    </g>
    <g id="Grupo_134132" data-name="Grupo 134132" transform="translate(1102.875 2839.748)">
      <g id="Grupo_134127" data-name="Grupo 134127">
        <g id="Grupo_134124" data-name="Grupo 134124">
          <g id="Grupo_134116" data-name="Grupo 134116">
            <path id="Trazado_191658" data-name="Trazado 191658" d="M1131.041,2845.186s-7.574,4.337-10.387,8.557-7.824,9.234-11.276,22.82c-3.013,11.856-4.136,27.939-.874,32.382a20.007,20.007,0,0,0,3.923,4.246l5.855-2.4c6.972-2.5,13.316-4.1,18.787-9.1l11.107-10.134-5.879-4.637s4.472-24.158,3.283-32.6C1144.541,2846.945,1131.041,2845.186,1131.041,2845.186Z" transform="translate(-1106.529 -2845.186)" fill="#4dd0e1"/>
          </g>
          <g id="Grupo_134117" data-name="Grupo 134117" transform="translate(15.174 11.679)">
            <path id="Trazado_191659" data-name="Trazado 191659" d="M1128.7,2857.3l-6.2,28.983a10.376,10.376,0,0,0,6.6,11.922l26.945,5.167,3.36-10.043h0l-21.866-6.821,6.413-28Z" transform="translate(-1122.265 -2857.297)" fill="#4dd0e1"/>
          </g>
          <g id="Grupo_134119" data-name="Grupo 134119" transform="translate(15.173 4.852)">
            <g id="Grupo_134118" data-name="Grupo 134118">
              <path id="Trazado_191660" data-name="Trazado 191660" d="M1122.265,2891.538a.834.834,0,0,1,.043.169c.025.125.059.289.1.5l.073.371.157.431.184.5.3.538a7.181,7.181,0,0,0,2.179,2.3,12.234,12.234,0,0,0,3.953,1.724l26.66,4.876-.18.105,3.505-10.048.112.222-21.87-6.81-.168-.052.043-.172c.381-1.493.789-3.09,1.2-4.7,1.272-5.075,2.463-10.043,3.5-14.864.507-2.412.989-4.788,1.321-7.128.1-.585.095-1.164.148-1.741a7.756,7.756,0,0,0-.191-1.694,7.089,7.089,0,0,0-1.492-2.969,7.3,7.3,0,0,0-5.714-2.559,7.461,7.461,0,0,0-5.3,2.686,13.977,13.977,0,0,0-2.734,5.038,44.428,44.428,0,0,0-1.239,5.217c-1.326,6.717-2.4,12.158-3.144,15.935-.377,1.868-.671,3.324-.874,4.329q-.152.725-.236,1.124c-.055.253-.093.381-.093.381s.012-.133.056-.389.114-.645.2-1.13c.187-1.008.457-2.469.8-4.342.718-3.783,1.752-9.231,3.028-15.958a44.673,44.673,0,0,1,1.225-5.255,14.242,14.242,0,0,1,2.776-5.153,7.768,7.768,0,0,1,5.523-2.807,7.627,7.627,0,0,1,5.985,2.662,7.434,7.434,0,0,1,1.572,3.113,8.069,8.069,0,0,1,.2,1.776c-.051.591-.051,1.2-.148,1.786-.332,2.361-.811,4.74-1.316,7.156-1.033,4.829-2.223,9.8-3.495,14.879-.411,1.612-.82,3.21-1.2,4.7l-.124-.224,21.862,6.834.172.053-.06.169c-1.229,3.5-2.412,6.861-3.529,10.039l-.045.13-.135-.025c-11.03-2.064-20.211-3.747-26.647-5.01a12.275,12.275,0,0,1-3.989-1.788,7.206,7.206,0,0,1-2.182-2.373l-.288-.552-.176-.515c-.052-.158-.1-.3-.147-.44l-.062-.377-.077-.508A.92.92,0,0,1,1122.265,2891.538Z" transform="translate(-1122.264 -2850.218)" fill="#1a2e35"/>
            </g>
          </g>
          <g id="Grupo_134121" data-name="Grupo 134121" transform="translate(26.644 40.935)">
            <g id="Grupo_134120" data-name="Grupo 134120">
              <path id="Trazado_191661" data-name="Trazado 191661" d="M1134.2,2891.382c-.042,0-.08-.339.057-.866a4.045,4.045,0,0,1,2.925-2.809c.531-.115.868-.063.868-.022,0,.06-.318.1-.795.275a4.675,4.675,0,0,0-2.749,2.64C1134.315,2891.069,1134.258,2891.389,1134.2,2891.382Z" transform="translate(-1134.16 -2887.637)" fill="#1a2e35"/>
            </g>
          </g>
          <g id="Grupo_134123" data-name="Grupo 134123" transform="translate(14.124 11.293)" opacity="0.2">
            <g id="Grupo_134122" data-name="Grupo 134122">
              <path id="Trazado_191662" data-name="Trazado 191662" d="M1128.025,2856.9a167.075,167.075,0,0,0-6.49,30.953,24.9,24.9,0,0,0-.143,7.282,8.075,8.075,0,0,0,10.231,7.1c2.236-.424,5.851-.918,7.909-1.89l-12.056-2.486s-7.774-.483-4.436-15.369S1128.025,2856.9,1128.025,2856.9Z" transform="translate(-1121.176 -2856.897)"/>
            </g>
          </g>
        </g>
        <g id="Grupo_134126" data-name="Grupo 134126" transform="translate(35.762 12.528)">
          <g id="Grupo_134125" data-name="Grupo 134125">
            <path id="Trazado_191663" data-name="Trazado 191663" d="M1143.621,2887.389a7.573,7.573,0,0,1,.124-1.154c.114-.8.264-1.85.447-3.128l1.487-10.318c.569-4.032,1.068-7.683,1.4-10.33.161-1.28.294-2.336.393-3.135a7.327,7.327,0,0,1,.175-1.146,7.409,7.409,0,0,1-.04,1.16c-.051.744-.145,1.822-.284,3.149-.274,2.657-.735,6.316-1.3,10.351s-1.143,7.675-1.589,10.307c-.223,1.315-.415,2.379-.556,3.112A7.237,7.237,0,0,1,1143.621,2887.389Z" transform="translate(-1143.615 -2858.178)" fill="#1a2e35"/>
          </g>
        </g>
      </g>
      <g id="Grupo_134129" data-name="Grupo 134129" transform="translate(19.665 18.041)">
        <g id="Grupo_134128" data-name="Grupo 134128">
          <path id="Trazado_191664" data-name="Trazado 191664" d="M1142.622,2866.508c-.022.052-.858-.275-2.238-.7a35.292,35.292,0,0,0-11.116-1.623c-1.445.018-2.339.093-2.345.037a2.207,2.207,0,0,1,.621-.125c.4-.061.989-.117,1.716-.157a29.089,29.089,0,0,1,11.2,1.635c.686.247,1.231.469,1.6.642A2.247,2.247,0,0,1,1142.622,2866.508Z" transform="translate(-1126.922 -2863.895)" fill="#fafafa"/>
        </g>
      </g>
      <g id="Grupo_134131" data-name="Grupo 134131" transform="translate(18.705 21.321)">
        <g id="Grupo_134130" data-name="Grupo 134130">
          <path id="Trazado_191665" data-name="Trazado 191665" d="M1141.869,2869.607c-.021.053-.871-.275-2.275-.688a31.532,31.532,0,0,0-11.3-1.219c-1.46.105-2.36.244-2.369.187a2.33,2.33,0,0,1,.62-.166c.4-.089.993-.182,1.727-.266a26.671,26.671,0,0,1,11.394,1.229c.7.239,1.255.456,1.631.629A2.251,2.251,0,0,1,1141.869,2869.607Z" transform="translate(-1125.927 -2867.297)" fill="#fafafa"/>
        </g>
      </g>
    </g>
    <g id="Grupo_134146" data-name="Grupo 134146" transform="translate(1125.713 2833.683)">
      <g id="Grupo_134133" data-name="Grupo 134133">
        <path id="Trazado_191666" data-name="Trazado 191666" d="M1151.569,2847.243a2.11,2.11,0,0,0-1.353-1.965,5.011,5.011,0,0,0-2.224-.033,11.8,11.8,0,0,1-7.584-1.832c-2.016-1.312-3.641-3.254-5.869-4.164a3.919,3.919,0,0,0-1.815-.342,2.063,2.063,0,0,0-1.571.881,2.526,2.526,0,0,0,.446,2.8,2.337,2.337,0,0,0-1.048,3.283,21.043,21.043,0,0,1,13.8,8.056,6.542,6.542,0,0,0,2.008,2.057,3.447,3.447,0,0,0,4.435-1.767,5.277,5.277,0,0,0-.647-5.057A2.11,2.11,0,0,0,1151.569,2847.243Z" transform="translate(-1130.213 -2838.896)" fill="#375a64"/>
      </g>
      <g id="Grupo_134135" data-name="Grupo 134135" transform="translate(3.288 4.189)">
        <g id="Grupo_134134" data-name="Grupo 134134">
          <path id="Trazado_191667" data-name="Trazado 191667" d="M1150.089,2849.16a2.28,2.28,0,0,1-.647.344,7.394,7.394,0,0,1-1.934.508,8.029,8.029,0,0,1-2.969-.176,9.63,9.63,0,0,1-3.268-1.6c-1.05-.751-1.957-1.568-2.809-2.266a17.586,17.586,0,0,0-2.366-1.7,11.817,11.817,0,0,0-2.472-1.028,2.21,2.21,0,0,1,.727.091,7.685,7.685,0,0,1,1.865.722,15.86,15.86,0,0,1,2.448,1.661c.87.691,1.781,1.5,2.81,2.232a9.688,9.688,0,0,0,3.146,1.571,8.2,8.2,0,0,0,2.861.241A12.792,12.792,0,0,0,1150.089,2849.16Z" transform="translate(-1133.623 -2843.24)" fill="#1a2e35"/>
        </g>
      </g>
      <g id="Grupo_134137" data-name="Grupo 134137" transform="translate(16.958 6.529)">
        <g id="Grupo_134136" data-name="Grupo 134136">
          <path id="Trazado_191668" data-name="Trazado 191668" d="M1148.094,2856.593a4.787,4.787,0,0,0,.472-.181,2.42,2.42,0,0,0,.96-.949,3.442,3.442,0,0,0,.411-1.958,10.245,10.245,0,0,0-.478-2.449,1.316,1.316,0,0,0-1.013-.912l-.124-.01.076-.1a3.1,3.1,0,0,0,.643-1.8,3.028,3.028,0,0,0-.35-1.494,3.732,3.732,0,0,0-.89-1.074,1.72,1.72,0,0,1,.307.219,3.073,3.073,0,0,1,1.05,2.351,3.178,3.178,0,0,1-.654,1.88l-.047-.109a1.448,1.448,0,0,1,1.132,1,10.009,10.009,0,0,1,.476,2.5,3.5,3.5,0,0,1-.454,2.014,2.383,2.383,0,0,1-1.022.946A1.384,1.384,0,0,1,1148.094,2856.593Z" transform="translate(-1147.799 -2845.667)" fill="#fafafa"/>
        </g>
      </g>
      <g id="Grupo_134139" data-name="Grupo 134139" transform="translate(13.223 5.938)">
        <g id="Grupo_134138" data-name="Grupo 134138">
          <path id="Trazado_191669" data-name="Trazado 191669" d="M1143.927,2845.054a3.358,3.358,0,0,1,.755,1.107,4.5,4.5,0,0,1,.188,3.2l-.106.287,0-.061a3.676,3.676,0,0,1,.233,2.981,2.753,2.753,0,0,1-.635,1.067,4.924,4.924,0,0,0,.545-1.1,3.673,3.673,0,0,0-.263-2.881l-.016-.028.012-.033.1-.277a4.551,4.551,0,0,0-.146-3.115A6.466,6.466,0,0,0,1143.927,2845.054Z" transform="translate(-1143.926 -2845.054)" fill="#fafafa"/>
        </g>
      </g>
      <g id="Grupo_134141" data-name="Grupo 134141" transform="translate(8.695 4.537)">
        <g id="Grupo_134140" data-name="Grupo 134140">
          <path id="Trazado_191670" data-name="Trazado 191670" d="M1140.948,2843.6a.78.78,0,0,1,.131.208,2.838,2.838,0,0,1,.22.634,3.331,3.331,0,0,1-.266,2.174,3.222,3.222,0,0,1-.428.646l.016-.04a2.12,2.12,0,0,1-.795,1.474,1.8,1.8,0,0,1-.425.253.437.437,0,0,1-.172.05,4.1,4.1,0,0,0,.542-.37,2.115,2.115,0,0,0,.714-1.416l0-.022.015-.017a3.334,3.334,0,0,0,.406-.62,3.432,3.432,0,0,0,.294-2.094A6.238,6.238,0,0,0,1140.948,2843.6Z" transform="translate(-1139.23 -2843.602)" fill="#fafafa"/>
        </g>
      </g>
      <g id="Grupo_134143" data-name="Grupo 134143" transform="translate(3.948 1.93)">
        <g id="Grupo_134142" data-name="Grupo 134142">
          <path id="Trazado_191671" data-name="Trazado 191671" d="M1137.145,2840.9a4.352,4.352,0,0,0-.7.742,2.957,2.957,0,0,0-.457,2.327l.033.132.018.071-.068.017a2.071,2.071,0,0,0-1.538,1.585,2.888,2.888,0,0,0,0,.968.691.691,0,0,1-.083-.253,2.026,2.026,0,0,1-.009-.733,2.135,2.135,0,0,1,1.6-1.7l-.05.088-.036-.139a2.957,2.957,0,0,1,.513-2.417,2.59,2.59,0,0,1,.54-.541A.952.952,0,0,1,1137.145,2840.9Z" transform="translate(-1134.307 -2840.897)" fill="#fafafa"/>
        </g>
      </g>
      <g id="Grupo_134145" data-name="Grupo 134145" transform="translate(0.602 0.121)">
        <g id="Grupo_134144" data-name="Grupo 134144">
          <path id="Trazado_191672" data-name="Trazado 191672" d="M1131.409,2846.014a.94.94,0,0,1-.214-.25,2.155,2.155,0,0,1-.121-2.164,2.246,2.246,0,0,1,1.243-1.08l-.033.109c-.034-.05-.076-.1-.109-.157a2.347,2.347,0,0,1-.326-1.679,2.249,2.249,0,0,1,1.5-1.7,1.252,1.252,0,0,1,.339-.067,2.733,2.733,0,0,0-1.085.62,2.166,2.166,0,0,0-.623,1.174,2.254,2.254,0,0,0,.316,1.581c.032.053.07.1.1.147l.054.079-.087.03a2.142,2.142,0,0,0-1.176,1.008,2.051,2.051,0,0,0-.223,1.251A2.622,2.622,0,0,0,1131.409,2846.014Z" transform="translate(-1130.837 -2839.022)" fill="#fafafa"/>
        </g>
      </g>
    </g>
  </g>
</svg>
