<svg xmlns="http://www.w3.org/2000/svg" width="295.518" height="210.891" viewBox="0 0 295.518 210.891">
  <g id="Grupo_133820" data-name="Grupo 133820" transform="translate(-1340.131 -2685.209)">
    <g id="Grupo_133596" data-name="Grupo 133596" transform="translate(1374.131 2730.682)">
      <g id="Grupo_133591" data-name="Grupo 133591">
        <g id="Grupo_133588" data-name="Grupo 133588" transform="translate(0 0.001)">
          <rect id="Rectángulo_41685" data-name="Rectángulo 41685" width="66.175" height="44.604" transform="translate(0 11.055) rotate(-9.617)" fill="#afafaf"/>
        </g>
        <g id="Grupo_133590" data-name="Grupo 133590">
          <g id="Grupo_133589" data-name="Grupo 133589">
            <path id="Trazado_191463" data-name="Trazado 191463" d="M1559.139,2670.543a4.651,4.651,0,0,1-.509.688l-1.547,1.9c-1.405,1.684-3.368,4.034-5.778,6.92l-19.283,22.74-.159.187-.216-.12-.52-.288-26.39-14.721-7.964-4.521-2.15-1.256a4.777,4.777,0,0,1-.73-.474,4.692,4.692,0,0,1,.788.367l2.2,1.157,8.057,4.354,26.474,14.568.52.288-.374.068,19.418-22.625,5.924-6.8,1.632-1.828A4.582,4.582,0,0,1,1559.139,2670.543Z" transform="translate(-1493.894 -2670.542)" fill="#fafafa"/>
          </g>
        </g>
      </g>
      <g id="Grupo_133593" data-name="Grupo 133593" transform="translate(7.448 24.697)">
        <g id="Grupo_133592" data-name="Grupo 133592">
          <path id="Trazado_191464" data-name="Trazado 191464" d="M1502.187,2728.365c-.143-.084,3.742-6.944,8.676-15.32s9.052-15.1,9.195-15.016-3.741,6.942-8.677,15.321S1502.329,2728.45,1502.187,2728.365Z" transform="translate(-1502.183 -2698.029)" fill="#fafafa"/>
        </g>
      </g>
      <g id="Grupo_133595" data-name="Grupo 133595" transform="translate(46.915 20.471)">
        <g id="Grupo_133594" data-name="Grupo 133594">
          <path id="Trazado_191465" data-name="Trazado 191465" d="M1546.11,2693.327c.111-.122,5.974,5.041,13.092,11.53s12.8,11.853,12.688,11.975-5.972-5.039-13.093-11.531S1546,2693.451,1546.11,2693.327Z" transform="translate(-1546.108 -2693.325)" fill="#fafafa"/>
        </g>
      </g>
    </g>
    <g id="Grupo_133598" data-name="Grupo 133598" transform="translate(1340.131 2891.362)">
      <g id="Grupo_133597" data-name="Grupo 133597">
        <path id="Trazado_191466" data-name="Trazado 191466" d="M1635.649,2916.475c0,.094-66.159.171-147.752.171-81.621,0-147.766-.076-147.766-.171s66.145-.17,147.766-.17C1569.49,2916.3,1635.649,2916.381,1635.649,2916.475Z" transform="translate(-1340.131 -2916.305)" fill="#1a2e35"/>
      </g>
    </g>
    <g id="Grupo_133693" data-name="Grupo 133693" transform="translate(1420.174 2685.209)">
      <g id="Grupo_133599" data-name="Grupo 133599" transform="translate(0.229 0.231)">
        <path id="Rectángulo_41686" data-name="Rectángulo 41686" d="M4.282,0h115.07a4.282,4.282,0,0,1,4.282,4.282V74.91a9.441,9.441,0,0,1-9.441,9.441H9.441A9.441,9.441,0,0,1,0,74.91V4.282A4.282,4.282,0,0,1,4.282,0Z" fill="#4dd0e1"/>
      </g>
      <g id="Grupo_133601" data-name="Grupo 133601">
        <g id="Grupo_133600" data-name="Grupo 133600">
          <path id="Trazado_191467" data-name="Trazado 191467" d="M1580.664,2801.048s.089-.013.263-.025.437-.011.777-.07a8.286,8.286,0,0,0,6.3-4.447,8.161,8.161,0,0,0,.878-3.015c.075-1.121.015-2.344.029-3.623-.017-10.27-.042-25.115-.073-43.457q-.008-6.881-.015-14.4,0-3.754-.007-7.66,0-1.95-.006-3.937a3.62,3.62,0,0,0-1.893-3.1,3.729,3.729,0,0,0-1.868-.425H1583l-4.148,0-8.491,0-17.724.01-78.922.018h-3.929a6.821,6.821,0,0,0-1.262.058,3.561,3.561,0,0,0-2.925,3.428q0,5.183,0,10.295,0,10.227,0,20.137c0,13.2-.009,25.936-.013,38.067.016,1.508-.036,3.042.034,4.5a8.142,8.142,0,0,0,4.776,6.715,9.126,9.126,0,0,0,4.154.716l16.719.012,30.01.028,43.455.073,11.815.043,3.072.023c.692.009,1.047.024,1.047.024s-.355.016-1.047.023l-3.072.023-11.815.043-43.455.074-30.01.028-16.719.011a9.533,9.533,0,0,1-4.322-.746,8.559,8.559,0,0,1-5.026-7.054c-.075-1.532-.022-3.014-.04-4.538,0-12.131-.009-24.865-.013-38.067q0-9.9,0-20.137,0-5.116,0-10.3a4.006,4.006,0,0,1,3.3-3.873,7.344,7.344,0,0,1,1.342-.066h3.929l78.922.018,17.724.01,8.491.006,4.148,0h2.048a4.115,4.115,0,0,1,2.048.475,3.989,3.989,0,0,1,2.088,3.43q0,1.989,0,3.943,0,3.9-.007,7.66-.007,7.512-.015,14.4c-.031,18.342-.055,33.187-.074,43.457-.021,1.286.034,2.487-.05,3.638a8.29,8.29,0,0,1-.915,3.063,8.509,8.509,0,0,1-3.487,3.522,8.212,8.212,0,0,1-2.931.907A8.129,8.129,0,0,1,1580.664,2801.048Z" transform="translate(-1465.141 -2716.466)" fill="#1a2e35"/>
        </g>
      </g>
      <g id="Grupo_133604" data-name="Grupo 133604" transform="translate(48.343 84.582)">
        <g id="Grupo_133602" data-name="Grupo 133602">
          <path id="Trazado_191468" data-name="Trazado 191468" d="M1529.354,2786.106h-21.473s-6.608,11.017,0,17.624h22.209S1519.143,2796.561,1529.354,2786.106Z" transform="translate(-1504.944 -2786.106)" fill="#4dd0e1"/>
        </g>
        <g id="Grupo_133603" data-name="Grupo 133603" transform="translate(1.848)" opacity="0.3">
          <path id="Trazado_191469" data-name="Trazado 191469" d="M1507.554,2786.106l-1.088,2.184,19.681,1.542a46.144,46.144,0,0,1,2.881-3.726Z" transform="translate(-1506.466 -2786.106)" fill="#4dd0e1"/>
        </g>
      </g>
      <g id="Grupo_133605" data-name="Grupo 133605" transform="translate(62.237 73.96)">
        <circle id="Elipse_4958" data-name="Elipse 4958" cx="2.434" cy="2.434" r="2.434" fill="#fafafa"/>
      </g>
      <g id="Grupo_133692" data-name="Grupo 133692" transform="translate(5.927 4.647)">
        <g id="Grupo_133609" data-name="Grupo 133609">
          <g id="Grupo_133606" data-name="Grupo 133606" transform="translate(0.23 0.23)">
            <rect id="Rectángulo_41687" data-name="Rectángulo 41687" width="111.778" height="64.331" fill="#fafafa"/>
          </g>
          <g id="Grupo_133608" data-name="Grupo 133608">
            <g id="Grupo_133607" data-name="Grupo 133607">
              <path id="Trazado_191470" data-name="Trazado 191470" d="M1582.029,2784.853s-.012-.4-.018-1.162-.011-1.9-.019-3.369c-.011-2.96-.026-7.3-.045-12.876-.023-11.141-.055-27.2-.095-46.923l.177.177-111.77.052h-.009l.231-.23c-.006,22.765-.011,44.52-.016,64.331l-.215-.214,80.39.1,23.091.058,6.156.025,1.592.013c.358,0,.548.012.548.012s-.171.009-.522.013l-1.568.012-6.113.026-23.042.058-80.532.1h-.214v-.215c0-19.811-.01-41.566-.016-64.331v-.231h.238l111.77.054h.177v.177c-.039,19.767-.072,35.865-.093,47.033-.02,5.556-.035,9.885-.045,12.836-.009,1.458-.015,2.573-.019,3.336S1582.029,2784.853,1582.029,2784.853Z" transform="translate(-1470.021 -2720.292)" fill="#1a2e35"/>
            </g>
          </g>
        </g>
        <g id="Grupo_133691" data-name="Grupo 133691" transform="translate(1.345 1.666)">
          <g id="Grupo_133635" data-name="Grupo 133635" transform="translate(0.138 4.01)">
            <g id="Grupo_133610" data-name="Grupo 133610">
              <rect id="Rectángulo_41688" data-name="Rectángulo 41688" width="26.307" height="57.31" fill="#feca2e"/>
            </g>
            <g id="Grupo_133611" data-name="Grupo 133611" transform="translate(0 21.691)" opacity="0.4">
              <rect id="Rectángulo_41689" data-name="Rectángulo 41689" width="26.296" height="5.13"/>
            </g>
            <g id="Grupo_133612" data-name="Grupo 133612" transform="translate(0 32.165)" opacity="0.4">
              <rect id="Rectángulo_41690" data-name="Rectángulo 41690" width="26.296" height="5.13"/>
            </g>
            <g id="Grupo_133613" data-name="Grupo 133613" transform="translate(0 44.676)" opacity="0.4">
              <rect id="Rectángulo_41691" data-name="Rectángulo 41691" width="26.296" height="5.674"/>
            </g>
            <g id="Grupo_133615" data-name="Grupo 133615" transform="translate(4.815 29.282)">
              <g id="Grupo_133614" data-name="Grupo 133614">
                <path id="Trazado_191471" data-name="Trazado 191471" d="M1492.123,2749.3a154.684,154.684,0,0,1-16.917,0,156,156,0,0,1,16.917,0Z" transform="translate(-1475.206 -2749.075)" fill="#1a2e35"/>
              </g>
            </g>
            <g id="Grupo_133617" data-name="Grupo 133617" transform="translate(4.815 23.928)">
              <g id="Grupo_133616" data-name="Grupo 133616">
                <path id="Trazado_191472" data-name="Trazado 191472" d="M1492.123,2744.9a155.338,155.338,0,0,1-16.917,0,156,156,0,0,1,16.917,0Z" transform="translate(-1475.206 -2744.667)" fill="#1a2e35"/>
              </g>
            </g>
            <g id="Grupo_133619" data-name="Grupo 133619" transform="translate(0.241 50.12)">
              <g id="Grupo_133618" data-name="Grupo 133618">
                <path id="Trazado_191473" data-name="Trazado 191473" d="M1497.506,2766.461c0,.128-5.834.23-13.032.23s-13.034-.1-13.034-.23,5.834-.229,13.034-.229S1497.506,2766.335,1497.506,2766.461Z" transform="translate(-1471.44 -2766.232)" fill="#1a2e35"/>
              </g>
            </g>
            <g id="Grupo_133621" data-name="Grupo 133621" transform="translate(4.815 34.687)">
              <g id="Grupo_133620" data-name="Grupo 133620">
                <path id="Trazado_191474" data-name="Trazado 191474" d="M1488.118,2753.756a90.442,90.442,0,0,1-12.912,0,90.729,90.729,0,0,1,12.912,0Z" transform="translate(-1475.206 -2753.526)" fill="#1a2e35"/>
              </g>
            </g>
            <g id="Grupo_133623" data-name="Grupo 133623" transform="translate(6.635 46.667)">
              <g id="Grupo_133622" data-name="Grupo 133622">
                <path id="Trazado_191475" data-name="Trazado 191475" d="M1489.616,2763.62a91,91,0,0,1-12.911,0,90.331,90.331,0,0,1,12.911,0Z" transform="translate(-1476.705 -2763.389)" fill="#1a2e35"/>
              </g>
            </g>
            <g id="Grupo_133625" data-name="Grupo 133625" transform="translate(4.815 40.612)">
              <g id="Grupo_133624" data-name="Grupo 133624">
                <path id="Trazado_191476" data-name="Trazado 191476" d="M1492.123,2758.633a155.011,155.011,0,0,1-16.917,0,156,156,0,0,1,16.917,0Z" transform="translate(-1475.206 -2758.404)" fill="#1a2e35"/>
              </g>
            </g>
            <g id="Grupo_133627" data-name="Grupo 133627" transform="translate(4.815 53.478)">
              <g id="Grupo_133626" data-name="Grupo 133626">
                <path id="Trazado_191477" data-name="Trazado 191477" d="M1492.123,2769.227a156,156,0,0,1-16.917,0,155.833,155.833,0,0,1,16.917,0Z" transform="translate(-1475.206 -2768.997)" fill="#1a2e35"/>
              </g>
            </g>
            <g id="Grupo_133634" data-name="Grupo 133634" transform="translate(6.341 3.674)">
              <g id="Grupo_133631" data-name="Grupo 133631" transform="translate(0.191 0.192)">
                <g id="Grupo_133628" data-name="Grupo 133628">
                  <path id="Trazado_191478" data-name="Trazado 191478" d="M1482.885,2728.149a6.261,6.261,0,0,0-2.826,11.851v-1.915a2.951,2.951,0,1,1,5.9,0v1.785a6.263,6.263,0,0,0-3.075-11.72Zm.124,6.534a2.208,2.208,0,1,1,2.208-2.208A2.208,2.208,0,0,1,1483.009,2734.683Z" transform="translate(-1476.62 -2728.149)" fill="#fafafa"/>
                </g>
                <g id="Grupo_133629" data-name="Grupo 133629" transform="translate(3.438 6.984)">
                  <path id="Trazado_191479" data-name="Trazado 191479" d="M1482.4,2733.9a2.951,2.951,0,0,0-2.95,2.952v1.915a6.23,6.23,0,0,0,5.9-.129v-1.786A2.952,2.952,0,0,0,1482.4,2733.9Z" transform="translate(-1479.451 -2733.899)" fill="#ff4f5b"/>
                </g>
                <g id="Grupo_133630" data-name="Grupo 133630" transform="translate(4.181 2.118)">
                  <path id="Trazado_191480" data-name="Trazado 191480" d="M1482.27,2729.893a2.208,2.208,0,1,0,2.208,2.208A2.208,2.208,0,0,0,1482.27,2729.893Z" transform="translate(-1480.062 -2729.893)" fill="#ff4f5b"/>
                </g>
              </g>
              <g id="Grupo_133633" data-name="Grupo 133633">
                <g id="Grupo_133632" data-name="Grupo 133632">
                  <path id="Trazado_191481" data-name="Trazado 191481" d="M1489.224,2734.447c-.052,0-.028-.557-.283-1.507a6.25,6.25,0,0,0-2.291-3.344,6.1,6.1,0,0,0-5.754-.834,6.005,6.005,0,0,0-2.8,2.116,6.027,6.027,0,0,0,0,7.139,6,6,0,0,0,2.8,2.116,6.088,6.088,0,0,0,5.754-.834,6.247,6.247,0,0,0,2.291-3.343c.255-.949.231-1.511.283-1.509a1.329,1.329,0,0,1,.025.4,4.9,4.9,0,0,1-.135,1.15,6.243,6.243,0,0,1-2.266,3.558,6.341,6.341,0,0,1-2.7,1.232,6.459,6.459,0,0,1-3.4-.259,6.381,6.381,0,0,1-3.021-2.247,6.439,6.439,0,0,1,0-7.674,6.413,6.413,0,0,1,9.116-1.272,6.236,6.236,0,0,1,2.268,3.559,4.888,4.888,0,0,1,.135,1.149A1.313,1.313,0,0,1,1489.224,2734.447Z" transform="translate(-1476.463 -2727.991)" fill="#fafafa"/>
                </g>
              </g>
            </g>
          </g>
          <g id="Grupo_133636" data-name="Grupo 133636" transform="translate(26.446 23.185)">
            <rect id="Rectángulo_41692" data-name="Rectángulo 41692" width="82.373" height="7.707" fill="#ececec"/>
          </g>
          <g id="Grupo_133637" data-name="Grupo 133637" transform="translate(26.446 4.01)">
            <rect id="Rectángulo_41693" data-name="Rectángulo 41693" width="82.373" height="3.866" fill="#f5f5f5"/>
          </g>
          <g id="Grupo_133638" data-name="Grupo 133638" transform="translate(28.724 5.168)">
            <rect id="Rectángulo_41694" data-name="Rectángulo 41694" width="56.896" height="1.513" rx="0.623" fill="#e1e1e1"/>
          </g>
          <g id="Grupo_133644" data-name="Grupo 133644" transform="translate(88.592 5.06)">
            <g id="Grupo_133639" data-name="Grupo 133639" transform="translate(0 0.108)">
              <rect id="Rectángulo_41695" data-name="Rectángulo 41695" width="4.972" height="1.513" rx="0.623" fill="#e1e1e1"/>
            </g>
            <g id="Grupo_133640" data-name="Grupo 133640" transform="translate(7.612)">
              <rect id="Rectángulo_41696" data-name="Rectángulo 41696" width="0.623" height="0.623" fill="#e1e1e1"/>
            </g>
            <g id="Grupo_133641" data-name="Grupo 133641" transform="translate(7.612 0.826)">
              <rect id="Rectángulo_41697" data-name="Rectángulo 41697" width="0.623" height="0.623" fill="#e1e1e1"/>
            </g>
            <g id="Grupo_133642" data-name="Grupo 133642" transform="translate(8.581)">
              <rect id="Rectángulo_41698" data-name="Rectángulo 41698" width="0.623" height="0.623" fill="#e1e1e1"/>
            </g>
            <g id="Grupo_133643" data-name="Grupo 133643" transform="translate(8.581 0.826)">
              <rect id="Rectángulo_41699" data-name="Rectángulo 41699" width="0.623" height="0.623" fill="#e1e1e1"/>
            </g>
          </g>
          <g id="Grupo_133645" data-name="Grupo 133645" transform="translate(26.446 7.876)">
            <rect id="Rectángulo_41700" data-name="Rectángulo 41700" width="82.373" height="7.707" fill="#e1e1e1"/>
          </g>
          <g id="Grupo_133646" data-name="Grupo 133646" transform="translate(28.724 10.392)">
            <rect id="Rectángulo_41701" data-name="Rectángulo 41701" width="2.332" height="2.332" fill="#ff4f5b"/>
          </g>
          <g id="Grupo_133648" data-name="Grupo 133648" transform="translate(33.314 11.321)">
            <g id="Grupo_133647" data-name="Grupo 133647">
              <path id="Trazado_191482" data-name="Trazado 191482" d="M1532.328,2731.216c0,.126-7.561.229-16.885.229s-16.886-.1-16.886-.229,7.558-.231,16.886-.231S1532.328,2731.089,1532.328,2731.216Z" transform="translate(-1498.557 -2730.985)" fill="#1a2e35"/>
            </g>
          </g>
          <g id="Grupo_133650" data-name="Grupo 133650" transform="translate(95.103 11.258)">
            <g id="Grupo_133649" data-name="Grupo 133649">
              <path id="Trazado_191483" data-name="Trazado 191483" d="M1553.236,2731.163a8,8,0,1,1-1.9-.229A4.124,4.124,0,0,1,1553.236,2731.163Z" transform="translate(-1549.431 -2730.933)" fill="#1a2e35"/>
            </g>
          </g>
          <g id="Grupo_133651" data-name="Grupo 133651" transform="translate(26.446 30.831)">
            <rect id="Rectángulo_41702" data-name="Rectángulo 41702" width="82.373" height="7.707" fill="#fafafa"/>
          </g>
          <g id="Grupo_133652" data-name="Grupo 133652" transform="translate(28.41 33.347)">
            <rect id="Rectángulo_41703" data-name="Rectángulo 41703" width="2.354" height="2.332" fill="#ff4f5b"/>
          </g>
          <g id="Grupo_133654" data-name="Grupo 133654" transform="translate(33.044 34.276)">
            <g id="Grupo_133653" data-name="Grupo 133653">
              <path id="Trazado_191484" data-name="Trazado 191484" d="M1532.429,2750.115c0,.127-7.633.23-17.047.23s-17.047-.1-17.047-.23,7.631-.229,17.047-.229S1532.429,2749.988,1532.429,2750.115Z" transform="translate(-1498.335 -2749.885)" fill="#1a2e35"/>
            </g>
          </g>
          <g id="Grupo_133656" data-name="Grupo 133656" transform="translate(95.426 34.213)">
            <g id="Grupo_133655" data-name="Grupo 133655">
              <path id="Trazado_191485" data-name="Trazado 191485" d="M1553.538,2750.063a8.153,8.153,0,1,1-1.921-.229A4.2,4.2,0,0,1,1553.538,2750.063Z" transform="translate(-1549.697 -2749.833)" fill="#1a2e35"/>
            </g>
          </g>
          <g id="Grupo_133657" data-name="Grupo 133657" transform="translate(26.446 38.425)">
            <rect id="Rectángulo_41704" data-name="Rectángulo 41704" width="82.373" height="7.707" fill="#e1e1e1"/>
          </g>
          <g id="Grupo_133658" data-name="Grupo 133658" transform="translate(28.41 40.941)">
            <rect id="Rectángulo_41705" data-name="Rectángulo 41705" width="2.354" height="2.332" fill="#ff4f5b"/>
          </g>
          <g id="Grupo_133660" data-name="Grupo 133660" transform="translate(33.044 41.87)">
            <g id="Grupo_133659" data-name="Grupo 133659">
              <path id="Trazado_191486" data-name="Trazado 191486" d="M1532.429,2756.367c0,.127-7.633.23-17.047.23s-17.047-.1-17.047-.23,7.631-.229,17.047-.229S1532.429,2756.24,1532.429,2756.367Z" transform="translate(-1498.335 -2756.138)" fill="#1a2e35"/>
            </g>
          </g>
          <g id="Grupo_133662" data-name="Grupo 133662" transform="translate(95.426 41.806)">
            <g id="Grupo_133661" data-name="Grupo 133661">
              <path id="Trazado_191487" data-name="Trazado 191487" d="M1553.538,2756.315a8.128,8.128,0,1,1-1.921-.23A4.219,4.219,0,0,1,1553.538,2756.315Z" transform="translate(-1549.697 -2756.085)" fill="#1a2e35"/>
            </g>
          </g>
          <g id="Grupo_133663" data-name="Grupo 133663" transform="translate(26.446 46.019)">
            <rect id="Rectángulo_41706" data-name="Rectángulo 41706" width="82.373" height="7.707" fill="#fafafa"/>
          </g>
          <g id="Grupo_133664" data-name="Grupo 133664" transform="translate(28.41 48.535)">
            <rect id="Rectángulo_41707" data-name="Rectángulo 41707" width="2.354" height="2.332" fill="#ff4f5b"/>
          </g>
          <g id="Grupo_133666" data-name="Grupo 133666" transform="translate(33.044 49.464)">
            <g id="Grupo_133665" data-name="Grupo 133665">
              <path id="Trazado_191488" data-name="Trazado 191488" d="M1532.429,2762.621c0,.126-7.633.229-17.047.229s-17.047-.1-17.047-.229,7.631-.231,17.047-.231S1532.429,2762.493,1532.429,2762.621Z" transform="translate(-1498.335 -2762.39)" fill="#1a2e35"/>
            </g>
          </g>
          <g id="Grupo_133668" data-name="Grupo 133668" transform="translate(95.426 49.401)">
            <g id="Grupo_133667" data-name="Grupo 133667">
              <path id="Trazado_191489" data-name="Trazado 191489" d="M1553.538,2762.568a8.153,8.153,0,1,1-1.921-.229A4.2,4.2,0,0,1,1553.538,2762.568Z" transform="translate(-1549.697 -2762.338)" fill="#1a2e35"/>
            </g>
          </g>
          <g id="Grupo_133669" data-name="Grupo 133669" transform="translate(26.446 53.614)">
            <rect id="Rectángulo_41708" data-name="Rectángulo 41708" width="82.373" height="7.707" fill="#ececec"/>
          </g>
          <g id="Grupo_133670" data-name="Grupo 133670" transform="translate(28.41 56.13)">
            <rect id="Rectángulo_41709" data-name="Rectángulo 41709" width="2.354" height="2.332" fill="#ff4f5b"/>
          </g>
          <g id="Grupo_133672" data-name="Grupo 133672" transform="translate(33.044 57.059)">
            <g id="Grupo_133671" data-name="Grupo 133671">
              <path id="Trazado_191490" data-name="Trazado 191490" d="M1532.429,2768.873c0,.127-7.633.231-17.047.231s-17.047-.1-17.047-.231,7.631-.23,17.047-.23S1532.429,2768.746,1532.429,2768.873Z" transform="translate(-1498.335 -2768.643)" fill="#1a2e35"/>
            </g>
          </g>
          <g id="Grupo_133674" data-name="Grupo 133674" transform="translate(95.426 56.995)">
            <g id="Grupo_133673" data-name="Grupo 133673">
              <path id="Trazado_191491" data-name="Trazado 191491" d="M1553.538,2768.821a8.161,8.161,0,1,1-1.921-.229A4.2,4.2,0,0,1,1553.538,2768.821Z" transform="translate(-1549.697 -2768.591)" fill="#1a2e35"/>
            </g>
          </g>
          <g id="Grupo_133675" data-name="Grupo 133675" transform="translate(26.434 15.486)">
            <rect id="Rectángulo_41710" data-name="Rectángulo 41710" width="82.385" height="7.707" fill="#fafafa"/>
          </g>
          <g id="Grupo_133676" data-name="Grupo 133676" transform="translate(28.724 18.002)">
            <rect id="Rectángulo_41711" data-name="Rectángulo 41711" width="2.332" height="2.332" fill="#ff4f5b"/>
          </g>
          <g id="Grupo_133678" data-name="Grupo 133678" transform="translate(33.314 18.931)">
            <g id="Grupo_133677" data-name="Grupo 133677">
              <path id="Trazado_191492" data-name="Trazado 191492" d="M1517.883,2737.48c0,.127-4.326.231-9.663.231s-9.663-.1-9.663-.231,4.325-.229,9.663-.229S1517.883,2737.354,1517.883,2737.48Z" transform="translate(-1498.557 -2737.251)" fill="#1a2e35"/>
            </g>
          </g>
          <g id="Grupo_133680" data-name="Grupo 133680" transform="translate(95.103 19.155)">
            <g id="Grupo_133679" data-name="Grupo 133679">
              <path id="Trazado_191493" data-name="Trazado 191493" d="M1553.236,2737.665a7.984,7.984,0,1,1-1.9-.23A4.139,4.139,0,0,1,1553.236,2737.665Z" transform="translate(-1549.431 -2737.435)" fill="#1a2e35"/>
            </g>
          </g>
          <g id="Grupo_133682" data-name="Grupo 133682" transform="translate(95.103 26.636)">
            <g id="Grupo_133681" data-name="Grupo 133681">
              <path id="Trazado_191494" data-name="Trazado 191494" d="M1553.236,2743.826a7.967,7.967,0,1,1-1.9-.23A4.145,4.145,0,0,1,1553.236,2743.826Z" transform="translate(-1549.431 -2743.595)" fill="#1a2e35"/>
            </g>
          </g>
          <g id="Grupo_133683" data-name="Grupo 133683" transform="translate(28.724 25.701)">
            <rect id="Rectángulo_41712" data-name="Rectángulo 41712" width="2.332" height="2.332" fill="#ff4f5b"/>
          </g>
          <g id="Grupo_133685" data-name="Grupo 133685" transform="translate(33.314 26.63)">
            <g id="Grupo_133684" data-name="Grupo 133684">
              <path id="Trazado_191495" data-name="Trazado 191495" d="M1545.121,2743.82c0,.127-10.425.23-23.281.23s-23.283-.1-23.283-.23,10.422-.229,23.283-.229S1545.121,2743.692,1545.121,2743.82Z" transform="translate(-1498.557 -2743.59)" fill="#1a2e35"/>
            </g>
          </g>
          <g id="Grupo_133686" data-name="Grupo 133686" transform="translate(2.401 1.412)">
            <path id="Trazado_191496" data-name="Trazado 191496" d="M1474.51,2723.53a.7.7,0,1,1-.7-.7A.7.7,0,0,1,1474.51,2723.53Z" transform="translate(-1473.105 -2722.827)" fill="#1a2e35"/>
          </g>
          <g id="Grupo_133687" data-name="Grupo 133687" transform="translate(5.141 1.412)">
            <path id="Trazado_191497" data-name="Trazado 191497" d="M1476.766,2723.53a.7.7,0,1,1-.7-.7A.7.7,0,0,1,1476.766,2723.53Z" transform="translate(-1475.361 -2722.827)" fill="#1a2e35"/>
          </g>
          <g id="Grupo_133688" data-name="Grupo 133688" transform="translate(7.88 1.412)">
            <path id="Trazado_191498" data-name="Trazado 191498" d="M1479.021,2723.53a.7.7,0,1,1-.7-.7A.7.7,0,0,1,1479.021,2723.53Z" transform="translate(-1477.616 -2722.827)" fill="#1a2e35"/>
          </g>
          <g id="Grupo_133690" data-name="Grupo 133690">
            <g id="Grupo_133689" data-name="Grupo 133689">
              <path id="Trazado_191499" data-name="Trazado 191499" d="M1579.948,2782.985c0-1.409-.042-23.711-.106-61.182l.106.105-108.672.031h-.009l.137-.137c0,21.638-.006,42.331-.009,61.182l-.129-.129c63.551.076,106.729.126,108.681.129l-108.681.128h-.129v-.128c0-18.852-.006-39.544-.01-61.182v-.139h.147l108.672.033h.105v.106C1579.989,2759.273,1579.949,2781.576,1579.948,2782.985Z" transform="translate(-1471.128 -2721.664)" fill="#1a2e35"/>
            </g>
          </g>
        </g>
      </g>
    </g>
    <g id="Grupo_133701" data-name="Grupo 133701" transform="translate(1399.718 2785.716)">
      <g id="Grupo_133694" data-name="Grupo 133694" transform="translate(162.046 7.385)">
        <path id="Trazado_191500" data-name="Trazado 191500" d="M1602.675,2905.376h-4.915l-10.962-98.432h6.449Z" transform="translate(-1586.799 -2806.944)" fill="#375a64"/>
      </g>
      <g id="Grupo_133695" data-name="Grupo 133695" transform="translate(130.889 7.385)">
        <path id="Trazado_191501" data-name="Trazado 191501" d="M1568.081,2905.376h-4.915l-11.045-98.432h6.448Z" transform="translate(-1552.122 -2806.944)" fill="#375a64"/>
      </g>
      <g id="Grupo_133696" data-name="Grupo 133696" transform="translate(6.203 1.699)">
        <path id="Trazado_191502" data-name="Trazado 191502" d="M1586.58,2806.3H1413.352v-5.685H1586.58Z" transform="translate(-1413.352 -2800.617)" fill="#375a64"/>
      </g>
      <g id="Grupo_133697" data-name="Grupo 133697" transform="translate(42.158 7.385)">
        <path id="Trazado_191503" data-name="Trazado 191503" d="M1453.368,2905.376h4.914l10.544-98.432h-6.448Z" transform="translate(-1453.368 -2806.944)" fill="#1a2e35"/>
      </g>
      <g id="Grupo_133698" data-name="Grupo 133698" transform="translate(0 7.385)">
        <path id="Trazado_191504" data-name="Trazado 191504" d="M1406.448,2905.376h4.914l11.034-98.432h-6.448Z" transform="translate(-1406.448 -2806.944)" fill="#1a2e35"/>
      </g>
      <g id="Grupo_133699" data-name="Grupo 133699" transform="translate(6.203 1.699)">
        <rect id="Rectángulo_41713" data-name="Rectángulo 41713" width="53.372" height="5.685" fill="#1a2e35"/>
      </g>
      <g id="Grupo_133700" data-name="Grupo 133700" transform="translate(84.018)">
        <rect id="Rectángulo_41714" data-name="Rectángulo 41714" width="36.854" height="1.7" fill="#1a2e35"/>
      </g>
    </g>
    <g id="Grupo_133819" data-name="Grupo 133819" transform="translate(1505.984 2711.976)">
      <g id="Grupo_133728" data-name="Grupo 133728" transform="translate(36.086 157.16)">
        <g id="Grupo_133727" data-name="Grupo 133727">
          <g id="Grupo_133703" data-name="Grupo 133703" transform="translate(0.039)">
            <g id="Grupo_133702" data-name="Grupo 133702">
              <path id="Trazado_191505" data-name="Trazado 191505" d="M1585.246,2891.568l3.486,19.151-23.8,4.459c-.287-2.3,11.173-9.173,11.173-9.173l-2.737-12.178Z" transform="translate(-1564.923 -2891.568)" fill="#bddcf6"/>
            </g>
          </g>
          <g id="Grupo_133706" data-name="Grupo 133706" transform="translate(17.364 12.013)" opacity="0.6">
            <g id="Grupo_133705" data-name="Grupo 133705">
              <g id="Grupo_133704" data-name="Grupo 133704">
                <path id="Trazado_191506" data-name="Trazado 191506" d="M1585.226,2904.952a.989.989,0,0,1,.88.983.952.952,0,0,1-.968.881,1.044,1.044,0,0,1-.926-1.047.987.987,0,0,1,1.108-.805" transform="translate(-1584.205 -2904.938)" fill="#fff"/>
              </g>
            </g>
          </g>
          <g id="Grupo_133708" data-name="Grupo 133708" transform="translate(0 17.234)" opacity="0.6">
            <g id="Grupo_133707" data-name="Grupo 133707">
              <path id="Trazado_191507" data-name="Trazado 191507" d="M1588.728,2912.666l-.427-1.917-22.663,4.992s-.974.66-.714,1.384Z" transform="translate(-1564.88 -2910.749)" fill="#fff"/>
            </g>
          </g>
          <g id="Grupo_133711" data-name="Grupo 133711" transform="translate(10.807 14.184)">
            <g id="Grupo_133710" data-name="Grupo 133710">
              <g id="Grupo_133709" data-name="Grupo 133709">
                <path id="Trazado_191508" data-name="Trazado 191508" d="M1576.91,2907.559c.025.116.616.059,1.258.326.65.25,1.038.7,1.136.632.1-.042-.2-.705-.983-1.014S1576.864,2907.456,1576.91,2907.559Z" transform="translate(-1576.907 -2907.354)" fill="#1a2e35"/>
              </g>
            </g>
          </g>
          <g id="Grupo_133714" data-name="Grupo 133714" transform="translate(8.505 15.806)">
            <g id="Grupo_133713" data-name="Grupo 133713">
              <g id="Grupo_133712" data-name="Grupo 133712">
                <path id="Trazado_191509" data-name="Trazado 191509" d="M1574.346,2909.242c-.005.118.535.221,1.022.639.5.4.7.916.813.889.113,0,.066-.7-.55-1.205S1574.328,2909.131,1574.346,2909.242Z" transform="translate(-1574.346 -2909.16)" fill="#1a2e35"/>
              </g>
            </g>
          </g>
          <g id="Grupo_133717" data-name="Grupo 133717" transform="translate(6.349 17.298)">
            <g id="Grupo_133716" data-name="Grupo 133716">
              <g id="Grupo_133715" data-name="Grupo 133715">
                <path id="Trazado_191510" data-name="Trazado 191510" d="M1573.244,2912.665c.111.005.163-.606-.254-1.187s-1.009-.731-1.041-.626c-.048.109.369.384.705.866S1573.126,2912.675,1573.244,2912.665Z" transform="translate(-1571.946 -2910.82)" fill="#1a2e35"/>
              </g>
            </g>
          </g>
          <g id="Grupo_133720" data-name="Grupo 133720" transform="translate(10.485 10.874)">
            <g id="Grupo_133719" data-name="Grupo 133719">
              <g id="Grupo_133718" data-name="Grupo 133718">
                <path id="Trazado_191511" data-name="Trazado 191511" d="M1576.557,2904.34c.068.1.571-.164,1.237-.242s1.216.032,1.258-.078-.528-.434-1.31-.331S1576.483,2904.26,1576.557,2904.34Z" transform="translate(-1576.549 -2903.67)" fill="#1a2e35"/>
              </g>
            </g>
          </g>
          <g id="Grupo_133723" data-name="Grupo 133723" transform="translate(10.53 6.12)">
            <g id="Grupo_133722" data-name="Grupo 133722">
              <g id="Grupo_133721" data-name="Grupo 133721">
                <path id="Trazado_191512" data-name="Trazado 191512" d="M1576.6,2900.872a2.27,2.27,0,0,0,1.191-.229,5.434,5.434,0,0,0,1.175-.617,5.545,5.545,0,0,0,.616-.491,1.466,1.466,0,0,0,.307-.348.515.515,0,0,0-.062-.628.652.652,0,0,0-.56-.171,1.612,1.612,0,0,0-.435.146,4.319,4.319,0,0,0-.694.394,4.269,4.269,0,0,0-.964.927,2.035,2.035,0,0,0-.52,1.1c.06.029.261-.386.744-.914a4.845,4.845,0,0,1,.951-.8,4.552,4.552,0,0,1,.645-.34c.24-.113.454-.156.54-.055.031.039.038.055,0,.138a1.2,1.2,0,0,1-.226.254,6.136,6.136,0,0,1-.562.478,6.723,6.723,0,0,1-1.069.658A8.574,8.574,0,0,0,1576.6,2900.872Z" transform="translate(-1576.6 -2898.379)" fill="#1a2e35"/>
              </g>
            </g>
          </g>
          <g id="Grupo_133726" data-name="Grupo 133726" transform="translate(8.616 5.138)">
            <g id="Grupo_133725" data-name="Grupo 133725">
              <g id="Grupo_133724" data-name="Grupo 133724">
                <path id="Trazado_191513" data-name="Trazado 191513" d="M1576.566,2900.9a1.928,1.928,0,0,0,.1-1.211,3.922,3.922,0,0,0-.846-1.942,1,1,0,0,0-.873-.459.568.568,0,0,0-.436.426,1.655,1.655,0,0,0-.04.46,2.709,2.709,0,0,0,.15.8,2.794,2.794,0,0,0,.74,1.136c.581.53,1.093.578,1.094.537.028-.066-.42-.214-.886-.74a2.8,2.8,0,0,1-.588-1.05,2.524,2.524,0,0,1-.107-.693c-.01-.261.047-.482.147-.474.118-.024.355.129.49.312a3.98,3.98,0,0,1,.417.592,4.355,4.355,0,0,1,.454,1.146C1576.543,2900.436,1576.5,2900.895,1576.566,2900.9Z" transform="translate(-1574.469 -2897.286)" fill="#1a2e35"/>
              </g>
            </g>
          </g>
        </g>
      </g>
      <g id="Grupo_133755" data-name="Grupo 133755" transform="translate(8.653 160.246)">
        <g id="Grupo_133754" data-name="Grupo 133754">
          <g id="Grupo_133730" data-name="Grupo 133730" transform="translate(0.041)">
            <g id="Grupo_133729" data-name="Grupo 133729">
              <path id="Trazado_191514" data-name="Trazado 191514" d="M1554.4,2895l3.74,19.1-23.743,4.774c-.317-2.3,11.051-9.32,11.051-9.32l-2.9-12.141Z" transform="translate(-1534.394 -2895.003)" fill="#bddcf6"/>
            </g>
          </g>
          <g id="Grupo_133733" data-name="Grupo 133733" transform="translate(17.224 12.039)" opacity="0.6">
            <g id="Grupo_133732" data-name="Grupo 133732">
              <g id="Grupo_133731" data-name="Grupo 133731">
                <path id="Trazado_191515" data-name="Trazado 191515" d="M1554.527,2908.415a.988.988,0,0,1,.892.971.951.951,0,0,1-.955.894,1.042,1.042,0,0,1-.94-1.034.987.987,0,0,1,1.1-.82" transform="translate(-1553.518 -2908.402)" fill="#fff"/>
              </g>
            </g>
          </g>
          <g id="Grupo_133735" data-name="Grupo 133735" transform="translate(0 17.192)" opacity="0.6">
            <g id="Grupo_133734" data-name="Grupo 133734">
              <path id="Trazado_191516" data-name="Trazado 191516" d="M1558.139,2916.048l-.452-1.911-22.6,5.292s-.964.673-.7,1.393Z" transform="translate(-1534.348 -2914.137)" fill="#fff"/>
            </g>
          </g>
          <g id="Grupo_133738" data-name="Grupo 133738" transform="translate(10.686 14.3)">
            <g id="Grupo_133737" data-name="Grupo 133737">
              <g id="Grupo_133736" data-name="Grupo 133736">
                <path id="Trazado_191517" data-name="Trazado 191517" d="M1546.244,2911.133c.028.115.618.052,1.263.309.652.241,1.047.685,1.145.617.1-.044-.21-.7-1-1S1546.2,2911.031,1546.244,2911.133Z" transform="translate(-1546.241 -2910.918)" fill="#1a2e35"/>
              </g>
            </g>
          </g>
          <g id="Grupo_133741" data-name="Grupo 133741" transform="translate(8.405 15.959)">
            <g id="Grupo_133740" data-name="Grupo 133740">
              <g id="Grupo_133739" data-name="Grupo 133739">
                <path id="Trazado_191518" data-name="Trazado 191518" d="M1543.7,2912.851c0,.118.538.214,1.031.625s.711.907.825.878c.112,0,.057-.7-.566-1.2S1543.683,2912.74,1543.7,2912.851Z" transform="translate(-1543.703 -2912.765)" fill="#1a2e35"/>
              </g>
            </g>
          </g>
          <g id="Grupo_133744" data-name="Grupo 133744" transform="translate(6.269 17.482)">
            <g id="Grupo_133743" data-name="Grupo 133743">
              <g id="Grupo_133742" data-name="Grupo 133742">
                <path id="Trazado_191519" data-name="Trazado 191519" d="M1542.647,2916.287c.111,0,.155-.609-.27-1.183s-1.019-.718-1.048-.612c-.046.109.375.378.716.856S1542.53,2916.3,1542.647,2916.287Z" transform="translate(-1541.325 -2914.46)" fill="#1a2e35"/>
              </g>
            </g>
          </g>
          <g id="Grupo_133747" data-name="Grupo 133747" transform="translate(10.327 10.985)">
            <g id="Grupo_133746" data-name="Grupo 133746">
              <g id="Grupo_133745" data-name="Grupo 133745">
                <path id="Trazado_191520" data-name="Trazado 191520" d="M1545.85,2907.918c.07.1.57-.171,1.234-.259s1.217.018,1.257-.094-.534-.427-1.315-.313S1545.774,2907.838,1545.85,2907.918Z" transform="translate(-1545.842 -2907.228)" fill="#1a2e35"/>
              </g>
            </g>
          </g>
          <g id="Grupo_133750" data-name="Grupo 133750" transform="translate(10.334 6.214)">
            <g id="Grupo_133749" data-name="Grupo 133749">
              <g id="Grupo_133748" data-name="Grupo 133748">
                <path id="Trazado_191521" data-name="Trazado 191521" d="M1545.85,2904.448a2.265,2.265,0,0,0,1.188-.246,5.439,5.439,0,0,0,1.167-.632,5.764,5.764,0,0,0,.61-.5,1.519,1.519,0,0,0,.3-.351.516.516,0,0,0-.071-.628.647.647,0,0,0-.561-.163,1.593,1.593,0,0,0-.433.151,4.386,4.386,0,0,0-.688.4,4.281,4.281,0,0,0-.952.94c-.448.621-.549,1.092-.505,1.107.06.027.255-.39.731-.924a4.841,4.841,0,0,1,.941-.81,4.406,4.406,0,0,1,.64-.348c.238-.117.452-.162.539-.063.032.039.039.055,0,.138a1.241,1.241,0,0,1-.223.258,6.517,6.517,0,0,1-.556.485,6.718,6.718,0,0,1-1.061.671A8.281,8.281,0,0,0,1545.85,2904.448Z" transform="translate(-1545.849 -2901.919)" fill="#1a2e35"/>
              </g>
            </g>
          </g>
          <g id="Grupo_133753" data-name="Grupo 133753" transform="translate(8.384 5.286)">
            <g id="Grupo_133752" data-name="Grupo 133752">
              <g id="Grupo_133751" data-name="Grupo 133751">
                <path id="Trazado_191522" data-name="Trazado 191522" d="M1545.814,2904.479a1.926,1.926,0,0,0,.083-1.211,3.93,3.93,0,0,0-.424-1.27,3.975,3.975,0,0,0-.448-.661,1,1,0,0,0-.879-.448.568.568,0,0,0-.43.432,1.647,1.647,0,0,0-.034.461,2.683,2.683,0,0,0,.16.8,2.8,2.8,0,0,0,.755,1.127c.589.521,1.1.563,1.1.522.027-.066-.422-.208-.9-.729a2.8,2.8,0,0,1-.6-1.042,2.513,2.513,0,0,1-.116-.692c-.014-.26.039-.483.139-.476.118-.026.357.124.494.306a3.974,3.974,0,0,1,.424.585,4.358,4.358,0,0,1,.469,1.14C1545.783,2904.016,1545.747,2904.475,1545.814,2904.479Z" transform="translate(-1543.679 -2900.886)" fill="#1a2e35"/>
              </g>
            </g>
          </g>
        </g>
      </g>
      <g id="Grupo_133760" data-name="Grupo 133760" transform="translate(4.853 95.367)">
        <g id="Grupo_133756" data-name="Grupo 133756" transform="translate(28.242)">
          <path id="Trazado_191523" data-name="Trazado 191523" d="M1571.015,2891.492l-9.232-51.4a14.69,14.69,0,0,1,.636-7.573h0a14.7,14.7,0,0,1,13.829-9.721h32.566l21.281,9.432h0a13.192,13.192,0,0,1-14.224,13.152l-34.752-2.726,5.007,46.56Z" transform="translate(-1561.551 -2822.795)" fill="#1a2e35"/>
        </g>
        <g id="Grupo_133757" data-name="Grupo 133757">
          <path id="Trazado_191524" data-name="Trazado 191524" d="M1540.887,2894.214l-10.537-54.124a14.7,14.7,0,0,1,.637-7.573h0a14.7,14.7,0,0,1,13.829-9.721h32.566l21.281,9.432v14.268l-48.977-3.842,6.415,48.1Z" transform="translate(-1530.119 -2822.795)" fill="#1a2e35"/>
        </g>
        <g id="Grupo_133759" data-name="Grupo 133759" transform="translate(12.154 14.515)">
          <g id="Grupo_133758" data-name="Grupo 133758">
            <path id="Trazado_191525" data-name="Trazado 191525" d="M1557.475,2892.388a3.692,3.692,0,0,1-.111-.576q-.094-.613-.254-1.661c-.21-1.476-.506-3.558-.871-6.117-.706-5.2-1.675-12.326-2.744-20.2-.991-7.563-1.891-14.436-2.558-19.527l.054.087c-2.333-1.6-4.109-3.042-5.379-3.978l-1.461-1.081a4.372,4.372,0,0,1-.5-.386.58.58,0,0,1,.144.075l.4.252c.35.226.857.571,1.5,1.029,1.3.9,3.1,2.313,5.436,3.882l.047.031.007.056,2.65,19.515c1.031,7.879,1.965,15.012,2.646,20.212.319,2.565.579,4.652.763,6.131q.12,1.054.191,1.669A3.869,3.869,0,0,1,1557.475,2892.388Z" transform="translate(-1543.646 -2838.949)" fill="#375a64"/>
          </g>
        </g>
      </g>
      <g id="Grupo_133761" data-name="Grupo 133761" transform="translate(0 66.271)">
        <path id="Trazado_191526" data-name="Trazado 191526" d="M1524.718,2798l2.31-4.33a1.39,1.39,0,0,1,1.218-.612l1.032.049,1.758-1.641h2.053l1.581-1.055,6.094,1.171,5.015,1.349-2.854,5.669-2.863-.6-4.806-.082a5.4,5.4,0,0,1-3.706-1.562h0a4.565,4.565,0,0,0-3.209-1.318h0S1526.83,2798.411,1524.718,2798Z" transform="translate(-1524.718 -2790.413)" fill="#ffbf9d"/>
      </g>
      <g id="Grupo_133765" data-name="Grupo 133765" transform="translate(44.835)">
        <g id="Grupo_133764" data-name="Grupo 133764">
          <g id="Grupo_133762" data-name="Grupo 133762" transform="translate(4.277 4.831)">
            <path id="Trazado_191527" data-name="Trazado 191527" d="M1599.706,2725.885l.1,31.291-13.425.641-.388-7.611s-4.768.947-6-3.482c-.786-2.828-.59-24.691-.59-24.691Z" transform="translate(-1579.378 -2722.033)" fill="#ffbf9d"/>
          </g>
          <g id="Grupo_133763" data-name="Grupo 133763">
            <path id="Trazado_191528" data-name="Trazado 191528" d="M1599.458,2749.846a10.337,10.337,0,0,0,2.422-5.585c.334-2.034.39-4.112.837-6.123.469-2.114,1.36-4.115,1.815-6.232a7.944,7.944,0,0,0-.841-6.25s-.828-2.424-4.373-2.621c0,0-3.011-4.874-7.459-4.448-6.048.579-6.212-1.2-10.379-1.857a3.822,3.822,0,0,0-4.617,2.859,5.831,5.831,0,0,0-2.24,3.878l0,.061a5.278,5.278,0,0,0,3.608,5.159c.269.091.538.179.808.266a5.109,5.109,0,0,1,2.122,1.067,4.39,4.39,0,0,1,.936,3.334,9.415,9.415,0,0,0,.189,3.535c.138.381.464.8.856.7.466-.124.446-.775.491-1.255a2.034,2.034,0,0,1,3.2-1.439,2.143,2.143,0,0,1,.643,2.607c-.47.986-1.5,1.757-1.7,2.849-.336,1.839,1.824,3.448,2.646,4.448a7.493,7.493,0,0,0,.942.99c1.781,1.5,3.527,3.573,5.872,4.384a4.628,4.628,0,0,0,4.678-.751" transform="translate(-1574.618 -2716.656)" fill="#1a2e35"/>
          </g>
        </g>
      </g>
      <g id="Grupo_133805" data-name="Grupo 133805" transform="translate(16.192 34.726)">
        <g id="Grupo_133766" data-name="Grupo 133766" transform="translate(35.568 3.206)">
          <path id="Trazado_191529" data-name="Trazado 191529" d="M1584.322,2760.043c-2.96,2.113-1.743,7.786-1.783,10.761-.09,6.642.541,12.873.889,13.916.508,1.523,2.348,14.5,2.348,14.5l-3.1,17.085s4,10.2,21.281,10.1l8.613-2.057a8.942,8.942,0,0,0,6.832-9.46l-1.959-22.943-2.61-18.622c-.683-9.771-6.8-14.968-14.623-14.413Z" transform="translate(-1582.325 -2758.873)" fill="#4dd0e1"/>
        </g>
        <g id="Grupo_133768" data-name="Grupo 133768" transform="translate(43.997 23.018)" opacity="0.5">
          <g id="Grupo_133767" data-name="Grupo 133767">
            <path id="Trazado_191530" data-name="Trazado 191530" d="M1592.368,2826.415c-1.891-.983.65-20.086,2.858-29.868.861-3.813,2.005-7.757,4.714-10.575a15.931,15.931,0,0,1,8.075-4.209,40.942,40.942,0,0,1,8.525-.841l2.71,43.482S1600.505,2830.646,1592.368,2826.415Z" transform="translate(-1591.706 -2780.922)"/>
          </g>
        </g>
        <g id="Grupo_133769" data-name="Grupo 133769" transform="translate(0 4.376)">
          <path id="Trazado_191531" data-name="Trazado 191531" d="M1580.3,2760.175a11.723,11.723,0,0,0-8.4,6.5c-2.178,4.517-11.7,23.32-11.7,23.32l-14.557-.97-2.909,6.64,19.973,5.355h0c4.113.788,7.709-1.722,9.737-5.433l8.364-15.3Z" transform="translate(-1542.739 -2760.175)" fill="#4dd0e1"/>
        </g>
        <g id="Grupo_133770" data-name="Grupo 133770" transform="translate(38.886)">
          <path id="Trazado_191532" data-name="Trazado 191532" d="M1586.151,2759.681s-.366-3.324.114-3.9,14.92-.475,14.92-.475l.76,3.812-1.607,2.851-13.736,1.194Z" transform="translate(-1586.018 -2755.304)" fill="#4dd0e1"/>
        </g>
        <g id="Grupo_133772" data-name="Grupo 133772" transform="translate(17.653 34.418)">
          <g id="Grupo_133771" data-name="Grupo 133771">
            <path id="Trazado_191533" data-name="Trazado 191533" d="M1563.929,2796.667a4.511,4.511,0,0,1-1.515-3.056,292.747,292.747,0,0,1,1.515,3.056Z" transform="translate(-1562.386 -2793.61)" fill="#1a2e35"/>
          </g>
        </g>
        <g id="Grupo_133774" data-name="Grupo 133774" transform="translate(35.426 19.286)">
          <g id="Grupo_133773" data-name="Grupo 133773">
            <path id="Trazado_191534" data-name="Trazado 191534" d="M1586.788,2776.769a91.947,91.947,0,0,1-4.616,10.177,91.784,91.784,0,0,1,4.616-10.177Z" transform="translate(-1582.167 -2776.769)" fill="#1a2e35"/>
          </g>
        </g>
        <g id="Grupo_133776" data-name="Grupo 133776" transform="translate(39.019 3.21)">
          <g id="Grupo_133775" data-name="Grupo 133775">
            <path id="Trazado_191535" data-name="Trazado 191535" d="M1601.839,2758.877a.852.852,0,0,1,.085.458,1.1,1.1,0,0,1-.766,1.042l-.006,0h-.018c-1.512.1-3.945.208-6.684.305-2.329.083-4.421.139-5.966.162a4.137,4.137,0,0,1-1.789-.389,1.3,1.3,0,0,1-.529-.414c.02-.024.2.133.586.294a4.443,4.443,0,0,0,1.735.268c1.5-.083,3.624-.178,5.947-.26,2.743-.1,5.182-.158,6.7-.171l-.024,0a.988.988,0,0,0,.707-.852C1601.846,2759.042,1601.812,2758.881,1601.839,2758.877Z" transform="translate(-1586.165 -2758.877)" fill="#1a2e35"/>
          </g>
        </g>
        <g id="Grupo_133778" data-name="Grupo 133778" transform="translate(17.572 8.561)">
          <g id="Grupo_133777" data-name="Grupo 133777">
            <path id="Trazado_191536" data-name="Trazado 191536" d="M1575.379,2764.833c.083.043-2.777,5.736-6.389,12.713s-6.609,12.6-6.692,12.559,2.776-5.734,6.39-12.715S1575.3,2764.79,1575.379,2764.833Z" transform="translate(-1562.296 -2764.833)" fill="#1a2e35"/>
          </g>
        </g>
        <g id="Grupo_133780" data-name="Grupo 133780" transform="translate(32.944 12.73)">
          <g id="Grupo_133779" data-name="Grupo 133779">
            <path id="Trazado_191537" data-name="Trazado 191537" d="M1582.59,2769.487c0-.019.13-.037.338.052a1.152,1.152,0,0,1,.624.7,1.214,1.214,0,0,1-.465,1.319,1.376,1.376,0,0,1-.832.235c-.291,0-.57-.055-.842-.074a1.6,1.6,0,0,0-1.329.486,1.532,1.532,0,0,0-.43,1.093,2.647,2.647,0,0,0,.341,1.1c0,.037-.489-.269-.582-1.09a1.724,1.724,0,0,1,.441-1.318,1.872,1.872,0,0,1,1.584-.613c.589.06,1.115.177,1.469-.077a.973.973,0,0,0,.412-1,1.106,1.106,0,0,0-.455-.651C1582.7,2769.543,1582.585,2769.513,1582.59,2769.487Z" transform="translate(-1579.404 -2769.472)" fill="#fafafa"/>
          </g>
        </g>
        <g id="Grupo_133782" data-name="Grupo 133782" transform="translate(52.239 12.943)">
          <g id="Grupo_133781" data-name="Grupo 133781">
            <path id="Trazado_191538" data-name="Trazado 191538" d="M1604.065,2769.724c0-.019.13-.037.338.052a1.152,1.152,0,0,1,.624.7,1.214,1.214,0,0,1-.465,1.319,1.382,1.382,0,0,1-.832.235c-.29,0-.57-.056-.842-.075a1.6,1.6,0,0,0-1.329.486,1.534,1.534,0,0,0-.43,1.094,2.64,2.64,0,0,0,.341,1.1c0,.037-.489-.269-.582-1.09a1.727,1.727,0,0,1,.441-1.318,1.872,1.872,0,0,1,1.584-.613c.589.06,1.115.177,1.469-.077a.975.975,0,0,0,.413-1,1.111,1.111,0,0,0-.456-.65C1604.175,2769.78,1604.059,2769.751,1604.065,2769.724Z" transform="translate(-1600.879 -2769.709)" fill="#fafafa"/>
          </g>
        </g>
        <g id="Grupo_133784" data-name="Grupo 133784" transform="translate(51.039 22.89)">
          <g id="Grupo_133783" data-name="Grupo 133783">
            <path id="Trazado_191539" data-name="Trazado 191539" d="M1603.7,2784.8c.018.006,0,.135-.131.315a1.155,1.155,0,0,1-.832.438,1.21,1.21,0,0,1-1.169-.767,1.373,1.373,0,0,1-.03-.865c.072-.281.191-.54.275-.8a1.6,1.6,0,0,0-.154-1.407,1.535,1.535,0,0,0-.959-.68,2.659,2.659,0,0,0-1.152.068,1.291,1.291,0,0,1,1.2-.3,1.731,1.731,0,0,1,1.174.744,1.872,1.872,0,0,1,.216,1.685c-.2.557-.438,1.041-.277,1.445a.972.972,0,0,0,.87.64,1.106,1.106,0,0,0,.741-.286C1603.615,2784.892,1603.671,2784.788,1603.7,2784.8Z" transform="translate(-1599.543 -2780.78)" fill="#fafafa"/>
          </g>
        </g>
        <g id="Grupo_133786" data-name="Grupo 133786" transform="translate(42.578 42.681)">
          <g id="Grupo_133785" data-name="Grupo 133785">
            <path id="Trazado_191540" data-name="Trazado 191540" d="M1594.28,2806.827c.018.005,0,.134-.131.314a1.154,1.154,0,0,1-.832.438,1.213,1.213,0,0,1-1.169-.769,1.37,1.37,0,0,1-.029-.863c.071-.282.19-.54.274-.8a1.594,1.594,0,0,0-.154-1.406,1.536,1.536,0,0,0-.959-.68,2.681,2.681,0,0,0-1.152.067,1.3,1.3,0,0,1,1.2-.3,1.725,1.725,0,0,1,1.174.744,1.87,1.87,0,0,1,.216,1.685c-.2.557-.438,1.04-.277,1.444a.974.974,0,0,0,.871.641,1.113,1.113,0,0,0,.74-.287C1594.2,2806.919,1594.255,2806.814,1594.28,2806.827Z" transform="translate(-1590.127 -2802.807)" fill="#fafafa"/>
          </g>
        </g>
        <g id="Grupo_133788" data-name="Grupo 133788" transform="translate(60.885 17.737)">
          <g id="Grupo_133787" data-name="Grupo 133787">
            <path id="Trazado_191541" data-name="Trazado 191541" d="M1613.687,2775.06c0-.019.13-.036.338.052a1.158,1.158,0,0,1,.624.7,1.215,1.215,0,0,1-.465,1.319,1.377,1.377,0,0,1-.832.235c-.29,0-.57-.056-.842-.075a1.6,1.6,0,0,0-1.329.487,1.532,1.532,0,0,0-.43,1.093,2.666,2.666,0,0,0,.341,1.1c0,.037-.489-.27-.582-1.09a1.73,1.73,0,0,1,.441-1.319,1.874,1.874,0,0,1,1.584-.612c.589.06,1.115.177,1.469-.077a.974.974,0,0,0,.413-1,1.112,1.112,0,0,0-.455-.651C1613.8,2775.116,1613.682,2775.087,1613.687,2775.06Z" transform="translate(-1610.501 -2775.045)" fill="#fafafa"/>
          </g>
        </g>
        <g id="Grupo_133790" data-name="Grupo 133790" transform="translate(43.781 33.686)">
          <g id="Grupo_133789" data-name="Grupo 133789">
            <path id="Trazado_191542" data-name="Trazado 191542" d="M1591.605,2794.392c-.017.008-.1-.092-.13-.315a1.155,1.155,0,0,1,.278-.9,1.214,1.214,0,0,1,1.369-.286,1.376,1.376,0,0,1,.632.589c.149.25.248.517.373.759a1.6,1.6,0,0,0,1.105.883,1.532,1.532,0,0,0,1.158-.2,2.651,2.651,0,0,0,.765-.864c.034-.014.023.558-.63,1.063a1.725,1.725,0,0,1-1.356.307,1.869,1.869,0,0,1-1.345-1.036c-.255-.535-.428-1.045-.828-1.216a.973.973,0,0,0-1.067.164,1.107,1.107,0,0,0-.32.728C1591.6,2794.27,1591.631,2794.383,1591.605,2794.392Z" transform="translate(-1591.466 -2792.795)" fill="#fafafa"/>
          </g>
        </g>
        <g id="Grupo_133792" data-name="Grupo 133792" transform="translate(41.684 22.151)">
          <g id="Grupo_133791" data-name="Grupo 133791">
            <path id="Trazado_191543" data-name="Trazado 191543" d="M1592.317,2779.973c0-.019.129-.037.337.052a1.151,1.151,0,0,1,.624.7,1.211,1.211,0,0,1-.465,1.319,1.377,1.377,0,0,1-.831.235c-.291,0-.57-.056-.842-.076a1.6,1.6,0,0,0-1.329.486,1.535,1.535,0,0,0-.431,1.093,2.663,2.663,0,0,0,.342,1.1c-.005.036-.489-.27-.582-1.09a1.726,1.726,0,0,1,.441-1.319,1.872,1.872,0,0,1,1.583-.613c.59.06,1.115.177,1.469-.077a.971.971,0,0,0,.413-1,1.105,1.105,0,0,0-.456-.651C1592.427,2780.029,1592.312,2780,1592.317,2779.973Z" transform="translate(-1589.131 -2779.958)" fill="#fafafa"/>
          </g>
        </g>
        <g id="Grupo_133794" data-name="Grupo 133794" transform="translate(41.291 53.19)">
          <g id="Grupo_133793" data-name="Grupo 133793">
            <path id="Trazado_191544" data-name="Trazado 191544" d="M1591.88,2814.517c0-.019.129-.036.337.052a1.155,1.155,0,0,1,.623.7,1.211,1.211,0,0,1-.465,1.319,1.37,1.37,0,0,1-.831.235c-.291,0-.571-.056-.843-.076a1.6,1.6,0,0,0-1.328.487,1.532,1.532,0,0,0-.431,1.093,2.661,2.661,0,0,0,.341,1.1c0,.037-.489-.27-.581-1.09a1.726,1.726,0,0,1,.441-1.319,1.867,1.867,0,0,1,1.583-.612c.589.059,1.115.177,1.469-.077a.973.973,0,0,0,.413-1,1.109,1.109,0,0,0-.456-.65C1591.99,2814.573,1591.875,2814.544,1591.88,2814.517Z" transform="translate(-1588.694 -2814.502)" fill="#fafafa"/>
          </g>
        </g>
        <g id="Grupo_133796" data-name="Grupo 133796" transform="translate(22.808 36.649)">
          <g id="Grupo_133795" data-name="Grupo 133795">
            <path id="Trazado_191545" data-name="Trazado 191545" d="M1571.309,2796.108c0-.019.129-.037.337.052a1.15,1.15,0,0,1,.624.7,1.211,1.211,0,0,1-.465,1.319,1.37,1.37,0,0,1-.831.235c-.291,0-.57-.055-.842-.075a1.6,1.6,0,0,0-1.329.486,1.534,1.534,0,0,0-.431,1.094,2.66,2.66,0,0,0,.342,1.1c-.005.036-.49-.27-.582-1.091a1.725,1.725,0,0,1,.441-1.318,1.873,1.873,0,0,1,1.583-.613c.589.06,1.115.177,1.469-.077a.972.972,0,0,0,.413-1,1.106,1.106,0,0,0-.456-.65C1571.419,2796.164,1571.3,2796.135,1571.309,2796.108Z" transform="translate(-1568.123 -2796.093)" fill="#fafafa"/>
          </g>
        </g>
        <g id="Grupo_133798" data-name="Grupo 133798" transform="translate(26.261 24.114)">
          <g id="Grupo_133797" data-name="Grupo 133797">
            <path id="Trazado_191546" data-name="Trazado 191546" d="M1576.629,2785.653c.018,0,.024.132-.083.331a1.156,1.156,0,0,1-.757.558,1.212,1.212,0,0,1-1.271-.583,1.378,1.378,0,0,1-.159-.85c.029-.289.107-.562.152-.831a1.6,1.6,0,0,0-.364-1.367,1.531,1.531,0,0,0-1.05-.529,2.652,2.652,0,0,0-1.129.241c-.036-.008.313-.463,1.138-.481a1.723,1.723,0,0,1,1.273.558,1.871,1.871,0,0,1,.466,1.634c-.112.58-.277,1.094-.056,1.47a.972.972,0,0,0,.956.5,1.1,1.1,0,0,0,.689-.395C1576.564,2785.757,1576.6,2785.645,1576.629,2785.653Z" transform="translate(-1571.966 -2782.142)" fill="#fafafa"/>
          </g>
        </g>
        <g id="Grupo_133800" data-name="Grupo 133800" transform="translate(40.386 7.597)">
          <g id="Grupo_133799" data-name="Grupo 133799">
            <path id="Trazado_191547" data-name="Trazado 191547" d="M1592.349,2767.272c.019,0,.025.132-.083.331a1.153,1.153,0,0,1-.757.558,1.214,1.214,0,0,1-1.271-.583,1.385,1.385,0,0,1-.158-.85c.029-.29.107-.562.151-.831a1.6,1.6,0,0,0-.364-1.368,1.53,1.53,0,0,0-1.05-.528,2.67,2.67,0,0,0-1.129.24c-.036-.007.313-.462,1.138-.48a1.729,1.729,0,0,1,1.273.559,1.872,1.872,0,0,1,.466,1.633c-.113.582-.278,1.094-.057,1.47a.973.973,0,0,0,.957.5,1.105,1.105,0,0,0,.689-.394C1592.284,2767.376,1592.323,2767.264,1592.349,2767.272Z" transform="translate(-1587.687 -2763.76)" fill="#fafafa"/>
          </g>
        </g>
        <g id="Grupo_133802" data-name="Grupo 133802" transform="translate(59.322 6.477)">
          <g id="Grupo_133801" data-name="Grupo 133801">
            <path id="Trazado_191548" data-name="Trazado 191548" d="M1613.424,2766.024c.018,0,.024.132-.083.331a1.157,1.157,0,0,1-.757.558,1.212,1.212,0,0,1-1.271-.583,1.377,1.377,0,0,1-.159-.85c.029-.29.107-.562.152-.831a1.6,1.6,0,0,0-.364-1.367,1.533,1.533,0,0,0-1.05-.528,2.657,2.657,0,0,0-1.128.241c-.036-.008.313-.463,1.138-.481a1.725,1.725,0,0,1,1.273.558,1.871,1.871,0,0,1,.466,1.633c-.112.58-.277,1.094-.056,1.47a.972.972,0,0,0,.956.5,1.1,1.1,0,0,0,.689-.395C1613.359,2766.128,1613.4,2766.016,1613.424,2766.024Z" transform="translate(-1608.761 -2762.512)" fill="#fafafa"/>
          </g>
        </g>
        <g id="Grupo_133804" data-name="Grupo 133804" transform="translate(9.501 35.511)">
          <g id="Grupo_133803" data-name="Grupo 133803">
            <path id="Trazado_191549" data-name="Trazado 191549" d="M1557.976,2798.338c.018,0,.024.132-.083.331a1.158,1.158,0,0,1-.757.558,1.211,1.211,0,0,1-1.27-.583,1.377,1.377,0,0,1-.159-.85c.029-.29.107-.563.152-.831a1.6,1.6,0,0,0-.364-1.368,1.531,1.531,0,0,0-1.049-.528,2.679,2.679,0,0,0-1.129.241c-.036-.008.313-.463,1.138-.481a1.725,1.725,0,0,1,1.273.558,1.872,1.872,0,0,1,.466,1.634c-.112.58-.277,1.094-.056,1.47a.971.971,0,0,0,.956.5,1.1,1.1,0,0,0,.689-.395C1557.911,2798.443,1557.95,2798.33,1557.976,2798.338Z" transform="translate(-1553.313 -2794.827)" fill="#fafafa"/>
          </g>
        </g>
      </g>
      <g id="Grupo_133811" data-name="Grupo 133811" transform="translate(25.877 60.216)">
        <g id="Grupo_133806" data-name="Grupo 133806" transform="translate(34.312 55.314)">
          <path id="Trazado_191550" data-name="Trazado 191550" d="M1592.223,2851.792l-.517,57.471h3.273l.243-56.328s.164-2.574,2.128-2.746,31.37,1.311,31.37,1.311l8.666,57.762h3.764l-8.465-57.755s-24.7-8.354-36.971-5.779c0,0-2.946-.544-3.11,1.716S1592.223,2851.792,1592.223,2851.792Z" transform="translate(-1591.706 -2845.236)" fill="#e1e1e1"/>
        </g>
        <g id="Grupo_133807" data-name="Grupo 133807" transform="translate(0.096)">
          <path id="Trazado_191551" data-name="Trazado 191551" d="M1588.932,2838.9s5.108-39.847,6.946-46.616a12.219,12.219,0,0,1,5.663-7.236,9.6,9.6,0,0,1,5.185-1.374l27.127.6a4.1,4.1,0,0,1,3.957,4.744l-8.99,56.243c-9.983-.025-33.339,0-33.339,0s-31.955-3.489-36.858-3.7c-3.067-.134-3.3,1.045-3.554,2.331h0c-2.876-2.33-1.16-7.118,2.535-6.892Z" transform="translate(-1553.625 -2783.674)" fill="#375a64"/>
        </g>
        <g id="Grupo_133809" data-name="Grupo 133809" transform="translate(41.378 3.176)">
          <g id="Grupo_133808" data-name="Grupo 133808">
            <path id="Trazado_191552" data-name="Trazado 191552" d="M1642.288,2787.364a1.172,1.172,0,0,1-.234.017l-.684.017-2.628.032-9.667.054-6.676.021-3.719.009-1.944,0c-.657,0-1.329-.013-1.981.042a7.307,7.307,0,0,0-6.154,4.861,12.336,12.336,0,0,0-.46,2.14l-.364,2.227q-.368,2.245-.745,4.551c-2.031,12.283-3.871,23.4-5.206,31.471-.68,4.01-1.231,7.26-1.617,9.531-.195,1.108-.349,1.977-.456,2.589-.053.281-.1.5-.127.672a1.231,1.231,0,0,1-.055.226,1.124,1.124,0,0,1,.02-.233l.094-.677c.093-.615.225-1.486.394-2.6.359-2.275.874-5.532,1.509-9.549,1.31-8.075,3.115-19.2,5.108-31.487q.379-2.3.747-4.551.185-1.122.366-2.228a12.625,12.625,0,0,1,.477-2.195,7.625,7.625,0,0,1,6.438-5.064c.693-.054,1.355-.033,2.013-.036l1.944,0,3.719.009,6.676.021,9.667.054,2.628.032.684.017A1.1,1.1,0,0,1,1642.288,2787.364Z" transform="translate(-1599.569 -2787.209)" fill="#1a2e35"/>
          </g>
        </g>
        <g id="Grupo_133810" data-name="Grupo 133810" transform="translate(0 56.964)">
          <path id="Trazado_191553" data-name="Trazado 191553" d="M1555.007,2851.978l-1.489,57.471h3.273l.848-56.238s.04-3.348,2.59-3.069c1.959.215,31.654,3.666,31.654,3.666l10,55.641h3.764l-10.174-57.755-36.394-4.586a3.893,3.893,0,0,0-2.222.336,3.233,3.233,0,0,0-1.8,2.878C1554.9,2852.582,1555.007,2851.978,1555.007,2851.978Z" transform="translate(-1553.518 -2847.073)" fill="#ececec"/>
        </g>
      </g>
      <g id="Grupo_133818" data-name="Grupo 133818" transform="translate(61.28 60.65)">
        <g id="Grupo_133812" data-name="Grupo 133812" opacity="0.8" style="isolation: isolate">
          <path id="Trazado_191554" data-name="Trazado 191554" d="M1633.279,2784.221s-18.324,59.576-40.359,54.731l.365-2.809s17.031,2.83,37.072-51.986Z" transform="translate(-1592.92 -2784.157)" fill="#bddcf6"/>
        </g>
        <g id="Grupo_133813" data-name="Grupo 133813" transform="translate(1.575 39.371)" opacity="0.8" style="isolation: isolate">
          <path id="Trazado_191555" data-name="Trazado 191555" d="M1594.673,2842.731a51.262,51.262,0,0,0,3.583,18.108c.662,1.673,1.532,3.438,3.152,4.219,1.6.774,3.506.373,5.223-.1a79.526,79.526,0,0,0,12.459-4.585,7.564,7.564,0,0,0,3.772-2.947c.9-1.717.426-3.8-.088-5.67q-2.475-9-5.551-17.828c-.428-1.225-2.388-5.952-2.388-5.952" transform="translate(-1594.673 -2827.975)" fill="#bddcf6"/>
        </g>
        <g id="Grupo_133815" data-name="Grupo 133815" transform="translate(2.545 46.425)">
          <g id="Grupo_133814" data-name="Grupo 133814">
            <path id="Trazado_191556" data-name="Trazado 191556" d="M1617.146,2835.826a1.148,1.148,0,0,1,.009.319c0,.209-.023.516-.059.911a18.885,18.885,0,0,1-.623,3.3,17.243,17.243,0,0,1-2.031,4.552,14.553,14.553,0,0,1-4.282,4.344,12.363,12.363,0,0,1-5.753,2.014,11.284,11.284,0,0,1-4.928-.731,9.877,9.877,0,0,1-2.879-1.735,6.908,6.908,0,0,1-.648-.645,1.12,1.12,0,0,1-.2-.25c.026-.025.318.3.932.793a10.542,10.542,0,0,0,2.88,1.612,11.313,11.313,0,0,0,4.817.643,12.259,12.259,0,0,0,5.593-1.986,14.541,14.541,0,0,0,4.2-4.229,17.7,17.7,0,0,0,2.064-4.449,22.313,22.313,0,0,0,.722-3.247C1617.079,2836.26,1617.116,2835.824,1617.146,2835.826Z" transform="translate(-1595.752 -2835.826)" fill="#1a2e35"/>
          </g>
        </g>
        <g id="Grupo_133817" data-name="Grupo 133817" transform="translate(15.195 57.312)">
          <g id="Grupo_133816" data-name="Grupo 133816">
            <path id="Trazado_191557" data-name="Trazado 191557" d="M1609.9,2853.623a23.942,23.942,0,0,1,.384-5.68,11.964,11.964,0,0,1-.022,2.852A12.1,12.1,0,0,1,1609.9,2853.623Z" transform="translate(-1609.831 -2847.943)" fill="#1a2e35"/>
          </g>
        </g>
      </g>
    </g>
  </g>
</svg>
