<svg xmlns="http://www.w3.org/2000/svg" width="945" height="362" viewBox="0 0 945 362">
  <g id="Group_133573" data-name="Group 133573" transform="translate(-328 -2037)">
    <g id="Group_133565" data-name="Group 133565" transform="translate(-716.676 -219.521)">
      <rect id="Rectangle_41651" data-name="Rectangle 41651" width="51.96" height="32.796" transform="translate(1501.758 2350.592)" fill="#feca2e"/>
      <rect id="Rectangle_41652" data-name="Rectangle 41652" width="51.96" height="32.796" transform="translate(1501.758 2394.891)" fill="#feca2e"/>
      <rect id="Rectangle_41653" data-name="Rectangle 41653" width="51.96" height="32.796" transform="translate(1501.758 2439.19)" fill="#feca2e"/>
      <rect id="Rectangle_41654" data-name="Rectangle 41654" width="51.96" height="32.796" transform="translate(1501.758 2483.489)" fill="#feca2e"/>
      <rect id="Rectangle_41655" data-name="Rectangle 41655" width="51.96" height="32.796" transform="translate(1568.646 2350.592)" fill="#0f2771"/>
      <rect id="Rectangle_41656" data-name="Rectangle 41656" width="51.96" height="32.796" transform="translate(1568.646 2394.891)" fill="#0f2771"/>
      <rect id="Rectangle_41657" data-name="Rectangle 41657" width="51.96" height="32.796" transform="translate(1568.646 2439.19)" fill="#0f2771"/>
      <rect id="Rectangle_41658" data-name="Rectangle 41658" width="51.96" height="32.796" transform="translate(1568.646 2483.489)" fill="#0f2771"/>
      <rect id="Rectangle_41659" data-name="Rectangle 41659" width="51.96" height="32.796" transform="translate(1431.914 2350.592)" fill="#4dd0e1"/>
      <rect id="Rectangle_41660" data-name="Rectangle 41660" width="51.96" height="32.796" transform="translate(1431.914 2394.891)" fill="#4dd0e1"/>
      <rect id="Rectangle_41661" data-name="Rectangle 41661" width="51.96" height="32.796" transform="translate(1431.914 2439.19)" fill="#4dd0e1"/>
      <rect id="Rectangle_41662" data-name="Rectangle 41662" width="51.96" height="32.796" transform="translate(1431.914 2483.489)" fill="#4dd0e1"/>
      <rect id="Rectangle_41663" data-name="Rectangle 41663" width="50.445" height="32.796" transform="translate(1164.34 2350.592)" fill="#0f2771"/>
      <rect id="Rectangle_41664" data-name="Rectangle 41664" width="50.445" height="32.796" transform="translate(1145.305 2406.394)" fill="#0f2771"/>
      <rect id="Rectangle_41665" data-name="Rectangle 41665" width="50.445" height="32.796" transform="translate(1115.31 2507.914) rotate(-37.445)" fill="#0f2771"/>
      <rect id="Rectangle_41666" data-name="Rectangle 41666" width="50.445" height="32.796" transform="translate(1271.68 2414.034) rotate(-16.105)" fill="#0f2771"/>
      <rect id="Rectangle_41667" data-name="Rectangle 41667" width="50.445" height="32.796" transform="translate(1275.239 2483.489)" fill="#0f2771"/>
      <rect id="Rectangle_41668" data-name="Rectangle 41668" width="50.445" height="32.796" transform="translate(1216.559 2467.279) rotate(7.567)" fill="#4dd0e1"/>
      <rect id="Rectangle_41669" data-name="Rectangle 41669" width="50.445" height="32.796" transform="translate(1079.645 2420.992) rotate(-3.08)" fill="#4dd0e1"/>
      <rect id="Rectangle_41670" data-name="Rectangle 41670" width="50.445" height="32.796" transform="translate(1215.535 2415.222) rotate(4.473)" fill="#4dd0e1"/>
      <rect id="Rectangle_41671" data-name="Rectangle 41671" width="50.445" height="32.796" transform="translate(1286.133 2334.713) rotate(21.797)" fill="#4dd0e1"/>
      <g id="Group_133562" data-name="Group 133562" transform="translate(1071.676 2347.313)">
        <rect id="Rectangle_41672" data-name="Rectangle 41672" width="51.96" height="32.796" transform="translate(32.232 0) rotate(7.567)" fill="#feca2e"/>
        <rect id="Rectangle_41673" data-name="Rectangle 41673" width="51.96" height="32.796" transform="translate(4.319 26.372) rotate(7.567)" fill="#feca2e"/>
        <rect id="Rectangle_41674" data-name="Rectangle 41674" width="51.96" height="32.796" transform="translate(22.716 128.815) rotate(-3.08)" fill="#feca2e"/>
        <rect id="Rectangle_41675" data-name="Rectangle 41675" width="51.96" height="32.796" transform="translate(81.817 127.537) rotate(-35.155)" fill="#feca2e"/>
        <rect id="Rectangle_41676" data-name="Rectangle 41676" width="51.96" height="32.796" transform="translate(151.088 19.384)" fill="#feca2e"/>
        <rect id="Rectangle_41677" data-name="Rectangle 41677" width="51.96" height="32.796" transform="translate(218.392 106.746)" fill="#feca2e"/>
      </g>
      <rect id="Rectangle_41678" data-name="Rectangle 41678" width="48.541" height="165.693" transform="translate(1781.676 2350.592)" fill="#799d2e"/>
      <rect id="Rectangle_41679" data-name="Rectangle 41679" width="48.541" height="165.693" transform="translate(1844.963 2350.592)" fill="#007749"/>
      <g id="Group_133563" data-name="Group 133563" transform="translate(1354.165 2428.474)" style="isolation: isolate">
        <rect id="Rectangle_41680" data-name="Rectangle 41680" width="40.307" height="5.327" transform="translate(0 8.869)" fill="#636363" style="isolation: isolate"/>
        <path id="Path_191461" data-name="Path 191461" d="M1348.688,2420.906l-19.975-11.532v23.064Z" transform="translate(-1288.406 -2409.373)" fill="#636363" style="isolation: isolate"/>
      </g>
      <g id="Group_133564" data-name="Group 133564" transform="translate(1647.006 2428.474)" style="isolation: isolate">
        <rect id="Rectangle_41681" data-name="Rectangle 41681" width="40.307" height="5.327" transform="translate(0 8.869)" fill="#636363" style="isolation: isolate"/>
        <path id="Path_191462" data-name="Path 191462" d="M1581.872,2420.906l-19.974-11.532v23.064Z" transform="translate(-1521.591 -2409.373)" fill="#636363" style="isolation: isolate"/>
      </g>
    </g>
    <g id="Rectangle_40197" data-name="Rectangle 40197" transform="translate(328 2037)" fill="none" stroke="#dee9f0" stroke-width="3">
      <rect width="945" height="362" stroke="none"/>
      <rect x="1.5" y="1.5" width="942" height="359" fill="none"/>
    </g>
    <path id="Rectangle_41682" data-name="Rectangle 41682" d="M12,0H283a12,12,0,0,1,12,12V50a0,0,0,0,1,0,0H0a0,0,0,0,1,0,0V12A12,12,0,0,1,12,0Z" transform="translate(328 2349)" fill="#e8e8e8"/>
    <path id="Rectangle_41684" data-name="Rectangle 41684" d="M12,0H283a12,12,0,0,1,12,12V50a0,0,0,0,1,0,0H0a0,0,0,0,1,0,0V12A12,12,0,0,1,12,0Z" transform="translate(978 2349)" fill="#e8e8e8"/>
    <path id="Rectangle_41683" data-name="Rectangle 41683" d="M12,0H283a12,12,0,0,1,12,12V50a0,0,0,0,1,0,0H0a0,0,0,0,1,0,0V12A12,12,0,0,1,12,0Z" transform="translate(958 2087) rotate(180)" fill="#e8e8e8"/>
    <text id="Datos" transform="translate(453 2380)" fill="#12263f" font-size="18" font-family="Roboto-Black, Roboto" font-weight="800"><tspan x="0" y="0">Datos</tspan></text>
    <text id="Información" transform="translate(761 2068)" fill="#12263f" font-size="18" font-family="Roboto-Black, Roboto" font-weight="800"><tspan x="0" y="0">Información</tspan></text>
    <text id="Conocimiento" transform="translate(1069 2380)" fill="#12263f" font-size="18" font-family="Roboto-Black, Roboto" font-weight="800"><tspan x="0" y="0">Conocimiento</tspan></text>
    <g id="Group_133570" data-name="Group 133570" transform="translate(0 16)">
      <circle id="Ellipse_4883" data-name="Ellipse 4883" cx="15" cy="15" r="15" transform="translate(465 2316)" fill="#4dd0e1"/>
      <path id="Path_190421" data-name="Path 190421" d="M9.93-6.288h4.926v4.175H9.93V3.535H5.38V-2.113H.439V-6.288H5.38v-5.489H9.93Z" transform="translate(472.519 2334.956)" fill="#12263f"/>
    </g>
    <g id="Group_133572" data-name="Group 133572" transform="translate(640 16)">
      <circle id="Ellipse_4883-2" data-name="Ellipse 4883" cx="15" cy="15" r="15" transform="translate(465 2316)" fill="#4dd0e1"/>
      <path id="Path_190421-2" data-name="Path 190421" d="M9.93-6.288h4.926v4.175H9.93V3.535H5.38V-2.113H.439V-6.288H5.38v-5.489H9.93Z" transform="translate(472.519 2334.956)" fill="#12263f"/>
    </g>
    <g id="Group_133571" data-name="Group 133571" transform="translate(335 -243)">
      <circle id="Ellipse_4883-3" data-name="Ellipse 4883" cx="15" cy="15" r="15" transform="translate(465 2316)" fill="#4dd0e1"/>
      <path id="Path_190421-3" data-name="Path 190421" d="M9.93-6.288h4.926v4.175H9.93V3.535H5.38V-2.113H.439V-6.288H5.38v-5.489H9.93Z" transform="translate(472.519 2334.956)" fill="#12263f"/>
    </g>
  </g>
</svg>
