<svg xmlns="http://www.w3.org/2000/svg" xmlns:xlink="http://www.w3.org/1999/xlink" width="494" height="377.999" viewBox="0 0 494 377.999">
  <defs>
    <clipPath id="clip-path">
      <rect id="Rectangle_40481" data-name="Rectangle 40481" width="494" height="329" rx="17" transform="translate(494 329.111) rotate(-180)" fill="none"/>
    </clipPath>
  </defs>
  <g id="Group_139909" data-name="Group 139909" transform="translate(-185 -346.001)">
    <g id="Group_108973" data-name="Group 108973" transform="translate(-396.462 240.405)">
      <g id="Group_108972" data-name="Group 108972" transform="translate(735.758 116.935)">
        <g id="Group_108938" data-name="Group 108938" transform="translate(0 2.075)">
          <g id="Group_108936" data-name="Group 108936" transform="translate(2.256 2.256)" opacity="0.5">
            <path id="Path_115383" data-name="Path 115383" d="M819.3,189.028V149.316l36.619-19.856,36.619,19.856v39.712l-36.619,19.856Z" transform="translate(-819.302 -129.46)" fill="#fff"/>
          </g>
          <g id="Group_108937" data-name="Group 108937" transform="translate(8.619 9.156)">
            <path id="Path_115384" data-name="Path 115384" d="M828.969,189.161V156.349l30.257-16.406,30.257,16.406v32.812l-30.257,16.406Z" transform="translate(-828.969 -139.943)" fill="none" stroke="#fff" stroke-linecap="round" stroke-miterlimit="10" stroke-width="2"/>
          </g>
          <circle id="Ellipse_4738" data-name="Ellipse 4738" cx="2.256" cy="2.256" r="2.256" transform="translate(36.619)" fill="#fff"/>
          <circle id="Ellipse_4739" data-name="Ellipse 4739" cx="2.256" cy="2.256" r="2.256" transform="translate(36.619 79.654)" fill="#fff"/>
          <circle id="Ellipse_4740" data-name="Ellipse 4740" cx="2.256" cy="2.256" r="2.256" transform="translate(0 20.237)" fill="#fff"/>
          <circle id="Ellipse_4741" data-name="Ellipse 4741" cx="2.256" cy="2.256" r="2.256" transform="translate(0 59.544)" fill="#fff"/>
          <path id="Path_115385" data-name="Path 115385" d="M927.141,159.034a2.256,2.256,0,1,0,2.256-2.256A2.257,2.257,0,0,0,927.141,159.034Z" transform="translate(-853.903 -136.54)" fill="#fff"/>
          <path id="Path_115386" data-name="Path 115386" d="M927.141,218.751a2.256,2.256,0,1,0,2.256-2.256A2.257,2.257,0,0,0,927.141,218.751Z" transform="translate(-853.903 -156.95)" fill="#fff"/>
        </g>
        <g id="Group_108941" data-name="Group 108941" transform="translate(14.457 91.89)">
          <g id="Group_108939" data-name="Group 108939" transform="translate(2.257 2.256)" opacity="0.5">
            <path id="Path_115387" data-name="Path 115387" d="M841.266,325.479V285.767l36.619-19.856L914.5,285.767v39.712l-36.619,19.856Z" transform="translate(-841.266 -265.911)" fill="#fff"/>
          </g>
          <g id="Group_108940" data-name="Group 108940" transform="translate(8.619 9.156)">
            <path id="Path_115388" data-name="Path 115388" d="M850.933,325.612V292.8l30.257-16.406L911.446,292.8v32.812l-30.257,16.406Z" transform="translate(-850.933 -276.394)" fill="none" stroke="#fff" stroke-linecap="round" stroke-miterlimit="10" stroke-width="2"/>
          </g>
          <path id="Path_115389" data-name="Path 115389" d="M893.472,264.739a2.256,2.256,0,1,0,2.256-2.256A2.257,2.257,0,0,0,893.472,264.739Z" transform="translate(-856.852 -262.483)" fill="#fff"/>
          <path id="Path_115390" data-name="Path 115390" d="M893.472,385.753a2.256,2.256,0,1,0,2.256-2.256A2.257,2.257,0,0,0,893.472,385.753Z" transform="translate(-856.852 -303.843)" fill="#fff"/>
          <circle id="Ellipse_4742" data-name="Ellipse 4742" cx="2.256" cy="2.256" r="2.256" transform="translate(0 20.237)" fill="#fff"/>
          <path id="Path_115391" data-name="Path 115391" d="M837.838,355.2a2.256,2.256,0,1,0,2.256-2.256A2.257,2.257,0,0,0,837.838,355.2Z" transform="translate(-837.838 -293.401)" fill="#fff"/>
          <circle id="Ellipse_4743" data-name="Ellipse 4743" cx="2.256" cy="2.256" r="2.256" transform="translate(73.239 20.237)" fill="#fff"/>
          <path id="Path_115392" data-name="Path 115392" d="M949.1,355.2a2.256,2.256,0,1,0,2.256-2.256A2.257,2.257,0,0,0,949.1,355.2Z" transform="translate(-875.867 -293.401)" fill="#fff"/>
        </g>
        <g id="Group_108944" data-name="Group 108944" transform="translate(222.836)">
          <g id="Group_108942" data-name="Group 108942" transform="translate(2.995 2.995)" opacity="0.5">
            <path id="Path_115393" data-name="Path 115393" d="M1158.967,206.492V153.784l48.6-26.354,48.6,26.354v52.708l-48.6,26.354Z" transform="translate(-1158.967 -127.43)" fill="#fff"/>
          </g>
          <g id="Group_108943" data-name="Group 108943" transform="translate(11.44 12.153)">
            <path id="Path_115394" data-name="Path 115394" d="M1171.8,206.669v-43.55l40.158-21.775,40.159,21.775v43.55l-40.159,21.775Z" transform="translate(-1171.797 -141.343)" fill="none" stroke="#fff" stroke-linecap="round" stroke-miterlimit="10" stroke-width="2"/>
          </g>
          <circle id="Ellipse_4744" data-name="Ellipse 4744" cx="2.995" cy="2.995" r="2.995" transform="translate(48.604)" fill="#fff"/>
          <circle id="Ellipse_4745" data-name="Ellipse 4745" cx="2.995" cy="2.995" r="2.995" transform="translate(48.604 105.722)" fill="#fff"/>
          <circle id="Ellipse_4746" data-name="Ellipse 4746" cx="2.995" cy="2.995" r="2.995" transform="translate(0 26.86)" fill="#fff"/>
          <circle id="Ellipse_4747" data-name="Ellipse 4747" cx="2.995" cy="2.995" r="2.995" transform="translate(0 79.032)" fill="#fff"/>
          <circle id="Ellipse_4748" data-name="Ellipse 4748" cx="2.995" cy="2.995" r="2.995" transform="translate(97.207 26.86)" fill="#fff"/>
          <circle id="Ellipse_4749" data-name="Ellipse 4749" cx="2.995" cy="2.995" r="2.995" transform="translate(97.207 79.032)" fill="#fff"/>
        </g>
        <g id="Group_108947" data-name="Group 108947" transform="translate(209.285 123.366)">
          <g id="Group_108945" data-name="Group 108945" transform="translate(2.995 2.995)" opacity="0.5">
            <path id="Path_115395" data-name="Path 115395" d="M1138.379,393.916V341.208l48.6-26.354,48.6,26.354v52.708l-48.6,26.354Z" transform="translate(-1138.379 -314.854)" fill="#fff"/>
          </g>
          <g id="Group_108946" data-name="Group 108946" transform="translate(11.44 12.153)">
            <path id="Path_115396" data-name="Path 115396" d="M1151.209,394.092v-43.55l40.159-21.775,40.159,21.775v43.55l-40.159,21.775Z" transform="translate(-1151.209 -328.767)" fill="none" stroke="#fff" stroke-linecap="round" stroke-miterlimit="10" stroke-width="2"/>
          </g>
          <circle id="Ellipse_4750" data-name="Ellipse 4750" cx="2.995" cy="2.995" r="2.995" transform="translate(48.603)" fill="#fff"/>
          <circle id="Ellipse_4751" data-name="Ellipse 4751" cx="2.995" cy="2.995" r="2.995" transform="translate(48.603 105.722)" fill="#fff"/>
          <path id="Path_115397" data-name="Path 115397" d="M1133.83,354.106a2.995,2.995,0,1,0,2.994-2.995A2.995,2.995,0,0,0,1133.83,354.106Z" transform="translate(-1133.83 -324.251)" fill="#fff"/>
          <circle id="Ellipse_4752" data-name="Ellipse 4752" cx="2.995" cy="2.995" r="2.995" transform="translate(0 79.032)" fill="#fff"/>
          <path id="Path_115398" data-name="Path 115398" d="M1281.511,354.106a2.995,2.995,0,1,0,2.995-2.995A2.995,2.995,0,0,0,1281.511,354.106Z" transform="translate(-1184.304 -324.251)" fill="#fff"/>
          <circle id="Ellipse_4753" data-name="Ellipse 4753" cx="2.995" cy="2.995" r="2.995" transform="translate(97.207 79.032)" fill="#fff"/>
        </g>
        <g id="Group_108950" data-name="Group 108950" transform="translate(170.992 223.589)">
          <g id="Group_108948" data-name="Group 108948" transform="translate(2.397 2.396)" opacity="0.5">
            <path id="Path_115399" data-name="Path 115399" d="M1079.294,529.471V487.3l38.891-21.088,38.891,21.088v42.176l-38.891,21.088Z" transform="translate(-1079.294 -466.208)" fill="#fff"/>
          </g>
          <g id="Group_108949" data-name="Group 108949" transform="translate(9.154 9.724)">
            <path id="Path_115400" data-name="Path 115400" d="M1089.56,529.612V494.765l32.134-17.424,32.134,17.424v34.848l-32.134,17.424Z" transform="translate(-1089.56 -477.341)" fill="none" stroke="#fff" stroke-linecap="round" stroke-miterlimit="10" stroke-width="2"/>
          </g>
          <circle id="Ellipse_4754" data-name="Ellipse 4754" cx="2.396" cy="2.396" r="2.396" transform="translate(38.892)" fill="#fff"/>
          <circle id="Ellipse_4755" data-name="Ellipse 4755" cx="2.396" cy="2.396" r="2.396" transform="translate(38.892 84.596)" fill="#fff"/>
          <path id="Path_115401" data-name="Path 115401" d="M1075.653,497.617a2.4,2.4,0,1,0,2.4-2.4A2.4,2.4,0,0,0,1075.653,497.617Z" transform="translate(-1075.653 -473.727)" fill="#fff"/>
          <path id="Path_115402" data-name="Path 115402" d="M1075.653,561.039a2.4,2.4,0,1,0,2.4-2.4A2.4,2.4,0,0,0,1075.653,561.039Z" transform="translate(-1075.653 -495.403)" fill="#fff"/>
          <path id="Path_115403" data-name="Path 115403" d="M1193.824,497.617a2.4,2.4,0,1,0,2.4-2.4A2.4,2.4,0,0,0,1193.824,497.617Z" transform="translate(-1116.041 -473.727)" fill="#fff"/>
          <path id="Path_115404" data-name="Path 115404" d="M1193.824,561.039a2.4,2.4,0,1,0,2.4-2.4A2.4,2.4,0,0,0,1193.824,561.039Z" transform="translate(-1116.041 -495.403)" fill="#fff"/>
        </g>
        <g id="Group_108951" data-name="Group 108951" transform="translate(150.08 162.784)">
          <path id="Path_115405" data-name="Path 115405" d="M1044.079,370.293c-.067-.02-.131-.051-.2-.073C1043.977,370.159,1044.181,370.189,1044.079,370.293Z" transform="translate(-1043.882 -370.189)" fill="#f0c49b"/>
        </g>
        <g id="Group_108952" data-name="Group 108952" transform="translate(231.65 156.825)" opacity="0.5" style="mix-blend-mode: multiply;isolation: isolate">
          <path id="Path_115406" data-name="Path 115406" d="M1173.2,381.4c-.338-3.337.217-6.953,2.434-9.47s6.711-3.726,9.333-1.634a13.532,13.532,0,0,1,11.017-9.029,16.5,16.5,0,0,1,13.653,4.916,21.243,21.243,0,0,1,5.791,13.538,8.555,8.555,0,0,1,7.885,2.424,11.048,11.048,0,0,1,2.959,7.7,8.6,8.6,0,0,1-1.327,4.914c-1.714,2.488-4.978,3.417-8,3.488l-39.215-.3c-4.138,0-8.3-1.933-9.592-5.865S1169.483,383.215,1173.2,381.4Z" transform="translate(-1167.808 -361.136)" fill="#c6c6c6"/>
        </g>
        <g id="Group_108954" data-name="Group 108954" transform="translate(36.619 117.431)">
          <g id="Group_108953" data-name="Group 108953">
            <path id="Path_115407" data-name="Path 115407" d="M910.912,320.168a17.906,17.906,0,0,0-2.57-9.27,17.979,17.979,0,0,0,3.371-2.071,16.085,16.085,0,0,1,4.66,11.341,16.347,16.347,0,0,1-.155,2.211,50.71,50.71,0,0,0-5.33-1.278Q910.912,320.637,910.912,320.168Z" transform="translate(-884.097 -303.864)" fill="none" stroke="#23276e" stroke-linecap="round" stroke-linejoin="round" stroke-width="2"/>
            <path id="Path_115408" data-name="Path 115408" d="M877.718,319.962c0,.286.008.57.021.852a50.74,50.74,0,0,0-6.065,1.447,16.254,16.254,0,0,1-.166-2.3,16.09,16.09,0,0,1,5.066-11.735,18.007,18.007,0,0,0,3.745,2.411A17.911,17.911,0,0,0,877.718,319.962Z" transform="translate(-871.508 -303.659)" fill="none" stroke="#23276e" stroke-linecap="round" stroke-linejoin="round" stroke-width="2"/>
            <path id="Path_115409" data-name="Path 115409" d="M896.71,313.682a17.915,17.915,0,0,0,7.656-1.709,17.906,17.906,0,0,1,2.57,9.27q0,.469-.024.933a57.882,57.882,0,0,0-10.2-.941Z" transform="translate(-880.122 -304.939)" fill="none" stroke="#23276e" stroke-linecap="round" stroke-linejoin="round" stroke-width="2"/>
            <path id="Path_115410" data-name="Path 115410" d="M891.019,321.205a58.192,58.192,0,0,0-10.056.862c-.013-.282-.021-.567-.021-.852a17.911,17.911,0,0,1,2.6-9.324,17.92,17.92,0,0,0,7.778,1.764v7.553Z" transform="translate(-874.732 -304.911)" fill="none" stroke="#23276e" stroke-linecap="round" stroke-linejoin="round" stroke-width="2"/>
            <path id="Path_115411" data-name="Path 115411" d="M896.67,301.287v.069l-.076-.034Z" transform="translate(-880.082 -301.287)" fill="none" stroke="#23276e" stroke-linecap="round" stroke-linejoin="round" stroke-width="2"/>
            <path id="Path_115412" data-name="Path 115412" d="M897.054,301.565a16.082,16.082,0,0,1,10.8,4.78,17.975,17.975,0,0,1-3.371,2.071A18.067,18.067,0,0,0,897.054,301.565Z" transform="translate(-880.239 -301.382)" fill="none" stroke="#23276e" stroke-linecap="round" stroke-linejoin="round" stroke-width="2"/>
            <path id="Path_115413" data-name="Path 115413" d="M882.95,308.352a18.009,18.009,0,0,1-3.745-2.411,16.079,16.079,0,0,1,11.071-4.4l.1,0A18.071,18.071,0,0,0,882.95,308.352Z" transform="translate(-874.139 -301.373)" fill="none" stroke="#23276e" stroke-linecap="round" stroke-linejoin="round" stroke-width="2"/>
            <path id="Path_115414" data-name="Path 115414" d="M896.71,301.392c.076.036.151.076.226.114-.075,0-.151,0-.226-.006Z" transform="translate(-880.122 -301.323)" fill="none" stroke="#23276e" stroke-linecap="round" stroke-linejoin="round" stroke-width="2"/>
            <path id="Path_115415" data-name="Path 115415" d="M896.178,301.474c.091-.045.182-.09.274-.134l.076.034v.108C896.411,301.479,896.3,301.474,896.178,301.474Z" transform="translate(-879.94 -301.305)" fill="none" stroke="#23276e" stroke-linecap="round" stroke-linejoin="round" stroke-width="2"/>
            <path id="Path_115416" data-name="Path 115416" d="M904.366,308.413a17.915,17.915,0,0,1-7.656,1.709v-8.566c.075,0,.151,0,.226.006A18.067,18.067,0,0,1,904.366,308.413Z" transform="translate(-880.122 -301.379)" fill="none" stroke="#23276e" stroke-linecap="round" stroke-linejoin="round" stroke-width="2"/>
            <path id="Path_115417" data-name="Path 115417" d="M892.672,310.118a17.92,17.92,0,0,1-7.778-1.764,18.07,18.07,0,0,1,7.427-6.811c.117,0,.233.005.35.009Z" transform="translate(-876.083 -301.374)" fill="none" stroke="#23276e" stroke-linecap="round" stroke-linejoin="round" stroke-width="2"/>
            <path id="Path_115418" data-name="Path 115418" d="M910.363,327.474a50.7,50.7,0,0,1,5.33,1.278A16.118,16.118,0,0,1,910,338.972a17.946,17.946,0,0,0-3.192-1.658A17.9,17.9,0,0,0,910.363,327.474Z" transform="translate(-883.572 -310.237)" fill="none" stroke="#23276e" stroke-linecap="round" stroke-linejoin="round" stroke-width="2"/>
            <path id="Path_115419" data-name="Path 115419" d="M881.421,337.318a17.936,17.936,0,0,0-3.562,1.941,16.119,16.119,0,0,1-6.1-10.462,50.738,50.738,0,0,1,6.065-1.447A17.9,17.9,0,0,0,881.421,337.318Z" transform="translate(-871.594 -310.195)" fill="none" stroke="#23276e" stroke-linecap="round" stroke-linejoin="round" stroke-width="2"/>
            <path id="Path_115420" data-name="Path 115420" d="M891.332,326.044v9.508a17.93,17.93,0,0,0-6.762,1.319,17.9,17.9,0,0,1-3.6-9.967,58.189,58.189,0,0,1,10.056-.862Z" transform="translate(-874.743 -309.748)" fill="none" stroke="#23276e" stroke-linecap="round" stroke-linejoin="round" stroke-width="2"/>
            <path id="Path_115421" data-name="Path 115421" d="M896.71,326.045a57.882,57.882,0,0,1,10.2.941,17.9,17.9,0,0,1-3.557,9.84,17.935,17.935,0,0,0-6.645-1.273Z" transform="translate(-880.122 -309.749)" fill="none" stroke="#23276e" stroke-linecap="round" stroke-linejoin="round" stroke-width="2"/>
            <path id="Path_115422" data-name="Path 115422" d="M896.67,350.788l-.076-.034.076-.034Z" transform="translate(-880.082 -318.182)" fill="none" stroke="#23276e" stroke-linecap="round" stroke-linejoin="round" stroke-width="2"/>
            <path id="Path_115423" data-name="Path 115423" d="M903.473,342.424a17.944,17.944,0,0,1,3.192,1.658,16.067,16.067,0,0,1-9.611,3.689A18.065,18.065,0,0,0,903.473,342.424Z" transform="translate(-880.239 -315.347)" fill="none" stroke="#23276e" stroke-linecap="round" stroke-linejoin="round" stroke-width="2"/>
            <path id="Path_115424" data-name="Path 115424" d="M891,347.809l-.1,0a16.062,16.062,0,0,1-9.873-3.377,17.939,17.939,0,0,1,3.562-1.941A18.066,18.066,0,0,0,891,347.809Z" transform="translate(-874.761 -315.371)" fill="none" stroke="#23276e" stroke-linecap="round" stroke-linejoin="round" stroke-width="2"/>
            <path id="Path_115425" data-name="Path 115425" d="M896.528,350.555v.109l-.076.034c-.092-.043-.183-.089-.274-.134C896.3,350.564,896.411,350.558,896.528,350.555Z" transform="translate(-879.94 -318.126)" fill="none" stroke="#23276e" stroke-linecap="round" stroke-linejoin="round" stroke-width="2"/>
            <path id="Path_115426" data-name="Path 115426" d="M896.71,350.661v-.109l.226-.005C896.861,350.585,896.786,350.624,896.71,350.661Z" transform="translate(-880.122 -318.123)" fill="none" stroke="#23276e" stroke-linecap="round" stroke-linejoin="round" stroke-width="2"/>
            <path id="Path_115427" data-name="Path 115427" d="M903.355,341.763a18.064,18.064,0,0,1-6.419,5.347l-.226.005V340.49A17.935,17.935,0,0,1,903.355,341.763Z" transform="translate(-880.122 -314.686)" fill="none" stroke="#23276e" stroke-linecap="round" stroke-linejoin="round" stroke-width="2"/>
            <path id="Path_115428" data-name="Path 115428" d="M886.437,341.809a17.93,17.93,0,0,1,6.762-1.319v6.625c-.117,0-.233.009-.35.009A18.066,18.066,0,0,1,886.437,341.809Z" transform="translate(-876.61 -314.686)" fill="none" stroke="#23276e" stroke-linecap="round" stroke-linejoin="round" stroke-width="2"/>
          </g>
        </g>
        <rect id="Rectangle_40482" data-name="Rectangle 40482" width="42.653" height="30.709" rx="8.727" transform="translate(233.606 284.81) rotate(-180)" fill="#c6c6c6" opacity="0.5"/>
        <rect id="Rectangle_40483" data-name="Rectangle 40483" width="37.293" height="26.85" rx="7.599" transform="translate(230.926 282.881) rotate(-180)" fill="#fff"/>
        <text id="_" data-name="&lt; &gt;" transform="matrix(-1, 0, 0, 1, 229.484, 257.043)" fill="#23276e" font-size="28" font-family="Helvetica"><tspan x="9.028" y="22">&lt; </tspan></text>
        <path id="Path_115429" data-name="Path 115429" d="M1187.539,173.233a109.019,109.019,0,0,0,16.234-4.5,36.958,36.958,0,0,0,14.191-8.981l.007-.014,0,0,0,0,.007.014a36.956,36.956,0,0,0,14.19,8.981,109,109,0,0,0,16.235,4.5c.247,10.559-1.969,21.291-7.245,30.439a43.586,43.586,0,0,1-22.385,19.311s-.6.349-.805.28c-.205.069-.806-.28-.806-.28a43.586,43.586,0,0,1-22.385-19.311C1189.507,194.523,1187.292,183.791,1187.539,173.233Z" transform="translate(-942.895 -135.478)" fill="#c6c6c6" opacity="0.5" style="mix-blend-mode: multiply;isolation: isolate"/>
        <path id="Path_115430" data-name="Path 115430" d="M1195.756,179.41a89.7,89.7,0,0,0,13.351-3.7,30.392,30.392,0,0,0,11.668-7.385l.006-.012,0,0,0,0,.006.012a30.393,30.393,0,0,0,11.669,7.385,89.687,89.687,0,0,0,13.35,3.7,47.965,47.965,0,0,1-5.958,25.031,35.843,35.843,0,0,1-18.408,15.88s-.494.287-.662.23c-.168.057-.662-.23-.662-.23a35.844,35.844,0,0,1-18.409-15.88A47.973,47.973,0,0,1,1195.756,179.41Z" transform="translate(-945.705 -138.409)" fill="#fff"/>
        <g id="Group_108957" data-name="Group 108957" transform="translate(263.252 37.634)">
          <path id="Path_115431" data-name="Path 115431" d="M1215.818,201.008h22.938v17.981c0,.985-5.135,1.783-11.469,1.783s-11.469-.8-11.469-1.783V201.008Z" transform="translate(-1215.818 -187.217)" fill="#23276e"/>
          <path id="Path_115432" data-name="Path 115432" d="M1215.818,200.082c0,.985,5.135,1.783,11.469,1.783s11.469-.8,11.469-1.783-5.135-1.784-11.469-1.784S1215.818,199.1,1215.818,200.082Z" transform="translate(-1215.818 -186.291)" fill="#515aaf"/>
          <path id="Path_115433" data-name="Path 115433" d="M1239.089,200.636c0,.327,1.021.592,2.28.592s2.28-.265,2.28-.592-1.021-.592-2.28-.592S1239.089,200.309,1239.089,200.636Z" transform="translate(-1223.771 -186.887)" fill="#23276e"/>
          <ellipse id="Ellipse_4756" data-name="Ellipse 4756" cx="2.28" cy="0.592" rx="2.28" ry="0.592" transform="translate(2.548 13.156)" fill="#23276e"/>
          <path id="Path_115434" data-name="Path 115434" d="M1230.89,213.2a2.108,2.108,0,1,1,2.514,0l.693,3.872a1.333,1.333,0,0,1-1.312,1.569h-1.274a1.333,1.333,0,0,1-1.312-1.569Z" transform="translate(-1220.679 -190.087)" fill="#b2713b" style="mix-blend-mode: multiply;isolation: isolate"/>
          <g id="Group_108955" data-name="Group 108955" transform="translate(10.401 20.357)" opacity="0.46" style="mix-blend-mode: multiply;isolation: isolate">
            <path id="Path_115435" data-name="Path 115435" d="M1231.619,212.052a1.058,1.058,0,0,0,.434.851,1.04,1.04,0,0,1,.4,1.015l-.693,3.872a.294.294,0,0,0,.29.346h1.274a.294.294,0,0,0,.29-.346l-.692-3.872a1.038,1.038,0,0,1,.4-1.015,1.058,1.058,0,0,0,.434-.851,1.068,1.068,0,1,0-2.137,0Z" transform="translate(-1231.619 -210.984)" fill="#b2713b"/>
          </g>
          <g id="Group_108956" data-name="Group 108956" transform="translate(3.354)">
            <path id="Path_115436" data-name="Path 115436" d="M1228.693,180.061v0l.106,0,.132,0v.006a7.715,7.715,0,0,1,7.469,7.7v6.507a7.265,7.265,0,0,1-2.705,0v-6.507a5.038,5.038,0,0,0-10.076,0v6.507a7.264,7.264,0,0,1-2.705,0v-6.507C1220.913,183.577,1223.532,180.163,1228.693,180.061Z" transform="translate(-1220.913 -180.056)" fill="#c6c6c6"/>
            <path id="Path_115437" data-name="Path 115437" d="M1222.266,194.193v-5.872a6.424,6.424,0,0,1,6.354-6.423v0l.036,0,.036,0v0a6.425,6.425,0,0,1,6.355,6.424v5.872c.465,0,.914.022,1.353,0v.706a7.265,7.265,0,0,1-2.705,0v-6.507a5.274,5.274,0,0,0-5.193-5,5.005,5.005,0,0,0-4.884,5V194.9a7.264,7.264,0,0,1-2.705,0v-.706C1221.351,194.215,1221.8,194.193,1222.266,194.193Z" transform="translate(-1220.913 -180.684)" fill="#c6c6c6" opacity="0.5" style="mix-blend-mode: multiply;isolation: isolate"/>
          </g>
        </g>
        <g id="Group_108960" data-name="Group 108960" transform="translate(101.848 22.261)">
          <g id="Group_108958" data-name="Group 108958" transform="translate(2.995 2.995)" opacity="0.5">
            <path id="Path_115438" data-name="Path 115438" d="M975.156,240.312V187.6l48.6-26.354,48.6,26.354v52.708l-48.6,26.354Z" transform="translate(-975.156 -161.25)" fill="#fff"/>
          </g>
          <g id="Group_108959" data-name="Group 108959" transform="translate(11.44 12.153)">
            <path id="Path_115439" data-name="Path 115439" d="M987.986,240.489v-43.55l40.159-21.775,40.159,21.775v43.55l-40.159,21.775Z" transform="translate(-987.986 -175.163)" fill="none" stroke="#fff" stroke-linecap="round" stroke-miterlimit="10" stroke-width="2"/>
          </g>
          <circle id="Ellipse_4757" data-name="Ellipse 4757" cx="2.995" cy="2.995" r="2.995" transform="translate(48.603)" fill="#fff"/>
          <circle id="Ellipse_4758" data-name="Ellipse 4758" cx="2.995" cy="2.995" r="2.995" transform="translate(48.603 105.722)" fill="#fff"/>
          <circle id="Ellipse_4759" data-name="Ellipse 4759" cx="2.995" cy="2.995" r="2.995" transform="translate(0 26.86)" fill="#fff"/>
          <circle id="Ellipse_4760" data-name="Ellipse 4760" cx="2.995" cy="2.995" r="2.995" transform="translate(0 79.032)" fill="#fff"/>
          <circle id="Ellipse_4761" data-name="Ellipse 4761" cx="2.995" cy="2.995" r="2.995" transform="translate(97.207 26.86)" fill="#fff"/>
          <circle id="Ellipse_4762" data-name="Ellipse 4762" cx="2.995" cy="2.995" r="2.995" transform="translate(97.207 79.032)" fill="#fff"/>
        </g>
        <g id="Group_108963" data-name="Group 108963" transform="translate(109.658 146.43)">
          <g id="Group_108961" data-name="Group 108961" transform="translate(2.542 2.542)" opacity="0.5">
            <path id="Path_115440" data-name="Path 115440" d="M986.333,416.3v-44.73l41.246-22.365,41.246,22.365V416.3l-41.246,22.365Z" transform="translate(-986.333 -349.204)" fill="#fff"/>
          </g>
          <g id="Group_108962" data-name="Group 108962" transform="translate(9.708 10.313)">
            <path id="Path_115441" data-name="Path 115441" d="M997.221,416.448V379.49l34.08-18.479,34.08,18.479v36.958l-34.08,18.479Z" transform="translate(-997.221 -361.011)" fill="none" stroke="#fff" stroke-linecap="round" stroke-miterlimit="10" stroke-width="2"/>
          </g>
          <circle id="Ellipse_4763" data-name="Ellipse 4763" cx="2.542" cy="2.542" r="2.542" transform="translate(41.247 0)" fill="#fff"/>
          <circle id="Ellipse_4764" data-name="Ellipse 4764" cx="2.542" cy="2.542" r="2.542" transform="translate(41.247 89.72)" fill="#fff"/>
          <circle id="Ellipse_4765" data-name="Ellipse 4765" cx="2.542" cy="2.542" r="2.542" transform="translate(0 22.794)" fill="#fff"/>
          <path id="Path_115442" data-name="Path 115442" d="M982.472,449.778a2.541,2.541,0,1,0,2.541-2.542A2.541,2.541,0,0,0,982.472,449.778Z" transform="translate(-982.472 -380.167)" fill="#fff"/>
          <circle id="Ellipse_4766" data-name="Ellipse 4766" cx="2.542" cy="2.542" r="2.542" transform="translate(82.493 22.794)" fill="#fff"/>
          <path id="Path_115443" data-name="Path 115443" d="M1107.8,449.778a2.541,2.541,0,1,0,2.542-2.542A2.542,2.542,0,0,0,1107.8,449.778Z" transform="translate(-1025.306 -380.167)" fill="#fff"/>
        </g>
        <path id="Path_115444" data-name="Path 115444" d="M1180.282,386.251a8.226,8.226,0,0,1,1.992-6.857c1.815-1.823,5.493-2.7,7.639-1.183,1.2-3.471,4.951-6.046,9.018-6.537a14.318,14.318,0,0,1,15.915,13.361,7.609,7.609,0,0,1,6.454,1.755,7.508,7.508,0,0,1,2.422,5.573,5.689,5.689,0,0,1-1.087,3.558c-1.4,1.8-4.074,2.474-6.547,2.526l-32.1-.22c-3.387,0-6.794-1.4-7.852-4.246S1177.239,387.566,1180.282,386.251Z" transform="translate(-938.912 -207.88)" fill="#fff"/>
        <path id="Path_115445" data-name="Path 115445" d="M1204.492,386.776h1.5v-7.169a1.536,1.536,0,0,1,1.536-1.536h2.705a1.536,1.536,0,0,1,1.536,1.536v7.169h1.5a1.793,1.793,0,0,1,1.552,2.689l-2.2,3.8-2.2,3.8a1.793,1.793,0,0,1-3.1,0l-2.2-3.8-2.2-3.8A1.792,1.792,0,0,1,1204.492,386.776Z" transform="translate(-948.082 -210.099)" fill="#23276e"/>
        <g id="Group_108965" data-name="Group 108965" transform="translate(193.633 256.031)">
          <g id="Group_108964" data-name="Group 108964">
            <path id="Path_115446" data-name="Path 115446" d="M1110.051,516.856a5,5,0,0,1,5-5h27.288a5,5,0,0,1,5,5v.251h-37.293Z" transform="translate(-1110.051 -511.854)" fill="#23276e"/>
          </g>
        </g>
        <g id="Group_108967" data-name="Group 108967" transform="translate(136.559 179.443)">
          <path id="Path_115447" data-name="Path 115447" d="M1023.348,409.262q-.014,2.8,0,5.6a.885.885,0,0,0,.935.951c.47.014.942-.015,1.41.018a.522.522,0,0,1,.378.257c.431,1.047.836,2.1,1.291,3.271-.3.282-.69.637-1.064,1.012a.932.932,0,0,0-.016,1.5q1.906,1.923,3.829,3.83a.922.922,0,0,0,1.469,0c.386-.383.747-.791,1.03-1.093,1.18.461,2.238.864,3.285,1.3a.526.526,0,0,1,.255.38c.032.469,0,.941.017,1.411a.881.881,0,0,0,.944.94q2.8.015,5.6,0a.88.88,0,0,0,.947-.937c.013-.47-.015-.942.016-1.41a.523.523,0,0,1,.253-.382c1.047-.432,2.1-.837,3.282-1.3.275.293.627.688,1,1.062a.943.943,0,0,0,1.535,0q1.887-1.879,3.764-3.767a.949.949,0,0,0-.015-1.565c-.365-.361-.749-.7-1.031-.969.46-1.19.867-2.263,1.3-3.326a.488.488,0,0,1,.366-.217c.454-.027.91,0,1.365-.013a.9.9,0,0,0,.985-1q.009-2.754,0-5.508a.894.894,0,0,0-.985-.992c-.455-.01-.912.014-1.365-.013a.49.49,0,0,1-.365-.221c-.432-1.062-.838-2.135-1.3-3.33.294-.275.69-.626,1.064-1a.931.931,0,0,0,0-1.5q-1.894-1.9-3.8-3.8a.939.939,0,0,0-1.534.014c-.362.364-.7.748-.978,1.038-1.183-.457-2.255-.863-3.317-1.293a.49.49,0,0,1-.226-.361c-.028-.454,0-.91-.013-1.365a.9.9,0,0,0-.992-.986q-2.754-.01-5.507,0a.9.9,0,0,0-.994.985c-.01.455.014.911-.013,1.365a.491.491,0,0,1-.225.363c-1.062.43-2.135.837-3.319,1.293-.282-.3-.635-.694-1.009-1.068a.917.917,0,0,0-1.467-.016q-1.941,1.921-3.864,3.86a.913.913,0,0,0-.005,1.437c.381.388.791.748,1.1,1.035-.461,1.193-.867,2.265-1.3,3.327a.49.49,0,0,1-.365.222c-.469.027-.94,0-1.41.014A.877.877,0,0,0,1023.348,409.262Zm16.386,9.661a6.853,6.853,0,1,1,7.03-6.671A6.873,6.873,0,0,1,1039.734,418.923Z" transform="translate(-1023.342 -395.498)" fill="#23276e"/>
          <path id="Path_115448" data-name="Path 115448" d="M1023.348,409.262q-.014,2.8,0,5.6a.885.885,0,0,0,.935.951c.47.014.942-.015,1.41.018a.522.522,0,0,1,.378.257c.431,1.047.836,2.1,1.291,3.271-.3.282-.69.637-1.064,1.012a.932.932,0,0,0-.016,1.5q1.906,1.923,3.829,3.83a.922.922,0,0,0,1.469,0c.386-.383.747-.791,1.03-1.093,1.18.461,2.238.864,3.285,1.3a.526.526,0,0,1,.255.38c.032.469,0,.941.017,1.411a.881.881,0,0,0,.944.94q2.8.015,5.6,0a.88.88,0,0,0,.947-.937c.013-.47-.015-.942.016-1.41a.523.523,0,0,1,.253-.382c1.047-.432,2.1-.837,3.282-1.3.275.293.627.688,1,1.062a.943.943,0,0,0,1.535,0q1.887-1.879,3.764-3.767a.949.949,0,0,0-.015-1.565c-.365-.361-.749-.7-1.031-.969.46-1.19.867-2.263,1.3-3.326a.488.488,0,0,1,.366-.217c.454-.027.91,0,1.365-.013a.9.9,0,0,0,.985-1q.009-2.754,0-5.508a.894.894,0,0,0-.985-.992c-.455-.01-.912.014-1.365-.013a.49.49,0,0,1-.365-.221c-.432-1.062-.838-2.135-1.3-3.33.294-.275.69-.626,1.064-1a.931.931,0,0,0,0-1.5q-1.894-1.9-3.8-3.8a.939.939,0,0,0-1.534.014c-.362.364-.7.748-.978,1.038-1.183-.457-2.255-.863-3.317-1.293a.49.49,0,0,1-.226-.361c-.028-.454,0-.91-.013-1.365a.9.9,0,0,0-.992-.986q-2.754-.01-5.507,0a.9.9,0,0,0-.994.985c-.01.455.014.911-.013,1.365a.491.491,0,0,1-.225.363c-1.062.43-2.135.837-3.319,1.293-.282-.3-.635-.694-1.009-1.068a.917.917,0,0,0-1.467-.016q-1.941,1.921-3.864,3.86a.913.913,0,0,0-.005,1.437c.381.388.791.748,1.1,1.035-.461,1.193-.867,2.265-1.3,3.327a.49.49,0,0,1-.365.222c-.469.027-.94,0-1.41.014A.877.877,0,0,0,1023.348,409.262Zm16.386,9.661a6.853,6.853,0,1,1,7.03-6.671A6.873,6.873,0,0,1,1039.734,418.923Z" transform="translate(-1023.342 -395.498)" fill="#fff" opacity="0.1"/>
          <g id="Group_108966" data-name="Group 108966" transform="translate(7.036 7.039)">
            <path id="Path_115449" data-name="Path 115449" d="M1034.031,415.728a9.535,9.535,0,1,0,9.536-9.536A9.535,9.535,0,0,0,1034.031,415.728Zm2.686-.18a6.852,6.852,0,1,1,6.67,7.03A6.872,6.872,0,0,1,1036.717,415.547Z" transform="translate(-1034.031 -406.192)" fill="#fff" opacity="0.5"/>
          </g>
        </g>
        <g id="Group_108968" data-name="Group 108968" transform="translate(22.852 24.164)">
          <circle id="Ellipse_4767" data-name="Ellipse 4767" cx="11.933" cy="11.933" r="11.933" transform="translate(5.382 22.653) rotate(-71.662)" fill="#23276e"/>
          <path id="Path_115450" data-name="Path 115450" d="M855.239,200.867l16.982-15.757a2.767,2.767,0,0,0,.146-3.909h0a2.766,2.766,0,0,0-3.909-.146l-16.981,15.757a2.766,2.766,0,0,0-.146,3.909h0A2.765,2.765,0,0,0,855.239,200.867Z" transform="translate(-850.592 -166.674)" fill="#23276e"/>
          <circle id="Ellipse_4768" data-name="Ellipse 4768" cx="9.206" cy="9.206" r="9.206" transform="translate(8.832 20.932) rotate(-71.705)" fill="#fff"/>
        </g>
        <path id="Path_115451" data-name="Path 115451" d="M1230.89,213.2a2.108,2.108,0,1,1,2.514,0l.693,3.872a1.333,1.333,0,0,1-1.312,1.569h-1.274a1.333,1.333,0,0,1-1.312-1.569Z" transform="translate(-957.427 -152.452)" fill="#fff"/>
        <g id="Group_108969" data-name="Group 108969" transform="translate(75.495 77.859)">
          <path id="Path_115452" data-name="Path 115452" d="M930.569,252.044v-7.251l6.687-3.626,6.687,3.626v7.251l-6.687,3.626Z" transform="translate(-930.569 -241.167)" fill="#fff"/>
        </g>
        <g id="Group_108970" data-name="Group 108970" transform="translate(120.028 6.996)">
          <path id="Path_115453" data-name="Path 115453" d="M998.226,144.385v-7.251l6.687-3.626,6.687,3.626v7.251l-6.687,3.626Z" transform="translate(-998.226 -133.508)" fill="#fff"/>
        </g>
        <g id="Group_108971" data-name="Group 108971" transform="translate(227.59 103.399)">
          <path id="Path_115454" data-name="Path 115454" d="M1161.639,290.845v-7.251l6.687-3.626,6.687,3.626v7.251l-6.687,3.626Z" transform="translate(-1161.639 -279.968)" fill="#fff"/>
        </g>
        <path id="Path_115455" data-name="Path 115455" d="M1170.244,127.43h-120.49v22.261" transform="translate(-895.809 -124.435)" fill="none" stroke="#fff" stroke-linecap="round" stroke-linejoin="round" stroke-width="2" stroke-dasharray="12"/>
        <path id="Path_115456" data-name="Path 115456" d="M959.917,187.761V160.227H930.569" transform="translate(-855.075 -135.644)" fill="none" stroke="#fff" stroke-linecap="round" stroke-linejoin="round" stroke-width="2" stroke-dasharray="12"/>
        <path id="Path_115457" data-name="Path 115457" d="M1267.86,332.552v-44.5h-35.052" transform="translate(-958.373 -179.331)" fill="none" stroke="#fff" stroke-linecap="round" stroke-linejoin="round" stroke-width="2" stroke-dasharray="12"/>
        <path id="Path_115458" data-name="Path 115458" d="M1133.067,330.252V287.48l-10.23-6.162" transform="translate(-920.788 -177.031)" fill="none" stroke="#fff" stroke-linecap="round" stroke-linejoin="round" stroke-width="2" stroke-dasharray="12"/>
        <path id="Path_115459" data-name="Path 115459" d="M974.781,418.723H952.533V356.374" transform="translate(-862.581 -202.683)" fill="none" stroke="#fff" stroke-linecap="round" stroke-linejoin="round" stroke-width="2" stroke-dasharray="12"/>
        <path id="Path_115460" data-name="Path 115460" d="M870.379,250.193H819.3v-30.27" transform="translate(-817.046 -156.047)" fill="none" stroke="#fff" stroke-linecap="round" stroke-linejoin="round" stroke-width="2" stroke-dasharray="12"/>
        <path id="Path_115461" data-name="Path 115461" d="M1255.781,434.922v83.832h-58.316" transform="translate(-946.294 -229.529)" fill="none" stroke="#fff" stroke-linecap="round" stroke-linejoin="round" stroke-width="2" stroke-dasharray="12"/>
      </g>
    </g>
    <g id="Group_139828" data-name="Group 139828" transform="translate(-4032.985 -3235.31)">
      <path id="Path_196774" data-name="Path 196774" d="M4502.115,3751.41l.1-.156,3.14-4.877c-.16.117-.326.224-.479.359A10.208,10.208,0,0,0,4502.115,3751.41Z" transform="translate(15.105 8.19)" fill="#2b1011"/>
      <path id="Path_196775" data-name="Path 196775" d="M4508.6,3794.626c9.587,24,24.032,40.763,32.332,37.467a6.379,6.379,0,0,0,2.924-2.428c4.94-7.084,3.04-26.435-5.205-47.18a120.236,120.236,0,0,0-11.2-21.787l-11.7,21.048Z" transform="translate(15.466 8.988)" fill="#2b1011"/>
      <path id="Path_196776" data-name="Path 196776" d="M4395.867,3923.252c-.358.084-.718.148-1.108.211-.169.021-.338.031-.507.042h-.032c-13.175,2.492-28.631.94-43.77-5.247-6.806-2.781-14.015-8.232-20.375-13.967,0,0-.006.012-.011.017a.741.741,0,0,1-1.05.022c-2.249-2.148-4.553-4.625-6.956-7.248a67.8,67.8,0,0,0-26.569-.213c-14.643,2.819-23.806,9.322-29.2,14.812-3.729,10.771-6.979,21.582-9.636,31.122h83.7l.822-5.594a.744.744,0,0,1,.338-.519l13.277-8.418a.743.743,0,0,1,.795,1.254l-12.99,8.234-.743,5.042h60.1q-1.515-10.863-3.148-20.985a9.016,9.016,0,0,1-2.886,1.4C4395.889,3923.252,4395.889,3923.252,4395.867,3923.252Z" transform="translate(1.43 16.506)" fill="#855139"/>
      <path id="Path_196777" data-name="Path 196777" d="M4593.758,3670.114c-9.158,4.5-20.378,9.737-30.219,15.02v0l-.039.023c-1.246.669-2.475,1.339-3.669,2.009-3,1.5-7.308,3.307-10.914,3.489-6.82.349-6.313-8.53-8.288-13.893-2.365-6.376-6.756-5.585-6.756-5.585s2.027,2.259,1.563,13.809c-.158,4.085-1.447,9.691-1.795,12.911a27.073,27.073,0,0,0,.37,8.319l-28.6,44.414-3.14,4.877c-.095.353-.255.832-.446,1.417-1.171,4.825-1.019,11.688.412,19.655a22.9,22.9,0,0,0,2.39,3.786c3.29,4.243,8.295,6.532,11.538,6.435l11.7-21.048,18.568-33.406a14.018,14.018,0,0,1,8.445-6.8c6.693-1.879,19.583-9.491,19.583-9.491a5.954,5.954,0,0,0,1.375-1.07l.009-.006.008-.01a5.953,5.953,0,0,0,1.033-1.476,74.6,74.6,0,0,0,3.955-7.74,3.611,3.611,0,0,0,.168-.383h0a2.754,2.754,0,0,0-.184-2.422,2.9,2.9,0,0,0-2.038-1.582l.752-3.139h0a2.533,2.533,0,0,0-.3-1.676c-.778-1.411-2.051-1.737-3.679-1.407.366-1.348.69-2.628.69-2.628h0a2.532,2.532,0,0,0-.271-1.8c-1.415-2.565-4.449-1.568-8.321.5a.523.523,0,0,1-.229.677c-6.117,3.265-12.419,7.484-12.376,8.89a3.257,3.257,0,0,0,1.7,2.814,1.028,1.028,0,0,0,.948.044c1.359-.6,4.38-2.1,7.5-3.686,2.05-1.122,3.981-2.066,5.066-2.58,2.52-1.291,4.4-2.263,4.451-2.29a.528.528,0,1,1,.485.938c-.319.165-4.742,2.453-9.109,4.665-4.32,2.362-7.9,4.8-7.866,5.823a3.25,3.25,0,0,0,1.492,2.683,1.361,1.361,0,0,0,1.318.1c1.606-.726,5.1-2.474,8.488-4.2.713-.376,1.417-.731,2.085-1.061,3.389-1.729,6.226-3.2,6.287-3.228a.527.527,0,1,1,.484.936c-.036.019-1.037.537-2.543,1.311a.521.521,0,0,1-.277.292c-6.111,2.726-12.681,6.517-12.639,7.888a3.319,3.319,0,0,0,.949,2.305,2.086,2.086,0,0,0,2.083.5,34.683,34.683,0,0,0,12.058-6.432.528.528,0,1,1,.709.781,35.043,35.043,0,0,1-12.46,6.662,3.177,3.177,0,0,1-.922.137,3.114,3.114,0,0,1-2.22-.911,4.406,4.406,0,0,1-1.252-3.014,2.465,2.465,0,0,1,.8-1.574c-.464.223-.87.413-1.2.561a2.438,2.438,0,0,1-1,.219,2.39,2.39,0,0,1-1.336-.409,4.266,4.266,0,0,1-1.96-3.526,3.294,3.294,0,0,1,1.284-2.087c-.117.054-.228.1-.33.149a2.125,2.125,0,0,1-.863.184,2.078,2.078,0,0,1-1.044-.28,4.335,4.335,0,0,1-2.228-3.695c-.084-2.762,10.76-8.694,12.936-9.854a.524.524,0,0,1,.7.2c5.661-3.32,11.2-6.853,16.771-10.319,2.787-1.746,5.85-3.146,8.3-5.342C4596.082,3672.481,4594.934,3669.551,4593.758,3670.114Zm-47.833,45.155a.528.528,0,0,1-.721-.771c6.481-6.057-.041-18.756-.108-18.885a.528.528,0,0,1,.937-.489C4546.321,3695.675,4552.993,3708.664,4545.926,3715.269Z" transform="translate(15.046 3.937)" fill="#f79f8d"/>
      <path id="Path_196778" data-name="Path 196778" d="M4564.143,3689.861c-2.176,1.16-13.02,7.092-12.936,9.854a4.335,4.335,0,0,0,2.228,3.695,2.078,2.078,0,0,0,1.044.28,2.125,2.125,0,0,0,.863-.184c.1-.044.212-.095.33-.149a3.294,3.294,0,0,0-1.284,2.087,4.266,4.266,0,0,0,1.96,3.526,2.39,2.39,0,0,0,1.336.409,2.438,2.438,0,0,0,1-.219c.326-.147.732-.338,1.2-.561a2.465,2.465,0,0,0-.8,1.574,4.406,4.406,0,0,0,1.252,3.014,3.114,3.114,0,0,0,2.22.911,3.177,3.177,0,0,0,.922-.137,35.043,35.043,0,0,0,12.46-6.662.528.528,0,1,0-.709-.781,34.683,34.683,0,0,1-12.058,6.432,2.086,2.086,0,0,1-2.083-.5,3.319,3.319,0,0,1-.949-2.305c-.042-1.372,6.527-5.163,12.639-7.888a.521.521,0,0,0,.277-.292c1.507-.774,2.507-1.292,2.543-1.311a.527.527,0,1,0-.484-.936c-.061.031-2.9,1.5-6.287,3.228-.668.33-1.373.685-2.085,1.061-3.391,1.722-6.881,3.469-8.488,4.2a1.361,1.361,0,0,1-1.318-.1,3.25,3.25,0,0,1-1.492-2.683c-.032-1.023,3.546-3.461,7.866-5.823,4.367-2.212,8.79-4.5,9.109-4.665a.528.528,0,1,0-.485-.938c-.05.027-1.931,1-4.451,2.29-1.085.514-3.016,1.458-5.066,2.58-3.123,1.581-6.144,3.083-7.5,3.686a1.028,1.028,0,0,1-.948-.044,3.257,3.257,0,0,1-1.7-2.814c-.043-1.406,6.26-5.625,12.376-8.89a.523.523,0,0,0,.229-.677c-.005-.013,0-.026-.01-.038s-.013-.013-.018-.02A.524.524,0,0,0,4564.143,3689.861Z" transform="translate(17.84 5.038)" fill="#96544a"/>
      <path id="Path_196779" data-name="Path 196779" d="M4543,3693.593a.527.527,0,0,0-.224.711c.067.129,6.589,12.828.108,18.885a.528.528,0,1,0,.721.771c7.067-6.6.4-19.594.108-20.144A.527.527,0,0,0,4543,3693.593Z" transform="translate(17.367 5.246)" fill="#96544a"/>
      <path id="Path_196780" data-name="Path 196780" d="M4501.788,3752.412c.191-.585.352-1.064.446-1.417l-.1.156C4502.006,3751.553,4501.894,3751.978,4501.788,3752.412Z" transform="translate(15.086 8.447)" fill="#96544a"/>
      <path id="Path_196781" data-name="Path 196781" d="M4508.953,3794.055l7.152-12.88c-3.243.1-8.248-2.192-11.538-6.435a22.9,22.9,0,0,1-2.39-3.786,121.04,121.04,0,0,0,6.707,22.931C4508.906,3793.943,4508.931,3794,4508.953,3794.055Z" transform="translate(15.109 9.559)" fill="#96544a"/>
      <path id="Path_196782" data-name="Path 196782" d="M4400.177,3709.9a9.755,9.755,0,0,1,1.918-.841,26.71,26.71,0,0,0-6.014-2.277q1.371,2.067,2.826,4.029C4399.721,3710.233,4400.177,3709.9,4400.177,3709.9Z" transform="translate(9.197 5.984)" fill="#f79f8d"/>
      <path id="Path_196783" data-name="Path 196783" d="M4273.594,3750.936c4.957-.706,12.235-1.9,21.067-3.77-2.027-4.632-2.744-10.815-1.949-17.609a.722.722,0,0,1-.051-.353c.194-1.5.482-3,.818-4.512-9.949,2.033-16.3,6.9-19.708,13.459l-.089-.029-.624,1.514-.625,1.573-4.192,10.444C4269.47,3751.5,4271.279,3751.271,4273.594,3750.936Z" transform="translate(2.076 6.981)" fill="#f79f8d"/>
      <path id="Path_196784" data-name="Path 196784" d="M4321.551,3897.725c-.431-.47-.858-.934-1.3-1.414l-1.36-1.485a37.6,37.6,0,0,0-23.217-8.262h-.158a82.142,82.142,0,0,1-18.508-2.434,296.323,296.323,0,0,0-11.232,28.193c5.4-5.49,14.559-11.993,29.2-14.812A67.8,67.8,0,0,1,4321.551,3897.725Z" transform="translate(1.939 15.864)" fill="#855139"/>
      <path id="Path_196785" data-name="Path 196785" d="M4321.551,3897.725c-.431-.47-.858-.934-1.3-1.414l-1.36-1.485a37.6,37.6,0,0,0-23.217-8.262h-.158a82.142,82.142,0,0,1-18.508-2.434,296.323,296.323,0,0,0-11.232,28.193c5.4-5.49,14.559-11.993,29.2-14.812A67.8,67.8,0,0,1,4321.551,3897.725Z" transform="translate(1.939 15.864)" fill="#593626" opacity="0.5"/>
      <path id="Path_196786" data-name="Path 196786" d="M4397.869,3818.061c.2-1.479.411-2.979.619-4.489l-.009,0Q4398.174,3815.841,4397.869,3818.061Z" transform="translate(9.297 11.933)" fill="#1a8099"/>
      <path id="Path_196787" data-name="Path 196787" d="M4315.9,3824.746l-.077-.04.046.037Z" transform="translate(4.726 12.554)" fill="#1a8099"/>
      <path id="Path_196788" data-name="Path 196788" d="M4395.917,3832.636c.663-4.68,1.356-9.648,2.062-14.812-.716,5.175-1.417,10.147-2.085,14.827Z" transform="translate(9.187 12.17)" fill="#143b45" opacity="0.5"/>
      <path id="Path_196789" data-name="Path 196789" d="M4397.259,3814.411c-.762.347-1.542.657-2.325.944a161.91,161.91,0,0,1-5.6,21.09c.549-.239,1.087-.473,1.663-.72a32.5,32.5,0,0,0,5.261-2.837c.668-4.68,1.369-9.652,2.085-14.827q.3-2.22.61-4.485C4398.4,3813.866,4397.841,3814.147,4397.259,3814.411Z" transform="translate(8.822 11.934)" fill="#1a8099"/>
      <path id="Path_196790" data-name="Path 196790" d="M4397.259,3814.411c-.762.347-1.542.657-2.325.944a161.91,161.91,0,0,1-5.6,21.09c.549-.239,1.087-.473,1.663-.72a32.5,32.5,0,0,0,5.261-2.837c.668-4.68,1.369-9.652,2.085-14.827q.3-2.22.61-4.485C4398.4,3813.866,4397.841,3814.147,4397.259,3814.411Z" transform="translate(8.822 11.934)" fill="#143b45" opacity="0.5"/>
      <path id="Path_196791" data-name="Path 196791" d="M4556.393,3835c-8.3,3.3-22.745-13.467-32.332-37.467-.022-.057-.047-.112-.069-.169a121.04,121.04,0,0,1-6.707-22.931c-1.43-7.967-1.583-14.83-.412-19.655.105-.435.218-.859.345-1.26a10.21,10.21,0,0,1,2.761-4.675l-.021-.053s-9.073.184-32.687,36.064a.906.906,0,0,1,.087.05.745.745,0,0,1,.074,1.048c-.14.161-.275.326-.408.491l-.192.234a138.91,138.91,0,0,0-19.3,31.638c-1.688,3.8-2.548,6.2-2.556,6.228a.743.743,0,0,1-.7.494.725.725,0,0,1-.249-.043.742.742,0,0,1-.452-.947c.036-.1.885-2.479,2.6-6.334.08-.18.169-.371.251-.555a32.735,32.735,0,0,1-.121-27.975c2.776-6.134,6.07-8.446,9.427-8.53l-54.052-68.811a9.882,9.882,0,0,0-12.31-2.037s-.457.333-1.271.911c5.788,7.849,12.5,14.424,19.966,18.6l-3.722,1.3-13.245-2.124a47.176,47.176,0,0,0,8.009,3.032.733.733,0,0,1,.531.719l.052.022-.055.019a.676.676,0,0,1-.011.153.741.741,0,0,1-.714.544.763.763,0,0,1-.2-.027c-.176-.049-.345-.111-.521-.161l-11.636,4.1-8.06-4.963a19.845,19.845,0,0,0,3.733,5.117.734.734,0,0,1,.194.956l.2.272-5.876,2.075-.372.132a10.866,10.866,0,0,1-3.75.639c-6.138,0-13.583-4.62-19.569-12.281-10,3.311-20.108,5.946-29.916,8.292a70.915,70.915,0,0,0,6.129,13.146l-12.143,1.841,0,0a.751.751,0,0,1-.423-.134,22.375,22.375,0,0,1-5.533-5.732l1.772,6.492-12.25,1.876c-.018.016-.028.038-.048.054a.738.738,0,0,1-.763.07l-.12.019-.323-.49c-.093-.135-.185-.272-.275-.416l-1.006-1.529-.98.713-.386,2.167h-.03l-7.065,1.068v-.029a10.829,10.829,0,0,1-5.255-.387c-3.409-1.139-6.01-3.925-7.7-7.789-8.832,1.873-16.11,3.064-21.067,3.77-2.315.335-4.124.568-5.351.717l-.479.058a12.2,12.2,0,0,0-10.832,7.6l-19.586,54.168a193.648,193.648,0,0,0-6.531,18.687c-8.194,29.852,11.418,48.811,33.278,56.546h.008q-1.655-.711-3.251-1.477c8.049,3.471,30.517,6.38,39.429-1.078a79.167,79.167,0,0,0-9.5-6.211.742.742,0,0,1,.719-1.3c12.866,7.115,21.816,16.906,29.714,25.546,2.863,3.132,5.567,6.092,8.181,8.591a.741.741,0,0,1,.035,1.033c6.36,5.735,13.569,11.186,20.375,13.967,15.139,6.187,30.594,7.739,43.77,5.247-10.525.644-23.647-17.345-30.014-41.806a101.316,101.316,0,0,1-3.429-24.188c-.019-1.674,0-3.317.082-4.886.348-6.515,1.577-12.055,3.625-16.053.02-.039.038-.083.058-.122,1.623-3.117,3.75-5.276,6.356-6.195a1.981,1.981,0,0,1,.247-.1c-3.469-.653-25.992-4.8-55.01-8.231-4.85-.571-9.793-1.11-14.691-1.6-.02,0-.041,0-.061,0h0c-4.789-.483-9.594-.761-14.283-.827-19.984-.308-32.644,3.157-32.769,3.192a.742.742,0,1,1-.4-1.429c.127-.035,12.986-3.564,33.192-3.247.172,0,.348.01.521.013a43.35,43.35,0,0,0,2.922-4.539c-6.486-2.868-14.765-5.449-21.077-5.5a.742.742,0,0,1,.006-1.484h.006c6.338.053,14.942,2.679,21.754,5.705,6.468-12.443,7.349-27.142,7.518-33.236-1.124-5.643-2.486-10.106-3.893-12.173a.742.742,0,0,1,1.227-.835c1.984,2.918,3.9,10.421,5.2,19.324,2.535,9.073,5.688,18.534,9.9,25.85a.716.716,0,0,1,1.167.24c1.057,2.54,4.224,10.157,18.184,10.347a38.278,38.278,0,0,0,26.241-9.858.742.742,0,0,1,1.064,1.034,38.819,38.819,0,0,1-22.306,10.044c21.478,3,36.16,5.817,36.346,5.853a.741.741,0,0,1,.587.869.721.721,0,0,1-.071.189c.137-.022.268-.062.41-.076h.042a9.6,9.6,0,0,1,4.2.486,17.582,17.582,0,0,1,5.13,2.808,30.593,30.593,0,0,1,3.975,3.628c2.66-1.29,6.164-2.918,10.546-4.819a161.91,161.91,0,0,0,5.6-21.09c-.538.2-1.077.389-1.617.555a36,36,0,0,1-4.242,1.045.762.762,0,0,1-.136.011.742.742,0,0,1-.134-1.472,34.37,34.37,0,0,0,4.071-1,30.732,30.732,0,0,0,3.769-1.435c9.7-4.395,15.08-12.661,13.391-20.569-2.217-10.406-11.829-25.99-13.006-27.224a.742.742,0,0,1,.66-1.314c1.261.43,11.534,17.6,13.8,28.229a15.163,15.163,0,0,1,.306,2.567c10.847,17.941,30.014,41.08,39.043,48.645,18.38,15.424,33.332,14.461,44.637,11.71a33.676,33.676,0,0,0,12.587-6.127,135.133,135.133,0,0,0,14.018-18.773.742.742,0,1,1,1.276.756,132.259,132.259,0,0,1-12.936,17.587,31.277,31.277,0,0,1,3.634-2.981c12.521-8.731,26.794-4.824,35.081-16.574a16.771,16.771,0,0,0,1.362-2.27A6.379,6.379,0,0,1,4556.393,3835Z" transform="translate(0 6.079)" fill="#4dd0e1" stroke="#0f2771" stroke-width="1"/>
      <path id="Path_196792" data-name="Path 196792" d="M4370.633,3842.7a9.3,9.3,0,0,0,6.323-.771c.938-.482,2.131-1.077,3.532-1.756a30.593,30.593,0,0,0-3.975-3.628,17.582,17.582,0,0,0-5.13-2.808,9.6,9.6,0,0,0-4.2-.486h-.042c-.142.014-.273.054-.41.076a.738.738,0,0,1-.656.413.8.8,0,0,1-.142-.012l-.478-.091a1.981,1.981,0,0,0-.247.1c-2.606.919-4.734,3.077-6.356,6.195l4.836,1.132C4366.431,3841.705,4368.838,3842.275,4370.633,3842.7Z" transform="translate(7.123 13.026)" fill="#2b1011"/>
      <path id="Path_196793" data-name="Path 196793" d="M4372.563,3860.845l-10.684-.844-.588-.047.007.047-6.015-.477a101.267,101.267,0,0,0,3.429,24.188c6.366,24.461,19.488,42.45,30.014,41.806h.032c.168-.011.337-.021.507-.042.39-.063.749-.127,1.107-.211.021,0,.021,0,.053-.031a9.011,9.011,0,0,0,2.886-1.4c4.951-3.529,7.739-12.3,7.936-23.713.011-.739.011-1.478,0-2.228a101.911,101.911,0,0,0-3.441-24.334q-1.03-3.962-2.283-7.691Z" transform="translate(6.925 14.493)" fill="#2b1011"/>
      <path id="Path_196794" data-name="Path 196794" d="M4392.7,3835.044c-.576.247-1.114.481-1.663.72-4.382,1.9-7.886,3.529-10.546,4.819-1.4.679-2.593,1.274-3.532,1.756a9.3,9.3,0,0,1-6.323.771c-1.795-.422-4.2-.992-6.947-1.636l-4.836-1.132c-.02.039-.038.083-.058.122l4.313,1.009c-1.339,2.583-3.991,9.776-2.013,20.36l.588.047,10.684.844,22.958,5.02,6.764,1.48c5.281,1.81,10.624,3.434,15.953,5.093a2.178,2.178,0,0,0,1.928-.19,89.267,89.267,0,0,0,8.369-5.98c.011-.009.017-.021.026-.03l-8.014,3.5a7.223,7.223,0,0,1-2.907.611,7.372,7.372,0,0,1-1.285-.115l-7.169-1.283a.528.528,0,1,1,.185-1.039l7.169,1.283a6.19,6.19,0,0,0,3.584-.424l8.153-3.564a.53.53,0,0,1,.695.272.468.468,0,0,1,.017.079c.009-.033.01-.067.017-.1,3.688-1.661,7.767-3.411,10.385-4.272,2.094-.735.031-3.1-3.515-2.387-.234.048-.467.107-.7.157l9.588-3.709c2.39-.815-.633-3.188-4.064-2.323l-12.6,3.443a.527.527,0,0,1-.273.684l-11.6,5.107a6.915,6.915,0,0,1-3.9.392l-3.958-.555a.528.528,0,0,1,.148-1.046l3.982.561a5.872,5.872,0,0,0,3.321-.324l11.586-5.1a.524.524,0,0,1,.665.226,80.924,80.924,0,0,0,13.547-8.179c1.825-1.481-2.338-1.977-5.2-.9-5.745,2.17-12.077,4.6-17.8,6.926l-.046.019a14.166,14.166,0,0,1-9.457.34c-3.458-1.634-7.46-4-9.6-6.934-4.286-5.859,1.731-11.2,4.3-15.54,3.663-6.2.918-8.14.918-8.14a20.879,20.879,0,0,1-6.54,6.407l-.023.015A32.5,32.5,0,0,1,4392.7,3835.044Zm42.448,26.056a.529.529,0,0,1-.3.684l-15.7,6.157a6.252,6.252,0,0,1-3.165.827,9.885,9.885,0,0,1-2.187-.271l-4.979-1.04a.528.528,0,0,1-.409-.625.52.52,0,0,1,.624-.408l4.988,1.042a6.064,6.064,0,0,0,4.678-.477l15.764-6.189A.531.531,0,0,1,4435.148,3861.1Z" transform="translate(7.12 12.614)" fill="#f79f8d"/>
      <path id="Path_196795" data-name="Path 196795" d="M4424.621,3856.269l-11.586,5.1a5.872,5.872,0,0,1-3.321.324l-3.982-.561a.528.528,0,0,0-.148,1.046l3.958.555a6.915,6.915,0,0,0,3.9-.392l11.6-5.107a.527.527,0,0,0,.273-.684l0-.011a.373.373,0,0,0-.031-.045A.524.524,0,0,0,4424.621,3856.269Z" transform="translate(9.702 14.309)" fill="#96544a"/>
      <path id="Path_196796" data-name="Path 196796" d="M4416.083,3865.143a6.064,6.064,0,0,1-4.678.477l-4.988-1.042a.52.52,0,0,0-.624.408.528.528,0,0,0,.409.625l4.979,1.04a9.885,9.885,0,0,0,2.188.271,6.252,6.252,0,0,0,3.165-.827l15.7-6.157a.528.528,0,0,0-.385-.984Z" transform="translate(9.738 14.46)" fill="#96544a"/>
      <path id="Path_196797" data-name="Path 196797" d="M4425.455,3864.912l-8.153,3.564a6.19,6.19,0,0,1-3.584.424l-7.169-1.283a.528.528,0,1,0-.185,1.039l7.169,1.283a7.372,7.372,0,0,0,1.285.115,7.223,7.223,0,0,0,2.907-.611l8.014-3.5.139-.062a.518.518,0,0,0,.289-.615.468.468,0,0,0-.017-.079A.53.53,0,0,0,4425.455,3864.912Z" transform="translate(9.746 14.791)" fill="#96544a"/>
      <path id="Path_196798" data-name="Path 196798" d="M4361.291,3861.059c-1.978-10.584.674-17.778,2.013-20.36l-4.313-1.009c-2.048,4-3.278,9.539-3.625,16.053-.086,1.569-.1,3.211-.082,4.886l6.015.477Z" transform="translate(6.925 13.388)" fill="#96544a"/>
      <path id="Path_196799" data-name="Path 196799" d="M4371.293,3683.941a27.684,27.684,0,0,1-8.859,4.886v37.381a49.242,49.242,0,0,0,3.3,4.816c5.986,7.661,13.431,12.281,19.569,12.281a10.866,10.866,0,0,0,3.75-.639l.372-.132,5.876-2.075-.2-.272a.848.848,0,0,1-.038.081.745.745,0,0,1-1.039.156c-2.441-1.806-6.4-9.384-7.617-12.8a.743.743,0,0,1,1.4-.5,48.694,48.694,0,0,0,3.367,6.988l8.06,4.963,11.636-4.1c-15.285-4.424-26.4-15.954-30.658-25.527a.742.742,0,1,1,1.356-.6c3.389,7.614,11.269,16.521,22.209,21.829l13.245,2.124,3.722-1.3c-7.469-4.172-14.178-10.747-19.966-18.6q-1.45-1.967-2.826-4.029a133.42,133.42,0,0,1-17.315-39.625A28.5,28.5,0,0,1,4371.293,3683.941Z" transform="translate(7.323 3.893)" fill="#ffe7d4"/>
      <path id="Path_196800" data-name="Path 196800" d="M4409.739,3731.011l-.052-.022c0,.014,0,.027,0,.041Z" transform="translate(9.955 7.332)" fill="#ffe7d4"/>
      <path id="Path_196801" data-name="Path 196801" d="M4345.973,3688.469a45.231,45.231,0,0,0,17.378,7.173v-7.848A32.378,32.378,0,0,1,4345.973,3688.469Z" transform="translate(6.406 4.926)" fill="#f79f8d"/>
      <path id="Path_196802" data-name="Path 196802" d="M4345.973,3688.469a45.231,45.231,0,0,0,17.378,7.173v-7.848A32.378,32.378,0,0,1,4345.973,3688.469Z" transform="translate(6.406 4.926)" fill="#96544a" opacity="0.5"/>
      <path id="Path_196803" data-name="Path 196803" d="M4292.728,3706.8c-.061-.016-.128-.023-.189-.04C4292.6,3706.782,4292.667,3706.789,4292.728,3706.8Z" transform="translate(3.43 5.983)" fill="#ffe7d4"/>
      <path id="Path_196804" data-name="Path 196804" d="M4299.618,3706.21c.028-.009.055-.015.083-.024l0,0Z" transform="translate(3.823 5.951)" fill="#ffe7d4"/>
      <path id="Path_196805" data-name="Path 196805" d="M4290.323,3709.919c.455.929,2.418,3.537,9.28,0a27.089,27.089,0,0,0,5.359-3.872c.6-.9,1.22-1.825,1.9-2.8,1.076-1.563,2.126-3.034,3.107-4.407l1.152-1.616a.743.743,0,0,1,1.212.858l-1.156,1.621c-.977,1.366-2.022,2.829-3.092,4.388-2.06,2.969-3.713,5.533-5.209,8.074a.764.764,0,0,1-.068.1c-5.021,8.521-7.948,16.409-8.946,24.115a.743.743,0,0,1-.736.647.716.716,0,0,1-.1-.006.73.73,0,0,1-.59-.478c-.795,6.794-.078,12.977,1.949,17.609,1.691,3.864,4.292,6.65,7.7,7.789a10.829,10.829,0,0,0,5.255.387v.029l7.065-1.068h.03l.386-2.167.98-.713,1.006,1.529c-3.572-5.776-3.624-18.3-2.779-21.232a.742.742,0,0,1,1.426.411c-.717,2.492-.7,15.617,2.99,20.6a.738.738,0,0,1-.107.985l12.25-1.876-1.772-6.492c-5.354-7.779-7.241-19.108-6.522-28.084a.742.742,0,0,1,1.479.118c-.894,11.166,2.3,26.094,11.428,32.482a.743.743,0,0,1-.427,1.35h0l0,0,12.143-1.841a70.915,70.915,0,0,1-6.129-13.146c-6.259-17.467-8.687-40.2-8.625-58.975-.036-.032-.071-.065-.106-.1a14.1,14.1,0,0,1-10.9,5.03c-7.636,0-13.827-5.831-13.827-13.023s6.191-13.022,13.827-13.022a14.579,14.579,0,0,1,3.359.4c.672-.375,1.346-.781,2.021-1.207l-10.959,1.352a.882.882,0,0,1-.092.005.742.742,0,0,1-.09-1.479l13.814-1.7q.849-.624,1.693-1.306a14.4,14.4,0,0,1,6.482-17.541c-.724.393-1.442.8-2.155,1.247a1.3,1.3,0,0,1-1.94-1.513c2.531-6.509,10.363-9.8,17.064-8.812q.579-1.482,1.045-2.945a.736.736,0,0,1-.379-.763c1.682-10.315.668-18.135-2.928-22.612a9.934,9.934,0,0,0-6.531-3.833.744.744,0,0,1-.7-.78.711.711,0,0,1,.214-.469c-6.437-.295-14.225,5.431-21.885,15.364a29.384,29.384,0,0,0-1.932-5.031c-4.483-9-12.529-14.1-18.022-11.4-2.539,1.257-4.059,3.993-4.506,7.451a35.2,35.2,0,0,1,13.2,10.3.743.743,0,0,1-1.2.87c-.1-.137-10.086-13.676-25.156-11.574a.744.744,0,0,1-.83-.612,9.076,9.076,0,0,0-6.18,3.6c-3.978,5.819,1.128,16.24,11.4,23.247a2.726,2.726,0,0,0,.387.238c6.209,2.914,13.258,2.054,17.815.168a21.3,21.3,0,0,0,6.192-3.941c-2.082,3.385-4.026,6.511-5.779,9.4-7.9,13-11.872,21.046-6.643,25.382,2.677,2.325,6.908,3.591,11.929,3.358q-1.265,1.918-2.6,3.934c-10.335,15.9-19.214,31.112-17.071,37.71v.01a.714.714,0,0,0,.032.084c.019.05.052.124.093.205a4.372,4.372,0,0,0,2.346,2.477A4.388,4.388,0,0,1,4290.323,3709.919Z" transform="translate(2.353 0)" fill="#ffe7d4"/>
      <path id="Path_196806" data-name="Path 196806" d="M4293.808,3706.989c-.089-.01-.185-.012-.272-.023C4293.624,3706.978,4293.719,3706.979,4293.808,3706.989Z" transform="translate(3.485 5.994)" fill="#ffe7d4"/>
      <path id="Path_196807" data-name="Path 196807" d="M4298.945,3706.415c-.218.06-.435.119-.649.171C4298.509,3706.534,4298.727,3706.475,4298.945,3706.415Z" transform="translate(3.75 5.964)" fill="#ffe7d4"/>
      <path id="Path_196808" data-name="Path 196808" d="M4297.54,3706.748c-.175.035-.353.072-.525.1C4297.188,3706.82,4297.365,3706.783,4297.54,3706.748Z" transform="translate(3.678 5.982)" fill="#ffe7d4"/>
      <path id="Path_196809" data-name="Path 196809" d="M4296.212,3706.956c-.143.016-.288.036-.427.047C4295.924,3706.992,4296.07,3706.972,4296.212,3706.956Z" transform="translate(3.61 5.993)" fill="#ffe7d4"/>
      <path id="Path_196810" data-name="Path 196810" d="M4294.966,3707.037c-.114,0-.232.008-.344.007C4294.734,3707.045,4294.852,3707.038,4294.966,3707.037Z" transform="translate(3.545 5.998)" fill="#ffe7d4"/>
      <path id="Path_196811" data-name="Path 196811" d="M4314.769,3751.854l.323.49.12-.019a.717.717,0,0,1-.274-.226C4314.88,3752.021,4314.825,3751.935,4314.769,3751.854Z" transform="translate(4.667 8.495)" fill="#ffe7d4"/>
      <path id="Path_196812" data-name="Path 196812" d="M4382.4,3631.487a14.54,14.54,0,0,1,6.224,7.555,29.64,29.64,0,0,0,8.505-2.207c3.147-2.583,4.78-5.463,4.126-8.046-.915-3.777-6.442-5.838-13.619-5.61A18.736,18.736,0,0,1,4382.4,3631.487Z" transform="translate(8.435 1.325)" fill="#ffe7d4"/>
      <path id="Path_196813" data-name="Path 196813" d="M4374.167,3635.12a1.365,1.365,0,0,1-1.936,1.51c-.137-.074-.255-.146-.385-.219.087.111.175.22.262.331.446.15.9.294,1.361.426a41.859,41.859,0,0,0,14.212,1.6,13.07,13.07,0,0,0-5.844-6.656c-.572.482-.965.765-1.041.818a.742.742,0,1,1-.856-1.212c.01-.008.156-.113.394-.3a12.823,12.823,0,0,0-8.391-.379A7.579,7.579,0,0,1,4374.167,3635.12Z" transform="translate(7.847 1.735)" fill="#ffe7d4"/>
      <path id="Path_196814" data-name="Path 196814" d="M4373.455,3636.839c-.463-.132-.915-.276-1.361-.426a45.677,45.677,0,0,1,3.631,5.414l11.3-.2c.465-.149.928-.3,1.376-.459a12.879,12.879,0,0,0-.735-2.73A41.859,41.859,0,0,1,4373.455,3636.839Z" transform="translate(7.862 2.064)" fill="#ffe7d4"/>
      <path id="Path_196815" data-name="Path 196815" d="M4373.455,3636.839c-.463-.132-.915-.276-1.361-.426a45.677,45.677,0,0,1,3.631,5.414l11.3-.2c.465-.149.928-.3,1.376-.459a12.879,12.879,0,0,0-.735-2.73A41.859,41.859,0,0,1,4373.455,3636.839Z" transform="translate(7.862 2.064)" fill="#a66b3b" opacity="0.5"/>
      <path id="Path_196816" data-name="Path 196816" d="M4380.04,3642.873l-3.75.065c.054.1.107.2.16.308C4377.613,3643.179,4378.811,3643.06,4380.04,3642.873Z" transform="translate(8.095 2.424)" fill="#ffe7d4"/>
      <path id="Path_196817" data-name="Path 196817" d="M4380.04,3642.873l-3.75.065c.054.1.107.2.16.308C4377.613,3643.179,4378.811,3643.06,4380.04,3642.873Z" transform="translate(8.095 2.424)" fill="#a66b3b" opacity="0.5"/>
      <path id="Path_196818" data-name="Path 196818" d="M4388.917,3640.645a29.516,29.516,0,0,0,7.881-4.531,29.64,29.64,0,0,1-8.505,2.207A14.345,14.345,0,0,1,4388.917,3640.645Z" transform="translate(8.764 2.047)" fill="#ffe7d4"/>
      <path id="Path_196819" data-name="Path 196819" d="M4388.917,3640.645a29.516,29.516,0,0,0,7.881-4.531,29.64,29.64,0,0,1-8.505,2.207A14.345,14.345,0,0,1,4388.917,3640.645Z" transform="translate(8.764 2.047)" fill="#a66b3b" opacity="0.5"/>
      <path id="Path_196820" data-name="Path 196820" d="M4365.792,3647.77l-2.506.8,2.669,3.56a4.1,4.1,0,0,1-.88,5.782l-2.032,1.465a.528.528,0,0,1-.618-.856l2.032-1.465a3.043,3.043,0,0,0,.653-4.293l-2.89-3.854-5.089,1.619c.023.341.052.68.052,1.026a14.468,14.468,0,0,1-26.916,7.39l-5.53.682c-.675.425-1.348.832-2.021,1.207a14.579,14.579,0,0,0-3.359-.4c-7.636,0-13.827,5.831-13.827,13.022s6.191,13.023,13.827,13.023a14.1,14.1,0,0,0,10.9-5.03c.036.031.07.064.106.1-.062,18.776,2.367,41.508,8.625,58.975,9.807-2.347,19.92-4.982,29.916-8.292a49.242,49.242,0,0,1-3.3-4.816v-29.532a45.231,45.231,0,0,1-17.378-7.173,32.378,32.378,0,0,0,17.378-.675,27.684,27.684,0,0,0,8.859-4.886,28.5,28.5,0,0,0,9.347-14.692,35.534,35.534,0,0,0,.772-14.435,14.426,14.426,0,0,1-18.791-8.241Zm-52.766,29.238a6.413,6.413,0,0,0,4.626,1.345.528.528,0,0,1,.133,1.047,6.04,6.04,0,0,1-.742.042,7.328,7.328,0,0,1-4.708-1.636,6.7,6.7,0,0,1-2.153-5.2,5.6,5.6,0,0,1,1.51-4.187c2.113-2.147,5.79-2.147,7.358-2.147a.528.528,0,0,1,0,1.056c-1.437,0-4.8,0-6.605,1.833a4.582,4.582,0,0,0-1.207,3.429A5.693,5.693,0,0,0,4313.025,3677.008Zm53.854-8.9c-1.516,3.449-4.606,8.26-9.314,5.748-2.268-1.2-3.466-4.572-4.057-7.063a22.978,22.978,0,0,1-.507-2.862c9.383,3.277,15,1.093,15,1.093A24.78,24.78,0,0,1,4366.879,3668.112Z" transform="translate(4.153 2.696)" fill="#f79f8d"/>
      <path id="Path_196821" data-name="Path 196821" d="M4342.912,3639.131a73.817,73.817,0,0,1-8.865,11.887,54.285,54.285,0,0,1-5.041,4.947,13,13,0,1,0,13.906-16.834Zm3.591,13.307a2.693,2.693,0,1,1,2.693-2.693A2.693,2.693,0,0,1,4346.5,3652.438Z" transform="translate(5.461 2.215)" fill="#f79f8d"/>
      <path id="Path_196822" data-name="Path 196822" d="M4327.949,3656.032q-.845.681-1.693,1.306l2.118-.261C4328.217,3656.735,4328.079,3656.386,4327.949,3656.032Z" transform="translate(5.308 3.157)" fill="#f79f8d"/>
      <path id="Path_196823" data-name="Path 196823" d="M4348.185,3631.682a2.424,2.424,0,0,1-.571,4.734,29.852,29.852,0,0,0-3.619.362q-.508.981-1.06,1.961a14.5,14.5,0,0,1,11.928,11.754l4.331-1.377-.361-.483a.528.528,0,0,1,.844-.634l.583.777,2.985-.95a14.307,14.307,0,0,1,3.1-13.362,11.44,11.44,0,0,0-3.04-.157,20.728,20.728,0,0,0-3.864.764,2.4,2.4,0,0,1-1.868-4.353,13.372,13.372,0,0,1,7.257-2.179,40.749,40.749,0,0,0-15.491-7.12,64.12,64.12,0,0,1-.731,6.452.743.743,0,0,1-.732.622.8.8,0,0,1-.12-.01.711.711,0,0,1-.235-.089q-.468,1.463-1.045,2.945A15.156,15.156,0,0,1,4348.185,3631.682Z" transform="translate(6.237 1.228)" fill="#f79f8d"/>
      <path id="Path_196824" data-name="Path 196824" d="M4372.334,3636.21a11.309,11.309,0,0,0-3.081-1.483c-.76-.2-1.549-.422-2.35-.618a13,13,0,0,0,14.23,21.174,42.3,42.3,0,0,0-3.949-11.547c-.053-.1-.106-.206-.16-.308-.257-.493-.521-.985-.8-1.472a45.677,45.677,0,0,0-3.631-5.414C4372.51,3636.43,4372.422,3636.321,4372.334,3636.21Zm3.338,6.5a2.693,2.693,0,1,1-2.693-2.693A2.693,2.693,0,0,1,4375.672,3642.707Z" transform="translate(7.359 1.935)" fill="#f79f8d"/>
      <path id="Path_196825" data-name="Path 196825" d="M4309.666,3628.237a21.3,21.3,0,0,1-6.192,3.941c-4.557,1.887-11.606,2.746-17.815-.168,6.314,4.215,13.07,6.143,18.229,5.623C4305.639,3634.749,4307.583,3631.623,4309.666,3628.237Z" transform="translate(3.046 1.608)" fill="#ffe7d4"/>
      <path id="Path_196826" data-name="Path 196826" d="M4309.666,3628.237a21.3,21.3,0,0,1-6.192,3.941c-4.557,1.887-11.606,2.746-17.815-.168,6.314,4.215,13.07,6.143,18.229,5.623C4305.639,3634.749,4307.583,3631.623,4309.666,3628.237Z" transform="translate(3.046 1.608)" fill="#a66b3b" opacity="0.5"/>
      <path id="Path_196827" data-name="Path 196827" d="M4349.079,3622.429a40.749,40.749,0,0,1,15.491,7.12,13.668,13.668,0,0,1,7.271,1.937,14.279,14.279,0,0,1,11.1.366c2.522-2.353,6.891-7.482,5.18-13.586a.742.742,0,0,1,.514-.915c.015,0,.031,0,.045,0-2.259-8.017-11.828-14.025-23.273-14.025-7.133,0-13.525,2.336-17.877,6.035C4348.876,3612.831,4349.392,3617.2,4349.079,3622.429Z" transform="translate(6.492 0.22)" fill="#ffe7d4"/>
      <path id="Path_196828" data-name="Path 196828" d="M4334.769,3639.19a14.047,14.047,0,0,1,8.621-1.26q.553-.98,1.06-1.961A32,32,0,0,0,4334.769,3639.19Z" transform="translate(5.782 2.039)" fill="#ffe7d4"/>
      <path id="Path_196829" data-name="Path 196829" d="M4334.079,3651.023a73.817,73.817,0,0,0,8.865-11.887,12.944,12.944,0,0,0-14.518,12.9,12.948,12.948,0,0,0,.611,3.932A54.285,54.285,0,0,0,4334.079,3651.023Z" transform="translate(5.428 2.21)" fill="#ffe7d4"/>
      <path id="Path_196830" data-name="Path 196830" d="M4358.105,3646.5a.527.527,0,0,0-.106.739l.361.483,1.066-.339-.583-.777A.526.526,0,0,0,4358.105,3646.5Z" transform="translate(7.07 2.62)" fill="#96544a"/>
      <path id="Path_196831" data-name="Path 196831" d="M4362.693,3655a3.023,3.023,0,0,1-1.228,2.009l-2.032,1.465a.528.528,0,0,0,.618.856l2.032-1.465a4.1,4.1,0,0,0,.88-5.782l-2.669-3.56-1.065.339,2.89,3.854A3.025,3.025,0,0,1,4362.693,3655Z" transform="translate(7.144 2.738)" fill="#96544a"/>
      <path id="Path_196832" data-name="Path 196832" d="M4295.832,3707c-.3.025-.595.034-.884.038C4295.237,3707.035,4295.528,3707.026,4295.832,3707Z" transform="translate(3.564 5.996)" fill="#a66b3b" opacity="0.5"/>
      <path id="Path_196833" data-name="Path 196833" d="M4294.668,3707.047c-.3-.005-.59-.029-.875-.059C4294.078,3707.018,4294.366,3707.042,4294.668,3707.047Z" transform="translate(3.499 5.995)" fill="#a66b3b" opacity="0.5"/>
      <path id="Path_196834" data-name="Path 196834" d="M4293.582,3706.975a7.812,7.812,0,0,1-.864-.172A7.5,7.5,0,0,0,4293.582,3706.975Z" transform="translate(3.439 5.985)" fill="#a66b3b" opacity="0.5"/>
      <path id="Path_196835" data-name="Path 196835" d="M4297.061,3706.844c-.3.05-.585.085-.871.118C4296.476,3706.929,4296.763,3706.894,4297.061,3706.844Z" transform="translate(3.632 5.987)" fill="#a66b3b" opacity="0.5"/>
      <path id="Path_196836" data-name="Path 196836" d="M4292.589,3706.783a6.241,6.241,0,0,1-.948-.347A6.138,6.138,0,0,0,4292.589,3706.783Z" transform="translate(3.379 5.964)" fill="#a66b3b" opacity="0.5"/>
      <path id="Path_196837" data-name="Path 196837" d="M4298.339,3706.577c-.28.069-.555.126-.827.181C4297.785,3706.7,4298.059,3706.646,4298.339,3706.577Z" transform="translate(3.706 5.973)" fill="#a66b3b" opacity="0.5"/>
      <path id="Path_196838" data-name="Path 196838" d="M4299.657,3706.209c-.251.078-.5.15-.747.218C4299.158,3706.358,4299.4,3706.288,4299.657,3706.209Z" transform="translate(3.784 5.952)" fill="#a66b3b" opacity="0.5"/>
      <path id="Path_196839" data-name="Path 196839" d="M4300.679,3705.781a.781.781,0,0,1,.068-.1c1-1.7,2.094-3.431,3.313-5.268a27.089,27.089,0,0,1-5.359,3.872c-6.862,3.537-8.825.929-9.28,0a4.388,4.388,0,0,0,2.344,2.481,6.241,6.241,0,0,0,.948.347c.061.017.128.024.189.04a7.812,7.812,0,0,0,.864.172c.087.011.183.014.272.023.284.03.572.054.875.059.112,0,.23-.006.344-.007.289,0,.581-.013.884-.038.139-.012.285-.032.427-.047.286-.033.574-.069.871-.118.172-.03.35-.066.525-.1.272-.055.547-.112.827-.181.214-.052.431-.111.649-.171.246-.068.5-.139.747-.218l.085-.027C4300.412,3706.262,4300.536,3706.024,4300.679,3705.781Z" transform="translate(3.256 5.629)" fill="#ffe7d4"/>
      <path id="Path_196840" data-name="Path 196840" d="M4300.679,3705.781a.781.781,0,0,1,.068-.1c1-1.7,2.094-3.431,3.313-5.268a27.089,27.089,0,0,1-5.359,3.872c-6.862,3.537-8.825.929-9.28,0a4.388,4.388,0,0,0,2.344,2.481,6.241,6.241,0,0,0,.948.347c.061.017.128.024.189.04a7.812,7.812,0,0,0,.864.172c.087.011.183.014.272.023.284.03.572.054.875.059.112,0,.23-.006.344-.007.289,0,.581-.013.884-.038.139-.012.285-.032.427-.047.286-.033.574-.069.871-.118.172-.03.35-.066.525-.1.272-.055.547-.112.827-.181.214-.052.431-.111.649-.171.246-.068.5-.139.747-.218l.085-.027C4300.412,3706.262,4300.536,3706.024,4300.679,3705.781Z" transform="translate(3.256 5.629)" fill="#a66b3b" opacity="0.5"/>
      <path id="Path_196841" data-name="Path 196841" d="M4318.8,3666.349a.528.528,0,0,0,0-1.056c-1.569,0-5.246,0-7.358,2.147a5.6,5.6,0,0,0-1.51,4.187,6.7,6.7,0,0,0,2.153,5.2,7.328,7.328,0,0,0,4.708,1.636,6.04,6.04,0,0,0,.742-.042.528.528,0,0,0-.133-1.047,6.413,6.413,0,0,1-4.626-1.345,5.693,5.693,0,0,1-1.788-4.421,4.582,4.582,0,0,1,1.207-3.429C4314,3666.349,4317.368,3666.349,4318.8,3666.349Z" transform="translate(4.399 3.673)" fill="#96544a"/>
      <path id="Path_196842" data-name="Path 196842" d="M4344.713,3636.264a29.852,29.852,0,0,1,3.619-.362,2.424,2.424,0,0,0,.571-4.734,15.156,15.156,0,0,0-1.714-.341c-6.7-.987-14.534,2.3-17.064,8.812a1.3,1.3,0,0,0,1.94,1.513c.712-.443,1.431-.854,2.155-1.247.264-.151.537-.286.812-.419A32,32,0,0,1,4344.713,3636.264Z" transform="translate(5.519 1.743)" fill="#bd875c"/>
      <path id="Path_196843" data-name="Path 196843" d="M4369.052,3634.9a11.309,11.309,0,0,1,3.081,1.483c.13.074.248.146.385.219a1.365,1.365,0,0,0,1.936-1.51,7.579,7.579,0,0,0-2.224-4.08,13,13,0,0,0-5.527,3.269C4367.5,3634.477,4368.292,3634.7,4369.052,3634.9Z" transform="translate(7.561 1.762)" fill="#bd875c"/>
      <path id="Path_196844" data-name="Path 196844" d="M4356.856,3630.344a2.4,2.4,0,0,0,1.868,4.353,20.728,20.728,0,0,1,3.864-.764,11.44,11.44,0,0,1,3.04.157,14.5,14.5,0,0,1,5.757-3.988,13.668,13.668,0,0,0-7.271-1.937A13.372,13.372,0,0,0,4356.856,3630.344Z" transform="translate(6.95 1.604)" fill="#bd875c"/>
      <path id="Path_196845" data-name="Path 196845" d="M4295.931,3886.926a37.6,37.6,0,0,1,23.217,8.262c-5.338-5.826-11.226-12.061-18.479-17.553-8.912,7.458-31.38,4.549-39.429,1.078q1.593.768,3.251,1.477a83.277,83.277,0,0,0,12.773,4.3,82.142,82.142,0,0,0,18.508,2.434Z" transform="translate(1.686 15.502)" fill="#1a8099"/>
      <path id="Path_196846" data-name="Path 196846" d="M4295.931,3886.926a37.6,37.6,0,0,1,23.217,8.262c-5.338-5.826-11.226-12.061-18.479-17.553-8.912,7.458-31.38,4.549-39.429,1.078q1.593.768,3.251,1.477a83.277,83.277,0,0,0,12.773,4.3,82.142,82.142,0,0,0,18.508,2.434Z" transform="translate(1.686 15.502)" fill="#143b45" opacity="0.5"/>
      <path id="Path_196847" data-name="Path 196847" d="M4281.177,3606.827c15.07-2.1,25.057,11.437,25.156,11.574a.743.743,0,0,0,1.2-.87,35.2,35.2,0,0,0-13.2-10.3,24.806,24.806,0,0,0-13.36-1.873.743.743,0,0,0-.633.838.188.188,0,0,0,.008.02A.744.744,0,0,0,4281.177,3606.827Z" transform="translate(2.749 0.32)" fill="#bd875c"/>
      <path id="Path_196848" data-name="Path 196848" d="M4337.993,3602.333a9.934,9.934,0,0,1,6.531,3.833c3.6,4.477,4.61,12.3,2.928,22.612a.736.736,0,0,0,.379.763.711.711,0,0,0,.235.089.8.8,0,0,0,.12.01.743.743,0,0,0,.732-.622,64.12,64.12,0,0,0,.731-6.452c.313-5.226-.2-9.6-1.554-13.072a15.976,15.976,0,0,0-2.447-4.3,11.207,11.207,0,0,0-7.582-4.346.776.776,0,0,0-.561.234.711.711,0,0,0-.214.469A.744.744,0,0,0,4337.993,3602.333Z" transform="translate(5.923 0.082)" fill="#bd875c"/>
      <path id="Path_196849" data-name="Path 196849" d="M4386.248,3617.527c1.711,6.1-2.657,11.233-5.18,13.586a14.841,14.841,0,0,1,1.4.74,18.736,18.736,0,0,0,5.237-8.308,12.013,12.013,0,0,0-.033-6.42.738.738,0,0,0-.87-.517c-.014,0-.03,0-.045,0A.742.742,0,0,0,4386.248,3617.527Z" transform="translate(8.361 0.959)" fill="#bd875c"/>
      <path id="Path_196850" data-name="Path 196850" d="M4379.352,3632.708a.741.741,0,0,0,1.034.177c.076-.053.469-.336,1.041-.818a13.048,13.048,0,0,0-1.5-.7c-.237.189-.383.294-.394.3A.742.742,0,0,0,4379.352,3632.708Z" transform="translate(8.258 1.783)" fill="#bd875c"/>
      <path id="Path_196851" data-name="Path 196851" d="M4291.425,3731.391a.73.73,0,0,0,.59.478.716.716,0,0,0,.1.006.743.743,0,0,0,.736-.647c1-7.706,3.925-15.594,8.946-24.115a.764.764,0,0,0,.068-.1c1.5-2.541,3.149-5.105,5.209-8.074,1.07-1.558,2.115-3.022,3.092-4.388l1.156-1.621a.743.743,0,0,0-1.212-.858l-1.152,1.616c-.98,1.373-2.031,2.844-3.107,4.407-.676.976-1.3,1.9-1.9,2.8-1.219,1.837-2.308,3.563-3.313,5.268a.781.781,0,0,0-.068.1c-.143.243-.267.481-.407.723l0,0a68.876,68.876,0,0,0-7.968,19.537c-.336,1.511-.624,3.015-.818,4.512A.722.722,0,0,0,4291.425,3731.391Z" transform="translate(3.364 5.147)" fill="#bd875c"/>
      <path id="Path_196852" data-name="Path 196852" d="M4380.636,3706.782a.742.742,0,1,0-1.356.6c4.261,9.573,15.373,21.1,30.658,25.527.175.051.344.113.521.161a.763.763,0,0,0,.2.027.741.741,0,0,0,.714-.544.676.676,0,0,0,.011-.153c0-.014,0-.028,0-.041a.733.733,0,0,0-.531-.719,47.176,47.176,0,0,1-8.009-3.032C4391.9,3723.3,4384.024,3714.4,4380.636,3706.782Z" transform="translate(8.258 5.959)" fill="#bd875c"/>
      <path id="Path_196853" data-name="Path 196853" d="M4385.6,3723.647a.744.744,0,0,0-.451.948c1.217,3.417,5.176,11,7.617,12.8a.745.745,0,0,0,1.039-.156.848.848,0,0,0,.038-.081.734.734,0,0,0-.194-.956,19.845,19.845,0,0,1-3.733-5.117,48.694,48.694,0,0,1-3.367-6.988A.743.743,0,0,0,4385.6,3723.647Z" transform="translate(8.586 6.921)" fill="#bd875c"/>
      <path id="Path_196854" data-name="Path 196854" d="M4332.8,3751.324a.742.742,0,0,0-.181-1.034c-9.127-6.388-12.322-21.316-11.428-32.482a.742.742,0,0,0-1.479-.118c-.719,8.976,1.167,20.305,6.522,28.084a22.375,22.375,0,0,0,5.533,5.732.751.751,0,0,0,.423.134h0A.74.74,0,0,0,4332.8,3751.324Z" transform="translate(4.935 6.553)" fill="#bd875c"/>
      <path id="Path_196855" data-name="Path 196855" d="M4316.316,3752.387c-3.691-4.983-3.707-18.108-2.99-20.6a.742.742,0,0,0-1.426-.411c-.845,2.936-.793,15.457,2.779,21.232.09.144.182.281.275.416.056.081.111.167.169.245a.719.719,0,0,0,.274.226.738.738,0,0,0,.763-.07c.02-.016.03-.038.048-.054A.738.738,0,0,0,4316.316,3752.387Z" transform="translate(4.483 7.324)" fill="#bd875c"/>
      <path id="Path_196856" data-name="Path 196856" d="M4371.939,3834.729a.738.738,0,0,0,.656-.413.721.721,0,0,0,.071-.189.741.741,0,0,0-.587-.869c-.186-.036-14.869-2.848-36.346-5.853a38.819,38.819,0,0,0,22.306-10.044.742.742,0,0,0-1.064-1.034,38.278,38.278,0,0,1-26.241,9.858c-13.959-.19-17.127-7.807-18.184-10.347a.716.716,0,0,0-1.167-.24.764.764,0,0,0-.187.847,16.642,16.642,0,0,0,8.092,8.78l.077.04-.03,0c.419.32.844.626,1.279.9-4.751-.56-13.886-1.606-18.943-2.112-5.13-.517-9.944-.771-14.389-.834.185-.238.355-.487.533-.729-.173,0-.349-.01-.521-.013-20.207-.317-33.065,3.212-33.192,3.247a.742.742,0,1,0,.4,1.429c.125-.035,12.785-3.5,32.769-3.192,4.688.065,9.494.344,14.283.827h0c.02,0,.041,0,.061,0,4.9.492,9.842,1.03,14.691,1.6,29.018,3.428,51.541,7.579,55.01,8.231l.478.091A.8.8,0,0,0,4371.939,3834.729Z" transform="translate(1.257 12.035)" fill="#143b45"/>
      <path id="Path_196857" data-name="Path 196857" d="M4317.589,3895.589l1.36,1.485c.437.479.865.944,1.3,1.414,2.4,2.623,4.707,5.1,6.956,7.248a.741.741,0,0,0,1.05-.022c0-.005.006-.013.011-.017a.741.741,0,0,0-.035-1.033c-2.614-2.5-5.318-5.459-8.181-8.591-7.9-8.64-16.848-18.43-29.714-25.546a.742.742,0,0,0-.719,1.3,79.167,79.167,0,0,1,9.5,6.211C4306.364,3883.529,4312.251,3889.764,4317.589,3895.589Zm-7.814-9.331-.06.03a3.008,3.008,0,0,1-.237-.416A1.918,1.918,0,0,1,4309.775,3886.258Z" transform="translate(3.245 15.101)" fill="#143b45"/>
      <path id="Path_196858" data-name="Path 196858" d="M4268.86,3811.2h-.006a.742.742,0,0,0-.006,1.484c6.312.053,14.591,2.634,21.077,5.5q.354-.636.689-1.281C4283.8,3813.877,4275.2,3811.251,4268.86,3811.2Z" transform="translate(2.069 11.801)" fill="#143b45"/>
      <path id="Path_196859" data-name="Path 196859" d="M4351.166,3927.812a.743.743,0,0,0-.795-1.254l-13.277,8.418a.744.744,0,0,0-.338.519l-.822,5.594h1.5l.743-5.042Z" transform="translate(5.847 18.221)" fill="#593626"/>
      <path id="Path_196860" data-name="Path 196860" d="M4503.045,3855.83a.743.743,0,0,1-.5-1.294,62.867,62.867,0,0,0,4.37-4.567,33.676,33.676,0,0,1-12.587,6.127c-11.3,2.751-26.257,3.714-44.637-11.71-9.029-7.565-28.2-30.7-39.043-48.645a16.087,16.087,0,0,1-.831,5.8l24.218,33.542c12.309,17.873,22.476,25.1,33.994,28.62,10,3.063,26.576,1.1,36.521-9.031-.372.368-.721.7-1.013.967A.737.737,0,0,1,4503.045,3855.83Z" transform="translate(9.963 10.94)" fill="#1a8099"/>
      <path id="Path_196861" data-name="Path 196861" d="M4503.045,3855.83a.743.743,0,0,1-.5-1.294,62.867,62.867,0,0,0,4.37-4.567,33.676,33.676,0,0,1-12.587,6.127c-11.3,2.751-26.257,3.714-44.637-11.71-9.029-7.565-28.2-30.7-39.043-48.645a16.087,16.087,0,0,1-.831,5.8l24.218,33.542c12.309,17.873,22.476,25.1,33.994,28.62,10,3.063,26.576,1.1,36.521-9.031-.372.368-.721.7-1.013.967A.737.737,0,0,1,4503.045,3855.83Z" transform="translate(9.963 10.94)" fill="#143b45" opacity="0.5"/>
      <path id="Path_196862" data-name="Path 196862" d="M4356.642,3667.436a20.572,20.572,0,0,1-5.665-1.643c.59,2.491,1.789,5.861,4.057,7.063,4.708,2.512,7.8-2.3,9.314-5.748A18.8,18.8,0,0,1,4356.642,3667.436Z" transform="translate(6.685 3.7)" fill="#2b1011"/>
      <path id="Path_196863" data-name="Path 196863" d="M4386.289,3631.156a14.841,14.841,0,0,0-1.4-.74,14.44,14.44,0,0,0-19.948,16.983l-2.985.95-1.066.339-4.331,1.377a14.431,14.431,0,0,0-20.549-10.494c-.275.133-.548.268-.812.419a14.4,14.4,0,0,0-6.482,17.541c.13.355.268.7.425,1.045l-2.118.261-13.814,1.7a.742.742,0,0,0,.09,1.479.882.882,0,0,0,.092-.005l10.959-1.352,5.53-.682a14.468,14.468,0,0,0,26.916-7.39c0-.346-.028-.685-.052-1.026l5.089-1.619,1.065-.339,2.506-.8a14.478,14.478,0,0,0,27.976-5.224c0-.266-.025-.525-.04-.787a.5.5,0,0,0,.013-.07.6.6,0,0,0-.021-.1,14.506,14.506,0,0,0-.19-1.6,14.345,14.345,0,0,0-.624-2.324A14.54,14.54,0,0,0,4386.289,3631.156Zm-43.98,34.433a12.994,12.994,0,1,1,13-13A13.018,13.018,0,0,1,4342.309,3665.589Zm49.477-23.575-1.442.024-11.3.2c.277.487.541.979.8,1.472l3.75-.065,8.3-.142c0,.03,0,.058,0,.089a13.067,13.067,0,1,1-.907-4.737,12.879,12.879,0,0,1,.735,2.73C4391.743,3641.724,4391.769,3641.867,4391.786,3642.014Z" transform="translate(4.544 1.656)" fill="#fff"/>
      <path id="Path_196864" data-name="Path 196864" d="M4345.722,3646.634a2.693,2.693,0,1,0,2.693,2.693A2.693,2.693,0,0,0,4345.722,3646.634Z" transform="translate(6.242 2.633)" fill="#2b1011"/>
      <circle id="Ellipse_5221" data-name="Ellipse 5221" cx="2.693" cy="2.693" r="2.693" transform="translate(4377.645 3641.948)" fill="#2b1011"/>
      <path id="Path_196865" data-name="Path 196865" d="M4308.707,3885.443a1.918,1.918,0,0,0-.3-.386,3.008,3.008,0,0,0,.237.416Z" transform="translate(4.313 15.916)" fill="#143b45"/>
      <path id="Path_196866" data-name="Path 196866" d="M4308.707,3885.443a1.918,1.918,0,0,0-.3-.386,3.008,3.008,0,0,0,.237.416Z" transform="translate(4.313 15.916)" fill="#202759" opacity="0.5"/>
      <path id="Path_196867" data-name="Path 196867" d="M4350.5,3663.082a22.978,22.978,0,0,0,.507,2.862,20.58,20.58,0,0,0,5.665,1.643,18.8,18.8,0,0,0,7.706-.329,24.78,24.78,0,0,0,1.126-3.084S4359.88,3666.359,4350.5,3663.082Z" transform="translate(6.658 3.549)" fill="#fff"/>
      <path id="Path_196868" data-name="Path 196868" d="M4296.88,3783.011c.744,2.926,1.545,6,2.417,9.127-1.306-8.9-3.218-16.406-5.2-19.324a.742.742,0,0,0-1.227.835c1.406,2.067,2.769,6.53,3.893,12.173C4296.818,3783.762,4296.795,3782.68,4296.88,3783.011Z" transform="translate(3.44 9.644)" fill="#143b45"/>
      <path id="Path_196869" data-name="Path 196869" d="M4454.586,3813.992c-.143-.271-.285-.563-.428-.856-.082.184-.171.375-.251.555-1.712,3.856-2.562,6.235-2.6,6.334a.742.742,0,0,0,.452.947.725.725,0,0,0,.249.043.743.743,0,0,0,.7-.494c.008-.023.867-2.43,2.556-6.228a138.91,138.91,0,0,1,19.3-31.638l.192-.234c.133-.165.268-.33.408-.491a.745.745,0,0,0-.074-1.048.906.906,0,0,0-.087-.05.734.734,0,0,0-.96.125c-.149.173-.3.351-.438.527l-.184.225c-1.037,1.249-2.031,2.511-3,3.777l.473.6A144.675,144.675,0,0,0,4454.586,3813.992Z" transform="translate(12.272 10.103)" fill="#143b45"/>
      <path id="Path_196870" data-name="Path 196870" d="M4517.073,3829.083a.739.739,0,0,0-1.017.261,135.133,135.133,0,0,1-14.018,18.773,62.867,62.867,0,0,1-4.37,4.567.742.742,0,1,0,.993,1.1c.292-.263.641-.6,1.013-.967,1.239-1.226,2.879-2.995,4.723-5.133a132.259,132.259,0,0,0,12.936-17.587A.742.742,0,0,0,4517.073,3829.083Z" transform="translate(14.844 12.792)" fill="#143b45"/>
      <path id="Path_196871" data-name="Path 196871" d="M4411.853,3797.368a15.163,15.163,0,0,0-.306-2.567c-2.264-10.629-12.537-27.8-13.8-28.229a.742.742,0,0,0-.66,1.314c1.177,1.234,10.789,16.818,13.006,27.224,1.689,7.908-3.69,16.175-13.391,20.569a30.732,30.732,0,0,1-3.769,1.435,34.37,34.37,0,0,1-4.071,1,.742.742,0,0,0,.134,1.472.762.762,0,0,0,.136-.011,36,36,0,0,0,4.242-1.045c.541-.166,1.08-.358,1.617-.555.783-.287,1.563-.6,2.325-.944.582-.264,1.143-.545,1.7-.835l.009,0c6.06-3.182,10.283-7.881,12-13.025A16.087,16.087,0,0,0,4411.853,3797.368Z" transform="translate(8.762 9.312)" fill="#143b45"/>
      <path id="Path_196872" data-name="Path 196872" d="M4299.16,3824.013c1.359-11.115.066-27.44-2.216-38.893-.169,6.094-1.05,20.793-7.518,33.236C4293.729,3820.265,4297.312,3822.331,4299.16,3824.013Z" transform="translate(3.256 10.348)" fill="#1a8099"/>
      <path id="Path_196873" data-name="Path 196873" d="M4299.16,3824.013c1.359-11.115.066-27.44-2.216-38.893-.169,6.094-1.05,20.793-7.518,33.236C4293.729,3820.265,4297.312,3822.331,4299.16,3824.013Z" transform="translate(3.256 10.348)" fill="#143b45" opacity="0.5"/>
      <path id="Path_196874" data-name="Path 196874" d="M4298.092,3823.013a41.146,41.146,0,0,0-9.164-5.2,43.4,43.4,0,0,1-2.922,4.539C4289.983,3822.424,4294.037,3822.649,4298.092,3823.013Z" transform="translate(3.065 12.169)" fill="#1a8099"/>
      <path id="Path_196875" data-name="Path 196875" d="M4298.092,3823.013a41.146,41.146,0,0,0-9.164-5.2,43.4,43.4,0,0,1-2.922,4.539C4289.983,3822.424,4294.037,3822.649,4298.092,3823.013Z" transform="translate(3.065 12.169)" fill="#143b45" opacity="0.5"/>
      <path id="Path_196876" data-name="Path 196876" d="M4299.981,3824.748c4.665.471,9.36.981,13.975,1.524q1.435.169,2.849.342l-.046-.037a16.642,16.642,0,0,1-8.092-8.78.764.764,0,0,1,.187-.847c-4.214-7.316-7.368-16.777-9.9-25.85C4300.58,3802.2,4301.264,3815.469,4299.981,3824.748Z" transform="translate(3.786 10.681)" fill="#1a8099"/>
      <path id="Path_196877" data-name="Path 196877" d="M4299.981,3824.748c4.665.471,9.36.981,13.975,1.524q1.435.169,2.849.342l-.046-.037a16.642,16.642,0,0,1-8.092-8.78.764.764,0,0,1,.187-.847c-4.214-7.316-7.368-16.777-9.9-25.85C4300.58,3802.2,4301.264,3815.469,4299.981,3824.748Z" transform="translate(3.786 10.681)" fill="#143b45" opacity="0.5"/>
      <path id="Path_196878" data-name="Path 196878" d="M4285.5,3825.057c4.445.063,9.259.317,14.389.834,5.057.507,14.192,1.553,18.943,2.112-.435-.278-.86-.584-1.279-.9q-1.413-.172-2.849-.342c-4.614-.543-9.31-1.054-13.975-1.524,1.283-9.28.6-22.547-1.03-33.646-.872-3.124-1.673-6.2-2.417-9.128-.085-.332-.062.75-.12,2.813,2.282,11.453,3.575,27.779,2.216,38.893-1.849-1.682-5.431-3.748-9.734-5.657q-.334.645-.689,1.281a41.156,41.156,0,0,1,9.164,5.2c-4.055-.364-8.109-.589-12.086-.659C4285.855,3824.57,4285.685,3824.818,4285.5,3825.057Z" transform="translate(3.037 10.197)" fill="#143b45"/>
      <path id="Path_196879" data-name="Path 196879" d="M4285.5,3825.057c4.445.063,9.259.317,14.389.834,5.057.507,14.192,1.553,18.943,2.112-.435-.278-.86-.584-1.279-.9q-1.413-.172-2.849-.342c-4.614-.543-9.31-1.054-13.975-1.524,1.283-9.28.6-22.547-1.03-33.646-.872-3.124-1.673-6.2-2.417-9.128-.085-.332-.062.75-.12,2.813,2.282,11.453,3.575,27.779,2.216,38.893-1.849-1.682-5.431-3.748-9.734-5.657q-.334.645-.689,1.281a41.156,41.156,0,0,1,9.164,5.2c-4.055-.364-8.109-.589-12.086-.659C4285.855,3824.57,4285.685,3824.818,4285.5,3825.057Z" transform="translate(3.037 10.197)" fill="#143b45" opacity="0.5"/>
      <path id="Path_196880" data-name="Path 196880" d="M4454.053,3785.376a32.735,32.735,0,0,0,.121,27.975,143.635,143.635,0,0,1,16.266-27.649l-6.959-8.856C4460.124,3776.93,4456.83,3779.242,4454.053,3785.376Z" transform="translate(12.256 9.887)" fill="#1a8099"/>
      <path id="Path_196881" data-name="Path 196881" d="M4454.053,3785.376a32.735,32.735,0,0,0,.121,27.975,143.635,143.635,0,0,1,16.266-27.649l-6.959-8.856C4460.124,3776.93,4456.83,3779.242,4454.053,3785.376Z" transform="translate(12.256 9.887)" fill="#143b45" opacity="0.5"/>
      <path id="Path_196882" data-name="Path 196882" d="M4454.434,3813.74a144.675,144.675,0,0,1,16.311-27.9l-.473-.6a143.635,143.635,0,0,0-16.266,27.649C4454.148,3813.177,4454.291,3813.47,4454.434,3813.74Z" transform="translate(12.424 10.355)" fill="#143b45"/>
      <path id="Path_196883" data-name="Path 196883" d="M4454.434,3813.74a144.675,144.675,0,0,1,16.311-27.9l-.473-.6a143.635,143.635,0,0,0-16.266,27.649C4454.148,3813.177,4454.291,3813.47,4454.434,3813.74Z" transform="translate(12.424 10.355)" fill="#143b45" opacity="0.5"/>
    </g>
  </g>
</svg>
