<svg xmlns="http://www.w3.org/2000/svg" width="566" height="339" viewBox="0 0 566 339">
  <g id="Grupo_139910" data-name="Grupo 139910" transform="translate(-810 -2398)">
    <path id="Trazado_197286" data-name="Trazado 197286" d="M16,0H550a16,16,0,0,1,16,16V323a16,16,0,0,1-16,16H16A16,16,0,0,1,0,323V16A16,16,0,0,1,16,0Z" transform="translate(810 2398)" fill="#e6f4ff"/>
    <path id="Trazado_197287" data-name="Trazado 197287" d="M0,0H430.333V36.956H0Z" transform="translate(896.334 2444.769)" fill="#f6f6f6"/>
    <path id="Trazado_197288" data-name="Trazado 197288" d="M0,0H430.333V36.956H0Z" transform="translate(896.334 2481.047)" fill="#fff"/>
    <path id="Trazado_197289" data-name="Trazado 197289" d="M0,0V78.186" transform="translate(1003.043 2439.765)" fill="none" stroke="#afafaf" stroke-linecap="round" stroke-width="1"/>
    <path id="Trazado_197290" data-name="Trazado 197290" d="M0,0V78.186" transform="translate(1102.471 2439.765)" fill="none" stroke="#afafaf" stroke-linecap="round" stroke-width="1"/>
    <path id="Trazado_197291" data-name="Trazado 197291" d="M0,0V78.186" transform="translate(1213.807 2439.765)" fill="none" stroke="#afafaf" stroke-linecap="round" stroke-width="1"/>
    <path id="Trazado_115567" data-name="Trazado 115567" d="M0,0H430.333V23.9H0Z" transform="translate(896.334 2421)" fill="#4dd0e1"/>
    <path id="Trazado_197292" data-name="Trazado 197292" d="M-28.069,0h-1.88V-7.82h1.88Zm1.311,0V-7.82h2.519a3.706,3.706,0,0,1,1.864.47,3.3,3.3,0,0,1,1.292,1.327,4.005,4.005,0,0,1,.47,1.92v.36a4.029,4.029,0,0,1-.454,1.926A3.318,3.318,0,0,1-22.346-.486,3.624,3.624,0,0,1-24.186,0Zm1.885-6.365V-1.45h.655a1.467,1.467,0,0,0,1.246-.577,2.829,2.829,0,0,0,.435-1.716v-.338a2.806,2.806,0,0,0-.435-1.708,1.492,1.492,0,0,0-1.268-.575Zm11,4.238,1.558-5.693h2.105L-12.842,0H-14.9l-2.61-7.82h2.089ZM-6.913.107a2.987,2.987,0,0,1-2.165-.8A2.754,2.754,0,0,1-9.9-2.766v-.15a3.569,3.569,0,0,1,.33-1.574A2.417,2.417,0,0,1-8.61-5.546a2.911,2.911,0,0,1,1.5-.373,2.516,2.516,0,0,1,1.934.76A2.987,2.987,0,0,1-4.463-3.04v.7h-3.6a1.3,1.3,0,0,0,.424.768,1.263,1.263,0,0,0,.849.279,1.627,1.627,0,0,0,1.343-.6l.827.978a2.312,2.312,0,0,1-.959.744A3.24,3.24,0,0,1-6.913.107Zm-.2-4.63q-.795,0-.945,1.053h1.826v-.14a.9.9,0,0,0-.22-.674A.876.876,0,0,0-7.117-4.522Zm5.043-1.289.059.682a1.971,1.971,0,0,1,1.66-.79A1.658,1.658,0,0,1,1-5.376a2.583,2.583,0,0,1,.465,1.633V0H-.349V-3.668a.981.981,0,0,0-.177-.647.82.82,0,0,0-.645-.207.863.863,0,0,0-.79.419V0h-1.81V-5.812ZM2.24-2.949a3.55,3.55,0,0,1,.6-2.175A1.962,1.962,0,0,1,4.5-5.919a1.669,1.669,0,0,1,1.311.612V-8.25H7.627V0H6L5.908-.623A1.714,1.714,0,0,1,4.49.107,1.959,1.959,0,0,1,2.847-.687,3.663,3.663,0,0,1,2.24-2.949Zm1.81.113q0,1.547.9,1.547a.891.891,0,0,0,.859-.5V-4.007a.867.867,0,0,0-.849-.516q-.838,0-.908,1.354ZM11.467.107A2.987,2.987,0,0,1,9.3-.69a2.754,2.754,0,0,1-.827-2.076v-.15a3.569,3.569,0,0,1,.33-1.574A2.417,2.417,0,0,1,9.77-5.546a2.911,2.911,0,0,1,1.5-.373,2.516,2.516,0,0,1,1.934.76,2.987,2.987,0,0,1,.709,2.119v.7h-3.6a1.3,1.3,0,0,0,.424.768,1.263,1.263,0,0,0,.849.279,1.627,1.627,0,0,0,1.343-.6l.827.978a2.312,2.312,0,0,1-.959.744A3.24,3.24,0,0,1,11.467.107Zm-.2-4.63q-.795,0-.945,1.053h1.826v-.14a.9.9,0,0,0-.22-.674A.876.876,0,0,0,11.263-4.522Zm3.153,1.574a3.55,3.55,0,0,1,.6-2.175,1.962,1.962,0,0,1,1.665-.795,1.669,1.669,0,0,1,1.311.612V-8.25H19.8V0H18.176l-.091-.623a1.714,1.714,0,0,1-1.418.73,1.959,1.959,0,0,1-1.644-.795A3.663,3.663,0,0,1,14.416-2.949Zm1.81.113q0,1.547.9,1.547a.891.891,0,0,0,.859-.5V-4.007a.867.867,0,0,0-.849-.516q-.838,0-.908,1.354ZM20.6-2.959a3.43,3.43,0,0,1,.338-1.55,2.42,2.42,0,0,1,.972-1.045A2.928,2.928,0,0,1,23.4-5.919a2.672,2.672,0,0,1,2.057.808,3.1,3.1,0,0,1,.752,2.2v.064A3.01,3.01,0,0,1,25.456-.69a2.679,2.679,0,0,1-2.044.8A2.71,2.71,0,0,1,21.42-.636a2.91,2.91,0,0,1-.811-2.017Zm1.81.113a2.162,2.162,0,0,0,.252,1.182.841.841,0,0,0,.747.376q.967,0,.988-1.488v-.183q0-1.563-1-1.563-.908,0-.983,1.348Zm8.11-1.327-.6-.043a1.071,1.071,0,0,0-1.1.537V0h-1.81V-5.812h1.7l.059.747a1.4,1.4,0,0,1,1.273-.854,1.765,1.765,0,0,1,.5.064Z" transform="translate(948.667 2436)" fill="#12263f"/>
    <path id="Trazado_197293" data-name="Trazado 197293" d="M-17.7,0h-1V-6.623l-2,.736v-.9l2.847-1.069h.156Zm8.035,0h-5.124V-.714l2.707-3.008a6.431,6.431,0,0,0,.83-1.109,1.851,1.851,0,0,0,.228-.884,1.4,1.4,0,0,0-.371-1,1.3,1.3,0,0,0-.988-.392,1.535,1.535,0,0,0-1.152.422,1.611,1.611,0,0,0-.411,1.174h-.994a2.307,2.307,0,0,1,.7-1.746,2.579,2.579,0,0,1,1.861-.666,2.478,2.478,0,0,1,1.724.572,1.951,1.951,0,0,1,.634,1.523A4.474,4.474,0,0,1-11.5-3.083L-13.594-.811h3.926Zm5.957-3.335a4.545,4.545,0,0,1-.6,2.594A2.12,2.12,0,0,1-6.171.107a2.136,2.136,0,0,1-1.853-.83A4.313,4.313,0,0,1-8.647-3.2V-4.528a4.443,4.443,0,0,1,.6-2.562,2.137,2.137,0,0,1,1.869-.838,2.156,2.156,0,0,1,1.858.808,4.288,4.288,0,0,1,.612,2.495Zm-.994-1.359a3.641,3.641,0,0,0-.354-1.84,1.22,1.22,0,0,0-1.123-.577,1.2,1.2,0,0,0-1.112.575,3.555,3.555,0,0,0-.36,1.767v1.59a3.7,3.7,0,0,0,.368,1.872,1.218,1.218,0,0,0,1.115.6,1.2,1.2,0,0,0,1.093-.569,3.566,3.566,0,0,0,.373-1.794Zm3.711.3h.747A1.641,1.641,0,0,0,.859-4.764a1.238,1.238,0,0,0,.4-.972A1.213,1.213,0,0,0-.107-7.111a1.425,1.425,0,0,0-1.029.368,1.288,1.288,0,0,0-.384.975h-.994a2,2,0,0,1,.679-1.544A2.475,2.475,0,0,1-.107-7.928a2.446,2.446,0,0,1,1.735.585,2.115,2.115,0,0,1,.628,1.627,1.717,1.717,0,0,1-.33.988,1.994,1.994,0,0,1-.9.714,1.922,1.922,0,0,1,1,.677,1.88,1.88,0,0,1,.352,1.155A2.133,2.133,0,0,1,1.687-.51,2.575,2.575,0,0,1-.1.107a2.643,2.643,0,0,1-1.791-.6,1.978,1.978,0,0,1-.69-1.574h1a1.278,1.278,0,0,0,.4.988A1.532,1.532,0,0,0-.1-.7,1.5,1.5,0,0,0,1-1.08a1.449,1.449,0,0,0,.381-1.08A1.315,1.315,0,0,0,.961-3.207,1.825,1.825,0,0,0-.247-3.583H-.994Zm5.188.473.4-3.9H8.6V-6.9H5.436L5.2-4.77A2.524,2.524,0,0,1,6.5-5.108,2.158,2.158,0,0,1,8.2-4.4,2.768,2.768,0,0,1,8.83-2.492a2.672,2.672,0,0,1-.653,1.9,2.379,2.379,0,0,1-1.823.7A2.472,2.472,0,0,1,4.662-.467a2.294,2.294,0,0,1-.747-1.59h.94a1.578,1.578,0,0,0,.478,1.012A1.486,1.486,0,0,0,6.354-.7a1.341,1.341,0,0,0,1.088-.473,1.976,1.976,0,0,0,.395-1.305,1.814,1.814,0,0,0-.427-1.26,1.452,1.452,0,0,0-1.136-.475,1.638,1.638,0,0,0-1.021.285l-.263.215Zm9.62-3.9v.843h-.183a2.616,2.616,0,0,0-1.848.688,2.861,2.861,0,0,0-.795,1.875,2.121,2.121,0,0,1,1.687-.709,2.028,2.028,0,0,1,1.63.72,2.776,2.776,0,0,1,.61,1.858,2.767,2.767,0,0,1-.658,1.934,2.266,2.266,0,0,1-1.764.725,2.232,2.232,0,0,1-1.821-.862,3.417,3.417,0,0,1-.7-2.221v-.381a5.148,5.148,0,0,1,.921-3.3,3.383,3.383,0,0,1,2.742-1.168ZM12.509-4.3a1.585,1.585,0,0,0-.94.306,1.6,1.6,0,0,0-.6.768v.365a2.565,2.565,0,0,0,.435,1.558,1.3,1.3,0,0,0,1.085.591,1.263,1.263,0,0,0,1.055-.494A2.05,2.05,0,0,0,13.933-2.5a2.051,2.051,0,0,0-.389-1.3A1.248,1.248,0,0,0,12.509-4.3Zm4.039.381.4-3.9h4.007V-6.9H17.789L17.553-4.77a2.524,2.524,0,0,1,1.305-.338,2.158,2.158,0,0,1,1.7.706,2.768,2.768,0,0,1,.628,1.909,2.672,2.672,0,0,1-.653,1.9,2.379,2.379,0,0,1-1.823.7,2.472,2.472,0,0,1-1.692-.575,2.294,2.294,0,0,1-.747-1.59h.94a1.578,1.578,0,0,0,.478,1.012A1.486,1.486,0,0,0,18.708-.7,1.341,1.341,0,0,0,19.8-1.176a1.976,1.976,0,0,0,.395-1.305,1.814,1.814,0,0,0-.427-1.26,1.452,1.452,0,0,0-1.136-.475,1.638,1.638,0,0,0-1.021.285l-.263.215Z" transform="translate(948.667 2466)" fill="#12263f"/>
    <path id="Trazado_197294" data-name="Trazado 197294" d="M-17.424-3.921l.4-3.9h4.007V-6.9h-3.164l-.236,2.132a2.524,2.524,0,0,1,1.305-.338,2.158,2.158,0,0,1,1.7.706,2.768,2.768,0,0,1,.628,1.909,2.672,2.672,0,0,1-.653,1.9,2.379,2.379,0,0,1-1.823.7,2.472,2.472,0,0,1-1.692-.575,2.294,2.294,0,0,1-.747-1.59h.94a1.578,1.578,0,0,0,.478,1.012A1.486,1.486,0,0,0-15.265-.7a1.341,1.341,0,0,0,1.088-.473,1.976,1.976,0,0,0,.395-1.305,1.814,1.814,0,0,0-.427-1.26,1.452,1.452,0,0,0-1.136-.475,1.638,1.638,0,0,0-1.021.285l-.263.215ZM-6.655-7.262-9.894,0h-1.042l3.228-7H-11.94V-7.82h5.285Zm6.177,0L-3.717,0H-4.759l3.228-7H-5.763V-7.82H-.478ZM5.393-5.779a1.816,1.816,0,0,1-.309,1.042,2.1,2.1,0,0,1-.835.714,2.241,2.241,0,0,1,.969.768,1.933,1.933,0,0,1,.357,1.144A2.044,2.044,0,0,1,4.89-.494a2.631,2.631,0,0,1-1.8.6A2.619,2.619,0,0,1,1.281-.5,2.053,2.053,0,0,1,.6-2.111,1.991,1.991,0,0,1,.948-3.255a2.156,2.156,0,0,1,.959-.773,2.05,2.05,0,0,1-.822-.714,1.842,1.842,0,0,1-.3-1.037,2.021,2.021,0,0,1,.634-1.568,2.378,2.378,0,0,1,1.67-.58,2.38,2.38,0,0,1,1.668.58A2.017,2.017,0,0,1,5.393-5.779ZM4.582-2.132A1.441,1.441,0,0,0,4.165-3.2a1.476,1.476,0,0,0-1.088-.414A1.45,1.45,0,0,0,2-3.207,1.458,1.458,0,0,0,1.6-2.132,1.388,1.388,0,0,0,1.99-1.085a1.515,1.515,0,0,0,1.1.381,1.511,1.511,0,0,0,1.1-.384A1.385,1.385,0,0,0,4.582-2.132ZM3.088-7.111a1.282,1.282,0,0,0-.948.363,1.332,1.332,0,0,0-.363.986,1.325,1.325,0,0,0,.357.964,1.268,1.268,0,0,0,.953.368A1.268,1.268,0,0,0,4.042-4.8,1.325,1.325,0,0,0,4.4-5.763a1.326,1.326,0,0,0-.371-.972A1.264,1.264,0,0,0,3.088-7.111Zm4.195,3.19.4-3.9h4.007V-6.9H8.524L8.288-4.77a2.524,2.524,0,0,1,1.305-.338,2.158,2.158,0,0,1,1.7.706,2.768,2.768,0,0,1,.628,1.909,2.672,2.672,0,0,1-.653,1.9,2.379,2.379,0,0,1-1.823.7A2.472,2.472,0,0,1,7.75-.467,2.294,2.294,0,0,1,7-2.057h.94a1.578,1.578,0,0,0,.478,1.012A1.486,1.486,0,0,0,9.442-.7a1.341,1.341,0,0,0,1.088-.473,1.976,1.976,0,0,0,.395-1.305,1.814,1.814,0,0,0-.427-1.26,1.452,1.452,0,0,0-1.136-.475,1.638,1.638,0,0,0-1.021.285l-.263.215Zm9.62-3.9v.843H16.72a2.616,2.616,0,0,0-1.848.688,2.861,2.861,0,0,0-.795,1.875,2.121,2.121,0,0,1,1.687-.709,2.028,2.028,0,0,1,1.63.72A2.776,2.776,0,0,1,18-2.551a2.767,2.767,0,0,1-.658,1.934,2.266,2.266,0,0,1-1.764.725,2.232,2.232,0,0,1-1.821-.862,3.417,3.417,0,0,1-.7-2.221v-.381a5.148,5.148,0,0,1,.921-3.3,3.383,3.383,0,0,1,2.742-1.168ZM15.6-4.3a1.585,1.585,0,0,0-.94.306,1.6,1.6,0,0,0-.6.768v.365A2.565,2.565,0,0,0,14.5-1.305a1.3,1.3,0,0,0,1.085.591,1.263,1.263,0,0,0,1.055-.494A2.05,2.05,0,0,0,17.021-2.5a2.051,2.051,0,0,0-.389-1.3A1.248,1.248,0,0,0,15.6-4.3Z" transform="translate(949.667 2502)" fill="#12263f"/>
    <path id="Trazado_197295" data-name="Trazado 197295" d="M-12.49-3.062V0h-1.031V-7.82h2.884a2.9,2.9,0,0,1,2.011.655A2.222,2.222,0,0,1-7.9-5.43,2.192,2.192,0,0,1-8.61-3.677a3.027,3.027,0,0,1-2.038.615Zm0-.843h1.853a1.853,1.853,0,0,0,1.268-.39,1.426,1.426,0,0,0,.44-1.127,1.474,1.474,0,0,0-.44-1.119,1.736,1.736,0,0,0-1.208-.436H-12.49ZM-4.326.107A2.539,2.539,0,0,1-6.249-.669,2.881,2.881,0,0,1-6.99-2.745v-.183a3.487,3.487,0,0,1,.33-1.544,2.577,2.577,0,0,1,.924-1.063A2.323,2.323,0,0,1-4.45-5.919a2.177,2.177,0,0,1,1.762.747A3.232,3.232,0,0,1-2.06-3.035v.414H-6a2.066,2.066,0,0,0,.5,1.388A1.579,1.579,0,0,0-4.273-.7a1.731,1.731,0,0,0,.892-.215,2.24,2.24,0,0,0,.639-.569l.607.473A2.44,2.44,0,0,1-4.326.107ZM-4.45-5.1a1.325,1.325,0,0,0-1.01.438,2.128,2.128,0,0,0-.5,1.227h2.911v-.075a1.893,1.893,0,0,0-.408-1.174A1.248,1.248,0,0,0-4.45-5.1Zm3.3,2.148A3.4,3.4,0,0,1-.518-5.105a2,2,0,0,1,1.66-.814,2.016,2.016,0,0,1,1.617.7V-8.25h.994V0H2.839L2.79-.623a2.024,2.024,0,0,1-1.66.73A1.985,1.985,0,0,1-.516-.72a3.443,3.443,0,0,1-.636-2.159Zm.994.113A2.578,2.578,0,0,0,.25-1.294a1.32,1.32,0,0,0,1.128.559,1.45,1.45,0,0,0,1.38-.849V-4.254a1.461,1.461,0,0,0-1.37-.822A1.326,1.326,0,0,0,.25-4.512,2.838,2.838,0,0,0-.158-2.841ZM8.1-4.92a2.978,2.978,0,0,0-.489-.038,1.309,1.309,0,0,0-1.327.833V0H5.293V-5.812H6.26l.016.671a1.547,1.547,0,0,1,1.386-.779,1.015,1.015,0,0,1,.44.075Zm.542,1.96A3.433,3.433,0,0,1,8.98-4.5a2.5,2.5,0,0,1,.935-1.053,2.544,2.544,0,0,1,1.367-.371A2.451,2.451,0,0,1,13.2-5.1a3.162,3.162,0,0,1,.733,2.186v.07a3.462,3.462,0,0,1-.325,1.523,2.467,2.467,0,0,1-.929,1.05,2.573,2.573,0,0,1-1.388.376A2.445,2.445,0,0,1,9.378-.714,3.146,3.146,0,0,1,8.645-2.89Zm1,.118a2.486,2.486,0,0,0,.448,1.552,1.435,1.435,0,0,0,1.2.585A1.427,1.427,0,0,0,12.5-1.3a2.719,2.719,0,0,0,.446-1.662,2.482,2.482,0,0,0-.454-1.55A1.443,1.443,0,0,0,11.282-5.1a1.427,1.427,0,0,0-1.187.585A2.7,2.7,0,0,0,9.644-2.841Z" transform="translate(1053.667 2466)" fill="#12263f"/>
    <path id="Trazado_197296" data-name="Trazado 197296" d="M-4.787-2.232H-8.361L-9.164,0h-1.16l3.258-8.531h.984L-2.818,0H-3.973Zm-3.234-.92h2.9l-1.453-3.99ZM-.814-6.34l.035.8a2.31,2.31,0,0,1,1.9-.914q2.01,0,2.027,2.268V0H2.063V-4.2a1.459,1.459,0,0,0-.313-1.014,1.256,1.256,0,0,0-.958-.328,1.564,1.564,0,0,0-.926.281,1.91,1.91,0,0,0-.621.738V0H-1.84V-6.34ZM8.7,0a2.277,2.277,0,0,1-.152-.668,2.419,2.419,0,0,1-1.8.785A2.238,2.238,0,0,1,5.2-.413a1.716,1.716,0,0,1-.6-1.345A1.792,1.792,0,0,1,5.353-3.3a3.55,3.55,0,0,1,2.118-.548H8.525v-.5a1.217,1.217,0,0,0-.34-.905,1.366,1.366,0,0,0-1-.337,1.581,1.581,0,0,0-.973.293.863.863,0,0,0-.393.709H4.729A1.5,1.5,0,0,1,5.065-5.5a2.3,2.3,0,0,1,.914-.7,3.075,3.075,0,0,1,1.269-.258,2.506,2.506,0,0,1,1.717.548A1.976,1.976,0,0,1,9.609-4.4v2.918A3.567,3.567,0,0,0,9.832-.094V0ZM6.9-.826a1.905,1.905,0,0,0,.967-.264,1.6,1.6,0,0,0,.662-.686v-1.3h-.85q-1.992,0-1.992,1.166a.987.987,0,0,0,.34.8A1.306,1.306,0,0,0,6.9-.826Z" transform="translate(1054.667 2503)" fill="#12263f"/>
    <path id="Trazado_197297" data-name="Trazado 197297" d="M-11.945-3.062V0h-1.031V-7.82h2.884a2.9,2.9,0,0,1,2.011.655A2.222,2.222,0,0,1-7.353-5.43a2.192,2.192,0,0,1-.712,1.754,3.027,3.027,0,0,1-2.038.615Zm0-.843h1.853a1.853,1.853,0,0,0,1.268-.39,1.426,1.426,0,0,0,.44-1.127,1.474,1.474,0,0,0-.44-1.119,1.736,1.736,0,0,0-1.208-.436h-1.912ZM-3.781.107A2.539,2.539,0,0,1-5.7-.669a2.881,2.881,0,0,1-.741-2.076v-.183a3.487,3.487,0,0,1,.33-1.544,2.577,2.577,0,0,1,.924-1.063A2.323,2.323,0,0,1-3.9-5.919a2.177,2.177,0,0,1,1.762.747,3.232,3.232,0,0,1,.628,2.138v.414H-5.452a2.066,2.066,0,0,0,.5,1.388A1.579,1.579,0,0,0-3.728-.7a1.731,1.731,0,0,0,.892-.215A2.24,2.24,0,0,0-2.2-1.488l.607.473A2.44,2.44,0,0,1-3.781.107ZM-3.9-5.1a1.325,1.325,0,0,0-1.01.438,2.128,2.128,0,0,0-.5,1.227h2.911v-.075a1.893,1.893,0,0,0-.408-1.174A1.248,1.248,0,0,0-3.9-5.1Zm.483-3.147h1.2L-3.658-6.671l-.8,0ZM2.444-4.92a2.978,2.978,0,0,0-.489-.038,1.309,1.309,0,0,0-1.327.833V0H-.365V-5.812H.6l.016.671A1.547,1.547,0,0,1,2-5.919a1.015,1.015,0,0,1,.44.075ZM5.769.107A2.539,2.539,0,0,1,3.846-.669,2.881,2.881,0,0,1,3.1-2.745v-.183a3.487,3.487,0,0,1,.33-1.544,2.577,2.577,0,0,1,.924-1.063,2.323,2.323,0,0,1,1.286-.384,2.177,2.177,0,0,1,1.762.747,3.232,3.232,0,0,1,.628,2.138v.414H4.1a2.066,2.066,0,0,0,.5,1.388A1.579,1.579,0,0,0,5.822-.7a1.731,1.731,0,0,0,.892-.215,2.24,2.24,0,0,0,.639-.569l.607.473A2.44,2.44,0,0,1,5.769.107ZM5.645-5.1a1.325,1.325,0,0,0-1.01.438,2.128,2.128,0,0,0-.5,1.227H7.042v-.075a1.893,1.893,0,0,0-.408-1.174A1.248,1.248,0,0,0,5.645-5.1ZM10.119-.811h3.4V0H8.905V-.73L12.112-4.99H8.954v-.822h4.4v.7Z" transform="translate(1158.667 2466)" fill="#12263f"/>
    <path id="Trazado_197298" data-name="Trazado 197298" d="M-19.58,0h-1.037V-3.615h-3.942V0h-1.031V-7.82h1.031v3.362h3.942V-7.82h1.037Zm4.087.107a2.539,2.539,0,0,1-1.923-.776,2.881,2.881,0,0,1-.741-2.076v-.183a3.487,3.487,0,0,1,.33-1.544A2.577,2.577,0,0,1-16.9-5.535a2.323,2.323,0,0,1,1.286-.384,2.177,2.177,0,0,1,1.762.747,3.232,3.232,0,0,1,.628,2.138v.414h-3.937a2.066,2.066,0,0,0,.5,1.388A1.579,1.579,0,0,0-15.439-.7a1.731,1.731,0,0,0,.892-.215,2.24,2.24,0,0,0,.639-.569l.607.473A2.44,2.44,0,0,1-15.493.107Zm-.124-5.21a1.325,1.325,0,0,0-1.01.438,2.128,2.128,0,0,0-.5,1.227h2.911v-.075a1.893,1.893,0,0,0-.408-1.174A1.248,1.248,0,0,0-15.616-5.1Zm6.349.183a2.978,2.978,0,0,0-.489-.038,1.309,1.309,0,0,0-1.327.833V0h-.994V-5.812h.967l.016.671a1.547,1.547,0,0,1,1.386-.779,1.015,1.015,0,0,1,.44.075Zm1.853-.892.032.73a2.118,2.118,0,0,1,1.74-.838q1.842,0,1.858,2.079V0h-.994V-3.846a1.338,1.338,0,0,0-.287-.929,1.152,1.152,0,0,0-.878-.3,1.434,1.434,0,0,0-.849.258,1.751,1.751,0,0,0-.569.677V0h-.994V-5.812ZM1.3,0a2.087,2.087,0,0,1-.14-.612A2.217,2.217,0,0,1-.491.107,2.051,2.051,0,0,1-1.9-.379a1.573,1.573,0,0,1-.551-1.233,1.643,1.643,0,0,1,.69-1.41,3.254,3.254,0,0,1,1.942-.5h.967V-3.98a1.116,1.116,0,0,0-.312-.83,1.252,1.252,0,0,0-.918-.309,1.449,1.449,0,0,0-.892.269.791.791,0,0,0-.36.65h-1a1.371,1.371,0,0,1,.309-.841,2.108,2.108,0,0,1,.838-.642A2.819,2.819,0,0,1-.024-5.919a2.3,2.3,0,0,1,1.574.5A1.812,1.812,0,0,1,2.14-4.034v2.675a3.27,3.27,0,0,0,.2,1.273V0ZM-.346-.757A1.746,1.746,0,0,0,.54-1a1.462,1.462,0,0,0,.607-.628V-2.82H.368q-1.826,0-1.826,1.069a.9.9,0,0,0,.312.73A1.2,1.2,0,0,0-.346-.757ZM.572-8.25h1.2L.336-6.671l-.8,0ZM4.638-5.812l.032.73a2.118,2.118,0,0,1,1.74-.838q1.842,0,1.858,2.079V0H7.275V-3.846a1.338,1.338,0,0,0-.287-.929,1.152,1.152,0,0,0-.878-.3,1.434,1.434,0,0,0-.849.258,1.751,1.751,0,0,0-.569.677V0H3.7V-5.812ZM9.526-2.954a3.4,3.4,0,0,1,.634-2.151,2,2,0,0,1,1.66-.814,2.016,2.016,0,0,1,1.617.7V-8.25h.994V0h-.913l-.048-.623a2.024,2.024,0,0,1-1.66.73A1.985,1.985,0,0,1,10.162-.72a3.443,3.443,0,0,1-.636-2.159Zm.994.113a2.578,2.578,0,0,0,.408,1.547,1.32,1.32,0,0,0,1.128.559,1.45,1.45,0,0,0,1.38-.849V-4.254a1.461,1.461,0,0,0-1.37-.822,1.326,1.326,0,0,0-1.139.564A2.838,2.838,0,0,0,10.519-2.841ZM18.383.107A2.539,2.539,0,0,1,16.46-.669a2.881,2.881,0,0,1-.741-2.076v-.183a3.487,3.487,0,0,1,.33-1.544,2.577,2.577,0,0,1,.924-1.063,2.323,2.323,0,0,1,1.286-.384,2.177,2.177,0,0,1,1.762.747,3.232,3.232,0,0,1,.628,2.138v.414H16.712a2.066,2.066,0,0,0,.5,1.388A1.579,1.579,0,0,0,18.436-.7a1.731,1.731,0,0,0,.892-.215,2.24,2.24,0,0,0,.639-.569l.607.473A2.44,2.44,0,0,1,18.383.107ZM18.259-5.1a1.325,1.325,0,0,0-1.01.438,2.128,2.128,0,0,0-.5,1.227h2.911v-.075a1.893,1.893,0,0,0-.408-1.174A1.248,1.248,0,0,0,18.259-5.1ZM22.733-.811h3.4V0H21.519V-.73L24.726-4.99H21.568v-.822h4.4v.7Z" transform="translate(1156.667 2502)" fill="#12263f"/>
    <path id="Trazado_197299" data-name="Trazado 197299" d="M-2.815-2.707a3.139,3.139,0,0,1-1,2.089A3.274,3.274,0,0,1-6.05.117,3.006,3.006,0,0,1-8.473-.967a4.361,4.361,0,0,1-.911-2.9v-.82a4.861,4.861,0,0,1,.425-2.092,3.173,3.173,0,0,1,1.2-1.386,3.353,3.353,0,0,1,1.8-.483,3.083,3.083,0,0,1,2.18.759,3.176,3.176,0,0,1,.955,2.1H-3.946A2.451,2.451,0,0,0-4.582-7.27,1.924,1.924,0,0,0-5.95-7.729a2.013,2.013,0,0,0-1.69.8,3.661,3.661,0,0,0-.612,2.269v.827a3.764,3.764,0,0,0,.58,2.211A1.874,1.874,0,0,0-6.05-.8a2.165,2.165,0,0,0,1.438-.425,2.357,2.357,0,0,0,.665-1.479ZM2.464,0a2.277,2.277,0,0,1-.152-.668,2.419,2.419,0,0,1-1.8.785,2.238,2.238,0,0,1-1.538-.53,1.716,1.716,0,0,1-.6-1.345A1.792,1.792,0,0,1-.879-3.3a3.55,3.55,0,0,1,2.118-.548H2.294v-.5a1.217,1.217,0,0,0-.34-.905,1.366,1.366,0,0,0-1-.337,1.581,1.581,0,0,0-.973.293.863.863,0,0,0-.393.709H-1.5A1.5,1.5,0,0,1-1.166-5.5a2.3,2.3,0,0,1,.914-.7,3.075,3.075,0,0,1,1.269-.258,2.506,2.506,0,0,1,1.717.548A1.976,1.976,0,0,1,3.378-4.4v2.918A3.567,3.567,0,0,0,3.6-.094V0ZM.665-.826a1.905,1.905,0,0,0,.967-.264,1.6,1.6,0,0,0,.662-.686v-1.3h-.85q-1.992,0-1.992,1.166a.987.987,0,0,0,.34.8A1.306,1.306,0,0,0,.665-.826ZM6.255,0H5.171V-9H6.255ZM9.167,0H8.083V-6.34H9.167ZM8-8.021a.647.647,0,0,1,.161-.445.6.6,0,0,1,.478-.182.614.614,0,0,1,.48.182.64.64,0,0,1,.164.445.619.619,0,0,1-.164.439.626.626,0,0,1-.48.176.616.616,0,0,1-.478-.176A.626.626,0,0,1,8-8.021Z" transform="translate(1271.667 2467)" fill="#12263f"/>
    <path id="Trazado_197300" data-name="Trazado 197300" d="M-15.3-3.062V0h-1.031V-7.82h2.884a2.9,2.9,0,0,1,2.011.655,2.222,2.222,0,0,1,.728,1.735,2.192,2.192,0,0,1-.712,1.754,3.027,3.027,0,0,1-2.038.615Zm0-.843h1.853a1.853,1.853,0,0,0,1.268-.39,1.426,1.426,0,0,0,.44-1.127,1.474,1.474,0,0,0-.44-1.119,1.736,1.736,0,0,0-1.208-.436H-15.3ZM-7.135.107A2.539,2.539,0,0,1-9.058-.669,2.881,2.881,0,0,1-9.8-2.745v-.183a3.487,3.487,0,0,1,.33-1.544,2.577,2.577,0,0,1,.924-1.063,2.323,2.323,0,0,1,1.286-.384A2.177,2.177,0,0,1-5.5-5.172a3.232,3.232,0,0,1,.628,2.138v.414H-8.806a2.066,2.066,0,0,0,.5,1.388A1.579,1.579,0,0,0-7.082-.7,1.731,1.731,0,0,0-6.19-.918a2.24,2.24,0,0,0,.639-.569l.607.473A2.44,2.44,0,0,1-7.135.107ZM-7.259-5.1a1.325,1.325,0,0,0-1.01.438,2.128,2.128,0,0,0-.5,1.227h2.911v-.075a1.893,1.893,0,0,0-.408-1.174A1.248,1.248,0,0,0-7.259-5.1ZM-.91-4.92A2.978,2.978,0,0,0-1.4-4.958a1.309,1.309,0,0,0-1.327.833V0h-.994V-5.812h.967l.016.671a1.547,1.547,0,0,1,1.386-.779,1.015,1.015,0,0,1,.44.075ZM2.414.107A2.539,2.539,0,0,1,.491-.669,2.881,2.881,0,0,1-.25-2.745v-.183a3.487,3.487,0,0,1,.33-1.544A2.577,2.577,0,0,1,1-5.535a2.323,2.323,0,0,1,1.286-.384,2.177,2.177,0,0,1,1.762.747,3.232,3.232,0,0,1,.628,2.138v.414H.744a2.066,2.066,0,0,0,.5,1.388A1.579,1.579,0,0,0,2.468-.7,1.731,1.731,0,0,0,3.36-.918,2.24,2.24,0,0,0,4-1.488l.607.473A2.44,2.44,0,0,1,2.414.107ZM2.291-5.1a1.325,1.325,0,0,0-1.01.438,2.128,2.128,0,0,0-.5,1.227H3.687v-.075a1.893,1.893,0,0,0-.408-1.174A1.248,1.248,0,0,0,2.291-5.1ZM6.91,0H5.916V-5.812H6.91ZM5.836-7.353a.593.593,0,0,1,.148-.408.555.555,0,0,1,.438-.167.563.563,0,0,1,.44.167.587.587,0,0,1,.15.408.568.568,0,0,1-.15.4.573.573,0,0,1-.44.161.565.565,0,0,1-.438-.161A.573.573,0,0,1,5.836-7.353ZM11.309-4.92a2.978,2.978,0,0,0-.489-.038,1.309,1.309,0,0,0-1.327.833V0H8.5V-5.812h.967l.016.671a1.547,1.547,0,0,1,1.386-.779,1.015,1.015,0,0,1,.44.075ZM15.595,0a2.087,2.087,0,0,1-.14-.612A2.217,2.217,0,0,1,13.8.107a2.051,2.051,0,0,1-1.41-.486,1.573,1.573,0,0,1-.551-1.233,1.643,1.643,0,0,1,.69-1.41,3.254,3.254,0,0,1,1.942-.5h.967V-3.98a1.116,1.116,0,0,0-.312-.83,1.252,1.252,0,0,0-.918-.309,1.449,1.449,0,0,0-.892.269.791.791,0,0,0-.36.65h-1a1.371,1.371,0,0,1,.309-.841,2.108,2.108,0,0,1,.838-.642,2.819,2.819,0,0,1,1.163-.236,2.3,2.3,0,0,1,1.574.5,1.812,1.812,0,0,1,.591,1.383v2.675a3.27,3.27,0,0,0,.2,1.273V0ZM13.946-.757A1.746,1.746,0,0,0,14.832-1a1.462,1.462,0,0,0,.607-.628V-2.82H14.66q-1.826,0-1.826,1.069a.9.9,0,0,0,.312.73A1.2,1.2,0,0,0,13.946-.757Z" transform="translate(1271.667 2502)" fill="#12263f"/>
    <path id="Trazado_197301" data-name="Trazado 197301" d="M-12.74,0h-1.875l-2.771-4.866V0h-1.885V-7.82h1.885l2.766,4.866V-7.82h1.88Zm.881-2.959a3.43,3.43,0,0,1,.338-1.55,2.42,2.42,0,0,1,.972-1.045,2.928,2.928,0,0,1,1.488-.365A2.672,2.672,0,0,1-7-5.111a3.1,3.1,0,0,1,.752,2.2v.064A3.01,3.01,0,0,1-7.007-.69a2.679,2.679,0,0,1-2.044.8,2.71,2.71,0,0,1-1.993-.744,2.91,2.91,0,0,1-.811-2.017Zm1.81.113A2.162,2.162,0,0,0-9.8-1.665a.841.841,0,0,0,.747.376q.967,0,.988-1.488v-.183q0-1.563-1-1.563-.908,0-.983,1.348Zm6.306-2.965.059.682a2,2,0,0,1,1.66-.79,1.471,1.471,0,0,1,1.488.875,1.934,1.934,0,0,1,1.708-.875q1.767,0,1.815,2.138V0H1.171V-3.668a1.108,1.108,0,0,0-.15-.65.64.64,0,0,0-.548-.2.858.858,0,0,0-.8.478l.005.075V0H-2.138V-3.658a1.164,1.164,0,0,0-.145-.661.638.638,0,0,0-.553-.2.868.868,0,0,0-.795.478V0h-1.81V-5.812ZM9.416-2.857a3.542,3.542,0,0,1-.591,2.2A1.979,1.979,0,0,1,7.16.107,1.717,1.717,0,0,1,5.731-.6L5.656,0H4.034V-8.25h1.81v2.906a1.657,1.657,0,0,1,1.305-.575,1.98,1.98,0,0,1,1.676.779,3.56,3.56,0,0,1,.591,2.191ZM7.6-2.973a2.363,2.363,0,0,0-.223-1.193.751.751,0,0,0-.685-.357.867.867,0,0,0-.849.467V-1.75a.872.872,0,0,0,.859.461.769.769,0,0,0,.811-.622A4.467,4.467,0,0,0,7.6-2.973Zm6.128-1.2-.6-.043a1.071,1.071,0,0,0-1.1.537V0h-1.81V-5.812h1.7l.059.747a1.4,1.4,0,0,1,1.273-.854,1.765,1.765,0,0,1,.5.064ZM17.193.107a2.987,2.987,0,0,1-2.165-.8A2.754,2.754,0,0,1,14.2-2.766v-.15a3.569,3.569,0,0,1,.33-1.574A2.417,2.417,0,0,1,15.5-5.546,2.911,2.911,0,0,1,17-5.919a2.516,2.516,0,0,1,1.934.76,2.987,2.987,0,0,1,.709,2.119v.7h-3.6a1.3,1.3,0,0,0,.424.768,1.263,1.263,0,0,0,.849.279,1.627,1.627,0,0,0,1.343-.6l.827.978a2.312,2.312,0,0,1-.959.744A3.24,3.24,0,0,1,17.193.107Zm-.2-4.63q-.795,0-.945,1.053H17.87v-.14a.9.9,0,0,0-.22-.674A.876.876,0,0,0,16.989-4.522Z" transform="translate(1054.667 2436)" fill="#12263f"/>
    <path id="Trazado_197302" data-name="Trazado 197302" d="M-15.522-1.461h-2.583L-18.557,0h-2.014L-17.7-7.82h1.772L-13.041,0h-2.025Zm-2.132-1.456h1.681l-.843-2.712Zm10.5.054A3.5,3.5,0,0,1-7.769-.7,1.955,1.955,0,0,1-9.416.107a1.675,1.675,0,0,1-1.316-.585V2.234h-1.81V-5.812h1.692l.054.537a1.676,1.676,0,0,1,1.37-.645,1.97,1.97,0,0,1,1.67.792,3.548,3.548,0,0,1,.6,2.178Zm-1.81-.113q0-1.547-.9-1.547a.852.852,0,0,0-.859.462v2.288a.88.88,0,0,0,.87.483q.865,0,.892-1.493ZM-3.55.107a2.987,2.987,0,0,1-2.165-.8,2.754,2.754,0,0,1-.827-2.076v-.15a3.569,3.569,0,0,1,.33-1.574,2.417,2.417,0,0,1,.964-1.055,2.911,2.911,0,0,1,1.5-.373,2.516,2.516,0,0,1,1.934.76A2.987,2.987,0,0,1-1.1-3.04v.7H-4.7a1.3,1.3,0,0,0,.424.768,1.263,1.263,0,0,0,.849.279,1.627,1.627,0,0,0,1.343-.6l.827.978a2.312,2.312,0,0,1-.959.744A3.24,3.24,0,0,1-3.55.107Zm-.2-4.63q-.795,0-.945,1.053h1.826v-.14a.9.9,0,0,0-.22-.674A.876.876,0,0,0-3.754-4.522ZM1.536,0H-.279V-8.25H1.536ZM4.56,0H2.745V-8.25H4.56ZM7.584,0H5.769V-5.812H7.584ZM5.661-7.31a.808.808,0,0,1,.279-.634,1.054,1.054,0,0,1,.725-.247,1.054,1.054,0,0,1,.725.247.808.808,0,0,1,.279.634.808.808,0,0,1-.279.634,1.054,1.054,0,0,1-.725.247,1.054,1.054,0,0,1-.725-.247A.808.808,0,0,1,5.661-7.31ZM8.47-2.949a3.55,3.55,0,0,1,.6-2.175,1.962,1.962,0,0,1,1.665-.795,1.669,1.669,0,0,1,1.311.612V-8.25h1.815V0H12.23l-.091-.623a1.714,1.714,0,0,1-1.418.73A1.959,1.959,0,0,1,9.077-.687,3.663,3.663,0,0,1,8.47-2.949Zm1.81.113q0,1.547.9,1.547a.891.891,0,0,0,.859-.5V-4.007a.867.867,0,0,0-.849-.516q-.838,0-.908,1.354Zm4.377-.124A3.43,3.43,0,0,1,15-4.509a2.42,2.42,0,0,1,.972-1.045,2.928,2.928,0,0,1,1.488-.365,2.672,2.672,0,0,1,2.057.808,3.1,3.1,0,0,1,.752,2.2v.064A3.01,3.01,0,0,1,19.51-.69a2.679,2.679,0,0,1-2.044.8,2.71,2.71,0,0,1-1.993-.744,2.91,2.91,0,0,1-.811-2.017Zm1.81.113a2.162,2.162,0,0,0,.252,1.182.841.841,0,0,0,.747.376q.967,0,.988-1.488v-.183q0-1.563-1-1.563-.908,0-.983,1.348Z" transform="translate(1156.667 2436)" fill="#12263f"/>
    <path id="Trazado_197303" data-name="Trazado 197303" d="M-10.412-2.648a2.856,2.856,0,0,1-.44,1.442,2.658,2.658,0,0,1-1.131.969,3.848,3.848,0,0,1-1.662.344,3.071,3.071,0,0,1-2.428-1,4.147,4.147,0,0,1-.886-2.836V-4.12a4.734,4.734,0,0,1,.4-2.011,3.032,3.032,0,0,1,1.152-1.332,3.214,3.214,0,0,1,1.74-.47,3.371,3.371,0,0,1,2.288.749A2.96,2.96,0,0,1-10.4-5.119h-1.88a1.4,1.4,0,0,0-.36-1.026,1.48,1.48,0,0,0-1.031-.312A1.126,1.126,0,0,0-14.7-5.93a3.383,3.383,0,0,0-.344,1.681V-3.7a3.743,3.743,0,0,0,.314,1.789,1.15,1.15,0,0,0,1.082.537,1.448,1.448,0,0,0,.994-.306,1.3,1.3,0,0,0,.365-.972ZM-7.694,0H-9.51V-5.812h1.815ZM-9.617-7.31a.808.808,0,0,1,.279-.634,1.054,1.054,0,0,1,.725-.247,1.054,1.054,0,0,1,.725.247.808.808,0,0,1,.279.634.808.808,0,0,1-.279.634,1.054,1.054,0,0,1-.725.247,1.054,1.054,0,0,1-.725-.247A.808.808,0,0,1-9.617-7.31Zm6.5,6.682A1.866,1.866,0,0,1-4.67.107,1.83,1.83,0,0,1-6.118-.448a2.338,2.338,0,0,1-.491-1.6V-5.812H-4.8v3.776a.651.651,0,0,0,.725.747.946.946,0,0,0,.886-.446V-5.812h1.821V0h-1.7ZM-.6-2.949a3.55,3.55,0,0,1,.6-2.175,1.962,1.962,0,0,1,1.665-.795,1.669,1.669,0,0,1,1.311.612V-8.25H4.783V0H3.156L3.064-.623a1.714,1.714,0,0,1-1.418.73A1.959,1.959,0,0,1,0-.687,3.663,3.663,0,0,1-.6-2.949Zm1.81.113q0,1.547.9,1.547a.891.891,0,0,0,.859-.5V-4.007a.867.867,0,0,0-.849-.516q-.838,0-.908,1.354ZM9.085,0a2.044,2.044,0,0,1-.172-.521,1.683,1.683,0,0,1-1.4.628,2.062,2.062,0,0,1-1.4-.5,1.581,1.581,0,0,1-.575-1.249,1.625,1.625,0,0,1,.7-1.429,3.557,3.557,0,0,1,2.03-.483h.559v-.308q0-.8-.693-.8a.566.566,0,0,0-.645.637H5.685A1.623,1.623,0,0,1,6.4-5.393a3.013,3.013,0,0,1,1.829-.526,2.642,2.642,0,0,1,1.756.542,1.886,1.886,0,0,1,.661,1.488v2.573A2.635,2.635,0,0,0,10.9-.091V0ZM7.952-1.182a1.01,1.01,0,0,0,.561-.145.909.909,0,0,0,.32-.328v-.929H8.306q-.945,0-.945.849a.518.518,0,0,0,.167.4A.6.6,0,0,0,7.952-1.182Zm3.47-1.767a3.55,3.55,0,0,1,.6-2.175,1.962,1.962,0,0,1,1.665-.795,1.669,1.669,0,0,1,1.311.612V-8.25h1.815V0H15.181L15.09-.623a1.714,1.714,0,0,1-1.418.73,1.959,1.959,0,0,1-1.644-.795A3.663,3.663,0,0,1,11.422-2.949Zm1.81.113q0,1.547.9,1.547a.891.891,0,0,0,.859-.5V-4.007a.867.867,0,0,0-.849-.516q-.838,0-.908,1.354Z" transform="translate(1271.667 2436)" fill="#12263f"/>
    <path id="Trazado_197304" data-name="Trazado 197304" d="M0,0H317.473V36.956H0Z" transform="translate(896.334 2639.769)" fill="#f6f6f6"/>
    <path id="Trazado_197305" data-name="Trazado 197305" d="M0,0H317.473V36.956H0Z" transform="translate(896.334 2676.047)" fill="#fff"/>
    <path id="Trazado_197306" data-name="Trazado 197306" d="M0,0V78.186" transform="translate(1003.043 2634.765)" fill="none" stroke="#afafaf" stroke-linecap="round" stroke-width="1"/>
    <path id="Trazado_197307" data-name="Trazado 197307" d="M0,0V78.186" transform="translate(1102.471 2634.765)" fill="none" stroke="#afafaf" stroke-linecap="round" stroke-width="1"/>
    <path id="Trazado_115567-2" data-name="Trazado 115567" d="M0,0H317.473V23.9H0Z" transform="translate(896.334 2616)" fill="#4dd0e1"/>
    <path id="Trazado_197308" data-name="Trazado 197308" d="M-28.069,0h-1.88V-7.82h1.88Zm1.311,0V-7.82h2.519a3.706,3.706,0,0,1,1.864.47,3.3,3.3,0,0,1,1.292,1.327,4.005,4.005,0,0,1,.47,1.92v.36a4.029,4.029,0,0,1-.454,1.926A3.318,3.318,0,0,1-22.346-.486,3.624,3.624,0,0,1-24.186,0Zm1.885-6.365V-1.45h.655a1.467,1.467,0,0,0,1.246-.577,2.829,2.829,0,0,0,.435-1.716v-.338a2.806,2.806,0,0,0-.435-1.708,1.492,1.492,0,0,0-1.268-.575Zm11,4.238,1.558-5.693h2.105L-12.842,0H-14.9l-2.61-7.82h2.089ZM-6.913.107a2.987,2.987,0,0,1-2.165-.8A2.754,2.754,0,0,1-9.9-2.766v-.15a3.569,3.569,0,0,1,.33-1.574A2.417,2.417,0,0,1-8.61-5.546a2.911,2.911,0,0,1,1.5-.373,2.516,2.516,0,0,1,1.934.76A2.987,2.987,0,0,1-4.463-3.04v.7h-3.6a1.3,1.3,0,0,0,.424.768,1.263,1.263,0,0,0,.849.279,1.627,1.627,0,0,0,1.343-.6l.827.978a2.312,2.312,0,0,1-.959.744A3.24,3.24,0,0,1-6.913.107Zm-.2-4.63q-.795,0-.945,1.053h1.826v-.14a.9.9,0,0,0-.22-.674A.876.876,0,0,0-7.117-4.522Zm5.043-1.289.059.682a1.971,1.971,0,0,1,1.66-.79A1.658,1.658,0,0,1,1-5.376a2.583,2.583,0,0,1,.465,1.633V0H-.349V-3.668a.981.981,0,0,0-.177-.647.82.82,0,0,0-.645-.207.863.863,0,0,0-.79.419V0h-1.81V-5.812ZM2.24-2.949a3.55,3.55,0,0,1,.6-2.175A1.962,1.962,0,0,1,4.5-5.919a1.669,1.669,0,0,1,1.311.612V-8.25H7.627V0H6L5.908-.623A1.714,1.714,0,0,1,4.49.107,1.959,1.959,0,0,1,2.847-.687,3.663,3.663,0,0,1,2.24-2.949Zm1.81.113q0,1.547.9,1.547a.891.891,0,0,0,.859-.5V-4.007a.867.867,0,0,0-.849-.516q-.838,0-.908,1.354ZM11.467.107A2.987,2.987,0,0,1,9.3-.69a2.754,2.754,0,0,1-.827-2.076v-.15a3.569,3.569,0,0,1,.33-1.574A2.417,2.417,0,0,1,9.77-5.546a2.911,2.911,0,0,1,1.5-.373,2.516,2.516,0,0,1,1.934.76,2.987,2.987,0,0,1,.709,2.119v.7h-3.6a1.3,1.3,0,0,0,.424.768,1.263,1.263,0,0,0,.849.279,1.627,1.627,0,0,0,1.343-.6l.827.978a2.312,2.312,0,0,1-.959.744A3.24,3.24,0,0,1,11.467.107Zm-.2-4.63q-.795,0-.945,1.053h1.826v-.14a.9.9,0,0,0-.22-.674A.876.876,0,0,0,11.263-4.522Zm3.153,1.574a3.55,3.55,0,0,1,.6-2.175,1.962,1.962,0,0,1,1.665-.795,1.669,1.669,0,0,1,1.311.612V-8.25H19.8V0H18.176l-.091-.623a1.714,1.714,0,0,1-1.418.73,1.959,1.959,0,0,1-1.644-.795A3.663,3.663,0,0,1,14.416-2.949Zm1.81.113q0,1.547.9,1.547a.891.891,0,0,0,.859-.5V-4.007a.867.867,0,0,0-.849-.516q-.838,0-.908,1.354ZM20.6-2.959a3.43,3.43,0,0,1,.338-1.55,2.42,2.42,0,0,1,.972-1.045A2.928,2.928,0,0,1,23.4-5.919a2.672,2.672,0,0,1,2.057.808,3.1,3.1,0,0,1,.752,2.2v.064A3.01,3.01,0,0,1,25.456-.69a2.679,2.679,0,0,1-2.044.8A2.71,2.71,0,0,1,21.42-.636a2.91,2.91,0,0,1-.811-2.017Zm1.81.113a2.162,2.162,0,0,0,.252,1.182.841.841,0,0,0,.747.376q.967,0,.988-1.488v-.183q0-1.563-1-1.563-.908,0-.983,1.348Zm8.11-1.327-.6-.043a1.071,1.071,0,0,0-1.1.537V0h-1.81V-5.812h1.7l.059.747a1.4,1.4,0,0,1,1.273-.854,1.765,1.765,0,0,1,.5.064Z" transform="translate(948.667 2631)" fill="#12263f"/>
    <path id="Trazado_197309" data-name="Trazado 197309" d="M-17.424-3.921l.4-3.9h4.007V-6.9h-3.164l-.236,2.132a2.524,2.524,0,0,1,1.305-.338,2.158,2.158,0,0,1,1.7.706,2.768,2.768,0,0,1,.628,1.909,2.672,2.672,0,0,1-.653,1.9,2.379,2.379,0,0,1-1.823.7,2.472,2.472,0,0,1-1.692-.575,2.294,2.294,0,0,1-.747-1.59h.94a1.578,1.578,0,0,0,.478,1.012A1.486,1.486,0,0,0-15.265-.7a1.341,1.341,0,0,0,1.088-.473,1.976,1.976,0,0,0,.395-1.305,1.814,1.814,0,0,0-.427-1.26,1.452,1.452,0,0,0-1.136-.475,1.638,1.638,0,0,0-1.021.285l-.263.215ZM-6.655-7.262-9.894,0h-1.042l3.228-7H-11.94V-7.82h5.285Zm6.177,0L-3.717,0H-4.759l3.228-7H-5.763V-7.82H-.478ZM5.393-5.779a1.816,1.816,0,0,1-.309,1.042,2.1,2.1,0,0,1-.835.714,2.241,2.241,0,0,1,.969.768,1.933,1.933,0,0,1,.357,1.144A2.044,2.044,0,0,1,4.89-.494a2.631,2.631,0,0,1-1.8.6A2.619,2.619,0,0,1,1.281-.5,2.053,2.053,0,0,1,.6-2.111,1.991,1.991,0,0,1,.948-3.255a2.156,2.156,0,0,1,.959-.773,2.05,2.05,0,0,1-.822-.714,1.842,1.842,0,0,1-.3-1.037,2.021,2.021,0,0,1,.634-1.568,2.378,2.378,0,0,1,1.67-.58,2.38,2.38,0,0,1,1.668.58A2.017,2.017,0,0,1,5.393-5.779ZM4.582-2.132A1.441,1.441,0,0,0,4.165-3.2a1.476,1.476,0,0,0-1.088-.414A1.45,1.45,0,0,0,2-3.207,1.458,1.458,0,0,0,1.6-2.132,1.388,1.388,0,0,0,1.99-1.085a1.515,1.515,0,0,0,1.1.381,1.511,1.511,0,0,0,1.1-.384A1.385,1.385,0,0,0,4.582-2.132ZM3.088-7.111a1.282,1.282,0,0,0-.948.363,1.332,1.332,0,0,0-.363.986,1.325,1.325,0,0,0,.357.964,1.268,1.268,0,0,0,.953.368A1.268,1.268,0,0,0,4.042-4.8,1.325,1.325,0,0,0,4.4-5.763a1.326,1.326,0,0,0-.371-.972A1.264,1.264,0,0,0,3.088-7.111Zm4.195,3.19.4-3.9h4.007V-6.9H8.524L8.288-4.77a2.524,2.524,0,0,1,1.305-.338,2.158,2.158,0,0,1,1.7.706,2.768,2.768,0,0,1,.628,1.909,2.672,2.672,0,0,1-.653,1.9,2.379,2.379,0,0,1-1.823.7A2.472,2.472,0,0,1,7.75-.467,2.294,2.294,0,0,1,7-2.057h.94a1.578,1.578,0,0,0,.478,1.012A1.486,1.486,0,0,0,9.442-.7a1.341,1.341,0,0,0,1.088-.473,1.976,1.976,0,0,0,.395-1.305,1.814,1.814,0,0,0-.427-1.26,1.452,1.452,0,0,0-1.136-.475,1.638,1.638,0,0,0-1.021.285l-.263.215Zm9.62-3.9v.843H16.72a2.616,2.616,0,0,0-1.848.688,2.861,2.861,0,0,0-.795,1.875,2.121,2.121,0,0,1,1.687-.709,2.028,2.028,0,0,1,1.63.72A2.776,2.776,0,0,1,18-2.551a2.767,2.767,0,0,1-.658,1.934,2.266,2.266,0,0,1-1.764.725,2.232,2.232,0,0,1-1.821-.862,3.417,3.417,0,0,1-.7-2.221v-.381a5.148,5.148,0,0,1,.921-3.3,3.383,3.383,0,0,1,2.742-1.168ZM15.6-4.3a1.585,1.585,0,0,0-.94.306,1.6,1.6,0,0,0-.6.768v.365A2.565,2.565,0,0,0,14.5-1.305a1.3,1.3,0,0,0,1.085.591,1.263,1.263,0,0,0,1.055-.494A2.05,2.05,0,0,0,17.021-2.5a2.051,2.051,0,0,0-.389-1.3A1.248,1.248,0,0,0,15.6-4.3Z" transform="translate(949.667 2697)" fill="#12263f"/>
    <path id="Trazado_197310" data-name="Trazado 197310" d="M-17.424-3.921l.4-3.9h4.007V-6.9h-3.164l-.236,2.132a2.524,2.524,0,0,1,1.305-.338,2.158,2.158,0,0,1,1.7.706,2.768,2.768,0,0,1,.628,1.909,2.672,2.672,0,0,1-.653,1.9,2.379,2.379,0,0,1-1.823.7,2.472,2.472,0,0,1-1.692-.575,2.294,2.294,0,0,1-.747-1.59h.94a1.578,1.578,0,0,0,.478,1.012A1.486,1.486,0,0,0-15.265-.7a1.341,1.341,0,0,0,1.088-.473,1.976,1.976,0,0,0,.395-1.305,1.814,1.814,0,0,0-.427-1.26,1.452,1.452,0,0,0-1.136-.475,1.638,1.638,0,0,0-1.021.285l-.263.215ZM-6.655-7.262-9.894,0h-1.042l3.228-7H-11.94V-7.82h5.285Zm6.177,0L-3.717,0H-4.759l3.228-7H-5.763V-7.82H-.478ZM5.393-5.779a1.816,1.816,0,0,1-.309,1.042,2.1,2.1,0,0,1-.835.714,2.241,2.241,0,0,1,.969.768,1.933,1.933,0,0,1,.357,1.144A2.044,2.044,0,0,1,4.89-.494a2.631,2.631,0,0,1-1.8.6A2.619,2.619,0,0,1,1.281-.5,2.053,2.053,0,0,1,.6-2.111,1.991,1.991,0,0,1,.948-3.255a2.156,2.156,0,0,1,.959-.773,2.05,2.05,0,0,1-.822-.714,1.842,1.842,0,0,1-.3-1.037,2.021,2.021,0,0,1,.634-1.568,2.378,2.378,0,0,1,1.67-.58,2.38,2.38,0,0,1,1.668.58A2.017,2.017,0,0,1,5.393-5.779ZM4.582-2.132A1.441,1.441,0,0,0,4.165-3.2a1.476,1.476,0,0,0-1.088-.414A1.45,1.45,0,0,0,2-3.207,1.458,1.458,0,0,0,1.6-2.132,1.388,1.388,0,0,0,1.99-1.085a1.515,1.515,0,0,0,1.1.381,1.511,1.511,0,0,0,1.1-.384A1.385,1.385,0,0,0,4.582-2.132ZM3.088-7.111a1.282,1.282,0,0,0-.948.363,1.332,1.332,0,0,0-.363.986,1.325,1.325,0,0,0,.357.964,1.268,1.268,0,0,0,.953.368A1.268,1.268,0,0,0,4.042-4.8,1.325,1.325,0,0,0,4.4-5.763a1.326,1.326,0,0,0-.371-.972A1.264,1.264,0,0,0,3.088-7.111Zm4.195,3.19.4-3.9h4.007V-6.9H8.524L8.288-4.77a2.524,2.524,0,0,1,1.305-.338,2.158,2.158,0,0,1,1.7.706,2.768,2.768,0,0,1,.628,1.909,2.672,2.672,0,0,1-.653,1.9,2.379,2.379,0,0,1-1.823.7A2.472,2.472,0,0,1,7.75-.467,2.294,2.294,0,0,1,7-2.057h.94a1.578,1.578,0,0,0,.478,1.012A1.486,1.486,0,0,0,9.442-.7a1.341,1.341,0,0,0,1.088-.473,1.976,1.976,0,0,0,.395-1.305,1.814,1.814,0,0,0-.427-1.26,1.452,1.452,0,0,0-1.136-.475,1.638,1.638,0,0,0-1.021.285l-.263.215Zm9.62-3.9v.843H16.72a2.616,2.616,0,0,0-1.848.688,2.861,2.861,0,0,0-.795,1.875,2.121,2.121,0,0,1,1.687-.709,2.028,2.028,0,0,1,1.63.72A2.776,2.776,0,0,1,18-2.551a2.767,2.767,0,0,1-.658,1.934,2.266,2.266,0,0,1-1.764.725,2.232,2.232,0,0,1-1.821-.862,3.417,3.417,0,0,1-.7-2.221v-.381a5.148,5.148,0,0,1,.921-3.3,3.383,3.383,0,0,1,2.742-1.168ZM15.6-4.3a1.585,1.585,0,0,0-.94.306,1.6,1.6,0,0,0-.6.768v.365A2.565,2.565,0,0,0,14.5-1.305a1.3,1.3,0,0,0,1.085.591,1.263,1.263,0,0,0,1.055-.494A2.05,2.05,0,0,0,17.021-2.5a2.051,2.051,0,0,0-.389-1.3A1.248,1.248,0,0,0,15.6-4.3Z" transform="translate(949.667 2661)" fill="#12263f"/>
    <path id="Trazado_197311" data-name="Trazado 197311" d="M-3.711-3.335a4.545,4.545,0,0,1-.6,2.594A2.12,2.12,0,0,1-6.171.107a2.136,2.136,0,0,1-1.853-.83A4.313,4.313,0,0,1-8.647-3.2V-4.528a4.443,4.443,0,0,1,.6-2.562,2.137,2.137,0,0,1,1.869-.838,2.156,2.156,0,0,1,1.858.808,4.288,4.288,0,0,1,.612,2.495Zm-.994-1.359a3.641,3.641,0,0,0-.354-1.84,1.22,1.22,0,0,0-1.123-.577,1.2,1.2,0,0,0-1.112.575,3.555,3.555,0,0,0-.36,1.767v1.59a3.7,3.7,0,0,0,.368,1.872,1.218,1.218,0,0,0,1.115.6,1.2,1.2,0,0,0,1.093-.569,3.566,3.566,0,0,0,.373-1.794Zm7.17,1.359a4.545,4.545,0,0,1-.6,2.594A2.12,2.12,0,0,1,.005.107a2.136,2.136,0,0,1-1.853-.83A4.313,4.313,0,0,1-2.471-3.2V-4.528a4.443,4.443,0,0,1,.6-2.562A2.137,2.137,0,0,1-.005-7.928a2.156,2.156,0,0,1,1.858.808,4.288,4.288,0,0,1,.612,2.495ZM1.472-4.694a3.641,3.641,0,0,0-.354-1.84A1.22,1.22,0,0,0-.005-7.111a1.2,1.2,0,0,0-1.112.575,3.555,3.555,0,0,0-.36,1.767v1.59a3.7,3.7,0,0,0,.368,1.872A1.218,1.218,0,0,0,.005-.7,1.2,1.2,0,0,0,1.1-1.273a3.566,3.566,0,0,0,.373-1.794ZM7,0H6V-6.623L4-5.887v-.9L6.848-7.858H7Z" transform="translate(1053.667 2661)" fill="#12263f"/>
    <path id="Trazado_197312" data-name="Trazado 197312" d="M-4.049-3.639A4.958,4.958,0,0,1-4.7-.809,2.313,2.313,0,0,1-6.732.117,2.33,2.33,0,0,1-8.754-.788a4.706,4.706,0,0,1-.68-2.7V-4.939a4.847,4.847,0,0,1,.65-2.795,2.331,2.331,0,0,1,2.039-.914,2.352,2.352,0,0,1,2.027.882,4.678,4.678,0,0,1,.668,2.722ZM-5.133-5.121A3.972,3.972,0,0,0-5.52-7.128a1.331,1.331,0,0,0-1.225-.63,1.314,1.314,0,0,0-1.213.627A3.878,3.878,0,0,0-8.35-5.2v1.734a4.036,4.036,0,0,0,.4,2.042,1.329,1.329,0,0,0,1.216.659A1.31,1.31,0,0,0-5.54-1.389a3.89,3.89,0,0,0,.407-1.957ZM2.689-3.639a4.958,4.958,0,0,1-.65,2.83A2.313,2.313,0,0,1,.006.117,2.33,2.33,0,0,1-2.016-.788a4.706,4.706,0,0,1-.68-2.7V-4.939a4.847,4.847,0,0,1,.65-2.795A2.331,2.331,0,0,1-.006-8.648a2.352,2.352,0,0,1,2.027.882,4.678,4.678,0,0,1,.668,2.722ZM1.605-5.121a3.972,3.972,0,0,0-.387-2.007,1.331,1.331,0,0,0-1.225-.63,1.314,1.314,0,0,0-1.213.627A3.878,3.878,0,0,0-1.611-5.2v1.734a4.036,4.036,0,0,0,.4,2.042A1.329,1.329,0,0,0,.006-.768,1.31,1.31,0,0,0,1.2-1.389a3.89,3.89,0,0,0,.407-1.957ZM9.668,0H4.078V-.779L7.031-4.061a7.016,7.016,0,0,0,.905-1.21,2.019,2.019,0,0,0,.249-.964,1.531,1.531,0,0,0-.4-1.1A1.414,1.414,0,0,0,6.7-7.758a1.674,1.674,0,0,0-1.257.46A1.757,1.757,0,0,0,5-6.018H3.914a2.516,2.516,0,0,1,.759-1.9A2.813,2.813,0,0,1,6.7-8.648a2.7,2.7,0,0,1,1.881.624,2.129,2.129,0,0,1,.691,1.661,4.88,4.88,0,0,1-1.605,3L5.385-.885H9.668Z" transform="translate(1054.667 2698)" fill="#12263f"/>
    <path id="Trazado_197313" data-name="Trazado 197313" d="M-16.062,0h-1V-6.623l-2,.736v-.9l2.847-1.069h.156Zm7.815-3.335a4.545,4.545,0,0,1-.6,2.594,2.12,2.12,0,0,1-1.864.849,2.136,2.136,0,0,1-1.853-.83A4.313,4.313,0,0,1-13.183-3.2V-4.528a4.443,4.443,0,0,1,.6-2.562,2.137,2.137,0,0,1,1.869-.838,2.156,2.156,0,0,1,1.858.808,4.288,4.288,0,0,1,.612,2.495Zm-.994-1.359A3.641,3.641,0,0,0-9.6-6.534a1.22,1.22,0,0,0-1.123-.577,1.2,1.2,0,0,0-1.112.575,3.555,3.555,0,0,0-.36,1.767v1.59a3.7,3.7,0,0,0,.368,1.872,1.218,1.218,0,0,0,1.115.6,1.2,1.2,0,0,0,1.093-.569,3.566,3.566,0,0,0,.373-1.794Zm7.17,1.359a4.545,4.545,0,0,1-.6,2.594A2.12,2.12,0,0,1-4.531.107a2.136,2.136,0,0,1-1.853-.83A4.313,4.313,0,0,1-7.007-3.2V-4.528a4.443,4.443,0,0,1,.6-2.562,2.137,2.137,0,0,1,1.869-.838,2.156,2.156,0,0,1,1.858.808,4.288,4.288,0,0,1,.612,2.495Zm-.994-1.359a3.641,3.641,0,0,0-.354-1.84,1.22,1.22,0,0,0-1.123-.577,1.2,1.2,0,0,0-1.112.575,3.555,3.555,0,0,0-.36,1.767v1.59a3.7,3.7,0,0,0,.368,1.872,1.218,1.218,0,0,0,1.115.6,1.2,1.2,0,0,0,1.093-.569,3.566,3.566,0,0,0,.373-1.794ZM-.674-.521a.622.622,0,0,1,.153-.43.583.583,0,0,1,.459-.172A.6.6,0,0,1,.4-.951a.61.61,0,0,1,.158.43A.577.577,0,0,1,.4-.107.612.612,0,0,1-.062.059.594.594,0,0,1-.521-.107.588.588,0,0,1-.674-.521ZM7-3.335a4.545,4.545,0,0,1-.6,2.594A2.12,2.12,0,0,1,4.541.107a2.136,2.136,0,0,1-1.853-.83A4.313,4.313,0,0,1,2.065-3.2V-4.528a4.443,4.443,0,0,1,.6-2.562,2.137,2.137,0,0,1,1.869-.838,2.156,2.156,0,0,1,1.858.808A4.288,4.288,0,0,1,7-4.625ZM6.008-4.694a3.641,3.641,0,0,0-.354-1.84,1.22,1.22,0,0,0-1.123-.577,1.2,1.2,0,0,0-1.112.575,3.555,3.555,0,0,0-.36,1.767v1.59a3.7,3.7,0,0,0,.368,1.872,1.218,1.218,0,0,0,1.115.6,1.2,1.2,0,0,0,1.093-.569,3.566,3.566,0,0,0,.373-1.794Zm7.17,1.359a4.545,4.545,0,0,1-.6,2.594,2.12,2.12,0,0,1-1.864.849,2.136,2.136,0,0,1-1.853-.83A4.313,4.313,0,0,1,8.242-3.2V-4.528a4.443,4.443,0,0,1,.6-2.562,2.137,2.137,0,0,1,1.869-.838,2.156,2.156,0,0,1,1.858.808,4.288,4.288,0,0,1,.612,2.495Zm-.994-1.359a3.641,3.641,0,0,0-.354-1.84,1.22,1.22,0,0,0-1.123-.577A1.2,1.2,0,0,0,9.6-6.537a3.555,3.555,0,0,0-.36,1.767v1.59A3.7,3.7,0,0,0,9.6-1.308a1.218,1.218,0,0,0,1.115.6,1.2,1.2,0,0,0,1.093-.569,3.566,3.566,0,0,0,.373-1.794Zm7.17,1.359a4.545,4.545,0,0,1-.6,2.594,2.12,2.12,0,0,1-1.864.849,2.136,2.136,0,0,1-1.853-.83A4.313,4.313,0,0,1,14.419-3.2V-4.528a4.443,4.443,0,0,1,.6-2.562,2.137,2.137,0,0,1,1.869-.838,2.156,2.156,0,0,1,1.858.808,4.288,4.288,0,0,1,.612,2.495Zm-.994-1.359a3.641,3.641,0,0,0-.354-1.84,1.22,1.22,0,0,0-1.123-.577,1.2,1.2,0,0,0-1.112.575,3.555,3.555,0,0,0-.36,1.767v1.59a3.7,3.7,0,0,0,.368,1.872,1.218,1.218,0,0,0,1.115.6,1.2,1.2,0,0,0,1.093-.569,3.566,3.566,0,0,0,.373-1.794Z" transform="translate(1158.667 2661)" fill="#12263f"/>
    <path id="Trazado_197314" data-name="Trazado 197314" d="M-15.783-3.921l.4-3.9h4.007V-6.9h-3.164l-.236,2.132a2.524,2.524,0,0,1,1.305-.338,2.158,2.158,0,0,1,1.7.706,2.768,2.768,0,0,1,.628,1.909,2.672,2.672,0,0,1-.653,1.9,2.379,2.379,0,0,1-1.823.7,2.472,2.472,0,0,1-1.692-.575,2.294,2.294,0,0,1-.747-1.59h.94a1.578,1.578,0,0,0,.478,1.012A1.486,1.486,0,0,0-13.624-.7a1.341,1.341,0,0,0,1.088-.473,1.976,1.976,0,0,0,.395-1.305,1.814,1.814,0,0,0-.427-1.26A1.452,1.452,0,0,0-13.7-4.216a1.638,1.638,0,0,0-1.021.285l-.263.215Zm10.624.585a4.545,4.545,0,0,1-.6,2.594A2.12,2.12,0,0,1-7.619.107a2.136,2.136,0,0,1-1.853-.83A4.313,4.313,0,0,1-10.095-3.2V-4.528A4.443,4.443,0,0,1-9.5-7.09,2.137,2.137,0,0,1-7.63-7.928a2.156,2.156,0,0,1,1.858.808,4.288,4.288,0,0,1,.612,2.495Zm-.994-1.359a3.641,3.641,0,0,0-.354-1.84A1.22,1.22,0,0,0-7.63-7.111a1.2,1.2,0,0,0-1.112.575A3.555,3.555,0,0,0-9.1-4.77v1.59a3.7,3.7,0,0,0,.368,1.872,1.218,1.218,0,0,0,1.115.6,1.2,1.2,0,0,0,1.093-.569,3.566,3.566,0,0,0,.373-1.794Zm2.39,4.173a.622.622,0,0,1,.153-.43.583.583,0,0,1,.459-.172.6.6,0,0,1,.465.172.61.61,0,0,1,.158.43.577.577,0,0,1-.158.414A.612.612,0,0,1-3.15.059a.594.594,0,0,1-.459-.167A.588.588,0,0,1-3.762-.521ZM3.913-3.335a4.545,4.545,0,0,1-.6,2.594A2.12,2.12,0,0,1,1.453.107,2.136,2.136,0,0,1-.4-.722,4.313,4.313,0,0,1-1.023-3.2V-4.528a4.443,4.443,0,0,1,.6-2.562,2.137,2.137,0,0,1,1.869-.838A2.156,2.156,0,0,1,3.3-7.119a4.288,4.288,0,0,1,.612,2.495ZM2.919-4.694a3.641,3.641,0,0,0-.354-1.84,1.22,1.22,0,0,0-1.123-.577A1.2,1.2,0,0,0,.33-6.537,3.555,3.555,0,0,0-.03-4.77v1.59A3.7,3.7,0,0,0,.338-1.308a1.218,1.218,0,0,0,1.115.6,1.2,1.2,0,0,0,1.093-.569,3.566,3.566,0,0,0,.373-1.794Zm7.17,1.359a4.545,4.545,0,0,1-.6,2.594A2.12,2.12,0,0,1,7.63.107a2.136,2.136,0,0,1-1.853-.83A4.313,4.313,0,0,1,5.154-3.2V-4.528a4.443,4.443,0,0,1,.6-2.562,2.137,2.137,0,0,1,1.869-.838,2.156,2.156,0,0,1,1.858.808,4.288,4.288,0,0,1,.612,2.495ZM9.1-4.694a3.641,3.641,0,0,0-.354-1.84,1.22,1.22,0,0,0-1.123-.577,1.2,1.2,0,0,0-1.112.575,3.555,3.555,0,0,0-.36,1.767v1.59a3.7,3.7,0,0,0,.368,1.872A1.218,1.218,0,0,0,7.63-.7a1.2,1.2,0,0,0,1.093-.569A3.566,3.566,0,0,0,9.1-3.067Zm7.17,1.359a4.545,4.545,0,0,1-.6,2.594,2.12,2.12,0,0,1-1.864.849,2.136,2.136,0,0,1-1.853-.83A4.313,4.313,0,0,1,11.33-3.2V-4.528a4.443,4.443,0,0,1,.6-2.562A2.137,2.137,0,0,1,13.8-7.928a2.156,2.156,0,0,1,1.858.808,4.288,4.288,0,0,1,.612,2.495Zm-.994-1.359a3.641,3.641,0,0,0-.354-1.84A1.22,1.22,0,0,0,13.8-7.111a1.2,1.2,0,0,0-1.112.575,3.555,3.555,0,0,0-.36,1.767v1.59a3.7,3.7,0,0,0,.368,1.872,1.218,1.218,0,0,0,1.115.6A1.2,1.2,0,0,0,14.9-1.273a3.566,3.566,0,0,0,.373-1.794Z" transform="translate(1156.667 2697)" fill="#12263f"/>
    <path id="Trazado_197315" data-name="Trazado 197315" d="M-18.522,0H-20.4V-7.82h1.88Zm1.311,0V-7.82h2.519a3.706,3.706,0,0,1,1.864.47,3.3,3.3,0,0,1,1.292,1.327,4.005,4.005,0,0,1,.47,1.92v.36a4.029,4.029,0,0,1-.454,1.926A3.318,3.318,0,0,1-12.8-.486,3.624,3.624,0,0,1-14.639,0Zm1.885-6.365V-1.45h.655a1.467,1.467,0,0,0,1.246-.577,2.829,2.829,0,0,0,.435-1.716v-.338a2.806,2.806,0,0,0-.435-1.708,1.492,1.492,0,0,0-1.268-.575Zm11,4.238L-2.769-7.82H-.663L-3.3,0H-5.358l-2.61-7.82h2.089ZM2.635.107A2.987,2.987,0,0,1,.47-.69,2.754,2.754,0,0,1-.357-2.766v-.15A3.569,3.569,0,0,1-.027-4.49,2.417,2.417,0,0,1,.937-5.546a2.911,2.911,0,0,1,1.5-.373,2.516,2.516,0,0,1,1.934.76A2.987,2.987,0,0,1,5.084-3.04v.7h-3.6a1.3,1.3,0,0,0,.424.768,1.263,1.263,0,0,0,.849.279,1.627,1.627,0,0,0,1.343-.6l.827.978a2.312,2.312,0,0,1-.959.744A3.24,3.24,0,0,1,2.635.107Zm-.2-4.63q-.795,0-.945,1.053H3.311v-.14a.9.9,0,0,0-.22-.674A.876.876,0,0,0,2.43-4.522ZM7.474-5.812l.059.682a1.971,1.971,0,0,1,1.66-.79,1.658,1.658,0,0,1,1.356.542,2.583,2.583,0,0,1,.465,1.633V0H9.2V-3.668a.981.981,0,0,0-.177-.647.82.82,0,0,0-.645-.207.863.863,0,0,0-.79.419V0H5.777V-5.812Zm6.649-1.445v1.445h.956v1.257h-.956V-1.9a.679.679,0,0,0,.118.457.634.634,0,0,0,.467.129,2.655,2.655,0,0,0,.451-.032V-.048a3.341,3.341,0,0,1-1.021.156,1.9,1.9,0,0,1-1.38-.44,1.805,1.805,0,0,1-.446-1.337V-4.555h-.741V-5.812h.741V-7.256ZM19.065,0a2.044,2.044,0,0,1-.172-.521,1.683,1.683,0,0,1-1.4.628,2.062,2.062,0,0,1-1.4-.5,1.581,1.581,0,0,1-.575-1.249,1.625,1.625,0,0,1,.7-1.429,3.557,3.557,0,0,1,2.03-.483h.559v-.308q0-.8-.693-.8a.566.566,0,0,0-.645.637h-1.81a1.623,1.623,0,0,1,.717-1.368,3.013,3.013,0,0,1,1.829-.526,2.642,2.642,0,0,1,1.756.542,1.886,1.886,0,0,1,.661,1.488v2.573a2.635,2.635,0,0,0,.247,1.225V0ZM17.931-1.182a1.01,1.01,0,0,0,.561-.145.909.909,0,0,0,.32-.328v-.929h-.526q-.945,0-.945.849a.518.518,0,0,0,.167.4A.6.6,0,0,0,17.931-1.182Z" transform="translate(1054.667 2631)" fill="#12263f"/>
    <path id="Trazado_197316" data-name="Trazado 197316" d="M-9.488-2.127-7.93-7.82h2.105L-8.457,0h-2.062l-2.61-7.82h2.089ZM-2.312,0a2.044,2.044,0,0,1-.172-.521,1.683,1.683,0,0,1-1.4.628,2.062,2.062,0,0,1-1.4-.5,1.581,1.581,0,0,1-.575-1.249,1.625,1.625,0,0,1,.7-1.429,3.557,3.557,0,0,1,2.03-.483h.559v-.308q0-.8-.693-.8a.566.566,0,0,0-.645.637h-1.81A1.623,1.623,0,0,1-5-5.393a3.013,3.013,0,0,1,1.829-.526,2.642,2.642,0,0,1,1.756.542A1.886,1.886,0,0,1-.749-3.889v2.573A2.635,2.635,0,0,0-.5-.091V0ZM-3.446-1.182a1.01,1.01,0,0,0,.561-.145.909.909,0,0,0,.32-.328v-.929h-.526q-.945,0-.945.849a.518.518,0,0,0,.167.4A.6.6,0,0,0-3.446-1.182ZM2.162,0H.346V-8.25H2.162Zm.886-2.959a3.43,3.43,0,0,1,.338-1.55,2.42,2.42,0,0,1,.972-1.045,2.928,2.928,0,0,1,1.488-.365A2.672,2.672,0,0,1,7.9-5.111a3.1,3.1,0,0,1,.752,2.2v.064A3.01,3.01,0,0,1,7.9-.69a2.679,2.679,0,0,1-2.044.8A2.71,2.71,0,0,1,3.865-.636a2.91,2.91,0,0,1-.811-2.017Zm1.81.113a2.162,2.162,0,0,0,.252,1.182.841.841,0,0,0,.747.376q.967,0,.988-1.488v-.183q0-1.563-1-1.563-.908,0-.983,1.348Zm8.11-1.327-.6-.043a1.071,1.071,0,0,0-1.1.537V0H9.467V-5.812h1.7l.059.747A1.4,1.4,0,0,1,12.5-5.919a1.765,1.765,0,0,1,.5.064Z" transform="translate(1156.667 2631)" fill="#12263f"/>
    <path id="Trazado_193553" data-name="Trazado 193553" d="M-3796.333-8717.333h-36.333v128.666H-3748v43.917" transform="translate(4692.667 11152)" fill="none" stroke="#707070" stroke-width="2"/>
    <path id="Trazado_193555" data-name="Trazado 193555" d="M-2725.2,3239.572l6.646-11.511h-13.291Z" transform="translate(3670.087 -627.622)" fill="#636363"/>
  </g>
</svg>
