<svg xmlns="http://www.w3.org/2000/svg" width="575" height="356" viewBox="0 0 575 356">
  <g id="Group_136805" data-name="Group 136805" transform="translate(3311 9311)">
    <g id="Group_136790" data-name="Group 136790" transform="translate(-3899.333 -11078)">
      <rect id="Rectangle_41096" data-name="Rectangle 41096" width="141" height="356" transform="translate(1022.333 1767)" fill="#4dd0e1"/>
      <line id="Line_250" data-name="Line 250" x1="355" transform="translate(669.333 1768)" fill="none" stroke="#4dd0e1" stroke-width="2" opacity="0.2"/>
      <line id="Line_251" data-name="Line 251" x1="355" transform="translate(669.333 2122)" fill="none" stroke="#4dd0e1" stroke-width="2" opacity="0.2"/>
    </g>
    <g id="Group_136795" data-name="Group 136795" transform="translate(279 -884)">
      <rect id="Rectangle_42442" data-name="Rectangle 42442" width="566" height="339" rx="16" transform="translate(-3590 -8418)" fill="#e6f4ff"/>
      <rect id="Rectangle_42444" data-name="Rectangle 42444" width="126" height="43" transform="translate(-3321 -8374)" fill="#feca2e"/>
      <rect id="Rectangle_42445" data-name="Rectangle 42445" width="126" height="43" transform="translate(-3321 -8277)" fill="#4dd0e1"/>
      <rect id="Rectangle_42446" data-name="Rectangle 42446" width="126" height="43" transform="translate(-3504 -8277)" fill="#4dd0e1"/>
      <rect id="Rectangle_42447" data-name="Rectangle 42447" width="126" height="43" transform="translate(-3184 -8277)" fill="#4dd0e1"/>
      <rect id="Rectangle_42448" data-name="Rectangle 42448" width="96" height="43" transform="translate(-3169 -8182)" fill="#bddcf6"/>
      <rect id="Rectangle_42449" data-name="Rectangle 42449" width="96" height="43" transform="translate(-3306 -8182)" fill="#bddcf6"/>
      <rect id="Rectangle_42450" data-name="Rectangle 42450" width="96" height="43" transform="translate(-3434.354 -8182)" fill="#bddcf6"/>
      <rect id="Rectangle_42451" data-name="Rectangle 42451" width="96" height="43" transform="translate(-3543.646 -8182)" fill="#bddcf6"/>
      <text id="DEPTO1" transform="translate(-3257 -8347)" fill="#12263f" font-size="14" font-family="Roboto-Black, Roboto" font-weight="800"><tspan x="-26.202" y="0">DEPTO1</tspan></text>
      <text id="PROFESOR_2" data-name="PROFESOR 2" transform="translate(-3257 -8251)" fill="#12263f" font-size="14" font-family="Roboto-Black, Roboto" font-weight="800"><tspan x="-41.279" y="0">PROFESOR 2</tspan></text>
      <text id="CURSO_3" data-name="CURSO 3" transform="translate(-3257 -8156)" fill="#12263f" font-size="14" font-family="Roboto-Black, Roboto" font-weight="800"><tspan x="-28.824" y="0">CURSO 3</tspan></text>
      <text id="PROFESOR_1" data-name="PROFESOR 1" transform="translate(-3441 -8251)" fill="#12263f" font-size="14" font-family="Roboto-Black, Roboto" font-weight="800"><tspan x="-41.279" y="0">PROFESOR 1</tspan></text>
      <text id="CURSO_2" data-name="CURSO 2" transform="translate(-3386.354 -8156)" fill="#12263f" font-size="14" font-family="Roboto-Black, Roboto" font-weight="800"><tspan x="-28.824" y="0">CURSO 2</tspan></text>
      <text id="CURSO_1" data-name="CURSO 1" transform="translate(-3492.646 -8156)" fill="#12263f" font-size="14" font-family="Roboto-Black, Roboto" font-weight="800"><tspan x="-28.824" y="0">CURSO 1</tspan></text>
      <text id="PROFESOR_3" data-name="PROFESOR 3" transform="translate(-3121 -8251)" fill="#12263f" font-size="14" font-family="Roboto-Black, Roboto" font-weight="800"><tspan x="-41.279" y="0">PROFESOR 3</tspan></text>
      <text id="CURSO_4" data-name="CURSO 4" transform="translate(-3121 -8156)" fill="#12263f" font-size="14" font-family="Roboto-Black, Roboto" font-weight="800"><tspan x="-28.824" y="0">CURSO 4</tspan></text>
      <g id="Group_136796" data-name="Group 136796" transform="translate(-4387.887 -11509.383)">
        <rect id="Rectangle_42130" data-name="Rectangle 42130" width="3.572" height="15.437" transform="translate(1265.101 3205.433)" fill="#636363"/>
        <path id="Path_193321" data-name="Path 193321" d="M-2725.2,3239.572l6.646-11.511h-13.291Z" transform="translate(3992.087 -7.19)" fill="#636363"/>
      </g>
      <g id="Group_136801" data-name="Group 136801" transform="translate(-4653.242 -11414.383)">
        <rect id="Rectangle_42130-2" data-name="Rectangle 42130" width="3.572" height="15.437" transform="translate(1265.101 3205.433)" fill="#636363"/>
        <path id="Path_193321-2" data-name="Path 193321" d="M-2725.2,3239.572l6.646-11.511h-13.291Z" transform="translate(3992.087 -7.19)" fill="#636363"/>
      </g>
      <g id="Group_136802" data-name="Group 136802" transform="translate(-4762.533 -11414.383)">
        <rect id="Rectangle_42130-3" data-name="Rectangle 42130" width="3.572" height="15.437" transform="translate(1265.101 3205.433)" fill="#636363"/>
        <path id="Path_193321-3" data-name="Path 193321" d="M-2725.2,3239.572l6.646-11.511h-13.291Z" transform="translate(3992.087 -7.19)" fill="#636363"/>
      </g>
      <g id="Group_136799" data-name="Group 136799" transform="translate(-4387.887 -11414.383)">
        <rect id="Rectangle_42130-4" data-name="Rectangle 42130" width="3.572" height="40.437" transform="translate(1265.101 3180.433)" fill="#636363"/>
        <path id="Path_193321-4" data-name="Path 193321" d="M-2725.2,3239.572l6.646-11.511h-13.291Z" transform="translate(3992.087 -7.19)" fill="#636363"/>
      </g>
      <g id="Group_136800" data-name="Group 136800" transform="translate(-4523.887 -11414.383)">
        <rect id="Rectangle_42130-5" data-name="Rectangle 42130" width="3.572" height="40.437" transform="translate(1265.101 3180.433)" fill="#636363"/>
        <path id="Path_193321-5" data-name="Path 193321" d="M-2725.2,3239.572l6.646-11.511h-13.291Z" transform="translate(3992.087 -7.19)" fill="#636363"/>
      </g>
      <g id="Group_136798" data-name="Group 136798" transform="translate(-4707.887 -11509.383)">
        <rect id="Rectangle_42130-6" data-name="Rectangle 42130" width="3.572" height="15.437" transform="translate(1265.101 3205.433)" fill="#636363"/>
        <path id="Path_193321-6" data-name="Path 193321" d="M-2725.2,3239.572l6.646-11.511h-13.291Z" transform="translate(3992.087 -7.19)" fill="#636363"/>
      </g>
      <g id="Group_136797" data-name="Group 136797" transform="translate(-4523.887 -11509.383)">
        <rect id="Rectangle_42130-7" data-name="Rectangle 42130" width="3.572" height="43.437" transform="translate(1265.101 3177.433)" fill="#636363"/>
        <path id="Path_193321-7" data-name="Path 193321" d="M-2725.2,3239.572l6.646-11.511h-13.291Z" transform="translate(3992.087 -7.19)" fill="#636363"/>
      </g>
      <rect id="Rectangle_42452" data-name="Rectangle 42452" width="320" height="4" transform="translate(-3441 -8304)" fill="#636363"/>
      <rect id="Rectangle_42453" data-name="Rectangle 42453" width="110" height="4" transform="translate(-3496 -8209)" fill="#636363"/>
      <rect id="Rectangle_42454" data-name="Rectangle 42454" width="25" height="4" transform="translate(-3443 -8209) rotate(-90)" fill="#636363"/>
    </g>
  </g>
</svg>
