<svg xmlns="http://www.w3.org/2000/svg" width="295" height="288" viewBox="0 0 295 288">
  <g id="Group_139910" data-name="Group 139910" transform="translate(-285 -7021.654)">
    <circle id="Ellipse_4882" data-name="Ellipse 4882" cx="144" cy="144" r="144" transform="translate(289 7021.654)" fill="#bddcf6" opacity="0.74"/>
    <g id="Group_139739" data-name="Group 139739" transform="translate(130.298 6962.847)">
      <g id="Group_139712" data-name="Group 139712" transform="translate(187.828 166.075)">
        <path id="Path_196312" data-name="Path 196312" d="M266.935,590.494a3.555,3.555,0,1,1,3.555-3.555A3.559,3.559,0,0,1,266.935,590.494Zm0-6.281a2.726,2.726,0,1,0,2.726,2.726A2.729,2.729,0,0,0,266.935,584.214Z" transform="translate(-263.38 -500.164)" fill="#fff"/>
        <path id="Path_196313" data-name="Path 196313" d="M1061.966,502.921a3.555,3.555,0,1,1,3.555-3.555A3.559,3.559,0,0,1,1061.966,502.921Zm0-6.281a2.726,2.726,0,1,0,2.726,2.726A2.729,2.729,0,0,0,1061.966,496.64Z" transform="translate(-816.075 -439.283)" fill="#fff"/>
        <g id="Group_139711" data-name="Group 139711" transform="translate(210.932)">
          <path id="Path_196314" data-name="Path 196314" d="M967.818,318.518a.414.414,0,0,1-.415-.414v-7.328a.414.414,0,1,1,.829,0V318.1A.414.414,0,0,1,967.818,318.518Z" transform="translate(-963.739 -310.361)" fill="#fff"/>
          <path id="Path_196315" data-name="Path 196315" d="M963.125,323.21H955.8a.414.414,0,1,1,0-.829h7.328a.414.414,0,0,1,0,.829Z" transform="translate(-955.383 -318.717)" fill="#fff"/>
        </g>
        <path id="Path_196316" data-name="Path 196316" d="M515.919,368.18a3.555,3.555,0,1,1,3.555-3.555A3.558,3.558,0,0,1,515.919,368.18Zm0-6.281a2.726,2.726,0,1,0,2.726,2.726A2.729,2.729,0,0,0,515.919,361.9Z" transform="translate(-436.47 -345.613)" fill="#fff"/>
      </g>
      <g id="Group_139713" data-name="Group 139713" transform="translate(179.066 259.977)">
        <path id="Path_196317" data-name="Path 196317" d="M505.269,645.56H234.633l20.793-27.133H484.473Z" transform="translate(-234.633 -618.426)" fill="#c38152"/>
        <path id="Path_196318" data-name="Path 196318" d="M423.006,650.2l66.19,6.556,36.57-8.777-7.68-1.585Z" transform="translate(-365.588 -637.871)" fill="#985b3d"/>
        <path id="Path_196319" data-name="Path 196319" d="M724.07,618.426c-.009.385-.133,3.611-2.194,4.9-2.195,1.372-20.295,1.919-23.312,1.372s-15.543.548-15.543.548l-.547,2.195s-11.338,0-14.9.274a24.66,24.66,0,0,1-7.681-.822c-1.372-.275-8.5-.275-8.5-.275l-4.661,1.372-26.545.932L609.974,624.7l-1-6.271Z" transform="translate(-494.867 -618.426)" fill="#985b3d"/>
        <rect id="Rectangle_43651" data-name="Rectangle 43651" width="270.076" height="6.281" transform="translate(0.279 26.546)" fill="#985b3d"/>
      </g>
      <g id="Group_139714" data-name="Group 139714" transform="translate(154.702 209.196)">
        <path id="Path_196320" data-name="Path 196320" d="M213.787,490.726l-54.478-1.739L154.7,451.829l54.3,2.44Z" transform="translate(-154.702 -451.829)" fill="#74343b"/>
        <path id="Path_196321" data-name="Path 196321" d="M215.419,497.077l-51.681-1.62L159.4,463.2l52.222,2.415Z" transform="translate(-157.967 -459.733)" fill="#fff"/>
        <path id="Path_196322" data-name="Path 196322" d="M182.411,470.935l-4.784-.217-.242-1.961,4.784.217Z" transform="translate(-170.471 -463.597)" fill="#7d92be"/>
        <path id="Path_196323" data-name="Path 196323" d="M186.818,522.3l-2.852-.13-.242-1.961,2.852.13Z" transform="translate(-174.878 -499.367)" fill="#7d92be"/>
        <path id="Path_196324" data-name="Path 196324" d="M202.353,523.008l-6.6-.3-.242-1.96,6.6.3Z" transform="translate(-183.075 -499.74)" fill="#ccc"/>
        <path id="Path_196325" data-name="Path 196325" d="M227.7,524.16l-3.656-.166-.242-1.96,3.656.166Z" transform="translate(-202.74 -500.634)" fill="#b3b3b3"/>
        <path id="Path_196326" data-name="Path 196326" d="M241.8,524.8l-3.656-.166-.242-1.96,3.656.166Z" transform="translate(-212.539 -501.08)" fill="#ccc"/>
        <path id="Path_196327" data-name="Path 196327" d="M255.552,525.426l-3.656-.166-.242-1.96,3.656.166Z" transform="translate(-222.102 -501.514)" fill="#7d92be"/>
        <path id="Path_196328" data-name="Path 196328" d="M205.8,472l-8.41-.382-.242-1.961,8.41.382Z" transform="translate(-184.21 -464.222)" fill="#7d92be"/>
        <path id="Path_196329" data-name="Path 196329" d="M203.864,484.8l-4.877-.222-.242-1.96,4.877.222Z" transform="translate(-185.32 -473.235)" fill="#759c7b"/>
        <path id="Path_196330" data-name="Path 196330" d="M225.562,485.79l-8.41-.382-.242-1.96,8.41.382Z" transform="translate(-197.948 -473.809)" fill="#ccc"/>
        <path id="Path_196331" data-name="Path 196331" d="M251.74,486.98l-4.364-.2-.242-1.96,4.364.2Z" transform="translate(-218.96 -474.765)" fill="#b3b3b3"/>
        <path id="Path_196332" data-name="Path 196332" d="M204.2,498.219l-3.549-.161-.242-1.961,3.549.161Z" transform="translate(-186.475 -482.604)" fill="#e67342"/>
        <path id="Path_196333" data-name="Path 196333" d="M226.2,499.219l6.12.278-.242-1.961-6.12-.278Z" transform="translate(-204.237 -483.411)" fill="#ccc"/>
        <path id="Path_196334" data-name="Path 196334" d="M213.865,498.658l3.175.144-.242-1.96-3.175-.144Z" transform="translate(-195.663 -483.021)" fill="#74343b"/>
        <path id="Path_196335" data-name="Path 196335" d="M248.159,500.217l3.175.144-.242-1.96-3.175-.144Z" transform="translate(-219.504 -484.105)" fill="#b3b3b3"/>
        <path id="Path_196336" data-name="Path 196336" d="M213.758,510.836l6.12.278-.242-1.96-6.12-.278Z" transform="translate(-195.589 -491.487)" fill="#ccc"/>
        <path id="Path_196337" data-name="Path 196337" d="M201.424,510.275l3.175.144-.242-1.96-3.175-.144Z" transform="translate(-187.015 -491.097)" fill="#b3b3b3"/>
        <path id="Path_196338" data-name="Path 196338" d="M235.718,511.834l3.175.144-.242-1.961-3.175-.144Z" transform="translate(-210.855 -492.181)" fill="#7d92be"/>
        <path id="Path_196339" data-name="Path 196339" d="M281.646,488.339l-3.357-.153-.242-1.961,3.357.153Z" transform="translate(-240.45 -475.742)" fill="#74343b"/>
        <path id="Path_196340" data-name="Path 196340" d="M296.6,489.019l-4.94-.225-.242-1.961,4.94.225Z" transform="translate(-249.744 -476.164)" fill="#b3b3b3"/>
        <path id="Path_196341" data-name="Path 196341" d="M312.313,489.733l-2.539-.115-.242-1.96,2.539.115Z" transform="translate(-262.338 -476.737)" fill="#b3b3b3"/>
        <path id="Path_196342" data-name="Path 196342" d="M308.216,538.885l4.877.222-.242-1.96-4.877-.222Z" transform="translate(-261.255 -510.987)" fill="#759c7b"/>
        <path id="Path_196343" data-name="Path 196343" d="M269.921,537.145l-8.41-.382-.242-1.961,8.41.382Z" transform="translate(-228.786 -509.511)" fill="#ccc"/>
        <path id="Path_196344" data-name="Path 196344" d="M296.1,538.335l-4.364-.2-.242-1.961,4.364.2Z" transform="translate(-249.798 -510.466)" fill="#b3b3b3"/>
        <path id="Path_196345" data-name="Path 196345" d="M240.746,549.219l3.549.161-.242-1.96-3.549-.161Z" transform="translate(-214.351 -518.17)" fill="#e67342"/>
        <path id="Path_196346" data-name="Path 196346" d="M212.88,547.952l-6.12-.278-.242-1.96,6.12.278Z" transform="translate(-190.724 -517.097)" fill="#ccc"/>
        <path id="Path_196347" data-name="Path 196347" d="M231.929,548.818l-3.175-.144-.242-1.961,3.175.144Z" transform="translate(-206.014 -517.792)" fill="#b3b3b3"/>
        <path id="Path_196348" data-name="Path 196348" d="M254.271,549.834l3.175.144-.242-1.96-3.175-.144Z" transform="translate(-223.753 -518.598)" fill="#74343b"/>
        <path id="Path_196349" data-name="Path 196349" d="M238.29,561.29l-6.12-.278-.242-1.961,6.12.278Z" transform="translate(-208.389 -526.369)" fill="#ccc"/>
        <path id="Path_196350" data-name="Path 196350" d="M207.537,559.892l3.175.144-.242-1.961-3.175-.144Z" transform="translate(-191.264 -525.59)" fill="#74343b"/>
        <path id="Path_196351" data-name="Path 196351" d="M223.046,560.6l-3.175-.144-.242-1.96,3.175.144Z" transform="translate(-199.838 -525.98)" fill="#7d92be"/>
        <path id="Path_196352" data-name="Path 196352" d="M233.9,535.507l3.357.153-.242-1.961-3.357-.153Z" transform="translate(-209.592 -508.638)" fill="#b3b3b3"/>
        <path id="Path_196353" data-name="Path 196353" d="M215.339,534.664l4.94.225-.242-1.96-4.94-.225Z" transform="translate(-196.688 -508.052)" fill="#759c7b"/>
        <path id="Path_196354" data-name="Path 196354" d="M205.1,534.2l2.539.115-.242-1.961-2.539-.115Z" transform="translate(-189.57 -507.728)" fill="#b3b3b3"/>
        <path id="Path_196355" data-name="Path 196355" d="M234.733,473.314l-5.084-.231-.242-1.961,5.084.231Z" transform="translate(-206.636 -465.241)" fill="#e67342"/>
        <path id="Path_196356" data-name="Path 196356" d="M256.82,474.318l-5.084-.231-.242-1.961,5.084.231Z" transform="translate(-221.991 -465.939)" fill="#e6e6e6"/>
        <rect id="Rectangle_43652" data-name="Rectangle 43652" width="0.288" height="28.219" transform="translate(5.082 6.246) rotate(-7.023)" fill="#7d92be"/>
      </g>
      <g id="Group_139715" data-name="Group 139715" transform="translate(387.877 188.123)">
        <path id="Path_196357" data-name="Path 196357" d="M937.357,382.7s16.327,3.49,17.723,5.234,6.63,16.051,6.979,17.447-4.187,49.2-4.187,49.2H931.7Z" transform="translate(-928.037 -382.695)" fill="#e89d43"/>
        <path id="Path_196358" data-name="Path 196358" d="M929.1,386.13s12.562,2.442,13.958,4.187,6.63,16.051,6.979,17.447-4.187,49.2-4.187,49.2h-26.17Z" transform="translate(-919.681 -385.083)" fill="#fcb552"/>
      </g>
      <g id="Group_139716" data-name="Group 139716" transform="translate(317.523 164.396)">
        <path id="Path_196359" data-name="Path 196359" d="M702.479,305.9l-13.609,12.562,11.864,82,40.128-.349-12.911-95.26Z" transform="translate(-688.871 -304.852)" fill="#fff"/>
        <path id="Path_196360" data-name="Path 196360" d="M788.094,395.462s-1.57,24.251-1.57,27.042-.349,19.541-.349,19.541l3.838,15.353s8.723-.349,8.374-1.4-7.677-60.715-7.677-60.715Z" transform="translate(-756.515 -367.722)" fill="#e6e6e6"/>
        <path id="Path_196361" data-name="Path 196361" d="M719.389,325s5.582,16.573,5.582,18.318.7,16.4.7,16.4L724.621,381l1.745,27.915-3.49.7L715.2,366.694l.7-46.757,2.966-1.919Z" transform="translate(-707.175 -314.004)" fill="#e6e6e6"/>
        <path id="Path_196362" data-name="Path 196362" d="M718.512,454.243s8.375,1.427,10.992,2.141,8.636,0,8.636,0l5.234-.714,1.047,6.423H729.241c-2.093,0-12.038-3.925-12.038-3.925Z" transform="translate(-708.567 -408.707)" fill="#759c7b"/>
        <path id="Path_196363" data-name="Path 196363" d="M724.26,481.717a73.858,73.858,0,0,1,7.444,1.338c2.617.714,12.184.8,12.184.8l5.234-.714,1.047,6.424s-8.811-.7-10.9-.7-16.051-2.21-16.051-2.21Z" transform="translate(-712.745 -427.806)" fill="#759c7b"/>
        <path id="Path_196364" data-name="Path 196364" d="M737.1,372.791a1.63,1.63,0,0,1-.266-.019c-1.635-.273-7.79-5.436-8.487-6.024l.535-.633c2.563,2.164,7.026,5.663,8.088,5.84s6.338-1.576,9.479-2.742l4.649-4.391.569.6-4.772,4.506-.079.03C746.005,370.262,739.151,372.791,737.1,372.791Z" transform="translate(-716.313 -346.542)" fill="#e6e6e6"/>
      </g>
      <g id="Group_139717" data-name="Group 139717" transform="translate(329.151 138.457)">
        <path id="Path_196365" data-name="Path 196365" d="M752.261,242.323s-2.094,12.445-2.677,13.724c-.569,1.254-3.718,7.442-4.6,8.221l-.047.039c-.812.58-8.867,2.848-8.867,2.848a20.3,20.3,0,0,1-8.461-10.467,14.627,14.627,0,0,1-.553-3.721c-.163-4.735.318-12.157.318-12.157l8.956-9.887,2.909-10.815,4.188-.351s4.3,17.448,5,18.378a0,0,0,0,1,0,0C749.126,239.072,752.261,242.323,752.261,242.323Z" transform="translate(-727.017 -219.757)" fill="#fed0b9"/>
        <path id="Path_196366" data-name="Path 196366" d="M793.12,284.239s-2.094,12.445-2.677,13.724c-.569,1.254-3.718,7.442-4.6,8.221l-.047.039s3.431-13.638,3.693-15.47-.2-10.7-.2-10.7a0,0,0,0,1,0,0C789.985,280.987,793.12,284.239,793.12,284.239Z" transform="translate(-767.876 -261.673)" fill="#eea489"/>
        <path id="Path_196367" data-name="Path 196367" d="M744.526,225.559s-1.744,10.294-2.442,12.911c-.541,2.03-8.376,13.436-8.9,14.132-.423.564-4.85,1.014-6.134,1.165-.163-4.735.318-12.157.318-12.157l8.956-9.887,2.909-10.815,4.769.29Z" transform="translate(-727.017 -220.557)" fill="#eea489"/>
      </g>
      <g id="Group_139718" data-name="Group 139718" transform="translate(236.047 264.627)">
        <path id="Path_196368" data-name="Path 196368" d="M517.325,637.085l-65.833-3.4-29.921,4.8.438,2.883,59.959,3.807,35.357-4.945Z" transform="translate(-421.571 -633.683)" fill="#ccc"/>
        <path id="Path_196369" data-name="Path 196369" d="M618.649,652.93l35.357-4.945v-3.14l-35.824,5.118Z" transform="translate(-558.252 -641.442)" fill="#999"/>
      </g>
      <g id="Group_139720" data-name="Group 139720" transform="translate(275.652 161.866)">
        <path id="Path_196370" data-name="Path 196370" d="M666.021,377.269c0,2.094,1.746,30.356,1.746,30.356H647.179s-4.188-38.033-4.188-41.174c0-2.076-7.065-20.113-7.065-31.928a62.569,62.569,0,0,1,7.065-10.293l12.348-6.171,5.8-2.9-1.746,12.909,7.155,12.213s.119,1.006.3,2.511c.472,3.97,1.367,11.42,1.619,13.191C668.814,358.427,666.021,375.176,666.021,377.269Z" transform="translate(-610.193 -309.488)" fill="#7d92be"/>
        <path id="Path_196371" data-name="Path 196371" d="M697.651,342.792c-.71.135-8.326-3.906-8.326-3.906L682,344.816s-1.4-7.326-1.746-9.246c-.3-1.635,4.475-13.917,5.892-17.511l5.8-2.9L690.2,328.068l7.155,12.213S697.471,341.286,697.651,342.792Z" transform="translate(-640.999 -309.488)" fill="#5f77a1"/>
        <g id="Group_139719" data-name="Group 139719" transform="translate(0 14.743)">
          <path id="Path_196372" data-name="Path 196372" d="M588.489,396.213l-4.536,14.307-6.624,11.085a10.641,10.641,0,0,1-9.743,6.362H551.5s23.03-66.646,25.121-71.533,7.677-11.514,7.677-11.514l3.34,40.889Z" transform="translate(-551.503 -344.921)" fill="#7d92be"/>
          <path id="Path_196373" data-name="Path 196373" d="M620.009,463.261l-4.536,14.307-6.624,11.085a10.641,10.641,0,0,1-9.743,6.362h-2.263l3.191-3.4s8.11-17.8,8.9-19.1,6.541-31.141,6.541-31.141,1.649,5.152,3.688,11.491Z" transform="translate(-583.023 -411.968)" fill="#5f77a1"/>
        </g>
        <path id="Path_196374" data-name="Path 196374" d="M699.852,296.553s-4.449,4.1-5.147,5.321-6.979,19.017-6.979,20.238.7,6.63.7,6.63l4.536-6.106,9.6,4.711s-4.536-12.038-4.711-13.434a77.871,77.871,0,0,1,.611-8.113l1.309-2.7Z" transform="translate(-646.203 -296.553)" fill="#7d92be"/>
      </g>
      <g id="Group_139721" data-name="Group 139721" transform="translate(256.609 196.112)">
        <path id="Path_196375" data-name="Path 196375" d="M556.64,415.647,489.583,412.6l-.554-3.695,67.185,2.751Z" transform="translate(-489.029 -408.903)" fill="#74343b"/>
        <path id="Path_196376" data-name="Path 196376" d="M563.058,465.63,496,462.582,490.828,420.6l67.058,3.048Z" transform="translate(-490.28 -417.035)" fill="#fff"/>
        <path id="Path_196377" data-name="Path 196377" d="M513.342,432.049l-5.975-.272-.3-2.449,5.975.272Z" transform="translate(-501.568 -423.102)" fill="#7d92be"/>
        <path id="Path_196378" data-name="Path 196378" d="M518.848,496.212l-3.562-.162-.3-2.449,3.562.162Z" transform="translate(-507.072 -467.784)" fill="#7d92be"/>
        <path id="Path_196379" data-name="Path 196379" d="M538.253,497.094l-8.239-.375-.3-2.449,8.239.375Z" transform="translate(-517.311 -468.25)" fill="#ccc"/>
        <path id="Path_196380" data-name="Path 196380" d="M569.915,498.533l-4.566-.208-.3-2.449,4.566.208Z" transform="translate(-541.875 -469.366)" fill="#b3b3b3"/>
        <path id="Path_196381" data-name="Path 196381" d="M587.522,499.334l-4.566-.208-.3-2.449,4.566.208Z" transform="translate(-554.116 -469.923)" fill="#ccc"/>
        <path id="Path_196382" data-name="Path 196382" d="M604.705,500.115l-4.566-.208-.3-2.449,4.566.208Z" transform="translate(-566.061 -470.466)" fill="#7d92be"/>
        <path id="Path_196383" data-name="Path 196383" d="M542.558,433.377l-10.505-.478-.3-2.449,10.505.478Z" transform="translate(-518.729 -423.883)" fill="#7d92be"/>
        <path id="Path_196384" data-name="Path 196384" d="M540.14,449.372l-6.092-.277-.3-2.449,6.092.277Z" transform="translate(-520.116 -435.142)" fill="#759c7b"/>
        <path id="Path_196385" data-name="Path 196385" d="M567.243,450.6l-10.505-.478-.3-2.449,10.505.478Z" transform="translate(-535.889 -435.859)" fill="#ccc"/>
        <path id="Path_196386" data-name="Path 196386" d="M599.943,452.091l-5.451-.248-.3-2.449,5.451.248Z" transform="translate(-562.136 -437.052)" fill="#b3b3b3"/>
        <path id="Path_196387" data-name="Path 196387" d="M540.555,466.13l-4.433-.2-.3-2.449,4.433.2Z" transform="translate(-521.558 -446.844)" fill="#e67342"/>
        <path id="Path_196388" data-name="Path 196388" d="M568.039,467.379l7.644.347-.3-2.449-7.645-.348Z" transform="translate(-543.746 -447.853)" fill="#ccc"/>
        <path id="Path_196389" data-name="Path 196389" d="M552.633,466.679l3.966.18-.3-2.449-3.966-.18Z" transform="translate(-533.036 -447.366)" fill="#b3b3b3"/>
        <path id="Path_196390" data-name="Path 196390" d="M595.47,468.626l3.966.18-.3-2.449-3.966-.18Z" transform="translate(-562.816 -448.72)" fill="#b3b3b3"/>
        <path id="Path_196391" data-name="Path 196391" d="M552.5,481.89l7.644.348-.3-2.449-7.645-.347Z" transform="translate(-532.942 -457.94)" fill="#ccc"/>
        <path id="Path_196392" data-name="Path 196392" d="M537.092,481.19l3.966.18-.3-2.449-3.966-.18Z" transform="translate(-522.232 -457.454)" fill="#74343b"/>
        <path id="Path_196393" data-name="Path 196393" d="M579.93,483.137l3.966.18-.3-2.449-3.966-.18Z" transform="translate(-552.012 -458.807)" fill="#7d92be"/>
        <path id="Path_196394" data-name="Path 196394" d="M637.3,453.789l-4.193-.191-.3-2.449,4.193.191Z" transform="translate(-588.98 -438.272)" fill="#74343b"/>
        <path id="Path_196395" data-name="Path 196395" d="M655.977,454.638l-6.17-.28-.3-2.449,6.17.281Z" transform="translate(-600.59 -438.8)" fill="#b3b3b3"/>
        <path id="Path_196396" data-name="Path 196396" d="M675.607,455.53l-3.171-.144-.3-2.449,3.171.144Z" transform="translate(-616.321 -439.515)" fill="#b3b3b3"/>
        <path id="Path_196397" data-name="Path 196397" d="M670.49,516.928l6.092.277-.3-2.449-6.092-.277Z" transform="translate(-614.968 -482.298)" fill="#759c7b"/>
        <path id="Path_196398" data-name="Path 196398" d="M622.654,514.753l-10.505-.478-.3-2.449,10.505.478Z" transform="translate(-574.41 -480.454)" fill="#74343b"/>
        <path id="Path_196399" data-name="Path 196399" d="M655.354,516.24l-5.451-.248-.3-2.449,5.451.248Z" transform="translate(-600.657 -481.647)" fill="#b3b3b3"/>
        <path id="Path_196400" data-name="Path 196400" d="M586.211,529.836l4.433.2-.3-2.449-4.433-.2Z" transform="translate(-556.379 -491.272)" fill="#e67342"/>
        <path id="Path_196401" data-name="Path 196401" d="M551.4,528.253l-7.644-.347-.3-2.449,7.644.348Z" transform="translate(-526.866 -489.93)" fill="#74343b"/>
        <path id="Path_196402" data-name="Path 196402" d="M575.2,529.335l-3.966-.18-.3-2.449,3.966.18Z" transform="translate(-545.965 -490.798)" fill="#b3b3b3"/>
        <path id="Path_196403" data-name="Path 196403" d="M603.106,530.6l3.966.18-.3-2.449-3.966-.18Z" transform="translate(-568.124 -491.805)" fill="#b3b3b3"/>
        <path id="Path_196404" data-name="Path 196404" d="M583.143,544.914l-7.644-.347-.3-2.449,7.644.347Z" transform="translate(-548.932 -501.512)" fill="#ccc"/>
        <path id="Path_196405" data-name="Path 196405" d="M544.728,543.167l3.966.18-.3-2.449-3.966-.18Z" transform="translate(-527.54 -500.539)" fill="#b3b3b3"/>
        <path id="Path_196406" data-name="Path 196406" d="M564.1,544.048l-3.966-.18-.3-2.449,3.966.18Z" transform="translate(-538.251 -501.026)" fill="#7d92be"/>
        <path id="Path_196407" data-name="Path 196407" d="M577.661,512.708l4.193.191-.3-2.449-4.193-.191Z" transform="translate(-550.435 -479.365)" fill="#b3b3b3"/>
        <path id="Path_196408" data-name="Path 196408" d="M554.474,511.654l6.17.28-.3-2.449-6.17-.281Z" transform="translate(-534.316 -478.632)" fill="#759c7b"/>
        <path id="Path_196409" data-name="Path 196409" d="M541.684,511.073l3.171.144-.3-2.449-3.171-.144Z" transform="translate(-525.424 -478.228)" fill="#b3b3b3"/>
        <path id="Path_196410" data-name="Path 196410" d="M578.7,435.02l-6.35-.289-.3-2.449,6.35.289Z" transform="translate(-546.742 -425.156)" fill="#e67342"/>
        <path id="Path_196411" data-name="Path 196411" d="M606.29,436.274l-6.35-.289-.3-2.449,6.35.289Z" transform="translate(-565.923 -426.028)" fill="#e6e6e6"/>
        <rect id="Rectangle_43653" data-name="Rectangle 43653" width="0.36" height="35.249" transform="translate(3.209 7.582) rotate(-7.023)" fill="#7d92be"/>
      </g>
      <g id="Group_139722" data-name="Group 139722" transform="translate(178.947 130.334)">
        <path id="Path_196412" data-name="Path 196412" d="M298.147,194.982l-63.9-1.876,6.562,74.273,63.9,1.876Z" transform="translate(-234.244 -193.106)" fill="#4a5d80"/>
        <path id="Path_196413" data-name="Path 196413" d="M273.484,408.939l-5.694-.167.383,4.333,5.694.167Z" transform="translate(-257.565 -343.034)" fill="#7d92be"/>
        <path id="Path_196414" data-name="Path 196414" d="M256.817,246.247l-3.395-.1-.383-4.333,3.395.1Z" transform="translate(-247.311 -226.967)" fill="#7d92be"/>
        <path id="Path_196415" data-name="Path 196415" d="M275.309,246.79l-7.852-.231-.383-4.333,7.852.23Z" transform="translate(-257.068 -227.254)" fill="#ccc"/>
        <path id="Path_196416" data-name="Path 196416" d="M305.481,247.676l-4.351-.128-.383-4.333,4.351.128Z" transform="translate(-280.476 -227.941)" fill="#b3b3b3"/>
        <path id="Path_196417" data-name="Path 196417" d="M322.26,248.168l-4.351-.128-.383-4.333,4.351.128Z" transform="translate(-292.14 -228.284)" fill="#ccc"/>
        <path id="Path_196418" data-name="Path 196418" d="M342.956,297.562l-4.351-.128.383,4.333,4.351.128Z" transform="translate(-306.794 -265.634)" fill="#7d92be"/>
        <path id="Path_196419" data-name="Path 196419" d="M301.325,409.756l-10.011-.294.383,4.333,10.011.294Z" transform="translate(-273.919 -343.514)" fill="#7d92be"/>
        <path id="Path_196420" data-name="Path 196420" d="M294.588,380.979l-5.805-.17.383,4.333,5.805.17Z" transform="translate(-272.159 -323.595)" fill="#759c7b"/>
        <path id="Path_196421" data-name="Path 196421" d="M320.416,381.738l-10.011-.294.383,4.333,10.011.294Z" transform="translate(-287.19 -324.036)" fill="#ccc"/>
        <path id="Path_196422" data-name="Path 196422" d="M351.577,382.653l-5.194-.152.383,4.333,5.194.152Z" transform="translate(-312.202 -324.77)" fill="#b3b3b3"/>
        <path id="Path_196423" data-name="Path 196423" d="M290.376,351.151l-4.224-.124.383,4.333,4.224.124Z" transform="translate(-270.33 -302.891)" fill="#e67342"/>
        <path id="Path_196424" data-name="Path 196424" d="M316.566,351.92l7.285.214.383,4.333-7.285-.214Z" transform="translate(-291.474 -303.512)" fill="#ccc"/>
        <path id="Path_196425" data-name="Path 196425" d="M301.885,351.489l3.78.111.383,4.333-3.78-.111Z" transform="translate(-281.267 -303.212)" fill="#b3b3b3"/>
        <path id="Path_196426" data-name="Path 196426" d="M342.707,352.688l3.78.111.383,4.333-3.78-.111Z" transform="translate(-309.646 -304.045)" fill="#b3b3b3"/>
        <path id="Path_196427" data-name="Path 196427" d="M288.265,219.041l7.285.214-.383-4.333-7.285-.214Z" transform="translate(-271.532 -208.124)" fill="#ccc"/>
        <path id="Path_196428" data-name="Path 196428" d="M273.583,218.61l3.78.111-.383-4.333-3.78-.111Z" transform="translate(-261.326 -207.824)" fill="#b3b3b3"/>
        <path id="Path_196429" data-name="Path 196429" d="M314.405,219.808l3.78.111-.383-4.333-3.78-.111Z" transform="translate(-289.705 -208.657)" fill="#7d92be"/>
        <path id="Path_196430" data-name="Path 196430" d="M387.176,383.7l-4-.117.383,4.333,4,.117Z" transform="translate(-337.783 -325.521)" fill="#b3b3b3"/>
        <path id="Path_196431" data-name="Path 196431" d="M404.974,384.22l-5.88-.173.383,4.333,5.88.173Z" transform="translate(-348.846 -325.846)" fill="#b3b3b3"/>
        <path id="Path_196432" data-name="Path 196432" d="M423.68,384.77l-3.022-.089.383,4.333,3.022.089Z" transform="translate(-363.837 -326.286)" fill="#b3b3b3"/>
        <path id="Path_196433" data-name="Path 196433" d="M289.565,324.124l-5.805-.17.383,4.333,5.805.17Z" transform="translate(-268.667 -284.069)" fill="#759c7b"/>
        <path id="Path_196434" data-name="Path 196434" d="M325.557,325.18l10.011.294.383,4.333-10.011-.294Z" transform="translate(-297.724 -284.922)" fill="#ccc"/>
        <path id="Path_196435" data-name="Path 196435" d="M305.382,324.588l5.194.153.383,4.333-5.194-.153Z" transform="translate(-283.698 -284.511)" fill="#b3b3b3"/>
        <path id="Path_196436" data-name="Path 196436" d="M321.584,295.359l4.224.124.383,4.333-4.224-.124Z" transform="translate(-294.962 -264.191)" fill="#e67342"/>
        <path id="Path_196437" data-name="Path 196437" d="M288.413,294.386l-7.285-.214.383,4.333,7.285.214Z" transform="translate(-266.838 -263.365)" fill="#ccc"/>
        <path id="Path_196438" data-name="Path 196438" d="M311.089,295.051l-3.78-.111.383,4.333,3.78.111Z" transform="translate(-285.038 -263.9)" fill="#b3b3b3"/>
        <path id="Path_196439" data-name="Path 196439" d="M337.684,295.832l3.78.111.383,4.333-3.78-.111Z" transform="translate(-306.154 -264.52)" fill="#b3b3b3"/>
        <path id="Path_196440" data-name="Path 196440" d="M314.472,268.147l-7.285-.214.383,4.333,7.285.214Z" transform="translate(-284.953 -245.125)" fill="#ccc"/>
        <path id="Path_196441" data-name="Path 196441" d="M277.865,267.072l3.78.111.383,4.333-3.78-.111Z" transform="translate(-264.569 -244.526)" fill="#b3b3b3"/>
        <path id="Path_196442" data-name="Path 196442" d="M296.326,267.614l-3.78-.111.383,4.333,3.78.111Z" transform="translate(-274.775 -244.826)" fill="#7d92be"/>
        <path id="Path_196443" data-name="Path 196443" d="M372.849,221.524l-4-.117-.383-4.333,4,.117Z" transform="translate(-327.557 -209.768)" fill="#b3b3b3"/>
        <path id="Path_196444" data-name="Path 196444" d="M390.647,222.047l-5.88-.173-.383-4.333,5.88.173Z" transform="translate(-338.619 -210.093)" fill="#759c7b"/>
        <path id="Path_196445" data-name="Path 196445" d="M409.353,222.6l-3.022-.089-.383-4.333,3.022.089Z" transform="translate(-353.611 -210.533)" fill="#b3b3b3"/>
        <path id="Path_196446" data-name="Path 196446" d="M335.766,410.768l-6.051-.178.383,4.333,6.051.178Z" transform="translate(-300.614 -344.298)" fill="#e67342"/>
        <path id="Path_196447" data-name="Path 196447" d="M362.058,411.539l-6.051-.178.383,4.333,6.051.178Z" transform="translate(-318.892 -344.835)" fill="#e6e6e6"/>
        <rect id="Rectangle_43654" data-name="Rectangle 43654" width="0.47" height="62.135" transform="translate(2.623 6.964) rotate(-5.049)" fill="#7d92be"/>
      </g>
      <g id="Group_139723" data-name="Group 139723" transform="translate(295.889 251.631)">
        <path id="Path_196448" data-name="Path 196448" d="M677.985,600.465l-1.166,5.7-12.909-1.047s-8.025,2.442-9.887,2.094-7.329-3.837-7.329-3.837a8.977,8.977,0,0,1-2.79-.7l-5.7,1.279s-4.771,5-6.514,5.934a2.889,2.889,0,0,1-1.621.287,6.638,6.638,0,0,1-2.566-.87l.7-1.163a3.119,3.119,0,0,1-2.677-.815l8.26-11.514s11.514-4.768,12.677-4.768,9.422,1.859,10.235,2.091,5.119,1.282,5.119,1.282l10.257-1.406.793-.108,1.511.116Z" transform="translate(-623.201 -591.045)" fill="#fed0b9"/>
        <path id="Path_196449" data-name="Path 196449" d="M617.9,604.975l8.258-8.723,11.864-1.4-3.373,4.188-6.863,1.279s-6.092,4.937-6.63,5.35C619.641,606.836,617.9,604.975,617.9,604.975Z" transform="translate(-617.896 -593.694)" fill="#fed0b9"/>
        <path id="Path_196450" data-name="Path 196450" d="M688.349,604.7l-1.166,5.7-12.909-1.047s-8.025,2.442-9.887,2.094-7.329-3.837-7.329-3.837a8.977,8.977,0,0,1-2.79-.7l-5.7,1.279s-4.771,5-6.514,5.934a2.887,2.887,0,0,1-1.621.287l7.784-7.268s6.63-1.917,7.5-1.569,6.978,2.442,9.072,3.489,9.249-1.047,9.249-1.047h10.641a55.147,55.147,0,0,0-.522-6.456c-.326-1.13-1.544-3.906-1.724-4.312l.793-.108,1.511.116Z" transform="translate(-633.565 -595.285)" fill="#eea489"/>
        <path id="Path_196451" data-name="Path 196451" d="M631.2,628.795a.289.289,0,0,1-.223-.474l7.84-9.506a.289.289,0,0,1,.447.369l-7.84,9.506A.29.29,0,0,1,631.2,628.795Z" transform="translate(-626.943 -610.277)" fill="#eea489"/>
      </g>
      <g id="Group_139724" data-name="Group 139724" transform="translate(229.702 227.611)">
        <path id="Path_196452" data-name="Path 196452" d="M477.978,560.78l-3.081.438-56.714-3.6-6.783-44.7,59.959,3.807Z" transform="translate(-408.155 -512.714)" fill="#999"/>
        <path id="Path_196453" data-name="Path 196453" d="M467.5,560.748l-59.959-3.807-6.783-44.7,59.959,3.807Z" transform="translate(-400.754 -512.244)" fill="#ccc"/>
        <path id="Path_196454" data-name="Path 196454" d="M482.95,586.954l10.155.791a1.647,1.647,0,0,1,1.5,1.4l.018.122a1.647,1.647,0,0,1-1.776,1.885l-10.173-.913a1.647,1.647,0,0,1-1.491-1.468h0A1.647,1.647,0,0,1,482.95,586.954Z" transform="translate(-456.661 -564.178)" fill="#999"/>
      </g>
      <g id="Group_139726" data-name="Group 139726" transform="translate(335.828 270.411)">
        <path id="Path_196455" data-name="Path 196455" d="M751.913,655.1l3.129,2.381,21.784,5.353a4.353,4.353,0,0,0,3.214-2.866c.633-1.514-.18-2.132-.18-2.132l-23.512-5.179Z" transform="translate(-751.002 -652.657)" fill="#985b3d"/>
        <g id="Group_139725" data-name="Group 139725" transform="translate(0 0.274)">
          <path id="Path_196456" data-name="Path 196456" d="M753.558,656.714l-4.061-2.56,4.712-.6,20.356,4.583-1.517,3.7Z" transform="translate(-749.322 -653.556)" fill="#f4e3d3"/>
          <path id="Path_196457" data-name="Path 196457" d="M826.79,668.078a2.217,2.217,0,0,1,.382,2.092,2.542,2.542,0,0,1-1.721,1.775l-4.088-1.023a5.075,5.075,0,0,1,1.155-3.774l4.208.914A.386.386,0,0,1,826.79,668.078Z" transform="translate(-799.266 -663.006)" fill="#e67342"/>
          <path id="Path_196458" data-name="Path 196458" d="M834.772,670.139a2.218,2.218,0,0,1,.382,2.093,2.542,2.542,0,0,1-1.721,1.775s-1.06-.683-.388-2.442c.573-1.5,1.42-1.478,1.662-1.44A.39.39,0,0,1,834.772,670.139Z" transform="translate(-807.248 -665.067)" fill="#d1572c"/>
          <path id="Path_196459" data-name="Path 196459" d="M780.16,664.731l-.4-.291.815-1.122-18.612-4.863.125-.478,19.313,5.046Z" transform="translate(-757.988 -656.63)" fill="#e67342"/>
          <path id="Path_196460" data-name="Path 196460" d="M763.844,655.868s18.607,4.61,19.134,4.777Z" transform="translate(-759.296 -655.164)" fill="#985b3d"/>
          <path id="Path_196461" data-name="Path 196461" d="M750.736,656.033l.639-.663-.533-.516-1.92.2Z" transform="translate(-748.923 -654.458)" fill="#e67342"/>
        </g>
      </g>
      <g id="Group_139728" data-name="Group 139728" transform="translate(398.011 268.291)">
        <path id="Path_196462" data-name="Path 196462" d="M952.926,663.068l8.939,8.624,17.185-4.187.959-1.4-8.462-3.4Z" transform="translate(-952.926 -657.524)" fill="#985b3d"/>
        <g id="Group_139727" data-name="Group 139727">
          <path id="Path_196463" data-name="Path 196463" d="M952.926,649.061l8.746,7.483,16.554-4.047L967.45,645.7Z" transform="translate(-952.926 -645.703)" fill="#759c7b"/>
          <path id="Path_196464" data-name="Path 196464" d="M981.276,674.121l.1-2.082,16.554-4.047-.208,1.978Z" transform="translate(-972.634 -661.197)" fill="#517348"/>
          <path id="Path_196465" data-name="Path 196465" d="M952.926,656.719v2.186l8.641,7.379s.313-1.978.1-2.083S952.926,656.719,952.926,656.719Z" transform="translate(-952.926 -653.361)" fill="#759c7b"/>
          <rect id="Rectangle_43655" data-name="Rectangle 43655" width="0.552" height="11.446" transform="matrix(0.642, -0.766, 0.766, 0.642, 0.031, 3.882)" fill="#517348"/>
        </g>
      </g>
      <g id="Group_139729" data-name="Group 139729" transform="translate(185.619 256.386)">
        <path id="Path_196466" data-name="Path 196466" d="M256.706,652.382l32.22,2.951.138,2.9-32.931-3.58Z" transform="translate(-256.133 -638.441)" fill="#fff"/>
        <path id="Path_196467" data-name="Path 196467" d="M258.013,627.389l12.745-10.958,27.141,2.224-7.665,11.686Z" transform="translate(-257.44 -613.448)" fill="#759c7b"/>
        <path id="Path_196468" data-name="Path 196468" d="M331.488,629.931l3.1-.651,9.622-6.864-.519-.669-3.2-.167Z" transform="translate(-308.519 -617.027)" fill="#517348"/>
        <path id="Path_196469" data-name="Path 196469" d="M269.577,622.272l-.448,1.893,19.008,6.247.1-2.345Z" transform="translate(-265.167 -617.509)" fill="#5f77a1"/>
        <path id="Path_196470" data-name="Path 196470" d="M269.634,623.814l-.217,1.112,18.946,6.01.059-1.4Z" transform="translate(-265.367 -618.581)" fill="#fff"/>
        <path id="Path_196471" data-name="Path 196471" d="M341.654,623.342l-.067-1.19a.311.311,0,0,0-.455-.25l-9.542,5.882-.1,2.345,10.055-6.561A.248.248,0,0,0,341.654,623.342Z" transform="translate(-308.519 -617.224)" fill="#5f77a1"/>
        <path id="Path_196472" data-name="Path 196472" d="M270.6,611.409l10.986-4.763,17.331,4.623-9.656,5.936Z" transform="translate(-266.19 -606.646)" fill="#7d92be"/>
        <path id="Path_196473" data-name="Path 196473" d="M341.267,623.543l-9.634,5.8-.059,1.4,9.789-6.336Z" transform="translate(-308.578 -618.392)" fill="#f4e3d3"/>
        <path id="Path_196474" data-name="Path 196474" d="M256.133,638.107l34.758,5.147,7.151-14.6-1.389-.073,0,.888-7.591,12.218Z" transform="translate(-256.133 -621.895)" fill="#985b3d"/>
        <path id="Path_196475" data-name="Path 196475" d="M371.383,623.726l.064,2.368-7.591,12.218-.138-2.9Z" transform="translate(-330.924 -618.52)" fill="#f4e3d3"/>
      </g>
      <g id="Group_139730" data-name="Group 139730" transform="translate(223.805 272.042)">
        <path id="Path_196476" data-name="Path 196476" d="M434.868,677.8l2.966.7s-2.791,1.57-4.013,2.094-16.051,3.141-16.749,3.141-8.549,1.047-8.549,1.047l-17.1-4.885,14.83-2.617Z" transform="translate(-388.372 -671.405)" fill="#985b3d"/>
        <path id="Path_196477" data-name="Path 196477" d="M381.409,664.493l19.977,5.845,16.662-2.7,9.421-2.094,1.57-2.094-23.175-5.438-9.479,2.384Z" transform="translate(-381.409 -658.009)" fill="#e6e6e6"/>
      </g>
      <g id="Group_139731" data-name="Group 139731" transform="translate(220.257 240.481)">
        <path id="Path_196478" data-name="Path 196478" d="M388.631,606.92l-1.762,18.837h-15.29l-.18-1.92-1.583-16.917Z" transform="translate(-369.802 -590.931)" fill="#e89d43"/>
        <path id="Path_196479" data-name="Path 196479" d="M384.44,606.92l-1.583,16.917H371.4l-1.583-16.917Z" transform="translate(-369.802 -590.931)" fill="#fcb552"/>
        <path id="Path_196480" data-name="Path 196480" d="M388.613,604.879c0,.53-4.218.96-9.421.96s-9.421-.429-9.421-.96,4.218-.959,9.421-.959S388.613,604.349,388.613,604.879Z" transform="translate(-369.77 -588.844)" fill="#e89d43"/>
        <path id="Path_196481" data-name="Path 196481" d="M390.867,666.7c0,.53-3.43.96-7.661.96s-7.661-.429-7.661-.96,3.43-.959,7.661-.959S390.867,666.166,390.867,666.7Z" transform="translate(-373.785 -631.819)" fill="#e89d43"/>
        <path id="Path_196482" data-name="Path 196482" d="M389.915,564.575a2.693,2.693,0,0,1-1.671,1.135,9.157,9.157,0,0,0-1.961.66c-.558.323-1.008,1.108-.569,1.58.492.528,1.467.017,2.058.428a1.167,1.167,0,0,1-.3,1.732,3.375,3.375,0,0,1-1.959.376q-1.968-.025-3.934-.047c-1.053-.014-2.793.293-3.779-.061-.82-.293-3.2-1.624-3.337-2.569-.006-.033-.009-.063-.011-.1v0c-.025-.351.091-.7.1-1.058a5.985,5.985,0,0,0-.837-2.285c-.309-.76-.254-1.848.511-2.141a5.809,5.809,0,0,1,3.066,1.351,2.292,2.292,0,0,0,1.014-1.505c.11-.624-1.525-3.928-1.613-4.558a3.872,3.872,0,0,1,.359-1.627,4.874,4.874,0,0,1,.447-.9,1.108,1.108,0,0,1,1.636-.268c.527.738,1.994,4.826,2.519,5.566A2.127,2.127,0,0,0,383,561.351c1.105.119,1.9-1.473,2.986-1.238,1.193.257,1.141,2.354,2.326,2.647.351.088.732-.02,1.078.085A1.22,1.22,0,0,1,389.915,564.575Z" transform="translate(-372.393 -554.464)" fill="#759c7b"/>
        <path id="Path_196483" data-name="Path 196483" d="M392,564.575a2.693,2.693,0,0,1-1.671,1.135,9.157,9.157,0,0,0-1.961.66c-.558.323-1.008,1.108-.569,1.58.492.528,1.467.017,2.058.428a1.167,1.167,0,0,1-.3,1.732,3.375,3.375,0,0,1-1.959.376q-1.968-.025-3.934-.047c-1.053-.014-2.793.293-3.779-.061-.82-.293-3.2-1.624-3.337-2.569-.006-.033-.009-.063-.011-.1a.768.768,0,0,0,.307.005c.58-.111.749-.867.683-1.456s-.218-1.252.146-1.718c1.207.387,1.044,2.461,2.221,2.934a5.5,5.5,0,0,0,1.68.036c.956.061,1.71.8,2.561,1.229s2.174.387,2.453-.528c.218-.707-.351-1.381-.79-1.978s-.732-1.544-.138-1.986c.359-.268.878-.19,1.274-.4a1.1,1.1,0,0,0,.124-1.729,1.359,1.359,0,0,0-1.826.2c-.3.348-.605.9-1.044.763-.506-.16-.315-.972-.644-1.39a1.966,1.966,0,0,0-.809-.428,3.01,3.01,0,0,1-1.484-2.028,7.839,7.839,0,0,0-.911-2.663,1.818,1.818,0,0,0-1.2-.685,4.876,4.876,0,0,1,.447-.9,1.108,1.108,0,0,1,1.636-.268c.527.738,1.994,4.826,2.519,5.566a2.127,2.127,0,0,0,1.337,1.061c1.105.119,1.9-1.473,2.986-1.238,1.193.257,1.141,2.354,2.326,2.647.351.088.732-.02,1.078.085A1.22,1.22,0,0,1,392,564.575Z" transform="translate(-374.476 -554.464)" fill="#517348"/>
      </g>
      <g id="Group_139735" data-name="Group 139735" transform="translate(303.527 102.811)">
        <path id="Path_196484" data-name="Path 196484" d="M677.423,253.72s3.082.931,3.78.756a21.529,21.529,0,0,1,3.78-.582c.291.116-.174.872-.931,1.1s-2.733.872-2.733.872S678,255.29,677.423,253.72Z" transform="translate(-666.916 -207.721)" fill="#eea489"/>
        <path id="Path_196485" data-name="Path 196485" d="M742.3,233.189a.414.414,0,0,1-.337-.654l1.919-2.7a.414.414,0,1,1,.676.479l-1.919,2.7A.413.413,0,0,1,742.3,233.189Z" transform="translate(-711.731 -190.992)" fill="#eea489"/>
        <path id="Path_196486" data-name="Path 196486" d="M744.591,239.025a.415.415,0,0,1-.346-.642l1.657-2.53a.414.414,0,0,1,.693.454l-1.658,2.53A.414.414,0,0,1,744.591,239.025Z" transform="translate(-713.322 -195.17)" fill="#eea489"/>
        <g id="Group_139732" data-name="Group 139732" transform="translate(0 0)">
          <path id="Path_196487" data-name="Path 196487" d="M693.931,153.918l-3.025,19.541-8.257,6.514s-15.237.464-16.516-2.445-4.188-16.05-4.42-17.329a70.478,70.478,0,0,1,.7-8.431c.194-1.638.348-2.853.348-2.853s6.5-2.931,12.743-5.743h0c5.691-2.558,11.163-5.016,11.331-5.072C687.185,137.985,693.931,153.918,693.931,153.918Z" transform="translate(-655.975 -127.343)" fill="#fed0b9"/>
          <path id="Path_196488" data-name="Path 196488" d="M687.507,153.744s-11.34,7.677-13.086,8.376c-1.627.649-9.312.542-10.351.525.194-1.638.348-2.853.348-2.853s6.5-2.931,12.743-5.743h0Z" transform="translate(-657.634 -138.219)" fill="#eea489"/>
          <path id="Path_196489" data-name="Path 196489" d="M689.285,131.013a22.034,22.034,0,0,1-1.514,4.072l-3.837-3.257-2.21,1.047s-.464,16.285-1.279,18.262c-.662,1.6-8.995,8.582-12.1,11.146a4.063,4.063,0,0,1-2.643.93l-4.849-.065a4.06,4.06,0,0,1-3.447-2c-1.509-2.565-3.974-6.871-4.294-8.151a6.1,6.1,0,0,1,1.862-2.79l2.674.7,3.025-1.163s6.63.931,7.561,1.63a9.221,9.221,0,0,1,1.859,2.442s7.1-5.931,7.444-7.094,1.514-14.306,1.514-14.306-2.561-2.561-2.909-3.724-4.246-9.536-4.246-9.536-11.019,4.943-12.854,5.727-11.05-.376-12.909-2.238a15.133,15.133,0,0,0-2.442,3.141s-1.022-5.1-.66-7.353l0-.011a2.317,2.317,0,0,1,.191-.663c.815-1.627,8.84-6.047,9.887-6.746s3.141-4.652,5-5.232,8.025-1.63,10-1.978,5.7-1.4,7.094-.815a46.027,46.027,0,0,1,5.583,3.956s5.7,1.163,6.514,2.674S689.517,129.618,689.285,131.013Z" transform="translate(-642.954 -102.811)" fill="#6d2931"/>
          <path id="Path_196490" data-name="Path 196490" d="M685.729,269.6a16.743,16.743,0,0,1-1.691-.053,3.752,3.752,0,0,1-1.65-.759.276.276,0,0,1,.354-.425,3.223,3.223,0,0,0,1.375.637,57.477,57.477,0,0,0,6.289-.106,4.932,4.932,0,0,0,1.4-.764.276.276,0,0,1,.331.442,5.382,5.382,0,0,1-1.624.864C690.1,269.521,687.536,269.6,685.729,269.6Z" transform="translate(-670.299 -217.702)" fill="#35231f"/>
          <path id="Path_196491" data-name="Path 196491" d="M692.533,277.352a.276.276,0,0,1,0-.553l4.187-.044a.276.276,0,1,1,.006.553l-4.187.044Z" transform="translate(-677.229 -223.734)" fill="#35231f"/>
          <path id="Path_196492" data-name="Path 196492" d="M671.852,153.229s-10.961,4.943-12.8,5.727-8.606.67-12.677-1.191a16.148,16.148,0,0,0-2.559,3.257s-1.137-6.262-.775-8.516l0-.011.19-.663s2,2.6,2.558,2.793a95.119,95.119,0,0,0,11.981,1.395C660.22,156.02,671.852,153.229,671.852,153.229Z" transform="translate(-642.969 -136.89)" fill="#591e26"/>
          <path id="Path_196493" data-name="Path 196493" d="M775.586,140.426a22.036,22.036,0,0,1-1.514,4.072l-3.837-3.257s1.627-3.953,1.862-5-.467-14.657-.7-15.936-4.3-3.953-4.3-3.953,5.7,1.163,6.514,2.674S775.818,139.031,775.586,140.426Z" transform="translate(-729.254 -112.224)" fill="#591e26"/>
          <path id="Path_196494" data-name="Path 196494" d="M656.159,133.109a.414.414,0,0,1-.154-.8c.269-.108,6.636-2.643,9.8-2.907,1.06-.089,2.448-.052,4.055-.009,3.1.083,6.959.185,9.7-.671,4.013-1.254,7.9-6.179,7.939-6.228a.414.414,0,0,1,.653.511c-.165.211-4.083,5.177-8.345,6.508-2.87.9-6.8.793-9.966.709-1.583-.042-2.95-.078-3.964.006-3.043.254-9.5,2.825-9.563,2.851A.413.413,0,0,1,656.159,133.109Z" transform="translate(-651.845 -116.384)" fill="#591e26"/>
          <path id="Path_196495" data-name="Path 196495" d="M774.661,148.478a.409.409,0,0,1-.131-.021.414.414,0,0,1-.262-.524c.255-.767.939-2.9,1.03-3.533.075-.6-.674-8.245-1.165-12.925a.414.414,0,0,1,.824-.087c.215,2.048,1.279,12.306,1.161,13.129-.12.841-1.025,3.563-1.064,3.678A.414.414,0,0,1,774.661,148.478Z" transform="translate(-734.146 -122.419)" fill="#591e26"/>
          <path id="Path_196496" data-name="Path 196496" d="M769.57,155a.415.415,0,0,1-.4-.324l-1.512-6.746a.414.414,0,0,1,.809-.181l1.512,6.746a.414.414,0,0,1-.314.5A.424.424,0,0,1,769.57,155Z" transform="translate(-729.637 -133.826)" fill="#591e26"/>
          <path id="Path_196497" data-name="Path 196497" d="M656.254,154.963a.415.415,0,0,1-.2-.775c.807-.458,7.943-4.474,9.858-4.474h5.816a.414.414,0,0,1,0,.829h-5.816c-1.437,0-7.308,3.152-9.449,4.366A.41.41,0,0,1,656.254,154.963Z" transform="translate(-651.912 -135.417)" fill="#591e26"/>
          <path id="Path_196498" data-name="Path 196498" d="M671.855,131.6c-.523,0-8.2-1.4-10.642-.174s-10.119,5.583-10.119,5.583,11.515-3.838,15-3.489A7.584,7.584,0,0,0,671.855,131.6Z" transform="translate(-648.613 -122.354)" fill="#893e4c"/>
        </g>
        <g id="Group_139733" data-name="Group 139733" transform="translate(38.393 29.062)">
          <path id="Path_196499" data-name="Path 196499" d="M768.908,208.957l1.954.2a2.637,2.637,0,0,0,2.615-1.43l2.132-4.2a2.638,2.638,0,0,0-.3-2.848l-1.24-1.54a2.637,2.637,0,0,0-3.169-.736l-1.616.754Z" transform="translate(-768.908 -198.156)" fill="#fed0b9"/>
          <path id="Path_196500" data-name="Path 196500" d="M769.585,212.393h-.022a.415.415,0,0,1-.392-.435,9.579,9.579,0,0,1,2.988-6.045.414.414,0,0,1,.552.618A8.9,8.9,0,0,0,770,212,.415.415,0,0,1,769.585,212.393Z" transform="translate(-769.09 -203.475)" fill="#eea489"/>
          <path id="Path_196501" data-name="Path 196501" d="M770.92,217.687a.414.414,0,0,1-.255-.741,4.84,4.84,0,0,1,3.352-.513c.076.009.133.017.165.019a.42.42,0,0,1,.4.423.409.409,0,0,1-.408.405c-.043,0-.134-.009-.261-.025a4.178,4.178,0,0,0-2.742.344A.411.411,0,0,1,770.92,217.687Z" transform="translate(-770.019 -210.804)" fill="#eea489"/>
        </g>
        <path id="Path_196502" data-name="Path 196502" d="M715.776,217.862c0,1.06-.6,1.919-1.338,1.919s-1.338-.859-1.338-1.919.6-1.919,1.338-1.919S715.776,216.8,715.776,217.862Z" transform="translate(-691.719 -181.459)" fill="#290f1a"/>
        <path id="Path_196503" data-name="Path 196503" d="M673.3,220.67c.24,1.032-.15,2-.87,2.171s-1.5-.535-1.736-1.567.15-2,.87-2.172S673.065,219.637,673.3,220.67Z" transform="translate(-662.192 -183.638)" fill="#290f1a"/>
        <path id="Path_196504" data-name="Path 196504" d="M699.459,206.219s.436,1.134,1.134,1.4,7.066-.785,7.066-.785l2.268.349s-1.657-1.919-2.268-1.919S699.459,206.219,699.459,206.219Z" transform="translate(-682.236 -174.031)" fill="#591e26"/>
        <path id="Path_196505" data-name="Path 196505" d="M667.59,210s-.436,1.527-1.047,1.7a42.618,42.618,0,0,1-4.623.066L661.4,209.7Z" transform="translate(-655.775 -177.115)" fill="#591e26"/>
        <path id="Path_196506" data-name="Path 196506" d="M680.933,234.108l-.058,0a6.515,6.515,0,0,1-4.388-2.194l-.1-.126,2.83-7.192-.085-2.21a.276.276,0,0,1,.552-.021l.089,2.326-2.75,6.99a6.023,6.023,0,0,0,3.823,1.873l2.969-1.142a.276.276,0,0,1,.2.515Z" transform="translate(-666.194 -185.737)" fill="#db8a75"/>
        <path id="Path_196507" data-name="Path 196507" d="M714.684,217.375a.277.277,0,0,1-.24-.138c-.958-1.664-3.09-.58-3.18-.533a.276.276,0,0,1-.256-.49c.926-.485,2.936-.953,3.915.747a.276.276,0,0,1-.239.414Z" transform="translate(-690.161 -181.335)" fill="#35231f"/>
        <path id="Path_196508" data-name="Path 196508" d="M671.83,220.406a.276.276,0,0,1-.253-.165,1.63,1.63,0,0,0-1.033-1.024,2.791,2.791,0,0,0-1.979.553.276.276,0,0,1-.333-.441,3.3,3.3,0,0,1,2.449-.647,2.148,2.148,0,0,1,1.4,1.337.276.276,0,0,1-.142.364A.27.27,0,0,1,671.83,220.406Z" transform="translate(-660.451 -183.319)" fill="#35231f"/>
        <g id="Group_139734" data-name="Group 139734" transform="translate(4.56 30.064)">
          <path id="Path_196509" data-name="Path 196509" d="M733.23,206.357l11.253-4.914v.9l-11.253,5.5Z" transform="translate(-710.273 -201.443)" fill="#290f1a"/>
          <path id="Path_196510" data-name="Path 196510" d="M682.517,222.438a.276.276,0,0,1-.013-.552l4.536-.218a.276.276,0,1,1,.027.552l-4.536.218Z" transform="translate(-674.826 -215.503)"/>
          <path id="Path_196511" data-name="Path 196511" d="M700.609,222.3c-2.434,0-2.544-.11-2.632-.2A41.637,41.637,0,0,1,696,217.739a.276.276,0,0,1,.238-.381l11.079-.7a.276.276,0,0,1,.293.3l-.3,3.391a2.055,2.055,0,0,1-2,1.876C703.176,222.28,701.671,222.3,700.609,222.3Zm-2.264-.624a68.692,68.692,0,0,0,6.954,0,1.5,1.5,0,0,0,1.46-1.373l.269-3.071-10.372.653C697.282,219.384,698.118,221.314,698.346,221.677Z" transform="translate(-684.376 -212.021)"/>
          <path id="Path_196512" data-name="Path 196512" d="M660.458,224.434a1.413,1.413,0,0,1-1.326-.924l-1.2-3.247a.276.276,0,0,1,.256-.372l7.24-.087a.267.267,0,0,1,.278.246l.436,3.925a.276.276,0,0,1-.267.307l-5.377.151Zm-1.872-3.995,1.064,2.879a.864.864,0,0,0,.833.563l5.077-.143-.375-3.379Z" transform="translate(-657.915 -214.207)"/>
        </g>
      </g>
      <g id="Group_139736" data-name="Group 139736" transform="translate(344.043 153.637)">
        <path id="Path_196513" data-name="Path 196513" d="M832.628,341.767c-.572,23.094-1.252,48-1.252,48l-29.309,1.395s-1.6-6.351-3.409-13.682c-2.235-9.064-4.773-19.632-4.967-21.561-.348-3.489-1.221-34.892-1.221-34.892l8.55-31.055s31.986,11.862,32.334,13.26C833.514,303.875,833.11,322.164,832.628,341.767Z" transform="translate(-787.411 -283.75)" fill="#7d92be"/>
        <path id="Path_196514" data-name="Path 196514" d="M846.74,431.69c-.572,23.094-1.252,48-1.252,48l-29.309,1.395s-1.6-6.351-3.409-13.682l5.5-.972,11.514-5.584s-.348-19.889-.7-21.982,6.282-19.542,6.282-19.542l8.724,1.4Z" transform="translate(-801.523 -373.673)" fill="#5f77a1"/>
        <path id="Path_196515" data-name="Path 196515" d="M804.509,291.366s2.966,13.608,3.141,15.178-2.094,18.843-2.094,18.843l-9.072-3.315-4.013.174v-1.221l8.549-31.056Z" transform="translate(-787.411 -283.748)" fill="#5f77a1"/>
        <path id="Path_196516" data-name="Path 196516" d="M792.878,269.556s9.363,3.954,9.886,5.263,2.094,13.609,2.355,14.917-2.355,17.1-2.355,17.1l-6.979-3.489-3.315,3.489,5.292-29.891s-3.724-3.839-3.84-4.188S792.878,269.556,792.878,269.556Z" transform="translate(-787.411 -269.556)" fill="#7d92be"/>
        <path id="Path_196517" data-name="Path 196517" d="M871.409,418.56s-5.235,5.931-8.724,5.931h-32.8s.7-4.536,0-6.279-5.931-7.677-5.931-7.677l22.68-8.028s-6.343-25.633-6.542-28.436c-.784-10.992,1.309-25.909,1.309-25.909s10-17.185,13.84-15.091,8.492,13.956,11.282,23.378a23.585,23.585,0,0,1,.528,2.31C869.574,372.384,871.409,418.56,871.409,418.56Z" transform="translate(-809.297 -313.588)" fill="#7d92be"/>
        <path id="Path_196518" data-name="Path 196518" d="M903.933,561.493s-3.373-4.885-3.955-5.7a7.594,7.594,0,0,0-1.856-1.4.426.426,0,0,1,.256-.789,41.35,41.35,0,0,1,5.089.681c2.559.582,5.466,3.955,5.466,3.955s-1.512-4.071-5.118-5.7a92.535,92.535,0,0,0-9.247-2.326c-.349,0,.523,3.315.523,3.315l-.931.64s3.49,2.094,4.769,3.14S903.933,561.493,903.933,561.493Z" transform="translate(-858.107 -464.664)" fill="#5f77a1"/>
        <path id="Path_196519" data-name="Path 196519" d="M790.527,587.606s-13.027,1.163-13.376,1.512-1.279,1.047-1.279,1.047a12.742,12.742,0,0,1,2.792,1.861c.349.582,2.442,8.258,2.675,8.84s-.349,3.49-.349,3.49a25.718,25.718,0,0,0,3.489.7c.814,0,11.631-2.094,11.631-2.094a57.868,57.868,0,0,0,.581-6.63C796.576,594.818,790.527,587.606,790.527,587.606Z" transform="translate(-775.872 -490.66)" fill="#7d92be"/>
        <path id="Path_196520" data-name="Path 196520" d="M871.409,477.55s-5.235,5.931-8.724,5.931h-32.8s.7-4.536,0-6.279-5.931-7.677-5.931-7.677l3.025-1.047s4.536,6.279,5.116,7.561.583,5.232.583,5.232,16.633.7,18.492.815,10.353-.464,11.166-1.047,6.281-5.119,6.166-6.746c-.113-1.583-1.379-53.588-1.45-56.544C869.574,431.373,871.409,477.55,871.409,477.55Z" transform="translate(-809.297 -372.578)" fill="#5f77a1"/>
        <path id="Path_196521" data-name="Path 196521" d="M817.16,482.638s1.221,10.643,2.791,11.864,9.072,3.315,9.072,3.315l5.06-3.839.523,1.221-5.583,4.362s-9.77-2.792-10.294-4.187-2.791-13.085-2.791-13.085Z" transform="translate(-803.726 -417.445)" fill="#5f77a1"/>
        <path id="Path_196522" data-name="Path 196522" d="M843.43,473.683c-1.047-.174-12.038,2.268-12.038,2.268l.349,1.221,11.166-1.4Z" transform="translate(-814.469 -411.456)" fill="#5f77a1"/>
      </g>
      <g id="Group_139738" data-name="Group 139738" transform="translate(374.749 251.691)">
        <ellipse id="Ellipse_5203" data-name="Ellipse 5203" cx="10.991" cy="1.483" rx="10.991" ry="1.483" transform="translate(0 23.317)" fill="#985b3d"/>
        <g id="Group_139737" data-name="Group 139737" transform="translate(0.872 1.42)">
          <path id="Path_196523" data-name="Path 196523" d="M896.22,595.9V615.04a4.418,4.418,0,0,1-4.417,4.417h-7.914a4.418,4.418,0,0,1-4.417-4.417V595.9Z" transform="translate(-879.471 -595.902)" fill="#d1572c"/>
          <path id="Path_196524" data-name="Path 196524" d="M893.079,595.9V615.04a4.415,4.415,0,0,1-4.414,4.417h-4.776a4.418,4.418,0,0,1-4.417-4.417V595.9Z" transform="translate(-879.471 -595.902)" fill="#f66d51"/>
          <path id="Path_196525" data-name="Path 196525" d="M931.747,624.443h-4.291V612.7h4.291a3.273,3.273,0,0,1,3.269,3.269v5.209A3.273,3.273,0,0,1,931.747,624.443Zm-3.186-1.1h3.186a2.167,2.167,0,0,0,2.164-2.164v-5.209a2.167,2.167,0,0,0-2.164-2.164h-3.186Z" transform="translate(-912.83 -607.577)" fill="#d1572c"/>
        </g>
        <path id="Path_196526" data-name="Path 196526" d="M896.126,592.705c0,.182-.191.356-.541.518-1.2.55-4.271.944-7.869.944s-6.67-.394-7.872-.944c-.35-.162-.541-.336-.541-.518,0-.808,3.767-1.462,8.413-1.462S896.126,591.9,896.126,592.705Z" transform="translate(-878.482 -591.243)" fill="#f4e3d3"/>
        <path id="Path_196527" data-name="Path 196527" d="M896.819,595.581c-1.2.55-4.271.944-7.869.944s-6.67-.394-7.872-.944c1.2-.553,4.273-.947,7.872-.947S895.617,595.028,896.819,595.581Z" transform="translate(-879.716 -593.6)" fill="#6d2931"/>
      </g>
    </g>
  </g>
</svg>
